<svg width="54" height="54" viewBox="0 0 54 54" fill="none" xmlns="http://www.w3.org/2000/svg">
<path fill-rule="evenodd" clip-rule="evenodd" d="M26.585 0C11.9025 0 0 11.9025 0 26.585C0 41.2674 11.9025 53.1699 26.585 53.1699C41.2674 53.1699 53.1699 41.2674 53.1699 26.585C53.1699 11.9025 41.2674 0 26.585 0ZM11.3862 17.3518L17.6366 23.4373L23.9313 17.3088L17.6787 11.2209L20.866 8.1179L27.1187 14.2061L33.4932 8L36.6199 11.044L30.2448 17.25L36.4982 23.3379L42.8733 17.1321L46 20.1761L39.6249 26.3818L45.8789 32.4702L42.6916 35.5732L36.4376 29.4848L30.0631 35.6906L36.3171 41.7791L33.1299 44.8821L26.8759 38.7936L20.5026 45L17.3759 41.956L23.8003 35.693L17.5493 29.6073L11.1255 35.8621L8 32.8194L14.4244 26.5646L8.17397 20.4792L11.3862 17.3518ZM27.0125 32.5656L33.311 26.4408L27.0576 20.3535L27.0568 20.3516L20.7615 26.4799L27.0125 32.5656Z" fill="#0053D0"/>
</svg>
