<svg xmlns="http://www.w3.org/2000/svg" height="44" viewBox="0 -960 960 960" width="44"><path fill="white" d="m549-484.5-107-107h88v-68l97 97-78 78ZM799.5-233 741-291.5h70.5V-771h-550L204-828.5h607.5q22.969 0 40.234 17.266Q869-793.969 869-771v479.53q0 26.088-20.25 43.779Q828.5-230 799.5-233Zm36 200.5L737-131H45v-57.5h635L634.5-234h-485q-22.969 0-40.234-17.266Q92-268.531 92-291.5v-481.25q0-2.75.5-3.75l-56-55L78-873 877-74l-41.5 41.5ZM393-475.5v88h-57.5V-477q0-10 2.25-22.5t7.25-23.534L149.5-719v427.5H577l-184-184ZM502-532Zm-138 26.5Z"/></svg>