<?xml version="1.0" encoding="UTF-8"?>
<?xml-stylesheet href="https://cdnjs.cloudflare.com/ajax/libs/font-awesome/6.5.2/css/all.min.css" type="text/css"?>
<svg aria-roledescription="sequence" role="graphics-document document" viewBox="-50 -10 1197 2496" style="max-width: 100%;" xmlns="http://www.w3.org/2000/svg" width="100%" id="graph-div" height="100%" xmlns:xlink="http://www.w3.org/1999/xlink"><g><rect class="actor actor-bottom" ry="3" rx="3" name="C" height="65" width="150" stroke="#666" fill="#eaeaea" y="2410" x="947"></rect><text class="actor" alignment-baseline="central" dominant-baseline="central" style="text-anchor: middle; font-size: 16px; font-weight: 400;" y="2442.5" x="1022"><tspan dy="-8" x="1022">Existing</tspan></text><text class="actor" alignment-baseline="central" dominant-baseline="central" style="text-anchor: middle; font-size: 16px; font-weight: 400;" y="2442.5" x="1022"><tspan dy="8" x="1022">contact</tspan></text></g><g><rect class="actor actor-bottom" ry="3" rx="3" name="B" height="65" width="150" stroke="#666" fill="#eaeaea" y="2410" x="616"></rect><text class="actor" alignment-baseline="central" dominant-baseline="central" style="text-anchor: middle; font-size: 16px; font-weight: 400;" y="2442.5" x="691"><tspan dy="0" x="691">Bob</tspan></text></g><g><rect class="actor actor-bottom" ry="3" rx="3" name="A" height="65" width="150" stroke="#666" fill="#eaeaea" y="2410" x="282"></rect><text class="actor" alignment-baseline="central" dominant-baseline="central" style="text-anchor: middle; font-size: 16px; font-weight: 400;" y="2442.5" x="357"><tspan dy="0" x="357">Alice</tspan></text></g><g><rect class="actor actor-bottom" ry="3" rx="3" name="M" height="65" width="150" stroke="#666" fill="#eaeaea" y="2410" x="0"></rect><text class="actor" alignment-baseline="central" dominant-baseline="central" style="text-anchor: middle; font-size: 16px; font-weight: 400;" y="2442.5" x="75"><tspan dy="-8" x="75">N existing</tspan></text><text class="actor" alignment-baseline="central" dominant-baseline="central" style="text-anchor: middle; font-size: 16px; font-weight: 400;" y="2442.5" x="75"><tspan dy="8" x="75">members</tspan></text></g><g><line stroke="#999" stroke-width="0.5px" class="200" y2="2410" x2="1022" y1="5" x1="1022" id="actor171"></line><g id="root-171"><rect class="actor actor-top" ry="3" rx="3" name="C" height="65" width="150" stroke="#666" fill="#eaeaea" y="0" x="947"></rect><text class="actor" alignment-baseline="central" dominant-baseline="central" style="text-anchor: middle; font-size: 16px; font-weight: 400;" y="32.5" x="1022"><tspan dy="-8" x="1022">Existing</tspan></text><text class="actor" alignment-baseline="central" dominant-baseline="central" style="text-anchor: middle; font-size: 16px; font-weight: 400;" y="32.5" x="1022"><tspan dy="8" x="1022">contact</tspan></text></g></g><g><line stroke="#999" stroke-width="0.5px" class="200" y2="2410" x2="691" y1="5" x1="691" id="actor170"></line><g id="root-170"><rect class="actor actor-top" ry="3" rx="3" name="B" height="65" width="150" stroke="#666" fill="#eaeaea" y="0" x="616"></rect><text class="actor" alignment-baseline="central" dominant-baseline="central" style="text-anchor: middle; font-size: 16px; font-weight: 400;" y="32.5" x="691"><tspan dy="0" x="691">Bob</tspan></text></g></g><g><line stroke="#999" stroke-width="0.5px" class="200" y2="2410" x2="357" y1="5" x1="357" id="actor169"></line><g id="root-169"><rect class="actor actor-top" ry="3" rx="3" name="A" height="65" width="150" stroke="#666" fill="#eaeaea" y="0" x="282"></rect><text class="actor" alignment-baseline="central" dominant-baseline="central" style="text-anchor: middle; font-size: 16px; font-weight: 400;" y="32.5" x="357"><tspan dy="0" x="357">Alice</tspan></text></g></g><g><line stroke="#999" stroke-width="0.5px" class="200" y2="2410" x2="75" y1="5" x1="75" id="actor168"></line><g id="root-168"><rect class="actor actor-top" ry="3" rx="3" name="M" height="65" width="150" stroke="#666" fill="#eaeaea" y="0" x="0"></rect><text class="actor" alignment-baseline="central" dominant-baseline="central" style="text-anchor: middle; font-size: 16px; font-weight: 400;" y="32.5" x="75"><tspan dy="-8" x="75">N existing</tspan></text><text class="actor" alignment-baseline="central" dominant-baseline="central" style="text-anchor: middle; font-size: 16px; font-weight: 400;" y="32.5" x="75"><tspan dy="8" x="75">members</tspan></text></g></g><style>#graph-div{font-family:"trebuchet ms",verdana,arial,sans-serif;font-size:16px;fill:#333;}#graph-div .error-icon{fill:#552222;}#graph-div .error-text{fill:#552222;stroke:#552222;}#graph-div .edge-thickness-normal{stroke-width:2px;}#graph-div .edge-thickness-thick{stroke-width:3.5px;}#graph-div .edge-pattern-solid{stroke-dasharray:0;}#graph-div .edge-pattern-dashed{stroke-dasharray:3;}#graph-div .edge-pattern-dotted{stroke-dasharray:2;}#graph-div .marker{fill:#333333;stroke:#333333;}#graph-div .marker.cross{stroke:#333333;}#graph-div svg{font-family:"trebuchet ms",verdana,arial,sans-serif;font-size:16px;}#graph-div .actor{stroke:hsl(259.6261682243, 59.7765363128%, 87.9019607843%);fill:#ECECFF;}#graph-div text.actor&gt;tspan{fill:black;stroke:none;}#graph-div .actor-line{stroke:grey;}#graph-div .messageLine0{stroke-width:1.5;stroke-dasharray:none;stroke:#333;}#graph-div .messageLine1{stroke-width:1.5;stroke-dasharray:2,2;stroke:#333;}#graph-div #arrowhead path{fill:#333;stroke:#333;}#graph-div .sequenceNumber{fill:white;}#graph-div #sequencenumber{fill:#333;}#graph-div #crosshead path{fill:#333;stroke:#333;}#graph-div .messageText{fill:#333;stroke:none;}#graph-div .labelBox{stroke:hsl(259.6261682243, 59.7765363128%, 87.9019607843%);fill:#ECECFF;}#graph-div .labelText,#graph-div .labelText&gt;tspan{fill:black;stroke:none;}#graph-div .loopText,#graph-div .loopText&gt;tspan{fill:black;stroke:none;}#graph-div .loopLine{stroke-width:2px;stroke-dasharray:2,2;stroke:hsl(259.6261682243, 59.7765363128%, 87.9019607843%);fill:hsl(259.6261682243, 59.7765363128%, 87.9019607843%);}#graph-div .note{stroke:#aaaa33;fill:#fff5ad;}#graph-div .noteText,#graph-div .noteText&gt;tspan{fill:black;stroke:none;}#graph-div .activation0{fill:#f4f4f4;stroke:#666;}#graph-div .activation1{fill:#f4f4f4;stroke:#666;}#graph-div .activation2{fill:#f4f4f4;stroke:#666;}#graph-div .actorPopupMenu{position:absolute;}#graph-div .actorPopupMenuPanel{position:absolute;fill:#ECECFF;box-shadow:0px 8px 16px 0px rgba(0,0,0,0.2);filter:drop-shadow(3px 5px 2px rgb(0 0 0 / 0.4));}#graph-div .actor-man line{stroke:hsl(259.6261682243, 59.7765363128%, 87.9019607843%);fill:#ECECFF;}#graph-div .actor-man circle,#graph-div line{stroke:hsl(259.6261682243, 59.7765363128%, 87.9019607843%);fill:#ECECFF;stroke-width:2px;}#graph-div :root{--mermaid-font-family:"trebuchet ms",verdana,arial,sans-serif;}</style><g></g><defs><symbol height="24" width="24" id="computer"><path d="M2 2v13h20v-13h-20zm18 11h-16v-9h16v9zm-10.228 6l.466-1h3.524l.467 1h-4.457zm14.228 3h-24l2-6h2.104l-1.33 4h18.45l-1.297-4h2.073l2 6zm-5-10h-14v-7h14v7z" transform="scale(.5)"></path></symbol></defs><defs><symbol clip-rule="evenodd" fill-rule="evenodd" id="database"><path d="M12.258.001l.256.004.255.005.253.008.251.01.249.012.247.015.246.016.242.019.241.02.239.023.236.024.233.027.231.028.229.031.225.032.223.034.22.036.217.038.214.04.211.041.208.043.205.045.201.046.198.048.194.05.191.051.187.053.183.054.18.056.175.057.172.059.168.06.163.061.16.063.155.064.15.066.074.033.073.033.071.034.07.034.069.035.068.035.067.035.066.035.064.036.064.036.062.036.06.036.06.037.058.037.058.037.055.038.055.038.053.038.052.038.051.039.05.039.048.039.047.039.045.04.044.04.043.04.041.04.04.041.039.041.037.041.036.041.034.041.033.042.032.042.03.042.029.042.027.042.026.043.024.043.023.043.021.043.02.043.018.044.017.043.015.044.013.044.012.044.011.045.009.044.007.045.006.045.004.045.002.045.001.045v17l-.001.045-.002.045-.004.045-.006.045-.007.045-.009.044-.011.045-.012.044-.013.044-.015.044-.017.043-.018.044-.02.043-.021.043-.023.043-.024.043-.026.043-.027.042-.029.042-.03.042-.032.042-.033.042-.034.041-.036.041-.037.041-.039.041-.04.041-.041.04-.043.04-.044.04-.045.04-.047.039-.048.039-.05.039-.051.039-.052.038-.053.038-.055.038-.055.038-.058.037-.058.037-.06.037-.06.036-.062.036-.064.036-.064.036-.066.035-.067.035-.068.035-.069.035-.07.034-.071.034-.073.033-.074.033-.15.066-.155.064-.16.063-.163.061-.168.06-.172.059-.175.057-.18.056-.183.054-.187.053-.191.051-.194.05-.198.048-.201.046-.205.045-.208.043-.211.041-.214.04-.217.038-.22.036-.223.034-.225.032-.229.031-.231.028-.233.027-.236.024-.239.023-.241.02-.242.019-.246.016-.247.015-.249.012-.251.01-.253.008-.255.005-.256.004-.258.001-.258-.001-.256-.004-.255-.005-.253-.008-.251-.01-.249-.012-.247-.015-.245-.016-.243-.019-.241-.02-.238-.023-.236-.024-.234-.027-.231-.028-.228-.031-.226-.032-.223-.034-.22-.036-.217-.038-.214-.04-.211-.041-.208-.043-.204-.045-.201-.046-.198-.048-.195-.05-.19-.051-.187-.053-.184-.054-.179-.056-.176-.057-.172-.059-.167-.06-.164-.061-.159-.063-.155-.064-.151-.066-.074-.033-.072-.033-.072-.034-.07-.034-.069-.035-.068-.035-.067-.035-.066-.035-.064-.036-.063-.036-.062-.036-.061-.036-.06-.037-.058-.037-.057-.037-.056-.038-.055-.038-.053-.038-.052-.038-.051-.039-.049-.039-.049-.039-.046-.039-.046-.04-.044-.04-.043-.04-.041-.04-.04-.041-.039-.041-.037-.041-.036-.041-.034-.041-.033-.042-.032-.042-.03-.042-.029-.042-.027-.042-.026-.043-.024-.043-.023-.043-.021-.043-.02-.043-.018-.044-.017-.043-.015-.044-.013-.044-.012-.044-.011-.045-.009-.044-.007-.045-.006-.045-.004-.045-.002-.045-.001-.045v-17l.001-.045.002-.045.004-.045.006-.045.007-.045.009-.044.011-.045.012-.044.013-.044.015-.044.017-.043.018-.044.02-.043.021-.043.023-.043.024-.043.026-.043.027-.042.029-.042.03-.042.032-.042.033-.042.034-.041.036-.041.037-.041.039-.041.04-.041.041-.04.043-.04.044-.04.046-.04.046-.039.049-.039.049-.039.051-.039.052-.038.053-.038.055-.038.056-.038.057-.037.058-.037.06-.037.061-.036.062-.036.063-.036.064-.036.066-.035.067-.035.068-.035.069-.035.07-.034.072-.034.072-.033.074-.033.151-.066.155-.064.159-.063.164-.061.167-.06.172-.059.176-.057.179-.056.184-.054.187-.053.19-.051.195-.05.198-.048.201-.046.204-.045.208-.043.211-.041.214-.04.217-.038.22-.036.223-.034.226-.032.228-.031.231-.028.234-.027.236-.024.238-.023.241-.02.243-.019.245-.016.247-.015.249-.012.251-.01.253-.008.255-.005.256-.004.258-.001.258.001zm-9.258 20.499v.01l.001.021.003.021.004.022.005.021.006.022.007.022.009.023.01.022.011.023.012.023.013.023.015.023.016.024.017.023.018.024.019.024.021.024.022.025.023.024.024.025.052.049.056.05.061.051.066.051.07.051.075.051.079.052.084.052.088.052.092.052.097.052.102.051.105.052.11.052.114.051.119.051.123.051.127.05.131.05.135.05.139.048.144.049.147.047.152.047.155.047.16.045.163.045.167.043.171.043.176.041.178.041.183.039.187.039.19.037.194.035.197.035.202.033.204.031.209.03.212.029.216.027.219.025.222.024.226.021.23.02.233.018.236.016.24.015.243.012.246.01.249.008.253.005.256.004.259.001.26-.001.257-.004.254-.005.25-.008.247-.011.244-.012.241-.014.237-.016.233-.018.231-.021.226-.021.224-.024.22-.026.216-.027.212-.028.21-.031.205-.031.202-.034.198-.034.194-.036.191-.037.187-.039.183-.04.179-.04.175-.042.172-.043.168-.044.163-.045.16-.046.155-.046.152-.047.148-.048.143-.049.139-.049.136-.05.131-.05.126-.05.123-.051.118-.052.114-.051.11-.052.106-.052.101-.052.096-.052.092-.052.088-.053.083-.051.079-.052.074-.052.07-.051.065-.051.06-.051.056-.05.051-.05.023-.024.023-.025.021-.024.02-.024.019-.024.018-.024.017-.024.015-.023.014-.024.013-.023.012-.023.01-.023.01-.022.008-.022.006-.022.006-.022.004-.022.004-.021.001-.021.001-.021v-4.127l-.077.055-.08.053-.083.054-.085.053-.087.052-.09.052-.093.051-.095.05-.097.05-.1.049-.102.049-.105.048-.106.047-.109.047-.111.046-.114.045-.115.045-.118.044-.12.043-.122.042-.124.042-.126.041-.128.04-.13.04-.132.038-.134.038-.135.037-.138.037-.139.035-.142.035-.143.034-.144.033-.147.032-.148.031-.15.03-.151.03-.153.029-.154.027-.156.027-.158.026-.159.025-.161.024-.162.023-.163.022-.165.021-.166.02-.167.019-.169.018-.169.017-.171.016-.173.015-.173.014-.175.013-.175.012-.177.011-.178.01-.179.008-.179.008-.181.006-.182.005-.182.004-.184.003-.184.002h-.37l-.184-.002-.184-.003-.182-.004-.182-.005-.181-.006-.179-.008-.179-.008-.178-.01-.176-.011-.176-.012-.175-.013-.173-.014-.172-.015-.171-.016-.17-.017-.169-.018-.167-.019-.166-.02-.165-.021-.163-.022-.162-.023-.161-.024-.159-.025-.157-.026-.156-.027-.155-.027-.153-.029-.151-.03-.15-.03-.148-.031-.146-.032-.145-.033-.143-.034-.141-.035-.14-.035-.137-.037-.136-.037-.134-.038-.132-.038-.13-.04-.128-.04-.126-.041-.124-.042-.122-.042-.12-.044-.117-.043-.116-.045-.113-.045-.112-.046-.109-.047-.106-.047-.105-.048-.102-.049-.1-.049-.097-.05-.095-.05-.093-.052-.09-.051-.087-.052-.085-.053-.083-.054-.08-.054-.077-.054v4.127zm0-5.654v.011l.001.021.003.021.004.021.005.022.006.022.007.022.009.022.01.022.011.023.012.023.013.023.015.024.016.023.017.024.018.024.019.024.021.024.022.024.023.025.024.024.052.05.056.05.061.05.066.051.07.051.075.052.079.051.084.052.088.052.092.052.097.052.102.052.105.052.11.051.114.051.119.052.123.05.127.051.131.05.135.049.139.049.144.048.147.048.152.047.155.046.16.045.163.045.167.044.171.042.176.042.178.04.183.04.187.038.19.037.194.036.197.034.202.033.204.032.209.03.212.028.216.027.219.025.222.024.226.022.23.02.233.018.236.016.24.014.243.012.246.01.249.008.253.006.256.003.259.001.26-.001.257-.003.254-.006.25-.008.247-.01.244-.012.241-.015.237-.016.233-.018.231-.02.226-.022.224-.024.22-.025.216-.027.212-.029.21-.03.205-.032.202-.033.198-.035.194-.036.191-.037.187-.039.183-.039.179-.041.175-.042.172-.043.168-.044.163-.045.16-.045.155-.047.152-.047.148-.048.143-.048.139-.05.136-.049.131-.05.126-.051.123-.051.118-.051.114-.052.11-.052.106-.052.101-.052.096-.052.092-.052.088-.052.083-.052.079-.052.074-.051.07-.052.065-.051.06-.05.056-.051.051-.049.023-.025.023-.024.021-.025.02-.024.019-.024.018-.024.017-.024.015-.023.014-.023.013-.024.012-.022.01-.023.01-.023.008-.022.006-.022.006-.022.004-.021.004-.022.001-.021.001-.021v-4.139l-.077.054-.08.054-.083.054-.085.052-.087.053-.09.051-.093.051-.095.051-.097.05-.1.049-.102.049-.105.048-.106.047-.109.047-.111.046-.114.045-.115.044-.118.044-.12.044-.122.042-.124.042-.126.041-.128.04-.13.039-.132.039-.134.038-.135.037-.138.036-.139.036-.142.035-.143.033-.144.033-.147.033-.148.031-.15.03-.151.03-.153.028-.154.028-.156.027-.158.026-.159.025-.161.024-.162.023-.163.022-.165.021-.166.02-.167.019-.169.018-.169.017-.171.016-.173.015-.173.014-.175.013-.175.012-.177.011-.178.009-.179.009-.179.007-.181.007-.182.005-.182.004-.184.003-.184.002h-.37l-.184-.002-.184-.003-.182-.004-.182-.005-.181-.007-.179-.007-.179-.009-.178-.009-.176-.011-.176-.012-.175-.013-.173-.014-.172-.015-.171-.016-.17-.017-.169-.018-.167-.019-.166-.02-.165-.021-.163-.022-.162-.023-.161-.024-.159-.025-.157-.026-.156-.027-.155-.028-.153-.028-.151-.03-.15-.03-.148-.031-.146-.033-.145-.033-.143-.033-.141-.035-.14-.036-.137-.036-.136-.037-.134-.038-.132-.039-.13-.039-.128-.04-.126-.041-.124-.042-.122-.043-.12-.043-.117-.044-.116-.044-.113-.046-.112-.046-.109-.046-.106-.047-.105-.048-.102-.049-.1-.049-.097-.05-.095-.051-.093-.051-.09-.051-.087-.053-.085-.052-.083-.054-.08-.054-.077-.054v4.139zm0-5.666v.011l.001.02.003.022.004.021.005.022.006.021.007.022.009.023.01.022.011.023.012.023.013.023.015.023.016.024.017.024.018.023.019.024.021.025.022.024.023.024.024.025.052.05.056.05.061.05.066.051.07.051.075.052.079.051.084.052.088.052.092.052.097.052.102.052.105.051.11.052.114.051.119.051.123.051.127.05.131.05.135.05.139.049.144.048.147.048.152.047.155.046.16.045.163.045.167.043.171.043.176.042.178.04.183.04.187.038.19.037.194.036.197.034.202.033.204.032.209.03.212.028.216.027.219.025.222.024.226.021.23.02.233.018.236.017.24.014.243.012.246.01.249.008.253.006.256.003.259.001.26-.001.257-.003.254-.006.25-.008.247-.01.244-.013.241-.014.237-.016.233-.018.231-.02.226-.022.224-.024.22-.025.216-.027.212-.029.21-.03.205-.032.202-.033.198-.035.194-.036.191-.037.187-.039.183-.039.179-.041.175-.042.172-.043.168-.044.163-.045.16-.045.155-.047.152-.047.148-.048.143-.049.139-.049.136-.049.131-.051.126-.05.123-.051.118-.052.114-.051.11-.052.106-.052.101-.052.096-.052.092-.052.088-.052.083-.052.079-.052.074-.052.07-.051.065-.051.06-.051.056-.05.051-.049.023-.025.023-.025.021-.024.02-.024.019-.024.018-.024.017-.024.015-.023.014-.024.013-.023.012-.023.01-.022.01-.023.008-.022.006-.022.006-.022.004-.022.004-.021.001-.021.001-.021v-4.153l-.077.054-.08.054-.083.053-.085.053-.087.053-.09.051-.093.051-.095.051-.097.05-.1.049-.102.048-.105.048-.106.048-.109.046-.111.046-.114.046-.115.044-.118.044-.12.043-.122.043-.124.042-.126.041-.128.04-.13.039-.132.039-.134.038-.135.037-.138.036-.139.036-.142.034-.143.034-.144.033-.147.032-.148.032-.15.03-.151.03-.153.028-.154.028-.156.027-.158.026-.159.024-.161.024-.162.023-.163.023-.165.021-.166.02-.167.019-.169.018-.169.017-.171.016-.173.015-.173.014-.175.013-.175.012-.177.01-.178.01-.179.009-.179.007-.181.006-.182.006-.182.004-.184.003-.184.001-.185.001-.185-.001-.184-.001-.184-.003-.182-.004-.182-.006-.181-.006-.179-.007-.179-.009-.178-.01-.176-.01-.176-.012-.175-.013-.173-.014-.172-.015-.171-.016-.17-.017-.169-.018-.167-.019-.166-.02-.165-.021-.163-.023-.162-.023-.161-.024-.159-.024-.157-.026-.156-.027-.155-.028-.153-.028-.151-.03-.15-.03-.148-.032-.146-.032-.145-.033-.143-.034-.141-.034-.14-.036-.137-.036-.136-.037-.134-.038-.132-.039-.13-.039-.128-.041-.126-.041-.124-.041-.122-.043-.12-.043-.117-.044-.116-.044-.113-.046-.112-.046-.109-.046-.106-.048-.105-.048-.102-.048-.1-.05-.097-.049-.095-.051-.093-.051-.09-.052-.087-.052-.085-.053-.083-.053-.08-.054-.077-.054v4.153zm8.74-8.179l-.257.004-.254.005-.25.008-.247.011-.244.012-.241.014-.237.016-.233.018-.231.021-.226.022-.224.023-.22.026-.216.027-.212.028-.21.031-.205.032-.202.033-.198.034-.194.036-.191.038-.187.038-.183.04-.179.041-.175.042-.172.043-.168.043-.163.045-.16.046-.155.046-.152.048-.148.048-.143.048-.139.049-.136.05-.131.05-.126.051-.123.051-.118.051-.114.052-.11.052-.106.052-.101.052-.096.052-.092.052-.088.052-.083.052-.079.052-.074.051-.07.052-.065.051-.06.05-.056.05-.051.05-.023.025-.023.024-.021.024-.02.025-.019.024-.018.024-.017.023-.015.024-.014.023-.013.023-.012.023-.01.023-.01.022-.008.022-.006.023-.006.021-.004.022-.004.021-.001.021-.001.021.001.021.001.021.004.021.004.022.006.021.006.023.008.022.01.022.01.023.012.023.013.023.014.023.015.024.017.023.018.024.019.024.02.025.021.024.023.024.023.025.051.05.056.05.06.05.065.051.07.052.074.051.079.052.083.052.088.052.092.052.096.052.101.052.106.052.11.052.114.052.118.051.123.051.126.051.131.05.136.05.139.049.143.048.148.048.152.048.155.046.16.046.163.045.168.043.172.043.175.042.179.041.183.04.187.038.191.038.194.036.198.034.202.033.205.032.21.031.212.028.216.027.22.026.224.023.226.022.231.021.233.018.237.016.241.014.244.012.247.011.25.008.254.005.257.004.26.001.26-.001.257-.004.254-.005.25-.008.247-.011.244-.012.241-.014.237-.016.233-.018.231-.021.226-.022.224-.023.22-.026.216-.027.212-.028.21-.031.205-.032.202-.033.198-.034.194-.036.191-.038.187-.038.183-.04.179-.041.175-.042.172-.043.168-.043.163-.045.16-.046.155-.046.152-.048.148-.048.143-.048.139-.049.136-.05.131-.05.126-.051.123-.051.118-.051.114-.052.11-.052.106-.052.101-.052.096-.052.092-.052.088-.052.083-.052.079-.052.074-.051.07-.052.065-.051.06-.05.056-.05.051-.05.023-.025.023-.024.021-.024.02-.025.019-.024.018-.024.017-.023.015-.024.014-.023.013-.023.012-.023.01-.023.01-.022.008-.022.006-.023.006-.021.004-.022.004-.021.001-.021.001-.021-.001-.021-.001-.021-.004-.021-.004-.022-.006-.021-.006-.023-.008-.022-.01-.022-.01-.023-.012-.023-.013-.023-.014-.023-.015-.024-.017-.023-.018-.024-.019-.024-.02-.025-.021-.024-.023-.024-.023-.025-.051-.05-.056-.05-.06-.05-.065-.051-.07-.052-.074-.051-.079-.052-.083-.052-.088-.052-.092-.052-.096-.052-.101-.052-.106-.052-.11-.052-.114-.052-.118-.051-.123-.051-.126-.051-.131-.05-.136-.05-.139-.049-.143-.048-.148-.048-.152-.048-.155-.046-.16-.046-.163-.045-.168-.043-.172-.043-.175-.042-.179-.041-.183-.04-.187-.038-.191-.038-.194-.036-.198-.034-.202-.033-.205-.032-.21-.031-.212-.028-.216-.027-.22-.026-.224-.023-.226-.022-.231-.021-.233-.018-.237-.016-.241-.014-.244-.012-.247-.011-.25-.008-.254-.005-.257-.004-.26-.001-.26.001z" transform="scale(.5)"></path></symbol></defs><defs><symbol height="24" width="24" id="clock"><path d="M12 2c5.514 0 10 4.486 10 10s-4.486 10-10 10-10-4.486-10-10 4.486-10 10-10zm0-2c-6.627 0-12 5.373-12 12s5.373 12 12 12 12-5.373 12-12-5.373-12-12-12zm5.848 12.459c.202.038.202.333.001.372-1.907.361-6.045 1.111-6.547 1.111-.719 0-1.301-.582-1.301-1.301 0-.512.77-5.447 1.125-7.445.034-.192.312-.181.343.014l.985 6.238 5.394 1.011z" transform="scale(.5)"></path></symbol></defs><defs><marker orient="auto" markerHeight="12" markerWidth="12" markerUnits="userSpaceOnUse" refY="5" refX="7.9" id="arrowhead"><path d="M 0 0 L 10 5 L 0 10 z"></path></marker></defs><defs><marker refY="4.5" refX="4" orient="auto" markerHeight="8" markerWidth="15" id="crosshead"><path d="M 1,2 L 6,7 M 6,2 L 1,7" stroke-width="1pt" style="stroke-dasharray: 0px, 0px;" stroke="#000000" fill="none"></path></marker></defs><defs><marker orient="auto" markerHeight="28" markerWidth="20" refY="7" refX="15.5" id="filled-head"><path d="M 18,7 L9,13 L14,7 L9,1 Z"></path></marker></defs><defs><marker orient="auto" markerHeight="40" markerWidth="60" refY="15" refX="15" id="sequencenumber"><circle r="6" cy="15" cx="15"></circle></marker></defs><g><rect class="note" ry="0" rx="0" height="40" width="384" stroke="#666" fill="#EDF2AE" y="120" x="332"></rect><text dy="1em" class="noteText" style="font-size: 16px; font-weight: 400;" alignment-baseline="middle" dominant-baseline="middle" text-anchor="middle" y="125" x="524"><tspan x="524">1a. send and accept group invitation</tspan></text></g><g><rect class="note" ry="0" rx="0" height="40" width="384" stroke="#666" fill="#EDF2AE" y="406" x="332"></rect><text dy="1em" class="noteText" style="font-size: 16px; font-weight: 400;" alignment-baseline="middle" dominant-baseline="middle" text-anchor="middle" y="411" x="524"><tspan x="524">1b. join via group link and accept request</tspan></text></g><g><line class="loopLine" y2="75" x2="726" y1="75" x1="322"></line><line class="loopLine" y2="695" x2="726" y1="75" x1="726"></line><line class="loopLine" y2="695" x2="726" y1="695" x1="322"></line><line class="loopLine" y2="695" x2="322" y1="75" x1="322"></line><line style="stroke-dasharray: 3px, 3px;" class="loopLine" y2="366" x2="726" y1="366" x1="322"></line><polygon class="labelBox" points="322,75 372,75 372,88 363.6,95 322,95"></polygon><text class="labelText" style="font-size: 16px; font-weight: 400;" alignment-baseline="middle" dominant-baseline="middle" text-anchor="middle" y="88" x="347">alt</text><text class="loopText" style="font-size: 16px; font-weight: 400;" text-anchor="middle" y="93" x="549"><tspan x="549">[invite contact]</tspan></text><text class="loopText" style="font-size: 16px; font-weight: 400;" text-anchor="middle" y="384" x="524">[join via group link]</text></g><g><rect class="note" ry="0" rx="0" height="40" width="666" stroke="#666" fill="#EDF2AE" y="705" x="50"></rect><text dy="1em" class="noteText" style="font-size: 16px; font-weight: 400;" alignment-baseline="middle" dominant-baseline="middle" text-anchor="middle" y="710" x="383"><tspan x="383">2. introduce new member Bob to all existing members</tspan></text></g><g><rect class="note" ry="0" rx="0" height="40" width="283" stroke="#666" fill="#EDF2AE" y="1010" x="549.5"></rect><text dy="1em" class="noteText" style="font-size: 16px; font-weight: 400;" alignment-baseline="middle" dominant-baseline="middle" text-anchor="middle" y="1015" x="691"><tspan x="691">prepare group member connections</tspan></text></g><g><rect class="note" ry="0" rx="0" height="40" width="218" stroke="#666" fill="#EDF2AE" y="1142" x="582"></rect><text dy="1em" class="noteText" style="font-size: 16px; font-weight: 400;" alignment-baseline="middle" dominant-baseline="middle" text-anchor="middle" y="1147" x="691"><tspan x="691">prepare direct connections</tspan></text></g><g><line class="loopLine" y2="1060" x2="810" y1="1060" x1="572"></line><line class="loopLine" y2="1192" x2="810" y1="1060" x1="810"></line><line class="loopLine" y2="1192" x2="810" y1="1192" x1="572"></line><line class="loopLine" y2="1192" x2="572" y1="1060" x1="572"></line><polygon class="labelBox" points="572,1060 622,1060 622,1073 613.6,1080 572,1080"></polygon><text class="labelText" style="font-size: 16px; font-weight: 400;" alignment-baseline="middle" dominant-baseline="middle" text-anchor="middle" y="1073" x="597">opt</text><text class="loopText" style="font-size: 16px; font-weight: 400;" text-anchor="middle" y="1078" x="716"><tspan x="716">[chat protocol</tspan></text><text class="loopText" style="font-size: 16px; font-weight: 400;" text-anchor="middle" y="1097" x="716"><tspan x="716">compatible version</tspan></text><text class="loopText" style="font-size: 16px; font-weight: 400;" text-anchor="middle" y="1117" x="716"><tspan x="716">&lt; 2]</tspan></text></g><g><line class="loopLine" y2="860" x2="842.5" y1="860" x1="346"></line><line class="loopLine" y2="1307" x2="842.5" y1="860" x1="842.5"></line><line class="loopLine" y2="1307" x2="842.5" y1="1307" x1="346"></line><line class="loopLine" y2="1307" x2="346" y1="860" x1="346"></line><polygon class="labelBox" points="346,860 396,860 396,873 387.6,880 346,880"></polygon><text class="labelText" style="font-size: 16px; font-weight: 400;" alignment-baseline="middle" dominant-baseline="middle" text-anchor="middle" y="873" x="371">loop</text><text class="loopText" style="font-size: 16px; font-weight: 400;" text-anchor="middle" y="878" x="619.25"><tspan x="619.25">[batched]</tspan></text></g><g><rect class="note" ry="0" rx="0" height="59" width="666" stroke="#666" fill="#EDF2AE" y="1441" x="50"></rect><text dy="1em" class="noteText" style="font-size: 16px; font-weight: 400;" alignment-baseline="middle" dominant-baseline="middle" text-anchor="middle" y="1446" x="383"><tspan x="383">group message forwarding</tspan></text><text dy="1em" class="noteText" style="font-size: 16px; font-weight: 400;" alignment-baseline="middle" dominant-baseline="middle" text-anchor="middle" y="1466" x="383"><tspan x="383">(while connections between members are being established)</tspan></text></g><g><rect class="note" ry="0" rx="0" height="40" width="666" stroke="#666" fill="#EDF2AE" y="1568" x="50"></rect><text dy="1em" class="noteText" style="font-size: 16px; font-weight: 400;" alignment-baseline="middle" dominant-baseline="middle" text-anchor="middle" y="1573" x="383"><tspan x="383">3. establish direct and group member connections</tspan></text></g><g><rect class="note" ry="0" rx="0" height="40" width="997" stroke="#666" fill="#EDF2AE" y="1759" x="50"></rect><text dy="1em" class="noteText" style="font-size: 16px; font-weight: 400;" alignment-baseline="middle" dominant-baseline="middle" text-anchor="middle" y="1764" x="549"><tspan x="549">3*. deduplicate new contact</tspan></text></g><g><rect class="note" ry="0" rx="0" height="40" width="562" stroke="#666" fill="#EDF2AE" y="2086" x="410"></rect><text dy="1em" class="noteText" style="font-size: 16px; font-weight: 400;" alignment-baseline="middle" dominant-baseline="middle" text-anchor="middle" y="2091" x="691"><tspan x="691">merge existing and new contacts if received and sent probe hashes match</tspan></text></g><g><line class="loopLine" y2="1666" x2="1057" y1="1666" x1="40"></line><line class="loopLine" y2="2136" x2="1057" y1="1666" x1="1057"></line><line class="loopLine" y2="2136" x2="1057" y1="2136" x1="40"></line><line class="loopLine" y2="2136" x2="40" y1="1666" x1="40"></line><polygon class="labelBox" points="40,1666 90,1666 90,1679 81.6,1686 40,1686"></polygon><text class="labelText" style="font-size: 16px; font-weight: 400;" alignment-baseline="middle" dominant-baseline="middle" text-anchor="middle" y="1679" x="65">opt</text><text class="loopText" style="font-size: 16px; font-weight: 400;" text-anchor="middle" y="1684" x="573.5"><tspan x="573.5">[chat protocol compatible version &lt; 2]</tspan></text></g><g><rect class="note" ry="0" rx="0" height="40" width="666" stroke="#666" fill="#EDF2AE" y="2146" x="50"></rect><text dy="1em" class="noteText" style="font-size: 16px; font-weight: 400;" alignment-baseline="middle" dominant-baseline="middle" text-anchor="middle" y="2151" x="383"><tspan x="383">4. notify inviting member that connection is established</tspan></text></g><g><rect class="note" ry="0" rx="0" height="40" width="222" stroke="#666" fill="#EDF2AE" y="2292" x="246"></rect><text dy="1em" class="noteText" style="font-size: 16px; font-weight: 400;" alignment-baseline="middle" dominant-baseline="middle" text-anchor="middle" y="2297" x="357"><tspan x="357">stops forwarding messages</tspan></text></g><text dy="1em" class="messageText" style="font-size: 16px; font-weight: 400;" alignment-baseline="middle" dominant-baseline="middle" text-anchor="middle" y="175" x="523">x.grp.inv</text><text dy="1em" class="messageText" style="font-size: 16px; font-weight: 400;" alignment-baseline="middle" dominant-baseline="middle" text-anchor="middle" y="195" x="523">invite Bob to group</text><text dy="1em" class="messageText" style="font-size: 16px; font-weight: 400;" alignment-baseline="middle" dominant-baseline="middle" text-anchor="middle" y="214" x="523">(via contact connection)</text><line marker-end="url(#arrowhead)" style="fill: none;" stroke="none" stroke-width="2" class="messageLine0" y2="246" x2="687" y1="246" x1="358"></line><text dy="1em" class="messageText" style="font-size: 16px; font-weight: 400;" alignment-baseline="middle" dominant-baseline="middle" text-anchor="middle" y="261" x="526">x.grp.acpt</text><text dy="1em" class="messageText" style="font-size: 16px; font-weight: 400;" alignment-baseline="middle" dominant-baseline="middle" text-anchor="middle" y="281" x="526">accept invitation</text><text dy="1em" class="messageText" style="font-size: 16px; font-weight: 400;" alignment-baseline="middle" dominant-baseline="middle" text-anchor="middle" y="300" x="526">(via member connection)</text><text dy="1em" class="messageText" style="font-size: 16px; font-weight: 400;" alignment-baseline="middle" dominant-baseline="middle" text-anchor="middle" y="320" x="526">establish group member connection</text><line marker-end="url(#arrowhead)" style="fill: none;" stroke="none" stroke-width="2" class="messageLine0" y2="351" x2="361" y1="351" x1="690"></line><text dy="1em" class="messageText" style="font-size: 16px; font-weight: 400;" alignment-baseline="middle" dominant-baseline="middle" text-anchor="middle" y="461" x="526">join via group link</text><text dy="1em" class="messageText" style="font-size: 16px; font-weight: 400;" alignment-baseline="middle" dominant-baseline="middle" text-anchor="middle" y="481" x="526">SimpleX contact address</text><line marker-end="url(#arrowhead)" style="fill: none;" stroke="none" stroke-width="2" class="messageLine0" y2="513" x2="361" y1="513" x1="690"></line><text dy="1em" class="messageText" style="font-size: 16px; font-weight: 400;" alignment-baseline="middle" dominant-baseline="middle" text-anchor="middle" y="528" x="523">x.grp.link.inv in SMP confirmation</text><text dy="1em" class="messageText" style="font-size: 16px; font-weight: 400;" alignment-baseline="middle" dominant-baseline="middle" text-anchor="middle" y="548" x="523">accept joining member request,</text><text dy="1em" class="messageText" style="font-size: 16px; font-weight: 400;" alignment-baseline="middle" dominant-baseline="middle" text-anchor="middle" y="567" x="523">sending group profile, etc.</text><text dy="1em" class="messageText" style="font-size: 16px; font-weight: 400;" alignment-baseline="middle" dominant-baseline="middle" text-anchor="middle" y="587" x="523">establish group member connection</text><line marker-end="url(#arrowhead)" style="fill: none;" stroke="none" stroke-width="2" class="messageLine0" y2="618" x2="687" y1="618" x1="358"></line><text dy="1em" class="messageText" style="font-size: 16px; font-weight: 400;" alignment-baseline="middle" dominant-baseline="middle" text-anchor="middle" y="633" x="523">x.grp.link.mem</text><text dy="1em" class="messageText" style="font-size: 16px; font-weight: 400;" alignment-baseline="middle" dominant-baseline="middle" text-anchor="middle" y="653" x="523">send inviting member profile</text><line marker-end="url(#arrowhead)" style="fill: none;" stroke="none" stroke-width="2" class="messageLine0" y2="685" x2="687" y1="685" x1="358"></line><text dy="1em" class="messageText" style="font-size: 16px; font-weight: 400;" alignment-baseline="middle" dominant-baseline="middle" text-anchor="middle" y="760" x="218">x.grp.mem.new</text><text dy="1em" class="messageText" style="font-size: 16px; font-weight: 400;" alignment-baseline="middle" dominant-baseline="middle" text-anchor="middle" y="780" x="218">"announce" Bob</text><text dy="1em" class="messageText" style="font-size: 16px; font-weight: 400;" alignment-baseline="middle" dominant-baseline="middle" text-anchor="middle" y="799" x="218">to existing members</text><text dy="1em" class="messageText" style="font-size: 16px; font-weight: 400;" alignment-baseline="middle" dominant-baseline="middle" text-anchor="middle" y="819" x="218">(via member connections)</text><line marker-end="url(#arrowhead)" style="fill: none;" stroke="none" stroke-width="2" class="messageLine0" y2="850" x2="79" y1="850" x1="356"></line><text dy="1em" class="messageText" style="font-size: 16px; font-weight: 400;" alignment-baseline="middle" dominant-baseline="middle" text-anchor="middle" y="910" x="523">x.grp.mem.intro * N</text><text dy="1em" class="messageText" style="font-size: 16px; font-weight: 400;" alignment-baseline="middle" dominant-baseline="middle" text-anchor="middle" y="930" x="523">"introduce" members and</text><text dy="1em" class="messageText" style="font-size: 16px; font-weight: 400;" alignment-baseline="middle" dominant-baseline="middle" text-anchor="middle" y="949" x="523">their chat protocol versions</text><text dy="1em" class="messageText" style="font-size: 16px; font-weight: 400;" alignment-baseline="middle" dominant-baseline="middle" text-anchor="middle" y="969" x="523">(via member connection)</text><line marker-end="url(#arrowhead)" style="fill: none;" stroke="none" stroke-width="2" class="messageLine0" y2="1000" x2="687" y1="1000" x1="358"></line><text dy="1em" class="messageText" style="font-size: 16px; font-weight: 400;" alignment-baseline="middle" dominant-baseline="middle" text-anchor="middle" y="1207" x="526">x.grp.mem.inv * N</text><text dy="1em" class="messageText" style="font-size: 16px; font-weight: 400;" alignment-baseline="middle" dominant-baseline="middle" text-anchor="middle" y="1227" x="526">"invitations" to connect</text><text dy="1em" class="messageText" style="font-size: 16px; font-weight: 400;" alignment-baseline="middle" dominant-baseline="middle" text-anchor="middle" y="1246" x="526">for all members</text><text dy="1em" class="messageText" style="font-size: 16px; font-weight: 400;" alignment-baseline="middle" dominant-baseline="middle" text-anchor="middle" y="1266" x="526">(via member connection)</text><line marker-end="url(#arrowhead)" style="fill: none;" stroke="none" stroke-width="2" class="messageLine0" y2="1297" x2="361" y1="1297" x1="690"></line><text dy="1em" class="messageText" style="font-size: 16px; font-weight: 400;" alignment-baseline="middle" dominant-baseline="middle" text-anchor="middle" y="1322" x="218">x.grp.mem.fwd</text><text dy="1em" class="messageText" style="font-size: 16px; font-weight: 400;" alignment-baseline="middle" dominant-baseline="middle" text-anchor="middle" y="1342" x="218">forward "invitations" and</text><text dy="1em" class="messageText" style="font-size: 16px; font-weight: 400;" alignment-baseline="middle" dominant-baseline="middle" text-anchor="middle" y="1361" x="218">Bob's chat protocol version</text><text dy="1em" class="messageText" style="font-size: 16px; font-weight: 400;" alignment-baseline="middle" dominant-baseline="middle" text-anchor="middle" y="1381" x="218">to all members</text><text dy="1em" class="messageText" style="font-size: 16px; font-weight: 400;" alignment-baseline="middle" dominant-baseline="middle" text-anchor="middle" y="1400" x="218">(via member connections)</text><line marker-end="url(#arrowhead)" style="fill: none;" stroke="none" stroke-width="2" class="messageLine0" y2="1431" x2="79" y1="1431" x1="356"></line><text dy="1em" class="messageText" style="font-size: 16px; font-weight: 400;" alignment-baseline="middle" dominant-baseline="middle" text-anchor="middle" y="1515" x="382">messages between members and Bob are forwarded by Alice</text><line marker-end="url(#arrowhead)" stroke="none" stroke-width="2" class="messageLine1" style="stroke-dasharray: 3px, 3px; fill: none;" y2="1548" x2="687" y1="1548" x1="76"></line><text dy="1em" class="messageText" style="font-size: 16px; font-weight: 400;" alignment-baseline="middle" dominant-baseline="middle" text-anchor="middle" y="1563" x="385">​</text><line marker-end="url(#arrowhead)" stroke="none" stroke-width="2" class="messageLine1" style="stroke-dasharray: 3px, 3px; fill: none;" y2="1558" x2="79" y1="1558" x1="690"></line><text dy="1em" class="messageText" style="font-size: 16px; font-weight: 400;" alignment-baseline="middle" dominant-baseline="middle" text-anchor="middle" y="1623" x="382">establish group member connection</text><line marker-end="url(#arrowhead)" style="fill: none;" stroke="none" stroke-width="2" class="messageLine0" y2="1656" x2="687" y1="1656" x1="76"></line><text dy="1em" class="messageText" style="font-size: 16px; font-weight: 400;" alignment-baseline="middle" dominant-baseline="middle" text-anchor="middle" y="1716" x="382">establish direct connection</text><line marker-end="url(#arrowhead)" style="fill: none;" stroke="none" stroke-width="2" class="messageLine0" y2="1749" x2="687" y1="1749" x1="76"></line><text dy="1em" class="messageText" style="font-size: 16px; font-weight: 400;" alignment-baseline="middle" dominant-baseline="middle" text-anchor="middle" y="1814" x="385">x.info.probe</text><text dy="1em" class="messageText" style="font-size: 16px; font-weight: 400;" alignment-baseline="middle" dominant-baseline="middle" text-anchor="middle" y="1834" x="385">"probe" is sent to all new members</text><line marker-end="url(#arrowhead)" style="fill: none;" stroke="none" stroke-width="2" class="messageLine0" y2="1866" x2="79" y1="1866" x1="690"></line><text dy="1em" class="messageText" style="font-size: 16px; font-weight: 400;" alignment-baseline="middle" dominant-baseline="middle" text-anchor="middle" y="1881" x="855">x.info.probe.check</text><text dy="1em" class="messageText" style="font-size: 16px; font-weight: 400;" alignment-baseline="middle" dominant-baseline="middle" text-anchor="middle" y="1901" x="855">"probe" hash,</text><text dy="1em" class="messageText" style="font-size: 16px; font-weight: 400;" alignment-baseline="middle" dominant-baseline="middle" text-anchor="middle" y="1920" x="855">in case contact and</text><text dy="1em" class="messageText" style="font-size: 16px; font-weight: 400;" alignment-baseline="middle" dominant-baseline="middle" text-anchor="middle" y="1940" x="855">member profiles match</text><line marker-end="url(#arrowhead)" style="fill: none;" stroke="none" stroke-width="2" class="messageLine0" y2="1971" x2="1018" y1="1971" x1="692"></line><text dy="1em" class="messageText" style="font-size: 16px; font-weight: 400;" alignment-baseline="middle" dominant-baseline="middle" text-anchor="middle" y="1986" x="858">x.info.probe.ok</text><text dy="1em" class="messageText" style="font-size: 16px; font-weight: 400;" alignment-baseline="middle" dominant-baseline="middle" text-anchor="middle" y="2006" x="858"> original "probe",</text><text dy="1em" class="messageText" style="font-size: 16px; font-weight: 400;" alignment-baseline="middle" dominant-baseline="middle" text-anchor="middle" y="2025" x="858"> in case contact and member</text><text dy="1em" class="messageText" style="font-size: 16px; font-weight: 400;" alignment-baseline="middle" dominant-baseline="middle" text-anchor="middle" y="2045" x="858">are the same user</text><line marker-end="url(#arrowhead)" style="fill: none;" stroke="none" stroke-width="2" class="messageLine0" y2="2076" x2="695" y1="2076" x1="1021"></line><text dy="1em" class="messageText" style="font-size: 16px; font-weight: 400;" alignment-baseline="middle" dominant-baseline="middle" text-anchor="middle" y="2201" x="215">x.grp.mem.con</text><line marker-end="url(#arrowhead)" style="fill: none;" stroke="none" stroke-width="2" class="messageLine0" y2="2234" x2="353" y1="2234" x1="76"></line><text dy="1em" class="messageText" style="font-size: 16px; font-weight: 400;" alignment-baseline="middle" dominant-baseline="middle" text-anchor="middle" y="2249" x="526">x.grp.mem.con</text><line marker-end="url(#arrowhead)" style="fill: none;" stroke="none" stroke-width="2" class="messageLine0" y2="2282" x2="361" y1="2282" x1="690"></line><text dy="1em" class="messageText" style="font-size: 16px; font-weight: 400;" alignment-baseline="middle" dominant-baseline="middle" text-anchor="middle" y="2347" x="382">messages are sent via group connection without forwarding</text><line marker-end="url(#arrowhead)" stroke="none" stroke-width="2" class="messageLine1" style="stroke-dasharray: 3px, 3px; fill: none;" y2="2380" x2="687" y1="2380" x1="76"></line><text dy="1em" class="messageText" style="font-size: 16px; font-weight: 400;" alignment-baseline="middle" dominant-baseline="middle" text-anchor="middle" y="2395" x="385">​</text><line marker-end="url(#arrowhead)" stroke="none" stroke-width="2" class="messageLine1" style="stroke-dasharray: 3px, 3px; fill: none;" y2="2390" x2="79" y1="2390" x1="690"></line></svg>