<svg aria-roledescription="sequence" role="graphics-document document" viewBox="-50 -50 1113 3476" height="3436" xmlns="http://www.w3.org/2000/svg" width="1113" id="container"><g><rect class="actor actor-bottom" ry="3" rx="3" name="Apple" height="65" width="150" stroke="#666" fill="#eaeaea" y="3350" x="863"/><text style="text-anchor: middle; font-size: 16px; font-weight: 400;" class="actor actor-box" alignment-baseline="central" dominant-baseline="central" y="3382.5" x="938"><tspan dy="0" x="938">Apple</tspan></text></g><g><rect class="actor actor-bottom" ry="3" rx="3" name="SMP" height="65" width="150" stroke="#666" fill="#eaeaea" y="3350" x="663"/><text style="text-anchor: middle; font-size: 16px; font-weight: 400;" class="actor actor-box" alignment-baseline="central" dominant-baseline="central" y="3382.5" x="738"><tspan dy="0" x="738">SMP</tspan></text></g><g><rect class="actor actor-bottom" ry="3" rx="3" name="NTF" height="65" width="150" stroke="#666" fill="#eaeaea" y="3350" x="463"/><text style="text-anchor: middle; font-size: 16px; font-weight: 400;" class="actor actor-box" alignment-baseline="central" dominant-baseline="central" y="3382.5" x="538"><tspan dy="0" x="538">NTF</tspan></text></g><g><rect class="actor actor-bottom" ry="3" rx="3" name="Client" height="65" width="150" stroke="#666" fill="#eaeaea" y="3350" x="0"/><text style="text-anchor: middle; font-size: 16px; font-weight: 400;" class="actor actor-box" alignment-baseline="central" dominant-baseline="central" y="3382.5" x="75"><tspan dy="0" x="75">Client</tspan></text></g><g><line name="Apple" stroke="#999" stroke-width="0.5px" class="actor-line 200" y2="3350" x2="938" y1="65" x1="938" id="actor3"/><g id="root-3"><rect class="actor actor-top" ry="3" rx="3" name="Apple" height="65" width="150" stroke="#666" fill="#eaeaea" y="0" x="863"/><text style="text-anchor: middle; font-size: 16px; font-weight: 400;" class="actor actor-box" alignment-baseline="central" dominant-baseline="central" y="32.5" x="938"><tspan dy="0" x="938">Apple</tspan></text></g></g><g><line name="SMP" stroke="#999" stroke-width="0.5px" class="actor-line 200" y2="3350" x2="738" y1="65" x1="738" id="actor2"/><g id="root-2"><rect class="actor actor-top" ry="3" rx="3" name="SMP" height="65" width="150" stroke="#666" fill="#eaeaea" y="0" x="663"/><text style="text-anchor: middle; font-size: 16px; font-weight: 400;" class="actor actor-box" alignment-baseline="central" dominant-baseline="central" y="32.5" x="738"><tspan dy="0" x="738">SMP</tspan></text></g></g><g><line name="NTF" stroke="#999" stroke-width="0.5px" class="actor-line 200" y2="3350" x2="538" y1="65" x1="538" id="actor1"/><g id="root-1"><rect class="actor actor-top" ry="3" rx="3" name="NTF" height="65" width="150" stroke="#666" fill="#eaeaea" y="0" x="463"/><text style="text-anchor: middle; font-size: 16px; font-weight: 400;" class="actor actor-box" alignment-baseline="central" dominant-baseline="central" y="32.5" x="538"><tspan dy="0" x="538">NTF</tspan></text></g></g><g><line name="Client" stroke="#999" stroke-width="0.5px" class="actor-line 200" y2="3350" x2="75" y1="65" x1="75" id="actor0"/><g id="root-0"><rect class="actor actor-top" ry="3" rx="3" name="Client" height="65" width="150" stroke="#666" fill="#eaeaea" y="0" x="0"/><text style="text-anchor: middle; font-size: 16px; font-weight: 400;" class="actor actor-box" alignment-baseline="central" dominant-baseline="central" y="32.5" x="75"><tspan dy="0" x="75">Client</tspan></text></g></g><style>#container{font-family:"trebuchet ms",verdana,arial,sans-serif;font-size:16px;fill:#333;}@keyframes edge-animation-frame{from{stroke-dashoffset:0;}}@keyframes dash{to{stroke-dashoffset:0;}}#container .edge-animation-slow{stroke-dasharray:9,5!important;stroke-dashoffset:900;animation:dash 50s linear infinite;stroke-linecap:round;}#container .edge-animation-fast{stroke-dasharray:9,5!important;stroke-dashoffset:900;animation:dash 20s linear infinite;stroke-linecap:round;}#container .error-icon{fill:#552222;}#container .error-text{fill:#552222;stroke:#552222;}#container .edge-thickness-normal{stroke-width:1px;}#container .edge-thickness-thick{stroke-width:3.5px;}#container .edge-pattern-solid{stroke-dasharray:0;}#container .edge-thickness-invisible{stroke-width:0;fill:none;}#container .edge-pattern-dashed{stroke-dasharray:3;}#container .edge-pattern-dotted{stroke-dasharray:2;}#container .marker{fill:#333333;stroke:#333333;}#container .marker.cross{stroke:#333333;}#container svg{font-family:"trebuchet ms",verdana,arial,sans-serif;font-size:16px;}#container p{margin:0;}#container .actor{stroke:hsl(259.6261682243, 59.7765363128%, 87.9019607843%);fill:#ECECFF;}#container text.actor&gt;tspan{fill:black;stroke:none;}#container .actor-line{stroke:hsl(259.6261682243, 59.7765363128%, 87.9019607843%);}#container .messageLine0{stroke-width:1.5;stroke-dasharray:none;stroke:#333;}#container .messageLine1{stroke-width:1.5;stroke-dasharray:2,2;stroke:#333;}#container #arrowhead path{fill:#333;stroke:#333;}#container .sequenceNumber{fill:white;}#container #sequencenumber{fill:#333;}#container #crosshead path{fill:#333;stroke:#333;}#container .messageText{fill:#333;stroke:none;}#container .labelBox{stroke:hsl(259.6261682243, 59.7765363128%, 87.9019607843%);fill:#ECECFF;}#container .labelText,#container .labelText&gt;tspan{fill:black;stroke:none;}#container .loopText,#container .loopText&gt;tspan{fill:black;stroke:none;}#container .loopLine{stroke-width:2px;stroke-dasharray:2,2;stroke:hsl(259.6261682243, 59.7765363128%, 87.9019607843%);fill:hsl(259.6261682243, 59.7765363128%, 87.9019607843%);}#container .note{stroke:#aaaa33;fill:#fff5ad;}#container .noteText,#container .noteText&gt;tspan{fill:black;stroke:none;}#container .activation0{fill:#f4f4f4;stroke:#666;}#container .activation1{fill:#f4f4f4;stroke:#666;}#container .activation2{fill:#f4f4f4;stroke:#666;}#container .actorPopupMenu{position:absolute;}#container .actorPopupMenuPanel{position:absolute;fill:#ECECFF;box-shadow:0px 8px 16px 0px rgba(0,0,0,0.2);filter:drop-shadow(3px 5px 2px rgb(0 0 0 / 0.4));}#container .actor-man line{stroke:hsl(259.6261682243, 59.7765363128%, 87.9019607843%);fill:#ECECFF;}#container .actor-man circle,#container line{stroke:hsl(259.6261682243, 59.7765363128%, 87.9019607843%);fill:#ECECFF;stroke-width:2px;}#container :root{--mermaid-font-family:"trebuchet ms",verdana,arial,sans-serif;}</style><g/><defs><symbol height="24" width="24" id="computer"><path d="M2 2v13h20v-13h-20zm18 11h-16v-9h16v9zm-10.228 6l.466-1h3.524l.467 1h-4.457zm14.228 3h-24l2-6h2.104l-1.33 4h18.45l-1.297-4h2.073l2 6zm-5-10h-14v-7h14v7z" transform="scale(.5)"/></symbol></defs><defs><symbol clip-rule="evenodd" fill-rule="evenodd" id="database"><path d="M12.258.001l.256.004.255.005.253.008.251.01.249.012.247.015.246.016.242.019.241.02.239.023.236.024.233.027.231.028.229.031.225.032.223.034.22.036.217.038.214.04.211.041.208.043.205.045.201.046.198.048.194.05.191.051.187.053.183.054.18.056.175.057.172.059.168.06.163.061.16.063.155.064.15.066.074.033.073.033.071.034.07.034.069.035.068.035.067.035.066.035.064.036.064.036.062.036.06.036.06.037.058.037.058.037.055.038.055.038.053.038.052.038.051.039.05.039.048.039.047.039.045.04.044.04.043.04.041.04.04.041.039.041.037.041.036.041.034.041.033.042.032.042.03.042.029.042.027.042.026.043.024.043.023.043.021.043.02.043.018.044.017.043.015.044.013.044.012.044.011.045.009.044.007.045.006.045.004.045.002.045.001.045v17l-.001.045-.002.045-.004.045-.006.045-.007.045-.009.044-.011.045-.012.044-.013.044-.015.044-.017.043-.018.044-.02.043-.021.043-.023.043-.024.043-.026.043-.027.042-.029.042-.03.042-.032.042-.033.042-.034.041-.036.041-.037.041-.039.041-.04.041-.041.04-.043.04-.044.04-.045.04-.047.039-.048.039-.05.039-.051.039-.052.038-.053.038-.055.038-.055.038-.058.037-.058.037-.06.037-.06.036-.062.036-.064.036-.064.036-.066.035-.067.035-.068.035-.069.035-.07.034-.071.034-.073.033-.074.033-.15.066-.155.064-.16.063-.163.061-.168.06-.172.059-.175.057-.18.056-.183.054-.187.053-.191.051-.194.05-.198.048-.201.046-.205.045-.208.043-.211.041-.214.04-.217.038-.22.036-.223.034-.225.032-.229.031-.231.028-.233.027-.236.024-.239.023-.241.02-.242.019-.246.016-.247.015-.249.012-.251.01-.253.008-.255.005-.256.004-.258.001-.258-.001-.256-.004-.255-.005-.253-.008-.251-.01-.249-.012-.247-.015-.245-.016-.243-.019-.241-.02-.238-.023-.236-.024-.234-.027-.231-.028-.228-.031-.226-.032-.223-.034-.22-.036-.217-.038-.214-.04-.211-.041-.208-.043-.204-.045-.201-.046-.198-.048-.195-.05-.19-.051-.187-.053-.184-.054-.179-.056-.176-.057-.172-.059-.167-.06-.164-.061-.159-.063-.155-.064-.151-.066-.074-.033-.072-.033-.072-.034-.07-.034-.069-.035-.068-.035-.067-.035-.066-.035-.064-.036-.063-.036-.062-.036-.061-.036-.06-.037-.058-.037-.057-.037-.056-.038-.055-.038-.053-.038-.052-.038-.051-.039-.049-.039-.049-.039-.046-.039-.046-.04-.044-.04-.043-.04-.041-.04-.04-.041-.039-.041-.037-.041-.036-.041-.034-.041-.033-.042-.032-.042-.03-.042-.029-.042-.027-.042-.026-.043-.024-.043-.023-.043-.021-.043-.02-.043-.018-.044-.017-.043-.015-.044-.013-.044-.012-.044-.011-.045-.009-.044-.007-.045-.006-.045-.004-.045-.002-.045-.001-.045v-17l.001-.045.002-.045.004-.045.006-.045.007-.045.009-.044.011-.045.012-.044.013-.044.015-.044.017-.043.018-.044.02-.043.021-.043.023-.043.024-.043.026-.043.027-.042.029-.042.03-.042.032-.042.033-.042.034-.041.036-.041.037-.041.039-.041.04-.041.041-.04.043-.04.044-.04.046-.04.046-.039.049-.039.049-.039.051-.039.052-.038.053-.038.055-.038.056-.038.057-.037.058-.037.06-.037.061-.036.062-.036.063-.036.064-.036.066-.035.067-.035.068-.035.069-.035.07-.034.072-.034.072-.033.074-.033.151-.066.155-.064.159-.063.164-.061.167-.06.172-.059.176-.057.179-.056.184-.054.187-.053.19-.051.195-.05.198-.048.201-.046.204-.045.208-.043.211-.041.214-.04.217-.038.22-.036.223-.034.226-.032.228-.031.231-.028.234-.027.236-.024.238-.023.241-.02.243-.019.245-.016.247-.015.249-.012.251-.01.253-.008.255-.005.256-.004.258-.001.258.001zm-9.258 20.499v.01l.001.021.003.021.004.022.005.021.006.022.007.022.009.023.01.022.011.023.012.023.013.023.015.023.016.024.017.023.018.024.019.024.021.024.022.025.023.024.024.025.052.049.056.05.061.051.066.051.07.051.075.051.079.052.084.052.088.052.092.052.097.052.102.051.105.052.11.052.114.051.119.051.123.051.127.05.131.05.135.05.139.048.144.049.147.047.152.047.155.047.16.045.163.045.167.043.171.043.176.041.178.041.183.039.187.039.19.037.194.035.197.035.202.033.204.031.209.03.212.029.216.027.219.025.222.024.226.021.23.02.233.018.236.016.24.015.243.012.246.01.249.008.253.005.256.004.259.001.26-.001.257-.004.254-.005.25-.008.247-.011.244-.012.241-.014.237-.016.233-.018.231-.021.226-.021.224-.024.22-.026.216-.027.212-.028.21-.031.205-.031.202-.034.198-.034.194-.036.191-.037.187-.039.183-.04.179-.04.175-.042.172-.043.168-.044.163-.045.16-.046.155-.046.152-.047.148-.048.143-.049.139-.049.136-.05.131-.05.126-.05.123-.051.118-.052.114-.051.11-.052.106-.052.101-.052.096-.052.092-.052.088-.053.083-.051.079-.052.074-.052.07-.051.065-.051.06-.051.056-.05.051-.05.023-.024.023-.025.021-.024.02-.024.019-.024.018-.024.017-.024.015-.023.014-.024.013-.023.012-.023.01-.023.01-.022.008-.022.006-.022.006-.022.004-.022.004-.021.001-.021.001-.021v-4.127l-.077.055-.08.053-.083.054-.085.053-.087.052-.09.052-.093.051-.095.05-.097.05-.1.049-.102.049-.105.048-.106.047-.109.047-.111.046-.114.045-.115.045-.118.044-.12.043-.122.042-.124.042-.126.041-.128.04-.13.04-.132.038-.134.038-.135.037-.138.037-.139.035-.142.035-.143.034-.144.033-.147.032-.148.031-.15.03-.151.03-.153.029-.154.027-.156.027-.158.026-.159.025-.161.024-.162.023-.163.022-.165.021-.166.02-.167.019-.169.018-.169.017-.171.016-.173.015-.173.014-.175.013-.175.012-.177.011-.178.01-.179.008-.179.008-.181.006-.182.005-.182.004-.184.003-.184.002h-.37l-.184-.002-.184-.003-.182-.004-.182-.005-.181-.006-.179-.008-.179-.008-.178-.01-.176-.011-.176-.012-.175-.013-.173-.014-.172-.015-.171-.016-.17-.017-.169-.018-.167-.019-.166-.02-.165-.021-.163-.022-.162-.023-.161-.024-.159-.025-.157-.026-.156-.027-.155-.027-.153-.029-.151-.03-.15-.03-.148-.031-.146-.032-.145-.033-.143-.034-.141-.035-.14-.035-.137-.037-.136-.037-.134-.038-.132-.038-.13-.04-.128-.04-.126-.041-.124-.042-.122-.042-.12-.044-.117-.043-.116-.045-.113-.045-.112-.046-.109-.047-.106-.047-.105-.048-.102-.049-.1-.049-.097-.05-.095-.05-.093-.052-.09-.051-.087-.052-.085-.053-.083-.054-.08-.054-.077-.054v4.127zm0-5.654v.011l.001.021.003.021.004.021.005.022.006.022.007.022.009.022.01.022.011.023.012.023.013.023.015.024.016.023.017.024.018.024.019.024.021.024.022.024.023.025.024.024.052.05.056.05.061.05.066.051.07.051.075.052.079.051.084.052.088.052.092.052.097.052.102.052.105.052.11.051.114.051.119.052.123.05.127.051.131.05.135.049.139.049.144.048.147.048.152.047.155.046.16.045.163.045.167.044.171.042.176.042.178.04.183.04.187.038.19.037.194.036.197.034.202.033.204.032.209.03.212.028.216.027.219.025.222.024.226.022.23.02.233.018.236.016.24.014.243.012.246.01.249.008.253.006.256.003.259.001.26-.001.257-.003.254-.006.25-.008.247-.01.244-.012.241-.015.237-.016.233-.018.231-.02.226-.022.224-.024.22-.025.216-.027.212-.029.21-.03.205-.032.202-.033.198-.035.194-.036.191-.037.187-.039.183-.039.179-.041.175-.042.172-.043.168-.044.163-.045.16-.045.155-.047.152-.047.148-.048.143-.048.139-.05.136-.049.131-.05.126-.051.123-.051.118-.051.114-.052.11-.052.106-.052.101-.052.096-.052.092-.052.088-.052.083-.052.079-.052.074-.051.07-.052.065-.051.06-.05.056-.051.051-.049.023-.025.023-.024.021-.025.02-.024.019-.024.018-.024.017-.024.015-.023.014-.023.013-.024.012-.022.01-.023.01-.023.008-.022.006-.022.006-.022.004-.021.004-.022.001-.021.001-.021v-4.139l-.077.054-.08.054-.083.054-.085.052-.087.053-.09.051-.093.051-.095.051-.097.05-.1.049-.102.049-.105.048-.106.047-.109.047-.111.046-.114.045-.115.044-.118.044-.12.044-.122.042-.124.042-.126.041-.128.04-.13.039-.132.039-.134.038-.135.037-.138.036-.139.036-.142.035-.143.033-.144.033-.147.033-.148.031-.15.03-.151.03-.153.028-.154.028-.156.027-.158.026-.159.025-.161.024-.162.023-.163.022-.165.021-.166.02-.167.019-.169.018-.169.017-.171.016-.173.015-.173.014-.175.013-.175.012-.177.011-.178.009-.179.009-.179.007-.181.007-.182.005-.182.004-.184.003-.184.002h-.37l-.184-.002-.184-.003-.182-.004-.182-.005-.181-.007-.179-.007-.179-.009-.178-.009-.176-.011-.176-.012-.175-.013-.173-.014-.172-.015-.171-.016-.17-.017-.169-.018-.167-.019-.166-.02-.165-.021-.163-.022-.162-.023-.161-.024-.159-.025-.157-.026-.156-.027-.155-.028-.153-.028-.151-.03-.15-.03-.148-.031-.146-.033-.145-.033-.143-.033-.141-.035-.14-.036-.137-.036-.136-.037-.134-.038-.132-.039-.13-.039-.128-.04-.126-.041-.124-.042-.122-.043-.12-.043-.117-.044-.116-.044-.113-.046-.112-.046-.109-.046-.106-.047-.105-.048-.102-.049-.1-.049-.097-.05-.095-.051-.093-.051-.09-.051-.087-.053-.085-.052-.083-.054-.08-.054-.077-.054v4.139zm0-5.666v.011l.001.02.003.022.004.021.005.022.006.021.007.022.009.023.01.022.011.023.012.023.013.023.015.023.016.024.017.024.018.023.019.024.021.025.022.024.023.024.024.025.052.05.056.05.061.05.066.051.07.051.075.052.079.051.084.052.088.052.092.052.097.052.102.052.105.051.11.052.114.051.119.051.123.051.127.05.131.05.135.05.139.049.144.048.147.048.152.047.155.046.16.045.163.045.167.043.171.043.176.042.178.04.183.04.187.038.19.037.194.036.197.034.202.033.204.032.209.03.212.028.216.027.219.025.222.024.226.021.23.02.233.018.236.017.24.014.243.012.246.01.249.008.253.006.256.003.259.001.26-.001.257-.003.254-.006.25-.008.247-.01.244-.013.241-.014.237-.016.233-.018.231-.02.226-.022.224-.024.22-.025.216-.027.212-.029.21-.03.205-.032.202-.033.198-.035.194-.036.191-.037.187-.039.183-.039.179-.041.175-.042.172-.043.168-.044.163-.045.16-.045.155-.047.152-.047.148-.048.143-.049.139-.049.136-.049.131-.051.126-.05.123-.051.118-.052.114-.051.11-.052.106-.052.101-.052.096-.052.092-.052.088-.052.083-.052.079-.052.074-.052.07-.051.065-.051.06-.051.056-.05.051-.049.023-.025.023-.025.021-.024.02-.024.019-.024.018-.024.017-.024.015-.023.014-.024.013-.023.012-.023.01-.022.01-.023.008-.022.006-.022.006-.022.004-.022.004-.021.001-.021.001-.021v-4.153l-.077.054-.08.054-.083.053-.085.053-.087.053-.09.051-.093.051-.095.051-.097.05-.1.049-.102.048-.105.048-.106.048-.109.046-.111.046-.114.046-.115.044-.118.044-.12.043-.122.043-.124.042-.126.041-.128.04-.13.039-.132.039-.134.038-.135.037-.138.036-.139.036-.142.034-.143.034-.144.033-.147.032-.148.032-.15.03-.151.03-.153.028-.154.028-.156.027-.158.026-.159.024-.161.024-.162.023-.163.023-.165.021-.166.02-.167.019-.169.018-.169.017-.171.016-.173.015-.173.014-.175.013-.175.012-.177.01-.178.01-.179.009-.179.007-.181.006-.182.006-.182.004-.184.003-.184.001-.185.001-.185-.001-.184-.001-.184-.003-.182-.004-.182-.006-.181-.006-.179-.007-.179-.009-.178-.01-.176-.01-.176-.012-.175-.013-.173-.014-.172-.015-.171-.016-.17-.017-.169-.018-.167-.019-.166-.02-.165-.021-.163-.023-.162-.023-.161-.024-.159-.024-.157-.026-.156-.027-.155-.028-.153-.028-.151-.03-.15-.03-.148-.032-.146-.032-.145-.033-.143-.034-.141-.034-.14-.036-.137-.036-.136-.037-.134-.038-.132-.039-.13-.039-.128-.041-.126-.041-.124-.041-.122-.043-.12-.043-.117-.044-.116-.044-.113-.046-.112-.046-.109-.046-.106-.048-.105-.048-.102-.048-.1-.05-.097-.049-.095-.051-.093-.051-.09-.052-.087-.052-.085-.053-.083-.053-.08-.054-.077-.054v4.153zm8.74-8.179l-.257.004-.254.005-.25.008-.247.011-.244.012-.241.014-.237.016-.233.018-.231.021-.226.022-.224.023-.22.026-.216.027-.212.028-.21.031-.205.032-.202.033-.198.034-.194.036-.191.038-.187.038-.183.04-.179.041-.175.042-.172.043-.168.043-.163.045-.16.046-.155.046-.152.048-.148.048-.143.048-.139.049-.136.05-.131.05-.126.051-.123.051-.118.051-.114.052-.11.052-.106.052-.101.052-.096.052-.092.052-.088.052-.083.052-.079.052-.074.051-.07.052-.065.051-.06.05-.056.05-.051.05-.023.025-.023.024-.021.024-.02.025-.019.024-.018.024-.017.023-.015.024-.014.023-.013.023-.012.023-.01.023-.01.022-.008.022-.006.023-.006.021-.004.022-.004.021-.001.021-.001.021.001.021.001.021.004.021.004.022.006.021.006.023.008.022.01.022.01.023.012.023.013.023.014.023.015.024.017.023.018.024.019.024.02.025.021.024.023.024.023.025.051.05.056.05.06.05.065.051.07.052.074.051.079.052.083.052.088.052.092.052.096.052.101.052.106.052.11.052.114.052.118.051.123.051.126.051.131.05.136.05.139.049.143.048.148.048.152.048.155.046.16.046.163.045.168.043.172.043.175.042.179.041.183.04.187.038.191.038.194.036.198.034.202.033.205.032.21.031.212.028.216.027.22.026.224.023.226.022.231.021.233.018.237.016.241.014.244.012.247.011.25.008.254.005.257.004.26.001.26-.001.257-.004.254-.005.25-.008.247-.011.244-.012.241-.014.237-.016.233-.018.231-.021.226-.022.224-.023.22-.026.216-.027.212-.028.21-.031.205-.032.202-.033.198-.034.194-.036.191-.038.187-.038.183-.04.179-.041.175-.042.172-.043.168-.043.163-.045.16-.046.155-.046.152-.048.148-.048.143-.048.139-.049.136-.05.131-.05.126-.051.123-.051.118-.051.114-.052.11-.052.106-.052.101-.052.096-.052.092-.052.088-.052.083-.052.079-.052.074-.051.07-.052.065-.051.06-.05.056-.05.051-.05.023-.025.023-.024.021-.024.02-.025.019-.024.018-.024.017-.023.015-.024.014-.023.013-.023.012-.023.01-.023.01-.022.008-.022.006-.023.006-.021.004-.022.004-.021.001-.021.001-.021-.001-.021-.001-.021-.004-.021-.004-.022-.006-.021-.006-.023-.008-.022-.01-.022-.01-.023-.012-.023-.013-.023-.014-.023-.015-.024-.017-.023-.018-.024-.019-.024-.02-.025-.021-.024-.023-.024-.023-.025-.051-.05-.056-.05-.06-.05-.065-.051-.07-.052-.074-.051-.079-.052-.083-.052-.088-.052-.092-.052-.096-.052-.101-.052-.106-.052-.11-.052-.114-.052-.118-.051-.123-.051-.126-.051-.131-.05-.136-.05-.139-.049-.143-.048-.148-.048-.152-.048-.155-.046-.16-.046-.163-.045-.168-.043-.172-.043-.175-.042-.179-.041-.183-.04-.187-.038-.191-.038-.194-.036-.198-.034-.202-.033-.205-.032-.21-.031-.212-.028-.216-.027-.22-.026-.224-.023-.226-.022-.231-.021-.233-.018-.237-.016-.241-.014-.244-.012-.247-.011-.25-.008-.254-.005-.257-.004-.26-.001-.26.001z" transform="scale(.5)"/></symbol></defs><defs><symbol height="24" width="24" id="clock"><path d="M12 2c5.514 0 10 4.486 10 10s-4.486 10-10 10-10-4.486-10-10 4.486-10 10-10zm0-2c-6.627 0-12 5.373-12 12s5.373 12 12 12 12-5.373 12-12-5.373-12-12-12zm5.848 12.459c.202.038.202.333.001.372-1.907.361-6.045 1.111-6.547 1.111-.719 0-1.301-.582-1.301-1.301 0-.512.77-5.447 1.125-7.445.034-.192.312-.181.343.014l.985 6.238 5.394 1.011z" transform="scale(.5)"/></symbol></defs><defs><marker orient="auto-start-reverse" markerHeight="12" markerWidth="12" markerUnits="userSpaceOnUse" refY="5" refX="7.9" id="arrowhead"><path d="M -1 0 L 10 5 L 0 10 z"/></marker></defs><defs><marker refY="4.5" refX="4" orient="auto" markerHeight="8" markerWidth="15" id="crosshead"><path style="stroke-dasharray: 0, 0;" d="M 1,2 L 6,7 M 6,2 L 1,7" stroke-width="1pt" stroke="#000000" fill="none"/></marker></defs><defs><marker orient="auto" markerHeight="28" markerWidth="20" refY="7" refX="15.5" id="filled-head"><path d="M 18,7 L9,13 L14,7 L9,1 Z"/></marker></defs><defs><marker orient="auto" markerHeight="40" markerWidth="60" refY="15" refX="15" id="sequencenumber"><circle r="6" cy="15" cx="15"/></marker></defs><g><rect class="note" height="39" width="513" stroke="#666" fill="#EDF2AE" y="75" x="50"/><text style="font-size: 16px; font-weight: 400;" dy="1em" class="noteText" alignment-baseline="middle" dominant-baseline="middle" text-anchor="middle" y="80" x="307"><tspan x="307">iOS setup app first-time</tspan></text></g><g><rect class="note" height="39" width="513" stroke="#666" fill="#EDF2AE" y="316" x="50"/><text style="font-size: 16px; font-weight: 400;" dy="1em" class="noteText" alignment-baseline="middle" dominant-baseline="middle" text-anchor="middle" y="321" x="307"><tspan x="307">iOS creates link</tspan></text></g><g><line class="loopLine" y2="365" x2="749" y1="365" x1="64"/><line class="loopLine" y2="551" x2="749" y1="365" x1="749"/><line class="loopLine" y2="551" x2="749" y1="551" x1="64"/><line class="loopLine" y2="551" x2="64" y1="365" x1="64"/><line style="stroke-dasharray: 3, 3;" class="loopLine" y2="463" x2="749" y1="463" x1="64"/><polygon class="labelBox" points="64,365 114,365 114,378 105.6,385 64,385"/><text style="font-size: 16px; font-weight: 400;" class="labelText" alignment-baseline="middle" dominant-baseline="middle" text-anchor="middle" y="378" x="89">alt</text><text style="font-size: 16px; font-weight: 400;" class="loopText" text-anchor="middle" y="383" x="431.5"><tspan x="431.5">[Create credentials for queue (new client)]</tspan></text><text style="font-size: 16px; font-weight: 400;" class="loopText" text-anchor="middle" y="481" x="406.5">[Create credentials for queue (old client)]</text></g><g><rect class="note" height="39" width="713" stroke="#666" fill="#EDF2AE" y="561" x="50"/><text style="font-size: 16px; font-weight: 400;" dy="1em" class="noteText" alignment-baseline="middle" dominant-baseline="middle" text-anchor="middle" y="566" x="407"><tspan x="407">Subscription phase</tspan></text></g><g><line class="loopLine" y2="658" x2="749" y1="658" x1="527"/><line class="loopLine" y2="991" x2="749" y1="658" x1="749"/><line class="loopLine" y2="991" x2="749" y1="991" x1="527"/><line class="loopLine" y2="991" x2="527" y1="658" x1="527"/><line style="stroke-dasharray: 3, 3;" class="loopLine" y2="774" x2="749" y1="774" x1="527"/><line style="stroke-dasharray: 3, 3;" class="loopLine" y2="885" x2="749" y1="885" x1="527"/><polygon class="labelBox" points="527,658 577,658 577,671 568.6,678 527,678"/><text style="font-size: 16px; font-weight: 400;" class="labelText" alignment-baseline="middle" dominant-baseline="middle" text-anchor="middle" y="671" x="552">alt</text><text style="font-size: 16px; font-weight: 400;" class="loopText" text-anchor="middle" y="676" x="663"><tspan x="663">[Subscription</tspan></text><text style="font-size: 16px; font-weight: 400;" class="loopText" text-anchor="middle" y="695" x="663"><tspan x="663">request]</tspan></text><text style="font-size: 16px; font-weight: 400;" class="loopText" text-anchor="middle" y="792" x="638">[Subscription fail:</text><text style="font-size: 16px; font-weight: 400;" class="loopText" text-anchor="middle" y="811" x="638">AUTH]</text><text style="font-size: 16px; font-weight: 400;" class="loopText" text-anchor="middle" y="903" x="638">[Subscription fail:</text><text style="font-size: 16px; font-weight: 400;" class="loopText" text-anchor="middle" y="922" x="638">Duplicate]</text></g><g><rect class="note" height="39" width="713" stroke="#666" fill="#EDF2AE" y="1001" x="50"/><text style="font-size: 16px; font-weight: 400;" dy="1em" class="noteText" alignment-baseline="middle" dominant-baseline="middle" text-anchor="middle" y="1006" x="407"><tspan x="407">Notification phase</tspan></text></g><g><line class="loopLine" y2="1050" x2="874" y1="1050" x1="604"/><line class="loopLine" y2="1222" x2="874" y1="1050" x1="874"/><line class="loopLine" y2="1222" x2="874" y1="1222" x1="604"/><line class="loopLine" y2="1222" x2="604" y1="1050" x1="604"/><polygon class="labelBox" points="604,1050 654,1050 654,1063 645.6,1070 604,1070"/><text style="font-size: 16px; font-weight: 400;" class="labelText" alignment-baseline="middle" dominant-baseline="middle" text-anchor="middle" y="1063" x="629">loop</text><text style="font-size: 16px; font-weight: 400;" class="loopText" text-anchor="middle" y="1068" x="764"><tspan x="764">[Every minute]</tspan></text></g><g><line class="loopLine" y2="1232" x2="824" y1="1232" x1="64"/><line class="loopLine" y2="1559" x2="824" y1="1232" x1="824"/><line class="loopLine" y2="1559" x2="824" y1="1559" x1="64"/><line class="loopLine" y2="1559" x2="64" y1="1232" x1="64"/><line style="stroke-dasharray: 3, 3;" class="loopLine" y2="1378" x2="824" y1="1378" x1="64"/><line style="stroke-dasharray: 3, 3;" class="loopLine" y2="1471" x2="824" y1="1471" x1="64"/><polygon class="labelBox" points="64,1232 114,1232 114,1245 105.6,1252 64,1252"/><text style="font-size: 16px; font-weight: 400;" class="labelText" alignment-baseline="middle" dominant-baseline="middle" text-anchor="middle" y="1245" x="89">alt</text><text style="font-size: 16px; font-weight: 400;" class="loopText" text-anchor="middle" y="1250" x="469"><tspan x="469">[SMP recevies</tspan></text><text style="font-size: 16px; font-weight: 400;" class="loopText" text-anchor="middle" y="1269" x="469"><tspan x="469">message with notification]</tspan></text><text style="font-size: 16px; font-weight: 400;" class="loopText" text-anchor="middle" y="1396" x="444">[Client asks SMP to get new message]</text><text style="font-size: 16px; font-weight: 400;" class="loopText" text-anchor="middle" y="1489" x="444">[Client sents message with notification flag]</text></g><g><line class="loopLine" y2="1569" x2="824" y1="1569" x1="654"/><line class="loopLine" y2="2269" x2="824" y1="1569" x1="824"/><line class="loopLine" y2="2269" x2="824" y1="2269" x1="654"/><line class="loopLine" y2="2269" x2="654" y1="1569" x1="654"/><line style="stroke-dasharray: 3, 3;" class="loopLine" y2="1734" x2="824" y1="1734" x1="654"/><line style="stroke-dasharray: 3, 3;" class="loopLine" y2="1875" x2="824" y1="1875" x1="654"/><line style="stroke-dasharray: 3, 3;" class="loopLine" y2="1998" x2="824" y1="1998" x1="654"/><line style="stroke-dasharray: 3, 3;" class="loopLine" y2="2121" x2="824" y1="2121" x1="654"/><polygon class="labelBox" points="654,1569 704,1569 704,1582 695.6,1589 654,1589"/><text style="font-size: 16px; font-weight: 400;" class="labelText" alignment-baseline="middle" dominant-baseline="middle" text-anchor="middle" y="1582" x="679">alt</text><text style="font-size: 16px; font-weight: 400;" class="loopText" text-anchor="middle" y="1587" x="764"><tspan x="764">[SMP</tspan></text><text style="font-size: 16px; font-weight: 400;" class="loopText" text-anchor="middle" y="1606" x="764"><tspan x="764">recevies</tspan></text><text style="font-size: 16px; font-weight: 400;" class="loopText" text-anchor="middle" y="1625" x="764"><tspan x="764">get]</tspan></text><text style="font-size: 16px; font-weight: 400;" class="loopText" text-anchor="middle" y="1752" x="739">[Prohibited-</text><text style="font-size: 16px; font-weight: 400;" class="loopText" text-anchor="middle" y="1771" x="739">]</text><text style="font-size: 16px; font-weight: 400;" class="loopText" text-anchor="middle" y="1893" x="739">[Duplicate]</text><text style="font-size: 16px; font-weight: 400;" class="loopText" text-anchor="middle" y="2016" x="739">[AUTH]</text><text style="font-size: 16px; font-weight: 400;" class="loopText" text-anchor="middle" y="2139" x="739">[NoMsg]</text></g><g><line class="loopLine" y2="2279" x2="824" y1="2279" x1="527"/><line class="loopLine" y2="2862" x2="824" y1="2279" x1="824"/><line class="loopLine" y2="2862" x2="824" y1="2862" x1="527"/><line class="loopLine" y2="2862" x2="527" y1="2279" x1="527"/><line style="stroke-dasharray: 3, 3;" class="loopLine" y2="2414" x2="824" y1="2414" x1="527"/><line style="stroke-dasharray: 3, 3;" class="loopLine" y2="2555" x2="824" y1="2555" x1="527"/><line style="stroke-dasharray: 3, 3;" class="loopLine" y2="2696" x2="824" y1="2696" x1="527"/><polygon class="labelBox" points="527,2279 577,2279 577,2292 568.6,2299 527,2299"/><text style="font-size: 16px; font-weight: 400;" class="labelText" alignment-baseline="middle" dominant-baseline="middle" text-anchor="middle" y="2292" x="552">alt</text><text style="font-size: 16px; font-weight: 400;" class="loopText" text-anchor="middle" y="2297" x="700.5"><tspan x="700.5">[Send</tspan></text><text style="font-size: 16px; font-weight: 400;" class="loopText" text-anchor="middle" y="2316" x="700.5"><tspan x="700.5">notification-</tspan></text><text style="font-size: 16px; font-weight: 400;" class="loopText" text-anchor="middle" y="2335" x="700.5"><tspan x="700.5">]</tspan></text><text style="font-size: 16px; font-weight: 400;" class="loopText" text-anchor="middle" y="2432" x="675.5">[No subsciptions</text><text style="font-size: 16px; font-weight: 400;" class="loopText" text-anchor="middle" y="2451" x="675.5">(will deliver)]</text><text style="font-size: 16px; font-weight: 400;" class="loopText" text-anchor="middle" y="2573" x="675.5">[Lost</text><text style="font-size: 16px; font-weight: 400;" class="loopText" text-anchor="middle" y="2592" x="675.5">(no delivery)]</text><text style="font-size: 16px; font-weight: 400;" class="loopText" text-anchor="middle" y="2714" x="675.5">[Expired</text><text style="font-size: 16px; font-weight: 400;" class="loopText" text-anchor="middle" y="2733" x="675.5">(no delivery)]</text></g><g><rect class="note" height="39" width="913" stroke="#666" fill="#EDF2AE" y="2950" x="50"/><text style="font-size: 16px; font-weight: 400;" dy="1em" class="noteText" alignment-baseline="middle" dominant-baseline="middle" text-anchor="middle" y="2955" x="507"><tspan x="507">Final phase</tspan></text></g><g><line class="loopLine" y2="2999" x2="949" y1="2999" x1="527"/><line class="loopLine" y2="3185" x2="949" y1="2999" x1="949"/><line class="loopLine" y2="3185" x2="949" y1="3185" x1="527"/><line class="loopLine" y2="3185" x2="527" y1="2999" x1="527"/><line style="stroke-dasharray: 3, 3;" class="loopLine" y2="3097" x2="949" y1="3097" x1="527"/><polygon class="labelBox" points="527,2999 577,2999 577,3012 568.6,3019 527,3019"/><text style="font-size: 16px; font-weight: 400;" class="labelText" alignment-baseline="middle" dominant-baseline="middle" text-anchor="middle" y="3012" x="552">alt</text><text style="font-size: 16px; font-weight: 400;" class="loopText" text-anchor="middle" y="3017" x="763"><tspan x="763">[Delivered notification to Apple APNs]</tspan></text><text style="font-size: 16px; font-weight: 400;" class="loopText" text-anchor="middle" y="3115" x="738">[Failed to deliver]</text></g><g><rect class="note" height="39" width="713" stroke="#666" fill="#EDF2AE" y="3243" x="50"/><text style="font-size: 16px; font-weight: 400;" dy="1em" class="noteText" alignment-baseline="middle" dominant-baseline="middle" text-anchor="middle" y="3248" x="407"><tspan x="407">Confirmation phase</tspan></text></g><text style="font-size: 16px; font-weight: 400;" dy="1em" class="messageText" alignment-baseline="middle" dominant-baseline="middle" text-anchor="middle" y="129" x="305">Create token (tknCreated)</text><line style="fill: none;" marker-start="url(#sequencenumber)" marker-end="url(#arrowhead)" stroke="none" stroke-width="2" class="messageLine0" y2="162" x2="534" y1="162" x1="76"/><text class="sequenceNumber" text-anchor="middle" font-size="12px" font-family="sans-serif" y="166" x="76">1</text><text style="font-size: 16px; font-weight: 400;" dy="1em" class="messageText" alignment-baseline="middle" dominant-baseline="middle" text-anchor="middle" y="177" x="737">Send test notification with secret to APNs</text><line style="fill: none;" marker-start="url(#sequencenumber)" marker-end="url(#arrowhead)" stroke="none" stroke-width="2" class="messageLine0" y2="210" x2="934" y1="210" x1="539"/><text class="sequenceNumber" text-anchor="middle" font-size="12px" font-family="sans-serif" y="214" x="539">2</text><text style="font-size: 16px; font-weight: 400;" dy="1em" class="messageText" alignment-baseline="middle" dominant-baseline="middle" text-anchor="middle" y="225" x="508">Send test notification with secret to client</text><line style="stroke-dasharray: 3, 3; fill: none;" marker-start="url(#sequencenumber)" marker-end="url(#arrowhead)" stroke="none" stroke-width="2" class="messageLine1" y2="258" x2="79" y1="258" x1="937"/><text class="sequenceNumber" text-anchor="middle" font-size="12px" font-family="sans-serif" y="262" x="937">3</text><text style="font-size: 16px; font-weight: 400;" dy="1em" class="messageText" alignment-baseline="middle" dominant-baseline="middle" text-anchor="middle" y="273" x="305">Verify iOS token (tknVerified)</text><line style="fill: none;" marker-start="url(#sequencenumber)" marker-end="url(#arrowhead)" stroke="none" stroke-width="2" class="messageLine0" y2="306" x2="534" y1="306" x1="76"/><text class="sequenceNumber" text-anchor="middle" font-size="12px" font-family="sans-serif" y="310" x="76">4</text><text style="font-size: 16px; font-weight: 400;" dy="1em" class="messageText" alignment-baseline="middle" dominant-baseline="middle" text-anchor="middle" y="415" x="405">ntfNewCreated</text><line style="fill: none;" marker-start="url(#sequencenumber)" marker-end="url(#arrowhead)" stroke="none" stroke-width="2" class="messageLine0" y2="448" x2="734" y1="448" x1="76"/><text class="sequenceNumber" text-anchor="middle" font-size="12px" font-family="sans-serif" y="452" x="76">5</text><text style="font-size: 16px; font-weight: 400;" dy="1em" class="messageText" alignment-baseline="middle" dominant-baseline="middle" text-anchor="middle" y="508" x="405">ntfCreated</text><line style="fill: none;" marker-start="url(#sequencenumber)" marker-end="url(#arrowhead)" stroke="none" stroke-width="2" class="messageLine0" y2="541" x2="734" y1="541" x1="76"/><text class="sequenceNumber" text-anchor="middle" font-size="12px" font-family="sans-serif" y="545" x="76">6</text><text style="font-size: 16px; font-weight: 400;" dy="1em" class="messageText" alignment-baseline="middle" dominant-baseline="middle" text-anchor="middle" y="615" x="305">Create subscription based on credentials (subCreated)</text><line style="fill: none;" marker-start="url(#sequencenumber)" marker-end="url(#arrowhead)" stroke="none" stroke-width="2" class="messageLine0" y2="648" x2="534" y1="648" x1="76"/><text class="sequenceNumber" text-anchor="middle" font-size="12px" font-family="sans-serif" y="652" x="76">7</text><text style="font-size: 16px; font-weight: 400;" dy="1em" class="messageText" alignment-baseline="middle" dominant-baseline="middle" text-anchor="middle" y="726" x="637">ntfSub</text><line style="fill: none;" marker-start="url(#sequencenumber)" marker-end="url(#arrowhead)" stroke="none" stroke-width="2" class="messageLine0" y2="759" x2="734" y1="759" x1="539"/><text class="sequenceNumber" text-anchor="middle" font-size="12px" font-family="sans-serif" y="763" x="539">8</text><text style="font-size: 16px; font-weight: 400;" dy="1em" class="messageText" alignment-baseline="middle" dominant-baseline="middle" text-anchor="middle" y="837" x="637">ntfSubAuth</text><line style="fill: none;" marker-start="url(#sequencenumber)" marker-end="url(#arrowhead)" stroke="none" stroke-width="2" class="messageLine0" y2="870" x2="734" y1="870" x1="539"/><text class="sequenceNumber" text-anchor="middle" font-size="12px" font-family="sans-serif" y="874" x="539">9</text><text style="font-size: 16px; font-weight: 400;" dy="1em" class="messageText" alignment-baseline="middle" dominant-baseline="middle" text-anchor="middle" y="948" x="637">ntfSubDuplicate</text><line style="fill: none;" marker-start="url(#sequencenumber)" marker-end="url(#arrowhead)" stroke="none" stroke-width="2" class="messageLine0" y2="981" x2="734" y1="981" x1="539"/><text class="sequenceNumber" text-anchor="middle" font-size="12px" font-family="sans-serif" y="985" x="539">10</text><text style="font-size: 16px; font-weight: 400;" dy="1em" class="messageText" alignment-baseline="middle" dominant-baseline="middle" text-anchor="middle" y="1100" x="739">Queues with notification</text><text style="font-size: 16px; font-weight: 400;" dy="1em" class="messageText" alignment-baseline="middle" dominant-baseline="middle" text-anchor="middle" y="1119" x="739">waiting to be delivered (ntfCount1)</text><path style="stroke-dasharray: 3, 3; fill: none;" marker-start="url(#sequencenumber)" stroke="none" stroke-width="2" class="messageLine1" d="M 739,1152 C 799,1142 799,1182 739,1172"/><text class="sequenceNumber" text-anchor="middle" font-size="12px" font-family="sans-serif" y="1156" x="739">11</text><text style="font-size: 16px; font-weight: 400;" dy="1em" class="messageText" alignment-baseline="middle" dominant-baseline="middle" text-anchor="middle" y="1300" x="739">msgRecvNtf</text><path style="fill: none;" marker-start="url(#sequencenumber)" marker-end="url(#arrowhead)" stroke="none" stroke-width="2" class="messageLine0" d="M 739,1333 C 799,1323 799,1363 739,1353"/><text class="sequenceNumber" text-anchor="middle" font-size="12px" font-family="sans-serif" y="1337" x="739">12</text><text style="font-size: 16px; font-weight: 400;" dy="1em" class="messageText" alignment-baseline="middle" dominant-baseline="middle" text-anchor="middle" y="1423" x="405">msgGet</text><line style="fill: none;" marker-start="url(#sequencenumber)" marker-end="url(#arrowhead)" stroke="none" stroke-width="2" class="messageLine0" y2="1456" x2="734" y1="1456" x1="76"/><text class="sequenceNumber" text-anchor="middle" font-size="12px" font-family="sans-serif" y="1460" x="76">13</text><text style="font-size: 16px; font-weight: 400;" dy="1em" class="messageText" alignment-baseline="middle" dominant-baseline="middle" text-anchor="middle" y="1516" x="405">msgSentNtf</text><line style="fill: none;" marker-start="url(#sequencenumber)" marker-end="url(#arrowhead)" stroke="none" stroke-width="2" class="messageLine0" y2="1549" x2="734" y1="1549" x1="76"/><text class="sequenceNumber" text-anchor="middle" font-size="12px" font-family="sans-serif" y="1553" x="76">14</text><text style="font-size: 16px; font-weight: 400;" dy="1em" class="messageText" alignment-baseline="middle" dominant-baseline="middle" text-anchor="middle" y="1656" x="739">msgRecvGet</text><path style="stroke-dasharray: 3, 3; fill: none;" marker-start="url(#sequencenumber)" marker-end="url(#arrowhead)" stroke="none" stroke-width="2" class="messageLine1" d="M 739,1689 C 799,1679 799,1719 739,1709"/><text class="sequenceNumber" text-anchor="middle" font-size="12px" font-family="sans-serif" y="1693" x="739">15</text><text style="font-size: 16px; font-weight: 400;" dy="1em" class="messageText" alignment-baseline="middle" dominant-baseline="middle" text-anchor="middle" y="1797" x="739">msgGetProhibited</text><path style="stroke-dasharray: 3, 3; fill: none;" marker-start="url(#sequencenumber)" marker-end="url(#arrowhead)" stroke="none" stroke-width="2" class="messageLine1" d="M 739,1830 C 799,1820 799,1860 739,1850"/><text class="sequenceNumber" text-anchor="middle" font-size="12px" font-family="sans-serif" y="1834" x="739">16</text><text style="font-size: 16px; font-weight: 400;" dy="1em" class="messageText" alignment-baseline="middle" dominant-baseline="middle" text-anchor="middle" y="1920" x="739">msgGetDuplicate</text><path style="stroke-dasharray: 3, 3; fill: none;" marker-start="url(#sequencenumber)" stroke="none" stroke-width="2" class="messageLine1" d="M 739,1953 C 799,1943 799,1983 739,1973"/><text class="sequenceNumber" text-anchor="middle" font-size="12px" font-family="sans-serif" y="1957" x="739">17</text><text style="font-size: 16px; font-weight: 400;" dy="1em" class="messageText" alignment-baseline="middle" dominant-baseline="middle" text-anchor="middle" y="2043" x="739">msgGetAuth</text><path style="stroke-dasharray: 3, 3; fill: none;" marker-start="url(#sequencenumber)" stroke="none" stroke-width="2" class="messageLine1" d="M 739,2076 C 799,2066 799,2106 739,2096"/><text class="sequenceNumber" text-anchor="middle" font-size="12px" font-family="sans-serif" y="2080" x="739">18</text><text style="font-size: 16px; font-weight: 400;" dy="1em" class="messageText" alignment-baseline="middle" dominant-baseline="middle" text-anchor="middle" y="2166" x="739">msgGetNoMsg</text><path style="stroke-dasharray: 3, 3; fill: none;" marker-start="url(#sequencenumber)" stroke="none" stroke-width="2" class="messageLine1" d="M 739,2199 C 799,2189 799,2229 739,2219"/><text class="sequenceNumber" text-anchor="middle" font-size="12px" font-family="sans-serif" y="2203" x="739">19</text><text style="font-size: 16px; font-weight: 400;" dy="1em" class="messageText" alignment-baseline="middle" dominant-baseline="middle" text-anchor="middle" y="2366" x="640">msgNtfs</text><line style="fill: none;" marker-start="url(#sequencenumber)" marker-end="url(#arrowhead)" stroke="none" stroke-width="2" class="messageLine0" y2="2399" x2="542" y1="2399" x1="737"/><text class="sequenceNumber" text-anchor="middle" font-size="12px" font-family="sans-serif" y="2403" x="737">20</text><text style="font-size: 16px; font-weight: 400;" dy="1em" class="messageText" alignment-baseline="middle" dominant-baseline="middle" text-anchor="middle" y="2477" x="739">msgNtfNoSub</text><path style="fill: none;" marker-start="url(#sequencenumber)" marker-end="url(#arrowhead)" stroke="none" stroke-width="2" class="messageLine0" d="M 739,2510 C 799,2500 799,2540 739,2530"/><text class="sequenceNumber" text-anchor="middle" font-size="12px" font-family="sans-serif" y="2514" x="739">21</text><text style="font-size: 16px; font-weight: 400;" dy="1em" class="messageText" alignment-baseline="middle" dominant-baseline="middle" text-anchor="middle" y="2618" x="739">msgNtfLost</text><path style="fill: none;" marker-start="url(#sequencenumber)" marker-end="url(#arrowhead)" stroke="none" stroke-width="2" class="messageLine0" d="M 739,2651 C 799,2641 799,2681 739,2671"/><text class="sequenceNumber" text-anchor="middle" font-size="12px" font-family="sans-serif" y="2655" x="739">22</text><text style="font-size: 16px; font-weight: 400;" dy="1em" class="messageText" alignment-baseline="middle" dominant-baseline="middle" text-anchor="middle" y="2759" x="739">msgNtfExpired</text><path style="fill: none;" marker-start="url(#sequencenumber)" marker-end="url(#arrowhead)" stroke="none" stroke-width="2" class="messageLine0" d="M 739,2792 C 799,2782 799,2822 739,2812"/><text class="sequenceNumber" text-anchor="middle" font-size="12px" font-family="sans-serif" y="2796" x="739">23</text><text style="font-size: 16px; font-weight: 400;" dy="1em" class="messageText" alignment-baseline="middle" dominant-baseline="middle" text-anchor="middle" y="2877" x="539">Received notification (ntfReceived)</text><path style="stroke-dasharray: 3, 3; fill: none;" marker-start="url(#sequencenumber)" marker-end="url(#arrowhead)" stroke="none" stroke-width="2" class="messageLine1" d="M 539,2910 C 599,2900 599,2940 539,2930"/><text class="sequenceNumber" text-anchor="middle" font-size="12px" font-family="sans-serif" y="2914" x="539">24</text><text style="font-size: 16px; font-weight: 400;" dy="1em" class="messageText" alignment-baseline="middle" dominant-baseline="middle" text-anchor="middle" y="3049" x="737">ntfDelivered</text><line style="stroke-dasharray: 3, 3; fill: none;" marker-start="url(#sequencenumber)" marker-end="url(#arrowhead)" stroke="none" stroke-width="2" class="messageLine1" y2="3082" x2="934" y1="3082" x1="539"/><text class="sequenceNumber" text-anchor="middle" font-size="12px" font-family="sans-serif" y="3086" x="539">25</text><text style="font-size: 16px; font-weight: 400;" dy="1em" class="messageText" alignment-baseline="middle" dominant-baseline="middle" text-anchor="middle" y="3142" x="737">ntfFailed</text><line style="stroke-dasharray: 3, 3; fill: none;" marker-start="url(#sequencenumber)" marker-end="url(#arrowhead)" stroke="none" stroke-width="2" class="messageLine1" y2="3175" x2="934" y1="3175" x1="539"/><text class="sequenceNumber" text-anchor="middle" font-size="12px" font-family="sans-serif" y="3179" x="539">26</text><text style="font-size: 16px; font-weight: 400;" dy="1em" class="messageText" alignment-baseline="middle" dominant-baseline="middle" text-anchor="middle" y="3200" x="508">Sent notification (visible only via Apple's Console)</text><line style="fill: none;" marker-start="url(#sequencenumber)" marker-end="url(#arrowhead)" stroke="none" stroke-width="2" class="messageLine0" y2="3233" x2="79" y1="3233" x1="937"/><text class="sequenceNumber" text-anchor="middle" font-size="12px" font-family="sans-serif" y="3237" x="937">27</text><text style="font-size: 16px; font-weight: 400;" dy="1em" class="messageText" alignment-baseline="middle" dominant-baseline="middle" text-anchor="middle" y="3297" x="405">Client received (msgRecvNtf)</text><line style="stroke-dasharray: 3, 3; fill: none;" marker-start="url(#sequencenumber)" marker-end="url(#arrowhead)" stroke="none" stroke-width="2" class="messageLine1" y2="3330" x2="734" y1="3330" x1="76"/><text class="sequenceNumber" text-anchor="middle" font-size="12px" font-family="sans-serif" y="3334" x="76">28</text><text y="-25" x="406.5">Notifications flow</text></svg>