<svg xmlns="http://www.w3.org/2000/svg" xmlns:xlink="http://www.w3.org/1999/xlink" width="1024" height="1024" viewBox="0 0 1024 1024">
  <defs>
    <clipPath id="clip-path">
      <rect id="Rectangle_2" data-name="Rectangle 2" width="2971" height="843" transform="translate(0 0.292)" fill="#fff"/>
    </clipPath>
    <clipPath id="clip-simpleX">
      <rect width="1024" height="1024"/>
    </clipPath>
  </defs>
  <g id="simpleX" clip-path="url(#clip-simpleX)">
    <g id="logo" transform="translate(-2047 89.708)" clip-path="url(#clip-path)">
      <path id="Path_6" data-name="Path 6" d="M147.9,66.914a198.176,198.176,0,0,1,36.975,3.455,284.4,284.4,0,0,1,34.949,8.885,253.446,253.446,0,0,1,31.15,12.34q14.436,6.911,26.592,13.821L241.1,172.542l-.5-.548q-2.161-2.105-10.138-6.856a202.569,202.569,0,0,0-22.793-11.353,224.542,224.542,0,0,0-29.884-10.365,122.159,122.159,0,0,0-32.417-4.442q-44.573,0-44.573,29.122,0,8.885,4.812,14.808t14.182,10.613a133.233,133.233,0,0,0,23.553,8.636q14.182,3.952,32.923,8.885a437.841,437.841,0,0,1,46.6,15.056q20.767,8.143,35.2,20.236A82.161,82.161,0,0,1,280.355,275.7q7.851,17.275,7.851,41.459,0,29.615-11.4,50.1a94.466,94.466,0,0,1-30.137,33.073A129.137,129.137,0,0,1,203.618,418.6a219.939,219.939,0,0,1-50.145,5.675,287.161,287.161,0,0,1-40.521-2.961,299.792,299.792,0,0,1-40.521-8.639A327.515,327.515,0,0,1,34.19,399.1,215.84,215.84,0,0,1,0,380.839l36.469-70.584.649.688q2.77,2.644,12.52,8.69a199.248,199.248,0,0,0,27.6,13.822,287.382,287.382,0,0,0,36.722,12.338,157.851,157.851,0,0,0,41.027,5.429q44.067,0,44.067-26.16a21.773,21.773,0,0,0-6.585-16.287q-6.585-6.417-18.235-11.6a201.006,201.006,0,0,0-27.6-9.624q-15.955-4.446-34.7-9.874a304.855,304.855,0,0,1-43.054-16.041Q50.651,253,38.748,241.647a72.548,72.548,0,0,1-17.728-26.16Q15.2,200.676,15.2,180.933q0-27.641,10.637-48.865A105.947,105.947,0,0,1,54.7,96.283,126.757,126.757,0,0,1,97,74.318,172.123,172.123,0,0,1,147.9,66.914Zm331.4,2.961v350.45H396.237V69.875Zm218.452,0L790.957,253,884.663,69.875h89.652v350.45H891.247V210.55l-78,152.518H768.671l-78-152.518V420.325H607.6V69.875Zm833.178,0V349.249h174.241v71.076H1447.868V69.875Zm510.939,0v71.077H1876.752V209.07h141.823v65.647H1876.752v74.533h169.683v71.076H1793.684V69.875Zm-795.7,0,5.687.128a106.112,106.112,0,0,1,41.674,10.237,121.073,121.073,0,0,1,36.975,27.148,129.172,129.172,0,0,1,24.313,38.006,110.611,110.611,0,0,1,8.863,42.943,120.122,120.122,0,0,1-8.36,44.423,126.219,126.219,0,0,1-23.3,38.006,109.262,109.262,0,0,1-77.64,36.4l-5.684.123h-72.937V420.325h-83.068V69.875Zm-5.571,71.077h-64.832V236.71h67.873q14.689,0,25.323-12.342t10.638-36.03q0-12.341-3.292-21.225a43.245,43.245,0,0,0-8.863-14.808,33.932,33.932,0,0,0-12.665-8.638A39.4,39.4,0,0,0,1240.607,140.953Z" transform="translate(0 175.261)" fill="#062d56" fill-rule="evenodd"/>
      <path id="Path_7" data-name="Path 7" d="M644.551,487.448,781.926,623.9l70.013-69.545-.026-.022L991.95,415.257,854.575,278.818l.025-.012-68.682-68.227-140.036,139.1-.011-.013L785.908,210.581,648.551,74.126,718.563,4.578,855.92,141.033,995.957,1.935l68.682,68.227L924.6,209.258l137.364,136.45L1202,206.616l68.685,68.227L1130.641,413.932l137.386,136.459-70.013,69.549L1060.632,483.481,920.607,622.575l137.382,136.463-70.013,69.549L850.594,692.12,710.583,831.228,641.9,763,781.916,623.9,644.541,487.458Z" transform="translate(1698.3 5.061)" fill="#02C0FF" fill-rule="evenodd"/>
      <path id="Path_8" data-name="Path 8" d="M657.51,61.677,794.867,198.13,934.9,59.035l68.686,68.227L863.549,266.357l137.375,136.455-70.013,69.549L793.536,335.9,653.518,475l-68.682-68.228,140.022-139.1L587.5,131.225Z" transform="translate(1547.321 154.623)" fill="#062d56" fill-rule="evenodd"/>
    </g>
  </g>
</svg>
