<svg xmlns="http://www.w3.org/2000/svg" height="24" viewBox="0 -960 960 960" width="24"><path d="M182-218q59.315-55.57 134.804-89.785Q392.293-342 479.896-342q87.604 0 163.197 34.215Q718.685-273.57 778-218v-560H182v560Zm300.232-200.5q57.268 0 96.518-39.482Q618-497.465 618-554.732q0-57.268-39.482-96.518-39.483-39.25-96.75-39.25-57.268 0-96.518 39.482Q346-611.535 346-554.268q0 57.268 39.482 96.518 39.483 39.25 96.75 39.25ZM182-124.5q-22.969 0-40.234-17.266Q124.5-159.031 124.5-182v-596q0-22.969 17.266-40.234Q159.031-835.5 182-835.5h596q22.969 0 40.234 17.266Q835.5-800.969 835.5-778v596q0 22.969-17.266 40.234Q800.969-124.5 778-124.5H182Zm52.5-57.5h491v-9.111Q671.5-237.5 609.161-261 546.823-284.5 480-284.5q-67.177 0-129.339 23.5Q288.5-237.5 234.5-191.111V-182Zm247.441-294q-32.733 0-55.587-22.913-22.854-22.913-22.854-55.646 0-32.733 22.913-55.587Q449.326-633 482.059-633q32.733 0 55.587 22.913 22.854 22.913 22.854 55.646 0 32.733-22.913 55.587Q514.674-476 481.941-476ZM480-498.5Z"/></svg>