<svg height="24" viewBox="0 -960 960 960" width="24" fill="#000000" xmlns="http://www.w3.org/2000/svg">
  <path d="M 831.5 -480 L 657 -656.5 C 651.667 -662.167 648.917 -668.833 648.75 -676.5 C 648.583 -684.167 651.333 -690.833 657 -696.5 C 662.667 -702.5 669.333 -705.5 677 -705.5 C 684.667 -705.5 691.5 -702.667 697.5 -697 L 894 -500.5 C 897 -497.167 899.25 -493.917 900.75 -490.75 C 902.25 -487.583 903 -484 903 -480 C 903 -476 902.25 -472.417 900.75 -469.25 C 899.25 -466.083 897 -463 894 -460 L 697.5 -263.5 C 691.5 -257.5 684.667 -254.583 677 -254.75 C 669.333 -254.917 662.667 -257.833 657 -263.5 C 651 -269.5 648.167 -276.25 648.5 -283.75 C 648.833 -291.25 651.667 -297.833 657 -303.5 L 831.5 -480 Z M 128.5 -480 L 303 -303.5 C 308.333 -297.833 311.083 -291.167 311.25 -283.5 C 311.417 -275.833 308.667 -269.167 303 -263.5 C 297.333 -257.5 290.667 -254.5 283 -254.5 C 275.333 -254.5 268.667 -257.5 263 -263.5 L 66.5 -460 C 63.167 -463 60.833 -466.083 59.5 -469.25 C 58.167 -472.417 57.5 -476 57.5 -480 C 57.5 -484 58.167 -487.583 59.5 -490.75 C 60.833 -493.917 63.167 -497.167 66.5 -500.5 L 263 -697 C 268.667 -702.667 275.333 -705.417 283 -705.25 C 290.667 -705.083 297.5 -702.167 303.5 -696.5 C 309.167 -690.5 311.833 -683.75 311.5 -676.25 C 311.167 -668.75 308.333 -662.167 303 -656.5 L 128.5 -480 Z" transform="matrix(0.9999999999999999, 0, 0, 0.9999999999999999, 0, 0)"/>
  <rect x="123" y="-514" width="711.266" height="68" style="stroke: rgb(0, 0, 0);" transform="matrix(0.9999999999999999, 0, 0, 0.9999999999999999, 0, 0)"/>
</svg>