<svg xmlns="http://www.w3.org/2000/svg" height="24" viewBox="0 96 960 960" width="24"><path d="M214.099 793Q125.5 793 65.25 728.425 5 663.85 5 574.179q0-89.088 60.754-152.384Q126.51 358.5 214.07 358.5q36.078 0 69.254 11.63T342.5 407l94.5 90.5-40 40.5-90.5-88q-18.5-18.5-42.516-26.25T214 416q-64.207 0-107.854 46.5Q62.5 509 62.5 574.146q0 65.733 43.247 113.543Q148.994 735.5 213.998 735.5q25.002 0 48.752-8 23.75-8 42.75-25l313.441-295.434Q644.5 382 677.608 370.25q33.108-11.75 67.681-11.75 88.939 0 149.575 63.255Q955.5 485.009 955.5 573.532q0 89.941-60.755 154.705Q833.991 793 745.43 793q-35.078 0-68.754-11.13T618 745.5l-92-91 40-40 88 88q17.5 17.5 41.75 25.25t49.818 7.75q65.179 0 108.805-48Q898 639.5 898 573.341q0-64.745-44.348-111.043Q809.303 416 745.518 416q-24.919 0-48.719 8.75Q673 433.5 655 451L341.559 746.434Q315.5 770.5 282.018 781.75 248.536 793 214.099 793Z"/></svg>