<svg xmlns="http://www.w3.org/2000/svg" height="24" viewBox="0 96 960 960" width="24"><path d="M308.5 774H522q11.675 0 20.088-8.425 8.412-8.426 8.412-20.5 0-12.075-8.412-20.325-8.413-8.25-20.088-8.25H308.5q-12.25 0-20.625 8.463t-8.375 20.212q0 12.325 8.375 20.575T308.5 774Zm0-169.5H652q11.675 0 20.088-8.425 8.412-8.426 8.412-20.5 0-12.075-8.412-20.325Q663.675 547 652 547H308.5q-12.25 0-20.625 8.463t-8.375 20.212q0 12.325 8.375 20.575t20.625 8.25Zm0-169.5H652q11.675 0 20.088-8.425 8.412-8.426 8.412-20.5 0-12.075-8.412-20.325-8.413-8.25-20.088-8.25H308.5q-12.25 0-20.625 8.463t-8.375 20.212q0 12.325 8.375 20.575T308.5 435ZM182 931.5q-22.969 0-40.234-17.266Q124.5 896.969 124.5 874V278q0-22.969 17.266-40.234Q159.031 220.5 182 220.5h596q22.969 0 40.234 17.266Q835.5 255.031 835.5 278v596q0 22.969-17.266 40.234Q800.969 931.5 778 931.5H182Zm0-57.5h596V278H182v596Zm0 0V278v596Z"/></svg>