<svg xmlns="http://www.w3.org/2000/svg" height="24" viewBox="0 -960 960 960" width="24"><path d="M811.5-771.5H760q-11.5 0-20-8.175-8.5-8.176-8.5-20.5 0-12.325 8.125-20.575T760-829h51.5v-51q0-12.25 8.175-20.625 8.176-8.375 20.5-8.375 12.325 0 20.575 8.375T869-880v51h51q12.25 0 20.625 8.425 8.375 8.426 8.375 20.75 0 12.325-8.375 20.325t-20.625 8h-51v51.5q0 11.5-8.425 20-8.426 8.5-20.75 8.5-12.325 0-20.325-8.125t-8-20.375v-51.5ZM480.33-85q-81.704 0-153.629-31.263t-125.563-85Q147.5-255 116.25-326.789 85-398.579 85-480.202q0-81.705 31.363-153.863 31.362-72.159 84.769-125.547Q254.539-813 326.79-844q72.25-31 153.135-31 46.834 0 90.763 10.514Q614.617-853.973 654-835q-3.5 8.5-4.75 17.083-1.25 8.584-1.25 17.486 0 38.431 23.441 68.894 23.441 30.464 61.059 39.037 9.073 37.671 39.525 61.085Q802.477-608 840.275-608h6.475q3.393 0 6.75-.5 10.5 30.5 16 62.433t5.5 65.888q0 81.086-31.013 153.475t-84.5 125.697Q706-147.699 633.977-116.349 561.954-85 480.33-85Zm144.123-448.5q22.947 0 37.997-15.003 15.05-15.004 15.05-37.95 0-22.947-15.003-37.997-15.004-15.05-37.95-15.05-22.947 0-37.997 15.003-15.05 15.004-15.05 37.95 0 22.947 15.003 37.997 15.004 15.05 37.95 15.05Zm-289 0q22.947 0 37.997-15.003 15.05-15.004 15.05-37.95 0-22.947-15.003-37.997-15.004-15.05-37.95-15.05-22.947 0-37.997 15.003-15.05 15.004-15.05 37.95 0 22.947 15.003 37.997 15.004 15.05 37.95 15.05ZM480-264q64.5 0 119.25-34.5t79.75-95H281q26 60.5 80.25 95T480-264Z"/></svg>