<svg xmlns="http://www.w3.org/2000/svg" height="24" viewBox="0 -960 960 960" width="24"><path d="M480.33-85q-81.704 0-153.629-31.263t-125.563-85Q147.5-255 116.25-326.789 85-398.579 85-480.202q0-81.705 31.363-153.863 31.362-72.159 84.769-125.547Q254.539-813 326.79-844q72.25-31 153.135-31 46.834 0 90.763 10.514Q614.617-853.973 654-835q-3.5 8.5-4.75 17.083Q648-809.333 648-800q0 7.897.75 14.949Q649.5-778 652-771q-38-22.5-81.071-34.5t-91.031-12q-140.21 0-238.804 98.25T142.5-480.486q0 140.515 98.736 239.25 98.735 98.736 239.25 98.736 140.514 0 238.764-98.594T817.5-480q0-38.526-8.25-75.013T786-624q10.963 7.759 24.931 11.88Q824.9-608 840-608h6.75q3.393 0 6.75-.5 10.5 30.5 16 62.433t5.5 65.888q0 81.086-31.013 153.475t-84.5 125.697Q706-147.699 633.977-116.349 561.954-85 480.33-85Zm144.123-448.5q22.947 0 37.997-15.003 15.05-15.004 15.05-37.95 0-22.947-15.003-37.997-15.004-15.05-37.95-15.05-22.947 0-37.997 15.003-15.05 15.004-15.05 37.95 0 22.947 15.003 37.997 15.004 15.05 37.95 15.05Zm-289 0q22.947 0 37.997-15.003 15.05-15.004 15.05-37.95 0-22.947-15.003-37.997-15.004-15.05-37.95-15.05-22.947 0-37.997 15.003-15.05 15.004-15.05 37.95 0 22.947 15.003 37.997 15.004 15.05 37.95 15.05ZM480-264q64.5 0 119.25-34.5t79.75-95H281q26 60.5 80.25 95T480-264Zm0-216Zm331.5-291.5H760q-12.25 0-20.375-8.175-8.125-8.176-8.125-20.5 0-12.325 8.125-20.575T760-829h51.5v-51q0-12.25 8.175-20.625 8.176-8.375 20.5-8.375 12.325 0 20.575 8.375T869-880v51h51q12.25 0 20.625 8.425 8.375 8.426 8.375 20.75 0 12.325-8.375 20.325t-20.625 8h-51v51.5q0 12.25-8.425 20.375-8.426 8.125-20.75 8.125-12.325 0-20.325-8.125t-8-20.375v-51.5Z"/></svg>