<svg xmlns="http://www.w3.org/2000/svg" height="24" viewBox="0 96 960 960" width="24"><path d="M181.5 931q-22.969 0-40.234-17.266Q124 896.469 124 873.5V278q0-22.969 17.266-40.234Q158.531 220.5 181.5 220.5H561q12.25 0 20.625 8.463T590 249.175q0 12.325-8.375 20.575T561 278H181.5v595.5H777V495q0-12.25 8.425-20.625 8.426-8.375 20.5-8.375 12.075 0 20.325 8.375T834.5 495v378.5q0 22.969-17.266 40.234Q799.969 931 777 931H181.5Zm546.325-493.5q-12.325 0-20.575-8.375T699 408.5V357h-51.5q-12.25 0-20.625-8.425-8.375-8.426-8.375-20.5 0-12.075 8.375-20.325t20.625-8.25H699v-52q0-11.675 8.425-20.088 8.426-8.412 20.5-8.412 12.075 0 20.325 8.412 8.25 8.413 8.25 20.088v52h52q11.675 0 20.088 8.463Q837 316.426 837 328.175q0 12.325-8.412 20.575Q820.175 357 808.5 357h-52v51.5q0 12.25-8.463 20.625t-20.212 8.375ZM273 772.5h413.175q9.825 0 13.825-7.75T698 749L585.578 599.603q-4.703-6.103-11.463-6.103-6.759 0-11.615 6L448 749.5l-81.462-106.388q-4.692-5.612-11.5-5.612-6.807 0-11.719 5.584L261.574 749.02q-5.074 7.98-.949 15.73T273 772.5ZM181.5 495v378.5V278v217Z"/></svg>