<svg xmlns="http://www.w3.org/2000/svg" height="24" viewBox="0 96 960 960" width="24"><path d="M224.89 800.5Q288 761 348.25 741T480 721q71.5 0 132 20t124.5 59.5Q781 746 799.25 691.351q18.25-54.648 18.25-115.25 0-144.101-96.75-240.851T480 238.5q-144 0-240.75 96.75T142.5 576.101q0 60.602 18.75 115.25Q180 746 224.89 800.5ZM479.869 605q-57.369 0-96.619-39.381-39.25-39.38-39.25-96.75 0-57.369 39.381-96.619 39.38-39.25 96.75-39.25 57.369 0 96.619 39.381 39.25 39.38 39.25 96.75 0 57.369-39.381 96.619-39.38 39.25-96.75 39.25Zm-.274 366q-81.553 0-154.09-31.263-72.538-31.263-125.772-85Q146.5 801 115.75 729.136 85 657.272 85 575.564q0-81.789 31.263-153.789 31.263-71.999 85-125.387Q255 243 326.864 212q71.864-31 153.572-31 81.789 0 153.795 31.132 72.005 31.131 125.387 84.5Q813 350 844 422.023q31 72.023 31 153.647 0 81.705-31.013 153.629-31.013 71.925-84.5 125.563Q706 908.5 633.827 939.75 561.655 971 479.595 971Z"/></svg>