<svg xmlns="http://www.w3.org/2000/svg" height="24" viewBox="0 96 960 960" width="24"><path d="M281 773.5q-84 0-140.25-56.534-56.25-56.533-56.25-140Q84.5 493.5 140.75 437 197 380.5 281 380.5h139q12.25 0 20.625 8.463T449 409.175q0 12.325-8.375 20.575T420 438H281q-60 0-99.5 39.5T142 577q0 60 39.5 99.5T281 716h139q12.25 0 20.625 8.463T449 744.675q0 12.325-8.375 20.575T420 773.5H281Zm73.5-168q-12.25 0-20.375-8.535T326 576.575q0-11.856 8.125-20.216Q342.25 548 354.5 548h248q12.25 0 20.625 8.463t8.375 20.212q0 12.325-8.375 20.575T602.5 605.5h-248Zm520.5-29h-57.5q0-60-39.792-99.5-39.791-39.5-99.208-39.5H539q-12.25 0-20.375-8.535t-8.125-20.39q0-11.856 8.125-20.216Q526.75 380 539 380h139.5q83.453 0 139.976 56.524Q875 493.047 875 576.5ZM726.825 893q-12.325 0-20.325-8.375t-8-20.625v-90H608q-12.25 0-20.375-8.535t-8.125-20.39q0-11.856 8.125-20.216Q595.75 716.5 608 716.5h90.5V626q0-11.675 8.175-20.088 8.176-8.412 20.5-8.412 12.325 0 20.575 8.412Q756 614.325 756 626v90.5h90q12.25 0 20.625 8.463T875 745.175q0 12.325-8.375 20.575T846 774h-90v90q0 12.25-8.425 20.625-8.426 8.375-20.75 8.375Z"/></svg>