<svg xmlns="http://www.w3.org/2000/svg" height="24" viewBox="0 -960 960 960" width="24"><path d="M460.058-80.5q-90.558 0-154.808-62.418Q241-205.336 241-295.261v-431.91Q241-791 286.147-835.5 331.294-880 395.25-880q64.75 0 109.5 44.75t44.75 109.115v395.221q0 37.494-25.898 63.954t-63.75 26.46q-37.852 0-63.602-28.21T370.5-336v-374q0-7.5 5.75-13.25t13.5-5.75q7.75 0 13.5 5.75T409-710v377.069q0 22.431 14.75 38.181Q438.5-279 460-279t36.25-15.25Q511-309.5 511-330.961v-395.936q0-48.103-33.796-81.353-33.796-33.25-81.75-33.25T313.5-808.376q-34 33.123-34 81.303v433.791q0 73.282 53.312 123.782t127.25 50.5Q535-119 587.75-170.294q52.75-51.293 52.75-125.344V-710q0-7.5 5.75-13.25t13.5-5.75q7.75 0 13.5 5.75T679-710v413.5q0 90.164-64.192 153.082Q550.615-80.5 460.058-80.5Z"/></svg>