<svg xmlns="http://www.w3.org/2000/svg" height="24" viewBox="0 96 960 960" width="24"><path d="M428 706.25q9 8.75 20.75 8.75t20.718-8.937L559.25 616.5l90.782 90.563Q659 716 670.25 716t20.25-8.75q9-8.75 9-20.75t-8.937-20.937L600 576l89.563-90.063Q698.5 477.5 698.5 466q0-11.5-9-20.25T668.75 437q-11.75 0-20.687 8.437L559.5 535.5l-91.063-91.063Q459.5 436 448.25 436.5 437 437 428 445t-9 20.25q0 12.25 8.937 20.687L519 576l-91 89.563q-8 8.937-8 20.904 0 11.966 8 19.783ZM362.19 852q-22.19 0-40.31-11.5Q303.761 829 291.5 811L148.135 609.333Q137 595.5 137 576.634T148 542l143.5-201q12.333-18 30.386-29.5Q339.939 300 362 300h416q23.719 0 40.609 16.891Q835.5 333.781 835.5 357.5v437q0 23.719-16.891 40.609Q801.719 852 778 852H362.19ZM197 576l152.952 218.5H778v-437H350L197 576Zm581 0V357.5v437V576Z"/></svg>