<svg width="1240" height="1240" xmlns="http://www.w3.org/2000/svg">

 <g>
  <g transform="translate(164, 1076) scale(0.95)">
   <path d="M129-560q0 63 21.5 121.25T213-333q7.5 8 8.25 18.75T214.5-296q-8 8-17.5 6t-17-10q-48-53.5-73.5-120.75T81-560q0-72 25.5-139.25T180-820.5q7.5-7.5 17-9t17.25 6.25q7.75 7.75 7 18T213-787.5q-41 48-62.5 106.25T129-560Zm143.75 71.75q11.75 34.75 34.75 63.75 6.5 8 7 18t-7.25 17.75q-7.75 7.75-17.5 7.25T273.5-390q-29-36-44.75-79.75T213-560q0-46.5 15.75-90.25T273.5-730q6.5-8 16.25-9t17.5 6.75q7.75 7.75 7.25 17.75t-7 17.5q-23 29-34.75 64.5T261-560q0 37 11.75 71.75ZM451.5-150v-325q-28-8.5-44.5-32.25T390.5-560q0-37.5 26-63.75T480-650q37.5 0 63.75 26.25T570-560q0 29-16.75 52.75T509-475v325q0 12.5-8.25 20.5t-20.75 8q-12.5 0-20.5-8t-8-20.5Zm235.75-481.75Q675.5-666.5 653-696q-7-7.5-7.5-17.5t7.25-17.75q7.75-7.75 17.5-7.25t16.25 8.5q29 36 44.75 79.75T747-560q0 46.5-15.75 90.25T686.5-390q-6.5 8-15.75 8.5t-17-7.25Q646-396.5 646-406.5t7-18q22.5-29 34.25-63.75T699-560q0-37-11.75-71.75ZM831-560q0-63-21.5-121.25T747-787.5q-7.5-7.5-8.25-18.25t7-18.5Q753.5-832 763-830t17.5 9.5q47.5 54 73 121.25T879-560q0 72-25.5 139.25T780.5-300q-8 8-17.5 9.5t-17.25-6.25q-7.75-7.75-7-18T747-333q41-47.5 62.5-105.75T831-560Z"/>
  </g>
 </g>
</svg>
