<svg xmlns="http://www.w3.org/2000/svg" height="22" viewBox="0 -960 960 960" width="22"><path d="M483.82-81.5q-83.12 0-156.43-31.82-73.32-31.81-127.85-86.25Q145-254 113.25-327.25 81.5-400.5 81.5-484q0-131.24 77-236.62t202.35-146.46q16.05-4.92 29.85 4.83t11.8 25.75q-6.5 88.5 24 170.4t94 145.35Q583.5-458 665.75-427t170.75 24q15-1.5 24.75 12.25t5.25 29.25q-40 125.5-145.35 202.75Q615.81-81.5 483.82-81.5ZM484-139q100.95 0 183.22-57.5Q749.5-254 800-343q-90.29-7.95-173.55-41.22Q543.2-417.5 479.5-481q-63.96-62.86-96.73-145.68Q350-709.5 342.5-798.5q-89 48.5-146.25 131.03Q139-584.95 139-484q0 144.38 100.31 244.69T484-139Zm-5-342Z"/></svg>