<svg xmlns="http://www.w3.org/2000/svg" height="22" viewBox="0 -960 960 960" width="22"><path d="M504.5-45q-92 0-169.75-46T210-216.5l-147.5-247 19-19.5q15-15 36-16.5T156-489l129 93v-410.5q0-10.925 8.154-19.713 8.153-8.787 20.75-8.787 11.096 0 19.846 8.787 8.75 8.788 8.75 19.713v522l-185-134L258-250q37.5 68.5 103.318 108 65.817 39.5 143.182 39.5 112.792 0 192.896-78.104Q777.5-258.708 777.5-371v-395.688q0-10.812 8.154-19.562 8.153-8.75 20.75-8.75 11.096 0 19.846 8.787Q835-777.425 835-766.5V-371q0 136-96.832 231Q641.335-45 504.5-45Zm-55-446.5v-395q0-10.925 8.654-19.713 8.653-8.787 20.25-8.787 12.096 0 20.346 8.787Q507-897.425 507-886.5v395h-57.5Zm164.5 0v-355q0-10.925 8.154-19.713 8.153-8.787 20.75-8.787 11.096 0 19.846 8.787 8.75 8.788 8.75 19.713v355H614ZM468-297Z"/></svg>