<svg xmlns="http://www.w3.org/2000/svg" height="22" viewBox="0 -960 960 960" width="22"><path fill-rule="evenodd" d="M480-85A395 395 0 1 0 479.99-85Z M234.3-536q0 44.1 15.05 84.88T293.1-377.1q5.25 5.6 5.77 13.12T294.15-351.2q-5.6 5.6-12.25 4.2t-11.9-7q-33.6-37.45-51.45-84.52T200.7-536q0-50.4 17.85-97.47T270-718.35q5.25-5.25 11.9-6.3t12.07 4.38q5.42 5.42 4.9 12.6T293.1-695.25q-28.7 33.6-43.75 74.38T234.3-536Zm100.62 50.22q8.22 24.32 24.32 44.62 4.55 5.6 4.9 12.6t-5.07 12.42q-5.42 5.42-12.25 5.07T335.45-417q-20.3-25.2-31.32-55.82T293.1-536q0-32.55 11.02-63.17T335.45-655q4.55-5.6 11.38-6.3t12.25 4.72q5.42 5.42 5.07 12.42t-4.9 12.25q-16.1 20.3-24.32 45.15T326.7-536q0 25.9 8.22 50.22ZM460.05-249v-227.5q-19.6-5.95-31.15-22.57T417.35-536q0-26.25 18.2-44.62T480-599q26.25 0 44.62 18.38T543-536q0 20.3-11.72 36.92T500.3-476.5v227.5q0 8.75-5.77 14.35t-14.52 5.6q-8.75 0-14.35-5.6t-5.6-14.35Zm165.02-337.22Q616.85-610.55 601.1-631.2q-4.9-5.25-5.25-12.25t5.07-12.42q5.42-5.42 12.25-5.07t11.38 5.95q20.3 25.2 31.32 55.82T666.9-536q0 32.55-11.02 63.17T624.55-417q-4.55 5.6-11.02 5.95t-11.9-5.07Q596.2-421.55 596.2-428.55t4.9-12.6q15.75-20.3 23.97-44.62T633.3-536q0-25.9-8.22-50.22ZM725.7-536q0-44.1-15.05-84.88T666.9-695.25q-5.25-5.25-5.77-12.77t4.9-12.95Q671.45-726.4 678.1-725t12.25 6.65q33.25 37.8 51.1 84.88T759.3-536q0 50.4-17.85 97.47T690.35-354q-5.6 5.6-12.25 6.65t-12.07-4.38q-5.42-5.42-4.9-12.6T666.9-377.1q28.7-33.25 43.75-74.02T725.7-536Z"/></svg>
