<svg xmlns="http://www.w3.org/2000/svg" height="24" viewBox="0 96 960 960" width="24"><path d="M251.5 891.5q-84.552 0-145.526-60.935Q45 769.63 45 684.253 45 608 94.25 549.5q49.25-58.5 126.25-70 18.824-95.893 92.113-156.947Q385.901 261.5 482 261.5q111.657 0 186.829 80.414Q744 422.329 744 534v26q71.5-3 121.25 44.75T915 725.392q0 67.795-49.125 116.951Q816.75 891.5 749.5 891.5H509q-22.969 0-40.234-17.266Q451.5 856.969 451.5 834V575.5l-63.5 63q-9 9-20.25 8.5T348 637.5q-9-8.5-9-20.25t9-20.75l111.973-112.473q4.607-4.527 9.6-6.777 4.994-2.25 10.7-2.25 5.707 0 10.467 2.25 4.76 2.25 9.285 6.775l113.43 113.43Q622 606 622 617.5q0 11.5-8.5 20-9.111 9-20.806 9-11.694 0-20.194-9l-63.5-62V834h240.5q43.87 0 75.935-31.645Q857.5 770.71 857.5 725.75q0-44.75-31.819-76.42-31.819-31.671-76.556-31.671H686.5V534.5q0-88.378-60.036-151.939Q566.428 319 478.087 319q-88.342 0-148.892 63.561-60.549 63.561-60.549 151.939h-19.018q-61.628 0-104.378 43T102.5 684q0 61.5 43.679 105.75Q189.857 834 251.5 834H365q12.25 0 20.625 8.463T394 862.675q0 12.325-8.375 20.575T365 891.5H251.5Zm228.5-287Z"/></svg>