<?xml version="1.0" encoding="UTF-8" standalone="no"?>
<svg
   height="22"
   viewBox="0 -960 960 960"
   width="22"
   version="1.1"
   id="svg864"
   sodipodi:docname="ic_bolt_off.svg"
   inkscape:version="1.2.2 (b0a8486541, 2022-12-01)"
   xmlns:inkscape="http://www.inkscape.org/namespaces/inkscape"
   xmlns:sodipodi="http://sodipodi.sourceforge.net/DTD/sodipodi-0.dtd"
   xmlns="http://www.w3.org/2000/svg"
   xmlns:svg="http://www.w3.org/2000/svg">
  <defs
     id="defs868">
    <clipPath
       clipPathUnits="userSpaceOnUse"
       id="clipPath1042">
      <g
         id="g1046">
        <g
           inkscape:label="Clip"
           id="use1044"
           clip-path="url(#clipPath1042)">
          <g
             id="g1054" />
        </g>
      </g>
    </clipPath>
  </defs>
  <sodipodi:namedview
     id="namedview866"
     pagecolor="#505050"
     bordercolor="#ffffff"
     borderopacity="1"
     inkscape:showpageshadow="0"
     inkscape:pageopacity="0"
     inkscape:pagecheckerboard="1"
     inkscape:deskcolor="#505050"
     showgrid="false"
     inkscape:zoom="5.0911688"
     inkscape:cx="-25.239784"
     inkscape:cy="-0.49104638"
     inkscape:window-width="1440"
     inkscape:window-height="856"
     inkscape:window-x="0"
     inkscape:window-y="0"
     inkscape:window-maximized="1"
     inkscape:current-layer="svg864" />
  <path
     id="path1067"
     d="M 367.38281 -591.32812 L 326.67969 -632.65625 L 279.53125 -564.57031 L 166.67969 -401.5625 C 159.67969 -391.89551 158.77538 -382.00292 163.98438 -371.83594 C 169.19336 -361.66896 177.59871 -356.5625 189.17969 -356.5625 L 333.67188 -356.5625 L 314.6875 -222.8125 L 295.70312 -89.0625 C 294.37014 -80.895816 295.62013 -73.294223 299.45312 -66.210938 C 303.28612 -59.127653 308.83888 -53.987005 316.17188 -50.820312 C 323.50486 -47.320319 331.02496 -46.494079 338.71094 -48.359375 C 346.39692 -50.224071 353.04388 -54.490464 358.67188 -61.09375 L 482.53906 -209.72656 L 601.99219 -353.125 L 561.75781 -393.98438 L 552.69531 -383.08594 L 458.20312 -269.57031 L 363.67188 -156.09375 L 381.67969 -285.07812 L 399.6875 -414.0625 L 244.6875 -414.0625 L 330.50781 -538.08594 L 367.38281 -591.32812 z " />
  <path
     id="path1128"
     d="M 523.94531 -904.84375 C 516.11233 -902.34376 509.86231 -897.58593 505.19531 -890.58594 L 392.34375 -727.57812 L 371.91406 -698.04688 L 413.04688 -657.26562 L 416.36719 -662.07031 L 502.1875 -786.09375 L 483.94531 -641.32812 L 477.85156 -593.00781 L 575.15625 -496.5625 L 647.1875 -496.5625 L 614.60938 -457.46094 L 655.27344 -417.10938 L 730.19531 -507.07031 C 737.86229 -516.73729 739.14756 -526.97952 734.10156 -537.8125 C 729.05558 -548.64547 720.4441 -554.0625 708.20312 -554.0625 L 530.70312 -554.0625 L 550.42969 -709.84375 L 570.19531 -865.58594 C 571.19531 -873.35892 569.42186 -880.88407 564.92188 -888.16406 C 560.42188 -895.44405 554.52048 -900.7295 547.1875 -904.0625 C 539.52052 -907.06249 531.77829 -907.34375 523.94531 -904.84375 z " />
  <path
     d="m 98.757614,-815.50208 c -6,-5.6667 -9,-12.4944 -9,-20.483 0,-7.9894 3,-14.995 9,-21.017 5.666666,-5.6667 12.499996,-8.5 20.499996,-8.5 8,0 14.87033,2.8703 20.611,8.611 l 703.77795,703.77797 c 5.7407,5.74067 8.611,12.52767 8.611,20.361 0,7.83333 -2.8333,14.58333 -8.5,20.25 -5.6666,6 -12.58329,8.91667 -20.74999,8.75 -8.1666,-0.16666 -15.0646,-3.06466 -20.694,-8.694 C 515.62153,-363.72015 368.7575,-545.07432 98.757614,-815.50208 Z"
     id="path114"
     sodipodi:nodetypes="cscsssscscc" />
</svg>
