<svg xmlns="http://www.w3.org/2000/svg" height="24" viewBox="0 96 960 960" width="24"><path d="M790.886 931Q671.5 931 552.5 871.75t-214-154.25q-95-95-154.5-213.965t-59.5-238.647q0-18.888 12.714-31.638Q149.929 220.5 169 220.5h136.5q13.611 0 24.056 9.25Q340 239 343 255l27 124q2 13.068-.75 24.534t-10.335 19.05L260.5 522.5q56 93 124.75 161.25T542.5 801l95.544-98q9.456-10.5 21.206-14.75T683 687l117.362 25.452q15.45 3.423 25.294 15.236Q835.5 739.5 835.5 755.5v131q0 19.071-12.747 31.786Q810.006 931 790.886 931ZM231.5 470l81-82L289 278H182.5q-.5 38.5 11.75 85.25T231.5 470ZM778 873.5v-107L676 745l-79.5 83.5q40 19 88.166 31t93.334 14Zm-182-45ZM231.5 470Z"/></svg>