<svg xmlns="http://www.w3.org/2000/svg" height="24" viewBox="0 96 960 960" width="24"><path d="M192 932q-13.15 0-21.075-7.888Q163 916.225 163 903.5v-50h-1q-16.5 0-27.5-11.25t-11-27.696V705.5q0-12.725 7.887-20.612Q139.275 677 152 677h51V367q0-63.175 46.376-105.588Q295.752 219 360.876 219 423 219 466 262.075q43 43.075 43 104.921V784q0 37.912 26.104 64.206 26.104 26.294 64.25 26.294 41.146 0 70.896-25.647T700 784V474.5h-51q-12.725 0-20.612-7.888Q620.5 458.725 620.5 446V337.246q0-17.246 11-28.246t28-11h.5v-50q0-12.725 7.888-20.612 7.887-7.888 20.612-7.888h80q12.575 0 20.787 7.888Q797.5 235.275 797.5 248v50h.5q16.5 0 27.75 11T837 337v109q0 12.725-8.069 20.612-8.069 7.888-20.431 7.888h-51V784q0 63.175-46.606 105.588Q664.288 932 599.164 932q-62.124 0-104.894-43.075T451.5 784.004V367q0-37.912-26.208-64.206-26.208-26.294-64.5-26.294-41.292 0-70.792 25.647T260.5 367v310h51q12.363 0 20.431 7.888Q340 692.775 340 705.5v108.808q0 16.692-11.138 27.942-11.137 11.25-27.849 11.25h-.513v50q0 12.725-8.213 20.612Q284.075 932 271.5 932H192Z"/></svg>