<svg xmlns="http://www.w3.org/2000/svg" height="24" viewBox="0 96 960 960" width="24"><path d="M184 968q-22.969 0-40.234-17.266Q126.5 933.469 126.5 910.5v-567q0-12.25 8.425-20.625 8.426-8.375 20.5-8.375 12.075 0 20.325 8.375T184 343.5v567h439q11.675 0 20.088 8.463 8.412 8.463 8.412 20.212 0 12.325-8.412 20.575Q634.675 968 623 968H184Zm115-115q-22.969 0-40.234-17.266Q241.5 818.469 241.5 795.5v-556q0-22.969 17.266-40.234Q276.031 182 299 182h437.706q22.232 0 39.763 17.266Q794 216.531 794 239.5v556q0 22.969-17.531 40.234Q758.938 853 736.706 853H299Zm0-57.5h437.5v-556H299v556Zm0 0v-556 556Z"/></svg>