<svg xmlns="http://www.w3.org/2000/svg" height="24" viewBox="0 -960 960 960" width="24"><path d="M74-126q-12.25 0-20.625-8.425Q45-142.851 45-154.925 45-167 53.375-175.25T74-183.5h812.5q11.675 0 20.088 8.463Q915-166.574 915-154.825q0 12.325-8.412 20.575Q898.175-126 886.5-126H74Zm68.5-117q-22.969 0-40.234-17.266Q85-277.531 85-300.5V-777q0-22.969 17.266-40.234Q119.531-834.5 142.5-834.5h675q22.969 0 40.234 17.266Q875-799.969 875-777v476.5q0 22.969-17.266 40.234Q840.469-243 817.5-243h-675Zm0-57.5h675V-777h-675v476.5Zm0 0V-777v476.5Z"/></svg>