<svg xmlns="http://www.w3.org/2000/svg" height="24" viewBox="0 96 960 960" width="24"><path d="M272 654.5h252q10.936 0 19.218-8.36t8.282-20.719q0-11.921-8.412-20.171Q534.675 597 523 597H271q-11.5 0-19.75 8.457-8.25 8.456-8.25 20.218 0 12.325 8.375 20.575T272 654.5Zm0-129h417.5q10.936 0 19.218-8.36T717 496.421q0-11.921-8.412-20.171Q700.175 468 688.5 468H271q-11.5 0-19.75 8.457-8.25 8.456-8.25 20.218 0 12.325 8.375 20.575T272 525.5Zm0-129h417.5q10.936 0 19.218-8.36T717 367.421q0-11.921-8.412-20.171Q700.175 339 688.5 339H271q-11.5 0-19.75 8.457-8.25 8.456-8.25 20.218 0 12.325 8.375 20.575T272 396.5ZM85 900V238q0-21.969 17.266-39.734Q119.531 180.5 142.5 180.5h675q21.969 0 39.734 17.766Q875 216.031 875 238v516q0 21.969-17.766 39.734Q839.469 811.5 817.5 811.5H242.206L133.5 920q-13.5 13.5-31 6.172T85 900Zm57.5-70.5L218 754h599.5V238h-675v591.5Zm0-591.5v591.5V238Z"/></svg>