<svg xmlns="http://www.w3.org/2000/svg" height="24" viewBox="0 96 960 960" width="24"><path d="m480 616 129 129q8.5 8.5 20 8.5t20-8.5q8.5-8.5 8.5-20t-8.5-20L520 576l129-129q8.5-8.5 8.5-20t-8.5-20q-8.5-8.5-20-8.5t-20 8.5L480 536 351 407q-8.5-8.5-20-8.5t-20 8.5q-8.5 8.5-8.5 20t8.5 20l129 129-129 129q-8.5 8.5-8.5 20t8.5 20q8.5 8.5 20 8.5t20-8.5l129-129Zm.064 355q-80.971 0-153.129-31.263-72.159-31.263-125.797-85Q147.5 801 116.25 728.977 85 656.953 85 576.064q0-81.971 31.263-154.129 31.263-72.159 85-125.547Q255 243 327.023 212q72.023-31 152.913-31 81.971 0 154.135 31.132 72.165 31.131 125.547 84.5Q813 350 844 422.023q31 72.023 31 153.913 0 80.97-31.013 153.129-31.013 72.159-84.5 125.797Q706 908.5 633.977 939.75 561.954 971 480.064 971Z"/></svg>