<svg xmlns="http://www.w3.org/2000/svg" height="24" viewBox="0 96 960 960" width="24"><path d="M480 418q125 0 238.75 50.25T914 613.5q8 9.5 8.25 21t-8.365 20.059L821 748q-8 8-22.5 8.75t-23.094-5.843L662.5 666.5q-5.75-4.5-8.625-10.25T651 643.5V504.407q-41.839-15.957-85.419-22.432Q522 475.5 480.744 475.5q-42.256 0-85.75 6.5T309.5 504.5v139q0 6.385-2.75 12.442Q304 662 298 666.5l-113.453 84.454Q173 759.5 161 758.5q-12-1-21.5-10.5l-93.442-93.441Q37.5 646 37.75 634.5 38 623 46 613.5q81.5-95 195.25-145.25T480 418ZM247 528.5q-39.5 19-74.5 46t-67 57l58 60L247 630V528.5Zm461.5-4V624l87.5 66.5 59-59q-32-33.5-68.75-59t-77.75-48Zm-461.5 4Zm461.5-4Z"/></svg>