<svg xmlns="http://www.w3.org/2000/svg" height="24" viewBox="0 96 960 960" width="24"><path d="M480.029 793Q551 793 602.75 741.941t51.75-122.5Q654.5 548 602.721 496q-51.78-52-122.75-52Q408 444 356.75 496.059t-51.25 123.5Q305.5 691 356.779 742q51.28 51 123.25 51ZM435.5 578.5l31-71.418Q470 498.5 480 499t13.5 9.082l30.159 70.418 65.923 27.581q9.418 4.161 9.418 13.79t-9.418 13.048L523.5 660l-30 69.918Q490 739 480 739.5t-13.5-8.582L435.5 660l-65.582-27.081Q360 629.5 360 619.871t9.918-13.79L435.5 578.5Zm-293 353q-22.969 0-40.234-17.266Q85 896.969 85 874V364.5q0-21.969 17.266-39.734Q119.531 307 142.5 307h147l54.91-66.5q7.59-10 19.106-15 11.515-5 24.984-5h183q13.469 0 24.984 5 11.516 5 19.516 15l54.5 66.5h147q21.969 0 39.734 17.766Q875 342.531 875 364.5V874q0 22.969-17.766 40.234Q839.469 931.5 817.5 931.5h-675Zm675-57.5V364.5h-675V874h675ZM480 618.5Z"/></svg>