<svg xmlns="http://www.w3.org/2000/svg" height="24" viewBox="0 96 960 960" width="24"><path d="M182.5 931q-24.969 0-41.234-16.031Q125 898.938 125 873.5V278q0-25.438 16.031-41.469Q157.062 220.5 182.5 220.5h203.062q5.938-34.5 32.589-57 26.652-22.5 62.222-22.5 34.627 0 61.377 22.5t33.25 57h203.5q24.969 0 41.234 16.031Q836 252.562 836 278v595.5q0 25.438-16.266 41.469Q803.469 931 778.5 931h-596Zm0-57.5h596V278H721v57.5q0 12.25-8.375 20.375T692 364H268.5q-12.25 0-20.375-8.125T240 335.5V278h-57.5v595.5ZM480.25 276q16.25 0 27.5-11.25t11.25-27.5q0-16.25-11.288-27.5-11.287-11.25-27.212-11.25-16.5 0-27.75 11.287Q441.5 221.075 441.5 237q0 16.5 11.25 27.75t27.5 11.25Z"/></svg>