<svg xmlns="http://www.w3.org/2000/svg" height="24" viewBox="0 96 960 960" width="24"><path d="M288.471 343q-20.638 0-34.804 14.154-14.167 14.155-14.167 34.375 0 20.638 14.309 34.804 14.309 14.167 34.75 14.167Q309 440.5 323 426.191q14-14.309 14-34.75Q337 371 322.846 357q-14.155-14-34.375-14Zm0 408.5q-20.638 0-34.804 14.309-14.167 14.309-14.167 34.75Q239.5 821 253.809 835q14.309 14 34.75 14Q309 849 323 834.846q14-14.155 14-34.375 0-20.638-14.154-34.804-14.155-14.167-34.375-14.167ZM158 223h643q15.5 0 25 9.141 9.5 9.14 9.5 24.922V521q0 17.638-9.5 29.069-9.5 11.431-25 11.431H158q-14.5 0-24-11.492t-9.5-29.22V257.116q0-15.766 9.5-24.941Q143.5 223 158 223Zm24 57.5V504h596V280.5H182Zm-24 350h639q14.5 0 26.5 12.5t12 27.87V929.5q0 20.213-12 30.356Q811.5 970 797 970H163q-15.5 0-27-10.216-11.5-10.215-11.5-30.534V671.027q0-15.527 9.5-28.027 9.5-12.5 24-12.5Zm24 57.5v224.5h596V688H182Zm0-407.5V504 280.5Zm0 407.5v224.5V688Z"/></svg>