<svg xmlns="http://www.w3.org/2000/svg" height="22" viewBox="0 -960 960 960" width="22"><path d="M835-207.5 777.5-265v-501.5q0-11.675 8.425-20.088 8.426-8.412 20.5-8.412 12.075 0 20.325 8.412Q835-778.175 835-766.5v559ZM342.5-699 285-756.5v-50q0-11.675 8.425-20.088 8.426-8.412 20.5-8.412 12.075 0 20.325 8.412 8.25 8.413 8.25 20.088V-699ZM507-535.5 449.5-592v-294.5q0-11.675 8.425-20.088 8.426-8.412 20.5-8.412 12.075 0 20.325 8.412Q507-898.175 507-886.5v351ZM671.5-483H614v-363.668q0-11.582 8.425-19.957 8.426-8.375 20.5-8.375 12.075 0 20.325 8.351t8.25 19.935V-483ZM751-126.5 342.5-535v250.5L165-415l199 291q7 11 17.839 16.75 10.84 5.75 24.161 5.75h280.5q17.897 0 34.948-6.25Q738.5-114 751-126.5ZM406-44q-27.049 0-51.274-12.5Q330.5-69 316-91.5L59.5-468l19-15.5q17-14.5 39-18.25t43.573 12.938L285-394.5v-198l-253-253L73.5-887 873-87l-41 41-41-40.5q-20 19.5-47.17 31T686.5-44H406Zm140.5-287.5ZM560-483Z"/></svg>