<svg xmlns="http://www.w3.org/2000/svg" height="24" viewBox="0 96 960 960" width="24"><path d="M480.175 773q12.325 0 20.575-8.125T509 744.5V569l54 54q4.343 3.773 9.411 6.386Q577.478 632 583.269 632t10.761-2.5q4.97-2.5 9.47-6.5 8.5-9 8.5-20.25t-8.357-20.107L500 479q-8.61-8-20.091-8-11.48 0-19.909 8L356.904 582.548Q348 591.5 348 602.75q0 11.25 8.75 20.25t20.25 9q11.5 0 20.5-9l54-54v175.5q0 12.25 8.175 20.375 8.176 8.125 20.5 8.125ZM143.5 892q-22.969 0-40.234-17.766Q86 856.469 86 834.5V320q0-21.969 17.266-39.734Q120.531 262.5 143.5 262.5h256q11.943 0 22.766 4.739 10.823 4.739 18.727 12.754L481 320h337.5q21.969 0 39.734 17.766Q876 355.531 876 377.5v457q0 21.969-17.766 39.734Q840.469 892 818.5 892h-675Zm0-572v514.5h675v-457H457L399.5 320h-256Zm0 0v514.5V320Z"/></svg>