<?xml version="1.0" encoding="UTF-8" standalone="no" ?>
<!DOCTYPE svg PUBLIC "-//W3C//DTD SVG 1.1//EN" "http://www.w3.org/Graphics/SVG/1.1/DTD/svg11.dtd">
<svg xmlns="http://www.w3.org/2000/svg" xmlns:xlink="http://www.w3.org/1999/xlink" version="1.1" width="22" height="22" viewBox="0 0 48 48" xml:space="preserve">
<desc>Created with Fabric.js 5.3.0</desc>
<defs>
</defs>
<g transform="matrix(0.05 0 0 0.05 16.9226377203 24)" id="cyIAcaUiI3wHfSH5bhc9b"  >
<path style="stroke: none; stroke-width: 1; stroke-dasharray: none; stroke-linecap: butt; stroke-dashoffset: 0; stroke-linejoin: miter; stroke-miterlimit: 4; fill: rgb(0,0,0); fill-rule: nonzero; opacity: 1;" vector-effect="non-scaling-stroke"  transform=" translate(-0.0000029117, 0)" d="M -121.11468 211.5 L -302.11468 31 C -307.78135000000003 25.33333 -310.44801 18.5 -310.11468 10.5 C -309.78135000000003 2.5 -306.78135000000003 -4.5 -301.11468 -10.5 C -295.44801 -16.16667 -288.61468 -19 -280.61468 -19 C -272.61468 -19 -265.61468 -16.16667 -259.61468 -10.5 L -99.51660000000001 151.09808 C -99.51660000000001 151.09808 -59.52603000000001 109.45121 -38.76350000000001 89.33764000000001 C -17.203620000000008 111.33126000000001 -17.21119000000001 110.30775 1.5472499999999911 129.00625000000002 C -20.44541000000001 150.10187000000002 -59.61468000000001 190.50000000000003 -59.61468000000001 190.50000000000003 L -80.61468 212.00000000000003 C -86.61468 217.66667000000004 -93.44801000000001 220.50000000000003 -101.11468 220.50000000000003 C -108.78135 220.50000000000003 -115.44801000000001 217.50000000000003 -121.11468 211.50000000000003 z M 121.98107 7.30617 L 81.94011 -31.93575 L 260.38532 -212 C 266.38532 -217.66667 273.38532 -220.5 281.38532 -220.5 C 289.38532 -220.5 296.21864999999997 -217.5 301.88532 -211.5 C 307.55199 -205.83333 310.30199 -199 310.13532 -191 C 309.96864999999997 -183 307.21864999999997 -176.16667 301.88532 -170.5 z" stroke-linecap="round" />
</g>
<g transform="matrix(0.05 0 0 0.05 31.1326746345 23.9932210404)" id="jtaF79RV_gXXrwaj4xd1d"  >
<path style="stroke: none; stroke-width: 1; stroke-dasharray: none; stroke-linecap: butt; stroke-dashoffset: 0; stroke-linejoin: miter; stroke-miterlimit: 4; fill: rgb(0,0,0); fill-rule: nonzero; opacity: 1;" vector-effect="non-scaling-stroke"  transform=" translate(-0.0000013443, 0.0000015673)" d="M -121.23611 211.37857 L -302.23611 30.878569999999996 C -307.90278 25.211899999999996 -310.56944 18.378569999999996 -310.23611 10.378569999999996 C -309.90278 2.3785699999999963 -306.73611 -4.621430000000004 -300.73611 -10.621430000000004 C -295.06944 -16.288100000000004 -288.31944 -19.121430000000004 -280.48611 -19.121430000000004 C -272.65278 -19.121430000000004 -265.73611 -16.288100000000004 -259.73611 -10.621430000000004 L -101.23611 149.37857 L 260.26389 -212.12143 C 265.93056 -217.45476 272.76389 -220.20476 280.76389 -220.37143 C 288.76389 -220.53810000000001 295.59722 -217.78810000000001 301.26389 -212.12143 C 307.26389 -206.45476 310.26389 -199.62143 310.26389 -191.62143 C 310.26389 -183.62143 307.43056 -176.78810000000001 301.76389 -171.12143 L -80.73611 211.37857 C -86.73611 217.37857 -93.56944 220.37857 -101.23611 220.37857 C -108.90277999999999 220.37857 -115.56944 217.37857 -121.23611 211.37857 z" stroke-linecap="round" />
</g>
</svg>