<svg xmlns="http://www.w3.org/2000/svg" height="24" viewBox="0 -960 960 960" width="24"><path d="M480.091-121.5q-150.591 0-254.591-46T121.5-280v-400q0-65.619 105.043-112.309Q331.586-839 480-839q148.5 0 253.75 46.691Q839-745.619 839-680v400q0 66.419-104.409 112.459-104.409 46.041-254.5 46.041Zm.032-489.5q84.377 0 174.127-25.75 89.75-25.75 119.25-59-30-32.25-120.248-59T480-781.5q-87 0-175.5 25.75T186-696q30.5 35 117.863 60 87.362 25 176.26 25ZM479-395q41.5 0 83.25-4.5t80.417-13.5q38.667-9 74.372-21.75T781.5-463.5v-161q-30 17-65.25 30t-74.5 22.25Q602.5-563 561.5-558t-82.384 5q-41.384 0-83.5-5t-80.832-14.196q-38.716-9.196-73.5-22.25T179-624.5v161q27.5 16 62.034 28.851 34.534 12.852 73.25 21.75Q353-404 394.75-399.5 436.5-395 479-395Zm1 216q47.896 0 99.288-8.561 51.393-8.561 94.052-22.5Q716-224 745.771-241.5T781.5-277v-128q-29 16-64.53 28.5t-74.25 21.25Q604-346.5 562.428-342q-41.573 4.5-83.42 4.5-42.347 0-84.427-4.5-42.081-4.5-80.831-13.25t-73.037-21.153Q206.425-388.806 179-405v129q5 17.5 34 35t72 31.25q43 13.75 94.25 22.25T480-179Z"/></svg>