<svg xmlns="http://www.w3.org/2000/svg" height="24" viewBox="0 96 960 960" width="24"><path d="M480.5 634.5 576 731q10.333 10 23.667 10 13.333 0 22.855-9.911Q632 721.732 632 708.116t-9.5-22.616L527 588l95.5-98q10.5-9.833 10.5-23.167 0-13.333-10.357-22.355-9.411-9.478-22.777-9.728Q586.5 434.5 576 444.5l-95.5 97-95-97q-8.375-10-22.188-9.75-13.812.25-24.29 9.607-9.522 8.911-9.522 22.777Q329.5 481 339 491l96 97-96 96.5q-9.5 9.875-9.5 23.188 0 13.312 9.411 23.29Q349.268 741 362.634 741t22.866-10l95-96.5ZM262.5 931q-22.938 0-40.219-17.281Q205 896.438 205 873.5v-566h-11.5q-12.5 0-20.75-8.25t-8.25-20.75q0-12 8.25-20.25T193.5 250H349q0-12.5 7.888-20.75Q364.775 221 377.5 221H583q12.725 0 20.612 8.175Q611.5 237.35 611.5 250h156q12 0 20.25 8.25T796 278.5q0 12.5-8.25 20.75t-20.25 8.25h-12v566q0 22.938-17.281 40.219Q720.938 931 698 931H262.5Z"/></svg>