<svg xmlns="http://www.w3.org/2000/svg" height="22" viewBox="0 -960 960 960" width="22"><path d="M422.5-182v-99.5h-280q-22.969 0-40.234-17.266Q85-316.031 85-339v-439q0-22.969 17.266-40.234Q119.531-835.5 142.5-835.5h675q22.969 0 40.234 17.266Q875-800.969 875-778v439q0 22.969-17.266 40.234Q840.469-281.5 817.5-281.5h-280v99.5h57q11.675 0 20.088 8.463Q623-165.074 623-153.325q0 12.325-8.412 20.575-8.413 8.25-20.088 8.25H366q-12.25 0-20.625-8.425-8.375-8.426-8.375-20.5 0-12.075 8.375-20.325T366-182h56.5Zm-280-157h675v-439h-675v439Zm0 0v-439 439Z"/></svg>