<svg xmlns="http://www.w3.org/2000/svg" height="24" viewBox="0 96 960 960" width="24"><path d="M262.5 931q-22.969 0-40.234-17.266Q205 896.469 205 873.5v-566h-11.5q-12.25 0-20.625-8.425-8.375-8.426-8.375-20.5 0-12.075 8.375-20.325T193.5 250h155.686q0-12.425 7.919-20.713Q365.025 221 377.5 221H583q12.475 0 20.439 8.338 7.964 8.337 7.964 20.662h156.3q11.547 0 19.922 8.463T796 278.675q0 12.325-8.412 20.575-8.413 8.25-20.088 8.25h-12v566q0 22.969-17.266 40.234Q720.969 931 698 931H262.5Zm0-623.5v566H698v-566H262.5Zm107 452q0 12.25 8.535 20.375t20.39 8.125q11.856 0 20.216-8.125Q427 771.75 427 759.5v-339q0-12.25-8.463-20.625t-20.212-8.375q-12.325 0-20.575 8.375T369.5 420.5v339Zm164 0q0 12.25 8.535 20.375t20.39 8.125q11.856 0 20.216-8.125Q591 771.75 591 759.5v-339q0-12.25-8.463-20.625t-20.212-8.375q-12.325 0-20.575 8.375T533.5 420.5v339Zm-271-452v566-566Z"/></svg>