<svg xmlns="http://www.w3.org/2000/svg" height="24" viewBox="0 96 960 960" width="24"><path d="M479.827 730.5q-5.671 0-10.499-2t-9.328-7L311.645 573.145Q302.5 564.5 303 552.5t9.25-20.5q8.75-8.5 20.5-8.5T353 532l98.5 99.5V290q0-12.25 8.175-20.625 8.176-8.375 20.5-8.375 12.325 0 20.575 8.375T509 290v341.5l99.064-99.5q8.436-8.5 20.186-8.5t20.5 8.5q8.75 8.5 8.75 20.5t-8.823 20.787L500 721.5q-4.58 5-9.542 7-4.961 2-10.631 2ZM222 889q-22.969 0-40.234-17.266Q164.5 854.469 164.5 831.5v-113q0-12.25 8.425-20.625 8.426-8.375 20.5-8.375 12.075 0 20.325 8.375T222 718.5v113h516v-113q0-12.25 8.425-20.625 8.426-8.375 20.5-8.375 12.075 0 20.325 8.375t8.25 20.625v113q0 22.969-17.266 40.234Q760.969 889 738 889H222Z"/></svg>