<svg xmlns="http://www.w3.org/2000/svg" height="22" viewBox="0 -960 960 960" width="22"><path d="M46-124v-90q0-33.5 15.516-55.596Q77.03-291.692 106-305.5q54-26 114.624-42.75Q281.249-365 359-365t138.376 16.75Q558-331.5 612-305.5q28.969 13.808 44.484 35.904Q672-247.5 672-214v90H46Zm57.5-57.5h511v-32.744q0-15.256-8.75-25.006t-20.65-14.792q-42.6-19.153-95.35-36.305Q437-307.5 359-307.5t-130.75 17.153q-52.75 17.152-95.35 36.305Q121-249 112.25-239.25q-8.75 9.75-8.75 25.006v32.744Zm255.456-243q-64.456 0-105.86-41.984Q211.692-508.469 211.692-572H201.5q-8 0-14-6t-6-14q0-8 6-14t14-6h10.185q0-39.154 19.158-70.077Q250-713 282.143-733v38.459q0 6.244 4.098 10.392Q290.339-680 296.5-680q7.225 0 10.862-4.138Q311-688.275 311-694.364v-51.631q7.845-1.98 22.172-3.492Q347.5-751 360-751t26.828 1.511q14.327 1.511 22.172 3.487v51.573q0 5.929 3.638 10.179Q416.275-680 423.5-680q6.161 0 10.259-4.149 4.098-4.148 4.098-10.2V-733q32.143 20 50.3 50.923 18.158 30.923 18.158 70.077H516.5q8 0 14 6t6 14q0 8-6 14t-14 6h-10.192q0 63.531-41.448 105.516Q423.411-424.5 358.956-424.5ZM359-482q42 0 66-25t24-65H269q0 40 24 65t66 25Zm300 119.5-1.885-29q-7.115-4-14.615-9t-13.5-10l-26 14-21.5-31 26-19q-2-4-2-7.5v-15q0-3.5 2-7.5l-26-19 21.5-31 26 14q7-5.5 13.97-10.312 6.969-4.813 13.939-8.688l1.906-29h39.37l1.906 29q6.97 3.875 13.939 8.688Q721-518 728-512.5l26-14 21.5 31-26 19q2 4 2 7.5v15q0 3.5-2 7.5l26 19-21.5 31-26-14q-6 5-13.5 10t-14.5 9l-1.769 29H659Zm19.5-61q16 0 27-11t11-27q0-16-11-27t-27-11q-16 0-27 11t-11 27q0 16 11 27t27 11ZM766.349-579l-8.164-33.933Q748-617 737.179-624q-10.822-7-17.554-15L676-624l-19-33 34-27.5q-2-5-3.5-11.25T686-708q0-6 1.5-12.25t3.5-11.25L657-759l19-33 43.562 15q6.938-8 17.782-15.5Q748.188-800 758-803l8.5-34h37.151l8.164 33.933Q822-800 832.821-792.5q10.822 7.5 17.554 15.5L894-792l19 33-34 27.5q2 5 3.5 11.25T884-708q0 6-1.5 12.25T879-684.5l34 27.5-19 33-43.562-15q-6.938 8-17.782 15-10.844 7-20.656 11l-8.5 34h-37.151ZM785-650q25 0 41.5-16.5T843-708q0-25-16.5-41.5T785-766q-25 0-41.5 16.5T727-708q0 25 16.5 41.5T785-650ZM103.5-181.5h511-511Z"/></svg>