<svg xmlns="http://www.w3.org/2000/svg" height="24" viewBox="0 96 960 960" width="24"><path d="M479.877 773.5q14.123 0 23.123-8.877 9-8.877 9-23t-8.877-23.123q-8.877-9-23-9T457 718.377q-9 8.877-9 23t8.877 23.123q8.877 9 23 9Zm3.548-150.5q12.075 0 20.325-8.375T512 594V400.5q0-11.675-8.463-20.088Q495.074 372 483.325 372q-12.325 0-20.575 8.412-8.25 8.413-8.25 20.088V594q0 12.25 8.425 20.625 8.426 8.375 20.5 8.375Zm-3.095 348q-81.704 0-153.629-31.263t-125.563-85Q147.5 801 116.25 729.136 85 657.272 85 575.564q0-81.789 31.263-153.789 31.263-71.999 85-125.387Q255 243 326.864 212q71.864-31 153.572-31 81.789 0 153.795 31.132 72.005 31.131 125.387 84.5Q813 350 844 422.023q31 72.023 31 153.647 0 81.705-31.013 153.629-31.013 71.925-84.5 125.379-53.487 53.454-125.51 84.888Q561.954 971 480.33 971Z"/></svg>