<svg xmlns="http://www.w3.org/2000/svg" height="24" viewBox="0 96 960 960" width="24"><path d="M715 694.5V637h95q12.5 0 20.75 8.25T839 666q0 11.5-8.25 20T810 694.5h-95Zm0 160V797h95q12.5 0 20.75 8.25T839 826q0 11.5-8.25 20T810 854.5h-95Zm-155 40q-28.381 0-48.441-23.25Q491.5 848 491.5 814.487H395V677h96.5q0-33 20.059-56.5Q531.619 597 560 597h98q12.362 0 20.431 8.069 8.069 8.068 8.069 20.431V866q0 12.725-8.069 20.612Q670.362 894.5 658 894.5h-98Zm-285-120q-66.381 0-109.941-43.084-43.559-43.084-43.559-110.5t43.559-110.666Q208.619 467 275 467h65q33.625 0 55.062-21.309 21.438-21.309 21.438-54.75T395.062 336Q373.625 314.5 340 314.5H190q-11.5 0-20-8.5t-8.5-20q0-12.5 8.5-20.75t20-8.25h150q57.586 0 95.793 38.189Q474 333.379 474 390.939q0 57.561-38.207 95.561-38.207 38-95.793 38h-65q-42.413 0-69.206 26.416-26.794 26.416-26.794 70t26.794 69.834Q232.587 717 275 717h91.5v57.5H275Z"/></svg>