<svg xmlns="http://www.w3.org/2000/svg" height="24" viewBox="0 96 960 960" width="24"><path d="M183 872.5h42l444-444-42-42-444 444v42ZM790.5 388 668 265l40.323-40.323Q725.094 208 749.297 208.5q24.203.5 40.737 17.147l41.432 41.206Q847.5 283.5 847.25 307.5q-.25 24-16.275 40.025L790.5 388ZM154.327 930q-12.614 0-20.721-8.102-8.106-8.102-8.106-20.709v-82.09q0-5.599 2-10.635 2-5.035 6.5-9.464l494.5-494L751 427.5l-494.5 494q-4.483 4.5-9.554 6.5-5.07 2-9.946 2h-82.673ZM648 407.5l-21-21 42 42-21-21Z"/></svg>