<svg xmlns="http://www.w3.org/2000/svg" height="24" viewBox="0 96 960 960" width="24"><path d="M232.825 932.5q-12.325 0-20.575-8.375T204 903.5V289q0-12.475 8.012-20.487 8.013-8.013 20.488-8.013h286.054q9.896 0 17.671 6.25Q544 273 546 283l13.974 63H767.5q12.475 0 20.487 8.013Q796 362.025 796 374.5v306q0 12.475-8.013 20.487Q779.975 709 767.5 709h-199q-10.111 0-18.056-5.75Q542.5 697.5 540.5 687l-14-62.5h-265v279q0 12.25-8.463 20.625t-20.212 8.375ZM500 484.5Zm94.373 167H738.5V403.625H511.068L492.168 318H261.5v248.875h313.977l18.896 84.625Z"/></svg>