<svg xmlns="http://www.w3.org/2000/svg" height="24" viewBox="0 96 960 960" width="24"><path d="M480.5 972q-126.116 0-227.058-71.5T110.5 712q-5-11.939.5-22.719Q116.5 678.5 128.5 675q11-3 21.936 3.141 10.935 6.14 15.564 17.359 36.5 99 122.256 159 85.755 60 192.244 60 98 0 180.25-51T788 725.5H686q-12.25 0-20.625-8.627T657 695.623q0-12.123 8.662-20.373Q674.325 667 687 667h161q11.75 0 20.125 8.375T876.5 695.5v169q0 11.825-8.022 19.912-8.022 8.088-19.25 8.088-11.728 0-20.478-8.75Q820 875 820 863.5V782q-56 88.5-145.75 139.25T480.5 972Zm-.5-736q-97 0-178.75 51.5T173.5 425H276q11.75 0 20.125 8.425 8.375 8.426 8.375 20.25 0 12.325-8.375 21.075T276 483.5H113q-12.25 0-20.625-8.375T84 454.5v-167q0-11.75 8.425-20.125 8.426-8.375 20.75-8.375 11.825 0 20.075 8.375t8.25 20.125v80q56-88 145.25-138t193.25-50q126.116 0 227.308 70.75T850.5 436.5q4.5 11.5-1 22.823-5.5 11.322-17 15.177-11.5 4-21.75-2t-14.75-18Q759 356 672.935 296T480 236Zm1.5 437.5q-41.5 0-70.25-28.75T382.5 574.5q0-41 28.75-70t70.25-29q41 0 70 29t29 70q0 41.5-29 70.25t-70 28.75Z"/></svg>