<?xml version="1.0" encoding="UTF-8" standalone="no"?>
<svg
   height="24"
   viewBox="0 -960 960 960"
   width="24"
   version="1.1"
   id="svg1">
  <defs
     id="defs1">
    <clipPath
       clipPathUnits="userSpaceOnUse"
       id="clipPath4">
      <path
         id="path4"
         style="fill:#ff0000;fill-opacity:1;fill-rule:nonzero;stroke:none;stroke-width:20"
         d="m 85,-795 v 210.74218 c 8.112326,-0.186 16.22852,-0.368 24.33594,-0.4688 30.46518,-0.331 60.93982,-0.4578 91.40624,-0.625 42.40556,-0.2214 84.78168,-0.4232 127.1875,-0.586 41.0486,-0.154 82.11544,-0.2806 123.16408,-0.4296 34.92294,-0.116 69.84254,-0.2738 104.76562,-0.3516 29.73024,-0.05 59.4494,-0.094 89.17968,-0.118 25.57774,-0.0191 51.18008,-0.022 76.75782,-0.04 21.88214,-0.0152 43.74284,-0.024 65.625,-0.04 18.6189,-0.0126 37.24046,-0.026 55.85936,-0.04 10.56918,-0.042 21.14442,0.106 31.71876,0.196 V -795 Z m 758.32032,249.53124 c -18.61864,0.0122 -37.24076,0.026 -55.85938,0.04 -21.88188,0.0148 -43.7822,0.024 -65.66406,0.04 -25.57684,0.0178 -51.14192,0.06 -76.71876,0.078 -29.71002,0.022 -59.43062,0.03 -89.14062,0.078 -34.90364,0.078 -69.78396,0.236 -104.6875,0.3516 -41.04576,0.15 -82.11832,0.3138 -123.16406,0.4688 -42.38298,0.162 -84.76572,0.3256 -127.14844,0.5468 -30.37054,0.166 -60.72444,0.3346 -91.09375,0.664 -8.28383,0.102 -16.563336,0.2428 -24.84375,0.4296 V -165 h 790 v -380.27344 c -10.55902,-0.092 -21.11712,-0.2358 -31.67968,-0.196 z" />
    </clipPath>
  </defs>
  <path
     d="M142.5-165q-22.969 0-40.234-17.766Q85-200.531 85-222.5v-515q0-21.969 17.266-39.734Q119.531-795 142.5-795h281l57.5 57.5h336.5q21.969 0 39.734 17.766Q875-701.969 875-680v457.5q0 21.969-17.766 39.734Q839.469-165 817.5-165h-675Z"
     id="path1"
     clip-path="url(#clipPath4)" />
</svg>
