<svg xmlns="http://www.w3.org/2000/svg" height="24" viewBox="0 -960 960 960" width="24"><path d="M142.5-222.5v-515 515Zm0 57.5q-22.969 0-40.234-17.266Q85-199.531 85-222.5v-515q0-22.969 17.266-40.234Q119.531-795 142.5-795h257q11.943 0 22.766 4.739 10.823 4.739 18.727 12.754L481-737.5h336.5q22.969 0 40.234 17.266Q875-702.969 875-680v193.5q-13.5-7.5-27.672-10.5t-29.828-3.5V-680H457l-57.5-57.5h-257v515h358-.5v57.5H142.5Zm415 51v-81q0-5.013 2-9.964 2-4.95 6.5-10.036l211.612-210.773q9.113-8.62 20.004-12.674 10.891-4.053 21.645-4.053 11.732 0 22.485 4.25Q852.5-434 861.5-425l37 37q8.765 8.855 12.632 19.677Q915-357.5 915-346.75t-4.382 22.031q-4.383 11.281-13.201 19.843L687.5-93.5q-5.086 4.5-9.949 6.5-4.864 2-10.051 2h-81q-12.25 0-20.625-8.375T557.5-114Zm299-233-37-37 37 37Zm-240 203h37.761L776.5-267l-17.887-19-18.88-18L616.5-182v38Zm142-142-19-18 37 37-18-19Z"/></svg>