<svg xmlns="http://www.w3.org/2000/svg" height="24" viewBox="0 96 960 960" width="24"><path d="M142.5 892q-22.5 0-40-17.5T85 834.393V320.107Q85 297.5 102.5 280t40-17.5h257q11.978 0 22.833 4.739 10.855 4.739 18.579 12.754L481 320h336.5q22.737 0 39.869 17.5Q874.5 355 875 377.5H456L398.5 320h-256v510.5l89.408-352.685q4.573-18.719 20.781-30.767Q268.898 435 288.5 435H864q27.5 0 45.75 22t10.75 49.5L832 847q-6.5 23.5-22 34.25T769.896 892H142.5Zm59-57.5h574.367L861 492.5H286.633l-85.133 342Zm0 0 85-342-85 342Zm-59-399.5V320v115Z"/></svg>