<?xml version="1.0" encoding="UTF-8" standalone="no"?>
<svg
   height="24"
   viewBox="0 -960 960 960"
   width="24">
  <path
     id="path150"
     style="display:none;fill:#ff0000;stroke-width:54.806"
     d="m 295.07812,-652.61719 c -8.39033,0 -15.76358,3.27588 -22.07031,9.76563 -6.30708,6.48936 -9.45312,13.73276 -9.45312,21.75781 v 282.1875 c 0,8.02505 3.14604,15.26845 9.45312,21.75781 6.30673,6.48975 13.67998,9.76563 22.07031,9.76563 h 369.84376 c 8.02504,0 15.26843,-3.27588 21.75781,-9.76563 6.48973,-6.48936 9.76562,-13.73276 9.76562,-21.75781 v -250.66406 c 0,-8.02504 -3.27589,-15.30751 -9.76562,-21.79688 -6.48938,-6.48973 -13.73277,-9.72656 -21.75781,-9.72656 h -184.375 l -31.52344,-31.52344 z" />
  <path
     id="path151"
     style="display:inline;fill:#ffffff;stroke-width:57.6906"
     d="M 480,-880 A 400,400 0 0 0 80,-480 400,400 0 0 0 480,-80 400,400 0 0 0 880,-480 400,400 0 0 0 480,-880 Z m -194.65461,218.29769 h 162.0477 l 33.18257,33.18257 h 194.07895 c 8.44741,0 16.07203,3.40719 22.90296,10.23849 6.83129,6.83091 10.2796,14.49667 10.2796,22.94408 v 263.85691 c 0,8.44742 -3.44831,16.07205 -10.2796,22.90295 -6.83093,6.83132 -14.45555,10.27962 -22.90296,10.27962 H 285.34539 c -8.83193,0 -16.59324,-3.4483 -23.23191,-10.27962 -6.63903,-6.8309 -9.95065,-14.45553 -9.95065,-22.90295 v -297.03948 c 0,-8.44742 3.31162,-16.07205 9.95065,-22.90295 6.63867,-6.83132 14.39998,-10.27962 23.23191,-10.27962 z" />
  <path
     id="path2"
     style="display:none;fill:#ffffff;stroke-width:42.481"
     d="m 295.07616,-652.59938 c -8.39034,0 -15.75206,3.24459 -22.05879,9.73434 -6.30709,6.48937 -9.44971,13.7491 -9.44971,21.77416 v 282.18176 c 0,8.02506 3.14262,15.28479 9.44971,21.77416 6.30673,6.48975 13.66845,9.73434 22.05879,9.73434 h 369.84768 c 8.02505,0 15.28479,-3.24459 21.77417,-9.73434 6.48974,-6.48937 9.73433,-13.7491 9.73433,-21.77416 v -250.67327 c 0,-8.02505 -3.24459,-15.28479 -9.73433,-21.77416 -6.48938,-6.48974 -13.74912,-9.73433 -21.77417,-9.73433 H 480.54079 l -31.50849,-31.5085 z" />
  <rect
     style="font-variation-settings:normal;opacity:1;vector-effect:none;fill:#ffffff;fill-opacity:1;fill-rule:evenodd;stroke:none;stroke-width:23.04;stroke-linecap:butt;stroke-linejoin:miter;stroke-miterlimit:4;stroke-dasharray:none;stroke-dashoffset:0;stroke-opacity:1;stop-color:#000000;stop-opacity:1"
     id="rect151"
     width="500"
     height="40"
     x="220"
     y="-540" />
</svg>
