<svg xmlns="http://www.w3.org/2000/svg" height="24" viewBox="0 96 960 960" width="24"><path d="M74 889.5q-12.725 0-20.612-7.888Q45.5 873.725 45.5 861v-62.545q0-34.312 17.523-62.236 17.524-27.924 49.499-41.73Q184.989 663 242.495 649 300 635 361 635q61 0 117.924 14 56.923 14 129.554 45.489 31.975 13.806 49.999 41.73 18.023 27.924 18.023 62.236V861q0 12.725-7.888 20.612Q660.725 889.5 648 889.5H74Zm638.5 0q10.5-1 17-9.154 6.5-8.155 6.5-21.846V799q0-62.5-32.011-102.355-32.01-39.854-83.489-64.145 68 8.5 127.75 23.75t97.25 34.25q32 18.5 50.75 46T915 798.798V861q0 12.725-8.069 20.612-8.069 7.888-20.431 7.888h-174ZM361 575.5q-65.237 0-106.119-40.881Q214 493.737 214 428.5t40.881-106.119Q295.763 281.5 361 281.5t106.119 40.881Q508 363.263 508 428.5t-40.881 106.119Q426.237 575.5 361 575.5Zm351-147.314q0 64.839-40.881 105.827Q630.237 575 565 575q-10.5 0-23.178-1.344t-23.322-5.21q24.018-24.264 36.259-59.867Q567 472.976 567 428.473q0-44.502-12.25-78.451Q542.5 316.073 518.5 288q10-2.812 23-4.656 13-1.844 23.5-1.844 65.237 0 106.119 41.026Q712 363.553 712 428.186ZM103 832h516v-33.372q0-16.318-9.75-31.223Q599.5 752.5 586 746q-72.5-32-120.425-42.75-47.924-10.75-104.325-10.75-56.569 0-105.41 10.75Q207 714 135 746q-14 6.5-23 21.5t-9 31V832Zm257.938-314q39.062 0 64.312-25.188t25.25-64.25q0-39.062-25.188-64.312T361.062 339Q322 339 296.75 364.188t-25.25 64.25q0 39.062 25.188 64.312t64.25 25.25Zm.062-89.5Zm0 264Z"/></svg>