<svg xmlns="http://www.w3.org/2000/svg" height="24" viewBox="0 96 960 960" width="24"><path d="M484.437 805.5q15.303 0 25.933-10.567Q521 784.367 521 769.063q0-15.303-10.567-25.933-10.566-10.63-25.87-10.63-15.303 0-25.933 10.567Q448 753.633 448 768.937q0 15.303 10.567 25.933 10.566 10.63 25.87 10.63ZM480.33 971q-81.704 0-153.629-31.263t-125.563-85Q147.5 801 116.25 729.136 85 657.272 85 575.564q0-81.789 31.263-153.789 31.263-71.999 85-125.387Q255 243 326.864 212q71.864-31 153.572-31 81.789 0 153.795 31.132 72.005 31.131 125.387 84.5Q813 350 844 422.023q31 72.023 31 153.647 0 81.705-31.013 153.629-31.013 71.925-84.5 125.379-53.487 53.454-125.51 84.888Q561.954 971 480.33 971Zm.137-57.5Q620.5 913.5 719 814.533t98.5-239Q817.5 435.5 719.221 337q-98.28-98.5-239.188-98.5-139.533 0-238.533 98.279-99 98.28-99 239.188 0 139.533 98.967 238.533t239 99ZM480 576Zm2.767-178.5q30.435 0 53.584 18.5 23.149 18.5 23.149 47.196 0 25.911-15.398 45.536-15.397 19.625-34.602 35.768-23 19.5-40.5 42.265t-17 52.159q0 10.576 7.875 16.826t18.743 6.25q11.645 0 19.359-7.696 7.714-7.697 9.918-19.242 3.043-21.173 15.983-37.868 12.94-16.694 29.853-30.478Q578.5 546.5 594 520t15.5-57.614q0-49.727-36.402-82.806-36.402-33.08-87.182-33.08-34.969 0-67.442 14.75Q386 376 365 404.5q-7 9.5-6.578 20.757.422 11.258 9.047 17.743 10.916 7.5 22.896 4.5 11.981-3 19.635-13.5 12.25-17.661 31.537-27.081 19.287-9.419 41.23-9.419Z"/></svg>