<svg xmlns="http://www.w3.org/2000/svg" height="48" viewBox="0 -960 960 960" width="48"><path d="M327-124.5H182q-22.969 0-40.234-17.266Q124.5-159.031 124.5-182v-298q0-74.09 28-138.795 28-64.705 76-112.705t112.684-76q64.684-28 138.75-28t138.816 28q64.75 28 112.75 76t76 112.705q28 64.705 28 138.795v298q0 22.969-17.266 40.234Q800.969-124.5 778-124.5H633v-290h145V-480q0-124.193-86.937-211.096Q604.125-778 479.884-778t-211.063 86.904Q182-604.193 182-480v65.5h145v290ZM269.5-357H182v175h87.5v-175Zm421 0v175H778v-175h-87.5Zm-421 0H182h87.5Zm421 0H778h-87.5Z"/></svg>