<svg xmlns="http://www.w3.org/2000/svg" height="22" viewBox="0 -960 960 960" width="22"><path d="M476.898-124.5q-140.398 0-240.648-94.75T125-452.332q-1-11.668 7.283-20.634 8.283-8.965 20.764-9Q164.5-482 172.75-473.5t9.836 20.575Q193.5-338 276.664-260q83.165 78 200.19 78 125.646 0 213.396-88.513Q778-359.026 778-484.763 778-608 689.313-693q-88.686-85-212.813-85-67.5 0-126 30.5t-102 80.5H323q12.5 0 20.75 8.287Q352-650.425 352-638.5q0 12.5-8.25 20.75T323-609.5H177q-12.5 0-20.5-8.25t-8-20.75v-145.2q0-11.84 8-20.07T177-812q12.5 0 20.75 8.287Q206-795.425 206-783.5v77q51-60 121.194-94.5 70.195-34.5 149.306-34.5 74 0 139.325 27.528 65.324 27.527 114.25 75.5Q779-684.5 807.25-620.318q28.25 64.183 28.25 138.25 0 74.068-28.25 139.318Q779-277.5 730.25-229t-113.986 76.5q-65.237 28-139.366 28ZM510.5-493.653l113.95 112.088q9.05 9.065 9.05 21.065 0 12-9 20.75T604.25-331q-11.25 0-20.335-9.043L461.547-460.977Q457-465.5 455-470.739q-2-5.239-2-11.261v-170q0-11.925 8-20.213 8-8.287 20.5-8.287t20.75 8.287q8.25 8.288 8.25 20.213v158.347Z"/></svg>