<svg xmlns="http://www.w3.org/2000/svg" height="24" viewBox="0 96 960 960" width="24"><path d="M182 971.5q-22.969 0-40.234-18.766Q124.5 933.969 124.5 912V424q-14-1.5-26.75-19.25T85 366.5v-126q0-21.969 17.266-39.734Q119.531 183 142.5 183h675q21.969 0 39.734 17.766Q875 218.531 875 240.5v126q0 20.5-12.75 38.25T835.5 424v488q0 21.969-17.766 40.734Q799.969 971.5 778 971.5H182Zm0-547.5v490h596V424H182Zm635.5-57.5v-126h-675v126h675Zm-427 265H570q11.675 0 20.088-8.425 8.412-8.426 8.412-20.5 0-12.075-8.412-20.325Q581.675 574 570 574H390.5q-12.25 0-20.625 8.463t-8.375 20.212q0 12.325 8.375 20.575t20.625 8.25ZM182 914V424v490Z"/></svg>