<svg xmlns="http://www.w3.org/2000/svg" height="24" viewBox="0 96 960 960" width="24"><path d="M478.825 705q-12.325 0-20.325-8.125t-8-20.375V255L382 323.5q-8.25 8-20.125 7.75t-20.266-8.553Q333 313.895 333 301.947q0-11.947 8.908-20.855l117.134-117.134Q464 159 468.928 157q4.928-2 10.185-2 5.257 0 10.072 2 4.815 2 9.792 6.977L617.5 282.5q7.5 7.609 8 19.554.5 11.946-7.803 20.446-8.802 9-20.75 9-11.947 0-20.947-9L508 255v421.5q0 12.25-8.425 20.375-8.426 8.125-20.75 8.125ZM222 1009q-22.969 0-40.234-17.266Q164.5 974.469 164.5 951.5V446q0-22.969 17.266-40.234Q199.031 388.5 222 388.5h142q12.25 0 20.625 8.463T393 417.175q0 12.325-8.375 20.575T364 446H222v505.5h516.5V446H594q-12.25 0-20.375-8.535t-8.125-20.39q0-11.856 8.125-20.216Q581.75 388.5 594 388.5h144.5q22.438 0 39.969 17.266Q796 423.031 796 446v505.5q0 22.969-17.531 40.234Q760.938 1009 738.711 1009H222Z"/></svg>