<svg xmlns="http://www.w3.org/2000/svg" height="24" viewBox="0 96 960 960" width="24"><path d="M139 796h682.5V353.5H139V796Zm0 57.5q-22.969 0-40.234-17.766Q81.5 817.969 81.5 796V353.5q0-22.969 17.266-40.234Q116.03 296 139 296h682.5q22.969 0 40.234 17.266Q879 330.531 879 353.5V796q0 21.969-17.266 39.734Q844.469 853.5 821.5 853.5H139Zm312.5-375H509V421h-57.5v57.5Zm0 125H509V546h-57.5v57.5Zm-123-125H386V421h-57.5v57.5Zm0 125H386V546h-57.5v57.5Zm-124 0H262V546h-57.5v57.5Zm0-125H262V421h-57.5v57.5Zm125 250H631q11.675 0 20.088-8.425 8.412-8.426 8.412-20.5 0-12.075-8.412-20.325Q642.675 671 631 671H329.5q-12.25 0-20.625 8.463t-8.375 20.212q0 12.325 8.375 20.575t20.625 8.25Zm246-125H633V546h-57.5v57.5Zm0-125H633V421h-57.5v57.5Zm123 125H756V546h-57.5v57.5Zm0-125H756V421h-57.5v57.5ZM139 796V353.5 796Z"/></svg>