<svg xmlns="http://www.w3.org/2000/svg" height="24" viewBox="0 96 960 960" width="24"><path d="M480 630.5q-41.75 0-69.875-30.167Q382 570.167 382 527V278q0-40.417 28.566-68.708Q439.132 181 479.941 181t69.434 28.292Q578 237.583 578 278v249q0 43.167-28.125 73.333Q521.75 630.5 480 630.5Zm0-224.5Zm-.175 526q-12.325 0-20.325-8.375t-8-20.625V795.865Q354 786 285.25 719T206 557.5q-1.5-12.593 7.295-21.547Q222.091 527 235.5 527q9.917 0 18.148 7.542 8.232 7.541 9.852 18.458 10.5 80.5 72.044 134 61.543 53.5 144.347 53.5 82.805 0 144.457-53.5Q686 633.5 696.5 553q1.853-11.167 10.121-18.583Q714.89 527 725.543 527q12.91 0 21.434 8.953Q755.5 544.907 754 557.5 743.5 652 674.75 719T509 795.865V903q0 12.25-8.425 20.625-8.426 8.375-20.75 8.375ZM480 573q18.075 0 29.288-13.5Q520.5 546 520.5 527V278.335q0-16.835-11.629-28.335-11.628-11.5-28.818-11.5t-28.872 11.356Q439.5 261.212 439.5 278v248.868q0 19.132 11.212 32.632Q461.925 573 480 573Z"/></svg>