<svg xmlns="http://www.w3.org/2000/svg" height="24" viewBox="0 96 960 960" width="24"><path d="M480 630.5q-41.75 0-69.875-30.167Q382 570.167 382 527V278q0-40.417 28.566-68.708Q439.132 181 479.941 181t69.434 28.292Q578 237.583 578 278v249q0 43.167-28.125 73.333Q521.75 630.5 480 630.5Zm-.175 301.5q-12.325 0-20.325-8.375t-8-20.625V795.865Q354 786 285.25 719T206 557.5q-1.5-12.593 7.25-21.547Q222 527 235.5 527q10 0 18.19 7.542 8.19 7.541 9.81 18.458 10.5 80.5 71.391 134 60.892 53.5 145 53.5Q564 740.5 625 687q61-53.5 71.5-134 1.853-11.167 10.121-18.583Q714.89 527 725.543 527q12.957 0 21.457 8.953 8.5 8.954 7 21.547Q743.5 652 674.75 719T509 795.865V903q0 12.25-8.425 20.625-8.426 8.375-20.75 8.375Z"/></svg>