<svg xmlns="http://www.w3.org/2000/svg" height="24" viewBox="0 96 960 960" width="24"><path d="M479.853 717Q538.5 717 580 675.897q41.5-41.103 41.5-99.75T580.294 476q-41.206-41.5-100-41.5T380.25 475.706q-41.25 41.206-41.25 100t41.103 100.044Q421.206 717 479.853 717Zm.234 57.5q-82.587 0-140.587-58.06-58-58.06-58-140.5t58.06-140.69Q397.62 377 480.06 377t140.69 58.163Q679 493.327 679 575.913q0 82.587-58.163 140.587-58.164 58-140.75 58ZM70 604.5q-12.25 0-20.375-8.175-8.125-8.176-8.125-20.5 0-12.325 8.125-20.575T70 547h100q12.25 0 20.625 8.425 8.375 8.426 8.375 20.75 0 12.325-8.375 20.325t-20.625 8H70Zm720 0q-12.25 0-20.375-8.175-8.125-8.176-8.125-20.5 0-12.325 8.125-20.575T790 547h100q12.25 0 20.625 8.425 8.375 8.426 8.375 20.75 0 12.325-8.375 20.325t-20.625 8H790Zm-310.175-310q-12.325 0-20.325-8.125t-8-20.375V166q0-12.25 8.175-20.625 8.176-8.375 20.5-8.375 12.325 0 20.575 8.375T509 166v100q0 12.25-8.425 20.375-8.426 8.125-20.75 8.125Zm0 720q-12.325 0-20.325-8.12-8-8.13-8-20.38V886q0-12.25 8.175-20.625 8.176-8.375 20.5-8.375 12.325 0 20.575 8.375T509 886v100q0 12.25-8.425 20.38-8.426 8.12-20.75 8.12ZM241 377l-57-56q-9-8.5-8.629-20.603.37-12.104 8.765-20.5 8.157-8.397 20.261-8.647Q216.5 271 225 279.5l56 57q8 8.853 8 20.324 0 11.47-8 19.823T261.25 385q-11.75 0-20.25-8Zm494 495-56-57q-8-8.5-8-20.375t8.5-20.125q8-8.5 19.483-8.25 11.484.25 20.517 8.75l57 56q8.5 8.5 8.129 20.603-.37 12.104-8.765 20.5-8.157 8.397-20.261 8.647Q743.5 881 735 872Zm-56.147-495q-8.853-8.5-8.603-19.983.25-11.484 8.75-20.517l56-57q8.5-8.5 20.603-8.129 12.104.37 20.5 8.765 8.397 8.157 8.647 20.261Q785 312.5 776.5 321l-57 56q-7.853 8-19.687 8-11.834 0-20.96-8ZM183.897 872.121q-8.397-8.423-8.647-20.522Q175 839.5 184 831l57-56q8.3-8.5 19.9-8.75 11.6-.25 20.209 8.75 8.891 8.5 8.641 20T281 815l-56 57q-8.5 9-20.603 8.629-12.104-.37-20.5-8.508ZM480 576Z"/></svg>