<svg xmlns="http://www.w3.org/2000/svg" height="24" viewBox="0 96 960 960" width="24"><path d="M281.5 772.5q-83.595 0-140.048-56.433Q85 659.634 85 576.067 85 492.5 141.452 436q56.453-56.5 140.048-56.5H421q11.75 0 20.125 8.425 8.375 8.426 8.375 20.25 0 12.325-8.375 20.575T421 437H281.75q-60.271 0-99.76 39.382-39.49 39.383-39.49 99.5 0 60.118 39.49 99.618 39.489 39.5 99.76 39.5H421q11.75 0 20.125 8.425 8.375 8.426 8.375 20.25 0 12.325-8.375 20.575T421 772.5H281.5Zm74.5-168q-12.25 0-20.625-8.425-8.375-8.426-8.375-20.75 0-11.825 8.375-20.075T356 547h248.5q11.75 0 20.125 8.425 8.375 8.426 8.375 20.25 0 12.325-8.375 20.575T604.5 604.5H356Zm183.5 168q-12.25 0-20.625-8.425-8.375-8.426-8.375-20.75 0-11.825 8.375-20.075T539.5 715h138.75q60.271 0 99.76-39.382 39.49-39.383 39.49-99.5 0-60.118-39.49-99.618-39.489-39.5-99.76-39.5H539.5q-12.25 0-20.625-8.425-8.375-8.426-8.375-20.75 0-11.825 8.375-20.075t20.625-8.25h139q83.595 0 140.047 56.433Q875 492.366 875 575.933 875 659.5 818.547 716q-56.452 56.5-140.047 56.5h-139Z"/></svg>