<svg xmlns="http://www.w3.org/2000/svg" height="24" viewBox="0 96 960 960" width="24"><path d="M222 971q-23.719 0-40.609-16.891Q164.5 937.219 164.5 913.5v-431q0-23.719 16.891-40.609Q198.281 425 222 425h387v-95.385q0-53.782-37.373-91.198Q534.254 201 479.863 201q-46.363 0-81.363 28T354 300.5q-3 13-11.75 21.25T321.983 330q-12.311 0-20.397-8.5-8.086-8.5-6.086-20 10-68 61.902-113t122.629-45q77.383 0 131.926 54.551Q666.5 252.603 666.5 330v95H738q23.719 0 40.609 16.891Q795.5 458.781 795.5 482.5v431q0 23.719-16.891 40.609Q761.719 971 738 971H222Zm0-57.5h516v-431H222v431Zm258.084-140q31.179 0 53.297-21.566 22.119-21.566 22.119-51.85 0-29.347-22.203-53.465-22.203-24.119-53.381-24.119-31.179 0-53.297 24.035-22.119 24.034-22.119 53.881t22.203 51.465q22.203 21.619 53.381 21.619ZM222 482.5v431-431Z"/></svg>