<svg xmlns="http://www.w3.org/2000/svg" height="24" viewBox="0 96 960 960" width="24"><path d="M222 971q-23.719 0-40.609-16.891Q164.5 937.219 164.5 913.5v-431q0-23.719 16.891-40.609Q198.281 425 222 425h71.5v-95.018q0-77.832 54.39-132.157Q402.279 143.5 480.14 143.5q77.86 0 132.11 54.349 54.25 54.349 54.25 132.36V425H738q23.719 0 40.609 16.891Q795.5 458.781 795.5 482.5v431q0 23.719-16.891 40.609Q761.719 971 738 971H222Zm0-57.5h516v-431H222v431Zm258.084-140q31.179 0 53.297-21.566 22.119-21.566 22.119-51.85 0-29.347-22.203-53.465-22.203-24.119-53.381-24.119-31.179 0-53.297 24.035-22.119 24.034-22.119 53.881t22.203 51.465q22.203 21.619 53.381 21.619ZM351 425h258v-95.385q0-53.782-37.265-91.198Q534.471 201 480.235 201 426 201 388.5 238.333 351 275.667 351 329.769V425ZM222 913.5v-431 431Z"/></svg>