<svg xmlns="http://www.w3.org/2000/svg" height="24" viewBox="0 96 960 960" width="24"><path d="M645 726.5q-8.5-8.011-8.5-20.255 0-12.245 8.5-20.745l80-79.5H405.5q-12.25 0-20.625-8.425-8.375-8.426-8.375-20.5 0-12.075 8.375-20.325t20.625-8.25H723l-81-81q-8-7.567-7.75-19.481.25-11.914 8.943-20.466Q651.161 419 663.58 419q12.42 0 21.42 9l130 130q4.5 5.08 6.75 9.957 2.25 4.876 2.25 10.45 0 5.573-2.25 10.333t-6.85 9.36L685.5 727.5q-7.5 7.5-19.5 7.75t-21-8.75Zm-462.5 207q-22.969 0-40.234-17.266Q125 898.969 125 876V278.5q0-22.969 17.266-40.234Q159.531 221 182.5 221H443q11.675 0 20.087 8.463 8.413 8.463 8.413 20.212 0 12.325-8.413 20.575-8.412 8.25-20.087 8.25H182.5V876H443q11.675 0 20.087 8.463 8.413 8.463 8.413 20.212 0 12.325-8.413 20.575-8.412 8.25-20.087 8.25H182.5Z"/></svg>