<svg xmlns="http://www.w3.org/2000/svg" height="24" viewBox="0 96 960 960" width="24"><path d="M393.5 726.5q-8.5-8.011-8.5-20.255 0-12.245 8.5-20.745l80-79.5H154q-12.25 0-20.625-8.425-8.375-8.426-8.375-20.75 0-11.825 8.375-20.075T154 548.5h317.5l-81-81q-8-7.567-7.75-19.481.25-11.914 8.943-20.466Q399.661 419 412.08 419q12.42 0 21.42 9l130 130q4.5 5.08 6.75 9.973 2.25 4.894 2.25 10.2 0 5.807-2.25 10.567T563.5 598L434 727.5q-7.5 8-19.5 8t-21-9Zm124 207q-12.25 0-20.625-8.425-8.375-8.426-8.375-20.75 0-11.825 8.375-20.075T517.5 876h260V278.5h-260q-12.25 0-20.625-8.425-8.375-8.426-8.375-20.75 0-11.825 8.375-20.075T517.5 221h260q22.938 0 40.219 17.281Q835 255.562 835 278.5V876q0 22.938-17.281 40.219Q800.438 933.5 777.5 933.5h-260Z"/></svg>