<svg xmlns="http://www.w3.org/2000/svg" height="24" viewBox="0 96 960 960" width="24"><path d="M153 813q-12.25 0-20.625-8.425-8.375-8.426-8.375-20.75 0-11.825 8.375-20.075T153 755.5h655q11.75 0 20.125 8.425 8.375 8.426 8.375 20.25 0 12.325-8.375 20.575T808 813H153Zm0-208.5q-12.25 0-20.625-8.425-8.375-8.426-8.375-20.75 0-11.825 8.375-20.075T153 547h655q11.75 0 20.125 8.425 8.375 8.426 8.375 20.25 0 12.325-8.375 20.575T808 604.5H153Zm0-208q-12.25 0-20.625-8.425-8.375-8.426-8.375-20.75 0-11.825 8.375-20.075T153 339h655q11.75 0 20.125 8.425 8.375 8.426 8.375 20.25 0 12.325-8.375 20.575T808 396.5H153Z"/></svg>