<svg xmlns="http://www.w3.org/2000/svg" height="24" viewBox="0 96 960 960" width="24"><path d="M400.522 571.5Q335 571.5 294 530.522t-41-106.5q0-65.522 40.978-106.522t106.5-41Q466 276.5 507 317.478t41 106.5q0 65.522-40.978 106.522t-106.5 41ZM113.5 885.5q-12.725 0-20.612-7.888Q85 869.725 85 857v-62.5q0-34.5 17.25-62t49.75-42q74-33 134.75-46.25T400.394 631H423q-5.5 14-8.5 26.688-3 12.687-5 30.812h-9q-54.5 0-109 11.5T175 742q-16.5 8.5-24.5 22.845-8 14.345-8 29.655v33.302h266.953Q414 845.5 420.75 859.25 427.5 873 437 885.5H113.5Zm287-371.5q39 0 64.5-25.5t25.5-64.5q0-39-25.5-64.5T400.5 334q-39 0-64.5 25.5T310.5 424q0 39 25.5 64.5t64.5 25.5Zm0-90Zm9 404Zm282.188-18q32.812 0 56.062-23.378T771 730.416q0-32.622-23.25-55.769T691.688 651.5q-32.812 0-56 23.304-23.188 23.305-23.188 56.03t23.188 55.946q23.188 23.22 56 23.22ZM656.5 864q-16.864-4.896-34.744-14.531Q603.875 839.833 592 827.5l-44 9.5q-5.132 2-9.816 0-4.684-2-6.255-6.478L520 809q-3-3.82-2-8.61 1-4.79 5-8.89l37.5-34.837Q558 747.5 558 731t2.5-25.646l-38-35.802Q519 666 518 661t2-9l11.929-21.022q1.571-4.478 6.474-6.478 4.903-2 10.291-.5L592 634.5q12-12.5 29.841-22.078T656.5 598l7.409-52.363q1.038-5.918 4.907-9.278Q672.684 533 678.818 533H705q5.816 0 9.684 3.359 3.869 3.36 4.816 9.141L727 598q17.636 5 35.318 14.5t29.682 22l43.677-10q4.613-1.5 9.527.25 4.914 1.75 6.796 6.25l12 21q2.5 4 1.5 9t-4.7 8.427L823.5 705.5q2 9.5 2 25.5t-2 25.5l37.5 35q3.5 4 4.5 9t-2 8.5l-11.429 21.522Q850 835 845 837t-9.72.067l-43.076-9.567Q780 840 762.318 849.578T727 864l-7.5 52q-.947 6.281-4.816 9.641Q710.816 929 705 929h-26.182q-6.134 0-10.002-3.359-3.869-3.36-4.816-9.641l-7.5-52Z"/></svg>