<svg xmlns="http://www.w3.org/2000/svg" height="24" viewBox="0 96 960 960" width="24"><path d="M476 580ZM60.5 960.5l56-201q-20-42.5-28.75-87.954Q79 626.092 79 579.119q0-82.936 31.263-155.37 31.263-72.435 85.25-126.342Q249.5 243.5 321.837 212.25 394.175 181 477 181q82.825 0 155.163 31.25Q704.5 243.5 758.487 297.4q53.987 53.9 85.25 126.325Q875 496.15 875 579.075T843.75 734.25q-31.25 72.25-85.157 126.237-53.907 53.987-126.342 85.25Q559.817 977 476.908 977q-47.156 0-92.532-8.75T296.5 939.5l-201 56q-16.5 4.5-28-7t-7-28ZM477.175 738q12.325 0 20.575-8.375T506 709v-97h98q12.25 0 20.625-8.425 8.375-8.426 8.375-20.5 0-12.075-8.375-20.325T604 554.5h-98V456q0-11.675-8.425-20.088-8.426-8.412-20.75-8.412-12.325 0-20.325 8.412-8 8.413-8 20.088v98.5H350q-12.25 0-20.375 8.535t-8.125 20.39q0 11.856 8.125 20.216Q337.75 612 350 612h98.5v97q0 12.25 8.175 20.625 8.176 8.375 20.5 8.375ZM133.5 922.5l137-37.5q4.853-2 9.177-3t9.178-1q11.145 0 20.645 2t19.5 6q36 14 72.969 22.25 36.969 8.25 74.994 8.25Q618.5 919.5 718 820.033t99.5-241Q817.5 437.5 718.033 338t-241-99.5Q335.5 238.5 236 337.769q-99.5 99.268-99.5 241.737 0 37.994 5.25 75.994T167 727q7 13.696 7.5 29.1.5 15.404-3.537 29.277L133.5 922.5Z"/></svg>