<svg xmlns="http://www.w3.org/2000/svg" height="24" viewBox="0 96 960 960" width="24"><path d="M479.858 901q-19.358 0-33.108-13.892Q433 873.217 433 853.858q0-19.358 13.892-33.108Q460.783 807 480.142 807q19.358 0 33.108 13.892Q527 834.783 527 854.142q0 19.358-13.892 33.108Q499.217 901 479.858 901Zm0-278q-19.358 0-33.108-13.892Q433 595.217 433 575.858q0-19.358 13.892-33.108Q460.783 529 480.142 529q19.358 0 33.108 13.892Q527 556.783 527 576.142q0 19.358-13.892 33.108Q499.217 623 479.858 623Zm0-278q-19.358 0-33.108-13.892Q433 317.217 433 297.858q0-19.358 13.892-33.108Q460.783 251 480.142 251q19.358 0 33.108 13.892Q527 278.783 527 298.142q0 19.358-13.892 33.108Q499.217 345 479.858 345Z"/></svg>