<svg xmlns="http://www.w3.org/2000/svg" height="24" viewBox="0 96 960 960" width="24"><path d="M681.5 693 640 651.5q16.5-20.5 26-45.75T679 553q1.814-11.167 10.182-18.583Q697.551 527 707.847 527q13.153 0 21.653 8.953 8.5 8.954 7 21.547-4.5 37-18.5 71.75T681.5 693ZM554 566l-51-50V279.038q0-17.463-11.489-29.001-11.49-11.537-29.213-11.537t-29.01 11.431Q422 261.362 422 279v155l-57.5-57.5V279q0-40.833 28.515-69.417Q421.529 181 462.265 181q40.735 0 69.485 28.583Q560.5 238.167 560.5 279v248.23q0 7.103-1.5 19.186-1.5 12.084-5 19.584Zm-94.5-94.5Zm350.5 505L58.5 225q-8-7.444-8-18.222Q50.5 196 58.25 188q7.75-8 18.006-8 10.255 0 18.244 8L847 940.5q8 7.989 8 17.994 0 10.006-8 17.756-8 8.25-18.961 8.25-10.961 0-18.039-8ZM433.5 903V795.865Q336 786 267.5 719t-79-161.5q-2-12.5 7.045-21.5 9.046-9 22.455-9 9.5 0 17.75 7.5T246 553q10.053 80.713 71.588 134.107Q379.124 740.5 462.289 740.5q37.711 0 73.071-12.588Q570.721 715.325 599.5 693l41.5 41.5q-31 26-69.014 41.568Q533.972 791.635 491 796v107q0 12.25-8.463 20.625T462.325 932q-12.325 0-20.575-8.375T433.5 903Z"/></svg>