<svg xmlns="http://www.w3.org/2000/svg" height="24" viewBox="0 96 960 960" width="24"><path d="M242.206 811.5 133.5 920q-13.5 13.5-31 6.172T85 900V238q0-21.969 17.266-39.734Q119.531 180.5 142.5 180.5H578q-3.5 13.5-5.5 28.25T571 238H142.5v516h675V409.5q15.794-5 29.897-12.75Q861.5 389 875 379v375q0 21.969-17.766 39.734Q839.469 811.5 817.5 811.5H242.206ZM142.5 238v516-516Zm617.441 101Q714.5 339 683 307.353t-31.5-77.25q0-45.603 31.706-77.103 31.706-31.5 77-31.5t77.044 31.689Q869 184.877 869 230.147 869 276 837.191 307.5q-31.809 31.5-77.25 31.5Z"/></svg>