<svg xmlns="http://www.w3.org/2000/svg" height="24" viewBox="0 96 960 960" width="24"><path d="M201.858 623q-19.358 0-33.108-13.892Q155 595.217 155 575.858q0-19.358 13.892-33.108Q182.783 529 202.142 529q19.358 0 33.108 13.892Q249 556.783 249 576.142q0 19.358-13.892 33.108Q221.217 623 201.858 623Zm278 0q-19.358 0-33.108-13.892Q433 595.217 433 575.858q0-19.358 13.892-33.108Q460.783 529 480.142 529q19.358 0 33.108 13.892Q527 556.783 527 576.142q0 19.358-13.892 33.108Q499.217 623 479.858 623Zm278 0q-19.358 0-33.108-13.892Q711 595.217 711 575.858q0-19.358 13.892-33.108Q738.783 529 758.142 529q19.358 0 33.108 13.892Q805 556.783 805 576.142q0 19.358-13.892 33.108Q777.217 623 757.858 623Z"/></svg>