<svg xmlns="http://www.w3.org/2000/svg" height="24px" viewBox="0 -960 960 960" width="24px" fill="#000000"><path d="M263-45q-24.19 0-40.84-16.89-16.66-16.89-16.66-40.61v-755q0-22.97 17.27-40.23Q240.03-915 263-915h433.5q23.72 0 40.61 16.89T754-857.5v755q0 23.72-16.89 40.61T696.5-45H263Zm0-57.5h433.5v-755H263v755Zm0 0v-755 755ZM330-717.5h300q12.25 0 20.63-8.43 8.37-8.42 8.37-20.5 0-12.07-8.37-20.32-8.38-8.25-20.63-8.25H330q-12.25 0-20.37 8.53-8.13 8.54-8.13 20.4 0 11.85 8.13 20.21Q317.75-717.5 330-717.5Z"/></svg>
