<svg xmlns="http://www.w3.org/2000/svg" height="24" viewBox="0 96 960 960" width="24"><path d="M192 855q-12.25 0-20.375-8.535t-8.125-20.39q0-11.856 8.125-20.216Q179.75 797.5 192 797.5h55V482q0-29.098 8.25-57.049T278.5 371.5l43 43q-8 16.5-12.5 33.025t-4.5 34.551V797.5l319.5-1-523-522q-9-8.5-9-19.75t8.75-20.25q8.75-9 20-9T141 234l678.404 679.404Q828 922 827.75 933.483q-.25 11.484-8.25 20.017-8.989 8.5-20.244 8.5-11.256 0-19.787-8.524L681 855H192Zm522.5-129L657 668.5V491q0-74.794-50.5-126.147Q556 313.5 482.355 313.5q-34.855 0-67.855 11.75-33 11.75-60 41.25L313 325q28.5-27 55.84-41.798 27.341-14.797 56.16-21.94v-24.758q0-22.89 16.015-38.947 16.014-16.057 38.97-16.057t38.986 16.057Q535 213.614 535 236.594v25.108Q612.5 278 663.5 342.75t51 148.25v235Zm-250-88.5Zm16 335q-32.5 0-55.75-23.25T401.5 893.5h158q0 32.5-23.25 55.75T480.5 972.5ZM506 517Z"/></svg>