<svg xmlns="http://www.w3.org/2000/svg" height="24" viewBox="0 96 960 960" width="24"><path d="M779.5 953.5 681 855H192q-12.5 0-20.5-8.359-8-8.36-8-20.391 0-12.031 8-20.391 8-8.359 20.5-8.359h55V491q0-15.636 2.5-33.568t6-28.932L101.096 274.629Q92 265.5 92 254.5q0-11 8.75-20t20.25-9q11.5 0 20.094 8.594l678.312 679.312Q828 922 828 933.5q0 11.5-8.5 20-8.545 8.5-20.023 8.5-11.477 0-19.977-8.5Zm-299 19q-32.5 0-55.75-23.25T401.5 893.5h158q0 32.5-23.25 55.75T480.5 972.5Zm234-246.5L313 325q28.5-27 55.75-41.649Q396 268.702 425 261.631v-28.833Q425 210.5 441.542 196q16.541-14.5 38.958-14.5 22 0 38.25 14.5T535 232.842v28.884Q612.5 278 663.5 342.75t51 148.25v235Z"/></svg>