<svg xmlns="http://www.w3.org/2000/svg" height="24" viewBox="0 96 960 960" width="24"><path d="M192 855q-12.25 0-20.375-8.535t-8.125-20.39q0-11.856 8.125-20.216Q179.75 797.5 192 797.5h55V491q0-81 49-146.75t129-82.75V233q0-22.958 15.647-37.479t39-14.521Q503 181 519 195.521T535 233v28.5q80 17 129.75 82.75T714.5 491v306.5H768q12.25 0 20.625 8.463T797 826.175q0 12.325-8.375 20.575T768 855H192Zm288-292.5Zm-.25 410q-31.75 0-55.25-23.25T401 893.5h158q0 32.5-23.25 55.75t-56 23.25Zm-175.25-175H657V491.095Q657 416 606.5 364.75t-125-51.25q-74.294 0-125.647 51.353Q304.5 416.206 304.5 491v306.5Z"/></svg>