<svg xmlns="http://www.w3.org/2000/svg" height="24" viewBox="0 -960 960 960" width="24"><path d="M142.5-164.5q-22.969 0-40.234-17.266Q85-199.031 85-222v-516q0-22.969 17.266-40.234Q119.531-795.5 142.5-795.5h675q22.969 0 40.234 17.266Q875-760.969 875-738v516q0 22.969-17.266 40.234Q840.469-164.5 817.5-164.5h-675Zm0-57.5h675v-433h-675v433ZM363-438.5l-84.068-84.068q-8.432-8.432-8.168-19.977.265-11.546 9.113-20.433 8.848-8.522 20.311-8.272 11.464.25 20.312 8.75L424-459q8.5 8.727 8.5 20.364 0 11.636-8.5 20.136l-104 104q-8.5 9-20 8.75t-19.978-8.728Q271-323 271-334.25q0-11.25 9-20.25l83-84ZM520-290q-12.5 0-20.5-8t-8-20.5q0-12.5 8-20.75t20.5-8.25h160q12.5 0 20.75 8.25T709-318.5q0 12.5-8.25 20.5T680-290H520Z"/></svg>