<svg xmlns="http://www.w3.org/2000/svg" height="24" viewBox="0 96 960 960" width="24"><path d="M182 931.5q-22.969 0-40.234-17.266Q124.5 896.969 124.5 874V278q0-22.969 17.266-40.234Q159.031 220.5 182 220.5h247q11.675 0 20.087 8.463 8.413 8.463 8.413 20.212 0 12.325-8.413 20.575Q440.675 278 429 278H182v596h596V627q0-11.675 8.425-20.088 8.426-8.412 20.5-8.412 12.075 0 20.325 8.412 8.25 8.413 8.25 20.088v247q0 22.969-17.266 40.234Q800.969 931.5 778 931.5H182Zm181.13-238.891Q355 684.5 354.5 673.25q-.5-11.25 8.438-20.188L738 278H544q-12.25 0-20.625-8.425-8.375-8.426-8.375-20.5 0-12.075 8.375-20.325T544 220.5h263q12.475 0 20.487 8.013Q835.5 236.525 835.5 249v263q0 12.25-8.463 20.625T806.825 541q-12.325 0-20.575-8.375T778 512V319L403 694q-8.326 8-19.913 8t-19.957-9.391Z"/></svg>