<svg xmlns="http://www.w3.org/2000/svg" height="24" viewBox="0 96 960 960" width="24"><path d="M757.325 654.5Q745 654.5 737 646.125t-8-20.625v-100H628.5q-12.25 0-20.375-8.535T600 496.575q0-11.856 8.125-20.216Q616.25 468 628.5 468H729V367.5q0-11.675 8.175-20.088 8.176-8.412 20.5-8.412 12.325 0 20.575 8.412 8.25 8.413 8.25 20.088V468h100q12.25 0 20.625 8.463t8.375 20.212q0 12.325-8.375 20.575T886.5 525.5h-100v100q0 12.25-8.425 20.625-8.426 8.375-20.75 8.375Zm-397.075-79Q295 575.5 254 534.522t-41-106.5q0-65.522 40.984-106.522 40.985-41 106.516-41 65 0 106.25 40.978t41.25 106.5q0 65.522-41.25 106.522t-106.5 41ZM73.5 889.5q-12.475 0-20.487-8.013Q45 873.475 45 861v-62.545q0-34.312 17.523-62.236 17.524-27.924 49.499-41.73Q186 662 243.338 648.5q57.339-13.5 116.75-13.5 59.412 0 116.836 13.5 57.423 13.5 131.054 45.989Q639.5 709 657.75 736.49T676 798.371V861q0 12.475-8.194 20.487-8.194 8.013-20.306 8.013h-574Zm29-57.5h516v-33.262q0-16.28-8.25-31.009T585 746q-70-33.5-118.67-43.5t-105.825-10Q303 692.5 254.25 703q-48.75 10.5-119.75 43-15 7-23.5 21.729t-8.5 31.009V832Zm258-314q39 0 64.5-25.5t25.5-64.5q0-39-25.5-64.5T360.5 338q-39.5 0-64.75 25.5T270.5 428q0 39 25.25 64.5T360.5 518Zm0-90Zm0 264.5Z"/></svg>