<svg xmlns="http://www.w3.org/2000/svg" height="24" viewBox="0 -960 960 960" width="24"><path d="M762.107-409.152q-13.137 0-21.448-8.788-8.311-8.787-8.311-21.647v-97.131h-97.63q-13.064 0-21.499-8.947-8.436-8.947-8.436-21.413 0-12.669 8.436-21.339 8.435-8.67 21.499-8.67h97.63v-97.631q0-12.488 8.486-21.211 8.487-8.723 21.505-8.723 13.018 0 21.698 8.723 8.681 8.723 8.681 21.211v97.631h97.13q12.86 0 21.647 8.774 8.788 8.774 8.788 21.217 0 13.018-8.788 21.698-8.787 8.68-21.647 8.68h-97.13v97.131q0 12.86-8.838 21.647-8.838 8.788-21.773 8.788Zm-400.661-74.457q-68.048 0-110.758-42.603-42.71-42.603-42.71-110.804 0-68.202 42.66-110.876 42.659-42.674 110.939-42.674 67.749 0 110.673 42.652 42.924 42.652 42.924 110.853 0 68.202-42.89 110.827-42.889 42.625-110.838 42.625ZM72.543-157.413q-14.149 0-23.357-9.208t-9.208-23.357v-64.841q0-36.154 18.527-65.345 18.526-29.19 51.843-43.977 74.456-32.729 132.502-46.348 58.046-13.62 118.434-13.62 60.368 0 118.509 13.62 58.141 13.619 132.011 46.348 33.039 15.186 52.205 43.96 19.165 28.774 19.165 65.183v65.02q0 14.149-9.389 23.357-9.39 9.208-23.176 9.208H72.543Zm33.305-65.63h511.695v-30.632q0-16.139-8.369-30.752-8.37-14.613-25.131-21.508Q515-338.717 466.929-348.478q-48.072-9.761-105.347-9.761-57.147 0-105.658 10.261t-118.076 42.043q-15.239 6.895-23.62 21.508-8.38 14.613-8.38 30.752v30.632Zm255.72-326.196q38.171 0 63.073-24.866 24.902-24.865 24.902-62.974 0-38.207-24.865-63.031-24.865-24.825-62.974-24.825-38.791 0-63.324 24.836-24.532 24.835-24.532 62.902 0 38.165 24.524 63.061 24.524 24.897 63.196 24.897Zm.128-87.848Zm0 278.848Z"/></svg>