<svg xmlns="http://www.w3.org/2000/svg" height="24" viewBox="0 96 960 960" width="24"><path d="M267.529 624.5q20.221 0 34.346-14.154Q316 596.191 316 575.971q0-20.221-14.154-34.346-14.155-14.125-34.375-14.125-20.221 0-34.346 14.154Q219 555.809 219 576.029q0 20.221 14.154 34.346 14.155 14.125 34.375 14.125Zm212.5 0q20.221 0 34.346-14.154 14.125-14.155 14.125-34.375 0-20.221-14.154-34.346-14.155-14.125-34.375-14.125-20.221 0-34.346 14.154-14.125 14.155-14.125 34.375 0 20.221 14.154 34.346 14.155 14.125 34.375 14.125Zm211.5 0q20.221 0 34.346-14.154Q740 596.191 740 575.971q0-20.221-14.154-34.346-14.155-14.125-34.375-14.125-20.221 0-34.346 14.154Q643 555.809 643 576.029q0 20.221 14.154 34.346 14.155 14.125 34.375 14.125ZM480.33 971q-81.704 0-153.629-31.263t-125.563-85Q147.5 801 116.25 729.136 85 657.272 85 575.564q0-81.789 31.263-153.789 31.263-71.999 85-125.387Q255 243 326.864 212q71.864-31 153.572-31 81.789 0 153.795 31.132 72.005 31.131 125.387 84.5Q813 350 844 422.023q31 72.023 31 153.647 0 81.705-31.013 153.629-31.013 71.925-84.5 125.379-53.487 53.454-125.51 84.888Q561.954 971 480.33 971Z"/></svg>