<svg xmlns="http://www.w3.org/2000/svg" height="24" viewBox="0 96 960 960" width="24"><path d="M612.5 852q-24.188 0-40.844-16.891Q555 818.219 555 794.5v-437q0-23.719 16.656-40.609Q588.312 300 612.5 300H670q23.719 0 40.609 16.891Q727.5 333.781 727.5 357.5v437q0 23.719-16.891 40.609Q693.719 852 670 852h-57.5Zm-322 0q-24.188 0-40.844-16.891Q233 818.219 233 794.5v-437q0-23.719 16.656-40.609Q266.312 300 290.5 300H348q23.719 0 40.609 16.891Q405.5 333.781 405.5 357.5v437q0 23.719-16.891 40.609Q371.719 852 348 852h-57.5Z"/></svg>