<svg xmlns="http://www.w3.org/2000/svg" height="22" viewBox="0 -960 960 960" width="22"><path d="M479.825-438.5q-12.325 0-20.325-8.375t-8-20.625v-344q0-11.675 8.175-20.088 8.176-8.412 20.5-8.412 12.325 0 20.575 8.412Q509-823.175 509-811.5v344q0 12.25-8.425 20.625-8.426 8.375-20.75 8.375Zm.243 316q-74.068 0-138.818-28-64.75-28-112.75-76t-76-112.704q-28-64.704-28-138.796 0-70 27.731-133.75 27.732-63.75 77.167-114.06 9.102-9.19 22.161-9.69 13.059-.5 21.777 8.321 9.164 9.295 7.414 21.237Q279-694 270.5-685.5 228-644 205-590.637q-23 53.364-23 112.761 0 124.233 86.937 211.055Q355.875-180 480.116-180t211.063-86.933Q778-353.867 778-478.102q0-59.398-22.394-112.74Q733.212-644.185 691.5-686q-9-9-10.25-21.25T689-727.5q9.5-9.5 22.75-7.75T735-723.81q48 50.31 74.25 113.346t26.25 132.492q0 73.972-28 138.722-28 64.75-76 112.75t-112.682 76q-64.683 28-138.75 28Z"/></svg>