<svg xmlns="http://www.w3.org/2000/svg" height="24" viewBox="0 96 960 960" width="24"><path d="M800.963 567.5q-10.463 0-18.769-7.531-8.305-7.531-9.694-19.469-14-102.5-87.25-175.75T509 277.5q-11.438-1.923-18.969-10.212Q482.5 259 482.5 247.5q0-12 8.5-20.75t21-6.75q125.5 14 214.5 103T830 537.5q1.5 13-7.319 21.5-8.82 8.5-21.718 8.5Zm-170.527 0q-9.436 0-17.936-6.5t-11-16.5q-10-35-35.75-60.5t-60.25-35.5q-10.5-3-16.75-10.25t-6.25-17.732q0-14.545 9.567-23.032Q501.633 389 515 392q53.007 12.653 91.427 51.323Q644.847 481.993 659 535q3 12.867-5.6 22.683-8.6 9.817-22.964 9.817ZM791 931q-119.5 0-238.5-59.25t-214-154.25q-95-95-154.5-214t-59.5-238.612q0-18.388 12.964-31.388 12.965-13 31.536-13h136.5q14 0 24.25 9.25T343 255l27 124q2 13-.75 24.5t-10.25 19l-99 100q56 93 125 161.25T542.5 801l95.5-98q9.5-10.5 21.25-14.75T683 687l117.5 25.5q15 3 25 15t10 28v131q0 18.571-12.964 31.536Q809.571 931 791 931Z"/></svg>