<svg xmlns="http://www.w3.org/2000/svg" height="24" viewBox="0 96 960 960" width="24"><path d="M480.022 575.5q-65.522 0-106.522-40.978t-41-106.5q0-65.522 40.978-106.522t106.5-41q65.522 0 106.522 40.978t41 106.5q0 65.522-40.978 106.522t-106.5 41ZM738 889.5H222q-23.719 0-40.609-16.891Q164.5 855.719 164.5 832v-33.515q0-37.485 18.75-63.985t48.431-40.174Q298 665 358.5 650T480 635q61 0 121 15.25t126.399 44.433q30.823 13.637 49.462 39.854Q795.5 760.753 795.5 798.47v33.768q0 23.45-16.891 40.356Q761.719 889.5 738 889.5ZM222 832h516v-33.372q0-16.318-9.75-30.973Q718.5 753 705 746q-64-30.5-116.294-42t-108.575-11.5Q423.5 692.5 370.5 704t-116 42q-14 7-23.25 21.729T222 798.738V832Zm258-314q39 0 64.5-25.5T570 428q0-39-25.5-64.5T480 338q-39 0-64.5 25.5T390 428q0 39 25.5 64.5T480 518Zm0-90Zm0 404Z"/></svg>