<svg xmlns="http://www.w3.org/2000/svg" height="24" viewBox="0 96 960 960" width="24"><path d="M479.5 786.5q71.75 0 119.625-47.875T647 619q0-71-47.875-118.75T479.5 452.5q-71.75 0-119.125 47.75T313 619q0 71.75 47.375 119.625T479.5 786.5Zm-337 145q-22.969 0-40.234-17.266Q85 896.969 85 874V364.5q0-21.969 17.266-39.734Q119.531 307 142.5 307h147l54.91-66.5q7.59-10 19.106-15 11.515-5 24.984-5h183q13.469 0 24.984 5 11.516 5 19.516 15l54.5 66.5h147q21.969 0 39.734 17.766Q875 342.531 875 364.5V874q0 22.969-17.766 40.234Q839.469 931.5 817.5 931.5h-675Zm675-57.5V364.5h-675V874h675ZM480 619.5Z"/></svg>