<svg xmlns="http://www.w3.org/2000/svg" height="24" viewBox="0 96 960 960" width="24"><path d="M180 547q-23.719 0-40.609-16.656Q122.5 513.688 122.5 489.5V276q0-23.719 16.891-40.609Q156.281 218.5 180 218.5h214q23.719 0 40.609 16.891Q451.5 252.281 451.5 276v213.5q0 24.188-16.891 40.844Q417.719 547 394 547H180Zm0-57.5h214V276H180v213.5Zm0 444q-23.719 0-40.609-16.891Q122.5 899.719 122.5 876V662q0-23.719 16.891-40.609Q156.281 604.5 180 604.5h214q23.719 0 40.609 16.891Q451.5 638.281 451.5 662v214q0 23.719-16.891 40.609Q417.719 933.5 394 933.5H180Zm0-57.5h214V662H180v214Zm386.5-329q-24.188 0-40.844-16.656Q509 513.688 509 489.5V276q0-23.719 16.656-40.609Q542.312 218.5 566.5 218.5H780q23.719 0 40.609 16.891Q837.5 252.281 837.5 276v213.5q0 24.188-16.891 40.844Q803.719 547 780 547H566.5Zm0-57.5H780V276H566.5v213.5Zm204.048 444q-6.048 0-10.298-4.15T756 918.786v-52.572q0-5.714 4.15-10.214t10.564-4.5h52.238q6.048 0 10.298 4.5t4.25 10.214v52.655q0 6.131-4.15 10.381t-10.564 4.25h-52.238Zm-246.988-246q-6.06 0-10.31-4.15-4.25-4.15-4.25-10.564v-53.572q0-5.714 4.15-10.214t10.493-4.5h52.214q5.643 0 10.143 4.5 4.5 4.5 4.5 10.214v53.655q0 6.131-4.5 10.381t-10.143 4.25H523.56Zm81.488 81.5q-6.048 0-10.298-4.15t-4.25-10.564v-52.238q0-6.048 4.15-10.298t10.564-4.25h53.238q6.048 0 10.298 4.15t4.25 10.564v52.238q0 6.048-4.15 10.298T658.286 769h-53.238Zm-81.488 82.5q-6.06 0-10.31-4.15-4.25-4.15-4.25-10.493v-53.214q0-5.643 4.15-10.143 4.15-4.5 10.493-4.5h52.214q5.643 0 10.143 4.5 4.5 4.5 4.5 10.143v53.297q0 6.06-4.5 10.31-4.5 4.25-10.143 4.25H523.56Zm81.488 82q-6.048 0-10.298-4.15t-4.25-10.564v-52.572q0-5.714 4.15-10.214t10.564-4.5h53.238q6.048 0 10.298 4.5t4.25 10.214v52.655q0 6.131-4.15 10.381t-10.564 4.25h-53.238Zm82.583-82q-6.131 0-10.381-4.15T673 836.857v-53.214q0-5.643 4.15-10.143 4.15-4.5 10.564-4.5h53.572q5.714 0 10.214 4.5t4.5 10.143v53.297q0 6.06-4.5 10.31-4.5 4.25-10.214 4.25h-53.655Zm0-164q-6.131 0-10.381-4.15T673 672.786v-53.572q0-5.714 4.15-10.214t10.564-4.5h53.572q5.714 0 10.214 4.5t4.5 10.214v53.655q0 6.131-4.5 10.381t-10.214 4.25h-53.655Zm82.917 81.5q-6.048 0-10.298-4.15T756 754.286v-52.238q0-6.048 4.15-10.298t10.564-4.25h52.238q6.048 0 10.298 4.15t4.25 10.564v52.238q0 6.048-4.15 10.298T822.786 769h-52.238Z"/></svg>