<svg xmlns="http://www.w3.org/2000/svg" height="22" viewBox="0 -960 960 960" width="22"><path d="M142.5-279v97h675v-97h-675Zm0-437h128q-5-9-8.25-22.5T259-763q0-46.083 32.067-78.292Q323.133-873.5 367.8-873.5q30.33 0 56.015 15.25Q449.5-843 464-819.5l16.5 26 16.5-26q15.5-24.5 39.881-39.25t52.513-14.75q47.064 0 79.335 31.71Q701-810.081 701-762.849q0 10.672-3.25 21.76Q694.5-730 690-716h127.5q22.969 0 40.234 17.266Q875-681.469 875-658.5V-182q0 22.969-17.266 40.234Q840.469-124.5 817.5-124.5h-675q-22.969 0-40.234-17.266Q85-159.031 85-182v-476.5q0-22.969 17.266-40.234Q119.531-716 142.5-716Zm0 332.5h675v-275h-250L651-544q7.5 9.5 5 21.25t-12 19.25q-9.467 7.5-21.325 5.556-11.858-1.945-19.175-12.556L480-681.5l-123.5 171q-6.834 10.833-18.476 12.667Q326.382-496 316.75-503.5q-10.25-7.5-12.5-19.25T309.5-544l83-114.5h-250v275Zm227-326.5q22 0 37.5-15.5t15.5-37.5q0-22-15.5-37.5T369.5-816q-22 0-37.5 15.5T316.5-763q0 22 15.5 37.5t37.5 15.5Zm220 0q22.95 0 38.475-15.5Q643.5-741 643.5-763t-15.525-37.5Q612.45-816 589.5-816q-21 0-36.5 15.5T537.5-763q0 22 15.5 37.5t36.5 15.5Z"/></svg>