<svg xmlns="http://www.w3.org/2000/svg" height="22" viewBox="0 -960 960 960" width="22"><path d="M480.433-164.5q-131.583 0-223.758-92.216Q164.5-348.932 164.5-480.082q0-131.149 92.175-223.284Q348.85-795.5 480.5-795.5q84 0 147.75 34.25T738.5-666.5v-129H796V-547H547.5v-57.5H713q-38.032-60.033-96.537-96.767Q557.959-738 480.539-738 372-738 297-663.015q-75 74.986-75 183.25 0 108.265 74.875 183.015Q371.75-222 480.331-222q82.298 0 150.734-47 68.435-47 95.623-124.5H786q-28.5 103-113.49 166-84.991 63-192.077 63Z"/></svg>