<?xml version="1.0" encoding="utf-8"?>
<svg height="24" viewBox="-44.134 -43.207 588.823 585.294" width="24" xmlns="http://www.w3.org/2000/svg">
  <g id="Light-S" transform="matrix(8.710668563842773, 0, 0, 8.710668563842773, -85.06543731689453, 558.4567260742188)">
    <path d="M 15.124 -6.711 C 18.033 -6.711 20.399 -9.129 20.399 -11.986 C 20.399 -14.96 18.082 -17.295 15.124 -17.295 C 12.232 -17.295 9.766 -14.862 9.766 -11.889 C 9.766 -9.129 12.281 -6.711 15.124 -6.711 Z M 10.714 -30.066 C 10.714 -28.585 11.962 -27.352 13.428 -27.352 C 22.787 -27.352 30.392 -19.732 30.392 -10.388 C 30.392 -8.908 31.64 -7.675 33.106 -7.675 C 34.571 -7.675 35.819 -8.908 35.819 -10.388 C 35.819 -22.746 25.718 -32.764 13.428 -32.764 C 11.962 -32.764 10.714 -31.565 10.714 -30.066 Z"/>
  </g>
</svg>