<?xml version="1.0" encoding="utf-8"?>
<svg height="24" viewBox="-44.134 -43.207 588.823 585.294" width="24" xmlns="http://www.w3.org/2000/svg">
  <g id="Light-S" transform="matrix(8.710668563842773, 0, 0, 8.710668563842773, -85.06543731689453, 558.4567260742188)">
    <path d="M15.1235-6.71093C18.0332-6.71093 20.3989-9.1289 20.3989-11.9863C20.3989-14.96 18.082-17.2954 15.1235-17.2954C12.2324-17.2954 9.76562-14.8623 9.76562-11.8887C9.76562-9.1289 12.2813-6.71093 15.1235-6.71093ZM10.7143-30.0659C10.7143-28.5854 11.9624-27.3525 13.4277-27.3525C22.7871-27.3525 30.3921-19.7324 30.3921-10.3882C30.3921-8.90771 31.6401-7.6748 33.1055-7.6748C34.5708-7.6748 35.8189-8.90771 35.8189-10.3882C35.8189-22.7456 25.7178-32.7642 13.4277-32.7642C11.9624-32.7642 10.7143-31.5649 10.7143-30.0659ZM10.7143-45.2515C10.7143-43.771 11.9624-42.5381 13.4277-42.5381C31.2158-42.5381 45.5776-28.1611 45.5776-10.3882C45.5776-8.90771 46.8257-7.6748 48.291-7.6748C49.7564-7.6748 51.0044-8.90771 51.0044-10.3882C51.0044-31.1406 34.1465-47.9497 13.4277-47.9497C11.9624-47.9497 10.7143-46.7505 10.7143-45.2515ZM10.7143-61.4136C10.7143-59.9331 11.9624-58.7002 13.4277-58.7002C40.0874-58.7002 61.7397-37.0327 61.7397-10.3882C61.7397-8.90771 62.9878-7.6748 64.4531-7.6748C65.9185-7.6748 67.1665-8.90771 67.1665-10.3882C67.1665-40.0273 43.0181-64.1118 13.4277-64.1118C11.9624-64.1118 10.7143-62.9126 10.7143-61.4136Z"/>
  </g>
</svg>