<svg xmlns="http://www.w3.org/2000/svg" height="24" viewBox="0 96 960 960" width="24"><path d="M479.895 772Q494 772 504 762.105q10-9.894 10-24Q514 724 504.105 714q-9.894-10-24-10Q466 704 456 713.895q-10 9.894-10 24Q446 752 455.895 762q9.894 10 24 10ZM480 631q12.5 0 20.75-8.25T509 602V398.5q0-12-8.25-20.25T480 370q-12.5 0-20.5 8.25t-8 20.25V602q0 12.5 8 20.75T480 631ZM356 931.5q-11.643 0-22.616-4.739Q322.411 922.022 314.5 914L142 741.5q-8.022-7.911-12.761-18.884Q124.5 711.643 124.5 700V452q0-11.643 4.739-22.616Q133.978 418.411 142 410.5L314.5 238q7.911-8.022 18.884-12.761Q344.357 220.5 356 220.5h248q11.643 0 22.616 4.739Q637.589 229.978 645.5 238L818 410.5q8.022 7.911 12.761 18.884Q835.5 440.357 835.5 452v248q0 11.643-4.739 22.616Q826.022 733.589 818 741.5L645.5 914q-7.911 8.022-18.884 12.761Q615.643 931.5 604 931.5H356Z"/></svg>