<svg xmlns="http://www.w3.org/2000/svg" width="21.3px" height="24px" viewBox="0 0 853.253 960" fill="#000000"><path d="M254.803 734.984Q408.858 636.841 498.314 515.126Q587.77 393.396 587.77 273.824Q587.77 196.995 557.094 149.571Q526.402 102.148 475.435 102.148Q371.325 102.148 304.122 239.093Q236.935 376.022 236.935 582.066Q236.935 627.725 241.303 665.637Q245.671 703.549 254.803 734.984ZM383.638 908.571Q332.144 908.571 293.919 883.599Q255.693 858.61 231.1 810.297Q197.243 829.698 161.292 847.714Q125.342 865.714 88.583 881.819Q77.671 886.253 67.781 883.269Q57.891 880.302 53.457 869.39Q49.023 858.495 54.281 849.033Q59.539 839.588 70.452 835.154Q107.21 819.429 142.155 801.429Q177.083 783.429 210.166 763.137Q198.627 726.495 192.43 681.544Q186.215 636.593 186.215 584.604Q186.215 351.56 266.919 201.495Q347.622 51.429 475.435 51.429Q550.616 51.429 594.561 112.665Q638.49 173.918 638.49 273.709Q638.49 411.148 541.171 545.176Q443.853 679.203 275.342 784.566Q294.364 821.209 321.116 839.538Q347.869 857.852 382.369 857.852Q438.149 857.852 495.529 814.863Q552.908 771.89 600.71 694.286Q607.55 686.291 617.638 683.703Q627.71 681.099 637.353 685.533Q646.979 690.363 652.814 699.165Q658.649 707.984 657.891 719.637Q653.325 765.923 657.957 798.89Q662.589 831.857 678.561 861.148Q697.204 850.368 714.759 839.027Q732.314 827.67 755.144 808.154Q764.012 800.027 774.479 798.824Q784.946 797.621 793.814 804.478Q801.43 811.319 801.809 822.61Q802.188 833.885 793.682 840.742Q758.688 875.357 730.105 891.956Q701.507 908.571 674.507 908.571Q643.814 908.571 623.523 871.681Q603.248 834.775 600.825 779.489Q559.369 838.582 499.715 873.577Q440.061 908.571 383.638 908.571Z"/></svg>