<svg xmlns="http://www.w3.org/2000/svg" height="24" viewBox="0 96 960 960" width="24"><path d="M725.382 971.5q-46.382 0-79.132-32.93-32.75-32.93-32.75-79.221 0-6.678 1.5-16.33 1.5-9.652 4.5-17.373L317 650q-14.788 17.5-36.596 27.75Q258.596 688 236.038 688q-46.538 0-79.288-32.744T124 575.735q0-46.36 32.833-79.047Q189.667 464 235.935 464q22.846 0 43.705 8.75Q300.5 481.5 317 498.5l302.5-173.573q-3-7.056-4.5-15.875-1.5-8.82-1.5-17.052 0-46.333 32.868-79.167Q679.235 180 725.618 180q46.382 0 79.132 32.688 32.75 32.687 32.75 79.047 0 46.777-32.833 79.521Q771.833 404 725.315 404q-23.138 0-43.976-7.25Q660.5 389.5 645.5 372L343 539.5q2 7.786 3.502 18.66 1.502 10.875 1.502 18.098 0 7.222-1.502 14.961Q345 598.957 343 606.941L645.5 778.5q14.788-14.5 34.596-22.75 19.808-8.25 45.366-8.25 46.538 0 79.288 32.667 32.75 32.666 32.75 79.333t-32.868 79.333q-32.867 32.667-79.25 32.667Zm.153-625q22.752 0 38.609-15.891Q780 314.717 780 291.965t-15.891-38.609Q748.217 237.5 725.465 237.5t-38.609 15.891Q671 269.283 671 292.035t15.891 38.609q15.892 15.856 38.644 15.856Zm-489.5 284q22.753 0 38.609-15.891 15.856-15.892 15.856-38.644t-15.891-38.609Q258.717 521.5 235.965 521.5q-22.753 0-38.609 15.891-15.856 15.892-15.856 38.644t15.891 38.609q15.892 15.856 38.644 15.856Zm489.5 283.5q22.752 0 38.609-15.891Q780 882.217 780 859.465t-15.891-38.609Q748.217 805 725.465 805t-38.609 15.891Q671 836.783 671 859.535t15.891 38.609Q702.783 914 725.535 914Zm-.035-622ZM236 576Zm489.5 283.5Z"/></svg>