<svg xmlns="http://www.w3.org/2000/svg" height="24" viewBox="0 96 960 960" width="24"><path d="m321 853.5 159-95 159 96-42.5-180 140-121.5L552 536.5l-72-170L408.5 536 224 552l140 121-43 180.5Zm159-28L293.5 938q-8 5-16.75 4.5T261.5 937q-6.5-5-10-12.5t-1-17.5l49-212.5L135 551q-7.5-6.5-9.25-14.5t.25-16q2-8 9-13.25t16.5-6.25L369 482l84.5-200.5q3.5-8.5 11-13T480 264q8 0 15.5 4.5t11.5 13L591.5 482 809 501q9 1 16 6.25t9 13.25q2 8 .25 16T825 551L660.5 694.5 710 907q2 10-1.5 17.5t-10 12.5q-6.5 5-15.25 5.5T667 938L480 825.5Zm0-205Z"/></svg>