<svg xmlns="http://www.w3.org/2000/svg" width="32.2px" height="24px" viewBox="0 0 1288.8 960" fill="#000000"><path d="M384.708 731.312Q617.547 634.582 752.75 514.621Q887.954 394.643 887.954 276.793Q887.954 201.07 841.591 154.33Q795.202 107.589 718.171 107.589Q560.819 107.589 459.248 242.562Q357.702 377.519 357.702 580.596Q357.702 625.598 364.304 662.964Q370.906 700.33 384.708 731.312ZM579.429 902.4Q501.601 902.4 443.827 877.787Q386.054 853.158 348.883 805.54Q297.712 824.662 243.376 842.419Q189.04 860.16 133.484 876.032Q116.992 880.403 102.044 877.462Q87.096 874.538 80.394 863.783Q73.692 853.044 81.64 843.719Q89.587 834.41 106.08 830.04Q161.636 814.541 214.452 796.8Q267.243 779.059 317.243 759.06Q299.804 722.945 290.437 678.642Q281.045 634.338 281.045 583.098Q281.045 353.41 403.019 205.505Q524.994 57.6 718.171 57.6Q831.8 57.6 898.218 117.954Q964.612 178.325 964.612 276.679Q964.612 412.14 817.524 544.237Q670.437 676.335 415.75 780.18Q444.5 816.295 484.934 834.361Q525.368 852.411 577.511 852.411Q661.817 852.411 748.54 810.041Q835.263 767.687 907.511 691.2Q917.85 683.321 933.097 680.77Q948.319 678.203 962.893 682.573Q977.442 687.333 986.261 696.009Q995.08 704.701 993.934 716.187Q987.034 761.806 994.034 794.298Q1001.035 826.79 1025.176 855.66Q1053.352 845.035 1079.885 833.857Q1106.417 822.664 1140.922 803.428Q1154.325 795.419 1170.145 794.233Q1185.965 793.047 1199.368 799.806Q1210.878 806.548 1211.451 817.676Q1212.024 828.789 1199.169 835.547Q1146.278 869.664 1103.079 886.024Q1059.855 902.4 1019.047 902.4Q972.659 902.4 941.991 866.041Q911.347 829.666 907.685 775.176Q845.029 833.419 754.868 867.909Q664.707 902.4 579.429 902.4Z"/></svg>