<svg xmlns="http://www.w3.org/2000/svg" height="24" viewBox="0 -960 960 960" width="24"><path d="M512-491.5V-663q0-11.925-8.288-20.213-8.287-8.287-20.212-8.287-12.5 0-20.75 8.287-8.25 8.288-8.25 20.213v183q0 5.832 2 10.675 2 4.842 5.543 9.325l143.572 148.538Q614-301.5 627-302q13-.5 22-9.5 8.5-8.5 8.5-21t-8.458-21.458L512-491.5ZM480.064-85q-80.971 0-153.129-31.263-72.159-31.263-125.797-85Q147.5-255 116.25-327.023 85-399.046 85-479.936q0-80.971 31.263-153.129 31.263-72.159 85-125.797Q255-812.5 327.023-843.75 399.046-875 479.936-875q80.971 0 153.129 31.263 72.159 31.263 125.797 85Q812.5-705 843.75-632.977 875-560.954 875-480.064q0 80.971-31.263 153.129-31.263 72.159-85 125.797Q705-147.5 632.977-116.25 560.954-85 480.064-85Z"/></svg>