<?xml version="1.0" encoding="UTF-8" standalone="no"?>
<svg
   height="22"
   viewBox="0 -960 960 960"
   width="22"
   version="1.1"
   id="svg12"
   xmlns="http://www.w3.org/2000/svg">
  <defs
     id="defs16">
    <clipPath
       clipPathUnits="userSpaceOnUse"
       id="clipPath2185">
      <path
         id="path2187"
         style="fill:#ff0000;fill-opacity:1;fill-rule:nonzero;stroke:none;stroke-width:20"
         d="m 124.92188,-791.99219 v 678.55469 h 710.15624 v -678.55469 z m 273.39842,136.52345 c 2.0925,2.20568 4.19188,4.36138 6.28908,6.5625 4.15446,4.33864 8.25794,8.76104 12.34374,13.16404 4.31352,4.62604 8.58234,9.27856 12.85156,13.94532 3.9137,4.31316 7.83466,8.62532 11.75782,12.92968 3.60942,4.02222 7.23744,8.02038 10.85938,12.03126 l 1.7188,1.875 -5.42968,4.92188 c 2.66378,2.71444 5.31182,5.43992 7.96874,8.16406 L 437.5,-563.16406 c 3.41956,3.2741 6.86284,6.52394 10.27344,9.80468 l 2.92968,2.85156 -14.45312,15 -2.9297,-2.8125 c -6.00162,-5.77342 -12.00108,-11.57724 -18.04686,-17.30468 -5.52496,-5.1837 -11.09466,-10.28 -16.75782,-15.3125 -5.86394,-5.27294 -11.73266,-10.55864 -17.5,-15.9375 -3.88432,-3.6582 -7.7715,-7.33918 -11.44532,-11.21094 -1.0056,-1.0538 -1.9972,-2.11462 -3.04686,-3.125 l 7.5,-7.89062 c -1.273,-1.3286 -2.53486,-2.6672 -3.82814,-3.98438 -1.7612,-1.799 -3.5483,-3.59518 -5.3125,-5.39062 L 372.0703,-625 c -0.69346,-0.72564 -1.38538,-1.4527 -2.0703,-2.1875 z m 224.53126,223.35936 c 0.9826,1.1132 1.9362,2.25458 2.92968,3.35938 2.91788,3.29282 5.92946,6.48736 8.90626,9.72656 3.89364,4.23554 7.77618,8.46886 11.6797,12.69532 3.7,4.02378 7.40474,8.03338 11.1328,12.03124 3.37354,3.65988 6.81982,7.31594 10.23438,10.9375 3.27512,3.41006 6.54378,6.81068 9.80468,10.23438 3.57456,3.78316 7.14872,7.56502 10.70314,11.36718 2.8395,3.02138 5.67824,6.00006 8.5156,9.02344 l -12.77342,12.03126 c 1.0278,1.0954 2.05948,2.18786 3.08592,3.28124 l -3.9453,3.71094 c 0.517,0.7038 1.0352,1.399 1.1328,1.5234 2.09638,2.6244 4.2752,5.17098 6.44532,7.73438 l -1.5626,1.289 c 1.8168,2.1359 3.71086,4.20444 5.58594,6.28906 0.8736,0.9492 1.7802,1.8658 2.65624,2.8125 l 4.1797,-3.35938 c 3.86072,4.8052 7.71204,9.63206 11.60156,14.41406 3.648,4.48718 7.3114,8.9399 11.13282,13.28126 3.44768,4.00964 6.90086,8.03634 10.27342,12.10936 2.75386,3.32234 5.5229,6.61794 8.20314,10 3.03352,3.93656 6.03346,7.92398 7.73436,12.65626 -28.44458,22.73516 -22.95358,32.04664 -37.1875,16.79688 -3.88142,-4.2056 -7.78446,-8.42394 -11.67968,-12.6172 -5.85014,-6.31066 -11.68174,-12.5995 -17.57812,-18.86718 -6.38222,-6.80552 -12.78972,-13.5977 -19.10156,-20.46876 -3.99284,-4.4429 -8.08814,-8.87158 -11.44532,-13.82812 l 0.4688,-0.2734 c -4.95108,-4.81386 -9.89136,-9.64096 -14.84376,-14.45312 -3.89984,-3.82886 -7.8484,-7.62712 -11.60156,-11.60156 l 5.66406,-5.15626 c -0.5838,-0.575 -1.166,-1.1516 -1.7578,-1.7188 -6.97252,-6.68942 -13.99946,-13.32524 -21.1328,-19.84376 l -0.664,0.664 c -2.90518,-2.90764 -5.77948,-5.83774 -8.67188,-8.75 -1.0444,-0.8672 -2.0075,-1.8304 -3.08594,-2.65626 l 0.196,-0.2734 c -2.66686,-2.69546 -5.3578,-5.3666 -8.00782,-8.08594 -6.0431,-6.22992 -11.98244,-12.56114 -17.73438,-19.0625 -1.9964,-2.24302 -4.0094,-4.52014 -6.05468,-6.71874 l 29.21874,-27.3047 c 2.2725,2.44078 4.50126,4.93112 6.71876,7.42188 0.9412,1.0638 1.9192,2.09098 2.89064,3.125 z" />
    </clipPath>
  </defs>

  <path
     d="m321-202.5 159-95 159 96-42.5-180 140-121.5L552-519.5l-72-170L408.5-520 224-504l140 121-43 180.5Zm159-28L293.5-118q-8 5-16.75 4.5T261.5-119q-6.5-5-10-12.5t-1-17.5l49-212.5L135-505q-7.5-6.5-9.25-14.5t.25-16q2-8 9-13.25t16.5-6.25L369-574l84.5-200.5q3.5-8.5 11-13T480-792q8 0 15.5 4.5t11.5 13L591.5-574 809-555q9 1 16 6.25t9 13.25q2 8 .25 16T825-505L660.5-361.5 710-149q2 10-1.5 17.5t-10 12.5q-6.5 5-15.25 5.5T667-118L480-230.5Zm0-205Z"
     id="path404"
     clip-path="url(#clipPath2185)" />
  <path
     d="M 639.93733,-256.76064 132.69189,-763.03621 c -5.81926,-5.49596 -8.72889,-11.88098 -8.72889,-19.15506 0,-7.27407 2.82881,-13.82074 8.48643,-19.64 5.6576,-5.81926 12.12345,-8.72889 19.39752,-8.72889 7.27408,0 13.82074,2.74798 19.64,8.24395 l 657.96814,658.93802 c 5.55805,5.55804 8.25624,12.04942 8.09459,19.47415 -0.16165,7.42537 -2.82881,13.89671 -8.00148,19.41402 -5.81215,5.495965 -12.35688,8.243945 -19.63418,8.243945 -7.27796,0 -13.67494,-2.75573 -19.19094,-8.267215 L 640.02261,-255.61005 c 0,0 -0.6576,-1.96209 -0.0852,-1.15059 z"
     id="path2"
     style="stroke-width:0.969876" />
</svg>
