<svg xmlns="http://www.w3.org/2000/svg" height="24" viewBox="0 96 960 960" width="24"><path d="M479.75 971q-80.657 0-152.815-31.263-72.159-31.263-125.797-85Q147.5 801 116.25 728.956 85 656.913 85 576q0-81.407 31.263-153.315 31.263-71.909 85-125.547Q255 243.5 327.044 212.25 399.087 181 480 181q81.407 0 153.315 31.263 71.909 31.263 125.547 85Q812.5 351 843.75 422.837 875 494.675 875 576.25q0 80.656-31.263 152.815-31.263 72.159-85 125.797Q705 908.5 633.163 939.75 561.325 971 479.75 971ZM374.121 634.5Q430 634.5 470 594.379q40-40.121 40-96T469.879 402.5q-40.121-40-96-40T278 402.621q-40 40.121-40 96t40.121 95.879q40.121 40 96 40ZM672.444 681q43.556 0 74.306-30.694 30.75-30.693 30.75-74.25 0-43.556-30.694-74.306Q716.113 471 672.556 471 629 471 598.25 501.694q-30.75 30.693-30.75 74.25 0 43.556 30.694 74.306Q628.887 681 672.444 681ZM480.25 913.5q85.25 0 156.5-38.5T754.5 772.542Q734 766.5 714.475 762.25T672.662 758Q618 758 544.5 789.75t-121 118.75q14 2 28.083 3.5 14.084 1.5 28.667 1.5ZM344.5 885q31-69 73.5-105t58.5-47q-21.5-9-48.25-13t-54.75-4q-46.5 0-90.5 12.75T198.5 763q26.5 41 63.75 71.75T344.5 885Z"/></svg>