<svg xmlns="http://www.w3.org/2000/svg" height="24" viewBox="0 96 960 960" width="24"><path d="M772.625 909.63 532.66 669.5Q503 696 463.041 710t-83.883 14q-106.761 0-180.709-73.977-73.949-73.977-73.949-178.5T198.204 293q73.704-74 179-74T556 293.007q73.5 74.006 73.5 178.722 0 42.271-14 82.021T574 628.5L816 868q8.5 8.186 8.5 20.093t-9.413 21.32Q806 918.5 793.278 918.5q-12.722 0-20.653-8.87ZM378 666.5q80.75 0 137.375-57.059t56.625-138q0-80.941-56.625-137.941t-137.625-57q-81.833 0-138.792 57.059Q182 390.618 182 471.559T239 609.5q57 57 139 57Z"/></svg>