<svg xmlns="http://www.w3.org/2000/svg" height="24" viewBox="0 96 960 960" width="24"><path d="M479.528 931.5q-141.028 0-242.278-94.75T125 603.664q-1-12.005 7.179-20.858t20.616-8.83q11.705.024 19.866 8.524 8.162 8.5 9.925 20.575Q193.5 718 278 796q84.5 78 202 78 124.193 0 211.096-86.937Q778 700.125 778 575.652T691.115 364.59Q604.23 278 479.5 278q-68.27 0-127.635 30Q292.5 338 248.5 389H322q12.25 0 20.625 8.463T351 417.675q0 12.325-8.375 20.575T322 446.5H177q-12.25 0-20.375-8.375T148.5 417.5V272.3q0-11.59 8.175-19.945 8.176-8.355 20.5-8.355 12.325 0 20.575 8.412Q206 260.825 206 272.5v77q52-61 122.91-95 70.911-34 150.74-34 73.593 0 138.448 28.13 64.856 28.13 112.879 76Q779 372.5 807.25 437.184q28.25 64.684 28.25 138.75T807.25 714.75Q779 779.5 731 827.5t-112.823 76q-64.823 28-138.649 28Zm.178-282q-29.969 0-51.587-21.579Q406.5 606.342 406.5 576.04q0-30.303 21.604-51.921 21.603-21.619 51.94-21.619 29.719 0 51.587 21.579Q553.5 545.658 553.5 575.96q0 30.303-21.913 51.921-21.913 21.619-51.881 21.619Z"/></svg>