<svg xmlns="http://www.w3.org/2000/svg" height="24" viewBox="0 96 960 960" width="24"><path d="M479.825 854.5q-12.325 0-20.325-8.125t-8-20.375V326q0-12.25 8.175-20.625 8.176-8.375 20.5-8.375 12.325 0 20.575 8.375T509 326v500q0 12.25-8.425 20.375-8.426 8.125-20.75 8.125Zm-289.785-285q-30.302 0-51.921-21.579T116.5 496.04q0-30.303 21.579-51.921Q159.658 422.5 189.96 422.5t51.921 21.579Q263.5 465.658 263.5 495.96q0 30.303-21.579 51.921Q220.342 569.5 190.04 569.5ZM41.5 724.5V713q0-20.331 11.158-37.774Q63.816 657.784 83.5 649q25.078-10.022 51.353-16.011Q161.128 627 190.064 627t55.167 5.989Q271.463 638.978 296.5 649q19.653 8.584 31.077 26.126Q339 692.669 339 713v11.5H41.5Zm728.54-155q-30.303 0-51.921-21.579Q696.5 526.342 696.5 496.04q0-30.303 21.579-51.921Q739.658 422.5 769.96 422.5q30.303 0 51.921 21.579Q843.5 465.658 843.5 495.96q0 30.303-21.579 51.921Q800.342 569.5 770.04 569.5Zm-148.54 155V713q0-20.331 11.158-37.774Q643.816 657.784 663.5 649q25.078-10.022 51.353-16.011Q741.128 627 770.064 627t55.167 5.989Q851.463 638.978 876.5 649q19.653 8.584 31.077 26.126Q919 692.669 919 713v11.5H621.5Z"/></svg>