<svg xmlns="http://www.w3.org/2000/svg" height="24" viewBox="0 96 960 960" width="24"><path d="M696.5 793.5q-7.625 8-19.562 7.5Q665 800.5 657 792.25q-8.5-8.25-8.5-19.733 0-11.484 8.5-20.517l174.5-176-175-177.5q-8-7.5-7.729-19.5.271-12 8.229-20.25 8.5-8.25 20-8.25t20.359 8.359l196.585 197.056Q902.5 564.5 902.5 576t-8.556 20.056L696.5 793.5Zm-433.359-.859L66.085 596.056Q57.5 587.5 57.5 576q0-11.5 8.584-20.084L264 358q7.5-7.5 19.25-7t19.5 8.25q8.75 8.75 8.75 20.25t-8.533 20.071L128.5 576l175.434 176.967Q311.5 761 311.25 773q-.25 12-8 19.75-8.75 8.75-20.25 8.75t-19.859-8.859ZM321.053 610.5q-14.053 0-24.303-10.197-10.25-10.198-10.25-24.25 0-14.053 10.197-24.303 10.198-10.25 24.25-10.25 14.053 0 24.303 10.197 10.25 10.198 10.25 24.25 0 14.053-10.197 24.303-10.198 10.25-24.25 10.25Zm159 0q-14.053 0-24.303-10.197-10.25-10.198-10.25-24.25 0-14.053 10.197-24.303 10.198-10.25 24.25-10.25 14.053 0 24.303 10.197 10.25 10.198 10.25 24.25 0 14.053-10.197 24.303-10.198 10.25-24.25 10.25Zm159 0q-14.053 0-24.303-10.197-10.25-10.198-10.25-24.25 0-14.053 10.197-24.303 10.198-10.25 24.25-10.25 14.053 0 24.303 10.197 10.25 10.198 10.25 24.25 0 14.053-10.197 24.303-10.198 10.25-24.25 10.25Z"/></svg>