<svg xmlns="http://www.w3.org/2000/svg" height="24" viewBox="0 -960 960 960" width="24"><path d="M769.516-142.544 530.986-381q-29.421 25.764-69.26 39.415-39.84 13.65-84.003 13.65-108.434 0-183.579-75.172Q119-478.28 119-584.477t74.899-181.393q74.9-75.195 181.87-75.195t181.666 75.202q74.695 75.202 74.695 181.592 0 42.749-13.641 82.141-13.641 39.391-40.424 74.152L818.63-189.913q9.696 9.621 9.696 23.202 0 13.581-10.609 23.95-10.351 10.522-24.713 10.522t-23.488-10.305ZM376.65-393.565q79.23 0 134.54-55.804 55.31-55.803 55.31-135.19T511.155-719.69Q455.81-775.435 376.4-775.435q-80.244 0-136.007 55.804-55.763 55.803-55.763 135.19T240.4-449.31q55.769 55.745 136.25 55.745Z"/></svg>