<svg xmlns="http://www.w3.org/2000/svg" height="24" viewBox="0 96 960 960" width="24"><path d="M618.842 795.391q-8.342-8.891-8.342-20.858 0-11.966 8.5-20.533l149.5-149.5h-495q-12.25 0-20.625-8.175-8.375-8.176-8.375-20.5 0-12.325 8.375-20.575T273.5 547h495L619 397q-8.5-9-8.5-20.25t9-20.25q8.5-8.5 19.75-8.5t20.25 8.5l199 199.5q4.5 4.5 6.75 9.383 2.25 4.884 2.25 10.75 0 5.867-2.25 10.617-2.25 4.75-6.75 9.25l-199 199q-9 9-20.658 9-11.658 0-20-8.609ZM110.325 814.5q-12.325 0-20.575-8.125T81.5 786V366q0-12.25 8.425-20.625Q98.351 337 110.675 337q11.825 0 20.075 8.375T139 366v420q0 12.25-8.425 20.375-8.426 8.125-20.25 8.125Z"/></svg>