<svg xmlns="http://www.w3.org/2000/svg" height="24" viewBox="0 96 960 960" width="24"><path d="M457.553 531q-16.765 0-28.159-11.341Q418 508.318 418 491.553q0-16.766 11.341-28.159Q440.682 452 457.447 452t28.159 11.341Q497 474.682 497 491.447q0 16.766-11.341 28.159Q474.318 531 457.553 531Zm172 0q-16.341 0-27.447-11.341Q591 508.318 591 491.553q0-16.766 11.054-28.159Q613.107 452 629.447 452q17.191 0 28.872 11.341Q670 474.682 670 491.447q0 16.766-11.629 28.159Q646.743 531 629.553 531Zm176 0q-17.191 0-28.872-11.341Q765 508.318 765 491.553q0-16.766 11.629-28.159Q788.257 452 805.447 452q16.341 0 27.447 11.341Q844 474.682 844 491.447q0 16.766-11.054 28.159Q821.893 531 805.553 531Zm-14.667 400Q671.5 931 552.5 871.75t-214-154.25q-95-95-154.5-213.965t-59.5-238.647q0-18.888 12.714-31.638Q149.929 220.5 169 220.5h136.5q13.611 0 24.056 9.25Q340 239 343 255l27 124q2 13.068-.75 24.534t-10.335 19.05L260.5 522.5q56 93 124.75 161.25T542.5 801l95.544-98q9.456-10.5 21.206-14.75T683 687l117.362 25.452q15.45 3.423 25.294 15.236Q835.5 739.5 835.5 755.5v131q0 19.071-12.747 31.786Q810.006 931 790.886 931ZM231.5 470l81-82L289 278H182.5q-.5 38.5 11.75 85.25T231.5 470Zm365 358.5q40 19 88.166 31t93.334 14v-107L676 745l-79.5 83.5ZM231.5 470Zm365 358.5Z"/></svg>