<svg xmlns="http://www.w3.org/2000/svg" height="22" viewBox="0 -960 960 960" width="22"><path d="M278.533-63.078q-22.606 0-39.338-16.732t-16.732-39.327v-721.726q0-22.595 16.732-39.327t39.338-16.732h402.934q22.606 0 39.338 16.732t16.732 39.327v721.726q0 22.595-16.732 39.327t-39.338 16.732H278.533Zm-12.225-87.154v31q0 4.616 3.846 8.462 3.847 3.847 8.463 3.847h402.766q4.616 0 8.463-3.847 3.846-3.846 3.846-8.462v-31H266.308Zm0-43.845h427.384v-571.846H266.308v571.846Zm0-615.691h427.384v-31q0-4.616-3.846-8.462-3.847-3.847-8.463-3.847H278.617q-4.616 0-8.463 3.847-3.846 3.846-3.846 8.462v31Zm0 0V-853.077v43.309Zm0 659.536V-106.923v-43.309Z"/></svg>