<svg xmlns="http://www.w3.org/2000/svg" height="24" viewBox="0 96 960 960" width="24"><path d="M326.5 695H491q12 0 20.25-8.25T519.5 666q0-12-8.25-20.25T491 637.5H326.5L391 573q9-8.5 8.75-20.5T391 532q-9-8.5-20.75-8.5T350 532L236 646q-9 9-9 20.5t9 20l114 114q8.5 9 20.5 8.5t21-9.5Q400 791 400 779t-9-21l-64.5-63Zm307-172.5-64.5 64q-9 9-8.75 21T569 628q9 8.5 20.75 8.5T610 628l114.5-114.5q8.5-8.5 8.5-20t-8.5-20.5l-113-113q-9-8.5-21-9t-20.5 8q-9 9-9 21.5t9 21l63.5 63.5h-164q-12.5 0-20.75 8.25t-8.25 20.25q0 12.5 8.25 20.75t20.75 8.25h164ZM480 971q-81 0-153-31.25t-125.75-85Q147.5 801 116.25 729T85 576q0-82 31.25-154t85-125.5Q255 243 327 212t153-31q82 0 154 31t125.5 84.5Q813 350 844 422t31 154q0 81-31 153t-84.5 125.75q-53.5 53.75-125.5 85T480 971Z"/></svg>