<svg xmlns="http://www.w3.org/2000/svg" height="22" viewBox="0 -960 960 960" width="22"><path d="M480-284.5q-11.5 0-20-8.75t-8.5-20.25q0-11 8.5-19.75t20-8.75q11.5 0 20.25 8.75T509-313.5q0 11.5-8.75 20.25T480-284.5Zm2.325-145.5q-12.325 0-20.575-8.375T453.5-459v-189q0-11.75 8.425-20.125 8.426-8.375 20.75-8.375 11.825 0 20.075 8.375T511-648v189q0 12.25-8.425 20.625-8.426 8.375-20.25 8.375ZM190.5-477q0 65.183 28 118.591 28 53.409 90 93.409v-96q0-11.75 8.425-20.125 8.426-8.375 20.75-8.375 11.825 0 20.075 8.375T366-361v168.5q0 12.25-8.375 20.625T337.5-163.5H169q-12.25 0-20.625-8.425-8.375-8.426-8.375-20.75 0-11.825 8.375-20.075T169-221h101.5q-64.5-48-101-108T133-477q0-88 46-165.75T311-762.5q10-4.5 20.25-.25T346-748q4 11 .25 21.75T332.5-711q-62.5 32-102.25 94.881Q190.5-553.237 190.5-477Zm589.5-6.5q0-64.683-28.25-118.091Q723.5-655 661.5-695v95.5q0 12.25-8.425 20.625-8.426 8.375-20.25 8.375-12.325 0-20.575-8.375T604-599.5V-768q0-11.75 8.375-20.125T633-796.5h168.5q11.75 0 20.125 8.425 8.375 8.426 8.375 20.25 0 12.325-8.375 20.575T801.5-739H700q64 48 100.75 108t36.75 147.5q0 88.5-46.25 166.75T659-197q-10 5-20.25.25T624.5-212q-4.5-10.5-.75-21.5t14.25-16q62-31.5 102-94.381 40-62.882 40-139.619Z"/></svg>