<svg xmlns="http://www.w3.org/2000/svg" height="24" viewBox="0 96 960 960" width="24"><path d="M480 968q-3.5 0-7-.75t-6.544-1.297Q334 926.5 249.25 803.193q-84.75-123.308-84.75-270.39V338.269q0-17.749 10.524-32.783Q185.548 290.453 202 284l258-96.5q10.25-3.5 20-3.5t20.5 3.5l258 96.5q15.952 6.453 26.476 21.486Q795.5 320.52 795.5 338.269v194.534q0 147.082-84.75 270.39Q626 926.5 493.5 966q1.5-.5-13.5 2Zm0-57.5q114-38 186-142.853Q738 662.793 738 533V338.387L480 241.5l-258 96.887V533q0 129.793 72 234.647Q366 872.5 480 910.5Zm0-334.5Z"/></svg>