<svg xmlns="http://www.w3.org/2000/svg" height="24" viewBox="0 96 960 960" width="24"><path d="M544.5 971H415.318q-10.356 0-18.651-6.536Q388.372 957.929 387 947l-16-100.5q-13.5-4.5-35.25-16.75T292 802l-92 43q-10.727 5-21.453 1.203Q167.82 842.406 162.5 832l-65-115q-5.5-9.5-2.5-20.096T106.5 680l86-63q-2-8.975-2.5-19.987-.5-11.013-.5-21.013 0-8.5.5-20.25t2.5-21.75l-86-62.432Q98 465 94.75 454.471 91.5 443.942 97.5 434.5l64.914-115.206q6.086-9.794 16.58-13.544Q189.488 302 200 307l93 43q15-12.5 36.25-24.75T371 306.5L387 204q1.372-10.429 9.613-16.964 8.24-6.536 18.887-6.536h129.182q10.356 0 18.61 6.571 8.253 6.572 10.208 16.929l16 101q19 7 40.75 19T667 350l93.569-43.061q9.764-4.939 20.375-1.189 10.612 3.75 16.556 13.75l65 114q6 9.442 3.25 20.471t-12.043 17.461L766.5 532.891Q768 543 768.75 554.25q.75 11.25.75 21.75t-.75 21.425q-.75 10.925-2.25 20.623l87.071 61.89q8.596 6.485 11.512 17.047Q868 707.547 862.5 717l-65 115.5q-6 10.5-16.488 13.75-10.489 3.25-20.512-1.75l-93.5-43q-14.971 12.864-35.236 25.182Q611.5 839 589.5 846.5l-16 100.5q-1.872 10.929-10.113 17.464Q555.147 971 544.5 971Zm-65.269-267.5q52.805 0 90.037-37.275 37.232-37.276 37.232-90.25 0-52.975-37.268-90.225Q531.964 448.5 479 448.5q-53.5 0-90.5 37.275-37 37.276-37 90.25 0 52.975 37 90.225 37 37.25 90.731 37.25ZM479 646q-29.5 0-49.75-20.5T409 576q0-29 20.25-49.5T479 506q29 0 49.5 20.5T549 576q0 29-20.5 49.5T479 646Zm1-70.5Zm-43.651 338h87.085L538 801q32.585-8.066 61.085-24.443Q627.585 760.18 651.5 736L758 782.5l39.5-71.256L703 642q3.5-17 6.25-33.209 2.75-16.21 2.75-32.91Q712 559 710 543t-7-33l94.5-69.5-39-71.5-107 46.5q-22.5-25-51.25-42.5T538 350.5L524 238h-88l-13.5 112.535q-35 7.465-63 23.465t-52 41.5L202 369l-40 71.5 94 68.5q-4 17.5-6.5 33.819-2.5 16.319-2.5 32.651 0 17.03 2.25 33.28t6.25 33.75L162 711l39.859 71.5 105.641-46q24.5 24.5 53.25 40.75t61.75 24.25l13.849 112Z"/></svg>