<svg xmlns="http://www.w3.org/2000/svg" height="24" viewBox="0 96 960 960" width="24"><path d="M480.061 967.5q-5.061 0-10.311-.5t-9.25-2Q330 923.5 247.25 801.561T164.5 533.904V339.281q0-17.761 10.524-32.795Q185.548 291.453 202 285l258-96.5q10.25-3.5 20-3.5t20.5 3.5l258 96.5q15.952 6.453 26.476 21.486Q795.5 321.52 795.5 339.281v194.623q0 145.718-82.75 267.657T500 965q-4.5 1.5-9.689 2t-10.25.5Zm-.061-56Q585 877 653.942 784.226 722.883 691.453 735 576.171H480V243.5l-258 96.188v194.296q0 11.901.5 20.458.5 8.558 2.483 21.625H480V911.5Z"/></svg>