<svg xmlns="http://www.w3.org/2000/svg" height="24" viewBox="0 96 960 960" width="24"><path d="M326.5 695H491q11.925 0 20.212-8.25 8.288-8.25 8.288-20.5t-8.288-20.5q-8.287-8.25-20.212-8.25H326.5L391 573q9-8.5 8.75-20.483Q399.5 540.533 391 532q-9-8.5-20.75-8.5t-20.298 8.548L236 646q-9 8.909-9 20.455 0 11.545 9 20.045l114 114q8.5 9 20.5 8.5t21-9.5Q400 791 400 779t-9-21l-64.5-63Zm307-172.5-64.5 64q-9 9-8.75 20.983.25 11.984 8.75 20.517 9 8.5 20.75 8.5t20.337-8.587l114.319-114.319Q733 505 733 493.455q0-11.546-8.5-20.455l-113-113q-9-8.5-21-9t-20.5 8q-9 9-9 21.5t9 21l63.5 63.5h-164q-12.5 0-20.75 8.287-8.25 8.288-8.25 20.213 0 12.5 8.25 20.75t20.75 8.25h164ZM480.064 971Q399 971 327 939.75t-125.75-85q-53.75-53.75-85-125.686t-31.25-153Q85 494 116.25 422t85-125.5Q255 243 326.936 212t153-31q82.064 0 154.07 31.118 72.006 31.119 125.5 84.5Q813 350 844 421.936t31 154Q875 657 844 729t-84.5 125.75q-53.5 53.75-125.436 85t-154 31.25Zm-.097-57.5Q620.5 913.5 719 814.533t98.5-238.5Q817.5 435.5 719.033 337t-239-98.5q-139.533 0-238.533 98.467t-99 239q0 139.533 98.967 238.533t238.5 99ZM480 576Z"/></svg>