<svg xmlns="http://www.w3.org/2000/svg" height="24" viewBox="0 96 960 960" width="24"><path d="M770.193 380q12.407 0 21.607-9.5t9.2-20.75q0-12.85-9.125-22.05-9.125-9.2-21.875-9.2-13.325 0-21.912 9.131-8.588 9.132-8.588 21.869 0 11.5 8.643 21t22.05 9.5Zm-171.14 0q12.547 0 21.747-9.5t9.2-20.75q0-12.85-9.104-22.05-9.103-9.2-21.8-9.2-12.696 0-21.646 9.131-8.95 9.132-8.95 21.869 0 11.5 9.003 21 9.002 9.5 21.55 9.5Zm9.865 145.5h149.164q14.418 0 21.418-10t0-20.5q-13.5-18.5-39.75-28.25T683.5 457q-30 0-56.25 9.75T587.5 495q-7 10.5 0 20.5t21.418 10ZM276.162 970q-95.662 0-162.912-68.979T46 739.5V534q0-23.719 16.89-40.609Q79.782 476.5 103.5 476.5H449q23.719 0 40.609 16.891Q506.5 510.281 506.5 534v205.5q0 92.542-67.338 161.521Q371.824 970 276.162 970Zm.497-57.5q71.341 0 121.841-52.25T449 739.5V534H103.5v205.5q0 68.5 50.6 120.75t122.559 52.25ZM683.5 674q-33.76 0-66.015-8.625T556 640.5V576q26 15.5 58.5 28t69 12.5q71.894 0 122.447-47.75T856.5 452.5V238h-349v191H450V238q0-23.719 16.891-40.609Q483.781 180.5 507.5 180.5h349q23.719 0 40.609 16.891Q914 214.281 914 238v214.5q0 91.542-67.562 156.521Q778.875 674 683.5 674Zm-490.947-6q12.772 0 21.61-8.797Q223 650.407 223 637.404q0-13.004-8.796-21.954-8.797-8.95-21.8-8.95-13.004 0-21.954 8.928-8.95 8.927-8.95 22.125 0 12.772 8.928 21.609Q179.355 668 192.553 668Zm171.197 0q12.85 0 21.8-8.797 8.95-8.796 8.95-21.799 0-13.004-8.987-21.954-8.988-8.95-21.513-8.95-13.1 0-22.05 8.928-8.95 8.927-8.95 22.125 0 12.772 8.95 21.609Q350.9 668 363.75 668Zm-84.08 154.5q29.83 0 56.58-9.75t40.312-29.25q6.438-10-1.062-20t-21.565-10H205.5q-14.5 0-22 10t-.562 20Q196 803 222.34 812.75q26.341 9.75 57.33 9.75Zm-3.17-100Zm401.5-296Z"/></svg>