<svg xmlns="http://www.w3.org/2000/svg" height="24" viewBox="0 96 960 960" width="24"><path d="M390.5 197.5q-12.25 0-20.625-8.425-8.375-8.426-8.375-20.75 0-11.825 8.375-20.075T390.5 140H570q11.75 0 20.125 8.425 8.375 8.426 8.375 20.25 0 12.325-8.375 20.575T570 197.5H390.5ZM480.175 641q12.325 0 20.575-8.375T509 612V443q0-11.75-8.425-20.125-8.426-8.375-20.75-8.375-12.325 0-20.325 8.375t-8 20.125v169q0 12.25 8.175 20.625 8.176 8.375 20.5 8.375ZM480 970q-73 0-137.75-28T229 865.5q-48.5-48.5-76.5-113.25t-28-137.75q0-73 28-137.75T229 363.5Q277.5 315 342.25 287T480 259q68 0 125 22t102.5 61.5l30-30Q746 304 758 304t21 8.5q8.5 9 8.5 20.75T779 354l-30 30q35.5 38.5 61 94.5t25.5 136q0 73-28 137.75T731 865.5Q682.5 914 617.75 942T480 970Z"/></svg>