<svg xmlns="http://www.w3.org/2000/svg" height="24" viewBox="0 96 960 960" width="24"><path d="M390.5 197.5q-12.25 0-20.625-8.425-8.375-8.426-8.375-20.5 0-12.075 8.375-20.325T390.5 140H570q11.675 0 20.088 8.463 8.412 8.463 8.412 20.212 0 12.325-8.412 20.575-8.413 8.25-20.088 8.25H390.5ZM480.175 641q12.325 0 20.575-8.375T509 612V443q0-11.675-8.425-20.088-8.426-8.412-20.75-8.412-12.325 0-20.325 8.412-8 8.413-8 20.088v169q0 12.25 8.175 20.625 8.176 8.375 20.5 8.375Zm-.201 329q-73.026 0-137.802-28.106-64.775-28.107-113.11-76.542-48.335-48.436-76.449-113.181Q124.5 687.425 124.5 614.365q0-72.636 28.132-137.486 28.133-64.851 76.5-113.365Q277.5 315 342.201 287 406.902 259 480 259q68 0 125.5 22.5t103 62l30-30q8.5-8.5 20-8.5t20.5 8.5q8.5 9 8.5 20.25T779 354l-30 30q35.5 38.5 61 94.5t25.5 136q0 73.052-28.003 137.714-28.002 64.661-76.466 113.068-48.464 48.408-113.248 76.563Q553 970 479.974 970Zm.258-57.5q124.268 0 211.018-86.982Q778 738.535 778 614.268 778 490 691.018 403.25q-86.983-86.75-211.25-86.75-124.268 0-211.018 86.982Q182 490.465 182 614.732 182 739 268.982 825.75q86.983 86.75 211.25 86.75Zm-.232-297Z"/></svg>