<svg xmlns="http://www.w3.org/2000/svg" height="24" viewBox="0 96 960 960" width="24"><path d="M530.544 971q-22.353 0-32.948-14.638Q487 941.723 495 920l145.325-385.237q5.931-15.803 21.525-26.783Q677.443 497 694.5 497q16.5 0 32.862 10.955Q743.725 518.91 750 534.5L898.5 916q8.5 23-2.593 39t-35.814 16q-11.287 0-21.522-7-10.235-7-13.77-18L792.5 846.5H602.418l-36.875 100.361Q561.557 957 551.553 964t-21.009 7ZM624.5 777h140l-69.054-191.5H693.5l-69 191.5ZM292.088 439.707q14.28 25.167 32.146 49.576Q342.1 513.693 362.69 539q44.487-45.908 74.148-95.704Q466.5 393.5 487 339H85.46q-16.77 0-28.115-11.341Q46 316.318 46 299.553q0-16.766 11.354-28.13 11.353-11.365 28.137-11.365h236.947v-39.529q0-16.8 11.353-28.164Q345.145 181 361.929 181q16.783 0 28.143 11.35 11.359 11.35 11.359 28.128v39.478H638.49q16.792 0 28.151 11.35Q678 282.656 678 299.434q0 16.779-11.356 28.172Q655.288 339 638.5 339h-72.216q-21.784 68-58.026 133.688Q472.016 538.376 420 597.5l97 97.361L487 775 362 655 191.5 825.5q-11.304 11.5-27 11.5T138 824.5q-12.5-10.804-12.5-26.5t12.5-28l173.5-173.5Q285.5 566 263 535t-41-64q-12-21.604-2.382-37.302Q229.235 418 255.5 418q10.5 0 21 6.25t15.588 15.457Z"/></svg>