<svg xmlns="http://www.w3.org/2000/svg" height="24" viewBox="0 96 960 960" width="24"><path d="m434.5 723.5-85-84.5q-4.314-4-8.764-5.75-4.45-1.75-9.218-1.75t-9.643 2q-4.875 2-8.875 6.422-8 8.109-8 18.844 0 10.734 8 18.234l101 100.5q4.5 5 9.283 7 4.784 2 10.75 2 5.967 0 10.717-2 4.75-2 9.75-7L642 590q8-7.978 8-18.489Q650 561 642.017 553t-18.5-8Q613 545 605 553L434.5 723.5ZM222 971q-22.969 0-40.234-17.266Q164.5 936.469 164.5 913.5v-675q0-22.969 17.266-40.234Q199.031 181 222 181h335q11.911 0 22.706 4.75 10.794 4.75 18.912 12.343l179.264 179.314Q786 385.5 790.75 396.294q4.75 10.795 4.75 22.706v494.5q0 22.969-17.266 40.234Q760.969 971 738 971H222Zm330.5-579V238.5H222v675h516V421H581.5q-12.25 0-20.625-8.375T552.5 392ZM222 238.5V421 238.5v675-675Z"/></svg>