<svg xmlns="http://www.w3.org/2000/svg" height="24" viewBox="0 96 960 960" width="24"><path d="M770.193 380q12.407 0 21.607-9.5t9.2-21q0-12.6-9.125-21.8-9.125-9.2-21.875-9.2-13.325 0-21.912 9.2-8.588 9.2-8.588 21.8 0 11.5 8.643 21t22.05 9.5ZM276.412 970q-95.912 0-163.162-69.062Q46 831.875 46 739.5V534q0-23.688 16.906-40.594Q79.813 476.5 103.5 476.5H449q23.688 0 40.594 16.906Q506.5 510.312 506.5 534v205.5q0 92.375-67.338 161.438Q371.824 970 276.412 970ZM192.5 668q12.825 0 21.663-8.893 8.837-8.893 8.837-21.8t-8.893-21.857q-8.893-8.95-21.8-8.95t-21.857 8.875q-8.95 8.875-8.95 22.125 0 12.825 8.875 21.662Q179.25 668 192.5 668Zm171.5 0q12.6 0 21.55-8.893 8.95-8.893 8.95-21.8t-8.95-21.857q-8.95-8.95-21.55-8.95-13.1 0-22.05 8.875Q333 624.25 333 637.5q0 12.825 8.95 21.662Q350.9 668 364 668Zm-84.5 154.5q30 0 56.75-9.75t40.25-29.25q6.5-10-1-20t-21.565-10H205.5q-14.5 0-21.75 10.167-7.25 10.166-.75 19.833 13 19.5 39.407 29.25 26.408 9.75 57.093 9.75Zm404-148.5q-33.76 0-66.015-8.75T556 640.5v-154l32 8q-7 10.5-.25 20.75t21.168 10.25h149.164q14.418 0 21.418-10t0-20.5q-13.5-18.5-39.75-28.25T683.5 457q-30 0-56 9.5t-39.5 28l-32-8q0-13-8-28.25t-26.5-23.75l56.75-63q3.75 5 9.496 6.75t11.741 1.75Q612 380 621 370.5q9-9.5 9-21 0-12.6-9.2-21.8-9.2-9.2-21.8-9.2-12.6 0-21.55 9.2-8.95 9.2-8.95 21.94 0 6.36 2.25 11.86 2.25 5.5 7.25 10l-56.5 63q-4.939-2.267-10.372-3.883Q505.696 429 498.5 429H450V238q0-23.688 16.906-40.594Q483.812 180.5 507.5 180.5h349q23.688 0 40.594 16.906Q914 214.312 914 238v214.5q0 91.375-67.562 156.438Q778.875 674 683.5 674Z"/></svg>