<svg xmlns="http://www.w3.org/2000/svg" height="24" viewBox="0 96 960 960" width="24"><path d="M458 970q-78-4-146.006-36.618-68.006-32.619-118.487-85.4-50.481-52.782-79.494-122.893Q85 654.978 85 575.989 85 494 116.118 421.994q31.119-72.006 84.409-125.487 53.29-53.481 125.432-84.494Q398.102 181 480.127 181q146.873 0 255.76 92.86T869.5 507h-58.436Q794 423.5 740.289 357.775 686.579 292.049 606 259v18.083q0 34.76-23.706 60.588-23.706 25.829-58.732 25.829H437.5v85.825q0 17.175-13.548 28.231-13.548 11.056-30.619 11.056H311V576h111.5v124.5h-68l-202.985-203q-5.015 19.75-7.015 39.169-2 19.419-2 39.338 0 134.729 90.25 231.611Q323 904.5 458 912.5V970Zm371.05-44.95L716 813.5q-21.5 15.5-46.08 23.25t-50.279 7.75q-70.163 0-119.152-49.088-48.989-49.089-48.989-119.5 0-70.412 49.088-119.662Q549.677 507 620.088 507q70.412 0 119.662 49.246Q789 605.493 789 676.13q0 25.87-8.5 50.37-8.5 24.5-23 46.5l112 111.55q9 8.95 9.25 20.45t-8.25 21q-9 9-21 8.5t-20.45-9.45ZM620.056 787Q666.5 787 699 754.694q32.5-32.307 32.5-78.75 0-46.444-32.408-78.944-32.409-32.5-79-32.5-46.592 0-78.842 32.408-32.25 32.409-32.25 79 0 46.592 32.306 78.842Q573.613 787 620.056 787Z"/></svg>