<svg xmlns="http://www.w3.org/2000/svg" height="24" viewBox="0 96 960 960" width="24"><path d="M286.81 894.5q-13.757 0-22.034-10.5-8.276-10.5-4.276-24l34-135.5H178q-13.718 0-22.609-10.82-8.891-10.82-4.808-24.456 2.05-9.071 9.47-15.647Q167.472 667 178 667h131.097L354.5 484.5H218q-13.718 0-22.609-10.82-8.891-10.82-4.808-24.456 2.05-9.071 9.47-15.647Q207.472 427 218 427h151.194L406.5 278.5q2-9.448 8.934-15.474Q422.368 257 432.575 257q13.588 0 21.256 10.75Q461.5 278.5 459 291.292L425.5 427H609l37.5-148.5q2-9.448 8.934-15.474Q662.368 257 672.576 257q13.587 0 21.255 10.75Q701.5 278.5 699 291.292L665.5 427H782q13.718 0 22.609 11.07Q813.5 449.14 810 462.5q-2.5 9.5-10.042 15.75-7.541 6.25-17.958 6.25H650.903L605.5 667H742q13.718 0 22.609 11.07Q773.5 689.14 770 702.5q-2.5 9.5-10.042 15.75-7.541 6.25-17.958 6.25H591.204L554 873.5q-2.5 7.5-8.434 14.25-5.934 6.75-18.756 6.75-13.757 0-22.034-10.5-8.276-10.5-4.276-24l34-135.5H350.987L314 873.5q-2.5 7.5-8.434 14.25-5.934 6.75-18.756 6.75ZM365.5 667h183.4l45.6-182.5H411.1L365.5 667Z"/></svg>