<svg xmlns="http://www.w3.org/2000/svg" height="24" viewBox="0 96 960 960" width="24"><path d="M281.5 812.5q-98.542 0-167.521-68.971Q45 674.559 45 576.029 45 477.5 113.979 408.5t167.521-69h397q98.542 0 167.521 68.971Q915 477.441 915 575.971q0 98.529-68.979 167.529t-167.521 69h-397Zm0-57.5h396.857q74.972 0 127.057-52.062 52.086-52.062 52.086-127T805.414 449q-52.085-52-127.057-52H281.5q-74.5 0-126.75 52.062t-52.25 127Q102.5 651 154.75 703t126.75 52Zm397.941-81q40.809 0 69.434-28.566t28.625-69.375q0-40.809-28.566-69.434T679.559 478q-40.809 0-69.434 28.566T581.5 575.941q0 40.809 28.566 69.434T679.441 674ZM480 576Z"/></svg>