<svg xmlns="http://www.w3.org/2000/svg" height="48" viewBox="0 -960 960 960" width="48"><path d="M480.25-84.5q-31.013 0-50.631-19.559Q410-123.619 410-155q0-21.5 10.75-39.25t30.75-28.197V-334H303q-22.969 0-40.234-17.266Q245.5-368.531 245.5-391.5v-109q-20.5-9-31.25-26.359-10.75-17.358-10.75-39.358 0-31.664 19.535-51.224Q242.569-637 273.916-637t50.965 19.559q19.619 19.56 19.619 51.352 0 22.089-10.75 39.339T303-500.5v109h148.5v-338H373l107-145 107 145h-78v338h148V-496h-41.5v-140.5h141V-496h-42v104.5q0 22.969-17.266 40.234Q679.969-334 657-334H509v111.5q19.95 10.152 30.975 28.733Q551-175.187 551-154.912q0 31.531-19.869 50.971Q511.263-84.5 480.25-84.5Z"/></svg>