<svg xmlns="http://www.w3.org/2000/svg" height="24" viewBox="0 96 960 960" width="24"><path d="M453.5 652.5v171q0 12.25 8.535 20.375t20.39 8.125q11.856 0 20.216-8.125Q511 835.75 511 823.5v-171l62.071 61.571q2.5 2.429 14.215-2.571 11.714-5 22.214-9 10.5-4 14.15-3.25 3.65.75-10.15 14.75 8.5-8.5 8-20.25t-9.167-20.344L500.389 564.587q-4.583-4.548-9.464-6.817-4.881-2.27-10.458-2.27-5.753 0-10.753 2.25T460 564.5L349.5 675q-9 9-9 20.75t8.5 20.88q8.5 8.37 20.5 8.12t20.372-8.622L453.5 652.5ZM222 971q-22.969 0-40.234-17.266Q164.5 936.469 164.5 913.5v-675q0-22.969 17.266-40.234Q199.031 181 222 181h335q11.911 0 22.706 4.75 10.794 4.75 18.912 12.343l179.264 179.314Q786 385.5 790.75 396.294q4.75 10.795 4.75 22.706v494.5q0 22.969-17.266 40.234Q760.969 971 738 971H222Zm330.5-579V238.5H222v675h516V421H581.5q-12.25 0-20.625-8.375T552.5 392ZM222 238.5V421 238.5v675-675Z"/></svg>