<svg xmlns="http://www.w3.org/2000/svg" height="24" viewBox="0 96 960 960" width="24"><path d="M600.5 904.5q-15.5 5.5-28.25-4T559.5 874q0-7.5 4.25-13.5t11.75-8q89-31.5 143.75-107T774 575q0-94.5-54.5-170.5T575.5 298q-7-2-11.5-8.5t-4.5-14.5q0-16 13.25-25.25t27.75-4.25Q704.5 283 768 373t63.5 202q0 112.5-63.5 202.5t-167.5 127ZM157 693q-12.5 0-20.5-8t-8-20.5v-177q0-12.5 8-20.5t20.5-8h129l147.5-147.5q13.5-13.5 31-6.25T482 331v489.5q0 19-17.5 26.25t-31-6.25L286 693H157Zm382.5 49V409.5q55 17 88 63.25t33 103.25q0 58-33 103.25t-88 62.75Zm-115-333.5L312 516.5H186v119h126L424.5 744V408.5Zm-93 167.5Z"/></svg>