<svg xmlns="http://www.w3.org/2000/svg" height="24" viewBox="0 96 960 960" width="24"><path d="M626.5 637 584 594.5q26.5-73-27.25-119.5T441.5 452L399 409.5q17-10.5 38.25-15.5t42.6-5q70.312 0 118.731 48.419T647 556.15q0 21.35-5.5 43.35t-15 37.5ZM753 764l-37.5-38q48.5-35.5 85.25-80.25t53.75-89.902Q805 446 705.5 381.75 606 317.5 490 317.5q-41.5 0-86.25 8T334.5 345L290 299.5q34-15.5 88.75-27.5t106.093-12q133.066 0 245.362 72.5Q842.5 405 902 528q3 5.5 4.25 12.75T907.5 556q0 8-1.25 15.75T902 585q-26 54-63.555 99.111Q800.889 729.223 753 764Zm39.427 200.389L648 822.5q-34.5 14-78.75 21.75T480 852q-135.813 0-248.906-72.5Q118 707 58 584q-3-6.5-4-13.25t-1-14.85q0-8.1 1.5-15.75t4-13.65q21.133-44.058 53.066-85.779Q143.5 399 187 361.5L82 255.384Q73.5 247 73.5 235.5t8.5-20q8.5-8.5 20.5-8.5t20.603 8.596L833 925q7.5 8 7.25 19t-7.75 19.5q-8 10-19.75 9.75t-20.323-8.861ZM226.5 401.5q-37 26.5-72 71t-50 83.631Q155.5 666 257.214 730.25 358.929 794.5 488 794.5q34 0 66.75-4.25T603 778l-65.234-65Q527 718 510.5 720.5t-30.628 2.5Q411 723 362 674.75t-49-118.686q0-15.064 2.5-30.403 2.5-15.338 7.5-27.161l-96.5-97Zm300 143.5ZM415 600.5Z"/></svg>