<svg xmlns="http://www.w3.org/2000/svg" height="24px" viewBox="0 -960 960 960" width="24px" fill="#000000"><path d="M334.5-89L273-194l-123.5-25q-10.48-2.07-17.74-11.36-7.26-9.29-5.26-20.14l14-119.14-78-91.36q-7.5-7.5-7.5-19.05t7.5-19.45l78-90.15-14-118.85q-2-10.88 5.25-20.19t17.75-11.81L273-765l61.5-106.5q6-9.5 16.5-13.5t21 1l108 51 108-51q10.33-4.5 20.92-1.25Q619.5-882 625.5-872.5L688-765l122.5 24.5q10.5 2.5 17.75 11.81t5.25 20.19l-14 118.85L898-499.5q7 7.9 7 19.45 0 11.55-7.14 19.15l-78.36 91.32 14 119.08q2 10.85-5.26 20.14-7.26 9.29-17.74 11.36L688-194 625.5-88q-6 10-16.58 13.25Q598.33-71.5 588-76l-108-51-108 51q-10.33 4.5-20.92.75Q340.5-79 334.5-89Zm39.5-52.5L480-186l109 44.5 67-99 115.95-30.18-12.09-117.75L840.5-480l-80.64-93.58 12.09-117.76L656-719.5l-69-99L480-774l-109-44.5-67 99-115.95 28.16 12.09 117.76L119.5-480l80.64 91.57-12.09 119.77L304-240.5l70 99Z"/><path d="M557.782 -600.208L359.792 -402.218C348.076 -390.503 348.076 -371.508 359.792 -359.792C371.508 -348.076 390.503 -348.076 402.218 -359.792L600.208 -557.782C611.924 -569.497 611.924 -588.492 600.208 -600.208C588.492 -611.924 569.497 -611.924 557.782 -600.208ZM359.792 -557.782L557.782 -359.792C569.497 -348.076 588.492 -348.076 600.208 -359.792C611.924 -371.508 611.924 -390.503 600.208 -402.218L402.218 -600.208C390.503 -611.924 371.508 -611.924 359.792 -600.208C348.076 -588.492 348.076 -569.497 359.792 -557.782Z"/></svg>
