<svg xmlns="http://www.w3.org/2000/svg" height="24" viewBox="0 96 960 960" width="24"><path d="M753 763.5 626.5 637q9.5-15.5 15-37.5T647 556q0-70-48.5-118.5T480 389q-21.5 0-42.75 5T399 409.5l-109-110q34-15.5 88.75-27.5T485 260q133 0 245.25 72.5T902 528q3 5.5 4.25 12.75T907.5 556q0 8-1.25 15.75T902 585q-26 54-63.5 98.75T753 763.5Zm39.5 201L648 822.5q-34.5 14-78.75 21.75T480 852q-136 0-249-72.5T58 584q-3-6.5-4-13.25T53 556q0-8 1.5-15.75t4-13.75q21-44 53-85.75T187 361.5l-105-106q-8.5-8.5-8.5-20t8.5-20q8.5-8.5 20.5-8.5t20.5 8.5L833 925q7.5 8 7.25 19t-7.75 19.5q-8 10-19.75 9.75t-20.25-8.75ZM480 723q14 0 30.75-2.75t27.75-7.75L323.5 498q-5 12.5-7.75 27.75T313 556q0 70.5 49 118.75T480 723Zm104-128.5L441.5 452q61.5-23.5 115.25 23T584 594.5Z"/></svg>