<svg xmlns="http://www.w3.org/2000/svg" height="24" viewBox="0 96 960 960" width="24"><path d="M790.5 968 498 676h-7.5Q465 736 413 774.25T281.5 812.5q-98.5 0-167.5-69T45 576q0-66 35.25-124.25T183 361l-96-96q-8.5-8.5-8.5-20.5T87 224q8.5-8.5 20.5-8.5t21 8.5L832 927.5q8.5 8.5 8.5 20.25T832 968q-9 8.5-21 8.5t-20.5-8.5ZM787 801 489.5 503.5h368q24 0 40.75 16.75T915 561v30q0 24-16.75 40.75T857.5 648.5h-48V755q0 15-6.5 26.75T787 801ZM281.5 642q28 0 47-19t19-47q0-12.5-4.75-27.25T326 522.5l9 9Q324 520 309 515t-27.5-5q-28 0-47 19t-19 47q0 28 19 47t47 19Z"/></svg>