<svg xmlns="http://www.w3.org/2000/svg" height="24" viewBox="0 96 960 960" width="24"><path d="M480.118 723q69.632 0 118.257-48.743Q647 625.515 647 555.882q0-69.632-48.743-118.257Q549.515 389 479.882 389q-69.632 0-118.257 48.743Q313 486.485 313 556.118q0 69.632 48.743 118.257Q410.485 723 480.118 723Zm-.294-56q-46.324 0-78.574-32.426Q369 602.147 369 555.823q0-46.323 32.426-78.573Q433.853 445 480.176 445q46.324 0 78.574 32.427Q591 509.853 591 556.177q0 46.323-32.427 78.573Q526.147 667 479.824 667Zm.298 185Q344 852 232.5 778.25T59.645 583.923Q56 578.5 54.5 570.963q-1.5-7.537-1.5-15.076 0-7.539 1.5-14.963 1.5-7.424 5.145-12.847Q121 407.5 232.378 333.75 343.756 260 479.878 260T727.5 333.75Q839 407.5 900.855 528.077q3.145 5.423 4.895 12.96 1.75 7.537 1.75 15.076 0 7.539-1.75 14.963-1.75 7.424-4.895 12.847Q839 704.5 727.622 778.25 616.244 852 480.122 852Z"/></svg>