<svg xmlns="http://www.w3.org/2000/svg" height="24" viewBox="0 96 960 960" width="24"><path d="M96.86 931.5q-8.86 0-15.62-4.1-6.762-4.1-9.99-10.4-3.917-6.1-4.333-13.55Q66.5 896 71.5 888l383.936-661.885Q460 218.5 466.345 215q6.345-3.5 13.655-3.5t13.655 3.5Q500 218.5 505 226l384 662q4.5 8 4.083 15.45-.416 7.45-4.333 13.55-3.446 6.25-10.132 10.375-6.687 4.125-15.248 4.125H96.86Zm387.263-115q12.377 0 20.627-8.373 8.25-8.373 8.25-20.75t-8.373-20.627q-8.373-8.25-20.75-8.25t-20.627 8.373q-8.25 8.373-8.25 20.75t8.373 20.627q8.373 8.25 20.75 8.25Zm.302-108.5q12.075 0 20.325-8.375T513 679V514q0-11.675-8.463-20.088-8.463-8.412-20.212-8.412-12.325 0-20.575 8.412-8.25 8.413-8.25 20.088v165q0 12.25 8.425 20.625 8.426 8.375 20.5 8.375Z"/></svg>