<svg xmlns="http://www.w3.org/2000/svg" height="22" viewBox="0 -960 960 960" width="22"><path d="M479.965-133.5q-34.965 0-61.215-26.295-26.25-26.296-26.25-61.275 0-34.43 26.285-60.93t61.25-26.5q34.965 0 61.215 26.57 26.25 26.571 26.25 61.25 0 34.68-26.285 60.93t-61.25 26.25ZM234-361l-60.5-59.5Q243-490 318-524.5T480-559q87 0 162.026 34.538Q717.053-489.923 786.5-421l-60 60q-61-60.5-122.532-86.25-61.533-25.75-124-25.75Q417.5-473 356-447.25T234-361ZM70.5-524.5l-60.5-60q91-93 211.947-150t258-57Q617-791.5 738-734.5t212 150l-60 60Q802.5-607 700.1-656.25t-220-49.25q-117.6 0-220.1 49.25T70.5-524.5Z"/></svg>