<svg xmlns="http://www.w3.org/2000/svg" height="22" viewBox="0 -960 960 960" width="22"><path d="M96.63-124.5q-8.63 0-15.282-4.125Q74.696-132.75 71.25-139q-3.917-6.1-4.333-13.55Q66.5-160 71.5-168l383.936-661.885Q460-837.5 466.25-841t13.75-3.5q7.5 0 13.75 3.5T505-830l384 662q4.5 8 4.083 15.45-.416 7.45-4.333 13.55-3.446 6.25-10.098 10.375Q872-124.5 863.37-124.5H96.63ZM146.5-182h667L480-758 146.5-182Zm337.728-57.5q12.272 0 20.522-8.478 8.25-8.478 8.25-20.75t-8.478-20.522q-8.478-8.25-20.75-8.25t-20.522 8.478q-8.25 8.478-8.25 20.75t8.478 20.522q8.478 8.25 20.75 8.25Zm.197-108.5q12.075 0 20.325-8.375T513-377v-165q0-11.675-8.463-20.088-8.463-8.412-20.212-8.412-12.325 0-20.575 8.412-8.25 8.413-8.25 20.088v165q0 12.25 8.425 20.625 8.426 8.375 20.5 8.375ZM480-470Z"/></svg>