<svg xmlns="http://www.w3.org/2000/svg" height="24" viewBox="0 96 960 960" width="24"><path d="M205 905q-56.77-55.096-90.135-129.165Q81.5 701.766 81.5 616.161q0-82.618 31.383-155.513 31.383-72.894 85.183-126.817 53.799-53.922 126.528-85.376Q397.324 217 480.016 217q82.73 0 155.486 31.49 72.756 31.489 126.576 85.472 53.819 53.982 85.371 126.764Q879 533.507 879 616.258 879 702 845.5 776 812 850 755 905l-41-41.5q50-47 78.75-110.187 28.75-63.186 28.75-137.399Q821.5 473.5 722 374t-242-99.5q-142.5 0-241.75 99.5T139 616.16q0 73.975 28.5 137.157Q196 816.5 246 864l-41 41Zm113-113q-34.773-32.867-55.636-78.183Q241.5 668.5 241.5 615.869q0-99.302 69.588-169.086Q380.676 377 480.088 377t169.162 69.721Q719 516.442 719 616.043q0 52.457-21 97.707Q677 759 642 792l-41-41.5q27.963-24.635 44.231-58.818Q661.5 657.5 661.5 615.903q0-76.126-52.688-128.765-52.688-52.638-128.75-52.638T351.5 487.14Q299 539.781 299 615.57q0 41.43 16 75.93 16 34.5 44.5 59L318 792Zm162.062-97.5q-32.562 0-55.562-23.084t-23-55.5q0-32.416 23.084-55.666t55.5-23.25q32.416 0 55.666 23.188t23.25 55.75q0 32.562-23.188 55.562t-55.75 23Z"/></svg>