<svg width="1240" height="1240" xmlns="http://www.w3.org/2000/svg">

 <g>
  <g>
   <path d="m282.5,995q-22.97,0 -40.23,-17.27q-17.27,-17.26 -17.27,-40.23l0,-480q0,-22.97 17.27,-40.23q17.26,-17.27 40.23,-17.27l180.5,0l0,-97.52q0,-22.98 17.27,-40.23q17.26,-17.25 40.23,-17.25l199,0q22.97,0 40.23,17.27q17.27,17.26 17.27,40.23l0,97.5l180.5,0q22.97,0 40.23,17.27q17.27,17.26 17.27,40.23l0,480q0,22.97 -17.27,40.23q-17.26,17.27 -40.23,17.27l-675,0zm238,-595l199,0l0,-97.5l-199,0l0,97.5z"/>
  </g>
 </g>
</svg>