<svg width="40" height="40" viewBox="0 0 40 40" fill="none" xmlns="http://www.w3.org/2000/svg">
<path d="M15 10.25H11.52C10.7179 10.2498 9.93692 10.5068 9.29167 10.9832C8.64641 11.4596 8.17092 12.1304 7.935 12.897L3.915 21.961C3.80533 22.3184 3.74971 22.6902 3.75 23.064V30C3.75 30.9946 4.14509 31.9484 4.84835 32.6516C5.55161 33.3549 6.50544 33.75 7.5 33.75H32.5C33.4946 33.75 34.4484 33.3549 35.1517 32.6516C35.8549 31.9484 36.25 30.9946 36.25 30V23.064C36.25 22.6901 36.194 22.3183 36.084 21.961L32.064 12.897C31.8281 12.1306 31.3528 11.4599 30.7077 10.9835C30.0627 10.5071 29.2819 10.25 28.48 10.25H25M3.75 22.5H10.182C10.8784 22.5 11.5611 22.694 12.1534 23.0601C12.7458 23.4262 13.2246 23.9501 13.536 24.573L13.964 25.427C14.2754 26.0499 14.7542 26.5738 15.3466 26.9399C15.9389 27.306 16.6216 27.5 17.318 27.5H22.682C23.3786 27.5002 24.0614 27.3063 24.654 26.9402C25.2466 26.574 25.7255 26.05 26.037 25.427L26.464 24.573C26.7754 23.9501 27.2542 23.4262 27.8466 23.0601C28.439 22.694 29.1216 22.5 29.818 22.5H36.25M20 5V18.75M20 18.75L15 13.75M20 18.75L25 13.75" stroke="#E6A800" stroke-width="2.5" stroke-linecap="round" stroke-linejoin="round"/>
</svg>
