<svg width="208" height="329" viewBox="0 0 208 329" fill="none" xmlns="http://www.w3.org/2000/svg">
<rect x="81.7837" y="1.81285" width="42.9544" height="42.9544" rx="2.99519" stroke="#0197FF" stroke-width="1.99679"/>
<path d="M102.852 14.9701H105.728V31.7432H102.421V18.4685L99.2581 19.3551L98.4434 16.5276L102.852 14.9701Z" fill="#0197FF"/>
<rect x="81.7837" y="72.4662" width="42.9544" height="42.9544" rx="2.99519" stroke="#0197FF" stroke-width="1.99679"/>
<path d="M97.0952 102.397V99.9294L102.822 94.0349C104.1 92.6931 104.739 91.5749 104.739 90.6803C104.739 90.0253 104.531 89.4982 104.116 89.0988C103.717 88.6995 103.197 88.4998 102.558 88.4998C101.296 88.4998 100.362 89.1547 99.7549 90.4646L96.9754 88.8353C97.5025 87.6851 98.2613 86.8065 99.2517 86.1995C100.242 85.5925 101.328 85.289 102.51 85.289C104.028 85.289 105.33 85.7682 106.416 86.7267C107.502 87.6691 108.046 88.9471 108.046 90.5605C108.046 92.3017 107.127 94.0908 105.29 95.9279L102.007 99.2106H108.309V102.397H97.0952Z" fill="#0197FF"/>
<rect x="81.7838" y="143.118" width="42.9544" height="42.9544" rx="2.99519" stroke="#0197FF" stroke-width="1.99679"/>
<path d="M104.743 163.08C105.877 163.415 106.795 164.006 107.498 164.853C108.217 165.684 108.577 166.69 108.577 167.872C108.577 169.597 107.994 170.947 106.827 171.922C105.677 172.896 104.264 173.383 102.586 173.383C101.276 173.383 100.102 173.088 99.0639 172.497C98.0415 171.89 97.2987 171.003 96.8355 169.837L99.6629 168.208C100.078 169.502 101.053 170.149 102.586 170.149C103.433 170.149 104.088 169.949 104.551 169.549C105.03 169.134 105.27 168.575 105.27 167.872C105.27 167.185 105.03 166.634 104.551 166.219C104.088 165.803 103.433 165.596 102.586 165.596H101.867L100.597 163.679L103.904 159.366H97.3387V156.275H107.882V159.006L104.743 163.08Z" fill="#0197FF"/>
<rect x="81.7838" y="213.77" width="42.9544" height="42.9544" rx="2.99519" stroke="#0197FF" stroke-width="1.99679"/>
<path d="M109.425 237.782V240.849H107.628V243.7H104.298V240.849H96.3664V237.782L101.949 226.927H105.496L99.9366 237.782H104.298V233.804H107.628V237.782H109.425Z" fill="#0197FF"/>
<rect x="81.7837" y="284.421" width="42.9544" height="42.9544" rx="2.99519" stroke="#0197FF" stroke-width="1.99679"/>
<path d="M102.959 303.689C104.572 303.689 105.93 304.176 107.032 305.15C108.134 306.109 108.685 307.451 108.685 309.176C108.685 310.901 108.102 312.251 106.936 313.225C105.786 314.2 104.372 314.687 102.695 314.687C101.337 314.687 100.139 314.384 99.1007 313.776C98.0624 313.169 97.3116 312.275 96.8484 311.093L99.6758 309.439C100.091 310.781 101.098 311.452 102.695 311.452C103.542 311.452 104.197 311.253 104.66 310.853C105.139 310.438 105.379 309.879 105.379 309.176C105.379 308.489 105.147 307.938 104.684 307.523C104.221 307.107 103.59 306.9 102.791 306.9H97.711L98.3819 297.579H107.895V300.67H101.449L101.233 303.689H102.959Z" fill="#0197FF"/>
<path d="M73.2096 24.6855C73.5995 24.2956 73.5995 23.6634 73.2096 23.2735L66.8559 16.9198C66.466 16.5299 65.8338 16.5299 65.4439 16.9198C65.054 17.3097 65.054 17.9418 65.4439 18.3317L71.0917 23.9795L65.4439 29.6273C65.054 30.0172 65.054 30.6493 65.4439 31.0392C65.8338 31.4291 66.466 31.4291 66.8559 31.0392L73.2096 24.6855ZM0.97998 24.9779H72.5037V22.9811H0.97998V24.9779Z" fill="#0197FF"/>
<path d="M73.2096 306.604C73.5995 306.215 73.5995 305.582 73.2096 305.192L66.8559 298.839C66.466 298.449 65.8338 298.449 65.4439 298.839C65.054 299.229 65.054 299.861 65.4439 300.251L71.0917 305.898L65.4439 311.546C65.054 311.936 65.054 312.568 65.4439 312.958C65.8338 313.348 66.466 313.348 66.8559 312.958L73.2096 306.604ZM0.97998 306.897H72.5037V304.9H0.97998V306.897Z" fill="#9B90FB"/>
<path d="M73.2096 94.0751C73.5995 93.6852 73.5995 93.0531 73.2096 92.6632L66.8559 86.3094C66.466 85.9195 65.8338 85.9195 65.4439 86.3094C65.054 86.6993 65.054 87.3315 65.4439 87.7214L71.0917 93.3691L65.4439 99.0169C65.054 99.4068 65.054 100.039 65.4439 100.429C65.8338 100.819 66.466 100.819 66.8559 100.429L73.2096 94.0751ZM0.97998 94.3675H72.5037V92.3707H0.97998V94.3675Z" fill="#CD5CAE"/>
<path d="M73.2096 166.298C73.5995 165.908 73.5995 165.276 73.2096 164.886L66.8559 158.532C66.466 158.142 65.8338 158.142 65.4439 158.532C65.054 158.922 65.054 159.554 65.4439 159.944L71.0917 165.592L65.4439 171.24C65.054 171.629 65.054 172.262 65.4439 172.652C65.8338 173.041 66.466 173.041 66.8559 172.652L73.2096 166.298ZM0.97998 166.59H72.5037V164.593H0.97998V166.59Z" fill="#9B90FB"/>
<path d="M73.2096 227.179C73.5995 226.789 73.5995 226.157 73.2096 225.767L66.8559 219.413C66.466 219.023 65.8338 219.023 65.4439 219.413C65.054 219.803 65.054 220.435 65.4439 220.825L71.0917 226.473L65.4439 232.12C65.054 232.51 65.054 233.142 65.4439 233.532C65.8338 233.922 66.466 233.922 66.8559 233.532L73.2096 227.179ZM0.97998 227.471H72.5037V225.474H0.97998V227.471Z" fill="#1BC3BF"/>
<path d="M73.2096 147.754C73.5995 147.364 73.5995 146.732 73.2096 146.342L66.8559 139.988C66.466 139.598 65.8338 139.598 65.4439 139.988C65.054 140.378 65.054 141.01 65.4439 141.4L71.0917 147.048L65.4439 152.696C65.054 153.086 65.054 153.718 65.4439 154.108C65.8338 154.497 66.466 154.497 66.8559 154.108L73.2096 147.754ZM0.97998 148.046H72.5037V146.049H0.97998V148.046Z" fill="#0197FF"/>
<path d="M73.2096 184.695C73.5995 184.305 73.5995 183.673 73.2096 183.283L66.8559 176.93C66.466 176.54 65.8338 176.54 65.4439 176.93C65.054 177.319 65.054 177.952 65.4439 178.341L71.0917 183.989L65.4439 189.637C65.054 190.027 65.054 190.659 65.4439 191.049C65.8338 191.439 66.466 191.439 66.8559 191.049L73.2096 184.695ZM0.97998 184.988H72.5037V182.991H0.97998V184.988Z" fill="#1BC3BF"/>
<path d="M73.2096 245.578C73.5995 245.188 73.5995 244.556 73.2096 244.166L66.8559 237.812C66.466 237.422 65.8338 237.422 65.4439 237.812C65.054 238.202 65.054 238.834 65.4439 239.224L71.0917 244.872L65.4439 250.52C65.054 250.91 65.054 251.542 65.4439 251.932C65.8338 252.322 66.466 252.322 66.8559 251.932L73.2096 245.578ZM0.97998 245.87H72.5037V243.874H0.97998V245.87Z" fill="#CD5CAE"/>
<path d="M206.712 24.6855C207.102 24.2956 207.102 23.6634 206.712 23.2735L200.358 16.9198C199.968 16.5299 199.336 16.5299 198.946 16.9198C198.556 17.3097 198.556 17.9418 198.946 18.3317L204.594 23.9795L198.946 29.6273C198.556 30.0172 198.556 30.6493 198.946 31.0392C199.336 31.4291 199.968 31.4291 200.358 31.0392L206.712 24.6855ZM134.482 24.9779H206.006V22.9811H134.482V24.9779Z" fill="#0197FF"/>
<path d="M206.712 306.604C207.102 306.215 207.102 305.582 206.712 305.192L200.358 298.839C199.968 298.449 199.336 298.449 198.946 298.839C198.556 299.229 198.556 299.861 198.946 300.251L204.594 305.898L198.946 311.546C198.556 311.936 198.556 312.568 198.946 312.958C199.336 313.348 199.968 313.348 200.358 312.958L206.712 306.604ZM134.482 306.897H206.006V304.9H134.482V306.897Z" fill="#9B90FB"/>
<path d="M206.712 94.0751C207.102 93.6852 207.102 93.0531 206.712 92.6632L200.358 86.3094C199.968 85.9195 199.336 85.9195 198.946 86.3094C198.556 86.6993 198.556 87.3315 198.946 87.7214L204.594 93.3691L198.946 99.0169C198.556 99.4068 198.556 100.039 198.946 100.429C199.336 100.819 199.968 100.819 200.358 100.429L206.712 94.0751ZM134.482 94.3675H206.006V92.3707H134.482V94.3675Z" fill="#CD5CAE"/>
<path d="M206.712 166.298C207.102 165.908 207.102 165.276 206.712 164.886L200.358 158.532C199.968 158.142 199.336 158.142 198.946 158.532C198.556 158.922 198.556 159.554 198.946 159.944L204.594 165.592L198.946 171.24C198.556 171.629 198.556 172.262 198.946 172.652C199.336 173.041 199.968 173.041 200.358 172.652L206.712 166.298ZM134.482 166.59H206.006V164.593H134.482V166.59Z" fill="#9B90FB"/>
<path d="M206.712 227.179C207.102 226.789 207.102 226.157 206.712 225.767L200.358 219.413C199.968 219.023 199.336 219.023 198.946 219.413C198.556 219.803 198.556 220.435 198.946 220.825L204.594 226.473L198.946 232.12C198.556 232.51 198.556 233.142 198.946 233.532C199.336 233.922 199.968 233.922 200.358 233.532L206.712 227.179ZM134.482 227.471H206.006V225.474H134.482V227.471Z" fill="#1BC3BF"/>
<path d="M206.712 147.754C207.102 147.364 207.102 146.732 206.712 146.342L200.358 139.988C199.968 139.598 199.336 139.598 198.946 139.988C198.556 140.378 198.556 141.01 198.946 141.4L204.594 147.048L198.946 152.696C198.556 153.086 198.556 153.718 198.946 154.108C199.336 154.497 199.968 154.497 200.358 154.108L206.712 147.754ZM134.482 148.046H206.006V146.049H134.482V148.046Z" fill="#0197FF"/>
<path d="M206.712 184.695C207.102 184.305 207.102 183.673 206.712 183.283L200.358 176.93C199.968 176.54 199.336 176.54 198.946 176.93C198.556 177.319 198.556 177.952 198.946 178.341L204.594 183.989L198.946 189.637C198.556 190.027 198.556 190.659 198.946 191.049C199.336 191.439 199.968 191.439 200.358 191.049L206.712 184.695ZM134.482 184.988H206.006V182.991H134.482V184.988Z" fill="#1BC3BF"/>
<path d="M206.712 245.578C207.102 245.188 207.102 244.556 206.712 244.166L200.358 237.812C199.968 237.422 199.336 237.422 198.946 237.812C198.556 238.202 198.556 238.834 198.946 239.224L204.594 244.872L198.946 250.52C198.556 250.91 198.556 251.542 198.946 251.932C199.336 252.322 199.968 252.322 200.358 251.932L206.712 245.578ZM134.482 245.87H206.006V243.874H134.482V245.87Z" fill="#CD5CAE"/>
</svg>
