<svg width="541" height="347" viewBox="0 0 541 347" fill="none" xmlns="http://www.w3.org/2000/svg">
<circle cx="40.2261" cy="169.808" r="32.4146" fill="url(#paint0_linear_332_40)"/>
<circle cx="40.2261" cy="169.808" r="39.5807" stroke="url(#paint1_linear_332_40)" stroke-width="0.962657"/>
<circle cx="39.5671" cy="162.156" r="5.6909" fill="white"/>
<path fill-rule="evenodd" clip-rule="evenodd" d="M28.0889 179.004H50.8109C49.2446 174.228 44.7501 170.778 39.4499 170.778C34.1497 170.778 29.6552 174.228 28.0889 179.004Z" fill="white"/>
<circle cx="268.278" cy="306.164" r="32.4146" fill="url(#paint2_linear_332_40)"/>
<circle cx="268.278" cy="306.164" r="39.5807" stroke="url(#paint3_linear_332_40)" stroke-width="0.962657"/>
<circle cx="267.619" cy="298.511" r="5.6909" fill="white"/>
<path fill-rule="evenodd" clip-rule="evenodd" d="M256.141 315.36H278.863C277.296 310.583 272.802 307.134 267.502 307.134C262.201 307.134 257.707 310.583 256.141 315.36Z" fill="white"/>
<circle cx="500.226" cy="167.808" r="32.4146" fill="url(#paint4_linear_332_40)"/>
<circle cx="500.226" cy="167.808" r="39.5807" stroke="url(#paint5_linear_332_40)" stroke-width="0.962657"/>
<circle cx="499.567" cy="160.156" r="5.6909" fill="white"/>
<path fill-rule="evenodd" clip-rule="evenodd" d="M488.089 177.004H510.811C509.245 172.228 504.75 168.778 499.45 168.778C494.15 168.778 489.655 172.228 488.089 177.004Z" fill="white"/>
<path d="M78.4857 140.144C78.2937 140.95 78.7913 141.759 79.5971 141.951L92.7295 145.08C93.5354 145.272 94.3443 144.774 94.5363 143.968C94.7283 143.163 94.2307 142.354 93.4249 142.162L81.7517 139.38L84.5331 127.707C84.7251 126.901 84.2275 126.092 83.4216 125.9C82.6157 125.708 81.8068 126.206 81.6148 127.012L78.4857 140.144ZM226.404 51.6426C226.596 50.8367 226.098 50.0278 225.293 49.8358L212.16 46.7067C211.354 46.5146 210.545 47.0123 210.353 47.8181C210.161 48.624 210.659 49.4329 211.465 49.625L223.138 52.4064L220.357 64.0796C220.165 64.8855 220.662 65.6944 221.468 65.8864C222.274 66.0784 223.083 65.5808 223.275 64.775L226.404 51.6426ZM80.7308 141.769L225.731 52.5725L224.159 50.0173L79.1589 139.214L80.7308 141.769Z" fill="#0197FF"/>
<path d="M457.592 140.144C457.784 140.95 457.287 141.759 456.481 141.951L443.349 145.08C442.543 145.272 441.734 144.774 441.542 143.968C441.35 143.163 441.847 142.354 442.653 142.162L454.326 139.38L451.545 127.707C451.353 126.901 451.851 126.092 452.657 125.9C453.462 125.708 454.271 126.206 454.463 127.012L457.592 140.144ZM309.674 51.6426C309.482 50.8367 309.98 50.0278 310.786 49.8358L323.918 46.7067C324.724 46.5146 325.533 47.0123 325.725 47.8181C325.917 48.624 325.419 49.4329 324.613 49.625L312.94 52.4064L315.722 64.0796C315.914 64.8855 315.416 65.6944 314.61 65.8864C313.804 66.0784 312.995 65.5808 312.803 64.775L309.674 51.6426ZM455.347 141.769L310.347 52.5725L311.919 50.0173L456.919 139.214L455.347 141.769Z" fill="#CD5CAE"/>
<path d="M224.623 286.943C224.815 287.749 224.317 288.558 223.511 288.75L210.379 291.879C209.573 292.071 208.764 291.573 208.572 290.767C208.38 289.961 208.878 289.153 209.684 288.96L221.357 286.179L218.575 274.506C218.383 273.7 218.881 272.891 219.687 272.699C220.493 272.507 221.302 273.005 221.494 273.81L224.623 286.943ZM76.7044 198.441C76.5124 197.636 77.01 196.827 77.8159 196.635L90.9482 193.505C91.7541 193.313 92.5631 193.811 92.7551 194.617C92.9471 195.423 92.4495 196.232 91.6436 196.424L79.9704 199.205L82.7518 210.878C82.9439 211.684 82.4462 212.493 81.6404 212.685C80.8345 212.877 80.0256 212.38 79.8335 211.574L76.7044 198.441ZM222.378 288.568L77.3776 199.371L78.9495 196.816L223.95 286.013L222.378 288.568Z" fill="#9B90FB"/>
<path d="M267.478 251.097C268.064 251.683 269.014 251.683 269.6 251.097L279.146 241.551C279.731 240.965 279.731 240.015 279.146 239.43C278.56 238.844 277.61 238.844 277.024 239.43L268.539 247.915L260.054 239.43C259.468 238.844 258.518 238.844 257.932 239.43C257.347 240.015 257.347 240.965 257.932 241.551L267.478 251.097ZM269.6 84.705C269.014 84.1192 268.064 84.1192 267.478 84.705L257.932 94.2509C257.347 94.8367 257.347 95.7864 257.932 96.3722C258.518 96.958 259.468 96.958 260.054 96.3722L268.539 87.8869L277.024 96.3722C277.61 96.958 278.56 96.958 279.146 96.3722C279.731 95.7864 279.731 94.8367 279.146 94.2509L269.6 84.705ZM270.039 250.036L270.039 85.7656L267.039 85.7656L267.039 250.036L270.039 250.036Z" fill="#1BC4BF"/>
<circle cx="268.539" cy="40.3999" r="32.4146" fill="url(#paint6_linear_332_40)"/>
<circle cx="268.539" cy="40.3999" r="39.5807" stroke="url(#paint7_linear_332_40)" stroke-width="0.962657"/>
<circle cx="267.88" cy="32.7478" r="5.6909" fill="white"/>
<path fill-rule="evenodd" clip-rule="evenodd" d="M256.402 49.596H279.124C277.558 44.8196 273.063 41.3701 267.763 41.3701C262.463 41.3701 257.968 44.8196 256.402 49.596Z" fill="white"/>
<defs>
<linearGradient id="paint0_linear_332_40" x1="71.6872" y1="137.394" x2="-5.98001" y2="163.901" gradientUnits="userSpaceOnUse">
<stop stop-color="#53C1FF"/>
<stop offset="1" stop-color="#0053D0"/>
</linearGradient>
<linearGradient id="paint1_linear_332_40" x1="79.1098" y1="129.746" x2="-16.8813" y2="162.507" gradientUnits="userSpaceOnUse">
<stop stop-color="#53C1FF"/>
<stop offset="1" stop-color="#0053D0"/>
</linearGradient>
<linearGradient id="paint2_linear_332_40" x1="299.739" y1="273.749" x2="222.072" y2="300.256" gradientUnits="userSpaceOnUse">
<stop stop-color="#53C1FF"/>
<stop offset="1" stop-color="#0053D0"/>
</linearGradient>
<linearGradient id="paint3_linear_332_40" x1="307.162" y1="266.102" x2="211.17" y2="298.863" gradientUnits="userSpaceOnUse">
<stop stop-color="#53C1FF"/>
<stop offset="1" stop-color="#0053D0"/>
</linearGradient>
<linearGradient id="paint4_linear_332_40" x1="531.687" y1="135.394" x2="454.02" y2="161.901" gradientUnits="userSpaceOnUse">
<stop stop-color="#53C1FF"/>
<stop offset="1" stop-color="#0053D0"/>
</linearGradient>
<linearGradient id="paint5_linear_332_40" x1="539.11" y1="127.746" x2="443.119" y2="160.507" gradientUnits="userSpaceOnUse">
<stop stop-color="#53C1FF"/>
<stop offset="1" stop-color="#0053D0"/>
</linearGradient>
<linearGradient id="paint6_linear_332_40" x1="300" y1="7.98534" x2="222.333" y2="34.4926" gradientUnits="userSpaceOnUse">
<stop stop-color="#53C1FF"/>
<stop offset="1" stop-color="#0053D0"/>
</linearGradient>
<linearGradient id="paint7_linear_332_40" x1="307.423" y1="0.337874" x2="211.432" y2="33.0988" gradientUnits="userSpaceOnUse">
<stop stop-color="#53C1FF"/>
<stop offset="1" stop-color="#0053D0"/>
</linearGradient>
</defs>
</svg>
