<?xml version="1.0" encoding="UTF-8" standalone="no"?>
<svg
   width="560"
   height="164"
   version="1.1"
   id="svg1048"
   sodipodi:docname="f_droid.svg"
   inkscape:version="1.1.2 (0a00cf5339, 2022-02-04, custom)"
   xmlns:inkscape="http://www.inkscape.org/namespaces/inkscape"
   xmlns:sodipodi="http://sodipodi.sourceforge.net/DTD/sodipodi-0.dtd"
   xmlns:xlink="http://www.w3.org/1999/xlink"
   xmlns="http://www.w3.org/2000/svg"
   xmlns:svg="http://www.w3.org/2000/svg">
  <sodipodi:namedview
     id="namedview1050"
     pagecolor="#505050"
     bordercolor="#ffffff"
     borderopacity="1"
     inkscape:pageshadow="0"
     inkscape:pageopacity="0"
     inkscape:pagecheckerboard="1"
     showgrid="false"
     inkscape:snap-bbox="true"
     inkscape:bbox-paths="true"
     inkscape:bbox-nodes="true"
     inkscape:snap-bbox-edge-midpoints="true"
     inkscape:snap-bbox-midpoints="true"
     inkscape:snap-intersection-paths="true"
     inkscape:object-paths="true"
     inkscape:snap-smooth-nodes="true"
     inkscape:snap-midpoints="true"
     inkscape:snap-object-midpoints="true"
     inkscape:snap-center="true"
     inkscape:snap-text-baseline="true"
     inkscape:snap-page="true"
     fit-margin-top="0"
     fit-margin-left="0"
     fit-margin-right="0"
     fit-margin-bottom="0"
     inkscape:zoom="1.1996734"
     inkscape:cx="186.71748"
     inkscape:cy="100.02722"
     inkscape:window-width="1920"
     inkscape:window-height="1007"
     inkscape:window-x="0"
     inkscape:window-y="0"
     inkscape:window-maximized="1"
     inkscape:current-layer="svg1048" />
  <defs
     id="defs974">
    <linearGradient
       id="a">
      <stop
         offset="0"
         stop-color="#fff"
         stop-opacity=".098"
         id="stop968" />
      <stop
         offset="1"
         stop-color="#fff"
         stop-opacity="0"
         id="stop970" />
    </linearGradient>
    <radialGradient
       xlink:href="#a"
       id="b"
       cx="113"
       cy="-12.89"
       fx="113"
       fy="-12.89"
       r="59.661999"
       gradientTransform="matrix(0,1.96105,-1.97781,0,254.507,78.763)"
       gradientUnits="userSpaceOnUse" />
  </defs>
  <g
     transform="translate(-332,-355.362)"
     id="g1046">
    <rect
       style="stroke:none;marker:none"
       width="560"
       height="164"
       x="332"
       y="355.362"
       rx="20"
       ry="20"
       color="#000000"
       overflow="visible"
       stroke="#a6a6a6"
       stroke-width="4"
       id="rect976" />
    <text
       y="402.367"
       x="508.95099"
       style="line-height:100%;-inkscape-font-specification:'DejaVu Sans';marker:none"
       color="#000000"
       font-weight="400"
       font-size="12.395px"
       font-family="'DejaVu Sans'"
       letter-spacing="0"
       word-spacing="0"
       overflow="visible"
       fill="#ffffff"
       id="text980"><tspan
         y="402.367"
         x="508.95099"
         style="-inkscape-font-specification:'DejaVu Sans'"
         font-size="34.125px"
         id="tspan978">GET IT ON</tspan></text>
    <text
       style="line-height:100%;-inkscape-font-specification:'Rokkitt Bold';text-align:start;marker:none"
       x="508.21301"
       y="489.36099"
       color="#000000"
       font-weight="700"
       font-size="29.709px"
       font-family="Rokkitt"
       letter-spacing="0"
       word-spacing="0"
       overflow="visible"
       fill="#ffffff"
       id="text984"><tspan
         x="508.21301"
         y="489.36099"
         style="line-height:100%;-inkscape-font-specification:'Roboto Slab Bold';text-align:start"
         font-size="95px"
         font-family="'Roboto Slab'"
         id="tspan982">F-Droid</tspan></text>
    <g
       fill-rule="evenodd"
       id="g994">
      <path
         d="m 2.589,1006.862 4.25,5.5"
         fill="#8ab000"
         stroke="#769616"
         stroke-width="2.5"
         stroke-linecap="round"
         transform="matrix(-2.63159,0,0,2.63157,483.158,-2270.475)"
         id="path986" />
      <path
         style="line-height:normal;text-indent:0;text-align:start;text-decoration-line:none;text-decoration-style:solid;text-decoration-color:#000000;text-transform:none;isolation:auto;mix-blend-mode:normal"
         d="m 476.286,375.862 c 1.193,0.031 2.004,0.497 2.58,1.18 -5.333,6.34 -6.232,7.347 -13.514,16.372 -2.683,3.472 -5.478,1.678 -2.795,-1.793 l 11.185,-14.474 c 0.602,-0.804 1.54,-1.258 2.544,-1.285 z"
         color="#000000"
         font-weight="400"
         font-family="sans-serif"
         white-space="normal"
         overflow="visible"
         fill="#ffffff"
         fill-opacity="0.298"
         id="path988" />
      <path
         style="line-height:normal;text-indent:0;text-align:start;text-decoration-line:none;text-decoration-style:solid;text-decoration-color:#000000;text-transform:none;isolation:auto;mix-blend-mode:normal"
         d="m 478.89,377.075 c 0.325,0.39 1.476,2.118 0.058,4.096 l -11.184,14.473 c -2.683,3.471 -3.026,-1.611 -3.026,-1.611 0,0 9.828,-11.869 14.151,-16.958 z"
         color="#000000"
         font-weight="400"
         font-family="sans-serif"
         white-space="normal"
         overflow="visible"
         fill="#263238"
         fill-opacity="0.2"
         id="path990" />
      <path
         style="line-height:normal;text-indent:0;text-align:start;text-decoration-line:none;text-decoration-style:solid;text-decoration-color:#000000;text-transform:none;isolation:auto;mix-blend-mode:normal"
         d="m 477.006,376.48 c 1.153,0 2.525,0.373 2.169,2.102 -0.273,1.32 -12.266,15.985 -12.266,15.985 -2.683,3.47 -6.562,1.78 -3.879,-1.691 l 11.143,-14.402 c 0.685,-0.763 1.602,-1.957 2.833,-1.994 z"
         color="#000000"
         font-weight="400"
         font-family="sans-serif"
         white-space="normal"
         overflow="visible"
         fill="#8ab000"
         id="path992" />
    </g>
    <g
       fill-rule="evenodd"
       id="g1004">
      <path
         d="m 2.589,1006.862 4.25,5.5"
         fill="#8ab000"
         stroke="#769616"
         stroke-width="2.5"
         stroke-linecap="round"
         transform="matrix(2.63159,0,0,2.63157,356.842,-2270.475)"
         id="path996" />
      <path
         d="m 363.714,375.862 c -1.193,0.031 -2.004,0.497 -2.58,1.18 5.333,6.34 6.232,7.347 13.514,16.372 2.683,3.472 5.478,1.678 2.795,-1.793 l -11.185,-14.474 c -0.602,-0.804 -1.54,-1.258 -2.544,-1.285 z"
         style="line-height:normal;text-indent:0;text-align:start;text-decoration-line:none;text-decoration-style:solid;text-decoration-color:#000000;text-transform:none;isolation:auto;mix-blend-mode:normal"
         color="#000000"
         font-weight="400"
         font-family="sans-serif"
         white-space="normal"
         overflow="visible"
         fill="#ffffff"
         fill-opacity="0.298"
         id="path998" />
      <path
         d="m 361.11,377.075 c -0.325,0.39 -1.476,2.118 -0.058,4.096 l 11.184,14.473 c 2.683,3.471 3.026,-1.611 3.026,-1.611 0,0 -9.828,-11.869 -14.151,-16.958 z"
         style="line-height:normal;text-indent:0;text-align:start;text-decoration-line:none;text-decoration-style:solid;text-decoration-color:#000000;text-transform:none;isolation:auto;mix-blend-mode:normal"
         color="#000000"
         font-weight="400"
         font-family="sans-serif"
         white-space="normal"
         overflow="visible"
         fill="#263238"
         fill-opacity="0.2"
         id="path1000" />
      <path
         d="m 362.995,376.48 c -1.153,0 -2.526,0.373 -2.17,2.102 0.273,1.32 12.266,15.985 12.266,15.985 2.683,3.47 6.562,1.78 3.879,-1.691 l -11.143,-14.402 c -0.685,-0.763 -1.602,-1.957 -2.832,-1.994 z"
         style="line-height:normal;text-indent:0;text-align:start;text-decoration-line:none;text-decoration-style:solid;text-decoration-color:#000000;text-transform:none;isolation:auto;mix-blend-mode:normal"
         color="#000000"
         font-weight="400"
         font-family="sans-serif"
         white-space="normal"
         overflow="visible"
         fill="#8ab000"
         id="path1002" />
    </g>
    <g
       transform="matrix(2.63159,0,0,2.63157,467.369,-2270.475)"
       id="g1014">
      <rect
         ry="3"
         rx="3"
         y="1010.36"
         x="-37"
         height="12.92"
         width="38"
         fill="#aeea00"
         id="rect1006" />
      <rect
         width="38"
         height="10"
         x="-37"
         y="1013.279"
         rx="3"
         ry="3"
         fill="#263238"
         fill-opacity="0.2"
         id="rect1008" />
      <rect
         width="38"
         height="10"
         x="-37"
         y="1010.362"
         rx="3"
         ry="3"
         fill="#ffffff"
         fill-opacity="0.298"
         id="rect1010" />
      <rect
         width="38"
         height="10.641"
         x="-37"
         y="1011.5"
         rx="3"
         ry="2.4560001"
         fill="#aeea00"
         id="rect1012" />
    </g>
    <g
       transform="matrix(2.63159,0,0,2.63157,356.842,-2270.745)"
       id="g1024">
      <rect
         ry="3"
         rx="3"
         y="1024.522"
         x="5"
         height="25.84"
         width="38"
         fill="#1976d2"
         id="rect1016" />
      <rect
         width="38"
         height="13"
         x="5"
         y="1037.3621"
         rx="3"
         ry="3"
         fill="#263238"
         fill-opacity="0.2"
         id="rect1018" />
      <rect
         width="38"
         height="13"
         x="5"
         y="1024.442"
         rx="3"
         ry="3"
         fill="#ffffff"
         fill-opacity="0.2"
         id="rect1020" />
      <rect
         width="38"
         height="23.559999"
         x="5"
         y="1025.662"
         rx="3"
         ry="2.7179999"
         fill="#1976d2"
         id="rect1022" />
    </g>
    <g
       transform="matrix(2.63159,0,0,2.63157,356.842,396.264)"
       id="g1030">
      <path
         d="m 24,17.75 c -2.88,0 -5.32,1.985 -6.033,4.65 H 21.18 A 3.215,3.215 0 0 1 24,20.75 3.228,3.228 0 0 1 27.25,24 3.228,3.228 0 0 1 24,27.25 3.219,3.219 0 0 1 21.07,25.4 h -3.154 c 0.642,2.766 3.132,4.85 6.084,4.85 3.434,0 6.25,-2.816 6.25,-6.25 0,-3.434 -2.816,-6.25 -6.25,-6.25 z"
         style="line-height:normal;text-indent:0;text-align:start;text-decoration-line:none;text-decoration-style:solid;text-decoration-color:#000000;text-transform:none;isolation:auto;mix-blend-mode:normal"
         color="#000000"
         font-weight="400"
         font-family="sans-serif"
         white-space="normal"
         overflow="visible"
         fill="#0d47a1"
         id="path1026" />
      <circle
         r="9.5500002"
         cy="24"
         cx="24"
         fill="none"
         stroke="#0d47a1"
         stroke-width="1.9"
         stroke-linecap="round"
         id="circle1028" />
    </g>
    <g
       transform="matrix(2.63159,0,0,2.63157,356.842,-2269.159)"
       id="g1036">
      <ellipse
         ry="3.875"
         rx="3.375"
         cx="14.375"
         cy="1016.487"
         fill="#263238"
         fill-opacity="0.2"
         id="ellipse1032" />
      <circle
         r="3.375"
         cy="1016.987"
         cx="14.375"
         fill="#ffffff"
         id="circle1034" />
    </g>
    <g
       transform="matrix(2.63159,0,0,2.63157,408.158,-2269.159)"
       id="g1042">
      <ellipse
         cy="1016.487"
         cx="14.375"
         rx="3.375"
         ry="3.875"
         fill="#263238"
         fill-opacity="0.2"
         id="ellipse1038" />
      <circle
         cx="14.375"
         cy="1016.987"
         r="3.375"
         fill="#ffffff"
         id="circle1040" />
    </g>
    <path
       d="m 282.715,299.835 a 3.29,3.29 0 0 0 -2.662,5.336 l 9.474,12.261 A 7.894,7.894 0 0 0 289,320.257 v 18.21 a 7.877,7.877 0 0 0 7.895,7.895 h 84.21 A 7.877,7.877 0 0 0 389,338.468 v -18.211 c 0,-0.999 -0.19,-1.949 -0.525,-2.826 l 9.472,-12.26 a 3.29,3.29 0 0 0 -2.433,-5.334 3.29,3.29 0 0 0 -2.772,1.31 l -9.013,11.666 a 7.91,7.91 0 0 0 -2.624,-0.45 h -84.21 c -0.922,0 -1.8,0.163 -2.622,0.45 l -9.015,-11.666 a 3.29,3.29 0 0 0 -2.543,-1.312 z m 14.18,49.527 A 7.877,7.877 0 0 0 289,357.257 v 52.21 a 7.877,7.877 0 0 0 7.895,7.895 h 84.21 A 7.877,7.877 0 0 0 389,409.468 v -52.211 a 7.877,7.877 0 0 0 -7.895,-7.895 z"
       style="line-height:normal;text-indent:0;text-align:start;text-decoration-line:none;text-decoration-style:solid;text-decoration-color:#000000;text-transform:none;isolation:auto;mix-blend-mode:normal;fill:url(#b)"
       color="#000000"
       font-weight="400"
       font-family="sans-serif"
       white-space="normal"
       overflow="visible"
       fill="url(#b)"
       fill-rule="evenodd"
       transform="translate(81,76)"
       id="path1044" />
  </g>
</svg>
