<svg width="144" height="69" viewBox="0 0 144 69" fill="none" xmlns="http://www.w3.org/2000/svg">
<path d="M41.0908 34.4107C41.0908 15.9585 56.0493 1 74.5014 1C92.9538 1 107.912 15.9585 107.912 34.4107C107.912 52.8629 92.9538 67.8213 74.5014 67.8213H41.0908V34.4107Z" fill="url(#paint0_linear_56_468)" stroke="#606C71"/>
<path d="M59.2295 22.6084H76.5609" stroke="white" stroke-linecap="round"/>
<path d="M59.2295 34.6084H89.6048" stroke="white" stroke-linecap="round"/>
<path d="M59.2295 45.6084H89.6048" stroke="white" stroke-linecap="round"/>
<path fill-rule="evenodd" clip-rule="evenodd" d="M11.9484 29.599L10.7779 27.6255L0 34.0176V35.9088L10.7779 42.3008L11.9484 40.3273L2.9036 34.9632L11.9484 29.599Z" fill="#A8B0B4"/>
<path fill-rule="evenodd" clip-rule="evenodd" d="M131.908 40.2028L133.067 42.1569L143.739 35.8276V35.8274V33.9548L133.067 27.6255L131.908 29.5796L140.864 34.8912L131.908 40.2028Z" fill="#A8B0B4"/>
<path d="M102.582 65.7377C109.573 65.7377 115.239 60.0711 115.239 53.081C115.239 46.0909 109.573 40.4243 102.582 40.4243C95.5924 40.4243 89.9258 46.0909 89.9258 53.081C89.9258 60.0711 95.5924 65.7377 102.582 65.7377Z" fill="url(#paint1_linear_56_468)" stroke="#606C71"/>
<path d="M106.189 57.3214V51.6772C105.792 51.6775 105.396 51.6782 105 51.6782L98.238 51.6783H98.127V57.3214H106.189Z" fill="#606C71"/>
<path d="M104.954 50.8759C104.556 50.8759 104.165 50.8759 103.761 50.8759C103.761 50.8457 103.761 50.8166 103.761 50.7874C103.761 50.4019 103.766 50.0162 103.76 49.6307C103.75 48.9374 103.426 48.436 102.802 48.1422C101.9 47.7179 100.777 48.2899 100.582 49.2656C100.56 49.3788 100.549 49.4961 100.548 49.6116C100.544 50.0027 100.547 50.3939 100.548 50.785C100.548 50.8124 100.548 50.8397 100.548 50.8727C100.148 50.8727 99.7525 50.8727 99.3595 50.8727C99.3555 50.8658 99.3515 50.861 99.3515 50.8563C99.3515 50.3708 99.3255 49.8836 99.3585 49.4003C99.4125 48.5914 99.7785 47.9301 100.409 47.4198C100.84 47.0706 101.338 46.8686 101.888 46.8217C103.156 46.7134 104.216 47.4079 104.696 48.4383C104.864 48.8005 104.948 49.1821 104.955 49.579C104.963 49.9949 104.957 50.4111 104.957 50.8272C104.957 50.8407 104.956 50.8542 104.954 50.8759Z" fill="#606C71"/>
<defs>
<linearGradient id="paint0_linear_56_468" x1="107.415" y1="0.499996" x2="26.1627" y2="28.2307" gradientUnits="userSpaceOnUse">
<stop stop-color="#1BC4BF"/>
<stop offset="1" stop-color="#009F9B"/>
</linearGradient>
<linearGradient id="paint1_linear_56_468" x1="115.351" y1="39.9242" x2="83.8275" y2="50.6833" gradientUnits="userSpaceOnUse">
<stop stop-color="#FDFF97"/>
<stop offset="1" stop-color="#F1DA09"/>
</linearGradient>
</defs>
</svg>
