<svg width="78" height="72" viewBox="0 0 78 72" fill="none" xmlns="http://www.w3.org/2000/svg">
<path d="M37.7187 70.4134C54.1664 70.4134 67.4999 57.0799 67.4999 40.6322C67.4999 24.1845 54.1664 10.851 37.7187 10.851C21.271 10.851 7.9375 24.1845 7.9375 40.6322C7.9375 57.0799 21.271 70.4134 37.7187 70.4134Z" stroke="url(#paint0_linear_35_36)" stroke-linecap="round" stroke-dasharray="3 4"/>
<path d="M37.6263 29.8034C45.8563 29.8034 52.528 23.1317 52.528 14.9017C52.528 6.67172 45.8563 0 37.6263 0C29.3963 0 22.7246 6.67172 22.7246 14.9017C22.7246 23.1317 29.3963 29.8034 37.6263 29.8034Z" fill="url(#paint1_linear_35_36)"/>
<path d="M37.5222 14.6884C39.1342 14.6884 40.441 13.3816 40.441 11.7697C40.441 10.1577 39.1342 8.85095 37.5222 8.85095C35.9103 8.85095 34.6035 10.1577 34.6035 11.7697C34.6035 13.3816 35.9103 14.6884 37.5222 14.6884Z" fill="white"/>
<path fill-rule="evenodd" clip-rule="evenodd" d="M43.2886 20.018H31.6348C32.438 17.5681 34.7432 15.7988 37.4617 15.7988C40.1802 15.7988 42.4854 17.5681 43.2886 20.018Z" fill="white"/>
<path d="M14.9017 71.4933C23.1317 71.4933 29.8034 64.8216 29.8034 56.5916C29.8034 48.3616 23.1317 41.6899 14.9017 41.6899C6.67171 41.6899 0 48.3616 0 56.5916C0 64.8216 6.67171 71.4933 14.9017 71.4933Z" fill="url(#paint2_linear_35_36)"/>
<path d="M14.7996 56.3789C16.4115 56.3789 17.7183 55.0722 17.7183 53.4602C17.7183 51.8483 16.4115 50.5415 14.7996 50.5415C13.1876 50.5415 11.8809 51.8483 11.8809 53.4602C11.8809 55.0722 13.1876 56.3789 14.7996 56.3789Z" fill="white"/>
<path fill-rule="evenodd" clip-rule="evenodd" d="M20.5659 61.7084H8.91211C9.71531 59.2585 12.0206 57.4892 14.739 57.4892C17.4575 57.4892 19.7627 59.2585 20.5659 61.7084Z" fill="white"/>
<path d="M62.191 71.4933C70.421 71.4933 77.0927 64.8216 77.0927 56.5916C77.0927 48.3616 70.421 41.6899 62.191 41.6899C53.961 41.6899 47.2893 48.3616 47.2893 56.5916C47.2893 64.8216 53.961 71.4933 62.191 71.4933Z" fill="url(#paint3_linear_35_36)"/>
<path d="M62.0889 56.3789C63.7008 56.3789 65.0076 55.0722 65.0076 53.4602C65.0076 51.8483 63.7008 50.5415 62.0889 50.5415C60.4769 50.5415 59.1702 51.8483 59.1702 53.4602C59.1702 55.0722 60.4769 56.3789 62.0889 56.3789Z" fill="white"/>
<path fill-rule="evenodd" clip-rule="evenodd" d="M67.8549 61.7084H56.2009C57.0039 59.2585 59.3099 57.4892 62.0279 57.4892C64.7469 57.4892 67.0519 59.2585 67.8549 61.7084Z" fill="white"/>
<defs>
<linearGradient id="paint0_linear_35_36" x1="66.6239" y1="10.851" x2="-4.7336" y2="35.2048" gradientUnits="userSpaceOnUse">
<stop stop-color="#9B90FB"/>
<stop offset="1" stop-color="#6654CF"/>
</linearGradient>
<linearGradient id="paint1_linear_35_36" x1="52.0898" y1="-9.91215e-05" x2="16.3842" y2="12.1859" gradientUnits="userSpaceOnUse">
<stop stop-color="#9B90FB"/>
<stop offset="1" stop-color="#6654CF"/>
</linearGradient>
<linearGradient id="paint2_linear_35_36" x1="29.3652" y1="41.6899" x2="-6.3403" y2="53.8759" gradientUnits="userSpaceOnUse">
<stop stop-color="#9B90FB"/>
<stop offset="1" stop-color="#6654CF"/>
</linearGradient>
<linearGradient id="paint3_linear_35_36" x1="76.654" y1="41.6899" x2="40.9489" y2="53.8759" gradientUnits="userSpaceOnUse">
<stop stop-color="#9B90FB"/>
<stop offset="1" stop-color="#6654CF"/>
</linearGradient>
</defs>
</svg>
