<svg width="77" height="69" viewBox="0 0 77 69" fill="none" xmlns="http://www.w3.org/2000/svg">
<g clip-path="url(#clip0_3_22)">
<path d="M1 34.1133C1 15.6611 15.9585 0.702637 34.4106 0.702637C52.8628 0.702637 67.8213 15.6611 67.8213 34.1133C67.8213 52.5655 52.8628 67.5239 34.4106 67.5239H1V34.1133Z" fill="url(#paint0_linear_3_22)" stroke="#606C71"/>
<g clip-path="url(#clip1_3_22)">
<path d="M44.7372 42.1903H20.7417C18.9398 42.1903 17.479 40.7317 17.479 38.9324V25.6276C17.479 23.8282 18.9398 22.3696 20.7417 22.3696H44.7372C46.5391 22.3696 47.9999 23.8282 47.9999 25.6276V38.9324C47.9999 40.7317 46.5391 42.1903 44.7372 42.1903Z" stroke="white" stroke-miterlimit="10"/>
<path d="M17.479 38.7447L24.2214 33.2745L30.2264 37.6927L41.6042 26.542L47.9252 31.8018" stroke="white" stroke-miterlimit="10"/>
<path d="M24.4563 29.6721C25.4248 29.6721 26.2099 28.8881 26.2099 27.921C26.2099 26.9539 25.4248 26.1699 24.4563 26.1699C23.4878 26.1699 22.7026 26.9539 22.7026 27.921C22.7026 28.8881 23.4878 29.6721 24.4563 29.6721Z" stroke="white" stroke-miterlimit="10"/>
</g>
</g>
<g clip-path="url(#clip2_3_22)">
<path d="M63.4917 66.4404C70.4818 66.4404 76.1484 60.7738 76.1484 53.7837C76.1484 46.7936 70.4818 41.127 63.4917 41.127C56.5016 41.127 50.835 46.7936 50.835 53.7837C50.835 60.7738 56.5016 66.4404 63.4917 66.4404Z" fill="url(#paint1_linear_3_22)" stroke="#606C71"/>
<path d="M67.0978 58.0241V52.3799C66.7014 52.3802 66.305 52.3809 65.9087 52.3809L59.1471 52.381H59.0356V58.0241H67.0978Z" fill="#606C71"/>
<path d="M65.8635 51.5785C65.4646 51.5785 65.0742 51.5785 64.6704 51.5785C64.6704 51.5483 64.6704 51.5192 64.6704 51.49C64.6704 51.1045 64.6753 50.7188 64.6693 50.3333C64.6586 49.64 64.3351 49.1386 63.7108 48.8448C62.8093 48.4205 61.686 48.9925 61.4912 49.9682C61.4686 50.0814 61.458 50.1987 61.4569 50.3142C61.4531 50.7053 61.4562 51.0965 61.4566 51.4876C61.4566 51.515 61.4566 51.5423 61.4566 51.5753C61.0569 51.5753 60.6624 51.5753 60.2686 51.5753C60.2654 51.5684 60.2613 51.5636 60.2613 51.5589C60.2613 51.0734 60.2353 50.5863 60.2678 50.103C60.3223 49.2941 60.6878 48.6328 61.3181 48.1225C61.7493 47.7733 62.2467 47.5712 62.7967 47.5243C64.0654 47.416 65.1249 48.1105 65.6047 49.1409C65.7733 49.5031 65.857 49.8847 65.8642 50.2816C65.8718 50.6975 65.8663 51.1137 65.8663 51.5298C65.8663 51.5433 65.8648 51.5568 65.8635 51.5785Z" fill="#606C71"/>
</g>
<defs>
<linearGradient id="paint0_linear_3_22" x1="67.3239" y1="0.202625" x2="-13.9281" y2="27.9333" gradientUnits="userSpaceOnUse">
<stop stop-color="#53C1FF"/>
<stop offset="1" stop-color="#0053D0"/>
</linearGradient>
<linearGradient id="paint1_linear_3_22" x1="76.2615" y1="40.627" x2="44.7371" y2="51.386" gradientUnits="userSpaceOnUse">
<stop stop-color="#FDFF97"/>
<stop offset="1" stop-color="#F1DA09"/>
</linearGradient>
<clipPath id="clip0_3_22">
<rect width="69" height="69" fill="white"/>
</clipPath>
<clipPath id="clip1_3_22">
<rect width="33" height="22" fill="white" transform="translate(16 21)"/>
</clipPath>
<clipPath id="clip2_3_22">
<rect width="27" height="27" fill="white" transform="translate(50 40)"/>
</clipPath>
</defs>
</svg>
