<svg width="101" height="62" viewBox="0 0 101 62" fill="none" xmlns="http://www.w3.org/2000/svg">
<path d="M98.8761 28.7459V28.7458C99.0031 28.6556 99.1711 28.6432 99.3111 28.7146C99.4501 28.7857 99.536 28.9268 99.536 29.0786C99.536 29.0786 99.536 29.0786 99.536 29.0787V49.9215C99.536 50.0732 99.4501 50.2142 99.3111 50.2854C99.2511 50.3162 99.185 50.3315 99.12 50.3315C99.034 50.3315 98.9481 50.3053 98.8761 50.2542V50.2541L85.635 40.8605L84.846 40.3006V41.2683V49.9215C84.846 52.4425 82.779 54.5001 80.233 54.5001H57.1489C54.6024 54.5001 52.5356 52.4425 52.5356 49.9215V29.0786C52.5356 26.5576 54.6024 24.5 57.1489 24.5H80.233C82.779 24.5 84.846 26.5576 84.846 29.0786V37.7318V38.6996L85.635 38.1396L98.8761 28.7459Z" fill="url(#paint0_linear_5_21)" stroke="#3F484B"/>
<path d="M32.8611 53.7794L26.7169 47.8503L26.7167 47.8501C26.26 47.409 25.8155 47.1829 25.3975 47.1178C24.9843 47.0534 24.5468 47.1383 24.0829 47.4094L24.0823 47.4098C22.4822 48.342 21.2476 48.5935 20.346 48.5594C19.4435 48.5253 18.9149 48.2063 18.7263 48.0648C17.3082 47.0043 15.9426 45.9813 14.0541 43.2668L14.0539 43.2665C11.7294 39.921 11.0107 37.8998 10.5218 36.264L10.5217 36.2637C10.274 35.4328 10.3359 33.1889 12.7326 31.3321L12.7329 31.3318C13.1762 30.9889 13.4339 30.5899 13.5366 30.1595C13.64 29.7261 13.5964 29.2163 13.3587 28.6395H13.3586C13.122 28.0652 13.0215 27.8211 12.9167 27.5789C12.8383 27.3977 12.7576 27.2176 12.6158 26.9012L12.6156 26.9007L12.6049 26.8767C12.2718 26.1313 11.6093 24.6487 9.90199 20.7546M32.8611 53.7794L8.2932 19.5359ZM32.8611 53.7794C33.3943 54.2938 33.5965 54.9117 33.4577 55.7453V55.7454C33.3077 56.6475 32.8115 57.0131 32.3075 57.3776L32.3072 57.3779L29.6048 59.3358L29.6047 59.3359C28.6924 59.9972 28.0435 60.2953 27.5254 60.4199C27.0171 60.5421 26.5952 60.5075 26.0977 60.4291L26.1015 60.4297L26.016 60.9224M32.8611 53.7794L26.094 60.4285ZM9.90199 20.7546L10.3599 20.5538ZM9.90199 20.7546C9.90199 20.7546 9.90209 20.7547 9.90209 20.7548L10.3599 20.5538M9.90199 20.7546C9.60029 20.0677 9.0978 19.6754 8.2932 19.5359ZM10.3599 20.5538C9.987 19.7045 9.33879 19.2097 8.37859 19.0432C7.29129 18.8548 6.64649 19.3212 6.12729 19.6967L6.12499 19.6984M10.3599 20.5538L6.41809 20.1034ZM8.2932 19.5359C7.4212 19.3847 6.92569 19.7363 6.41809 20.1034ZM8.2932 19.5359L6.41809 20.1034ZM6.41809 20.1034L6.41829 20.1033L6.12499 19.6984M6.12499 19.6984L6.41799 20.1035ZM6.12499 19.6984L3.42259 21.6563C1.50929 23.0418 1.2201 23.9759 1.0413 25.0505M6.41799 20.1035L33.2083 53.4196C33.8705 54.0584 34.1143 54.8464 33.9509 55.8274C33.766 56.939 33.1202 57.4069 32.6005 57.7828L29.8981 59.7407C28.0126 61.1075 27.0621 61.0875 26.016 60.9224M6.41799 20.1035L3.71589 22.0612ZM6.41799 20.1035L3.71589 22.0612ZM1.0413 25.0505C0.816296 26.4034 1.26319 35.554 8.81689 46.3795C16.3357 57.2338 24.6408 60.684 25.9652 60.9136L26.016 60.9224M1.0413 25.0505L1.53449 25.1326ZM1.0413 25.0505L1.53449 25.1326ZM26.016 60.9224L26.094 60.4285ZM26.094 60.4285L26.0507 60.4209H26.0506C25.7909 60.3759 25.0749 60.1427 24.0027 59.6224C22.9452 59.1091 21.5714 58.331 20.0025 57.2225C16.8654 55.006 12.9519 51.4709 9.2279 46.0948L9.22689 46.0934C5.48559 40.7316 3.50879 35.7911 2.49479 32.0325C1.98769 30.1529 1.72179 28.5699 1.59629 27.3792C1.46919 26.173 1.48969 25.4022 1.53449 25.1326L26.094 60.4285ZM1.53449 25.1326C1.61999 24.6188 1.72369 24.1918 2.00699 23.7326C2.29469 23.2664 2.7902 22.7316 3.7158 22.0613L3.71589 22.0612M1.53449 25.1326L3.71589 22.0612Z" fill="url(#paint1_linear_5_21)"/>
<path d="M32.8611 53.7794L26.7169 47.8503L26.7167 47.8501C26.26 47.409 25.8155 47.1829 25.3975 47.1178C24.9843 47.0534 24.5468 47.1383 24.0829 47.4094L24.0823 47.4098C22.4822 48.342 21.2476 48.5935 20.346 48.5594C19.4435 48.5253 18.9149 48.2063 18.7263 48.0648C17.3082 47.0043 15.9426 45.9813 14.0541 43.2668L14.0539 43.2665C11.7294 39.921 11.0107 37.8998 10.5218 36.264L10.5217 36.2637C10.274 35.4328 10.3359 33.1889 12.7326 31.3321L12.7329 31.3318C13.1762 30.9889 13.4339 30.5899 13.5366 30.1595C13.64 29.7261 13.5964 29.2163 13.3587 28.6395H13.3586C13.122 28.0652 13.0215 27.8211 12.9167 27.5789C12.8383 27.3977 12.7576 27.2176 12.6158 26.9012L12.6156 26.9007L12.6049 26.8767C12.2718 26.1313 11.6093 24.6487 9.90199 20.7546M32.8611 53.7794L8.2932 19.5359M32.8611 53.7794C33.3943 54.2938 33.5965 54.9117 33.4577 55.7453V55.7454C33.3077 56.6475 32.8115 57.0131 32.3075 57.3776L32.3072 57.3779L29.6048 59.3358L29.6047 59.3359C28.6924 59.9972 28.0435 60.2953 27.5254 60.4199C27.0171 60.5421 26.5952 60.5075 26.0977 60.4291L26.1015 60.4297L26.016 60.9224M32.8611 53.7794L26.094 60.4285M9.90199 20.7546L10.3599 20.5538M9.90199 20.7546C9.90199 20.7546 9.90209 20.7547 9.90209 20.7548L10.3599 20.5538M9.90199 20.7546C9.60029 20.0677 9.0978 19.6754 8.2932 19.5359M10.3599 20.5538C9.987 19.7045 9.33879 19.2097 8.37859 19.0432C7.29129 18.8548 6.64649 19.3212 6.12729 19.6967L6.12499 19.6984M10.3599 20.5538L6.41809 20.1034M8.2932 19.5359C7.4212 19.3847 6.92569 19.7363 6.41809 20.1034M8.2932 19.5359L6.41809 20.1034M6.41809 20.1034L6.41829 20.1033L6.12499 19.6984M6.12499 19.6984L6.41799 20.1035M6.12499 19.6984L3.42259 21.6563C1.50929 23.0418 1.2201 23.9759 1.0413 25.0505M6.41799 20.1035L33.2083 53.4196C33.8705 54.0584 34.1143 54.8464 33.9509 55.8274C33.766 56.939 33.1202 57.4069 32.6005 57.7828L29.8981 59.7407C28.0126 61.1075 27.0621 61.0875 26.016 60.9224M6.41799 20.1035L3.71589 22.0612M6.41799 20.1035L3.71589 22.0612M1.0413 25.0505C0.816296 26.4034 1.26319 35.554 8.81689 46.3795C16.3357 57.2338 24.6408 60.684 25.9652 60.9136L26.016 60.9224M1.0413 25.0505L1.53449 25.1326M1.0413 25.0505L1.53449 25.1326M26.016 60.9224L26.094 60.4285M1.53449 25.1326C1.61999 24.6188 1.72369 24.1918 2.00699 23.7326C2.29469 23.2664 2.7902 22.7316 3.7158 22.0613L3.71589 22.0612M1.53449 25.1326L3.71589 22.0612M26.094 60.4285L26.0507 60.4209H26.0506C25.7909 60.3759 25.0749 60.1427 24.0027 59.6224C22.9452 59.1091 21.5714 58.331 20.0025 57.2225C16.8654 55.006 12.9519 51.4709 9.2279 46.0948L9.22689 46.0934C5.48559 40.7316 3.50879 35.7911 2.49479 32.0325C1.98769 30.1529 1.72179 28.5699 1.59629 27.3792C1.46919 26.173 1.48969 25.4022 1.53449 25.1326L26.094 60.4285Z" stroke="#3F484B"/>
<path d="M38.6029 7.97409H42.7747V8.89399H37.5189V0.362793H38.6029V7.97409ZM44.4653 0.362793H49.6215V1.30619H47.5766V7.95649H49.6215V8.89399H44.4653V7.95649H46.4633V1.30619H44.4653V0.362793ZM54.107 7.14789L56.1226 0.362793H57.2769L54.5875 8.89399H53.6441L50.9488 0.362793H52.1089L54.107 7.14789ZM63.333 4.95069H59.7702V7.97409H63.924V8.89399H58.6862V0.362793H63.872V1.28859H59.7702V4.03079H63.333V4.95069Z" fill="#606C71"/>
<defs>
<linearGradient id="paint0_linear_5_21" x1="99.33" y1="24" x2="49.1416" y2="50.522" gradientUnits="userSpaceOnUse">
<stop stop-color="#1BC4BF"/>
<stop offset="1" stop-color="#009F9B"/>
</linearGradient>
<linearGradient id="paint1_linear_5_21" x1="33.5147" y1="19" x2="-7.6642" y2="30.0424" gradientUnits="userSpaceOnUse">
<stop stop-color="#9B90FB"/>
<stop offset="1" stop-color="#6654CF"/>
</linearGradient>
</defs>
</svg>
