<svg width="76" height="69" viewBox="0 0 76 69" fill="none" xmlns="http://www.w3.org/2000/svg">
<path d="M1 34.4107C1 15.9585 15.9585 1 34.4106 1C52.863 1 67.821 15.9585 67.821 34.4107C67.821 52.8629 52.863 67.8213 34.4106 67.8213H1V34.4107Z" fill="url(#paint0_linear_3_36)" stroke="#606C71"/>
<path d="M19.1387 22.6084H36.4701" stroke="white" stroke-linecap="round"/>
<path d="M19.1387 34.6084H49.514" stroke="white" stroke-linecap="round"/>
<path d="M19.1387 45.6084H49.514" stroke="white" stroke-linecap="round"/>
<path d="M62.492 65.7378C69.4821 65.7378 75.1487 60.0712 75.1487 53.0811C75.1487 46.091 69.4821 40.4244 62.492 40.4244C55.5019 40.4244 49.8353 46.091 49.8353 53.0811C49.8353 60.0712 55.5019 65.7378 62.492 65.7378Z" fill="url(#paint1_linear_3_36)" stroke="#606C71"/>
<path d="M66.098 57.3215V51.6773C65.701 51.6776 65.305 51.6783 64.909 51.6783L58.147 51.6784H58.036V57.3215H66.098Z" fill="#606C71"/>
<path d="M64.863 50.8759C64.465 50.8759 64.074 50.8759 63.67 50.8759C63.67 50.8457 63.67 50.8166 63.67 50.7874C63.67 50.4019 63.675 50.0162 63.669 49.6307C63.659 48.9374 63.335 48.436 62.711 48.1422C61.809 47.7179 60.686 48.2899 60.491 49.2656C60.469 49.3788 60.458 49.4961 60.457 49.6116C60.453 50.0027 60.456 50.3939 60.457 50.785C60.457 50.8124 60.457 50.8397 60.457 50.8727C60.057 50.8727 59.662 50.8727 59.269 50.8727C59.265 50.8658 59.261 50.861 59.261 50.8563C59.261 50.3708 59.235 49.8837 59.268 49.4004C59.322 48.5915 59.688 47.9302 60.318 47.4199C60.749 47.0707 61.247 46.8686 61.797 46.8217C63.065 46.7134 64.125 47.4079 64.605 48.4383C64.773 48.8005 64.857 49.1821 64.864 49.579C64.872 49.9949 64.866 50.4111 64.866 50.8272C64.866 50.8407 64.865 50.8542 64.863 50.8759Z" fill="#606C71"/>
<defs>
<linearGradient id="paint0_linear_3_36" x1="67.324" y1="0.499996" x2="-13.9281" y2="28.2307" gradientUnits="userSpaceOnUse">
<stop stop-color="#1BC4BF"/>
<stop offset="1" stop-color="#009F9B"/>
</linearGradient>
<linearGradient id="paint1_linear_3_36" x1="75.261" y1="39.9243" x2="43.737" y2="50.6834" gradientUnits="userSpaceOnUse">
<stop stop-color="#FDFF97"/>
<stop offset="1" stop-color="#F1DA09"/>
</linearGradient>
</defs>
</svg>
