<svg width="100" height="61" viewBox="0 0 100 61" fill="none" xmlns="http://www.w3.org/2000/svg">
<path d="M98.54 27.9066C98.235 27.7506 97.868 27.7771 97.588 27.9753L84.347 37.369V28.7158C84.347 25.9154 82.054 23.6372 79.234 23.6372H56.1504C53.3309 23.6372 51.0371 25.9154 51.0371 28.7158V49.5587C51.0371 52.359 53.3309 54.6373 56.1504 54.6373H79.234C82.054 54.6373 84.347 52.359 84.347 49.5587V40.9055L97.589 50.2992C97.747 50.4115 97.934 50.4687 98.121 50.4687C98.264 50.4687 98.408 50.4354 98.54 50.3679C98.845 50.2118 99.037 49.8996 99.037 49.5587V28.7158C99.037 28.3749 98.845 28.0626 98.54 27.9066Z" fill="url(#paint0_linear_36_61)"/>
<path d="M32.2083 53.0568L26.0641 47.1277C25.0415 46.14 23.9257 45.9749 22.8306 46.6149C19.7567 48.4057 18.2642 47.4806 18.0262 47.3019C16.6296 46.2575 15.3105 45.2718 13.4645 42.6184C11.1735 39.321 10.4763 37.3488 10.0009 35.7581C9.81119 35.1218 9.80799 33.0928 12.0388 31.3645C13.0817 30.5578 13.3595 29.3927 12.8209 28.0862C12.4061 27.0793 12.4061 27.0793 12.0721 26.3339C11.743 25.5975 11.0853 24.1263 9.3599 20.191C8.987 19.3417 8.33879 18.8469 7.37859 18.6804C6.28969 18.4917 5.64449 18.9598 5.12499 19.3356L2.42259 21.2935C0.509294 22.679 0.220096 23.6131 0.0412955 24.6877C-0.183704 26.0406 0.263192 35.1911 7.81689 46.0167C15.3357 56.871 23.6408 60.3212 24.9652 60.5508L25.016 60.5596C26.0621 60.7247 27.0126 60.7447 28.8981 59.3779L31.6005 57.42C32.1202 57.0441 32.766 56.5762 32.9509 55.4646C33.1143 54.4836 32.8705 53.6956 32.2083 53.0568Z" fill="url(#paint1_linear_36_61)"/>
<path d="M37.6038 7.6113H41.7757V8.5312H36.5198V0H37.6038V7.6113ZM43.4663 0H48.6225V0.9433H46.5776V7.5937H48.6225V8.5312H43.4663V7.5937H45.4643V0.9433H43.4663V0ZM53.108 6.7851L55.1236 0H56.2779L53.5884 8.5312H52.6451L49.9498 0H51.1099L53.108 6.7851ZM62.334 4.5879H58.771V7.6113H62.925V8.5312H57.6872V0H62.873V0.9258H58.771V3.668H62.334V4.5879Z" fill="#70F0F9"/>
<defs>
<linearGradient id="paint0_linear_36_61" x1="98.331" y1="23.6372" x2="48.1431" y2="50.1592" gradientUnits="userSpaceOnUse">
<stop stop-color="#1BC4BF"/>
<stop offset="1" stop-color="#009F9B"/>
</linearGradient>
<linearGradient id="paint1_linear_36_61" x1="32.5147" y1="18.6372" x2="-8.6642" y2="29.6796" gradientUnits="userSpaceOnUse">
<stop stop-color="#9B90FB"/>
<stop offset="1" stop-color="#6654CF"/>
</linearGradient>
</defs>
</svg>
