<svg width="77" height="69" viewBox="0 0 77 69" fill="none" xmlns="http://www.w3.org/2000/svg">
<path d="M1 34.4107C1 15.9585 15.9585 1 34.4106 1C52.863 1 67.821 15.9585 67.821 34.4107C67.821 52.8629 52.863 67.8213 34.4106 67.8213H1V34.4107Z" fill="url(#paint0_linear_4_59)" stroke="#606C71"/>
<path d="M43.148 32.4633C43.148 31.9845 42.7617 31.5962 42.2848 31.5962C41.8078 31.5962 41.4211 31.9845 41.4211 32.4633C41.4211 36.7731 37.9412 40.2669 33.6484 40.2669C29.3556 40.2669 25.8757 36.7731 25.8757 32.4633C25.8757 31.9845 25.4891 31.5962 25.0121 31.5962C24.5351 31.5962 24.1484 31.9845 24.1484 32.4633C24.1549 37.3915 27.8968 41.5047 32.7849 41.9568V43.7352H28.4666C27.9897 43.7352 27.603 44.1234 27.603 44.6022C27.603 45.0811 27.9897 45.4693 28.4666 45.4693H38.8303C39.3073 45.4693 39.694 45.0811 39.694 44.6022C39.694 44.1234 39.3073 43.7352 38.8303 43.7352H34.5121V41.9568C39.4001 41.5047 43.142 37.3915 43.148 32.4633Z" fill="white"/>
<path d="M33.6485 38.5327C36.9857 38.5289 39.6902 35.8137 39.6939 32.4633V27.2609C39.694 23.9088 36.9873 21.1914 33.6485 21.1914C30.3097 21.1914 27.603 23.9088 27.603 27.2609V32.4632C27.6069 35.8137 30.3113 38.5289 33.6485 38.5327ZM29.3303 27.2609C29.3303 24.8665 31.2636 22.9255 33.6485 22.9255C36.0334 22.9255 37.9667 24.8665 37.9667 27.2609V32.4632C37.9667 34.8576 36.0334 36.7986 33.6485 36.7986C31.2636 36.7986 29.3303 34.8576 29.3303 32.4632V27.2609Z" fill="white"/>
<path d="M63.492 65.7378C70.4821 65.7378 76.1487 60.0712 76.1487 53.0811C76.1487 46.091 70.4821 40.4244 63.492 40.4244C56.5019 40.4244 50.8353 46.091 50.8353 53.0811C50.8353 60.0712 56.5019 65.7378 63.492 65.7378Z" fill="url(#paint1_linear_4_59)" stroke="#606C71"/>
<path d="M67.098 57.3215V51.6773C66.701 51.6776 66.305 51.6783 65.908 51.6783L59.147 51.6784H59.035V57.3215H67.098Z" fill="#606C71"/>
<path d="M65.8629 50.8759C65.4639 50.8759 65.0739 50.8759 64.6699 50.8759C64.6699 50.8457 64.6699 50.8166 64.6699 50.7874C64.6699 50.4019 64.6749 50.0162 64.6689 49.6307C64.6579 48.9374 64.3349 48.436 63.7099 48.1422C62.8089 47.7179 61.6849 48.2899 61.4909 49.2656C61.4679 49.3788 61.4579 49.4961 61.4559 49.6116C61.4529 50.0027 61.4559 50.3939 61.4559 50.785C61.4559 50.8124 61.4559 50.8397 61.4559 50.8727C61.0559 50.8727 60.6619 50.8727 60.2679 50.8727C60.2649 50.8658 60.2609 50.861 60.2609 50.8563C60.2609 50.3708 60.2349 49.8837 60.2669 49.4004C60.3219 48.5915 60.6869 47.9302 61.3179 47.4199C61.7489 47.0707 62.2459 46.8686 62.7959 46.8217C64.0649 46.7134 65.1239 47.4079 65.6039 48.4383C65.7729 48.8005 65.8569 49.1821 65.8639 49.579C65.8709 49.9949 65.8659 50.4111 65.8659 50.8272C65.8659 50.8407 65.8639 50.8542 65.8629 50.8759Z" fill="#606C71"/>
<defs>
<linearGradient id="paint0_linear_4_59" x1="67.324" y1="0.499996" x2="-13.9281" y2="28.2307" gradientUnits="userSpaceOnUse">
<stop stop-color="#CD5CAE"/>
<stop offset="1" stop-color="#FF3685"/>
</linearGradient>
<linearGradient id="paint1_linear_4_59" x1="76.261" y1="39.9243" x2="44.737" y2="50.6834" gradientUnits="userSpaceOnUse">
<stop stop-color="#FDFF97"/>
<stop offset="1" stop-color="#F1DA09"/>
</linearGradient>
</defs>
</svg>
