<svg width="38" height="75" viewBox="0 0 38 75" fill="none" xmlns="http://www.w3.org/2000/svg">
<path d="M32.5363 1H5.81929C3.15767 1 1 3.15767 1 5.81929V68.7227C1 71.3843 3.15767 73.542 5.81929 73.542H32.5363C35.1979 73.542 37.3556 71.3843 37.3556 68.7227V5.81929C37.3556 3.15767 35.1979 1 32.5363 1Z" stroke="#70F0F9" stroke-width="1.07095"/>
<path d="M30.6827 7.53711H7.6714C6.19273 7.53711 4.99402 8.73581 4.99402 10.2145V66.7763C4.99402 68.255 6.19273 69.4537 7.6714 69.4537H30.6827C32.1614 69.4537 33.3601 68.255 33.3601 66.7763V10.2145C33.3601 8.73581 32.1614 7.53711 30.6827 7.53711Z" stroke="#70F0F9" stroke-width="1.07095"/>
<mask id="mask0_36_90" style="mask-type:alpha" maskUnits="userSpaceOnUse" x="8" y="23" width="23" height="26">
<path fill-rule="evenodd" clip-rule="evenodd" d="M8.19515 28.0678C8.19495 28.0595 8.19495 28.0512 8.19495 28.0428C8.19495 25.4149 13.853 23.9967 19.1767 23.9967C24.4896 23.9967 30.1351 25.4091 30.1581 28.0271C30.1581 28.0324 30.1581 28.0377 30.1581 28.0431V44.4983C30.1581 45.7016 28.9812 46.7348 26.7539 47.4862C24.7316 48.1685 22.0406 48.5443 19.1768 48.5443C16.313 48.5443 13.622 48.1685 11.5995 47.4862C9.37245 46.7347 8.19515 45.7015 8.19515 44.4982V28.0678Z" fill="white"/>
</mask>
<g mask="url(#mask0_36_90)">
<path fill-rule="evenodd" clip-rule="evenodd" d="M8.19515 28.0678C8.19495 28.0595 8.19495 28.0512 8.19495 28.0428C8.19495 25.4149 13.853 23.9967 19.1767 23.9967C24.4896 23.9967 30.1351 25.4091 30.1581 28.0271C30.1581 28.0324 30.1581 28.0377 30.1581 28.0431V44.4983C30.1581 45.7016 28.9812 46.7348 26.7539 47.4862C24.7316 48.1685 22.0406 48.5443 19.1768 48.5443C16.313 48.5443 13.622 48.1685 11.5995 47.4862C9.37245 46.7347 8.19515 45.7015 8.19515 44.4982V28.0678Z" fill="url(#paint0_linear_36_90)"/>
<path d="M8.19514 28.0678H8.84673L8.84663 28.0589L8.19514 28.0678ZM30.1581 28.0271L29.5061 28.0327L29.5071 28.0467L30.1581 28.0271ZM26.7538 47.4862L26.9621 48.1036L26.7538 47.4862ZM11.5995 47.4862L11.3912 48.1036L11.5995 47.4862ZM8.84663 28.0589C8.84653 28.0536 8.84653 28.0482 8.84653 28.0428H7.54333C7.54333 28.0541 7.54343 28.0654 7.54353 28.0767L8.84663 28.0589ZM8.84653 28.0428C8.84653 27.6474 9.05254 27.234 9.57504 26.8061C10.1019 26.3746 10.8916 25.9821 11.8927 25.6533C13.8889 24.9978 16.5617 24.6483 19.1766 24.6483V23.3451C16.4678 23.3451 13.6498 23.7047 11.4861 24.4152C10.4072 24.7695 9.44964 25.2243 8.74934 25.7978C8.04464 26.375 7.54333 27.1243 7.54333 28.0428H8.84653ZM19.1766 24.6483C21.7861 24.6483 24.4535 24.9964 26.4485 25.6494C27.4489 25.9769 28.2395 26.368 28.7691 26.7984C29.2941 27.2256 29.5031 27.6387 29.5061 28.0327L30.8101 28.0215C30.8021 27.1065 30.2971 26.3613 29.5911 25.7874C28.8891 25.2166 27.932 24.7638 26.8539 24.4109C24.692 23.7032 21.8799 23.3451 19.1766 23.3451V24.6483ZM29.5071 28.0467C29.5071 28.0454 29.5071 28.0442 29.5071 28.0431H30.8101C30.8101 28.0312 30.8101 28.0194 30.8091 28.0075L29.5071 28.0467ZM29.5071 28.0431V44.4983H30.8101V28.0431H29.5071ZM29.5071 44.4983C29.5071 44.8621 29.3361 45.2555 28.8611 45.672C28.3782 46.0962 27.6159 46.5077 26.5455 46.8689L26.9621 48.1036C28.119 47.7133 29.0591 47.2325 29.7211 46.6514C30.3921 46.0627 30.8101 45.3378 30.8101 44.4983H29.5071ZM26.5455 46.8689C24.6089 47.5223 21.9923 47.8927 19.1767 47.8927V49.1959C22.0887 49.1959 24.8542 48.8148 26.9621 48.1036L26.5455 46.8689ZM19.1767 47.8927C16.3611 47.8927 13.7447 47.5223 11.8078 46.8688L11.3912 48.1036C13.4993 48.8148 16.2647 49.1959 19.1767 49.1959V47.8927ZM11.8078 46.8688C10.7375 46.5076 9.97534 46.0961 9.49194 45.6719C9.01734 45.2554 8.84663 44.862 8.84663 44.4982H7.54353C7.54353 45.3377 7.96143 46.0626 8.63233 46.6514C9.29443 47.2324 10.2344 47.7132 11.3912 48.1036L11.8078 46.8688ZM8.84663 44.4982V28.0678H7.54353V44.4982H8.84663Z" fill="#70F0F9"/>
<path d="M19.17 32.1759C13.9566 32.1759 8.41565 30.7871 8.41565 28.2135C8.41565 25.6399 13.9566 24.2511 19.17 24.2511C24.3835 24.2511 29.9241 25.6398 29.9241 28.2135C29.9241 30.7872 24.3835 32.1759 19.17 32.1759Z" stroke="#70F0F9" stroke-width="0.651588" stroke-miterlimit="10"/>
<path d="M8.41565 36.2706C8.41565 37.4491 9.56855 38.4609 11.7497 39.1968C13.7302 39.8651 16.3656 40.2331 19.1701 40.2331C21.9746 40.2331 24.6098 39.8651 26.5904 39.1968C28.7711 38.4609 29.9241 37.4491 29.9241 36.2706" stroke="#70F0F9" stroke-width="0.651588" stroke-miterlimit="10"/>
<path d="M29.9241 28.2135V44.3282C29.9241 45.5067 28.7711 46.5185 26.5903 47.2544C24.6098 47.9227 21.9746 48.2907 19.17 48.2907C16.3655 48.2907 13.7302 47.9227 11.7496 47.2544C9.56855 46.5184 8.41565 45.5066 8.41565 44.3282V28.2135" stroke="#70F0F9" stroke-width="0.651588" stroke-miterlimit="10"/>
<path d="M31.4831 31.3155C35.5424 31.3155 38.8331 28.0248 38.8331 23.9655C38.8331 19.9062 35.5424 16.6155 31.4831 16.6155C27.4239 16.6155 24.1332 19.9062 24.1332 23.9655C24.1332 28.0248 27.4239 31.3155 31.4831 31.3155Z" fill="url(#paint1_linear_36_90)" stroke="#606C71" stroke-width="0.689702"/>
<path d="M34.2631 26.8895V22.9967C33.9901 22.997 33.7161 22.9974 33.4431 22.9974L28.7791 22.9975H28.7031V26.8895H34.2631Z" fill="#606C71"/>
</g>
<defs>
<linearGradient id="paint0_linear_36_90" x1="29.8351" y1="23.9967" x2="2.96334" y2="32.2025" gradientUnits="userSpaceOnUse">
<stop stop-color="#1BC4BF"/>
<stop offset="1" stop-color="#009F9B"/>
</linearGradient>
<linearGradient id="paint1_linear_36_90" x1="38.9522" y1="16.2706" x2="20.5147" y2="22.5631" gradientUnits="userSpaceOnUse">
<stop stop-color="#FDFF97"/>
<stop offset="1" stop-color="#F1DA09"/>
</linearGradient>
</defs>
</svg>
