<svg width="40" height="74" viewBox="0 0 40 74" fill="none" xmlns="http://www.w3.org/2000/svg">
<path d="M32.6978 0.623413H5.98079C3.31917 0.623413 1.1615 2.78108 1.1615 5.4427V68.3461C1.1615 71.0077 3.31917 73.1654 5.98079 73.1654H32.6978C35.3594 73.1654 37.5171 71.0077 37.5171 68.3461V5.4427C37.5171 2.78108 35.3594 0.623413 32.6978 0.623413Z" fill="url(#paint0_linear_5_42)" stroke="#606C71" stroke-width="1.07095"/>
<path opacity="0.5" d="M30.8448 7.16052H7.83351C6.35484 7.16052 5.15613 8.35923 5.15613 9.8379V66.3997C5.15613 67.8784 6.35484 69.0771 7.83351 69.0771H30.8448C32.3235 69.0771 33.5222 67.8784 33.5222 66.3997V9.8379C33.5222 8.35923 32.3235 7.16052 30.8448 7.16052Z" fill="url(#paint1_linear_5_42)" stroke="white" stroke-width="1.07095"/>
<path fill-rule="evenodd" clip-rule="evenodd" d="M8.35762 27.6912C8.35752 27.6829 8.35742 27.6746 8.35742 27.6662C8.35742 25.0383 14.0155 23.6201 19.3391 23.6201C24.6521 23.6201 30.298 25.0325 30.321 27.6505C30.321 27.6558 30.321 27.6611 30.321 27.6665V44.1217C30.321 45.325 29.144 46.3582 26.9164 47.1097C24.8941 47.792 22.2031 48.1677 19.3393 48.1677C16.4755 48.1677 13.7845 47.792 11.7621 47.1096C9.53492 46.3581 8.35762 45.3249 8.35762 44.1216V27.6912Z" fill="url(#paint2_linear_5_42)"/>
<path d="M19.332 31.7993C14.1186 31.7993 8.57764 30.4105 8.57764 27.8369C8.57764 25.2633 14.1186 23.8745 19.332 23.8745C24.5454 23.8745 30.086 25.2632 30.086 27.8369C30.086 30.4106 24.5455 31.7993 19.332 31.7993Z" stroke="#3F484B" stroke-width="0.651588" stroke-miterlimit="10"/>
<path d="M8.57764 35.894C8.57764 37.0725 9.73064 38.0843 11.9117 38.8202C13.8923 39.4885 16.5276 39.8565 19.3321 39.8565C22.1366 39.8565 24.7718 39.4885 26.7524 38.8202C28.9336 38.0843 30.087 37.0725 30.087 35.894" stroke="#3F484B" stroke-width="0.651588" stroke-miterlimit="10"/>
<path d="M30.086 27.8369V43.9516C30.086 45.1301 28.9335 46.1419 26.7524 46.8778C24.7718 47.5461 22.1365 47.9141 19.332 47.9141C16.5275 47.9141 13.8923 47.5461 11.9116 46.8778C9.73064 46.1418 8.57764 45.13 8.57764 43.9516V27.8369" stroke="#3F484B" stroke-width="0.651588" stroke-miterlimit="10"/>
<path d="M31.644 30.9388C35.7033 30.9388 38.994 27.6481 38.994 23.5889C38.994 19.5296 35.7033 16.2389 31.644 16.2389C27.5848 16.2389 24.2941 19.5296 24.2941 23.5889C24.2941 27.6481 27.5848 30.9388 31.644 30.9388Z" fill="url(#paint3_linear_5_42)" stroke="#606C71" stroke-width="0.689702"/>
<path d="M34.424 26.5129V22.6201C34.151 22.6204 33.877 22.6208 33.604 22.6209H28.9406H28.8638V26.5129H34.424Z" fill="#606C71"/>
<path d="M33.573 22.0675C33.298 22.0675 33.028 22.0675 32.75 22.0675C32.75 22.0467 32.75 22.0266 32.75 22.0065C32.75 21.7406 32.753 21.4746 32.749 21.2087C32.742 20.7305 32.519 20.3847 32.088 20.1821C31.466 19.8895 30.692 20.284 30.557 20.9569C30.542 21.035 30.534 21.1159 30.534 21.1955C30.531 21.4653 30.533 21.7351 30.533 22.0048C30.533 22.0237 30.533 22.0425 30.533 22.0653C30.258 22.0653 29.986 22.0653 29.714 22.0653C29.712 22.0606 29.709 22.0573 29.709 22.054C29.709 21.7192 29.691 21.3832 29.713 21.0499C29.751 20.492 30.003 20.0359 30.438 19.6839C30.735 19.4431 31.078 19.3037 31.458 19.2713C32.333 19.1966 33.063 19.6756 33.394 20.3863C33.511 20.6361 33.568 20.8993 33.573 21.173C33.579 21.4599 33.575 21.747 33.575 22.034C33.575 22.0433 33.574 22.0526 33.573 22.0675Z" fill="#606C71"/>
<defs>
<linearGradient id="paint0_linear_5_42" x1="37.502" y1="0.087912" x2="-11.0955" y2="8.52061" gradientUnits="userSpaceOnUse">
<stop stop-color="#53C1FF"/>
<stop offset="1" stop-color="#0053D0"/>
</linearGradient>
<linearGradient id="paint1_linear_5_42" x1="33.625" y1="6.62502" x2="-4.77267" y2="12.7494" gradientUnits="userSpaceOnUse">
<stop stop-color="#53C1FF"/>
<stop offset="1" stop-color="#0053D0"/>
</linearGradient>
<linearGradient id="paint2_linear_5_42" x1="29.998" y1="23.6201" x2="3.12582" y2="31.8259" gradientUnits="userSpaceOnUse">
<stop stop-color="#1BC4BF"/>
<stop offset="1" stop-color="#009F9B"/>
</linearGradient>
<linearGradient id="paint3_linear_5_42" x1="39.113" y1="15.894" x2="20.6753" y2="22.1865" gradientUnits="userSpaceOnUse">
<stop stop-color="#FDFF97"/>
<stop offset="1" stop-color="#F1DA09"/>
</linearGradient>
</defs>
</svg>
