<svg width="78" height="72" viewBox="0 0 78 72" fill="none" xmlns="http://www.w3.org/2000/svg">
<g clip-path="url(#clip0_3_37)">
<path d="M38.3789 70.8075C54.8266 70.8075 68.1601 57.474 68.1601 41.0263C68.1601 24.5786 54.8266 11.2451 38.3789 11.2451C21.9312 11.2451 8.59769 24.5786 8.59769 41.0263C8.59769 57.474 21.9312 70.8075 38.3789 70.8075Z" stroke="url(#paint0_linear_3_37)" stroke-linecap="round" stroke-dasharray="3 4"/>
<path d="M38.286 29.6975C46.2398 29.6975 52.6877 23.2496 52.6877 15.2958C52.6877 7.34196 46.2398 0.894104 38.286 0.894104C30.3322 0.894104 23.8843 7.34196 23.8843 15.2958C23.8843 23.2496 30.3322 29.6975 38.286 29.6975Z" fill="url(#paint1_linear_3_37)" stroke="#606C71"/>
<path d="M38.1819 15.0825C39.7939 15.0825 41.1006 13.7757 41.1006 12.1638C41.1006 10.5518 39.7939 9.24506 38.1819 9.24506C36.5699 9.24506 35.2632 10.5518 35.2632 12.1638C35.2632 13.7757 36.5699 15.0825 38.1819 15.0825Z" fill="white"/>
<path fill-rule="evenodd" clip-rule="evenodd" d="M32.2954 20.4122H43.9493C43.1461 17.9622 40.8408 16.1929 38.1223 16.1929C35.4038 16.1929 33.0986 17.9622 32.2954 20.4122Z" fill="white"/>
<path d="M15.5624 71.3874C23.5162 71.3874 29.9641 64.9395 29.9641 56.9857C29.9641 49.0318 23.5162 42.584 15.5624 42.584C7.60857 42.584 1.16071 49.0318 1.16071 56.9857C1.16071 64.9395 7.60857 71.3874 15.5624 71.3874Z" fill="url(#paint2_linear_3_37)" stroke="#606C71"/>
<path d="M15.4583 56.773C17.0703 56.773 18.377 55.4663 18.377 53.8543C18.377 52.2424 17.0703 50.9356 15.4583 50.9356C13.8463 50.9356 12.5396 52.2424 12.5396 53.8543C12.5396 55.4663 13.8463 56.773 15.4583 56.773Z" fill="white"/>
<path fill-rule="evenodd" clip-rule="evenodd" d="M9.57178 62.1026H21.2256C20.4224 59.6527 18.1172 57.8833 15.3987 57.8833C12.6802 57.8833 10.375 59.6527 9.57178 62.1026Z" fill="white"/>
<path d="M62.851 71.3874C70.8049 71.3874 77.2527 64.9395 77.2527 56.9857C77.2527 49.0318 70.8049 42.584 62.851 42.584C54.8972 42.584 48.4493 49.0318 48.4493 56.9857C48.4493 64.9395 54.8972 71.3874 62.851 71.3874Z" fill="url(#paint3_linear_3_37)" stroke="#606C71"/>
<path d="M62.7468 56.773C64.3587 56.773 65.6655 55.4663 65.6655 53.8543C65.6655 52.2424 64.3587 50.9356 62.7468 50.9356C61.1348 50.9356 59.8281 52.2424 59.8281 53.8543C59.8281 55.4663 61.1348 56.773 62.7468 56.773Z" fill="white"/>
<path fill-rule="evenodd" clip-rule="evenodd" d="M56.8604 62.1026H68.5142C67.711 59.6527 65.4058 57.8833 62.6873 57.8833C59.9688 57.8833 57.6636 59.6527 56.8604 62.1026Z" fill="white"/>
</g>
<defs>
<linearGradient id="paint0_linear_3_37" x1="67.2842" y1="11.2451" x2="-4.07348" y2="35.5989" gradientUnits="userSpaceOnUse">
<stop stop-color="#9B90FB"/>
<stop offset="1" stop-color="#6654CF"/>
</linearGradient>
<linearGradient id="paint1_linear_3_37" x1="52.7495" y1="0.394041" x2="17.044" y2="12.58" gradientUnits="userSpaceOnUse">
<stop stop-color="#9B90FB"/>
<stop offset="1" stop-color="#6654CF"/>
</linearGradient>
<linearGradient id="paint2_linear_3_37" x1="30.0258" y1="42.084" x2="-5.67964" y2="54.27" gradientUnits="userSpaceOnUse">
<stop stop-color="#9B90FB"/>
<stop offset="1" stop-color="#6654CF"/>
</linearGradient>
<linearGradient id="paint3_linear_3_37" x1="77.3144" y1="42.084" x2="41.6089" y2="54.27" gradientUnits="userSpaceOnUse">
<stop stop-color="#9B90FB"/>
<stop offset="1" stop-color="#6654CF"/>
</linearGradient>
<clipPath id="clip0_3_37">
<rect width="78" height="72" fill="white"/>
</clipPath>
</defs>
</svg>
