<svg width="42" height="42" viewBox="0 0 42 42" fill="none" xmlns="http://www.w3.org/2000/svg">
<path d="M21 42C32.598 42 42 32.598 42 21C42 9.40202 32.598 0 21 0C9.40202 0 0 9.40202 0 21C0 32.598 9.40202 42 21 42Z" fill="#0053D0"/>
<path d="M29.4559 14H12.5442C11.9675 14 11.5 14.4675 11.5 15.0442V15.0442C11.5 15.621 11.9675 16.0885 12.5442 16.0885H29.4559C30.0326 16.0885 30.5001 15.621 30.5001 15.0442C30.5001 14.4675 30.0326 14 29.4559 14Z" fill="white"/>
<path d="M29.4559 19.9561H12.5442C11.9675 19.9561 11.5 20.4236 11.5 21.0003V21.0003C11.5 21.577 11.9675 22.0445 12.5442 22.0445H29.4559C30.0326 22.0445 30.5001 21.577 30.5001 21.0003C30.5001 20.4236 30.0326 19.9561 29.4559 19.9561Z" fill="white"/>
<path d="M29.4559 25.9112H12.5442C11.9675 25.9112 11.5 26.3787 11.5 26.9554V26.9554C11.5 27.5321 11.9675 27.9997 12.5442 27.9997H29.4559C30.0326 27.9997 30.5001 27.5321 30.5001 26.9554C30.5001 26.3787 30.0326 25.9112 29.4559 25.9112Z" fill="white"/>
</svg>
