<svg width="228" height="121" viewBox="0 0 228 121" fill="none" xmlns="http://www.w3.org/2000/svg">
<path d="M19.1 55.4952L4.05364 62.7479C1.81488 63.8271 0.874819 66.5168 1.95396 68.7555L20.4174 107.059C21.4965 109.298 24.1862 110.238 26.425 109.159L41.4713 101.906C43.71 100.827 44.6501 98.1374 43.571 95.8986L25.1076 57.5949C24.0284 55.3561 21.3387 54.4161 19.1 55.4952Z" stroke="#70F0F9"/>
<path d="M20.3604 60.0661L6.84577 66.5805C5.60202 67.18 5.07976 68.6743 5.67929 69.918L22.5878 104.996C23.1873 106.24 24.6816 106.762 25.9253 106.162L39.4399 99.648C40.6837 99.0485 41.2059 97.5542 40.6064 96.3105L23.6979 61.2326C23.0984 59.9888 21.6041 59.4666 20.3604 60.0661Z" stroke="#70F0F9"/>
<path d="M208.702 55.4952L223.748 62.7479C225.987 63.8271 226.927 66.5168 225.848 68.7555L207.384 107.059C206.305 109.298 203.615 110.238 201.377 109.159L186.33 101.906C184.091 100.827 183.151 98.1374 184.231 95.8986L202.694 57.5949C203.773 55.3561 206.463 54.4161 208.702 55.4952Z" stroke="#70F0F9"/>
<path d="M207.441 60.0661L220.955 66.5805C222.199 67.18 222.722 68.6743 222.122 69.918L205.214 104.996C204.614 106.24 203.12 106.762 201.876 106.162L188.361 99.648C187.118 99.0485 186.595 97.5542 187.195 96.3105L204.103 61.2326C204.703 59.9888 206.197 59.4666 207.441 60.0661Z" stroke="#70F0F9"/>
<path d="M34.488 5.62751L19.0236 12.4895C16.752 13.4975 15.7276 16.1563 16.7356 18.4279L34.1538 57.6819C35.1618 59.9535 37.8205 60.9779 40.0922 59.9699L55.5565 53.1079C57.8282 52.0999 58.8526 49.4412 57.8446 47.1695L40.4264 7.91557C39.4184 5.64389 36.7596 4.61949 34.488 5.62751Z" stroke="#70F0F9"/>
<path d="M35.5968 10.2798L21.7287 16.4335C20.4667 16.9935 19.8976 18.4706 20.4576 19.7326L36.3986 55.6574C36.9586 56.9194 38.4356 57.4885 39.6977 56.9285L53.5658 50.7748C54.8278 50.2148 55.3969 48.7377 54.8369 47.4757L38.896 11.5509C38.3359 10.2889 36.8589 9.71979 35.5968 10.2798Z" stroke="#70F0F9"/>
<path d="M193.314 5.6275L208.778 12.4895C211.05 13.4975 212.074 16.1563 211.066 18.4279L193.648 57.6818C192.64 59.9535 189.981 60.9779 187.71 59.9699L172.245 53.1079C169.974 52.0999 168.949 49.4412 169.957 47.1695L187.376 7.91556C188.384 5.64388 191.042 4.61948 193.314 5.6275Z" stroke="#70F0F9"/>
<path d="M192.205 10.2798L206.073 16.4335C207.335 16.9935 207.904 18.4706 207.344 19.7326L191.403 55.6574C190.843 56.9194 189.366 57.4885 188.104 56.9285L174.236 50.7748C172.974 50.2148 172.405 48.7377 172.965 47.4757L188.906 11.5509C189.466 10.2889 190.943 9.71978 192.205 10.2798Z" stroke="#70F0F9"/>
<path d="M95.0977 27.5229L114.773 15.5078C115.096 15.3109 115.501 15.3112 115.823 15.5085L135.611 27.6328L135.872 27.2065L135.611 27.6328C135.91 27.8163 136.093 28.1431 136.093 28.4957V36.4646C136.093 36.8214 135.906 37.1514 135.601 37.3335L135.857 37.7629L135.601 37.3335L115.778 49.1654C115.454 49.359 115.049 49.3546 114.729 49.154L95.0878 36.8461C94.7932 36.6615 94.6138 36.3376 94.6138 35.9885V28.3866C94.6138 28.0334 94.7975 27.7062 95.0977 27.5229Z" fill="url(#paint0_linear_44_217)" stroke="#3F484B"/>
<path d="M114.457 15.1631L94.7823 27.1783C94.3331 27.4525 94.0591 27.9416 94.0591 28.4687V36.0706C94.0591 36.5915 94.3268 37.0756 94.7675 37.3518L114.407 49.6597C114.887 49.96 115.493 49.9666 115.979 49.6768L135.801 37.8449C136.258 37.5724 136.538 37.0792 136.538 36.5466V28.5778C136.538 28.0515 136.264 27.5631 135.816 27.2885L116.028 15.1643C115.546 14.8688 114.94 14.8684 114.457 15.1631Z" fill="url(#paint1_linear_44_217)" stroke="#3F484B" stroke-miterlimit="10"/>
<path d="M136.153 27.6748L115.243 40.4457L94.2251 27.7301" fill="url(#paint2_linear_44_217)"/>
<path d="M136.153 27.6748L115.243 40.4457L94.2251 27.7301" stroke="#3F484B" stroke-miterlimit="10"/>
<path d="M115.216 49.8444V40.4873" stroke="#3F484B" stroke-miterlimit="10"/>
<path d="M95.0977 13.5932L114.773 1.57809C115.096 1.38124 115.501 1.38154 115.823 1.57886V1.57887L135.611 13.7031L135.872 13.2768L135.611 13.7032C135.91 13.8866 136.093 14.2134 136.093 14.5661V22.5349C136.093 22.8917 135.906 23.2217 135.601 23.4038L135.857 23.8332L135.601 23.4038L115.778 35.2357C115.454 35.4293 115.049 35.4249 114.729 35.2243L95.0878 22.9164C94.7932 22.7318 94.6138 22.4079 94.6138 22.0588V14.4569C94.6138 14.1037 94.7975 13.7765 95.0977 13.5932Z" fill="url(#paint3_linear_44_217)" stroke="#3F484B"/>
<path d="M114.457 1.22071L94.7823 13.2359C94.3331 13.5102 94.0591 13.9992 94.0591 14.5263V22.1282C94.0591 22.6491 94.3268 23.1332 94.7675 23.4094L114.407 35.7173C114.887 36.0176 115.493 36.0242 115.979 35.7344L135.801 23.9025C136.258 23.63 136.538 23.1368 136.538 22.6042V14.6354C136.538 14.1091 136.264 13.6207 135.816 13.3462L116.028 1.22188C115.546 0.926443 114.94 0.926028 114.457 1.22071Z" fill="url(#paint4_linear_44_217)" stroke="#3F484B" stroke-miterlimit="10"/>
<path d="M136.153 13.7314L115.243 26.5024L94.2251 13.7867" fill="url(#paint5_linear_44_217)"/>
<path d="M136.153 13.7314L115.243 26.5024L94.2251 13.7867" stroke="#3F484B" stroke-miterlimit="10"/>
<path d="M115.216 35.902V26.5449" stroke="#3F484B" stroke-miterlimit="10"/>
<path d="M95.0977 97.6264L114.773 85.6113C115.096 85.4144 115.501 85.4147 115.823 85.6121L135.611 97.7364L135.872 97.31L135.611 97.7364C135.91 97.9198 136.093 98.2466 136.093 98.5993V106.568C136.093 106.925 135.906 107.255 135.601 107.437L135.857 107.866L135.601 107.437L115.778 119.269C115.454 119.463 115.049 119.458 114.729 119.258L95.0878 106.95C94.7932 106.765 94.6138 106.441 94.6138 106.092V98.4901C94.6138 98.1369 94.7975 97.8097 95.0977 97.6264Z" fill="url(#paint6_linear_44_217)" stroke="#3F484B"/>
<path d="M114.457 85.2666L94.7823 97.2818C94.3331 97.5561 94.0591 98.0451 94.0591 98.5722V106.174C94.0591 106.695 94.3268 107.179 94.7675 107.455L114.407 119.763C114.887 120.064 115.493 120.07 115.979 119.78L135.801 107.949C136.258 107.676 136.538 107.183 136.538 106.65V98.6813C136.538 98.155 136.264 97.6666 135.816 97.392L116.028 85.2678C115.546 84.9723 114.94 84.9719 114.457 85.2666Z" fill="url(#paint7_linear_44_217)" stroke="#3F484B" stroke-miterlimit="10"/>
<path d="M136.153 97.7783L115.243 110.549L94.2251 97.8336" fill="url(#paint8_linear_44_217)"/>
<path d="M136.153 97.7783L115.243 110.549L94.2251 97.8336" stroke="#3F484B" stroke-miterlimit="10"/>
<path d="M115.216 119.948V110.591" stroke="#3F484B" stroke-miterlimit="10"/>
<path d="M95.0977 83.6968L114.773 71.6816C115.096 71.4847 115.501 71.485 115.823 71.6824L135.611 83.8067L135.872 83.3803L135.611 83.8067C135.91 83.9901 136.093 84.3169 136.093 84.6696V92.6384C136.093 92.9952 135.906 93.3253 135.601 93.5073L135.857 93.9367L135.601 93.5074L115.778 105.339C115.454 105.533 115.049 105.528 114.729 105.328L95.0878 93.0199C94.7932 92.8353 94.6138 92.5114 94.6138 92.1624V84.5604C94.6138 84.2072 94.7975 83.8801 95.0977 83.6968Z" fill="url(#paint9_linear_44_217)" stroke="#3F484B"/>
<path d="M114.457 71.3242L94.7823 83.3394C94.3331 83.6137 94.0591 84.1027 94.0591 84.6298V92.2317C94.0591 92.7526 94.3268 93.2368 94.7675 93.513L114.407 105.821C114.887 106.121 115.493 106.128 115.979 105.838L135.801 94.006C136.258 93.7335 136.538 93.2403 136.538 92.7078V84.7389C136.538 84.2126 136.264 83.7242 135.816 83.4497L116.028 71.3254C115.546 71.0299 114.94 71.0295 114.457 71.3242Z" fill="url(#paint10_linear_44_217)" stroke="#3F484B" stroke-miterlimit="10"/>
<path d="M136.153 83.835L115.243 96.606L94.2251 83.8903" fill="url(#paint11_linear_44_217)"/>
<path d="M136.153 83.835L115.243 96.606L94.2251 83.8903" stroke="#3F484B" stroke-miterlimit="10"/>
<path d="M115.216 106.006V96.6484" stroke="#3F484B" stroke-miterlimit="10"/>
<path d="M64.3409 33.7143C64.1401 33.9038 64.1309 34.2203 64.3204 34.4211L67.4084 37.6944C67.5979 37.8952 67.9143 37.9044 68.1152 37.7149C68.3161 37.5254 68.3253 37.209 68.1358 37.0081L65.3909 34.0986L68.3004 31.3537C68.5013 31.1642 68.5105 30.8477 68.321 30.6469C68.1315 30.446 67.815 30.4368 67.6142 30.6263L64.3409 33.7143ZM81.6468 34.9256C81.8477 34.7361 81.8569 34.4196 81.6674 34.2188L78.5794 30.9455C78.3899 30.7447 78.0734 30.7355 77.8725 30.925C77.6717 31.1145 77.6625 31.4309 77.852 31.6318L80.5969 34.5413L77.6873 37.2862C77.4865 37.4757 77.4773 37.7922 77.6668 37.993C77.8563 38.1939 78.1727 38.2031 78.3736 38.0136L81.6468 34.9256ZM64.6695 34.5778L81.2891 35.0617L81.3182 34.0621L64.6986 33.5782L64.6695 34.5778Z" fill="#70F0F9"/>
<path d="M145.603 33.7143C145.402 33.9038 145.393 34.2203 145.583 34.4211L148.671 37.6944C148.86 37.8952 149.177 37.9044 149.377 37.7149C149.578 37.5254 149.587 37.209 149.398 37.0081L146.653 34.0986L149.563 31.3537C149.763 31.1642 149.773 30.8477 149.583 30.6469C149.394 30.446 149.077 30.4368 148.876 30.6263L145.603 33.7143ZM162.909 34.9256C163.11 34.7361 163.119 34.4196 162.93 34.2188L159.842 30.9455C159.652 30.7447 159.336 30.7355 159.135 30.925C158.934 31.1145 158.925 31.4309 159.114 31.6318L161.859 34.5413L158.95 37.2862C158.749 37.4757 158.739 37.7922 158.929 37.993C159.118 38.1939 159.435 38.2031 159.636 38.0136L162.909 34.9256ZM145.932 34.5778L162.551 35.0617L162.58 34.0621L145.961 33.5782L145.932 34.5778Z" fill="#70F0F9"/>
<path d="M64.3409 89.9838C64.1401 90.1733 64.1309 90.4898 64.3204 90.6907L67.4084 93.9639C67.5979 94.1648 67.9143 94.174 68.1152 93.9845C68.3161 93.795 68.3253 93.4785 68.1358 93.2777L65.3909 90.3681L68.3004 87.6232C68.5013 87.4337 68.5105 87.1173 68.321 86.9164C68.1315 86.7155 67.815 86.7063 67.6142 86.8958L64.3409 89.9838ZM81.6468 91.1951C81.8477 91.0056 81.8569 90.6892 81.6674 90.4883L78.5794 87.2151C78.3899 87.0142 78.0734 87.005 77.8725 87.1945C77.6717 87.384 77.6625 87.7004 77.852 87.9013L80.5969 90.8109L77.6873 93.5558C77.4865 93.7453 77.4773 94.0617 77.6668 94.2626C77.8563 94.4634 78.1727 94.4726 78.3736 94.2831L81.6468 91.1951ZM64.6695 90.8473L81.2891 91.3312L81.3182 90.3316L64.6986 89.8478L64.6695 90.8473Z" fill="#70F0F9"/>
<path d="M145.603 89.9838C145.402 90.1733 145.393 90.4898 145.583 90.6907L148.671 93.9639C148.86 94.1648 149.177 94.174 149.377 93.9845C149.578 93.795 149.587 93.4785 149.398 93.2777L146.653 90.3681L149.563 87.6232C149.763 87.4337 149.773 87.1173 149.583 86.9164C149.394 86.7155 149.077 86.7063 148.876 86.8958L145.603 89.9838ZM162.909 91.1951C163.11 91.0056 163.119 90.6892 162.93 90.4883L159.842 87.2151C159.652 87.0142 159.336 87.005 159.135 87.1945C158.934 87.384 158.925 87.7004 159.114 87.9013L161.859 90.8109L158.95 93.5558C158.749 93.7453 158.739 94.0617 158.929 94.2626C159.118 94.4634 159.435 94.4726 159.636 94.2831L162.909 91.1951ZM145.932 90.8473L162.551 91.3312L162.58 90.3316L145.961 89.8478L145.932 90.8473Z" fill="#70F0F9"/>
<path d="M114.254 54.1767C114.059 53.9814 113.742 53.9814 113.547 54.1767L110.365 57.3587C110.17 57.5539 110.17 57.8705 110.365 58.0658C110.56 58.2611 110.877 58.2611 111.072 58.0658L113.9 55.2374L116.729 58.0658C116.924 58.2611 117.241 58.2611 117.436 58.0658C117.631 57.8705 117.631 57.5539 117.436 57.3587L114.254 54.1767ZM113.547 66.3501C113.742 66.5454 114.059 66.5454 114.254 66.3501L117.436 63.1681C117.631 62.9729 117.631 62.6563 117.436 62.461C117.241 62.2658 116.924 62.2658 116.729 62.461L113.9 65.2895L111.072 62.461C110.877 62.2658 110.56 62.2658 110.365 62.461C110.17 62.6563 110.17 62.9729 110.365 63.1681L113.547 66.3501ZM113.4 54.5303V65.9966H114.4V54.5303H113.4Z" fill="#70F0F9"/>
<defs>
<linearGradient id="paint0_linear_44_217" x1="135.969" y1="14.8603" x2="87.4919" y2="34.9707" gradientUnits="userSpaceOnUse">
<stop stop-color="#FDFF97"/>
<stop offset="1" stop-color="#F1DA09"/>
</linearGradient>
<linearGradient id="paint1_linear_44_217" x1="135.913" y1="14.9424" x2="87.4371" y2="35.0527" gradientUnits="userSpaceOnUse">
<stop stop-color="#FDFF97"/>
<stop offset="1" stop-color="#F1DA09"/>
</linearGradient>
<linearGradient id="paint2_linear_44_217" x1="135.536" y1="27.6748" x2="110.672" y2="55.5349" gradientUnits="userSpaceOnUse">
<stop stop-color="#FDFF97"/>
<stop offset="1" stop-color="#F1DA09"/>
</linearGradient>
<linearGradient id="paint3_linear_44_217" x1="135.969" y1="0.930656" x2="87.4919" y2="21.041" gradientUnits="userSpaceOnUse">
<stop stop-color="#FDFF97"/>
<stop offset="1" stop-color="#F1DA09"/>
</linearGradient>
<linearGradient id="paint4_linear_44_217" x1="135.913" y1="0.999994" x2="87.4371" y2="21.1103" gradientUnits="userSpaceOnUse">
<stop stop-color="#FDFF97"/>
<stop offset="1" stop-color="#F1DA09"/>
</linearGradient>
<linearGradient id="paint5_linear_44_217" x1="135.536" y1="13.7314" x2="110.672" y2="41.5916" gradientUnits="userSpaceOnUse">
<stop stop-color="#FDFF97"/>
<stop offset="1" stop-color="#F1DA09"/>
</linearGradient>
<linearGradient id="paint6_linear_44_217" x1="135.969" y1="84.9638" x2="87.4919" y2="105.074" gradientUnits="userSpaceOnUse">
<stop stop-color="#FDFF97"/>
<stop offset="1" stop-color="#F1DA09"/>
</linearGradient>
<linearGradient id="paint7_linear_44_217" x1="135.913" y1="85.0459" x2="87.4371" y2="105.156" gradientUnits="userSpaceOnUse">
<stop stop-color="#FDFF97"/>
<stop offset="1" stop-color="#F1DA09"/>
</linearGradient>
<linearGradient id="paint8_linear_44_217" x1="135.536" y1="97.7783" x2="110.672" y2="125.639" gradientUnits="userSpaceOnUse">
<stop stop-color="#FDFF97"/>
<stop offset="1" stop-color="#F1DA09"/>
</linearGradient>
<linearGradient id="paint9_linear_44_217" x1="135.969" y1="71.0342" x2="87.4919" y2="91.1445" gradientUnits="userSpaceOnUse">
<stop stop-color="#FDFF97"/>
<stop offset="1" stop-color="#F1DA09"/>
</linearGradient>
<linearGradient id="paint10_linear_44_217" x1="135.913" y1="71.1035" x2="87.4371" y2="91.2139" gradientUnits="userSpaceOnUse">
<stop stop-color="#FDFF97"/>
<stop offset="1" stop-color="#F1DA09"/>
</linearGradient>
<linearGradient id="paint11_linear_44_217" x1="135.536" y1="83.835" x2="110.672" y2="111.695" gradientUnits="userSpaceOnUse">
<stop stop-color="#FDFF97"/>
<stop offset="1" stop-color="#F1DA09"/>
</linearGradient>
</defs>
</svg>
