<svg width="151" height="121" viewBox="0 0 151 121" fill="none" xmlns="http://www.w3.org/2000/svg">
<path d="M146.356 57.8786L124.26 51.9581C121.86 51.3149 119.392 52.7395 118.749 55.1401L104.602 107.938C103.958 110.339 105.383 112.806 107.784 113.45L129.879 119.37C132.28 120.013 134.747 118.589 135.391 116.188L149.538 63.39C150.181 60.9894 148.756 58.5219 146.356 57.8786Z" stroke="#70F0F9"/>
<path d="M143.411 63.035L124.23 57.8956C122.897 57.5382 121.526 58.3297 121.168 59.6633L108.402 107.31C108.044 108.644 108.836 110.014 110.169 110.372L129.35 115.511C130.683 115.869 132.054 115.077 132.412 113.743L145.178 66.0968C145.536 64.7632 144.744 63.3923 143.411 63.035Z" stroke="#70F0F9"/>
<path d="M93.326 3.90176L70.5799 1.477C68.1086 1.21356 65.8917 3.00337 65.6282 5.47465L59.8342 59.8273C59.5707 62.2986 61.3606 64.5155 63.8318 64.7789L86.578 67.2037C89.0492 67.4671 91.2662 65.6773 91.5296 63.2061L97.3236 8.85341C97.5871 6.38213 95.7973 4.1652 93.326 3.90176Z" stroke="#70F0F9"/>
<path d="M91.2172 9.45189L71.472 7.34703C70.0991 7.20068 68.8674 8.19501 68.7211 9.56795L63.4924 58.6174C63.346 59.9904 64.3403 61.222 65.7133 61.3684L85.4585 63.4732C86.8314 63.6196 88.0631 62.6252 88.2094 61.2523L93.4381 12.2028C93.5845 10.8299 92.5902 9.59825 91.2172 9.45189Z" stroke="#70F0F9"/>
<path d="M26.4422 51.9583L4.34667 57.8788C1.94607 58.522 0.521448 60.9895 1.16469 63.3901L15.3119 116.188C15.9551 118.589 18.4226 120.013 20.8232 119.37L42.9188 113.45C45.3194 112.806 46.744 110.339 46.1008 107.938L31.9536 55.1403C31.3103 52.7397 28.8428 51.315 26.4422 51.9583Z" stroke="#70F0F9"/>
<path d="M26.4703 57.8957L7.28981 63.0351C5.95615 63.3924 5.16469 64.7633 5.52205 66.0969L18.2889 113.744C18.6463 115.077 20.0171 115.869 21.3508 115.511L40.5313 110.372C41.8649 110.015 42.6564 108.644 42.299 107.31L29.5322 59.6635C29.1748 58.3298 27.804 57.5383 26.4703 57.8957Z" stroke="#70F0F9"/>
<path d="M62.6181 97.9702C62.4229 98.1655 62.4229 98.4821 62.6181 98.6773L65.8001 101.859C65.9954 102.054 66.312 102.054 66.5072 101.859C66.7025 101.664 66.7025 101.347 66.5072 101.152L63.6788 98.3238L66.5072 95.4954C66.7025 95.3001 66.7025 94.9835 66.5072 94.7883C66.312 94.593 65.9954 94.593 65.8001 94.7883L62.6181 97.9702ZM91.7195 98.6773C91.9148 98.4821 91.9148 98.1655 91.7195 97.9702L88.5376 94.7883C88.3423 94.593 88.0257 94.593 87.8305 94.7883C87.6352 94.9835 87.6352 95.3001 87.8305 95.4954L90.6589 98.3238L87.8305 101.152C87.6352 101.347 87.6352 101.664 87.8305 101.859C88.0257 102.054 88.3423 102.054 88.5376 101.859L91.7195 98.6773ZM62.9717 98.8238H91.366V97.8238H62.9717V98.8238Z" fill="#70F0F9"/>
<path d="M31.0749 40.8238C31.0275 41.0959 31.2097 41.3548 31.4817 41.4022L35.915 42.1743C36.187 42.2217 36.446 42.0395 36.4934 41.7675C36.5407 41.4954 36.3586 41.2365 36.0866 41.1891L32.1459 40.5028L32.8322 36.5621C32.8795 36.2901 32.6974 36.0311 32.4254 35.9838C32.1533 35.9364 31.8944 36.1185 31.847 36.3906L31.0749 40.8238ZM52.0445 26.9393C52.0918 26.6672 51.9097 26.4083 51.6377 26.3609L47.2044 25.5888C46.9323 25.5414 46.6734 25.7236 46.626 25.9956C46.5786 26.2677 46.7608 26.5266 47.0328 26.574L50.9735 27.2603L50.2872 31.201C50.2399 31.473 50.422 31.732 50.694 31.7793C50.9661 31.8267 51.225 31.6446 51.2724 31.3725L52.0445 26.9393ZM31.8552 41.3186L51.8395 27.2624L51.2642 26.4445L31.2799 40.5007L31.8552 41.3186Z" fill="#70F0F9"/>
<path d="M107.111 26.3539C106.836 26.3703 106.626 26.6071 106.642 26.8828L106.91 31.3748C106.926 31.6504 107.163 31.8606 107.439 31.8441C107.715 31.8277 107.925 31.5909 107.908 31.3152L107.67 27.3223L111.663 27.0841C111.939 27.0677 112.149 26.8309 112.132 26.5553C112.116 26.2796 111.879 26.0695 111.603 26.0859L107.111 26.3539ZM124.193 42.4581C124.469 42.4416 124.679 42.2048 124.663 41.9292L124.395 37.4372C124.378 37.1615 124.142 36.9514 123.866 36.9678C123.59 36.9843 123.38 37.221 123.397 37.4967L123.635 41.4896L119.642 41.7278C119.366 41.7442 119.156 41.981 119.172 42.2567C119.189 42.5323 119.426 42.7425 119.701 42.726L124.193 42.4581ZM106.809 27.227L123.832 42.3329L124.495 41.585L107.473 26.479L106.809 27.227Z" fill="#70F0F9"/>
</svg>
