<svg width="228" height="121" viewBox="0 0 228 121" fill="none" xmlns="http://www.w3.org/2000/svg">
<path d="M19.1 54.9708L4.05364 62.2235C1.81488 63.3027 0.874818 65.9924 1.95396 68.2311L20.4174 106.535C21.4965 108.774 24.1862 109.714 26.425 108.634L41.4713 101.382C43.71 100.303 44.6501 97.6129 43.571 95.3742L25.1076 57.0705C24.0284 54.8317 21.3387 53.8917 19.1 54.9708Z" fill="url(#paint0_linear_43_141)" stroke="#606C71"/>
<path d="M20.3594 59.5417L6.8448 66.0561C5.60104 66.6556 5.07878 68.1499 5.67831 69.3936L22.5868 104.472C23.1863 105.715 24.6806 106.238 25.9243 105.638L39.4389 99.1236C40.6827 98.5241 41.2049 97.0298 40.6054 95.7861L23.6969 60.7082C23.0974 59.4644 21.6031 58.9422 20.3594 59.5417Z" fill="url(#paint1_linear_43_141)" stroke="white"/>
<path d="M208.703 54.9708L223.749 62.2235C225.988 63.3027 226.928 65.9924 225.849 68.2311L207.386 106.535C206.307 108.774 203.617 109.714 201.378 108.635L186.332 101.382C184.093 100.303 183.153 97.613 184.232 95.3742L202.696 57.0705C203.775 54.8317 206.464 53.8917 208.703 54.9708Z" fill="url(#paint2_linear_43_141)" stroke="#606C71"/>
<path d="M207.443 59.5417L220.958 66.0561C222.202 66.6556 222.724 68.1499 222.125 69.3936L205.216 104.472C204.617 105.715 203.122 106.238 201.879 105.638L188.364 99.1236C187.12 98.5241 186.598 97.0298 187.197 95.7861L204.106 60.7082C204.705 59.4644 206.2 58.9422 207.443 59.5417Z" fill="url(#paint3_linear_43_141)" stroke="white"/>
<path d="M34.4882 5.10407L19.0239 11.9661C16.7522 12.9741 15.7278 15.6328 16.7358 17.9045L34.154 57.1584C35.1621 59.4301 37.8208 60.4545 40.0925 59.4465L55.5568 52.5845C57.8285 51.5764 58.8529 48.9177 57.8448 46.646L40.4266 7.39213C39.4186 5.12045 36.7599 4.09605 34.4882 5.10407Z" fill="url(#paint4_linear_43_141)" stroke="#606C71"/>
<path d="M35.5971 9.75661L21.729 15.9103C20.4669 16.4703 19.8978 17.9474 20.4578 19.2094L36.3988 55.1342C36.9588 56.3962 38.4359 56.9654 39.6979 56.4053L53.566 50.2516C54.8281 49.6916 55.3972 48.2145 54.8372 46.9525L38.8962 11.0278C38.3362 9.76571 36.8591 9.1966 35.5971 9.75661Z" fill="url(#paint5_linear_43_141)" stroke="white"/>
<path d="M193.315 5.10406L208.779 11.9661C211.051 12.9741 212.075 15.6328 211.067 17.9045L193.649 57.1584C192.641 59.4301 189.982 60.4545 187.71 59.4465L172.246 52.5845C169.974 51.5764 168.95 48.9177 169.958 46.646L187.376 7.39212C188.384 5.12045 191.043 4.09605 193.315 5.10406Z" fill="url(#paint6_linear_43_141)" stroke="#606C71"/>
<path d="M192.206 9.7566L206.074 15.9103C207.336 16.4703 207.905 17.9474 207.345 19.2094L191.404 55.1342C190.844 56.3962 189.367 56.9654 188.105 56.4053L174.237 50.2516C172.975 49.6916 172.406 48.2145 172.966 46.9525L188.907 11.0277C189.467 9.7657 190.944 9.19659 192.206 9.7566Z" fill="url(#paint7_linear_43_141)" stroke="white"/>
<path d="M94.5443 27.522L114.219 15.5068C114.542 15.31 114.947 15.3103 115.269 15.5076L135.057 27.6319L135.318 27.2055L135.057 27.6319C135.357 27.8153 135.54 28.1421 135.54 28.4948V36.4636C135.54 36.8205 135.352 37.1505 135.047 37.3326L135.303 37.7619L135.047 37.3326L115.224 49.1644C114.9 49.358 114.495 49.3536 114.175 49.153L94.5344 36.8451C94.2398 36.6605 94.0605 36.3366 94.0605 35.9876V28.3856C94.0605 28.0325 94.2441 27.7053 94.5443 27.522Z" fill="url(#paint8_linear_43_141)" stroke="#3F484B"/>
<path d="M113.904 15.1631L94.2286 27.1783C93.7795 27.4526 93.5054 27.9416 93.5054 28.4687V36.0706C93.5054 36.5915 93.7731 37.0757 94.2138 37.3519L113.854 49.6598C114.333 49.96 114.94 49.9666 115.425 49.6768L135.248 37.8449C135.705 37.5724 135.984 37.0792 135.984 36.5467V28.5778C135.984 28.0515 135.711 27.5631 135.263 27.2885L115.475 15.1643C114.993 14.8688 114.386 14.8684 113.904 15.1631Z" fill="url(#paint9_linear_43_141)" stroke="#3F484B" stroke-miterlimit="10"/>
<path d="M135.598 27.6748L114.69 40.4457L93.6709 27.7301" fill="url(#paint10_linear_43_141)"/>
<path d="M135.598 27.6748L114.69 40.4457L93.6709 27.7301" stroke="#3F484B" stroke-miterlimit="10"/>
<path d="M114.662 49.8444V40.4873" stroke="#3F484B" stroke-miterlimit="10"/>
<path d="M94.5443 13.5933L114.219 1.5781C114.542 1.38124 114.947 1.38154 115.269 1.57886C115.269 1.57887 115.269 1.57887 115.269 1.57887L135.057 13.7032L135.318 13.2768L135.057 13.7032C135.357 13.8866 135.54 14.2134 135.54 14.5661V22.5349C135.54 22.8917 135.352 23.2218 135.047 23.4038L135.303 23.8332L135.047 23.4039L115.224 35.2357C114.9 35.4293 114.495 35.4249 114.175 35.2243L94.5344 22.9164C94.2398 22.7318 94.0605 22.4079 94.0605 22.0589V14.4569C94.0605 14.1037 94.2441 13.7766 94.5443 13.5933Z" fill="url(#paint11_linear_43_141)" stroke="#3F484B"/>
<path d="M113.904 1.22071L94.2286 13.2359C93.7795 13.5102 93.5054 13.9992 93.5054 14.5263V22.1282C93.5054 22.6491 93.7731 23.1333 94.2138 23.4095L113.854 35.7174C114.333 36.0176 114.94 36.0242 115.425 35.7344L135.248 23.9025C135.705 23.63 135.984 23.1368 135.984 22.6043V14.6354C135.984 14.1091 135.711 13.6207 135.263 13.3462L115.475 1.22188C114.993 0.926443 114.386 0.926028 113.904 1.22071Z" fill="url(#paint12_linear_43_141)" stroke="#3F484B" stroke-miterlimit="10"/>
<path d="M135.598 13.7324L114.69 26.5034L93.6709 13.7877" fill="url(#paint13_linear_43_141)"/>
<path d="M135.598 13.7324L114.69 26.5034L93.6709 13.7877" stroke="#3F484B" stroke-miterlimit="10"/>
<path d="M114.662 35.902V26.5449" stroke="#3F484B" stroke-miterlimit="10"/>
<path d="M94.5443 97.6265L114.219 85.6113C114.542 85.4144 114.947 85.4147 115.269 85.6121L135.057 97.7364L135.318 97.31L135.057 97.7364C135.357 97.9198 135.54 98.2466 135.54 98.5993V106.569C135.54 106.925 135.352 107.255 135.047 107.438L135.303 107.867L135.047 107.438L115.224 119.269C114.9 119.463 114.495 119.459 114.175 119.258L94.5344 106.95C94.2398 106.766 94.0605 106.442 94.0605 106.093V98.4901C94.0605 98.1369 94.2441 97.8098 94.5443 97.6265Z" fill="url(#paint14_linear_43_141)" stroke="#3F484B"/>
<path d="M113.904 85.2676L94.2286 97.2828C93.7795 97.5571 93.5054 98.0461 93.5054 98.5732V106.175C93.5054 106.696 93.7731 107.18 94.2138 107.456L113.854 119.765C114.333 120.065 114.94 120.072 115.425 119.782L135.248 107.95C135.705 107.677 135.984 107.183 135.984 106.651V98.6823C135.984 98.156 135.711 97.6676 135.263 97.393L115.475 85.2688C114.993 84.9733 114.386 84.9729 113.904 85.2676Z" fill="url(#paint15_linear_43_141)" stroke="#3F484B" stroke-miterlimit="10"/>
<path d="M135.598 97.7793L114.69 110.55L93.6709 97.8346" fill="url(#paint16_linear_43_141)"/>
<path d="M135.598 97.7793L114.69 110.55L93.6709 97.8346" stroke="#3F484B" stroke-miterlimit="10"/>
<path d="M114.662 119.949V110.592" stroke="#3F484B" stroke-miterlimit="10"/>
<path d="M94.5443 83.6977L114.219 71.6826C114.542 71.4857 114.947 71.486 115.269 71.6834L135.057 83.8077L135.318 83.3813L135.057 83.8077C135.357 83.9911 135.54 84.3179 135.54 84.6706V92.6394C135.54 92.9962 135.352 93.3262 135.047 93.5083L135.303 93.9377L135.047 93.5083L115.224 105.341C114.9 105.534 114.495 105.53 114.175 105.329L94.5344 93.0209C94.2398 92.8363 94.0605 92.5124 94.0605 92.1633V84.5614C94.0605 84.2082 94.2441 83.881 94.5443 83.6977Z" fill="url(#paint17_linear_43_141)" stroke="#3F484B"/>
<path d="M113.904 71.3252L94.2286 83.3404C93.7795 83.6147 93.5054 84.1037 93.5054 84.6308V92.2327C93.5054 92.7536 93.7731 93.2378 94.2138 93.5139L113.854 105.822C114.333 106.123 114.94 106.129 115.425 105.839L135.248 94.007C135.705 93.7345 135.984 93.2413 135.984 92.7088V84.7399C135.984 84.2136 135.711 83.7252 135.263 83.4507L115.475 71.3264C114.993 71.0309 114.386 71.0305 113.904 71.3252Z" fill="url(#paint18_linear_43_141)" stroke="#3F484B" stroke-miterlimit="10"/>
<path d="M135.598 83.8369L114.69 96.6078L93.6709 83.8922" fill="url(#paint19_linear_43_141)"/>
<path d="M135.598 83.8369L114.69 96.6078L93.6709 83.8922" stroke="#3F484B" stroke-miterlimit="10"/>
<path d="M114.662 106.007V96.6494" stroke="#3F484B" stroke-miterlimit="10"/>
<path d="M64.341 33.1899C64.1401 33.3794 64.1309 33.6959 64.3204 33.8967L67.4084 37.17C67.5979 37.3708 67.9144 37.38 68.1152 37.1905C68.3161 37.001 68.3253 36.6846 68.1358 36.4837L65.3909 33.5742L68.3005 30.8293C68.5013 30.6398 68.5105 30.3233 68.321 30.1225C68.1315 29.9216 67.8151 29.9124 67.6142 30.1019L64.341 33.1899ZM81.6468 34.4012C81.8477 34.2117 81.8569 33.8952 81.6674 33.6944L78.5794 30.4211C78.3899 30.2203 78.0734 30.2111 77.8726 30.4006C77.6717 30.5901 77.6625 30.9065 77.852 31.1074L80.5969 34.0169L77.6874 36.7618C77.4865 36.9513 77.4773 37.2678 77.6668 37.4686C77.8563 37.6695 78.1727 37.6787 78.3736 37.4892L81.6468 34.4012ZM64.6695 34.0534L81.2892 34.5373L81.3183 33.5377L64.6987 33.0538L64.6695 34.0534Z" fill="#606C71"/>
<path d="M145.604 33.1911C145.403 33.3806 145.394 33.697 145.583 33.8979L148.671 37.1711C148.861 37.372 149.177 37.3812 149.378 37.1917C149.579 37.0022 149.588 36.6858 149.398 36.4849L146.654 33.5754L149.563 30.8305C149.764 30.641 149.773 30.3245 149.584 30.1236C149.394 29.9228 149.078 29.9136 148.877 30.1031L145.604 33.1911ZM162.909 34.4024C163.11 34.2129 163.12 33.8964 162.93 33.6956L159.842 30.4223C159.652 30.2215 159.336 30.2122 159.135 30.4017C158.934 30.5912 158.925 30.9077 159.115 31.1086L161.86 34.0181L158.95 36.763C158.749 36.9525 158.74 37.269 158.929 37.4698C159.119 37.6707 159.435 37.6799 159.636 37.4904L162.909 34.4024ZM145.932 34.0546L162.552 34.5385L162.581 33.5389L145.961 33.055L145.932 34.0546Z" fill="#606C71"/>
<path d="M64.341 89.4604C64.1401 89.6499 64.1309 89.9664 64.3204 90.1672L67.4084 93.4405C67.5979 93.6413 67.9144 93.6505 68.1152 93.4611C68.3161 93.2716 68.3253 92.9551 68.1358 92.7542L65.3909 89.8447L68.3005 87.0998C68.5013 86.9103 68.5105 86.5938 68.321 86.393C68.1315 86.1921 67.8151 86.1829 67.6142 86.3724L64.341 89.4604ZM81.6468 90.6717C81.8477 90.4822 81.8569 90.1658 81.6674 89.9649L78.5794 86.6917C78.3899 86.4908 78.0734 86.4816 77.8726 86.6711C77.6717 86.8606 77.6625 87.177 77.852 87.3779L80.5969 90.2874L77.6874 93.0323C77.4865 93.2218 77.4773 93.5383 77.6668 93.7391C77.8563 93.94 78.1727 93.9492 78.3736 93.7597L81.6468 90.6717ZM64.6695 90.3239L81.2892 90.8078L81.3183 89.8082L64.6987 89.3243L64.6695 90.3239Z" fill="#606C71"/>
<path d="M145.604 89.4604C145.403 89.6499 145.394 89.9664 145.583 90.1672L148.671 93.4405C148.861 93.6413 149.177 93.6505 149.378 93.4611C149.579 93.2716 149.588 92.9551 149.398 92.7542L146.654 89.8447L149.563 87.0998C149.764 86.9103 149.773 86.5938 149.584 86.393C149.394 86.1921 149.078 86.1829 148.877 86.3724L145.604 89.4604ZM162.909 90.6717C163.11 90.4822 163.12 90.1658 162.93 89.9649L159.842 86.6917C159.652 86.4908 159.336 86.4816 159.135 86.6711C158.934 86.8606 158.925 87.177 159.115 87.3779L161.86 90.2874L158.95 93.0323C158.749 93.2218 158.74 93.5383 158.929 93.7391C159.119 93.94 159.435 93.9492 159.636 93.7597L162.909 90.6717ZM145.932 90.3239L162.552 90.8078L162.581 89.8082L145.961 89.3243L145.932 90.3239Z" fill="#606C71"/>
<path d="M114.255 53.6533C114.06 53.458 113.743 53.458 113.548 53.6533L110.366 56.8353C110.17 57.0305 110.17 57.3471 110.366 57.5424C110.561 57.7376 110.878 57.7376 111.073 57.5424L113.901 54.7139L116.73 57.5424C116.925 57.7376 117.242 57.7376 117.437 57.5424C117.632 57.3471 117.632 57.0305 117.437 56.8353L114.255 53.6533ZM113.548 65.8267C113.743 66.022 114.06 66.022 114.255 65.8267L117.437 62.6447C117.632 62.4495 117.632 62.1329 117.437 61.9376C117.242 61.7423 116.925 61.7423 116.73 61.9376L113.901 64.766L111.073 61.9376C110.878 61.7423 110.561 61.7423 110.366 61.9376C110.17 62.1329 110.17 62.4495 110.366 62.6447L113.548 65.8267ZM113.401 54.0068V65.4731H114.401V54.0068H113.401Z" fill="#606C71"/>
<defs>
<linearGradient id="paint0_linear_43_141" x1="22.998" y1="52.8328" x2="-5.62364" y2="73.3083" gradientUnits="userSpaceOnUse">
<stop stop-color="#53C1FF"/>
<stop offset="1" stop-color="#0053D0"/>
</linearGradient>
<linearGradient id="paint1_linear_43_141" x1="22.5314" y1="58.2357" x2="-0.249624" y2="74.0676" gradientUnits="userSpaceOnUse">
<stop stop-color="#53C1FF"/>
<stop offset="1" stop-color="#0053D0"/>
</linearGradient>
<linearGradient id="paint2_linear_43_141" x1="203.602" y1="52.2531" x2="232.224" y2="72.7286" gradientUnits="userSpaceOnUse">
<stop stop-color="#53C1FF"/>
<stop offset="1" stop-color="#0053D0"/>
</linearGradient>
<linearGradient id="paint3_linear_43_141" x1="204.069" y1="57.656" x2="226.85" y2="73.4879" gradientUnits="userSpaceOnUse">
<stop stop-color="#53C1FF"/>
<stop offset="1" stop-color="#0053D0"/>
</linearGradient>
<linearGradient id="paint4_linear_43_141" x1="38.4474" y1="3.06913" x2="8.9585" y2="22.7897" gradientUnits="userSpaceOnUse">
<stop stop-color="#53C1FF"/>
<stop offset="1" stop-color="#0053D0"/>
</linearGradient>
<linearGradient id="paint5_linear_43_141" x1="37.8054" y1="8.49849" x2="14.3489" y2="23.726" gradientUnits="userSpaceOnUse">
<stop stop-color="#53C1FF"/>
<stop offset="1" stop-color="#0053D0"/>
</linearGradient>
<linearGradient id="paint6_linear_43_141" x1="188.149" y1="2.53385" x2="217.638" y2="22.2544" gradientUnits="userSpaceOnUse">
<stop stop-color="#53C1FF"/>
<stop offset="1" stop-color="#0053D0"/>
</linearGradient>
<linearGradient id="paint7_linear_43_141" x1="188.791" y1="7.96331" x2="212.248" y2="23.1908" gradientUnits="userSpaceOnUse">
<stop stop-color="#53C1FF"/>
<stop offset="1" stop-color="#0053D0"/>
</linearGradient>
<linearGradient id="paint8_linear_43_141" x1="135.415" y1="14.8594" x2="86.9385" y2="34.9697" gradientUnits="userSpaceOnUse">
<stop stop-color="#FDFF97"/>
<stop offset="1" stop-color="#F1DA09"/>
</linearGradient>
<linearGradient id="paint9_linear_43_141" x1="135.36" y1="14.9424" x2="86.8834" y2="35.0527" gradientUnits="userSpaceOnUse">
<stop stop-color="#FDFF97"/>
<stop offset="1" stop-color="#F1DA09"/>
</linearGradient>
<linearGradient id="paint10_linear_43_141" x1="134.982" y1="27.6748" x2="110.117" y2="55.5349" gradientUnits="userSpaceOnUse">
<stop stop-color="#FDFF97"/>
<stop offset="1" stop-color="#F1DA09"/>
</linearGradient>
<linearGradient id="paint11_linear_43_141" x1="135.415" y1="0.930655" x2="86.9385" y2="21.041" gradientUnits="userSpaceOnUse">
<stop stop-color="#FDFF97"/>
<stop offset="1" stop-color="#F1DA09"/>
</linearGradient>
<linearGradient id="paint12_linear_43_141" x1="135.36" y1="0.999994" x2="86.8834" y2="21.1104" gradientUnits="userSpaceOnUse">
<stop stop-color="#FDFF97"/>
<stop offset="1" stop-color="#F1DA09"/>
</linearGradient>
<linearGradient id="paint13_linear_43_141" x1="134.982" y1="13.7324" x2="110.117" y2="41.5926" gradientUnits="userSpaceOnUse">
<stop stop-color="#FDFF97"/>
<stop offset="1" stop-color="#F1DA09"/>
</linearGradient>
<linearGradient id="paint14_linear_43_141" x1="135.415" y1="84.9639" x2="86.9385" y2="105.075" gradientUnits="userSpaceOnUse">
<stop stop-color="#FDFF97"/>
<stop offset="1" stop-color="#F1DA09"/>
</linearGradient>
<linearGradient id="paint15_linear_43_141" x1="135.36" y1="85.0469" x2="86.8834" y2="105.158" gradientUnits="userSpaceOnUse">
<stop stop-color="#FDFF97"/>
<stop offset="1" stop-color="#F1DA09"/>
</linearGradient>
<linearGradient id="paint16_linear_43_141" x1="134.982" y1="97.7793" x2="110.117" y2="125.639" gradientUnits="userSpaceOnUse">
<stop stop-color="#FDFF97"/>
<stop offset="1" stop-color="#F1DA09"/>
</linearGradient>
<linearGradient id="paint17_linear_43_141" x1="135.415" y1="71.0351" x2="86.9385" y2="91.1455" gradientUnits="userSpaceOnUse">
<stop stop-color="#FDFF97"/>
<stop offset="1" stop-color="#F1DA09"/>
</linearGradient>
<linearGradient id="paint18_linear_43_141" x1="135.36" y1="71.1045" x2="86.8834" y2="91.2148" gradientUnits="userSpaceOnUse">
<stop stop-color="#FDFF97"/>
<stop offset="1" stop-color="#F1DA09"/>
</linearGradient>
<linearGradient id="paint19_linear_43_141" x1="134.982" y1="83.8369" x2="110.117" y2="111.698" gradientUnits="userSpaceOnUse">
<stop stop-color="#FDFF97"/>
<stop offset="1" stop-color="#F1DA09"/>
</linearGradient>
</defs>
</svg>
