<svg width="210" height="128" viewBox="0 0 210 128" fill="none" xmlns="http://www.w3.org/2000/svg">
<path d="M205.08 65.2951L182.985 59.3746C180.584 58.7314 178.117 60.156 177.473 62.5566L163.326 115.355C162.683 117.755 164.108 120.223 166.508 120.866L188.604 126.787C191.004 127.43 193.472 126.005 194.115 123.605L208.262 70.8065C208.906 68.4059 207.481 65.9384 205.08 65.2951Z" stroke="#70F0F9"/>
<path d="M202.135 70.4515L182.955 65.3121C181.621 64.9547 180.25 65.7462 179.893 67.0799L167.126 114.726C166.769 116.06 167.56 117.431 168.894 117.788L188.074 122.928C189.408 123.285 190.779 122.494 191.136 121.16L203.903 73.5133C204.26 72.1797 203.469 70.8088 202.135 70.4515Z" stroke="#70F0F9"/>
<path d="M26.4422 59.3748L4.34667 65.2953C1.94607 65.9385 0.521448 68.406 1.16469 70.8066L15.3119 123.605C15.9551 126.005 18.4226 127.43 20.8232 126.787L42.9188 120.866C45.3194 120.223 46.744 117.755 46.1008 115.355L31.9536 62.5568C31.3103 60.1562 28.8428 58.7316 26.4422 59.3748Z" stroke="#70F0F9"/>
<path d="M26.4703 65.3122L7.28981 70.4516C5.95615 70.8089 5.16469 72.1798 5.52205 73.5134L18.2889 121.16C18.6463 122.494 20.0171 123.285 21.3508 122.928L40.5313 117.788C41.8649 117.431 42.6564 116.06 42.299 114.727L29.5322 67.08C29.1748 65.7463 27.804 64.9548 26.4703 65.3122Z" stroke="#70F0F9"/>
<path d="M84.8032 27.5219L104.478 15.5069C104.801 15.31 105.206 15.3103 105.528 15.5076L125.316 27.6319L125.577 27.2056L125.316 27.6319C125.615 27.8154 125.798 28.1422 125.798 28.4948V36.4636C125.798 36.8204 125.611 37.1505 125.306 37.3326L125.562 37.762L125.306 37.3326L105.483 49.1645C105.159 49.3581 104.754 49.3536 104.434 49.153L84.7933 36.8451C84.4987 36.6605 84.3193 36.3366 84.3193 35.9875V28.3857C84.3193 28.0325 84.503 27.7052 84.8032 27.5219Z" fill="url(#paint0_linear_44_247)" stroke="#3F484B"/>
<path d="M104.163 15.1632L84.4878 27.1783C84.0386 27.4526 83.7646 27.9416 83.7646 28.4687V36.0707C83.7646 36.5916 84.0323 37.0757 84.473 37.3519L104.113 49.6598C104.593 49.96 105.199 49.9666 105.685 49.6768L125.507 37.845C125.964 37.5725 126.244 37.0792 126.244 36.5467V28.5778C126.244 28.0515 125.97 27.5631 125.522 27.2886L105.734 15.1643C105.252 14.8689 104.646 14.8684 104.163 15.1632Z" fill="url(#paint1_linear_44_247)" stroke="#3F484B" stroke-miterlimit="10"/>
<path d="M125.858 27.6758L104.949 40.4468L83.9307 27.7311" fill="url(#paint2_linear_44_247)"/>
<path d="M125.858 27.6758L104.949 40.4468L83.9307 27.7311" stroke="#3F484B" stroke-miterlimit="10"/>
<path d="M104.921 49.8454V40.4883" stroke="#3F484B" stroke-miterlimit="10"/>
<path d="M84.8032 13.5932L104.478 1.5781C104.801 1.38124 105.206 1.38155 105.528 1.57887C105.528 1.57887 105.528 1.57887 105.528 1.57888L125.316 13.7031L125.577 13.2768L125.316 13.7031C125.615 13.8866 125.798 14.2134 125.798 14.566V22.5349C125.798 22.8917 125.611 23.2217 125.306 23.4038L125.562 23.8331L125.306 23.4038L105.483 35.2357C105.159 35.4292 104.754 35.4248 104.434 35.2243L84.7933 22.9164C84.4987 22.7318 84.3193 22.4079 84.3193 22.0588V14.4569C84.3193 14.1037 84.503 13.7765 84.8032 13.5932Z" fill="url(#paint3_linear_44_247)" stroke="#3F484B"/>
<path d="M104.163 1.22072L84.4878 13.2358C84.0386 13.5101 83.7646 13.9991 83.7646 14.5262V22.1282C83.7646 22.6491 84.0323 23.1332 84.473 23.4094L104.113 35.7173C104.593 36.0176 105.199 36.0241 105.685 35.7343L125.507 23.9025C125.964 23.63 126.244 23.1367 126.244 22.6042V14.6354C126.244 14.1091 125.97 13.6207 125.522 13.3461L105.734 1.22188C105.252 0.926443 104.646 0.926028 104.163 1.22072Z" fill="url(#paint4_linear_44_247)" stroke="#3F484B" stroke-miterlimit="10"/>
<path d="M125.858 13.7324L104.949 26.5033L83.9307 13.7876" fill="url(#paint5_linear_44_247)"/>
<path d="M125.858 13.7324L104.949 26.5033L83.9307 13.7876" stroke="#3F484B" stroke-miterlimit="10"/>
<path d="M104.921 35.902V26.5449" stroke="#3F484B" stroke-miterlimit="10"/>
<path d="M84.8032 97.6274L104.478 85.6122C104.801 85.4154 105.206 85.4157 105.528 85.613L125.316 97.7373L125.577 97.311L125.316 97.7373C125.615 97.9208 125.798 98.2475 125.798 98.6002V106.57C125.798 106.926 125.611 107.256 125.306 107.438L125.562 107.868L125.306 107.438L105.483 119.27C105.159 119.464 104.754 119.46 104.434 119.259L84.7933 106.951C84.4987 106.766 84.3193 106.443 84.3193 106.093V98.4911C84.3193 98.1379 84.503 97.8107 84.8032 97.6274Z" fill="url(#paint6_linear_44_247)" stroke="#3F484B"/>
<path d="M104.163 85.2677L84.4878 97.2828C84.0386 97.5571 83.7646 98.0461 83.7646 98.5732V106.176C83.7646 106.696 84.0323 107.181 84.473 107.457L104.113 119.765C104.593 120.065 105.199 120.072 105.685 119.782L125.507 107.95C125.964 107.677 126.244 107.184 126.244 106.652V98.6822C126.244 98.1559 125.97 97.6675 125.522 97.393L105.734 85.2687C105.252 84.9733 104.646 84.9729 104.163 85.2677Z" fill="url(#paint7_linear_44_247)" stroke="#3F484B" stroke-miterlimit="10"/>
<path d="M125.858 97.7793L104.949 110.55L83.9307 97.8345" fill="url(#paint8_linear_44_247)"/>
<path d="M125.858 97.7793L104.949 110.55L83.9307 97.8345" stroke="#3F484B" stroke-miterlimit="10"/>
<path d="M104.921 119.949V110.592" stroke="#3F484B" stroke-miterlimit="10"/>
<path d="M84.8032 83.6977L104.478 71.6825C104.801 71.4857 105.206 71.486 105.528 71.6833L125.316 83.8076L125.577 83.3813L125.316 83.8076C125.615 83.9911 125.798 84.3178 125.798 84.6705V92.6394C125.798 92.9962 125.611 93.3262 125.306 93.5083L125.562 93.9376L125.306 93.5083L105.483 105.341C105.159 105.534 104.754 105.53 104.434 105.329L84.7933 93.0209C84.4987 92.8363 84.3193 92.5123 84.3193 92.1633V84.5614C84.3193 84.2082 84.503 83.881 84.8032 83.6977Z" fill="url(#paint9_linear_44_247)" stroke="#3F484B"/>
<path d="M104.163 71.3252L84.4878 83.3403C84.0386 83.6146 83.7646 84.1036 83.7646 84.6307V92.2327C83.7646 92.7536 84.0323 93.2377 84.473 93.5139L104.113 105.822C104.593 106.123 105.199 106.129 105.685 105.839L125.507 94.007C125.964 93.7345 126.244 93.2412 126.244 92.7087V84.7399C126.244 84.2136 125.97 83.7252 125.522 83.4506L105.734 71.3263C105.252 71.0309 104.646 71.0305 104.163 71.3252Z" fill="url(#paint10_linear_44_247)" stroke="#3F484B" stroke-miterlimit="10"/>
<path d="M125.858 83.8359L104.949 96.6068L83.9307 83.8912" fill="url(#paint11_linear_44_247)"/>
<path d="M125.858 83.8359L104.949 96.6068L83.9307 83.8912" stroke="#3F484B" stroke-miterlimit="10"/>
<path d="M104.921 106.007V96.6494" stroke="#3F484B" stroke-miterlimit="10"/>
<path d="M47.5244 88.8867C47.3291 89.082 47.3291 89.3986 47.5244 89.5938L50.7064 92.7758C50.9016 92.9711 51.2182 92.9711 51.4135 92.7758C51.6087 92.5806 51.6087 92.264 51.4135 92.0687L48.5851 89.2403L51.4135 86.4119C51.6087 86.2166 51.6087 85.9 51.4135 85.7048C51.2182 85.5095 50.9016 85.5095 50.7064 85.7048L47.5244 88.8867ZM76.6258 89.5938C76.821 89.3986 76.821 89.082 76.6258 88.8867L73.4438 85.7048C73.2485 85.5095 72.932 85.5095 72.7367 85.7048C72.5414 85.9 72.5414 86.2166 72.7367 86.4119L75.5651 89.2403L72.7367 92.0687C72.5414 92.264 72.5414 92.5806 72.7367 92.7758C72.932 92.9711 73.2485 92.9711 73.4438 92.7758L76.6258 89.5938ZM47.8779 89.7403H76.2722V88.7403H47.8779V89.7403Z" fill="#70F0F9"/>
<path d="M134.118 88.8867C133.923 89.082 133.923 89.3986 134.118 89.5938L137.3 92.7758C137.495 92.9711 137.812 92.9711 138.007 92.7758C138.202 92.5806 138.202 92.264 138.007 92.0687L135.179 89.2403L138.007 86.4119C138.202 86.2166 138.202 85.9 138.007 85.7048C137.812 85.5095 137.495 85.5095 137.3 85.7048L134.118 88.8867ZM163.219 89.5938C163.415 89.3986 163.415 89.082 163.219 88.8867L160.037 85.7048C159.842 85.5095 159.526 85.5095 159.33 85.7048C159.135 85.9 159.135 86.2166 159.33 86.4119L162.159 89.2403L159.33 92.0687C159.135 92.264 159.135 92.5806 159.33 92.7758C159.526 92.9711 159.842 92.9711 160.037 92.7758L163.219 89.5938ZM134.472 89.7403H162.866V88.7403H134.472V89.7403Z" fill="#70F0F9"/>
<path d="M49.7373 65.0907C49.7373 65.3668 49.9612 65.5907 50.2373 65.5907H54.7373C55.0135 65.5907 55.2373 65.3668 55.2373 65.0907C55.2373 64.8145 55.0135 64.5907 54.7373 64.5907H50.7373V60.5907C50.7373 60.3145 50.5135 60.0907 50.2373 60.0907C49.9612 60.0907 49.7373 60.3145 49.7373 60.5907V65.0907ZM74.4113 41.4167C74.4113 41.1406 74.1874 40.9167 73.9113 40.9167H69.4113C69.1351 40.9167 68.9113 41.1406 68.9113 41.4167C68.9113 41.6929 69.1351 41.9167 69.4113 41.9167H73.4113V45.9167C73.4113 46.1929 73.6351 46.4167 73.9113 46.4167C74.1874 46.4167 74.4113 46.1929 74.4113 45.9167V41.4167ZM50.5909 65.4442L74.2648 41.7703L73.5577 41.0632L49.8838 64.7371L50.5909 65.4442Z" fill="#70F0F9"/>
<path d="M137.38 41.1582C137.104 41.1582 136.88 41.382 136.88 41.6582V46.1582C136.88 46.4343 137.104 46.6582 137.38 46.6582C137.656 46.6582 137.88 46.4343 137.88 46.1582V42.1582H141.88C142.156 42.1582 142.38 41.9343 142.38 41.6582C142.38 41.382 142.156 41.1582 141.88 41.1582H137.38ZM159.958 64.7361C160.234 64.7361 160.458 64.5122 160.458 64.2361V59.7361C160.458 59.4599 160.234 59.2361 159.958 59.2361C159.682 59.2361 159.458 59.4599 159.458 59.7361V63.7361H155.458C155.182 63.7361 154.958 63.9599 154.958 64.2361C154.958 64.5122 155.182 64.7361 155.458 64.7361H159.958ZM137.026 42.0117L159.604 64.5896L160.311 63.8825L137.733 41.3046L137.026 42.0117Z" fill="#70F0F9"/>
<defs>
<linearGradient id="paint0_linear_44_247" x1="125.674" y1="14.8594" x2="77.1974" y2="34.9698" gradientUnits="userSpaceOnUse">
<stop stop-color="#FDFF97"/>
<stop offset="1" stop-color="#F1DA09"/>
</linearGradient>
<linearGradient id="paint1_linear_44_247" x1="125.619" y1="14.9424" x2="77.1426" y2="35.0528" gradientUnits="userSpaceOnUse">
<stop stop-color="#FDFF97"/>
<stop offset="1" stop-color="#F1DA09"/>
</linearGradient>
<linearGradient id="paint2_linear_44_247" x1="125.241" y1="27.6758" x2="100.377" y2="55.536" gradientUnits="userSpaceOnUse">
<stop stop-color="#FDFF97"/>
<stop offset="1" stop-color="#F1DA09"/>
</linearGradient>
<linearGradient id="paint3_linear_44_247" x1="125.674" y1="0.930657" x2="77.1974" y2="21.0411" gradientUnits="userSpaceOnUse">
<stop stop-color="#FDFF97"/>
<stop offset="1" stop-color="#F1DA09"/>
</linearGradient>
<linearGradient id="paint4_linear_44_247" x1="125.619" y1="0.999992" x2="77.1426" y2="21.1103" gradientUnits="userSpaceOnUse">
<stop stop-color="#FDFF97"/>
<stop offset="1" stop-color="#F1DA09"/>
</linearGradient>
<linearGradient id="paint5_linear_44_247" x1="125.241" y1="13.7324" x2="100.377" y2="41.5925" gradientUnits="userSpaceOnUse">
<stop stop-color="#FDFF97"/>
<stop offset="1" stop-color="#F1DA09"/>
</linearGradient>
<linearGradient id="paint6_linear_44_247" x1="125.674" y1="84.9648" x2="77.1974" y2="105.076" gradientUnits="userSpaceOnUse">
<stop stop-color="#FDFF97"/>
<stop offset="1" stop-color="#F1DA09"/>
</linearGradient>
<linearGradient id="paint7_linear_44_247" x1="125.619" y1="85.0469" x2="77.1426" y2="105.158" gradientUnits="userSpaceOnUse">
<stop stop-color="#FDFF97"/>
<stop offset="1" stop-color="#F1DA09"/>
</linearGradient>
<linearGradient id="paint8_linear_44_247" x1="125.241" y1="97.7792" x2="100.377" y2="125.639" gradientUnits="userSpaceOnUse">
<stop stop-color="#FDFF97"/>
<stop offset="1" stop-color="#F1DA09"/>
</linearGradient>
<linearGradient id="paint9_linear_44_247" x1="125.674" y1="71.0351" x2="77.1974" y2="91.1456" gradientUnits="userSpaceOnUse">
<stop stop-color="#FDFF97"/>
<stop offset="1" stop-color="#F1DA09"/>
</linearGradient>
<linearGradient id="paint10_linear_44_247" x1="125.619" y1="71.1044" x2="77.1427" y2="91.2148" gradientUnits="userSpaceOnUse">
<stop stop-color="#FDFF97"/>
<stop offset="1" stop-color="#F1DA09"/>
</linearGradient>
<linearGradient id="paint11_linear_44_247" x1="125.241" y1="83.8359" x2="100.377" y2="111.697" gradientUnits="userSpaceOnUse">
<stop stop-color="#FDFF97"/>
<stop offset="1" stop-color="#F1DA09"/>
</linearGradient>
</defs>
</svg>
