<svg width="210" height="128" viewBox="0 0 210 128" fill="none" xmlns="http://www.w3.org/2000/svg">
<path d="M205.079 64.7717L182.983 58.8512C180.583 58.208 178.115 59.6326 177.472 62.0332L163.325 114.831C162.681 117.232 164.106 119.699 166.507 120.343L188.602 126.263C191.003 126.906 193.47 125.482 194.113 123.081L208.261 70.283C208.904 67.8824 207.479 65.4149 205.079 64.7717Z" fill="url(#paint0_linear_43_171)" stroke="#606C71"/>
<path d="M202.135 69.9271L182.954 64.7877C181.621 64.4303 180.25 65.2218 179.893 66.5554L167.126 114.202C166.768 115.536 167.56 116.907 168.893 117.264L188.074 122.403C189.408 122.761 190.778 121.969 191.136 120.636L203.903 72.9889C204.26 71.6553 203.469 70.2844 202.135 69.9271Z" fill="url(#paint1_linear_43_171)" stroke="white"/>
<path d="M26.4422 58.8514L4.34667 64.7718C1.94607 65.4151 0.521448 67.8826 1.16469 70.2832L15.3119 123.081C15.9551 125.482 18.4226 126.906 20.8232 126.263L42.9188 120.343C45.3194 119.7 46.744 117.232 46.1008 114.831L31.9536 62.0333C31.3103 59.6327 28.8428 58.2081 26.4422 58.8514Z" fill="url(#paint2_linear_43_171)" stroke="#606C71"/>
<path d="M26.4708 64.7878L7.2903 69.9272C5.95664 70.2845 5.16518 71.6554 5.52254 72.989L18.2894 120.636C18.6468 121.969 20.0176 122.761 21.3513 122.403L40.5318 117.264C41.8654 116.907 42.6569 115.536 42.2995 114.202L29.5326 66.5555C29.1753 65.2219 27.8045 64.4304 26.4708 64.7878Z" fill="url(#paint3_linear_43_171)" stroke="white"/>
<path d="M85.2498 27.5219L104.924 15.5069C105.247 15.31 105.652 15.3103 105.974 15.5076C105.974 15.5076 105.974 15.5076 105.974 15.5077L125.762 27.6318L126.023 27.2055L125.762 27.6318C126.062 27.8153 126.245 28.1421 126.245 28.4947V36.4637C126.245 36.8205 126.057 37.1504 125.752 37.3325L126.008 37.7619L125.752 37.3325L105.929 49.1644C105.605 49.358 105.2 49.3536 104.88 49.153L85.2399 36.8451C84.9453 36.6605 84.766 36.3367 84.766 35.9876V28.3857C84.766 28.0325 84.9496 27.7052 85.2498 27.5219Z" fill="url(#paint4_linear_43_171)" stroke="#3F484B"/>
<path d="M104.61 15.1631L84.934 27.1782C84.4849 27.4525 84.2108 27.9416 84.2108 28.4687V36.0706C84.2108 36.5915 84.4785 37.0756 84.9192 37.3518L104.56 49.6597C105.039 49.96 105.646 49.9666 106.131 49.6768L125.954 37.8449C126.411 37.5724 126.69 37.0791 126.69 36.5466V28.5777C126.69 28.0514 126.417 27.563 125.969 27.2885L106.181 15.1642C105.699 14.8688 105.092 14.8684 104.61 15.1631Z" fill="url(#paint5_linear_43_171)" stroke="#3F484B" stroke-miterlimit="10"/>
<path d="M126.304 27.6748L105.396 40.4457L84.3763 27.73" fill="url(#paint6_linear_43_171)"/>
<path d="M126.304 27.6748L105.396 40.4457L84.3763 27.73" stroke="#3F484B" stroke-miterlimit="10"/>
<path d="M105.368 49.8443V40.4873" stroke="#3F484B" stroke-miterlimit="10"/>
<path d="M85.2498 13.5932L104.924 1.5781C105.247 1.38124 105.652 1.38154 105.974 1.57886V1.57887L125.762 13.7031L126.023 13.2768L125.762 13.7031C126.062 13.8866 126.245 14.2134 126.245 14.566V22.5349C126.245 22.8917 126.057 23.2217 125.752 23.4038L126.008 23.8332L125.752 23.4038L105.929 35.2357C105.605 35.4293 105.2 35.4249 104.88 35.2243L85.2399 22.9164C84.9453 22.7318 84.766 22.4079 84.766 22.0588V14.4569C84.766 14.1037 84.9496 13.7765 85.2498 13.5932Z" fill="url(#paint7_linear_43_171)" stroke="#3F484B"/>
<path d="M104.61 1.22071L84.934 13.2358C84.4849 13.5101 84.2108 13.9992 84.2108 14.5263V22.1282C84.2108 22.6491 84.4785 23.1332 84.9192 23.4094L104.56 35.7173C105.039 36.0176 105.646 36.0242 106.131 35.7344L125.954 23.9025C126.411 23.63 126.69 23.1368 126.69 22.6042V14.6354C126.69 14.1091 126.417 13.6207 125.969 13.3461L106.181 1.22187C105.699 0.926444 105.092 0.926029 104.61 1.22071Z" fill="url(#paint8_linear_43_171)" stroke="#3F484B" stroke-miterlimit="10"/>
<path d="M126.304 13.7324L105.396 26.5033L84.3763 13.7877" fill="url(#paint9_linear_43_171)"/>
<path d="M126.304 13.7324L105.396 26.5033L84.3763 13.7877" stroke="#3F484B" stroke-miterlimit="10"/>
<path d="M105.368 35.902V26.5449" stroke="#3F484B" stroke-miterlimit="10"/>
<path d="M85.2498 97.6256V97.6255L104.924 85.6104C105.247 85.4135 105.652 85.4138 105.974 85.6112L125.762 97.7355L126.023 97.3091L125.762 97.7355C126.062 97.9189 126.245 98.2457 126.245 98.5984V106.567C126.245 106.924 126.057 107.254 125.752 107.436L126.008 107.865L125.752 107.436L105.929 119.268C105.605 119.461 105.2 119.457 104.88 119.256L85.2399 106.949C84.9453 106.764 84.766 106.44 84.766 106.091V98.4892C84.766 98.136 84.9496 97.8088 85.2498 97.6256Z" fill="url(#paint10_linear_43_171)" stroke="#3F484B"/>
<path d="M104.61 85.2666L84.934 97.2818C84.4849 97.556 84.2108 98.0451 84.2108 98.5722V106.174C84.2108 106.695 84.4785 107.179 84.9192 107.455L104.56 119.763C105.039 120.063 105.646 120.07 106.131 119.78L125.954 107.948C126.411 107.676 126.69 107.183 126.69 106.65V98.6813C126.69 98.155 126.417 97.6665 125.969 97.392L106.181 85.2678C105.699 84.9723 105.092 84.9719 104.61 85.2666Z" fill="url(#paint11_linear_43_171)" stroke="#3F484B" stroke-miterlimit="10"/>
<path d="M126.304 97.7783L105.396 110.549L84.3763 97.8336" fill="url(#paint12_linear_43_171)"/>
<path d="M126.304 97.7783L105.396 110.549L84.3763 97.8336" stroke="#3F484B" stroke-miterlimit="10"/>
<path d="M105.368 119.948V110.591" stroke="#3F484B" stroke-miterlimit="10"/>
<path d="M85.2498 83.6968L104.924 71.6817C105.247 71.4848 105.652 71.4851 105.974 71.6824V71.6825L125.762 83.8067L126.023 83.3804L125.762 83.8067C126.062 83.9902 126.245 84.317 126.245 84.6697V92.6385C126.245 92.9953 126.057 93.3253 125.752 93.5074L126.008 93.9368L125.752 93.5074L105.929 105.339C105.605 105.533 105.2 105.528 104.88 105.328L85.2399 93.02C84.9453 92.8354 84.766 92.5115 84.766 92.1624V84.5605C84.766 84.2073 84.9496 83.8801 85.2498 83.6968Z" fill="url(#paint13_linear_43_171)" stroke="#3F484B"/>
<path d="M104.61 71.3242L84.934 83.3394C84.4849 83.6136 84.2108 84.1027 84.2108 84.6298V92.2317C84.2108 92.7526 84.4785 93.2367 84.9192 93.5129L104.56 105.821C105.039 106.121 105.646 106.128 106.131 105.838L125.954 94.006C126.411 93.7335 126.69 93.2403 126.69 92.7077V84.7389C126.69 84.2126 126.417 83.7242 125.969 83.4497L106.181 71.3254C105.699 71.0299 105.092 71.0295 104.61 71.3242Z" fill="url(#paint14_linear_43_171)" stroke="#3F484B" stroke-miterlimit="10"/>
<path d="M126.304 83.8359L105.396 96.6068L84.3763 83.8912" fill="url(#paint15_linear_43_171)"/>
<path d="M126.304 83.8359L105.396 96.6068L84.3763 83.8912" stroke="#3F484B" stroke-miterlimit="10"/>
<path d="M105.368 106.005V96.6484" stroke="#3F484B" stroke-miterlimit="10"/>
<path d="M47.5242 88.3633C47.329 88.5586 47.329 88.8752 47.5242 89.0704L50.7062 92.2524C50.9015 92.4477 51.2181 92.4477 51.4133 92.2524C51.6086 92.0571 51.6086 91.7406 51.4133 91.5453L48.5849 88.7169L51.4133 85.8884C51.6086 85.6932 51.6086 85.3766 51.4133 85.1813C51.2181 84.9861 50.9015 84.9861 50.7062 85.1813L47.5242 88.3633ZM76.6256 89.0704C76.8209 88.8752 76.8209 88.5586 76.6256 88.3633L73.4436 85.1813C73.2484 84.9861 72.9318 84.9861 72.7365 85.1813C72.5413 85.3766 72.5413 85.6932 72.7365 85.8884L75.565 88.7169L72.7365 91.5453C72.5413 91.7406 72.5413 92.0571 72.7365 92.2524C72.9318 92.4477 73.2484 92.4477 73.4436 92.2524L76.6256 89.0704ZM47.8778 89.2169H76.2721V88.2169H47.8778V89.2169Z" fill="#606C71"/>
<path d="M134.119 88.3633C133.924 88.5586 133.924 88.8752 134.119 89.0704L137.301 92.2524C137.496 92.4477 137.813 92.4477 138.008 92.2524C138.204 92.0571 138.204 91.7406 138.008 91.5453L135.18 88.7169L138.008 85.8884C138.204 85.6932 138.204 85.3766 138.008 85.1813C137.813 84.9861 137.496 84.9861 137.301 85.1813L134.119 88.3633ZM163.221 89.0704C163.416 88.8752 163.416 88.5586 163.221 88.3633L160.039 85.1813C159.843 84.9861 159.527 84.9861 159.332 85.1813C159.136 85.3766 159.136 85.6932 159.332 85.8884L162.16 88.7169L159.332 91.5453C159.136 91.7406 159.136 92.0571 159.332 92.2524C159.527 92.4477 159.843 92.4477 160.039 92.2524L163.221 89.0704ZM134.473 89.2169H162.867V88.2169H134.473V89.2169Z" fill="#606C71"/>
<path d="M49.7379 64.5675C49.7379 64.8437 49.9617 65.0676 50.2379 65.0675L54.7379 65.0676C55.014 65.0676 55.2379 64.8437 55.2379 64.5675C55.2379 64.2914 55.014 64.0675 54.7379 64.0675L50.7379 64.0676V60.0676C50.7379 59.7914 50.514 59.5676 50.2379 59.5676C49.9617 59.5676 49.7379 59.7914 49.7379 60.0676V64.5675ZM74.4118 40.8936C74.4118 40.6175 74.188 40.3936 73.9118 40.3936H69.4118C69.1357 40.3936 68.9118 40.6175 68.9118 40.8936C68.9118 41.1698 69.1357 41.3936 69.4118 41.3936H73.4118V45.3936C73.4118 45.6698 73.6357 45.8936 73.9118 45.8936C74.188 45.8936 74.4118 45.6698 74.4118 45.3936V40.8936ZM50.5914 64.9211L74.2654 41.2472L73.5583 40.5401L49.8843 64.214L50.5914 64.9211Z" fill="#606C71"/>
<path d="M137.38 40.6348C137.104 40.6348 136.88 40.8587 136.88 41.1348V45.6348C136.88 45.911 137.104 46.1348 137.38 46.1348C137.656 46.1348 137.88 45.911 137.88 45.6348V41.6348H141.88C142.156 41.6348 142.38 41.411 142.38 41.1348C142.38 40.8587 142.156 40.6348 141.88 40.6348H137.38ZM159.958 64.2128C160.234 64.2128 160.458 63.9889 160.458 63.7128V59.2128C160.458 58.9366 160.234 58.7128 159.958 58.7128C159.682 58.7128 159.458 58.9366 159.458 59.2128V63.2128H155.458C155.182 63.2128 154.958 63.4366 154.958 63.7128C154.958 63.9889 155.182 64.2128 155.458 64.2128H159.958ZM137.026 41.4884L159.604 64.0663L160.311 63.3592L137.734 40.7813L137.026 41.4884Z" fill="#606C71"/>
<defs>
<linearGradient id="paint0_linear_43_171" x1="209.741" y1="65.387" x2="166.592" y2="61.4935" gradientUnits="userSpaceOnUse">
<stop stop-color="#53C1FF"/>
<stop offset="1" stop-color="#0053D0"/>
</linearGradient>
<linearGradient id="paint1_linear_43_171" x1="204.966" y1="70.0517" x2="170.995" y2="66.5185" gradientUnits="userSpaceOnUse">
<stop stop-color="#53C1FF"/>
<stop offset="1" stop-color="#0053D0"/>
</linearGradient>
<linearGradient id="paint2_linear_43_171" x1="30.6047" y1="57.37" x2="-8.71109" y2="75.5731" gradientUnits="userSpaceOnUse">
<stop stop-color="#53C1FF"/>
<stop offset="1" stop-color="#0053D0"/>
</linearGradient>
<linearGradient id="paint3_linear_43_171" x1="28.8012" y1="63.7974" x2="-2.38499" y2="77.7231" gradientUnits="userSpaceOnUse">
<stop stop-color="#53C1FF"/>
<stop offset="1" stop-color="#0053D0"/>
</linearGradient>
<linearGradient id="paint4_linear_43_171" x1="126.12" y1="14.8593" x2="77.644" y2="34.9697" gradientUnits="userSpaceOnUse">
<stop stop-color="#FDFF97"/>
<stop offset="1" stop-color="#F1DA09"/>
</linearGradient>
<linearGradient id="paint5_linear_43_171" x1="126.066" y1="14.9423" x2="77.5888" y2="35.0527" gradientUnits="userSpaceOnUse">
<stop stop-color="#FDFF97"/>
<stop offset="1" stop-color="#F1DA09"/>
</linearGradient>
<linearGradient id="paint6_linear_43_171" x1="125.688" y1="27.6748" x2="100.823" y2="55.5349" gradientUnits="userSpaceOnUse">
<stop stop-color="#FDFF97"/>
<stop offset="1" stop-color="#F1DA09"/>
</linearGradient>
<linearGradient id="paint7_linear_43_171" x1="126.12" y1="0.930658" x2="77.644" y2="21.041" gradientUnits="userSpaceOnUse">
<stop stop-color="#FDFF97"/>
<stop offset="1" stop-color="#F1DA09"/>
</linearGradient>
<linearGradient id="paint8_linear_43_171" x1="126.066" y1="0.999995" x2="77.5888" y2="21.1103" gradientUnits="userSpaceOnUse">
<stop stop-color="#FDFF97"/>
<stop offset="1" stop-color="#F1DA09"/>
</linearGradient>
<linearGradient id="paint9_linear_43_171" x1="125.688" y1="13.7324" x2="100.823" y2="41.5925" gradientUnits="userSpaceOnUse">
<stop stop-color="#FDFF97"/>
<stop offset="1" stop-color="#F1DA09"/>
</linearGradient>
<linearGradient id="paint10_linear_43_171" x1="126.12" y1="84.963" x2="77.644" y2="105.073" gradientUnits="userSpaceOnUse">
<stop stop-color="#FDFF97"/>
<stop offset="1" stop-color="#F1DA09"/>
</linearGradient>
<linearGradient id="paint11_linear_43_171" x1="126.066" y1="85.0459" x2="77.5888" y2="105.156" gradientUnits="userSpaceOnUse">
<stop stop-color="#FDFF97"/>
<stop offset="1" stop-color="#F1DA09"/>
</linearGradient>
<linearGradient id="paint12_linear_43_171" x1="125.688" y1="97.7783" x2="100.823" y2="125.638" gradientUnits="userSpaceOnUse">
<stop stop-color="#FDFF97"/>
<stop offset="1" stop-color="#F1DA09"/>
</linearGradient>
<linearGradient id="paint13_linear_43_171" x1="126.12" y1="71.0342" x2="77.644" y2="91.1446" gradientUnits="userSpaceOnUse">
<stop stop-color="#FDFF97"/>
<stop offset="1" stop-color="#F1DA09"/>
</linearGradient>
<linearGradient id="paint14_linear_43_171" x1="126.066" y1="71.1035" x2="77.5888" y2="91.2138" gradientUnits="userSpaceOnUse">
<stop stop-color="#FDFF97"/>
<stop offset="1" stop-color="#F1DA09"/>
</linearGradient>
<linearGradient id="paint15_linear_43_171" x1="125.688" y1="83.8359" x2="100.823" y2="111.696" gradientUnits="userSpaceOnUse">
<stop stop-color="#FDFF97"/>
<stop offset="1" stop-color="#F1DA09"/>
</linearGradient>
</defs>
</svg>
