<svg width="201" height="122" viewBox="0 0 201 122" fill="none" xmlns="http://www.w3.org/2000/svg">
<rect x="170.303" y="55.0801" width="30.1664" height="60.3002" rx="4.5" transform="rotate(15 170.303 55.0801)" stroke="#70F0F9"/>
<rect x="172.106" y="61.1993" width="23.5133" height="51.4521" rx="2.5" transform="rotate(15 172.106 61.1993)" stroke="#70F0F9"/>
<rect x="0.961982" y="62.8877" width="30.1664" height="60.3002" rx="4.5" transform="rotate(-15 0.961982 62.8877)" stroke="#70F0F9"/>
<rect x="5.58308" y="67.2852" width="23.5133" height="51.4521" rx="2.5" transform="rotate(-15 5.58308 67.2852)" stroke="#70F0F9"/>
<path d="M81.3408 25.9759L81.3408 25.9759L99.9934 14.5852C99.9934 14.5852 99.9934 14.5852 99.9934 14.5852C100.291 14.4036 100.664 14.4039 100.961 14.5859C100.961 14.5859 100.961 14.5859 100.961 14.5859L119.721 26.0801L119.959 25.691L119.721 26.0801C119.997 26.2493 120.166 26.5507 120.166 26.876V34.4307C120.166 34.7598 119.993 35.0642 119.712 35.2321L119.947 35.6257L119.712 35.2322L100.919 46.4491C100.62 46.6276 100.247 46.6236 99.9514 46.4386L81.3317 34.7703C81.06 34.6001 80.8945 34.3013 80.8945 33.9794V26.7725C80.8945 26.4467 81.0639 26.145 81.3408 25.9759Z" fill="url(#paint0_linear_757_8984)" stroke="#3F484B"/>
<path d="M99.6781 14.2386L81.0255 25.6293C80.5997 25.8893 80.3398 26.3529 80.3398 26.8526V34.0595C80.3398 34.5533 80.5936 35.0123 81.0115 35.2741L99.6312 46.9424C100.085 47.227 100.66 47.2333 101.121 46.9585L119.913 35.7416C120.346 35.4833 120.611 35.0156 120.611 34.5108V26.9561C120.611 26.4571 120.352 25.9941 119.927 25.7338L101.168 14.2397C100.711 13.9596 100.136 13.9591 99.6781 14.2386Z" fill="url(#paint1_linear_757_8984)" stroke="#3F484B" stroke-miterlimit="10"/>
<path d="M120.246 26.1006L100.425 38.2078L80.498 26.153" fill="url(#paint2_linear_757_8984)"/>
<path d="M120.246 26.1006L100.425 38.2078L80.498 26.153" stroke="#3F484B" stroke-miterlimit="10"/>
<path d="M100.396 47.1188V38.248" stroke="#3F484B" stroke-miterlimit="10"/>
<path d="M81.3408 12.7718L81.3408 12.7718L99.9934 1.38108C99.9934 1.38108 99.9934 1.38107 99.9934 1.38107C100.291 1.19954 100.664 1.19982 100.961 1.38179C100.961 1.38179 100.961 1.38179 100.961 1.3818L119.721 12.876L119.959 12.4869L119.721 12.876C119.997 13.0452 120.166 13.3466 120.166 13.6719V21.2266C120.166 21.5557 119.993 21.8601 119.712 22.028L119.947 22.4216L119.712 22.0281L100.919 33.245C100.62 33.4235 100.247 33.4195 99.9514 33.2345L81.3317 21.5662C81.06 21.396 80.8945 21.0972 80.8945 20.7753V13.5684C80.8945 13.2426 81.0639 12.9409 81.3408 12.7718Z" fill="url(#paint3_linear_757_8984)" stroke="#3F484B"/>
<path d="M99.6781 1.02077L81.0255 12.4115C80.5997 12.6715 80.3398 13.1351 80.3398 13.6348V20.8417C80.3398 21.3355 80.5936 21.7945 81.0115 22.0563L99.6312 33.7246C100.085 34.0092 100.66 34.0155 101.121 33.7408L119.913 22.5238C120.346 22.2655 120.611 21.7978 120.611 21.293V13.7383C120.611 13.2394 120.352 12.7763 119.927 12.5161L101.168 1.02187C100.711 0.741789 100.136 0.741396 99.6781 1.02077Z" fill="url(#paint4_linear_757_8984)" stroke="#3F484B" stroke-miterlimit="10"/>
<path d="M120.246 12.8818L100.425 24.9891L80.498 12.9342" fill="url(#paint5_linear_757_8984)"/>
<path d="M120.246 12.8818L100.425 24.9891L80.498 12.9342" stroke="#3F484B" stroke-miterlimit="10"/>
<path d="M100.396 33.9001V25.0293" stroke="#3F484B" stroke-miterlimit="10"/>
<path d="M81.3408 92.4388L81.3408 92.4388L99.9934 81.0481C99.9934 81.0481 99.9934 81.0481 99.9934 81.0481C100.291 80.8665 100.664 80.8668 100.961 81.0488C100.961 81.0488 100.961 81.0488 100.961 81.0488L119.721 92.543L119.959 92.1539L119.721 92.543C119.997 92.7122 120.166 93.0136 120.166 93.3389V100.894C120.166 101.223 119.993 101.527 119.712 101.695L119.947 102.089L119.712 101.695L100.919 112.912C100.62 113.091 100.247 113.086 99.9514 112.901L81.3317 101.233C81.06 101.063 80.8945 100.764 80.8945 100.442V93.2354C80.8945 92.9096 81.0639 92.6078 81.3408 92.4388Z" fill="url(#paint6_linear_757_8984)" stroke="#3F484B"/>
<path d="M99.6781 80.6985L81.0255 92.0892C80.5997 92.3493 80.3398 92.8129 80.3398 93.3126V100.519C80.3398 101.013 80.5936 101.472 81.0115 101.734L99.6312 113.402C100.085 113.687 100.66 113.693 101.121 113.419L119.913 102.202C120.346 101.943 120.611 101.476 120.611 100.971V93.416C120.611 92.9171 120.352 92.454 119.927 92.1938L101.168 80.6996C100.711 80.4195 100.136 80.4191 99.6781 80.6985Z" fill="url(#paint7_linear_757_8984)" stroke="#3F484B" stroke-miterlimit="10"/>
<path d="M120.246 92.5596L100.425 104.667L80.498 92.612" fill="url(#paint8_linear_757_8984)"/>
<path d="M120.246 92.5596L100.425 104.667L80.498 92.612" stroke="#3F484B" stroke-miterlimit="10"/>
<path d="M100.396 113.578V104.707" stroke="#3F484B" stroke-miterlimit="10"/>
<path d="M81.3408 79.2337L81.3408 79.2337L99.9934 67.843C99.9934 67.843 99.9934 67.843 99.9934 67.843C100.291 67.6615 100.664 67.6617 100.961 67.8437C100.961 67.8437 100.961 67.8437 100.961 67.8437L119.721 79.3379L119.959 78.9488L119.721 79.3379C119.997 79.5071 120.166 79.8085 120.166 80.1338V87.6885C120.166 88.0177 119.993 88.322 119.712 88.49L119.947 88.8835L119.712 88.49L100.919 99.7069C100.62 99.8854 100.247 99.8814 99.9514 99.6964L81.3317 88.0282C81.06 87.8579 80.8945 87.5592 80.8945 87.2372V80.0303C80.8945 79.7045 81.0639 79.4028 81.3408 79.2337Z" fill="url(#paint9_linear_757_8984)" stroke="#3F484B"/>
<path d="M99.6781 67.4807L81.0255 78.8715C80.5997 79.1315 80.3398 79.5951 80.3398 80.0948V87.3016C80.3398 87.7955 80.5936 88.2545 81.0115 88.5163L99.6312 100.185C100.085 100.469 100.66 100.475 101.121 100.201L119.913 88.9838C120.346 88.7254 120.611 88.2578 120.611 87.753V80.1983C120.611 79.6993 120.352 79.2363 119.927 78.976L101.168 67.4818C100.711 67.2018 100.136 67.2014 99.6781 67.4807Z" fill="url(#paint10_linear_757_8984)" stroke="#3F484B" stroke-miterlimit="10"/>
<path d="M120.246 79.3408L100.425 91.448L80.498 79.3932" fill="url(#paint11_linear_757_8984)"/>
<path d="M120.246 79.3408L100.425 91.448L80.498 79.3932" stroke="#3F484B" stroke-miterlimit="10"/>
<path d="M100.396 100.36V91.4893" stroke="#3F484B" stroke-miterlimit="10"/>
<path d="M45.9668 84.1113C45.7715 84.3066 45.7715 84.6231 45.9668 84.8184L49.1487 88.0004C49.344 88.1956 49.6606 88.1956 49.8558 88.0004C50.0511 87.8051 50.0511 87.4885 49.8558 87.2933L47.0274 84.4648L49.8558 81.6364C50.0511 81.4412 50.0511 81.1246 49.8558 80.9293C49.6606 80.734 49.344 80.734 49.1487 80.9293L45.9668 84.1113ZM46.3203 84.9648L73.2389 84.9648L73.2389 83.9648L46.3203 83.9648L46.3203 84.9648Z" fill="#70F0F9"/>
<path d="M128.061 84.1113C127.865 84.3066 127.865 84.6231 128.061 84.8184L131.242 88.0004C131.438 88.1956 131.754 88.1956 131.95 88.0004C132.145 87.8051 132.145 87.4885 131.95 87.2933L129.121 84.4648L131.95 81.6364C132.145 81.4412 132.145 81.1246 131.95 80.9293C131.754 80.734 131.438 80.734 131.242 80.9293L128.061 84.1113ZM128.414 84.9648L155.333 84.9648L155.333 83.9648L128.414 83.9648L128.414 84.9648Z" fill="#70F0F9"/>
<path d="M71.5002 39.1277C71.5002 38.8516 71.2764 38.6277 71.0002 38.6277L66.5002 38.6277C66.2241 38.6277 66.0002 38.8516 66.0002 39.1277C66.0002 39.4038 66.2241 39.6277 66.5002 39.6277H70.5002V43.6277C70.5002 43.9038 70.7241 44.1277 71.0002 44.1277C71.2764 44.1277 71.5002 43.9038 71.5002 43.6277L71.5002 39.1277ZM48.9102 61.9248L71.3538 39.4813L70.6467 38.7741L48.2031 61.2177L48.9102 61.9248Z" fill="#70F0F9"/>
<path d="M152.574 61.261C152.851 61.261 153.074 61.0371 153.074 60.761V56.261C153.074 55.9848 152.851 55.761 152.574 55.761C152.298 55.761 152.074 55.9848 152.074 56.261V60.261H148.074C147.798 60.261 147.574 60.4848 147.574 60.761C147.574 61.0371 147.798 61.261 148.074 61.261H152.574ZM130.816 39.71L152.221 61.1145L152.928 60.4074L131.523 39.0029L130.816 39.71Z" fill="#70F0F9"/>
<defs>
<linearGradient id="paint0_linear_757_8984" x1="120.074" y1="13.9492" x2="74.1167" y2="33.0144" gradientUnits="userSpaceOnUse">
<stop stop-color="#FDFF97"/>
<stop offset="1" stop-color="#F1DA09"/>
</linearGradient>
<linearGradient id="paint1_linear_757_8984" x1="120.019" y1="14.0293" x2="74.062" y2="33.0945" gradientUnits="userSpaceOnUse">
<stop stop-color="#FDFF97"/>
<stop offset="1" stop-color="#F1DA09"/>
</linearGradient>
<linearGradient id="paint2_linear_757_8984" x1="119.662" y1="26.1006" x2="96.0895" y2="52.5128" gradientUnits="userSpaceOnUse">
<stop stop-color="#FDFF97"/>
<stop offset="1" stop-color="#F1DA09"/>
</linearGradient>
<linearGradient id="paint3_linear_757_8984" x1="120.074" y1="0.74511" x2="74.1167" y2="19.8103" gradientUnits="userSpaceOnUse">
<stop stop-color="#FDFF97"/>
<stop offset="1" stop-color="#F1DA09"/>
</linearGradient>
<linearGradient id="paint4_linear_757_8984" x1="120.019" y1="0.811517" x2="74.062" y2="19.8767" gradientUnits="userSpaceOnUse">
<stop stop-color="#FDFF97"/>
<stop offset="1" stop-color="#F1DA09"/>
</linearGradient>
<linearGradient id="paint5_linear_757_8984" x1="119.662" y1="12.8818" x2="96.0895" y2="39.2941" gradientUnits="userSpaceOnUse">
<stop stop-color="#FDFF97"/>
<stop offset="1" stop-color="#F1DA09"/>
</linearGradient>
<linearGradient id="paint6_linear_757_8984" x1="120.074" y1="80.4121" x2="74.1167" y2="99.4773" gradientUnits="userSpaceOnUse">
<stop stop-color="#FDFF97"/>
<stop offset="1" stop-color="#F1DA09"/>
</linearGradient>
<linearGradient id="paint7_linear_757_8984" x1="120.019" y1="80.4893" x2="74.062" y2="99.5545" gradientUnits="userSpaceOnUse">
<stop stop-color="#FDFF97"/>
<stop offset="1" stop-color="#F1DA09"/>
</linearGradient>
<linearGradient id="paint8_linear_757_8984" x1="119.662" y1="92.5596" x2="96.0895" y2="118.972" gradientUnits="userSpaceOnUse">
<stop stop-color="#FDFF97"/>
<stop offset="1" stop-color="#F1DA09"/>
</linearGradient>
<linearGradient id="paint9_linear_757_8984" x1="120.074" y1="67.207" x2="74.1167" y2="86.2722" gradientUnits="userSpaceOnUse">
<stop stop-color="#FDFF97"/>
<stop offset="1" stop-color="#F1DA09"/>
</linearGradient>
<linearGradient id="paint10_linear_757_8984" x1="120.019" y1="67.2715" x2="74.062" y2="86.3367" gradientUnits="userSpaceOnUse">
<stop stop-color="#FDFF97"/>
<stop offset="1" stop-color="#F1DA09"/>
</linearGradient>
<linearGradient id="paint11_linear_757_8984" x1="119.662" y1="79.3408" x2="96.0895" y2="105.753" gradientUnits="userSpaceOnUse">
<stop stop-color="#FDFF97"/>
<stop offset="1" stop-color="#F1DA09"/>
</linearGradient>
</defs>
</svg>
