<svg width="225" height="215" viewBox="0 0 225 215" fill="none" xmlns="http://www.w3.org/2000/svg">
<path d="M198.726 7.61789L176.63 1.6974C174.23 1.05416 171.762 2.47879 171.119 4.87938L156.972 57.6775C156.329 60.0781 157.753 62.5456 160.154 63.1888L182.249 69.1093C184.65 69.7525 187.117 68.3279 187.761 65.9273L201.908 13.1292C202.551 10.7286 201.127 8.26112 198.726 7.61789Z" stroke="#70F0F9"/>
<path d="M195.781 12.7737L176.6 7.63435C175.267 7.277 173.896 8.06845 173.538 9.40212L160.772 57.0487C160.414 58.3824 161.206 59.7532 162.539 60.1106L181.72 65.25C183.054 65.6073 184.424 64.8159 184.782 63.4822L197.549 15.8356C197.906 14.5019 197.115 13.1311 195.781 12.7737Z" stroke="#70F0F9"/>
<path d="M34.4361 1.58463L13.0262 9.63955C10.7001 10.5147 9.52389 13.1098 10.399 15.4359L29.6465 66.5956C30.5217 68.9217 33.1168 70.0979 35.4429 69.2228L56.8528 61.1679C59.1789 60.2928 60.3551 57.6976 59.48 55.3715L40.2325 4.21184C39.3574 1.88574 36.7622 0.709494 34.4361 1.58463Z" stroke="#70F0F9"/>
<path d="M35.0463 7.49024L16.461 14.4825C15.1687 14.9687 14.5152 16.4104 15.0014 17.7027L32.371 63.8708C32.8571 65.163 34.2989 65.8165 35.5911 65.3303L54.1764 58.3381C55.4687 57.8519 56.1222 56.4102 55.636 55.1179L38.2665 8.9498C37.7803 7.65752 36.3385 7.00406 35.0463 7.49024Z" stroke="#70F0F9"/>
<path d="M136.437 175.116H79.4375C73.9147 175.116 69.4375 179.593 69.4375 185.116V204.034C69.4375 209.557 73.9147 214.034 79.4375 214.034H136.437C141.96 214.034 146.437 209.557 146.437 204.034V185.116C146.437 179.593 141.96 175.116 136.437 175.116Z" fill="url(#paint0_linear_54_407)"/>
<path d="M102.747 196.801C102.747 196.474 102.671 196.198 102.52 195.974C102.373 195.749 102.183 195.561 101.949 195.41C101.714 195.253 101.456 195.124 101.172 195.021C100.894 194.919 100.625 194.826 100.367 194.743C99.9909 194.621 99.6069 194.475 99.2169 194.304C98.8309 194.133 98.4769 193.923 98.1549 193.674C97.8369 193.425 97.5759 193.132 97.3709 192.795C97.1709 192.453 97.0709 192.053 97.0709 191.594C97.0709 191.135 97.1709 190.725 97.3709 190.363C97.5759 190.002 97.8419 189.697 98.1689 189.448C98.4969 189.199 98.8679 189.011 99.2829 188.884C99.6979 188.752 100.115 188.686 100.535 188.686C100.999 188.686 101.446 188.764 101.875 188.92C102.305 189.072 102.686 189.287 103.018 189.565C103.35 189.843 103.616 190.18 103.816 190.576C104.017 190.971 104.122 191.413 104.131 191.901H102.74C102.701 191.594 102.625 191.315 102.513 191.066C102.4 190.812 102.251 190.595 102.066 190.415C101.88 190.234 101.658 190.095 101.399 189.997C101.145 189.894 100.857 189.843 100.535 189.843C100.276 189.843 100.022 189.88 99.7729 189.953C99.5289 190.026 99.3099 190.136 99.1139 190.283C98.9239 190.429 98.7699 190.61 98.6529 190.825C98.5399 191.04 98.4839 191.289 98.4839 191.572C98.4889 191.879 98.5669 192.141 98.7189 192.355C98.8699 192.565 99.0609 192.744 99.2899 192.89C99.5239 193.037 99.7759 193.159 100.044 193.256C100.318 193.354 100.574 193.439 100.813 193.513C101.077 193.596 101.343 193.691 101.612 193.798C101.88 193.901 102.139 194.02 102.388 194.157C102.637 194.294 102.869 194.448 103.084 194.619C103.299 194.79 103.487 194.985 103.648 195.205C103.809 195.419 103.934 195.659 104.021 195.922C104.114 196.181 104.161 196.469 104.161 196.787C104.161 197.265 104.053 197.683 103.838 198.039C103.628 198.395 103.355 198.693 103.018 198.933C102.681 199.167 102.3 199.345 101.875 199.467C101.451 199.584 101.026 199.643 100.601 199.643C100.127 199.643 99.6639 199.57 99.2089 199.423C98.7549 199.277 98.3479 199.067 97.9859 198.793C97.6299 198.515 97.3389 198.178 97.1149 197.783C96.8899 197.382 96.7699 196.928 96.7559 196.42H98.1399C98.1839 196.752 98.2739 197.048 98.4109 197.307C98.5479 197.561 98.7239 197.778 98.9379 197.958C99.1529 198.134 99.3999 198.269 99.6779 198.361C99.9609 198.449 100.269 198.493 100.601 198.493C100.865 198.493 101.123 198.461 101.377 198.398C101.636 198.33 101.866 198.227 102.066 198.09C102.266 197.949 102.43 197.773 102.557 197.563C102.684 197.348 102.747 197.094 102.747 196.801ZM107.512 188.832L109.247 194.165L111.122 188.832H112.807V199.497H111.489V195.241L111.598 190.788L109.628 196.53H108.852L107.043 190.942L107.153 195.241V199.497H105.834V188.832H107.512ZM116.363 195.219V199.497H115.008V188.832H118.465C118.944 188.842 119.395 188.918 119.82 189.06C120.25 189.201 120.626 189.406 120.948 189.675C121.27 189.943 121.524 190.275 121.71 190.671C121.9 191.066 121.995 191.52 121.995 192.033C121.995 192.546 121.9 193 121.71 193.395C121.524 193.786 121.27 194.116 120.948 194.384C120.626 194.653 120.25 194.858 119.82 194.999C119.395 195.141 118.944 195.214 118.465 195.219H116.363ZM116.363 194.106H118.465C118.778 194.101 119.066 194.052 119.329 193.959C119.593 193.862 119.823 193.725 120.018 193.549C120.213 193.374 120.365 193.161 120.472 192.912C120.584 192.658 120.64 192.37 120.64 192.048C120.64 191.726 120.584 191.435 120.472 191.176C120.365 190.917 120.213 190.698 120.018 190.517C119.827 190.336 119.598 190.197 119.329 190.1C119.066 190.002 118.778 189.951 118.465 189.946H116.363V194.106Z" fill="white"/>
<path d="M6.9067 133.23C6.9067 133.909 6.8286 134.512 6.6723 135.04C6.5161 135.562 6.2915 136.004 5.9985 136.365C5.7055 136.722 5.3466 136.993 4.9218 137.178C4.497 137.364 4.0112 137.457 3.4643 137.457C2.9223 137.457 2.4365 137.364 2.0068 137.178C1.582 136.993 1.2207 136.722 0.922798 136.365C0.624998 136.004 0.395499 135.562 0.234299 135.04C0.0780987 134.512 0 133.909 0 133.23V130.733C0 130.054 0.0780987 129.454 0.234299 128.931C0.390599 128.404 0.615199 127.959 0.908199 127.598C1.206 127.237 1.5673 126.963 1.9921 126.778C2.4218 126.587 2.9077 126.492 3.4497 126.492C3.9965 126.492 4.4824 126.587 4.9072 126.778C5.3369 126.963 5.6982 127.237 5.9912 127.598C6.289 127.959 6.5161 128.404 6.6723 128.931C6.8286 129.454 6.9067 130.054 6.9067 130.733V133.23ZM1.3623 132.959L5.5151 129.773C5.437 129.065 5.2294 128.528 4.8925 128.162C4.5605 127.791 4.0795 127.605 3.4497 127.605C2.7368 127.605 2.2094 127.847 1.8676 128.331C1.5307 128.809 1.3623 129.51 1.3623 130.433V132.959ZM5.5444 131.07L1.3989 134.241C1.4819 134.93 1.6943 135.455 2.0361 135.816C2.3779 136.177 2.854 136.358 3.4643 136.358C4.1821 136.358 4.707 136.114 5.039 135.625C5.3759 135.137 5.5444 134.434 5.5444 133.516V131.07ZM12.5062 136.995C12.5062 137.225 12.4769 137.464 12.4183 137.713C12.3646 137.967 12.2816 138.216 12.1693 138.46C12.0619 138.709 11.93 138.946 11.7738 139.17C11.6175 139.395 11.4369 139.595 11.2318 139.771L10.3895 139.31C10.6239 138.968 10.7899 138.604 10.8876 138.218C10.9852 137.832 11.034 137.432 11.034 137.017V135.706H12.5062V136.995ZM31.1833 137.31H29.8283V128.374L27.0377 129.436V128.199L31.0734 126.646H31.1833V137.31ZM39.0826 136.995C39.0826 137.225 39.0533 137.464 38.9947 137.713C38.941 137.967 38.858 138.216 38.7457 138.46C38.6382 138.709 38.5064 138.946 38.3502 139.17C38.1939 139.395 38.0132 139.595 37.8082 139.771L36.9659 139.31C37.2002 138.968 37.3663 138.604 37.4639 138.218C37.5616 137.832 37.6104 137.432 37.6104 137.017V135.706H39.0826V136.995ZM59.9056 137.31H52.9183V136.336L56.412 132.454C56.7245 132.107 56.9857 131.8 57.1957 131.531C57.4056 131.263 57.5741 131.016 57.701 130.791C57.828 130.562 57.9183 130.347 57.972 130.147C58.0257 129.942 58.0526 129.732 58.0526 129.517C58.0526 129.253 58.0086 129.007 57.9208 128.777C57.8377 128.543 57.7132 128.34 57.5472 128.169C57.3861 127.998 57.1883 127.864 56.954 127.767C56.7245 127.664 56.4632 127.613 56.1703 127.613C55.8138 127.613 55.5038 127.664 55.2401 127.767C54.9813 127.869 54.764 128.016 54.5882 128.206C54.4173 128.392 54.2879 128.619 54.2001 128.887C54.117 129.156 54.0755 129.456 54.0755 129.788H52.7132C52.7132 129.339 52.7914 128.916 52.9476 128.521C53.1039 128.121 53.3285 127.771 53.6214 127.474C53.9193 127.176 54.2806 126.939 54.7054 126.763C55.1351 126.587 55.6234 126.499 56.1703 126.499C56.6732 126.499 57.1249 126.575 57.5252 126.727C57.9305 126.873 58.2723 127.078 58.5506 127.342C58.829 127.605 59.0414 127.918 59.1878 128.279C59.3392 128.641 59.4149 129.034 59.4149 129.458C59.4149 129.776 59.3612 130.091 59.2538 130.403C59.1463 130.711 58.9999 131.016 58.8143 131.319C58.6336 131.622 58.4212 131.922 58.1771 132.22C57.9378 132.513 57.6839 132.806 57.4154 133.099L54.5516 136.204H59.9056V137.31ZM65.6586 136.995C65.6586 137.225 65.6296 137.464 65.5706 137.713C65.5176 137.967 65.4346 138.216 65.3216 138.46C65.2146 138.709 65.0826 138.946 64.9266 139.17C64.7706 139.395 64.5896 139.595 64.3846 139.771L63.5426 139.31C63.7766 138.968 63.9426 138.604 64.0406 138.218C64.1376 137.832 64.1866 137.432 64.1866 137.017V135.706H65.6586V136.995ZM81.5236 131.326H82.4906C82.8316 131.326 83.1326 131.28 83.3916 131.187C83.6546 131.094 83.8746 130.967 84.0506 130.806C84.2306 130.645 84.3676 130.452 84.4606 130.228C84.5536 130.003 84.5996 129.756 84.5996 129.488C84.5996 128.868 84.4406 128.401 84.1236 128.089C83.8066 127.771 83.3426 127.613 82.7316 127.613C82.4436 127.613 82.1806 127.657 81.9406 127.745C81.7066 127.828 81.5036 127.95 81.3326 128.111C81.1666 128.272 81.0376 128.465 80.9446 128.689C80.8526 128.914 80.8056 129.165 80.8056 129.444H79.4436C79.4436 129.039 79.5216 128.658 79.6776 128.301C79.8386 127.94 80.0636 127.627 80.3516 127.364C80.6396 127.095 80.9836 126.885 81.3846 126.734C81.7896 126.578 82.2386 126.499 82.7316 126.499C83.2106 126.499 83.6476 126.565 84.0426 126.697C84.4386 126.824 84.7776 127.015 85.0606 127.269C85.3446 127.522 85.5636 127.837 85.7206 128.213C85.8766 128.589 85.9546 129.024 85.9546 129.517C85.9546 129.722 85.9226 129.935 85.8596 130.154C85.7956 130.374 85.6986 130.589 85.5666 130.799C85.4346 131.004 85.2636 131.199 85.0536 131.385C84.8486 131.565 84.6026 131.717 84.3136 131.839C84.6606 131.951 84.9486 132.098 85.1786 132.278C85.4126 132.459 85.5986 132.662 85.7346 132.886C85.8766 133.111 85.9746 133.348 86.0276 133.597C86.0866 133.846 86.1156 134.092 86.1156 134.336C86.1156 134.834 86.0306 135.276 85.8596 135.662C85.6886 136.048 85.4516 136.375 85.1486 136.644C84.8466 136.907 84.4876 137.11 84.0726 137.251C83.6626 137.388 83.2176 137.457 82.7396 137.457C82.2706 137.457 81.8286 137.391 81.4136 137.259C81.0036 137.127 80.6466 136.934 80.3446 136.68C80.0416 136.426 79.7996 136.116 79.6196 135.75C79.4436 135.384 79.3556 134.966 79.3556 134.498H80.7106C80.7106 134.776 80.7566 135.03 80.8496 135.259C80.9476 135.489 81.0836 135.684 81.2596 135.845C81.4356 136.006 81.6476 136.131 81.8966 136.219C82.1506 136.307 82.4316 136.351 82.7396 136.351C83.0466 136.351 83.3256 136.311 83.5746 136.233C83.8236 136.15 84.0356 136.026 84.2116 135.86C84.3876 135.694 84.5216 135.489 84.6146 135.245C84.7116 134.996 84.7606 134.703 84.7606 134.366C84.7606 134.034 84.7046 133.748 84.5926 133.509C84.4846 133.265 84.3316 133.062 84.1306 132.901C83.9356 132.74 83.6966 132.62 83.4136 132.542C83.1346 132.464 82.8276 132.425 82.4906 132.425H81.5236V131.326Z" fill="white"/>
<path d="M144.378 137.31H137.391V136.336L140.885 132.454C141.197 132.107 141.458 131.8 141.668 131.531C141.878 131.263 142.047 131.016 142.174 130.791C142.301 130.562 142.391 130.347 142.445 130.147C142.498 129.942 142.525 129.732 142.525 129.517C142.525 129.253 142.481 129.007 142.393 128.777C142.31 128.543 142.186 128.34 142.02 128.169C141.859 127.998 141.661 127.864 141.427 127.767C141.197 127.664 140.936 127.613 140.643 127.613C140.286 127.613 139.976 127.664 139.713 127.767C139.454 127.869 139.237 128.016 139.061 128.206C138.89 128.392 138.761 128.619 138.673 128.887C138.59 129.156 138.548 129.456 138.548 129.788H137.186C137.186 129.339 137.264 128.916 137.42 128.521C137.577 128.121 137.801 127.771 138.094 127.474C138.392 127.176 138.753 126.939 139.178 126.763C139.608 126.587 140.096 126.499 140.643 126.499C141.146 126.499 141.598 126.575 141.998 126.727C142.403 126.873 142.745 127.078 143.023 127.342C143.302 127.605 143.514 127.918 143.661 128.279C143.812 128.641 143.888 129.034 143.888 129.458C143.888 129.776 143.834 130.091 143.726 130.403C143.619 130.711 143.473 131.016 143.287 131.319C143.106 131.622 142.894 131.922 142.65 132.22C142.411 132.513 142.157 132.806 141.888 133.099L139.024 136.204H144.378V137.31ZM150.132 136.995C150.132 137.225 150.102 137.464 150.044 137.713C149.99 137.967 149.907 138.216 149.795 138.46C149.687 138.709 149.555 138.946 149.399 139.17C149.243 139.395 149.062 139.595 148.857 139.771L148.015 139.31C148.249 138.968 148.415 138.604 148.513 138.218C148.611 137.832 148.659 137.432 148.659 137.017V135.706H150.132V136.995ZM168.809 137.31H167.454V128.374L164.663 129.436V128.199L168.699 126.646H168.809V137.31ZM176.708 136.995C176.708 137.225 176.679 137.464 176.62 137.713C176.566 137.967 176.483 138.216 176.371 138.46C176.264 138.709 176.132 138.946 175.976 139.17C175.819 139.395 175.639 139.595 175.434 139.771L174.591 139.31C174.826 138.968 174.992 138.604 175.089 138.218C175.187 137.832 175.236 137.432 175.236 137.017V135.706H176.708V136.995ZM192.573 131.326H193.539C193.881 131.326 194.181 131.28 194.44 131.187C194.704 131.094 194.924 130.967 195.099 130.806C195.28 130.645 195.417 130.452 195.51 130.228C195.602 130.003 195.649 129.756 195.649 129.488C195.649 128.868 195.49 128.401 195.173 128.089C194.855 127.771 194.391 127.613 193.781 127.613C193.493 127.613 193.229 127.657 192.99 127.745C192.756 127.828 192.553 127.95 192.382 128.111C192.216 128.272 192.087 128.465 191.994 128.689C191.901 128.914 191.855 129.165 191.855 129.444H190.492C190.492 129.039 190.571 128.658 190.727 128.301C190.888 127.94 191.113 127.627 191.401 127.364C191.689 127.095 192.033 126.885 192.433 126.734C192.839 126.578 193.288 126.499 193.781 126.499C194.26 126.499 194.697 126.565 195.092 126.697C195.488 126.824 195.827 127.015 196.11 127.269C196.393 127.522 196.613 127.837 196.769 128.213C196.926 128.589 197.004 129.024 197.004 129.517C197.004 129.722 196.972 129.935 196.908 130.154C196.845 130.374 196.747 130.589 196.615 130.799C196.484 131.004 196.313 131.199 196.103 131.385C195.898 131.565 195.651 131.717 195.363 131.839C195.71 131.951 195.998 132.098 196.227 132.278C196.462 132.459 196.647 132.662 196.784 132.886C196.926 133.111 197.023 133.348 197.077 133.597C197.136 133.846 197.165 134.092 197.165 134.336C197.165 134.834 197.079 135.276 196.908 135.662C196.738 136.048 196.501 136.375 196.198 136.644C195.895 136.907 195.536 137.11 195.121 137.251C194.711 137.388 194.267 137.457 193.788 137.457C193.32 137.457 192.878 137.391 192.463 137.259C192.053 137.127 191.696 136.934 191.393 136.68C191.091 136.426 190.849 136.116 190.668 135.75C190.492 135.384 190.405 134.966 190.405 134.498H191.76C191.76 134.776 191.806 135.03 191.899 135.259C191.996 135.489 192.133 135.684 192.309 135.845C192.485 136.006 192.697 136.131 192.946 136.219C193.2 136.307 193.481 136.351 193.788 136.351C194.096 136.351 194.374 136.311 194.623 136.233C194.872 136.15 195.085 136.026 195.261 135.86C195.436 135.694 195.571 135.489 195.663 135.245C195.761 134.996 195.81 134.703 195.81 134.366C195.81 134.034 195.754 133.748 195.641 133.509C195.534 133.265 195.38 133.062 195.18 132.901C194.985 132.74 194.745 132.62 194.462 132.542C194.184 132.464 193.876 132.425 193.539 132.425H192.573V131.326ZM203.284 136.995C203.284 137.225 203.255 137.464 203.196 137.713C203.143 137.967 203.06 138.216 202.947 138.46C202.84 138.709 202.708 138.946 202.552 139.17C202.396 139.395 202.215 139.595 202.01 139.771L201.168 139.31C201.402 138.968 201.568 138.604 201.666 138.218C201.763 137.832 201.812 137.432 201.812 137.017V135.706H203.284V136.995ZM224.261 133.23C224.261 133.909 224.183 134.512 224.027 135.04C223.871 135.562 223.646 136.004 223.353 136.365C223.06 136.722 222.701 136.993 222.276 137.178C221.852 137.364 221.366 137.457 220.819 137.457C220.277 137.457 219.791 137.364 219.361 137.178C218.936 136.993 218.575 136.722 218.277 136.365C217.979 136.004 217.75 135.562 217.589 135.04C217.433 134.512 217.354 133.909 217.354 133.23V130.733C217.354 130.054 217.433 129.454 217.589 128.931C217.745 128.404 217.97 127.959 218.263 127.598C218.561 127.237 218.922 126.963 219.347 126.778C219.776 126.587 220.262 126.492 220.804 126.492C221.351 126.492 221.837 126.587 222.262 126.778C222.691 126.963 223.053 127.237 223.346 127.598C223.644 127.959 223.871 128.404 224.027 128.931C224.183 129.454 224.261 130.054 224.261 130.733V133.23ZM218.717 132.959L222.87 129.773C222.791 129.065 222.584 128.528 222.247 128.162C221.915 127.791 221.434 127.605 220.804 127.605C220.091 127.605 219.564 127.847 219.222 128.331C218.885 128.809 218.717 129.51 218.717 130.433V132.959ZM222.899 131.07L218.753 134.241C218.836 134.93 219.049 135.455 219.391 135.816C219.732 136.177 220.208 136.358 220.819 136.358C221.537 136.358 222.061 136.114 222.394 135.625C222.73 135.137 222.899 134.434 222.899 133.516V131.07Z" fill="white"/>
<path d="M38.938 193.2H38.438V193.7H38.938V193.2ZM68.2917 193.554C68.4867 193.358 68.4867 193.042 68.2917 192.847L65.1097 189.665C64.9147 189.469 64.5977 189.469 64.4027 189.665C64.2077 189.86 64.2077 190.176 64.4027 190.372L67.2307 193.2L64.4027 196.029C64.2077 196.224 64.2077 196.54 64.4027 196.736C64.5977 196.931 64.9147 196.931 65.1097 196.736L68.2917 193.554ZM38.438 155.2V193.2H39.438V155.2H38.438ZM38.938 193.7H67.9377V192.7H38.938V193.7Z" fill="#70F0F9"/>
<path d="M39.2914 108.854C39.0961 109.049 38.7796 109.049 38.5843 108.854L35.4023 105.672C35.207 105.477 35.207 105.16 35.4023 104.965C35.5976 104.77 35.9142 104.77 36.1094 104.965L38.9378 107.793L41.7663 104.965C41.9615 104.77 42.2781 104.77 42.4734 104.965C42.6686 105.16 42.6686 105.477 42.4734 105.672L39.2914 108.854ZM38.4378 108.5V79.2H39.4378V108.5H38.4378Z" fill="#70F0F9"/>
<path d="M176.792 154.847C176.597 154.651 176.28 154.651 176.085 154.847L172.903 158.029C172.708 158.224 172.708 158.54 172.903 158.736C173.098 158.931 173.415 158.931 173.61 158.736L176.438 155.907L179.267 158.736C179.462 158.931 179.779 158.931 179.974 158.736C180.169 158.54 180.169 158.224 179.974 158.029L176.792 154.847ZM176.438 193.2V193.7H176.938V193.2H176.438ZM175.938 155.2V193.2H176.938V155.2H175.938ZM176.438 192.7H147.438V193.7H176.438V192.7Z" fill="#70F0F9"/>
<path d="M176.085 80.347C176.28 80.151 176.597 80.151 176.792 80.347L179.974 83.529C180.169 83.724 180.169 84.04 179.974 84.236C179.779 84.431 179.462 84.431 179.267 84.236L176.438 81.4069L173.61 84.236C173.415 84.431 173.098 84.431 172.903 84.236C172.708 84.04 172.708 83.724 172.903 83.529L176.085 80.347ZM175.938 109.7V80.7H176.938V109.7H175.938Z" fill="#70F0F9"/>
<defs>
<linearGradient id="paint0_linear_54_407" x1="145.305" y1="175.116" x2="74.5665" y2="222.882" gradientUnits="userSpaceOnUse">
<stop stop-color="#1BC4BF"/>
<stop offset="1" stop-color="#009F9B"/>
</linearGradient>
</defs>
</svg>
