<svg width="89" height="92" viewBox="0 0 89 92" fill="none" xmlns="http://www.w3.org/2000/svg">
<circle cx="42.4778" cy="49.894" r="41.5" fill="url(#paint0_linear_610_5181)"/>
<circle cx="43.1616" cy="42.7805" r="7.2541" fill="white"/>
<path fill-rule="evenodd" clip-rule="evenodd" d="M57.4941 63.2807H28.5308C30.5274 57.1923 36.2564 52.7954 43.0124 52.7954C49.7685 52.7954 55.4975 57.1923 57.4941 63.2807Z" fill="white"/>
<path d="M74.0926 0.583008C74.3071 0.583008 74.5215 0.583008 74.736 0.583008C74.7603 0.603483 74.7816 0.631373 74.8093 0.643413C78.9945 2.47489 83.1791 4.30807 87.367 6.13261C88.02 6.41709 88.3246 6.89387 88.319 7.64798C88.3025 9.85394 88.3097 12.0601 88.3141 14.2661C88.3176 16.0258 88.142 17.7667 87.7249 19.4677C85.9081 26.8754 81.6666 32.1155 75.0285 35.1974C74.6235 35.3854 74.2292 35.3887 73.8183 35.2041C69.0691 33.0714 65.4545 29.6216 63.015 24.8204C61.801 22.4314 61.03 19.8852 60.706 17.1925C60.6417 16.6574 60.5787 16.1222 60.5151 15.5871C60.5151 12.7583 60.5151 9.92944 60.5151 7.10066C60.7205 6.65279 61.0136 6.32485 61.4703 6.12724C64.3652 4.87471 67.2534 3.60511 70.1421 2.3366C71.461 1.75737 72.7759 1.16781 74.0926 0.583008Z" fill="url(#paint1_linear_610_5181)" stroke="#3F484B"/>
<path d="M73.0165 18.8321C73.129 18.6639 73.1847 18.5494 73.2668 18.4625C75.0008 16.6279 76.7353 14.7936 78.4756 12.9657C79.2229 12.1807 80.3977 12.4793 80.676 13.5217C80.8083 14.0174 80.6991 14.473 80.3564 14.836C78.2072 17.1126 76.0561 19.3872 73.8943 21.6505C73.3591 22.2109 72.5941 22.1808 72.052 21.6127C70.8652 20.3688 69.6821 19.121 68.5034 17.8685C67.9726 17.3043 67.968 16.4643 68.4763 15.9226C68.9852 15.3801 69.78 15.3737 70.3212 15.9326C71.1182 16.7556 71.9016 17.5932 72.6888 18.4268C72.7793 18.5227 72.8563 18.6328 73.0165 18.8321Z" fill="#3F484B"/>
<defs>
<linearGradient id="paint0_linear_610_5181" x1="82.7572" y1="8.39403" x2="-16.6794" y2="42.3309" gradientUnits="userSpaceOnUse">
<stop stop-color="#1BC4BF"/>
<stop offset="1" stop-color="#009F9B"/>
</linearGradient>
<linearGradient id="paint1_linear_610_5181" x1="87.9101" y1="0.583001" x2="53.3" y2="10.032" gradientUnits="userSpaceOnUse">
<stop stop-color="#FDFF97"/>
<stop offset="1" stop-color="#F1DA09"/>
</linearGradient>
</defs>
</svg>
