<svg width="203" height="191" viewBox="0 0 203 191" fill="none" xmlns="http://www.w3.org/2000/svg">
<path d="M1 50.5002C1 23.1619 23.1619 1 50.5001 1C77.8381 1 100 23.1619 100 50.5002C100 77.8382 77.8381 100 50.5001 100H1V50.5002Z" fill="url(#paint0_linear_6_46)" stroke="#606C71"/>
<path d="M27.2417 46.6842H23.9937L23.4897 49.7642H26.7657L26.4297 51.7802H23.1537L22.3417 56.6242H20.2137L21.0257 51.7802H17.6097L16.7977 56.6242H14.6417L15.4537 51.7802H12.2057L12.5417 49.7642H15.7897L16.2937 46.6842H13.0177L13.3537 44.6402H16.6297L17.4417 39.8242H19.5977L18.7857 44.6402H22.2017L23.0137 39.8242H25.1417L24.3297 44.6402H27.5777L27.2417 46.6842ZM21.3617 49.7642L21.8657 46.6842H18.4497L17.9457 49.7642H21.3617Z" fill="white"/>
<path d="M37.9455 51.6062C37.9455 51.4672 37.918 51.3422 37.863 51.2322C37.808 51.1172 37.7149 51.0142 37.5837 50.9212C37.4525 50.8282 37.279 50.7432 37.0632 50.6672C36.8474 50.5862 36.5786 50.5142 36.257 50.4512C35.8635 50.3712 35.5038 50.2732 35.1779 50.1592C34.8563 50.0452 34.5791 49.9092 34.3464 49.7532C34.1179 49.5922 33.9401 49.4062 33.8132 49.1942C33.6862 48.9782 33.6227 48.7292 33.6227 48.4452C33.6227 48.1662 33.6883 47.9062 33.8195 47.6642C33.9507 47.4192 34.1348 47.2052 34.3718 47.0232C34.6087 46.8412 34.8902 46.6972 35.216 46.5922C35.5461 46.4862 35.9079 46.4332 36.3015 46.4332C36.7246 46.4332 37.1055 46.4882 37.444 46.5982C37.7826 46.7082 38.0703 46.8602 38.3073 47.0552C38.5443 47.2502 38.7263 47.4782 38.8532 47.7412C38.9844 47.9992 39.05 48.2782 39.05 48.5782H37.8757C37.8757 48.4302 37.8376 48.2862 37.7614 48.1472C37.6852 48.0032 37.5795 47.8762 37.444 47.7662C37.3086 47.6562 37.1436 47.5672 36.9489 47.4992C36.7585 47.4322 36.5427 47.3982 36.3015 47.3982C36.0518 47.3982 35.8317 47.4252 35.6413 47.4802C35.4551 47.5352 35.2985 47.6092 35.1716 47.7022C35.0489 47.7962 34.9558 47.9032 34.8923 48.0262C34.8288 48.1492 34.7971 48.2762 34.7971 48.4072C34.7971 48.5422 34.8225 48.6632 34.8732 48.7692C34.924 48.8752 35.0108 48.9702 35.1335 49.0542C35.2604 49.1392 35.4276 49.2152 35.635 49.2832C35.8465 49.3512 36.1131 49.4162 36.4348 49.4802C36.8579 49.5692 37.2367 49.6722 37.571 49.7912C37.9053 49.9052 38.1867 50.0452 38.4152 50.2102C38.6437 50.3712 38.8172 50.5592 38.9357 50.7752C39.0585 50.9912 39.1198 51.2402 39.1198 51.5242C39.1198 51.8282 39.05 52.1062 38.9103 52.3552C38.7749 52.6052 38.5845 52.8192 38.3391 52.9962C38.0936 53.1742 37.7995 53.3122 37.4567 53.4092C37.114 53.5062 36.7394 53.5552 36.3332 53.5552C35.8677 53.5552 35.453 53.4942 35.0891 53.3712C34.7251 53.2442 34.4162 53.0792 34.1623 52.8762C33.9126 52.6682 33.7201 52.4292 33.5847 52.1582C33.4535 51.8882 33.3879 51.6062 33.3879 51.3142H34.5622C34.5791 51.5552 34.6426 51.7592 34.7526 51.9242C34.8669 52.0892 35.0065 52.2222 35.1716 52.3242C35.3408 52.4252 35.527 52.4972 35.7302 52.5392C35.9333 52.5822 36.1343 52.6032 36.3332 52.6032C36.8283 52.6032 37.2198 52.5122 37.5075 52.3302C37.7953 52.1482 37.9413 51.9072 37.9455 51.6062ZM41.2432 46.5602H44.7535V52.4122H46.9942V53.4282H41.2432V52.4122H43.5792V47.5822H41.2432V46.5602ZM43.4268 44.7572C43.4268 44.5622 43.484 44.4002 43.5982 44.2682C43.7167 44.1332 43.8944 44.0652 44.1314 44.0652C44.3642 44.0652 44.5398 44.1332 44.6583 44.2682C44.7768 44.4002 44.836 44.5622 44.836 44.7572C44.836 44.9482 44.7768 45.1062 44.6583 45.2332C44.5398 45.3602 44.3642 45.4242 44.1314 45.4242C43.8944 45.4242 43.7167 45.3602 43.5982 45.2332C43.484 45.1062 43.4268 44.9482 43.4268 44.7572ZM49.276 46.5602L49.308 47.2072C49.448 46.9662 49.63 46.7782 49.854 46.6422C50.082 46.5072 50.358 46.4372 50.679 46.4332C51.31 46.4332 51.731 46.6782 51.942 47.1692C52.078 46.9492 52.255 46.7742 52.476 46.6422C52.7 46.5072 52.971 46.4372 53.288 46.4332C53.792 46.4332 54.179 46.5872 54.45 46.8962C54.72 47.2052 54.856 47.6732 54.856 48.2992V53.4282H53.739V48.2862C53.739 47.7112 53.474 47.4252 52.945 47.4292C52.806 47.4292 52.685 47.4492 52.583 47.4872C52.482 47.5252 52.397 47.5782 52.33 47.6452C52.262 47.7092 52.209 47.7852 52.171 47.8742C52.133 47.9582 52.107 48.0472 52.095 48.1402V53.4282H50.977V48.2802C50.977 48.0052 50.916 47.7932 50.793 47.6452C50.671 47.4972 50.476 47.4252 50.209 47.4292C49.964 47.4292 49.774 47.4782 49.638 47.5752C49.503 47.6732 49.403 47.8022 49.34 47.9632V53.4282H48.223V46.5602H49.276ZM62.21 50.0702C62.21 50.5612 62.151 51.0202 62.032 51.4482C61.914 51.8712 61.74 52.2392 61.512 52.5522C61.283 52.8652 61 53.1112 60.661 53.2882C60.327 53.4662 59.944 53.5552 59.512 53.5552C59.093 53.5552 58.723 53.4872 58.401 53.3522C58.084 53.2162 57.811 53.0222 57.582 52.7682V56.0692H56.408V46.5602H57.481L57.538 47.3092C57.766 47.0252 58.042 46.8102 58.363 46.6612C58.689 46.5092 59.066 46.4332 59.493 46.4332C59.933 46.4332 60.322 46.5202 60.661 46.6932C61 46.8672 61.283 47.1082 61.512 47.4172C61.74 47.7262 61.914 48.0962 62.032 48.5282C62.151 48.9552 62.21 49.4252 62.21 49.9372V50.0702ZM61.035 49.9372C61.035 49.6022 60.997 49.2852 60.921 48.9852C60.849 48.6802 60.735 48.4132 60.578 48.1852C60.426 47.9522 60.231 47.7682 59.994 47.6332C59.757 47.4972 59.474 47.4292 59.144 47.4292C58.767 47.4292 58.45 47.5182 58.192 47.6962C57.938 47.8702 57.735 48.0942 57.582 48.3692V51.6762C57.735 51.9472 57.938 52.1692 58.192 52.3432C58.446 52.5122 58.767 52.5962 59.157 52.5962C59.482 52.5962 59.764 52.5292 60.001 52.3932C60.238 52.2542 60.432 52.0672 60.585 51.8352C60.737 51.6022 60.849 51.3332 60.921 51.0292C60.997 50.7242 61.035 50.4042 61.035 50.0702V49.9372ZM64.276 43.6782H67.786V52.4122H70.027V53.4282H64.276V52.4122H66.612V44.7002H64.276V43.6782ZM74.804 53.5552C74.321 53.5552 73.877 53.4722 73.471 53.3072C73.069 53.1422 72.724 52.9122 72.436 52.6162C72.148 52.3192 71.924 51.9682 71.763 51.5622C71.602 51.1562 71.522 50.7132 71.522 50.2352V49.9692C71.522 49.4142 71.611 48.9192 71.789 48.4832C71.966 48.0432 72.201 47.6732 72.493 47.3722C72.789 47.0682 73.124 46.8352 73.496 46.6742C73.873 46.5132 74.258 46.4332 74.651 46.4332C75.147 46.4332 75.578 46.5202 75.946 46.6932C76.319 46.8622 76.628 47.0992 76.873 47.4042C77.119 47.7052 77.301 48.0602 77.419 48.4702C77.542 48.8812 77.603 49.3252 77.603 49.8042V50.3302H72.696C72.709 50.6442 72.768 50.9382 72.874 51.2132C72.984 51.4882 73.132 51.7292 73.318 51.9362C73.509 52.1392 73.735 52.3002 73.998 52.4192C74.26 52.5372 74.55 52.5962 74.867 52.5962C75.286 52.5962 75.659 52.5122 75.984 52.3432C76.31 52.1732 76.581 51.9492 76.797 51.6702L77.514 52.2282C77.4 52.4022 77.256 52.5692 77.083 52.7302C76.913 52.8862 76.717 53.0262 76.492 53.1492C76.268 53.2712 76.014 53.3692 75.731 53.4412C75.447 53.5172 75.138 53.5552 74.804 53.5552ZM74.651 47.3982C74.414 47.3982 74.19 47.4422 73.979 47.5312C73.767 47.6162 73.577 47.7432 73.407 47.9122C73.238 48.0772 73.094 48.2822 72.976 48.5282C72.861 48.7692 72.781 49.0482 72.734 49.3662H76.429V49.2772C76.416 49.0482 76.372 48.8222 76.295 48.5972C76.224 48.3732 76.116 48.1722 75.972 47.9942C75.828 47.8172 75.646 47.6732 75.426 47.5632C75.21 47.4532 74.952 47.3982 74.651 47.3982ZM82.285 49.1052L84.119 46.5602H85.497L82.938 49.9562L85.566 53.4282H84.208L82.31 50.8132L80.412 53.4282H79.041L81.669 49.9562L79.111 46.5602H80.469L82.285 49.1052Z" fill="white"/>
<path d="M103 140.5C103 113.162 125.162 91.0002 152.5 91.0002C179.838 91.0002 202 113.162 202 140.5C202 167.838 179.838 190 152.5 190H103V140.5Z" fill="white" stroke="#606C71"/>
<path d="M129.598 139.023H126.35L125.846 142.103H129.122L128.786 144.119H125.51L124.698 148.963H122.57L123.382 144.119H119.966L119.154 148.963H116.998L117.81 144.119H114.562L114.898 142.103H118.146L118.65 139.023H115.374L115.71 136.979H118.986L119.798 132.163H121.954L121.142 136.979H124.558L125.37 132.163H127.498L126.686 136.979H129.934L129.598 139.023ZM123.718 142.103L124.222 139.023H120.806L120.302 142.103H123.718Z" fill="url(#paint1_linear_6_46)"/>
<path d="M140.626 143.911C140.626 143.772 140.599 143.647 140.544 143.537C140.489 143.423 140.396 143.319 140.264 143.226C140.133 143.133 139.96 143.048 139.744 142.972C139.528 142.892 139.259 142.82 138.938 142.756C138.544 142.676 138.184 142.578 137.859 142.464C137.537 142.35 137.26 142.214 137.027 142.058C136.799 141.897 136.621 141.711 136.494 141.499C136.367 141.283 136.303 141.034 136.303 140.75C136.303 140.471 136.369 140.211 136.5 139.97C136.631 139.724 136.815 139.51 137.052 139.328C137.289 139.146 137.571 139.003 137.897 138.897C138.227 138.791 138.589 138.738 138.982 138.738C139.405 138.738 139.786 138.793 140.125 138.903C140.463 139.013 140.751 139.165 140.988 139.36C141.225 139.555 141.407 139.783 141.534 140.046C141.665 140.304 141.731 140.583 141.731 140.884H140.556C140.556 140.735 140.518 140.592 140.442 140.452C140.366 140.308 140.26 140.181 140.125 140.071C139.989 139.961 139.824 139.872 139.63 139.804C139.439 139.737 139.223 139.703 138.982 139.703C138.732 139.703 138.512 139.73 138.322 139.785C138.136 139.84 137.979 139.915 137.852 140.008C137.73 140.101 137.636 140.209 137.573 140.331C137.509 140.454 137.478 140.581 137.478 140.712C137.478 140.848 137.503 140.968 137.554 141.074C137.605 141.18 137.691 141.275 137.814 141.36C137.941 141.444 138.108 141.52 138.316 141.588C138.527 141.656 138.794 141.721 139.115 141.785C139.539 141.874 139.917 141.977 140.252 142.096C140.586 142.21 140.867 142.35 141.096 142.515C141.324 142.676 141.498 142.864 141.616 143.08C141.739 143.296 141.8 143.545 141.8 143.829C141.8 144.134 141.731 144.411 141.591 144.66C141.456 144.91 141.265 145.124 141.02 145.302C140.774 145.479 140.48 145.617 140.137 145.714C139.795 145.811 139.42 145.86 139.014 145.86C138.548 145.86 138.134 145.799 137.77 145.676C137.406 145.549 137.097 145.384 136.843 145.181C136.593 144.974 136.401 144.734 136.265 144.464C136.134 144.193 136.069 143.911 136.069 143.619H137.243C137.26 143.861 137.323 144.064 137.433 144.229C137.548 144.394 137.687 144.527 137.852 144.629C138.022 144.73 138.208 144.802 138.411 144.845C138.614 144.887 138.815 144.908 139.014 144.908C139.509 144.908 139.9 144.817 140.188 144.635C140.476 144.453 140.622 144.212 140.626 143.911ZM143.924 138.865H147.434V144.718H149.675V145.733H143.924V144.718H146.26V139.887H143.924V138.865ZM146.107 137.062C146.107 136.868 146.165 136.705 146.279 136.574C146.397 136.438 146.575 136.37 146.812 136.37C147.045 136.37 147.22 136.438 147.339 136.574C147.457 136.705 147.517 136.868 147.517 137.062C147.517 137.253 147.457 137.411 147.339 137.538C147.22 137.665 147.045 137.729 146.812 137.729C146.575 137.729 146.397 137.665 146.279 137.538C146.165 137.411 146.107 137.253 146.107 137.062ZM151.957 138.865L151.989 139.512C152.128 139.271 152.31 139.083 152.535 138.948C152.763 138.812 153.038 138.742 153.36 138.738C153.99 138.738 154.411 138.984 154.623 139.474C154.758 139.254 154.936 139.079 155.156 138.948C155.38 138.812 155.651 138.742 155.969 138.738C156.472 138.738 156.859 138.893 157.13 139.201C157.401 139.51 157.537 139.978 157.537 140.604V145.733H156.419V140.592C156.419 140.016 156.155 139.73 155.626 139.735C155.486 139.735 155.366 139.754 155.264 139.792C155.163 139.83 155.078 139.883 155.01 139.95C154.942 140.014 154.89 140.09 154.852 140.179C154.813 140.264 154.788 140.352 154.775 140.446V145.733H153.658V140.585C153.658 140.31 153.597 140.099 153.474 139.95C153.351 139.802 153.157 139.73 152.89 139.735C152.645 139.735 152.454 139.783 152.319 139.881C152.183 139.978 152.084 140.107 152.02 140.268V145.733H150.903V138.865H151.957ZM164.89 142.375C164.89 142.866 164.831 143.325 164.713 143.753C164.594 144.176 164.421 144.544 164.192 144.857C163.964 145.17 163.68 145.416 163.342 145.594C163.007 145.771 162.624 145.86 162.193 145.86C161.774 145.86 161.403 145.792 161.082 145.657C160.764 145.522 160.492 145.327 160.263 145.073V148.374H159.089V138.865H160.161L160.219 139.614C160.447 139.331 160.722 139.115 161.044 138.967C161.37 138.814 161.746 138.738 162.174 138.738C162.614 138.738 163.003 138.825 163.342 138.998C163.68 139.172 163.964 139.413 164.192 139.722C164.421 140.031 164.594 140.401 164.713 140.833C164.831 141.26 164.89 141.73 164.89 142.242V142.375ZM163.716 142.242C163.716 141.908 163.678 141.59 163.602 141.29C163.53 140.985 163.416 140.719 163.259 140.49C163.107 140.257 162.912 140.073 162.675 139.938C162.438 139.802 162.155 139.735 161.825 139.735C161.448 139.735 161.131 139.824 160.872 140.001C160.618 140.175 160.415 140.399 160.263 140.674V143.981C160.415 144.252 160.618 144.474 160.872 144.648C161.126 144.817 161.448 144.902 161.837 144.902C162.163 144.902 162.444 144.834 162.681 144.699C162.918 144.559 163.113 144.373 163.265 144.14C163.418 143.907 163.53 143.638 163.602 143.334C163.678 143.029 163.716 142.71 163.716 142.375V142.242ZM166.957 135.983H170.467V144.718H172.708V145.733H166.957V144.718H169.293V137.005H166.957V135.983ZM177.484 145.86C177.002 145.86 176.558 145.778 176.151 145.613C175.749 145.448 175.405 145.217 175.117 144.921C174.829 144.624 174.605 144.273 174.444 143.867C174.283 143.461 174.203 143.019 174.203 142.54V142.274C174.203 141.719 174.292 141.224 174.469 140.788C174.647 140.348 174.882 139.978 175.174 139.678C175.47 139.373 175.804 139.14 176.177 138.979C176.553 138.818 176.939 138.738 177.332 138.738C177.827 138.738 178.259 138.825 178.627 138.998C178.999 139.168 179.308 139.405 179.554 139.709C179.799 140.01 179.981 140.365 180.1 140.776C180.222 141.186 180.284 141.63 180.284 142.109V142.636H175.377C175.39 142.949 175.449 143.243 175.555 143.518C175.665 143.793 175.813 144.034 175.999 144.241C176.19 144.445 176.416 144.605 176.678 144.724C176.941 144.842 177.231 144.902 177.548 144.902C177.967 144.902 178.339 144.817 178.665 144.648C178.991 144.478 179.262 144.254 179.478 143.975L180.195 144.533C180.081 144.707 179.937 144.874 179.763 145.035C179.594 145.192 179.397 145.331 179.173 145.454C178.949 145.577 178.695 145.674 178.411 145.746C178.128 145.822 177.819 145.86 177.484 145.86ZM177.332 139.703C177.095 139.703 176.871 139.747 176.659 139.836C176.448 139.921 176.257 140.048 176.088 140.217C175.919 140.382 175.775 140.587 175.656 140.833C175.542 141.074 175.462 141.353 175.415 141.671H179.109V141.582C179.097 141.353 179.052 141.127 178.976 140.903C178.904 140.678 178.796 140.477 178.652 140.3C178.509 140.122 178.327 139.978 178.107 139.868C177.891 139.758 177.633 139.703 177.332 139.703ZM184.965 141.41L186.8 138.865H188.177L185.619 142.261L188.247 145.733H186.889L184.991 143.118L183.093 145.733H181.722L184.35 142.261L181.791 138.865H183.15L184.965 141.41Z" fill="#0053D0"/>
<path d="M48.8831 151.402H48.3831V151.902H48.8831V151.402ZM97.6451 151.756C97.8401 151.56 97.8401 151.244 97.6451 151.049L94.4631 147.867C94.2671 147.671 93.9511 147.671 93.7551 147.867C93.5601 148.062 93.5601 148.378 93.7551 148.574L96.5841 151.402L93.7551 154.231C93.5601 154.426 93.5601 154.742 93.7551 154.938C93.9511 155.133 94.2671 155.133 94.4631 154.938L97.6451 151.756ZM48.3831 106.707V151.402H49.3831V106.707H48.3831ZM48.8831 151.902H97.2911V150.902H48.8831V151.902Z" fill="#3F484B"/>
<defs>
<linearGradient id="paint0_linear_6_46" x1="99.0291" y1="0.499998" x2="-20.7736" y2="41.3882" gradientUnits="userSpaceOnUse">
<stop stop-color="#53C1FF"/>
<stop offset="1" stop-color="#0053D0"/>
</linearGradient>
<linearGradient id="paint1_linear_6_46" x1="130.505" y1="127.363" x2="108.845" y2="132.197" gradientUnits="userSpaceOnUse">
<stop stop-color="#53C1FF"/>
<stop offset="1" stop-color="#0053D0"/>
</linearGradient>
</defs>
</svg>
