<svg width="188" height="153" viewBox="0 0 188 153" fill="none" xmlns="http://www.w3.org/2000/svg">
<line x1="59.4492" y1="26.0928" x2="81.9431" y2="26.0928" stroke="#0197FF" stroke-linecap="round"/>
<line x1="107.444" y1="26.0928" x2="130.072" y2="26.0928" stroke="#0197FF" stroke-linecap="round"/>
<line x1="77.2546" y1="31.7998" x2="99.8821" y2="31.7998" stroke="#0197FF" stroke-linecap="round"/>
<line x1="89.7505" y1="26.0928" x2="99.2841" y2="26.0928" stroke="#0197FF" stroke-linecap="round"/>
<line x1="59.5618" y1="31.8003" x2="69.0954" y2="31.8003" stroke="#0197FF" stroke-linecap="round"/>
<line x1="108.397" y1="31.7998" x2="129.705" y2="31.7998" stroke="#0197FF" stroke-linecap="round"/>
<ellipse cx="26.3768" cy="26.7775" rx="26.1945" ry="26.5392" fill="url(#paint0_linear_709_4333)"/>
<ellipse cx="25.8437" cy="20.5119" rx="4.59886" ry="4.65938" fill="white"/>
<path fill-rule="evenodd" clip-rule="evenodd" d="M16.5681 34.3067H34.93C33.6643 30.396 30.0322 27.5718 25.7491 27.5718C21.4659 27.5718 17.8339 30.396 16.5681 34.3067Z" fill="white"/>
<ellipse cx="161.377" cy="26.7775" rx="26.1945" ry="26.5392" fill="url(#paint1_linear_709_4333)"/>
<ellipse cx="160.844" cy="20.5119" rx="4.59886" ry="4.65938" fill="white"/>
<path fill-rule="evenodd" clip-rule="evenodd" d="M151.568 34.3067H169.93C168.664 30.396 165.032 27.5718 160.749 27.5718C156.466 27.5718 152.834 30.396 151.568 34.3067Z" fill="white"/>
<circle cx="94.7598" cy="122.084" r="30.25" fill="url(#paint2_linear_709_4333)" stroke="#606C71"/>
<path d="M109.384 118.08L94.2432 117.94C92.6857 115.213 89.8527 113.5 86.7541 113.411C81.9589 113.321 78.0001 117.204 77.9118 122.083C77.9115 122.101 77.9111 122.119 77.9109 122.136C77.8948 127.132 81.8424 131.205 86.7515 131.258C90.0161 131.295 93.0219 129.455 94.5192 126.503L96.1594 126.519C96.3075 126.52 96.4498 126.461 96.5539 126.353L99.3934 123.443L102.359 126.461C102.573 126.678 102.919 126.678 103.133 126.461L106.099 123.443L109.064 126.461C109.278 126.678 109.624 126.678 109.838 126.461L113.448 122.787C113.662 122.57 113.662 122.217 113.448 122L109.761 118.248C109.661 118.144 109.526 118.084 109.384 118.08ZM112.288 122.394L109.451 125.28L106.48 122.257C106.266 122.045 105.923 122.047 105.712 122.262L102.746 125.28L99.7698 122.252C99.6672 122.148 99.528 122.089 99.383 122.089C99.2399 122.099 99.1053 122.162 99.0039 122.265L95.9273 125.396L94.1684 125.38C93.9527 125.376 93.7553 125.503 93.6655 125.703C92.4205 128.436 89.7175 130.174 86.7566 130.145C82.4534 130.096 78.9936 126.526 79.0045 122.147C79.0607 117.882 82.5041 114.471 86.6953 114.529C86.7063 114.529 86.7174 114.529 86.7283 114.529C89.5492 114.611 92.1104 116.226 93.4386 118.759C93.5327 118.936 93.7132 119.047 93.9106 119.051L109.144 119.195L112.288 122.394Z" fill="#3F484B"/>
<path d="M82.4885 119.84C81.5838 119.843 80.851 120.589 80.8484 121.509V123.367C80.8489 124.289 81.5829 125.036 82.4885 125.036H84.3145C85.2201 125.036 85.9541 124.289 85.9546 123.367V121.509C85.952 120.589 85.2192 119.843 84.3145 119.84L82.4885 119.84ZM84.8586 121.512L84.8689 123.359C84.8611 123.663 84.6208 123.908 84.3222 123.916H82.4963C82.1944 123.915 81.9497 123.667 81.9495 123.359V121.502C81.9497 121.194 82.1944 120.945 82.4963 120.945L84.3066 120.95C84.6088 120.948 84.8558 121.195 84.8585 121.502C84.8586 121.505 84.8586 121.509 84.8586 121.512Z" fill="#3F484B"/>
<path d="M63.9253 122.688C64.1206 122.492 64.1206 122.176 63.9253 121.98L60.7433 118.798C60.5481 118.603 60.2315 118.603 60.0362 118.798C59.841 118.994 59.841 119.31 60.0362 119.506L62.8647 122.334L60.0362 125.162C59.841 125.358 59.841 125.674 60.0362 125.87C60.2315 126.065 60.5481 126.065 60.7433 125.87L63.9253 122.688ZM26.0722 53.3123C25.5705 64.853 26.8222 82.1755 32.2284 96.6341C37.6327 111.087 47.2612 122.834 63.5718 122.834V121.834C47.8824 121.834 38.5108 110.581 33.1651 96.2839C27.8213 81.9924 26.5731 64.815 27.0713 53.3557L26.0722 53.3123Z" fill="#0197FF"/>
<path d="M162.607 52.9629C162.412 52.7676 162.096 52.7676 161.9 52.9629L158.718 56.1448C158.523 56.3401 158.523 56.6567 158.718 56.8519C158.914 57.0472 159.23 57.0472 159.425 56.8519L162.254 54.0235L165.082 56.8519C165.278 57.0472 165.594 57.0472 165.789 56.8519C165.985 56.6567 165.985 56.3401 165.789 56.1448L162.607 52.9629ZM125.118 124.831C137.869 123.628 162.754 107.467 162.754 53.3164H161.754C161.754 107.178 137.062 122.699 125.024 123.836L125.118 124.831Z" fill="#0197FF"/>
<defs>
<linearGradient id="paint0_linear_709_4333" x1="51.8009" y1="0.23827" x2="-11.1321" y2="21.4378" gradientUnits="userSpaceOnUse">
<stop stop-color="#1BC4BF"/>
<stop offset="1" stop-color="#009F9B"/>
</linearGradient>
<linearGradient id="paint1_linear_709_4333" x1="186.801" y1="0.23827" x2="123.868" y2="21.4378" gradientUnits="userSpaceOnUse">
<stop stop-color="#9B90FB"/>
<stop offset="1" stop-color="#6654CF"/>
</linearGradient>
<linearGradient id="paint2_linear_709_4333" x1="124.605" y1="91.334" x2="50.9265" y2="116.48" gradientUnits="userSpaceOnUse">
<stop stop-color="#FDFF97"/>
<stop offset="1" stop-color="#F1DA09"/>
</linearGradient>
</defs>
</svg>
