<svg width="189" height="153" viewBox="0 0 189 153" fill="none" xmlns="http://www.w3.org/2000/svg">
<line x1="59.9238" y1="26.1206" x2="82.4177" y2="26.1206" stroke="#0197FF" stroke-linecap="round"/>
<line x1="107.92" y1="26.1206" x2="130.547" y2="26.1206" stroke="#0197FF" stroke-linecap="round"/>
<line x1="77.7285" y1="31.8276" x2="100.356" y2="31.8276" stroke="#0197FF" stroke-linecap="round"/>
<line x1="90.2246" y1="26.1206" x2="99.7583" y2="26.1206" stroke="#0197FF" stroke-linecap="round"/>
<line x1="60.0371" y1="31.8281" x2="69.5708" y2="31.8281" stroke="#0197FF" stroke-linecap="round"/>
<line x1="108.871" y1="31.8276" x2="130.179" y2="31.8276" stroke="#0197FF" stroke-linecap="round"/>
<ellipse cx="26.8507" cy="26.8053" rx="26.1945" ry="26.5392" fill="url(#paint0_linear_757_8479)"/>
<ellipse cx="26.3196" cy="20.5398" rx="4.59886" ry="4.65938" fill="white"/>
<path fill-rule="evenodd" clip-rule="evenodd" d="M17.043 34.3345H35.4048C34.1391 30.4238 30.507 27.5996 26.2239 27.5996C21.9408 27.5996 18.3087 30.4238 17.043 34.3345Z" fill="white"/>
<ellipse cx="161.851" cy="26.8053" rx="26.1945" ry="26.5392" fill="url(#paint1_linear_757_8479)"/>
<ellipse cx="161.32" cy="20.5398" rx="4.59886" ry="4.65938" fill="white"/>
<path fill-rule="evenodd" clip-rule="evenodd" d="M152.043 34.3345H170.405C169.139 30.4238 165.507 27.5996 161.224 27.5996C156.941 27.5996 153.309 30.4238 152.043 34.3345Z" fill="white"/>
<circle cx="95.2344" cy="122.112" r="30.25" fill="url(#paint2_linear_757_8479)" stroke="#606C71"/>
<path d="M109.858 118.107L94.7171 117.968C93.1595 115.241 90.3266 113.528 87.228 113.439C82.4328 113.349 78.474 117.232 78.3856 122.111C78.3853 122.129 78.385 122.146 78.3848 122.164C78.3687 127.16 82.3162 131.233 87.2254 131.286C90.4899 131.323 93.4958 129.483 94.9931 126.531L96.6332 126.547C96.7814 126.548 96.9237 126.488 97.0278 126.381L99.8672 123.471L102.833 126.489C103.047 126.706 103.393 126.706 103.607 126.489L106.572 123.471L109.538 126.489C109.752 126.706 110.098 126.706 110.312 126.489L113.922 122.815C114.136 122.598 114.136 122.245 113.922 122.028L110.234 118.275C110.135 118.172 110 118.111 109.858 118.107ZM112.762 122.421L109.925 125.308L106.954 122.285C106.74 122.072 106.397 122.075 106.186 122.29L103.22 125.308L100.244 122.28C100.141 122.175 100.002 122.117 99.8569 122.117C99.7138 122.127 99.5791 122.19 99.4778 122.293L96.4012 125.423L94.6423 125.408C94.4266 125.404 94.2292 125.531 94.1394 125.731C92.8944 128.464 90.1913 130.202 87.2305 130.173C82.9272 130.124 79.4674 126.554 79.4784 122.175C79.5346 117.91 82.978 114.499 87.1692 114.557C87.1802 114.557 87.1912 114.557 87.2021 114.557C90.023 114.639 92.5842 116.254 93.9125 118.787C94.0066 118.964 94.187 119.075 94.3844 119.078L109.618 119.223L112.762 122.421Z" fill="#3F484B"/>
<path d="M82.9624 119.868C82.0576 119.871 81.3248 120.616 81.3223 121.537V123.395C81.3228 124.317 82.0568 125.063 82.9624 125.064H84.7883C85.6939 125.063 86.428 124.317 86.4285 123.395V121.537C86.4259 120.617 85.6931 119.871 84.7883 119.868L82.9624 119.868ZM85.3325 121.54L85.3428 123.387C85.335 123.691 85.0947 123.936 84.7961 123.943H82.9701C82.6682 123.943 82.4236 123.694 82.4234 123.387V121.529C82.4236 121.222 82.6682 120.973 82.9701 120.973L84.7805 120.978C85.0826 120.976 85.3297 121.223 85.3324 121.53C85.3325 121.533 85.3325 121.537 85.3325 121.54Z" fill="#3F484B"/>
<path d="M64.3999 122.715C64.5952 122.52 64.5952 122.204 64.3999 122.008L61.218 118.826C61.0227 118.631 60.7061 118.631 60.5108 118.826C60.3156 119.022 60.3156 119.338 60.5108 119.533L63.3393 122.362L60.5108 125.19C60.3156 125.386 60.3156 125.702 60.5108 125.897C60.7061 126.093 61.0227 126.093 61.218 125.897L64.3999 122.715ZM26.5469 53.3401C26.0451 64.8808 27.2968 82.2034 32.703 96.6619C38.1073 111.115 47.7358 122.862 64.0464 122.862V121.862C48.357 121.862 38.9854 110.608 33.6397 96.3117C28.296 82.0203 27.0477 64.8428 27.5459 53.3835L26.5469 53.3401Z" fill="#0197FF"/>
<path d="M163.081 52.9907C162.886 52.7954 162.569 52.7954 162.374 52.9907L159.192 56.1727C158.997 56.3679 158.997 56.6845 159.192 56.8798C159.387 57.075 159.704 57.075 159.899 56.8798L162.728 54.0513L165.556 56.8798C165.751 57.075 166.068 57.075 166.263 56.8798C166.458 56.6845 166.458 56.3679 166.263 56.1727L163.081 52.9907ZM125.592 124.859C138.342 123.656 163.228 107.495 163.228 53.3442H162.228C162.228 107.206 137.536 122.727 125.498 123.864L125.592 124.859Z" fill="#0197FF"/>
<defs>
<linearGradient id="paint0_linear_757_8479" x1="52.2747" y1="0.266102" x2="-10.6583" y2="21.4656" gradientUnits="userSpaceOnUse">
<stop stop-color="#1BC4BF"/>
<stop offset="1" stop-color="#009F9B"/>
</linearGradient>
<linearGradient id="paint1_linear_757_8479" x1="187.275" y1="0.266102" x2="124.342" y2="21.4656" gradientUnits="userSpaceOnUse">
<stop stop-color="#9B90FB"/>
<stop offset="1" stop-color="#6654CF"/>
</linearGradient>
<linearGradient id="paint2_linear_757_8479" x1="125.08" y1="91.3618" x2="51.4011" y2="116.508" gradientUnits="userSpaceOnUse">
<stop stop-color="#FDFF97"/>
<stop offset="1" stop-color="#F1DA09"/>
</linearGradient>
</defs>
</svg>
