<svg width="223" height="226" viewBox="0 0 223 226" fill="none" xmlns="http://www.w3.org/2000/svg">
<circle cx="56.2227" cy="56.6274" r="46.5" fill="url(#paint0_linear_619_7953)" fill-opacity="0.3"/>
<circle cx="56.2227" cy="56.6274" r="36.5" fill="url(#paint1_linear_619_7953)"/>
<circle cx="56.2227" cy="56.6274" r="55.5" stroke="#0197FF" stroke-width="0.962657" stroke-linecap="round" stroke-dasharray="3 3"/>
<circle cx="55.4804" cy="48.0102" r="6.40816" fill="white"/>
<path fill-rule="evenodd" clip-rule="evenodd" d="M68.1411 66.9824H42.5552C44.3189 61.604 49.3799 57.7197 55.3481 57.7197C61.3164 57.7197 66.3774 61.604 68.1411 66.9824Z" fill="white"/>
<circle cx="166.861" cy="169.515" r="46.5" fill="url(#paint2_linear_619_7953)" fill-opacity="0.3"/>
<circle cx="166.861" cy="169.515" r="36.5" fill="url(#paint3_linear_619_7953)"/>
<circle cx="166.861" cy="169.515" r="55.5" stroke="#0197FF" stroke-width="0.962657" stroke-linecap="round" stroke-dasharray="3 3"/>
<circle cx="166.41" cy="160.929" r="6.37838" fill="white"/>
<path fill-rule="evenodd" clip-rule="evenodd" d="M179.011 179.813H153.544C155.3 174.459 160.337 170.593 166.278 170.593C172.218 170.593 177.256 174.459 179.011 179.813Z" fill="white"/>
<circle cx="204.842" cy="140.133" r="18" fill="url(#paint4_linear_619_7953)"/>
<path d="M209.776 145.935V138.213C209.233 138.213 208.691 138.214 208.149 138.214C205.065 138.214 201.982 138.214 198.898 138.214H198.746V145.935H209.776Z" fill="#606C71"/>
<path d="M208.087 137.116C207.541 137.116 207.007 137.116 206.454 137.116C206.454 137.075 206.454 137.035 206.454 136.996C206.454 136.468 206.461 135.94 206.453 135.413C206.438 134.464 205.996 133.778 205.142 133.377C203.908 132.796 202.371 133.579 202.105 134.913C202.074 135.068 202.059 135.229 202.058 135.387C202.053 135.922 202.057 136.457 202.057 136.992C202.057 137.03 202.057 137.067 202.057 137.112C201.511 137.112 200.971 137.112 200.432 137.112C200.428 137.103 200.422 137.096 200.422 137.09C200.422 136.426 200.387 135.759 200.431 135.098C200.506 133.991 201.006 133.086 201.868 132.388C202.458 131.911 203.138 131.634 203.891 131.57C205.627 131.422 207.076 132.372 207.733 133.782C207.963 134.277 208.078 134.799 208.088 135.342C208.098 135.911 208.09 136.481 208.091 137.05C208.091 137.068 208.088 137.087 208.087 137.116Z" fill="#606C71"/>
<path d="M103.329 95.6284L128.228 120.528" stroke="#0197FF" stroke-width="0.962657" stroke-linecap="round" stroke-dasharray="3 3"/>
<path d="M93.3286 105.628L118.228 130.528" stroke="#0197FF" stroke-width="0.962657" stroke-linecap="round" stroke-dasharray="3 3"/>
<circle cx="92.8428" cy="28.1333" r="18" fill="url(#paint5_linear_619_7953)"/>
<path d="M97.7761 33.9348V26.2129C97.2338 26.2134 96.6915 26.2143 96.1492 26.2144C93.0657 26.2145 89.9821 26.2144 86.8986 26.2144H86.7461V33.9348H97.7761Z" fill="#606C71"/>
<path d="M96.0871 25.1165C95.5414 25.1165 95.0072 25.1165 94.4549 25.1165C94.4549 25.0752 94.4549 25.0354 94.4549 24.9955C94.4548 24.468 94.4615 23.9403 94.4534 23.4129C94.4387 22.4644 93.9961 21.7785 93.142 21.3765C91.9086 20.7961 90.3718 21.5786 90.1052 22.9134C90.0743 23.0683 90.0599 23.2288 90.0583 23.3868C90.0532 23.9219 90.0573 24.4571 90.0579 24.9922C90.058 25.0296 90.0579 25.067 90.0579 25.1121C89.511 25.1121 88.9714 25.1121 88.4327 25.1121C88.4283 25.1027 88.4226 25.0962 88.4226 25.0897C88.4226 24.4256 88.3871 23.759 88.4316 23.0979C88.506 21.9912 89.0061 21.0865 89.8684 20.3883C90.4583 19.9106 91.1388 19.6341 91.8913 19.5699C93.6271 19.4217 95.0767 20.3718 95.7331 21.7816C95.9638 22.2771 96.0782 22.7992 96.0881 23.3422C96.0985 23.9113 96.0909 24.4807 96.091 25.05C96.091 25.0684 96.0889 25.0868 96.0871 25.1165Z" fill="#606C71"/>
<defs>
<linearGradient id="paint0_linear_619_7953" x1="101.355" y1="10.1274" x2="-10.0619" y2="48.1531" gradientUnits="userSpaceOnUse">
<stop stop-color="#53C1FF"/>
<stop offset="1" stop-color="#0053D0"/>
</linearGradient>
<linearGradient id="paint1_linear_619_7953" x1="91.6491" y1="20.1274" x2="4.19287" y2="49.9755" gradientUnits="userSpaceOnUse">
<stop stop-color="#1BC4BF"/>
<stop offset="1" stop-color="#009F9B"/>
</linearGradient>
<linearGradient id="paint2_linear_619_7953" x1="211.994" y1="123.015" x2="100.577" y2="161.04" gradientUnits="userSpaceOnUse">
<stop stop-color="#53C1FF"/>
<stop offset="1" stop-color="#0053D0"/>
</linearGradient>
<linearGradient id="paint3_linear_619_7953" x1="202.288" y1="133.015" x2="114.832" y2="162.863" gradientUnits="userSpaceOnUse">
<stop stop-color="#9B90FB"/>
<stop offset="1" stop-color="#6654CF"/>
</linearGradient>
<linearGradient id="paint4_linear_619_7953" x1="222.313" y1="122.133" x2="179.184" y2="136.853" gradientUnits="userSpaceOnUse">
<stop stop-color="#FDFF97"/>
<stop offset="1" stop-color="#F1DA09"/>
</linearGradient>
<linearGradient id="paint5_linear_619_7953" x1="110.313" y1="10.1333" x2="67.1842" y2="24.8529" gradientUnits="userSpaceOnUse">
<stop stop-color="#FDFF97"/>
<stop offset="1" stop-color="#F1DA09"/>
</linearGradient>
</defs>
</svg>
