<svg width="121" height="230" viewBox="0 0 121 230" fill="none" xmlns="http://www.w3.org/2000/svg">
<path d="M61.38 147.171C61.576 147.366 61.892 147.366 62.087 147.171L65.269 143.989C65.465 143.793 65.465 143.477 65.269 143.282C65.074 143.086 64.758 143.086 64.562 143.282L61.734 146.11L58.906 143.282C58.71 143.086 58.394 143.086 58.198 143.282C58.003 143.477 58.003 143.793 58.198 143.989L61.38 147.171ZM61.234 128.604V146.817H62.234V128.604H61.234Z" fill="#0197FF"/>
<path d="M62.087 83.1189C61.892 82.9239 61.576 82.9239 61.38 83.1189L58.198 86.3009C58.003 86.4969 58.003 86.8129 58.198 87.0079C58.394 87.2039 58.71 87.2039 58.906 87.0079L61.734 84.1799L64.562 87.0079C64.758 87.2039 65.074 87.2039 65.269 87.0079C65.465 86.8129 65.465 86.4969 65.269 86.3009L62.087 83.1189ZM62.234 101.686V83.4729H61.234V101.686H62.234Z" fill="#0197FF"/>
<path d="M60.856 37.0018C64.9247 37.0018 68.2231 33.7034 68.2231 29.6347C68.2231 25.5659 64.9247 22.2676 60.856 22.2676C56.7873 22.2676 53.4889 25.5659 53.4889 29.6347C53.4889 33.7034 56.7873 37.0018 60.856 37.0018Z" fill="#0197FF"/>
<path fill-rule="evenodd" clip-rule="evenodd" d="M75.412 50.4537H45.9969C48.0249 44.2703 53.843 39.8047 60.705 39.8047C67.566 39.8047 73.384 44.2703 75.412 50.4537Z" fill="#0197FF"/>
<path d="M60.807 76.0718C81.4685 76.0718 98.2179 59.3224 98.2179 38.6609C98.2179 17.9994 81.4685 1.25 60.807 1.25C40.1455 1.25 23.3961 17.9994 23.3961 38.6609C23.3961 59.3224 40.1455 76.0718 60.807 76.0718Z" stroke="#0599FF" stroke-linecap="round" stroke-dasharray="4 4"/>
<path d="M60.856 190.385C64.9247 190.385 68.2231 187.086 68.2231 183.018C68.2231 178.949 64.9247 175.65 60.856 175.65C56.7873 175.65 53.4889 178.949 53.4889 183.018C53.4889 187.086 56.7873 190.385 60.856 190.385Z" fill="#0197FF"/>
<path fill-rule="evenodd" clip-rule="evenodd" d="M75.412 203.837H45.9969C48.0249 197.654 53.843 193.188 60.705 193.188C67.566 193.188 73.384 197.654 75.412 203.837Z" fill="#0197FF"/>
<path d="M60.807 229.456C81.4685 229.456 98.2179 212.706 98.2179 192.045C98.2179 171.383 81.4685 154.634 60.807 154.634C40.1455 154.634 23.3961 171.383 23.3961 192.045C23.3961 212.706 40.1455 229.456 60.807 229.456Z" stroke="#0599FF" stroke-linecap="round" stroke-dasharray="4 4"/>
<path d="M87.052 25.0761C93.4806 25.0761 98.6921 19.8647 98.6921 13.436C98.6921 7.00735 93.4806 1.7959 87.052 1.7959C80.6233 1.7959 75.4119 7.00735 75.4119 13.436C75.4119 19.8647 80.6233 25.0761 87.052 25.0761Z" fill="url(#paint0_linear_303_81)"/>
<path d="M84.483 19.1461C84.454 19.1145 84.426 19.0819 84.395 19.0516C82.819 17.483 81.243 15.9145 79.666 14.3465C79.638 14.3189 79.604 14.2974 79.585 14.282C80.079 13.7926 80.56 13.3156 81.049 12.8317C82.182 13.9576 83.337 15.1049 84.5 16.2595C87.361 13.4121 90.22 10.5674 93.076 7.72559C93.557 8.20619 94.033 8.68128 94.519 9.16708C94.497 9.19068 94.466 9.22409 94.434 9.25599C91.153 12.5211 87.873 15.786 84.593 19.0512C84.562 19.0813 84.535 19.1144 84.507 19.1461C84.499 19.1461 84.491 19.1461 84.483 19.1461Z" fill="white"/>
<path d="M87.5679 24.8378C94.1506 24.8378 99.4868 19.5015 99.4868 12.9189C99.4868 6.33627 94.1506 1 87.5679 1C80.9853 1 75.649 6.33627 75.649 12.9189C75.649 19.5015 80.9853 24.8378 87.5679 24.8378Z" fill="url(#paint1_linear_303_81)"/>
<path d="M81.957 9.26758H86.683V10.1323H84.809V16.2285H86.683V17.0879H81.957V16.2285H83.788V10.1323H81.957V9.26758ZM88.351 17.0879V9.26758H90.161C90.706 9.27468 91.191 9.36777 91.617 9.54688C92.047 9.72228 92.408 9.96938 92.702 10.2881C92.999 10.6032 93.225 10.9827 93.379 11.4267C93.536 11.8672 93.617 12.3559 93.62 12.893V13.4678C93.617 14.0049 93.536 14.4954 93.379 14.9394C93.225 15.3799 92.999 15.7594 92.702 16.0781C92.408 16.3932 92.047 16.6403 91.617 16.8193C91.191 16.9948 90.706 17.0843 90.161 17.0879H88.351ZM89.361 10.084V16.2768H90.161C90.584 16.2733 90.949 16.1999 91.257 16.0566C91.565 15.9098 91.819 15.7111 92.02 15.4604C92.224 15.2098 92.374 14.9144 92.471 14.5742C92.571 14.234 92.623 13.8652 92.627 13.4678V12.8823C92.623 12.4848 92.571 12.1178 92.471 11.7812C92.371 11.4411 92.22 11.1474 92.02 10.9004C91.819 10.6497 91.565 10.4528 91.257 10.3096C90.949 10.1663 90.584 10.0911 90.161 10.084H89.361Z" fill="white"/>
<path d="M87.052 178.399C93.4806 178.399 98.6921 173.188 98.6921 166.759C98.6921 160.331 93.4806 155.119 87.052 155.119C80.6233 155.119 75.4119 160.331 75.4119 166.759C75.4119 173.188 80.6233 178.399 87.052 178.399Z" fill="url(#paint2_linear_303_81)"/>
<path d="M84.483 172.47C84.454 172.438 84.426 172.405 84.395 172.375C82.819 170.807 81.243 169.238 79.666 167.67C79.638 167.642 79.604 167.621 79.585 167.606C80.079 167.116 80.56 166.639 81.049 166.155C82.182 167.281 83.337 168.428 84.5 169.583C87.361 166.736 90.22 163.891 93.076 161.049C93.557 161.53 94.033 162.005 94.519 162.491C94.497 162.514 94.466 162.548 94.434 162.58C91.153 165.845 87.873 169.11 84.593 172.375C84.562 172.405 84.535 172.438 84.507 172.47C84.499 172.47 84.491 172.47 84.483 172.47Z" fill="white"/>
<path fill-rule="evenodd" clip-rule="evenodd" d="M6.4725 113.387L5.8385 112.318L0.00050354 115.78H0.000106812V115.781H0H0.000106812V116.805H0L5.8385 120.268L6.4725 119.199L1.57291 116.293L6.4725 113.387Z" fill="#606C71"/>
<path fill-rule="evenodd" clip-rule="evenodd" d="M114.591 119.129L115.219 120.188L120.999 116.759H121V115.745L115.219 112.316L114.591 113.375L119.443 116.252L114.591 119.129Z" fill="#606C71"/>
<path d="M18.426 118.096C18.372 118.52 18.263 118.91 18.099 119.266C17.936 119.619 17.722 119.923 17.458 120.179C17.198 120.43 16.887 120.627 16.526 120.77C16.17 120.908 15.771 120.978 15.331 120.978C14.954 120.978 14.61 120.925 14.299 120.82C13.993 120.711 13.718 120.562 13.475 120.374C13.236 120.185 13.028 119.963 12.852 119.707C12.68 119.451 12.535 119.172 12.418 118.87C12.305 118.568 12.219 118.251 12.16 117.92C12.106 117.589 12.076 117.253 12.072 116.913V115.636C12.076 115.296 12.106 114.961 12.16 114.629C12.219 114.298 12.305 113.981 12.418 113.679C12.535 113.377 12.68 113.099 12.852 112.843C13.028 112.583 13.236 112.358 13.475 112.169C13.718 111.981 13.993 111.834 14.299 111.729C14.605 111.62 14.949 111.565 15.331 111.565C15.788 111.565 16.197 111.637 16.558 111.779C16.919 111.918 17.229 112.117 17.489 112.377C17.749 112.633 17.957 112.941 18.112 113.302C18.271 113.663 18.376 114.061 18.426 114.497H17.263C17.225 114.221 17.16 113.963 17.067 113.723C16.975 113.484 16.851 113.275 16.696 113.094C16.541 112.914 16.35 112.773 16.124 112.673C15.901 112.568 15.637 112.516 15.331 112.516C15.054 112.516 14.809 112.562 14.595 112.654C14.385 112.742 14.203 112.864 14.048 113.019C13.897 113.174 13.769 113.354 13.664 113.56C13.563 113.765 13.481 113.984 13.418 114.214C13.355 114.445 13.309 114.682 13.28 114.925C13.255 115.164 13.242 115.397 13.242 115.624V116.913C13.242 117.14 13.255 117.375 13.28 117.618C13.309 117.857 13.355 118.094 13.418 118.329C13.481 118.56 13.563 118.778 13.664 118.983C13.764 119.189 13.892 119.371 14.048 119.531C14.203 119.686 14.385 119.81 14.595 119.902C14.805 119.99 15.05 120.034 15.331 120.034C15.637 120.034 15.901 119.986 16.124 119.889C16.35 119.793 16.541 119.659 16.696 119.487C16.851 119.31 16.975 119.105 17.067 118.87C17.16 118.631 17.225 118.373 17.263 118.096H18.426ZM20.286 111.188H23.765V119.845H25.986V120.852H20.286V119.845H22.601V112.201H20.286V111.188ZM31.488 120.852H30.324V113.176L27.927 114.088V113.025L31.394 111.691H31.488V120.852ZM40.041 117.775H41.319V118.725H40.041V120.852H38.878V118.725H34.7V118.039L38.802 111.691H40.041V117.775ZM35.99 117.775H38.878V113.239L38.689 113.591L35.99 117.775ZM43.348 116.259L43.807 111.691H48.507V112.824H44.789L44.531 115.265C44.711 115.16 44.927 115.068 45.179 114.988C45.43 114.908 45.722 114.869 46.053 114.869C46.477 114.869 46.856 114.942 47.192 115.089C47.527 115.236 47.813 115.443 48.048 115.712C48.282 115.976 48.463 116.297 48.589 116.674C48.714 117.052 48.777 117.471 48.777 117.933C48.777 118.369 48.719 118.774 48.601 119.147C48.484 119.52 48.306 119.843 48.066 120.116C47.832 120.384 47.534 120.596 47.173 120.751C46.812 120.902 46.389 120.978 45.902 120.978C45.529 120.978 45.177 120.925 44.845 120.82C44.514 120.716 44.218 120.558 43.958 120.348C43.702 120.139 43.49 119.875 43.323 119.556C43.159 119.237 43.056 118.866 43.014 118.442H44.122C44.193 118.962 44.384 119.357 44.694 119.625C45.009 119.893 45.411 120.028 45.902 120.028C46.179 120.028 46.424 119.979 46.638 119.883C46.852 119.782 47.03 119.642 47.173 119.461C47.32 119.277 47.429 119.057 47.5 118.801C47.576 118.545 47.613 118.26 47.613 117.945C47.613 117.66 47.572 117.394 47.488 117.146C47.408 116.899 47.29 116.685 47.135 116.504C46.98 116.32 46.789 116.175 46.563 116.07C46.336 115.965 46.076 115.913 45.783 115.913C45.59 115.913 45.422 115.928 45.279 115.957C45.141 115.982 45.015 116.02 44.902 116.07C44.789 116.121 44.682 116.181 44.581 116.253C44.484 116.324 44.384 116.406 44.279 116.498L43.348 116.259ZM51.901 115.712H52.732C53.025 115.712 53.283 115.672 53.506 115.592C53.732 115.512 53.921 115.403 54.072 115.265C54.227 115.127 54.344 114.961 54.424 114.768C54.504 114.575 54.544 114.363 54.544 114.132C54.544 113.6 54.407 113.199 54.135 112.931C53.862 112.658 53.464 112.522 52.939 112.522C52.692 112.522 52.465 112.56 52.26 112.635C52.059 112.706 51.884 112.811 51.738 112.95C51.595 113.088 51.484 113.254 51.404 113.447C51.325 113.64 51.285 113.856 51.285 114.095H50.114C50.114 113.747 50.182 113.419 50.316 113.113C50.454 112.803 50.647 112.534 50.895 112.308C51.142 112.077 51.438 111.897 51.782 111.767C52.13 111.633 52.516 111.565 52.939 111.565C53.35 111.565 53.726 111.622 54.066 111.735C54.405 111.844 54.697 112.008 54.94 112.226C55.183 112.444 55.372 112.715 55.506 113.038C55.641 113.361 55.708 113.734 55.708 114.158C55.708 114.334 55.68 114.516 55.626 114.705C55.571 114.894 55.487 115.078 55.374 115.259C55.261 115.435 55.114 115.603 54.934 115.762C54.758 115.917 54.546 116.047 54.298 116.152C54.596 116.249 54.844 116.374 55.041 116.53C55.242 116.685 55.401 116.859 55.519 117.052C55.641 117.245 55.724 117.448 55.771 117.662C55.821 117.876 55.846 118.088 55.846 118.297C55.846 118.725 55.773 119.105 55.626 119.436C55.479 119.768 55.276 120.049 55.016 120.279C54.756 120.506 54.447 120.68 54.091 120.801C53.738 120.919 53.357 120.978 52.946 120.978C52.543 120.978 52.163 120.921 51.807 120.808C51.455 120.695 51.148 120.529 50.888 120.311C50.628 120.093 50.421 119.826 50.265 119.512C50.114 119.197 50.039 118.839 50.039 118.436H51.203C51.203 118.675 51.243 118.893 51.322 119.09C51.406 119.287 51.524 119.455 51.675 119.594C51.826 119.732 52.008 119.839 52.222 119.914C52.44 119.99 52.681 120.028 52.946 120.028C53.21 120.028 53.449 119.994 53.663 119.927C53.877 119.856 54.059 119.749 54.21 119.606C54.361 119.463 54.477 119.287 54.556 119.078C54.64 118.864 54.682 118.612 54.682 118.323C54.682 118.037 54.634 117.792 54.537 117.587C54.445 117.377 54.313 117.203 54.141 117.064C53.973 116.926 53.768 116.823 53.524 116.756C53.285 116.689 53.021 116.655 52.732 116.655H51.901V115.712ZM58.335 111.188H61.814V119.845H64.035V120.852H58.335V119.845H60.65V112.201H58.335V111.188ZM67.8 117.675L66.945 118.499V120.852H65.774V111.188H66.945V117.102L67.706 116.284L69.939 114.044H71.355L68.599 116.882L71.777 120.852H70.298L67.8 117.675ZM77.845 120.852C77.799 120.764 77.761 120.655 77.732 120.525C77.706 120.39 77.688 120.252 77.675 120.109C77.558 120.227 77.425 120.338 77.279 120.443C77.136 120.548 76.977 120.64 76.8 120.72C76.628 120.799 76.444 120.862 76.247 120.908C76.05 120.955 75.84 120.978 75.618 120.978C75.257 120.978 74.93 120.925 74.636 120.82C74.347 120.716 74.099 120.575 73.894 120.399C73.692 120.218 73.535 120.007 73.422 119.763C73.313 119.516 73.258 119.25 73.258 118.964C73.258 118.591 73.332 118.264 73.479 117.983C73.63 117.702 73.841 117.469 74.114 117.285C74.387 117.096 74.714 116.955 75.095 116.863C75.481 116.771 75.911 116.725 76.385 116.725H77.656V116.19C77.656 115.984 77.618 115.8 77.543 115.636C77.467 115.473 77.36 115.334 77.222 115.221C77.084 115.103 76.914 115.013 76.712 114.95C76.515 114.887 76.293 114.856 76.045 114.856C75.815 114.856 75.607 114.885 75.423 114.944C75.242 115.003 75.089 115.08 74.963 115.177C74.837 115.273 74.739 115.389 74.668 115.523C74.601 115.653 74.567 115.789 74.567 115.932H73.397C73.401 115.684 73.464 115.441 73.585 115.202C73.711 114.963 73.89 114.749 74.12 114.56C74.355 114.367 74.638 114.212 74.97 114.095C75.305 113.977 75.685 113.919 76.108 113.919C76.494 113.919 76.853 113.967 77.184 114.063C77.516 114.156 77.801 114.298 78.04 114.491C78.283 114.68 78.474 114.917 78.612 115.202C78.751 115.487 78.82 115.821 78.82 116.202V119.367C78.82 119.594 78.841 119.835 78.883 120.091C78.925 120.342 78.984 120.562 79.059 120.751V120.852H77.845ZM75.788 119.965C76.014 119.965 76.226 119.935 76.423 119.877C76.62 119.818 76.798 119.74 76.958 119.644C77.121 119.547 77.262 119.438 77.379 119.317C77.497 119.191 77.589 119.061 77.656 118.927V117.549H76.574C75.894 117.549 75.366 117.649 74.988 117.851C74.611 118.052 74.422 118.369 74.422 118.801C74.422 118.969 74.45 119.124 74.504 119.266C74.563 119.409 74.649 119.533 74.762 119.638C74.875 119.738 75.018 119.818 75.19 119.877C75.362 119.935 75.561 119.965 75.788 119.965ZM86.751 117.524C86.751 118.01 86.692 118.465 86.575 118.889C86.457 119.308 86.285 119.673 86.059 119.984C85.832 120.294 85.551 120.537 85.216 120.713C84.884 120.89 84.502 120.978 84.07 120.978C83.634 120.978 83.255 120.9 82.932 120.745C82.613 120.59 82.34 120.367 82.114 120.078L82.057 120.852H80.988V111.188H82.152V114.774C82.374 114.497 82.642 114.286 82.957 114.139C83.271 113.992 83.638 113.919 84.058 113.919C84.494 113.919 84.88 114.005 85.216 114.176C85.551 114.348 85.832 114.588 86.059 114.894C86.285 115.2 86.457 115.567 86.575 115.995C86.692 116.418 86.751 116.884 86.751 117.391V117.524ZM85.587 117.391C85.587 117.06 85.553 116.746 85.486 116.448C85.423 116.146 85.32 115.881 85.178 115.655C85.035 115.424 84.849 115.242 84.618 115.108C84.387 114.973 84.104 114.906 83.768 114.906C83.567 114.906 83.383 114.934 83.215 114.988C83.047 115.038 82.896 115.112 82.762 115.208C82.632 115.301 82.514 115.412 82.409 115.542C82.309 115.668 82.223 115.806 82.152 115.957V118.933C82.227 119.084 82.315 119.224 82.416 119.354C82.521 119.48 82.64 119.591 82.774 119.688C82.909 119.784 83.06 119.86 83.227 119.914C83.395 119.965 83.58 119.99 83.781 119.99C84.1 119.99 84.372 119.925 84.599 119.795C84.83 119.661 85.016 119.48 85.159 119.254C85.306 119.027 85.413 118.765 85.48 118.467C85.551 118.17 85.587 117.855 85.587 117.524V117.391ZM94.342 117.347C94.342 117.93 94.274 118.448 94.14 118.901C94.006 119.35 93.813 119.73 93.561 120.04C93.31 120.346 93.001 120.579 92.637 120.739C92.272 120.898 91.854 120.978 91.385 120.978C90.919 120.978 90.502 120.898 90.133 120.739C89.768 120.579 89.457 120.346 89.201 120.04C88.945 119.73 88.748 119.35 88.61 118.901C88.476 118.448 88.409 117.93 88.409 117.347V115.202C88.409 114.619 88.476 114.103 88.61 113.654C88.744 113.201 88.937 112.82 89.189 112.509C89.445 112.199 89.755 111.964 90.12 111.805C90.489 111.641 90.906 111.559 91.372 111.559C91.842 111.559 92.259 111.641 92.624 111.805C92.993 111.964 93.303 112.199 93.555 112.509C93.811 112.82 94.006 113.201 94.14 113.654C94.274 114.103 94.342 114.619 94.342 115.202V117.347ZM89.579 117.115L93.146 114.378C93.079 113.77 92.901 113.308 92.611 112.994C92.326 112.675 91.913 112.516 91.372 112.516C90.76 112.516 90.307 112.723 90.013 113.138C89.724 113.549 89.579 114.151 89.579 114.944V117.115ZM93.171 115.491L89.61 118.216C89.682 118.807 89.864 119.258 90.158 119.568C90.451 119.879 90.86 120.034 91.385 120.034C92.001 120.034 92.452 119.824 92.737 119.405C93.027 118.985 93.171 118.381 93.171 117.593V115.491ZM101.951 117.347C101.951 117.93 101.884 118.448 101.75 118.901C101.616 119.35 101.423 119.73 101.171 120.04C100.919 120.346 100.611 120.579 100.246 120.739C99.881 120.898 99.464 120.978 98.994 120.978C98.529 120.978 98.111 120.898 97.742 120.739C97.377 120.579 97.067 120.346 96.811 120.04C96.555 119.73 96.358 119.35 96.22 118.901C96.085 118.448 96.018 117.93 96.018 117.347V115.202C96.018 114.619 96.085 114.103 96.22 113.654C96.354 113.201 96.547 112.82 96.799 112.509C97.054 112.199 97.365 111.964 97.73 111.805C98.099 111.641 98.516 111.559 98.982 111.559C99.451 111.559 99.869 111.641 100.234 111.805C100.603 111.964 100.913 112.199 101.165 112.509C101.421 112.82 101.616 113.201 101.75 113.654C101.884 114.103 101.951 114.619 101.951 115.202V117.347ZM97.189 117.115L100.756 114.378C100.689 113.77 100.511 113.308 100.221 112.994C99.936 112.675 99.523 112.516 98.982 112.516C98.369 112.516 97.916 112.723 97.623 113.138C97.333 113.549 97.189 114.151 97.189 114.944V117.115ZM100.781 115.491L97.22 118.216C97.291 118.807 97.474 119.258 97.767 119.568C98.061 119.879 98.47 120.034 98.994 120.034C99.611 120.034 100.062 119.824 100.347 119.405C100.636 118.985 100.781 118.381 100.781 117.593V115.491ZM109.611 112.346L105.818 120.852H104.597L108.378 112.711H103.421V111.691H109.611V112.346Z" fill="#3F484B"/>
<path d="M87.5679 178.692C94.1506 178.692 99.4868 173.356 99.4868 166.773C99.4868 160.191 94.1506 154.854 87.5679 154.854C80.9853 154.854 75.649 160.191 75.649 166.773C75.649 173.356 80.9853 178.692 87.5679 178.692Z" fill="url(#paint3_linear_303_81)"/>
<path d="M81.957 163.122H86.683V163.987H84.809V170.083H86.683V170.943H81.957V170.083H83.788V163.987H81.957V163.122ZM88.351 170.943V163.122H90.161C90.706 163.13 91.191 163.223 91.617 163.402C92.047 163.577 92.408 163.824 92.702 164.143C92.999 164.458 93.225 164.838 93.379 165.282C93.536 165.722 93.617 166.211 93.62 166.748V167.323C93.617 167.86 93.536 168.35 93.379 168.794C93.225 169.235 92.999 169.614 92.702 169.933C92.408 170.248 92.047 170.495 91.617 170.674C91.191 170.85 90.706 170.939 90.161 170.943H88.351ZM89.361 163.939V170.132H90.161C90.584 170.128 90.949 170.055 91.257 169.911C91.565 169.765 91.819 169.566 92.02 169.315C92.224 169.065 92.374 168.769 92.471 168.429C92.571 168.089 92.623 167.72 92.627 167.323V166.737C92.623 166.34 92.571 165.973 92.471 165.636C92.371 165.296 92.22 165.002 92.02 164.755C91.819 164.505 91.565 164.308 91.257 164.164C90.949 164.021 90.584 163.946 90.161 163.939H89.361Z" fill="white"/>
<path d="M83.394 157.122C84.717 156.562 86.123 156.278 87.574 156.278C89.025 156.278 90.431 156.562 91.754 157.122C93.033 157.662 94.181 158.437 95.168 159.424C96.155 160.411 96.929 161.559 97.47 162.838L97.608 162.779L97.47 162.838C98.03 164.161 98.314 165.567 98.314 167.018C98.314 168.469 98.03 169.875 97.47 171.198C96.929 172.477 96.155 173.625 95.168 174.612C94.181 175.599 93.033 176.373 91.754 176.914C90.431 177.474 89.025 177.758 87.574 177.758C86.123 177.758 84.717 177.474 83.394 176.914L83.336 177.052L83.394 176.914C82.115 176.373 80.967 175.599 79.98 174.612C78.993 173.625 78.219 172.477 77.678 171.198L77.54 171.256L77.678 171.198C77.118 169.875 76.834 168.469 76.834 167.018C76.834 165.567 77.118 164.161 77.678 162.838L77.54 162.779L77.678 162.838C78.219 161.559 78.993 160.411 79.98 159.424C80.967 158.437 82.115 157.663 83.394 157.122ZM87.574 154.955C80.912 154.955 75.511 160.356 75.511 167.018C75.511 173.68 80.912 179.081 87.574 179.081C94.236 179.081 99.637 173.68 99.637 167.018C99.637 160.356 94.236 154.955 87.574 154.955Z" fill="url(#paint4_linear_303_81)" stroke="url(#paint5_linear_303_81)" stroke-width="0.3"/>
<path d="M79.4659 175.205L95.6559 159.014" stroke="url(#paint6_linear_303_81)" stroke-width="1.5" stroke-miterlimit="10"/>
<path d="M83.394 3.26651C84.717 2.70681 86.123 2.42301 87.574 2.42301C89.025 2.42301 90.431 2.70681 91.754 3.26641C93.033 3.80731 94.181 4.58171 95.168 5.56851C96.155 6.55541 96.929 7.70391 97.47 8.98261L97.608 8.92421L97.47 8.98261C98.03 10.3059 98.314 11.712 98.314 13.1627C98.314 14.6133 98.03 16.0195 97.47 17.3427C96.929 18.6214 96.155 19.77 95.168 20.7568C94.181 21.7436 93.033 22.518 91.754 23.0589C90.431 23.6186 89.025 23.9024 87.574 23.9024C86.123 23.9024 84.717 23.6186 83.394 23.0589L83.336 23.197L83.394 23.0589C82.115 22.518 80.967 21.7436 79.98 20.7568C78.993 19.77 78.219 18.6214 77.678 17.3427L77.54 17.4011L77.678 17.3427C77.118 16.0195 76.834 14.6133 76.834 13.1627C76.834 11.712 77.118 10.3059 77.678 8.98261L77.54 8.92421L77.678 8.98261C78.219 7.70391 78.993 6.55541 79.98 5.56861C80.967 4.58181 82.115 3.80731 83.394 3.26651ZM87.574 1.09961C80.912 1.09961 75.511 6.50041 75.511 13.1627C75.511 19.8249 80.912 25.2258 87.574 25.2258C94.236 25.2258 99.637 19.8249 99.637 13.1627C99.637 6.50041 94.236 1.09961 87.574 1.09961Z" fill="url(#paint7_linear_303_81)" stroke="url(#paint8_linear_303_81)" stroke-width="0.3"/>
<path d="M79.4659 21.3495L95.6559 5.15918" stroke="url(#paint9_linear_303_81)" stroke-width="1.5" stroke-miterlimit="10"/>
<defs>
<linearGradient id="paint0_linear_303_81" x1="98.35" y1="1.7959" x2="70.459" y2="11.3147" gradientUnits="userSpaceOnUse">
<stop stop-color="#53C1FF"/>
<stop offset="1" stop-color="#0053D0"/>
</linearGradient>
<linearGradient id="paint1_linear_303_81" x1="99.1369" y1="1" x2="70.5779" y2="10.7468" gradientUnits="userSpaceOnUse">
<stop stop-color="#CD5CAE"/>
<stop offset="1" stop-color="#FF3685"/>
</linearGradient>
<linearGradient id="paint2_linear_303_81" x1="98.35" y1="155.118" x2="70.459" y2="164.637" gradientUnits="userSpaceOnUse">
<stop stop-color="#53C1FF"/>
<stop offset="1" stop-color="#0053D0"/>
</linearGradient>
<linearGradient id="paint3_linear_303_81" x1="99.1369" y1="154.854" x2="70.5779" y2="164.601" gradientUnits="userSpaceOnUse">
<stop stop-color="#CD5CAE"/>
<stop offset="1" stop-color="#FF3685"/>
</linearGradient>
<linearGradient id="paint4_linear_303_81" x1="99.137" y1="155.105" x2="70.592" y2="164.847" gradientUnits="userSpaceOnUse">
<stop stop-color="#53C1FF"/>
<stop offset="1" stop-color="#0053D0"/>
</linearGradient>
<linearGradient id="paint5_linear_303_81" x1="99.137" y1="155.105" x2="70.592" y2="164.847" gradientUnits="userSpaceOnUse">
<stop stop-color="#53C1FF"/>
<stop offset="1" stop-color="#0053D0"/>
</linearGradient>
<linearGradient id="paint6_linear_303_81" x1="95.4179" y1="159.014" x2="76.0209" y2="165.634" gradientUnits="userSpaceOnUse">
<stop stop-color="#53C1FF"/>
<stop offset="1" stop-color="#0053D0"/>
</linearGradient>
<linearGradient id="paint7_linear_303_81" x1="99.137" y1="1.24961" x2="70.592" y2="10.9916" gradientUnits="userSpaceOnUse">
<stop stop-color="#53C1FF"/>
<stop offset="1" stop-color="#0053D0"/>
</linearGradient>
<linearGradient id="paint8_linear_303_81" x1="99.137" y1="1.24961" x2="70.592" y2="10.9916" gradientUnits="userSpaceOnUse">
<stop stop-color="#53C1FF"/>
<stop offset="1" stop-color="#0053D0"/>
</linearGradient>
<linearGradient id="paint9_linear_303_81" x1="95.4179" y1="5.15918" x2="76.0209" y2="11.7791" gradientUnits="userSpaceOnUse">
<stop stop-color="#53C1FF"/>
<stop offset="1" stop-color="#0053D0"/>
</linearGradient>
</defs>
</svg>
