<svg width="77" height="97" viewBox="0 0 77 97" fill="none" xmlns="http://www.w3.org/2000/svg">
<path d="M65.4744 32.7549H10C4.47715 32.7549 0 37.2321 0 42.7549V86.7788C0 92.3016 4.47715 96.7788 10 96.7788H65.4744C70.9972 96.7788 75.4744 92.3016 75.4744 86.7788V42.7549C75.4744 37.2321 70.9972 32.7549 65.4744 32.7549Z" fill="url(#paint0_linear_1_14)"/>
<path d="M25.084 73.4123L27.7978 64.6963H28.666L25.4736 74.6493H24.7148L21.5224 64.6963H22.3906L25.084 73.4123ZM36.8691 70.3363C36.8646 70.6733 36.8349 71.0193 36.7802 71.3753C36.7256 71.7263 36.639 72.0673 36.5205 72.4003C36.4065 72.7283 36.2607 73.0383 36.083 73.3303C35.9052 73.6173 35.6933 73.8703 35.4472 74.0893C35.2057 74.3033 34.9254 74.4743 34.6064 74.6013C34.2874 74.7243 33.9297 74.7863 33.5332 74.7863C33.1412 74.7863 32.7858 74.7243 32.4668 74.6013C32.1478 74.4743 31.8629 74.3033 31.6123 74.0893C31.3662 73.8703 31.152 73.6153 30.9697 73.3233C30.792 73.0313 30.6439 72.7213 30.5254 72.3933C30.4114 72.0613 30.3248 71.7193 30.2656 71.3683C30.2109 71.0173 30.1813 70.6733 30.1767 70.3363V69.0233C30.1813 68.6863 30.2109 68.3423 30.2656 67.9913C30.3248 67.6353 30.4114 67.2943 30.5254 66.9663C30.6393 66.6333 30.7851 66.3213 30.9629 66.0293C31.1452 65.7373 31.3593 65.4823 31.6054 65.2633C31.8515 65.0453 32.1318 64.8743 32.4463 64.7513C32.7653 64.6233 33.123 64.5593 33.5195 64.5593C33.916 64.5593 34.2737 64.6233 34.5927 64.7513C34.9118 64.8743 35.1943 65.0453 35.4404 65.2633C35.6911 65.4783 35.9052 65.7313 36.083 66.0223C36.2607 66.3143 36.4065 66.6263 36.5205 66.9593C36.639 67.2873 36.7256 67.6293 36.7802 67.9843C36.8349 68.3353 36.8646 68.6813 36.8691 69.0233V70.3363ZM36.0625 69.0093C36.0579 68.7453 36.0374 68.4693 36.001 68.1823C35.9645 67.8953 35.9052 67.6153 35.8232 67.3423C35.7412 67.0683 35.6341 66.8083 35.5019 66.5623C35.3743 66.3123 35.2171 66.0933 35.0302 65.9063C34.8434 65.7193 34.6246 65.5713 34.374 65.4623C34.1233 65.3523 33.8385 65.2983 33.5195 65.2983C33.2005 65.2983 32.9157 65.3553 32.665 65.4683C32.4189 65.5783 32.2024 65.7263 32.0156 65.9133C31.8287 66.1003 31.6692 66.3183 31.5371 66.5693C31.4095 66.8153 31.3047 67.0753 31.2226 67.3483C31.1406 67.6223 31.0814 67.9023 31.0449 68.1893C31.0084 68.4763 30.9879 68.7503 30.9834 69.0093V70.3363C30.9879 70.6003 31.0084 70.8763 31.0449 71.1633C31.0859 71.4453 31.1474 71.7263 31.2295 72.0043C31.3115 72.2773 31.4163 72.5393 31.5439 72.7903C31.6761 73.0363 31.8356 73.2523 32.0224 73.4393C32.2093 73.6263 32.428 73.7763 32.6787 73.8903C32.9293 74.0003 33.2142 74.0543 33.5332 74.0543C33.8567 74.0543 34.1416 74.0003 34.3877 73.8903C34.6383 73.7763 34.8571 73.6263 35.0439 73.4393C35.2308 73.2523 35.388 73.0363 35.5156 72.7903C35.6478 72.5393 35.7526 72.2773 35.8301 72.0043C35.9121 71.7263 35.969 71.4453 36.001 71.1633C36.0374 70.8763 36.0579 70.6003 36.0625 70.3363V69.0093ZM45.5234 65.4143H42.3515V74.6493H41.5517L41.5586 65.4143H38.3799V64.6963H45.5234V65.4143ZM52.7217 69.8783H48.333V73.9383H53.3916V74.6493H47.5195V64.6963H53.3642V65.4143H48.333V69.1673H52.7217V69.8783Z" fill="white"/>
<path d="M61.2892 50.4873H13.0948C11.337 50.4873 9.91211 51.9122 9.91211 53.67C9.91211 55.4277 11.337 56.8526 13.0948 56.8526H61.2892C63.047 56.8526 64.4719 55.4277 64.4719 53.67C64.4719 51.9122 63.047 50.4873 61.2892 50.4873Z" fill="#3F484B"/>
<mask id="mask0_1_14" style="mask-type:alpha" maskUnits="userSpaceOnUse" x="0" y="0" width="77" height="52">
<path d="M76.2621 0H0.863708V51.2515H76.2621V0Z" fill="#D9D9D9"/>
</mask>
<g mask="url(#mask0_1_14)">
<g filter="url(#filter0_i_1_14)">
<path d="M50.0478 10.585L18.6287 42.0041C17.0666 43.5662 17.0666 46.0988 18.6287 47.6609L31.7113 60.7435C33.2734 62.3056 35.8061 62.3056 37.3682 60.7435L68.7873 29.3245C70.3494 27.7624 70.3494 25.2297 68.7873 23.6676L55.7047 10.585C54.1426 9.02289 51.6099 9.02289 50.0478 10.585Z" fill="white"/>
<path d="M49.6943 10.2314L18.2752 41.6505C16.5178 43.4079 16.5178 46.2571 18.2752 48.0145L31.3578 61.0971C33.1151 62.8545 35.9644 62.8545 37.7218 61.0971L69.1408 29.678C70.8982 27.9206 70.8982 25.0714 69.1408 23.314L56.0582 10.2314C54.3009 8.47408 51.4516 8.47408 49.6943 10.2314Z" stroke="#3F484B"/>
</g>
</g>
<defs>
<filter id="filter0_i_1_14" x="16.4572" y="8.41341" width="57.679" height="57.679" filterUnits="userSpaceOnUse" color-interpolation-filters="sRGB">
<feFlood flood-opacity="0" result="BackgroundImageFix"/>
<feBlend mode="normal" in="SourceGraphic" in2="BackgroundImageFix" result="shape"/>
<feColorMatrix in="SourceAlpha" type="matrix" values="0 0 0 0 0 0 0 0 0 0 0 0 0 0 0 0 0 0 127 0" result="hardAlpha"/>
<feOffset dx="3.17726" dy="3.17726"/>
<feGaussianBlur stdDeviation="2"/>
<feComposite in2="hardAlpha" operator="arithmetic" k2="-1" k3="1"/>
<feColorMatrix type="matrix" values="0 0 0 0 0.247059 0 0 0 0 0.282353 0 0 0 0 0.294118 0 0 0 1 0"/>
<feBlend mode="normal" in2="shape" result="effect1_innerShadow_1_14"/>
</filter>
<linearGradient id="paint0_linear_1_14" x1="74.3645" y1="32.7549" x2="-12.5238" y2="67.7123" gradientUnits="userSpaceOnUse">
<stop stop-color="#53C1FF"/>
<stop offset="1" stop-color="#0053D0"/>
</linearGradient>
</defs>
</svg>
