<svg width="220" height="220" viewBox="0 0 220 220" fill="none" xmlns="http://www.w3.org/2000/svg">
<path d="M79 91.1133C79 72.6611 93.9585 57.7026 112.411 57.7026C130.863 57.7026 145.821 72.6611 145.821 91.1133C145.821 109.565 130.863 124.524 112.411 124.524H79V91.1133Z" fill="url(#paint0_linear_709_4077)" stroke="#606C71"/>
<rect x="26.8984" y="28.1538" width="167" height="129.901" rx="64.9506" stroke="#0197FF"/>
<rect x="1.33691" y="0.546387" width="218.123" height="185.053" rx="92.5266" stroke="#0197FF" stroke-linecap="round" stroke-dasharray="3 3"/>
<circle cx="140.611" cy="112.341" r="12.2129" fill="url(#paint1_linear_709_4077)" stroke="#3F484B"/>
<path d="M136.805 111.486L142.946 111.486H142.946C143.163 111.486 143.379 111.486 143.595 111.485V115.939H136.805V111.486Z" fill="#606C71" stroke="#3F484B"/>
<path d="M142.251 109.711H142.252H142.254H142.256H142.259H142.261H142.263H142.265H142.268H142.27H142.272H142.274H142.276H142.279H142.281H142.283H142.285H142.288H142.29H142.292H142.294H142.297H142.299H142.301H142.303H142.306H142.308H142.31H142.312H142.315H142.317H142.319H142.321H142.324H142.326H142.328H142.33H142.333H142.335H142.337H142.339H142.341H142.344H142.346H142.348H142.35H142.353H142.355H142.357H142.359H142.362H142.364H142.366H142.368H142.371H142.373H142.375H142.377H142.38H142.382H142.384H142.386H142.389H142.391H142.393H142.395H142.397H142.4H142.402H142.404H142.406H142.407C142.408 109.461 142.408 109.215 142.403 108.967C142.398 108.65 142.331 108.35 142.199 108.067C141.82 107.251 140.988 106.706 139.982 106.792L139.939 106.294L139.982 106.792C139.551 106.828 139.165 106.985 138.825 107.26C138.317 107.672 138.037 108.185 137.995 108.819C137.975 109.115 137.979 109.401 137.984 109.708H137.986H137.988H137.99H137.992H137.994H137.997H137.999H138.001H138.003H138.006H138.008H138.01H138.012H138.015H138.017H138.019H138.021H138.024H138.026H138.028H138.03H138.033H138.035H138.037H138.039H138.041H138.044H138.046H138.048H138.05H138.053H138.055H138.057H138.059H138.062H138.064H138.066H138.068H138.071H138.073H138.075H138.077H138.08H138.082H138.084H138.086H138.089H138.091H138.093H138.095H138.097H138.1H138.102H138.104H138.106H138.109H138.111H138.113H138.115H138.118H138.12H138.122H138.124H138.127H138.129H138.131H138.133H138.136H138.138H138.14H138.142H138.143C138.143 109.468 138.142 109.226 138.145 108.984L138.145 108.984C138.146 108.846 138.159 108.701 138.188 108.557C138.439 107.298 139.868 106.568 141.036 107.117L142.251 109.711ZM142.251 109.711C142.252 109.476 142.252 109.236 142.249 109C142.242 108.587 142.142 108.204 141.928 107.873C141.715 107.542 141.408 107.292 141.036 107.117L142.251 109.711Z" fill="#606C71" stroke="#3F484B"/>
<circle cx="110.398" cy="192.877" r="26.75" fill="url(#paint2_linear_709_4077)"/>
<path d="M95.0988 194.4L95.0988 194.4L110.118 185.228C110.118 185.228 110.118 185.228 110.118 185.228C110.326 185.101 110.588 185.101 110.795 185.229L125.901 194.484L125.901 194.484C126.094 194.602 126.213 194.813 126.213 195.041V201.124C126.213 201.355 126.091 201.569 125.894 201.686L125.894 201.686L110.763 210.718C110.553 210.843 110.292 210.84 110.085 210.711L95.0924 201.315C94.9022 201.196 94.7861 200.987 94.7861 200.761V194.958C94.7861 194.73 94.9049 194.518 95.0988 194.4Z" fill="url(#paint3_linear_709_4077)" stroke="#3F484B"/>
<path d="M109.815 184.864L94.7962 194.036C94.4534 194.245 94.2441 194.619 94.2441 195.021V200.824C94.2441 201.222 94.4485 201.591 94.7849 201.802L109.777 211.197C110.143 211.427 110.606 211.432 110.977 211.21L126.109 202.179C126.457 201.97 126.671 201.594 126.671 201.187V195.104C126.671 194.703 126.462 194.33 126.12 194.12L111.015 184.865C110.647 184.64 110.184 184.639 109.815 184.864Z" fill="url(#paint4_linear_709_4077)" stroke="#3F484B" stroke-miterlimit="10"/>
<path d="M126.376 194.416L110.415 204.164L94.3706 194.458" fill="url(#paint5_linear_709_4077)"/>
<path d="M126.376 194.416L110.415 204.164L94.3706 194.458" stroke="#3F484B" stroke-miterlimit="10"/>
<path d="M110.394 211.339V204.196" stroke="#3F484B" stroke-miterlimit="10"/>
<path d="M95.0988 183.767L95.0988 183.767L110.118 174.595C110.118 174.595 110.118 174.595 110.118 174.595C110.326 174.468 110.588 174.468 110.795 174.596L125.901 183.851L125.901 183.851C126.094 183.969 126.213 184.18 126.213 184.409V190.492C126.213 190.722 126.091 190.936 125.894 191.053L125.894 191.053L110.763 200.085C110.553 200.21 110.292 200.207 110.085 200.078L95.0924 190.683C94.9022 190.563 94.7861 190.354 94.7861 190.128V184.325C94.7861 184.097 94.9049 183.885 95.0988 183.767Z" fill="url(#paint6_linear_709_4077)" stroke="#3F484B"/>
<path d="M109.815 174.222L94.7962 183.393C94.4534 183.603 94.2441 183.976 94.2441 184.379V190.181C94.2441 190.579 94.4485 190.949 94.7849 191.16L109.777 200.555C110.143 200.784 110.606 200.789 110.977 200.568L126.109 191.536C126.457 191.328 126.671 190.951 126.671 190.545V184.462C126.671 184.06 126.462 183.687 126.12 183.478L111.015 174.223C110.647 173.997 110.184 173.997 109.815 174.222Z" fill="url(#paint7_linear_709_4077)" stroke="#3F484B" stroke-miterlimit="10"/>
<path d="M126.376 183.772L110.415 193.521L94.3706 183.815" fill="url(#paint8_linear_709_4077)"/>
<path d="M126.376 183.772L110.415 193.521L94.3706 183.815" stroke="#3F484B" stroke-miterlimit="10"/>
<path d="M110.394 200.696V193.553" stroke="#3F484B" stroke-miterlimit="10"/>
<defs>
<linearGradient id="paint0_linear_709_4077" x1="145.324" y1="57.2026" x2="64.0719" y2="84.9333" gradientUnits="userSpaceOnUse">
<stop stop-color="#53C1FF"/>
<stop offset="1" stop-color="#0053D0"/>
</linearGradient>
<linearGradient id="paint1_linear_709_4077" x1="152.95" y1="99.6284" x2="122.489" y2="110.024" gradientUnits="userSpaceOnUse">
<stop stop-color="#FDFF97"/>
<stop offset="1" stop-color="#F1DA09"/>
</linearGradient>
<linearGradient id="paint2_linear_709_4077" x1="136.362" y1="166.127" x2="72.267" y2="188.002" gradientUnits="userSpaceOnUse">
<stop stop-color="#FDFF97"/>
<stop offset="1" stop-color="#F1DA09"/>
</linearGradient>
<linearGradient id="paint3_linear_709_4077" x1="126.236" y1="184.633" x2="89.2312" y2="199.984" gradientUnits="userSpaceOnUse">
<stop stop-color="#FDFF97"/>
<stop offset="1" stop-color="#F1DA09"/>
</linearGradient>
<linearGradient id="paint4_linear_709_4077" x1="126.194" y1="184.696" x2="89.1892" y2="200.047" gradientUnits="userSpaceOnUse">
<stop stop-color="#FDFF97"/>
<stop offset="1" stop-color="#F1DA09"/>
</linearGradient>
<linearGradient id="paint5_linear_709_4077" x1="125.905" y1="194.416" x2="106.925" y2="215.683" gradientUnits="userSpaceOnUse">
<stop stop-color="#FDFF97"/>
<stop offset="1" stop-color="#F1DA09"/>
</linearGradient>
<linearGradient id="paint6_linear_709_4077" x1="126.236" y1="174" x2="89.2312" y2="189.351" gradientUnits="userSpaceOnUse">
<stop stop-color="#FDFF97"/>
<stop offset="1" stop-color="#F1DA09"/>
</linearGradient>
<linearGradient id="paint7_linear_709_4077" x1="126.194" y1="174.053" x2="89.1893" y2="189.404" gradientUnits="userSpaceOnUse">
<stop stop-color="#FDFF97"/>
<stop offset="1" stop-color="#F1DA09"/>
</linearGradient>
<linearGradient id="paint8_linear_709_4077" x1="125.905" y1="183.772" x2="106.925" y2="205.04" gradientUnits="userSpaceOnUse">
<stop stop-color="#FDFF97"/>
<stop offset="1" stop-color="#F1DA09"/>
</linearGradient>
</defs>
</svg>
