<svg width="203" height="191" viewBox="0 0 203 191" fill="none" xmlns="http://www.w3.org/2000/svg">
<path d="M0.525391 50.5215C0.525391 22.9072 22.9112 0.521484 50.5254 0.521484C78.1396 0.521484 100.525 22.9072 100.525 50.5215C100.525 78.1357 78.1396 100.521 50.5254 100.521H0.525391V50.5215Z" fill="url(#paint0_linear_875_7956)"/>
<path d="M27.2673 46.7054H24.0193L23.5153 49.7854H26.7913L26.4553 51.8014H23.1793L22.3673 56.6454H20.2393L21.0513 51.8014H17.6353L16.8233 56.6454H14.6673L15.4793 51.8014H12.2313L12.5673 49.7854H15.8153L16.3193 46.7054H13.0433L13.3793 44.6614H16.6553L17.4673 39.8454H19.6233L18.8113 44.6614H22.2273L23.0393 39.8454H25.1673L24.3553 44.6614H27.6033L27.2673 46.7054ZM21.3873 49.7854L21.8913 46.7054H18.4753L17.9713 49.7854H21.3873Z" fill="white"/>
<path d="M37.9712 51.6274C37.9712 51.4878 37.9437 51.363 37.8887 51.2529C37.8337 51.1387 37.7406 51.035 37.6094 50.9419C37.4782 50.8488 37.3047 50.7642 37.0889 50.688C36.873 50.6076 36.6043 50.5356 36.2827 50.4722C35.8892 50.3918 35.5295 50.2944 35.2036 50.1802C34.882 50.0659 34.6048 49.9305 34.3721 49.7739C34.1436 49.6131 33.9658 49.4269 33.8389 49.2153C33.7119 48.9995 33.6484 48.7498 33.6484 48.4663C33.6484 48.187 33.714 47.9268 33.8452 47.6855C33.9764 47.4401 34.1605 47.2264 34.3975 47.0444C34.6344 46.8625 34.9159 46.7186 35.2417 46.6128C35.5718 46.507 35.9336 46.4541 36.3271 46.4541C36.7503 46.4541 37.1312 46.5091 37.4697 46.6191C37.8083 46.7292 38.096 46.8815 38.333 47.0762C38.57 47.2708 38.752 47.4993 38.8789 47.7617C39.0101 48.0199 39.0757 48.2992 39.0757 48.5996H37.9014C37.9014 48.4515 37.8633 48.3076 37.7871 48.168C37.7109 48.0241 37.6051 47.8971 37.4697 47.7871C37.3343 47.6771 37.1693 47.5882 36.9746 47.5205C36.7842 47.4528 36.5684 47.4189 36.3271 47.4189C36.0775 47.4189 35.8574 47.4465 35.667 47.5015C35.4808 47.5565 35.3242 47.6305 35.1973 47.7236C35.0745 47.8167 34.9814 47.9246 34.918 48.0474C34.8545 48.1701 34.8228 48.297 34.8228 48.4282C34.8228 48.5636 34.8481 48.6842 34.8989 48.79C34.9497 48.8958 35.0365 48.991 35.1592 49.0757C35.2861 49.1603 35.4533 49.2365 35.6606 49.3042C35.8722 49.3719 36.1388 49.4375 36.4604 49.501C36.8836 49.5898 37.2624 49.6935 37.5967 49.812C37.931 49.9263 38.2124 50.0659 38.4409 50.231C38.6694 50.3918 38.8429 50.5801 38.9614 50.7959C39.0841 51.0117 39.1455 51.2614 39.1455 51.5449C39.1455 51.8496 39.0757 52.1268 38.936 52.3765C38.8006 52.6261 38.6102 52.8398 38.3647 53.0176C38.1193 53.1953 37.8252 53.3328 37.4824 53.4302C37.1396 53.5275 36.7651 53.5762 36.3589 53.5762C35.8934 53.5762 35.4787 53.5148 35.1147 53.3921C34.7508 53.2651 34.4419 53.1001 34.188 52.897C33.9383 52.6896 33.7458 52.4505 33.6104 52.1797C33.4792 51.9089 33.4136 51.6274 33.4136 51.3354H34.5879C34.6048 51.5767 34.6683 51.7798 34.7783 51.9448C34.8926 52.1099 35.0322 52.2432 35.1973 52.3447C35.3665 52.4463 35.5527 52.5182 35.7559 52.5605C35.959 52.6029 36.16 52.624 36.3589 52.624C36.854 52.624 37.2454 52.533 37.5332 52.3511C37.821 52.1691 37.967 51.9279 37.9712 51.6274ZM41.2689 46.5811H44.7792V52.4336H47.0199V53.4492H41.2689V52.4336H43.6049V47.603H41.2689V46.5811ZM43.4525 44.7783C43.4525 44.5837 43.5096 44.4207 43.6239 44.2896C43.7424 44.1541 43.9201 44.0864 44.1571 44.0864C44.3899 44.0864 44.5655 44.1541 44.684 44.2896C44.8025 44.4207 44.8617 44.5837 44.8617 44.7783C44.8617 44.9688 44.8025 45.1274 44.684 45.2544C44.5655 45.3813 44.3899 45.4448 44.1571 45.4448C43.9201 45.4448 43.7424 45.3813 43.6239 45.2544C43.5096 45.1274 43.4525 44.9688 43.4525 44.7783ZM49.302 46.5811L49.3337 47.2285C49.4734 46.9873 49.6554 46.799 49.8796 46.6636C50.1082 46.5282 50.3832 46.4583 50.7048 46.4541C51.3354 46.4541 51.7564 46.6995 51.968 47.1904C52.1034 46.9704 52.2812 46.7948 52.5012 46.6636C52.7255 46.5282 52.9963 46.4583 53.3137 46.4541C53.8173 46.4541 54.2045 46.6086 54.4754 46.9175C54.7462 47.2264 54.8816 47.694 54.8816 48.3203V53.4492H53.7644V48.3076C53.7644 47.7321 53.4999 47.4465 52.971 47.4507C52.8313 47.4507 52.7107 47.4697 52.6091 47.5078C52.5076 47.5459 52.4229 47.5988 52.3552 47.6665C52.2875 47.73 52.2346 47.8062 52.1965 47.895C52.1585 47.9797 52.1331 48.0685 52.1204 48.1616V53.4492H51.0032V48.3013C51.0032 48.0262 50.9418 47.8146 50.8191 47.6665C50.6964 47.5184 50.5017 47.4465 50.2351 47.4507C49.9897 47.4507 49.7992 47.4993 49.6638 47.5967C49.5284 47.694 49.429 47.8231 49.3655 47.9839V53.4492H48.2483V46.5811H49.302ZM62.2355 50.0913C62.2355 50.5822 62.1762 51.0413 62.0578 51.4688C61.9393 51.8919 61.7658 52.2601 61.5372 52.5732C61.3087 52.8864 61.0252 53.1318 60.6867 53.3096C60.3524 53.4873 59.9694 53.5762 59.5377 53.5762C59.1188 53.5762 58.7485 53.5085 58.4269 53.373C58.1095 53.2376 57.8366 53.043 57.608 52.7891V56.0898H56.4337V46.5811H57.5065L57.5636 47.3301C57.7921 47.0465 58.0672 46.8307 58.3888 46.6826C58.7147 46.5303 59.0913 46.4541 59.5187 46.4541C59.9588 46.4541 60.3481 46.5409 60.6867 46.7144C61.0252 46.8879 61.3087 47.1291 61.5372 47.438C61.7658 47.7469 61.9393 48.1172 62.0578 48.5488C62.1762 48.9762 62.2355 49.446 62.2355 49.958V50.0913ZM61.0612 49.958C61.0612 49.6237 61.0231 49.3063 60.9469 49.0059C60.875 48.7012 60.7607 48.4346 60.6041 48.2061C60.4518 47.9733 60.2571 47.7892 60.0202 47.6538C59.7832 47.5184 59.4996 47.4507 59.1696 47.4507C58.7929 47.4507 58.4756 47.5396 58.2174 47.7173C57.9635 47.8908 57.7604 48.1151 57.608 48.3901V51.6973C57.7604 51.9681 57.9635 52.1903 58.2174 52.3638C58.4713 52.533 58.7929 52.6177 59.1823 52.6177C59.5081 52.6177 59.7895 52.55 60.0265 52.4146C60.2635 52.2749 60.4581 52.0887 60.6105 51.856C60.7628 51.6232 60.875 51.3545 60.9469 51.0498C61.0231 50.7451 61.0612 50.4256 61.0612 50.0913V49.958ZM64.3018 43.6992H67.812V52.4336H70.0528V53.4492H64.3018V52.4336H66.6377V44.7212H64.3018V43.6992ZM74.8295 53.5762C74.3471 53.5762 73.9027 53.4937 73.4965 53.3286C73.0945 53.1636 72.7496 52.9329 72.4618 52.6367C72.1741 52.3405 71.9498 51.9893 71.789 51.583C71.6282 51.1768 71.5478 50.7345 71.5478 50.2563V49.9897C71.5478 49.4354 71.6366 48.9403 71.8144 48.5044C71.9921 48.0643 72.227 47.694 72.5189 47.3936C72.8152 47.0889 73.1495 46.8561 73.5219 46.6953C73.8985 46.5345 74.2836 46.4541 74.6771 46.4541C75.1723 46.4541 75.6039 46.5409 75.9721 46.7144C76.3445 46.8836 76.6534 47.1206 76.8988 47.4253C77.1443 47.7257 77.3262 48.0812 77.4447 48.4917C77.5674 48.9022 77.6288 49.3465 77.6288 49.8247V50.3516H72.7221C72.7348 50.6647 72.794 50.9588 72.8998 51.2339C73.0098 51.509 73.1579 51.7502 73.3441 51.9575C73.5346 52.1606 73.761 52.3215 74.0233 52.4399C74.2857 52.5584 74.5756 52.6177 74.893 52.6177C75.3119 52.6177 75.6843 52.533 76.0102 52.3638C76.336 52.1945 76.6068 51.9702 76.8227 51.6909L77.5399 52.2495C77.4257 52.423 77.2818 52.5902 77.1083 52.751C76.939 52.9076 76.7423 53.0472 76.518 53.1699C76.2937 53.2926 76.0398 53.39 75.7562 53.4619C75.4727 53.5381 75.1638 53.5762 74.8295 53.5762ZM74.6771 47.4189C74.4402 47.4189 74.2159 47.4634 74.0043 47.5522C73.7927 47.6369 73.6023 47.7638 73.433 47.9331C73.2637 48.0981 73.1199 48.3034 73.0014 48.5488C72.8871 48.79 72.8067 49.0693 72.7602 49.3867H76.4545V49.2979C76.4418 49.0693 76.3974 48.8429 76.3212 48.6187C76.2492 48.3944 76.1413 48.1934 75.9975 48.0156C75.8536 47.8379 75.6716 47.694 75.4516 47.584C75.2357 47.474 74.9776 47.4189 74.6771 47.4189ZM82.3103 49.1265L84.1448 46.5811H85.5222L82.9641 49.9771L85.5921 53.4492H84.2337L82.3357 50.834L80.4378 53.4492H79.0667L81.6946 49.9771L79.1365 46.5811H80.4949L82.3103 49.1265Z" fill="white"/>
<path d="M103.025 140.521C103.025 113.183 125.187 91.0215 152.525 91.0215C179.863 91.0215 202.025 113.183 202.025 140.521C202.025 167.86 179.863 190.021 152.525 190.021H103.025V140.521Z" stroke="#70F0F9"/>
<path d="M129.625 139.045H126.377L125.873 142.125H129.149L128.813 144.141H125.537L124.725 148.985H122.597L123.409 144.141H119.993L119.181 148.985H117.025L117.837 144.141H114.589L114.925 142.125H118.173L118.677 139.045H115.401L115.737 137.001H119.013L119.825 132.185H121.981L121.169 137.001H124.585L125.397 132.185H127.525L126.713 137.001H129.961L129.625 139.045ZM123.745 142.125L124.249 139.045H120.833L120.329 142.125H123.745Z" fill="#70F0F9"/>
<path d="M140.653 143.933C140.653 143.793 140.625 143.669 140.57 143.559C140.515 143.444 140.422 143.341 140.291 143.248C140.16 143.154 139.986 143.07 139.771 142.994C139.555 142.913 139.286 142.841 138.964 142.778C138.571 142.697 138.211 142.6 137.885 142.486C137.564 142.372 137.286 142.236 137.054 142.08C136.825 141.919 136.647 141.733 136.521 141.521C136.394 141.305 136.33 141.056 136.33 140.772C136.33 140.493 136.396 140.232 136.527 139.991C136.658 139.746 136.842 139.532 137.079 139.35C137.316 139.168 137.597 139.024 137.923 138.918C138.253 138.813 138.615 138.76 139.009 138.76C139.432 138.76 139.813 138.815 140.151 138.925C140.49 139.035 140.778 139.187 141.015 139.382C141.252 139.576 141.434 139.805 141.561 140.067C141.692 140.326 141.757 140.605 141.757 140.905H140.583C140.583 140.757 140.545 140.613 140.469 140.474C140.393 140.33 140.287 140.203 140.151 140.093C140.016 139.983 139.851 139.894 139.656 139.826C139.466 139.758 139.25 139.725 139.009 139.725C138.759 139.725 138.539 139.752 138.349 139.807C138.162 139.862 138.006 139.936 137.879 140.029C137.756 140.122 137.663 140.23 137.6 140.353C137.536 140.476 137.504 140.603 137.504 140.734C137.504 140.869 137.53 140.99 137.581 141.096C137.631 141.201 137.718 141.297 137.841 141.381C137.968 141.466 138.135 141.542 138.342 141.61C138.554 141.678 138.82 141.743 139.142 141.807C139.565 141.896 139.944 141.999 140.278 142.118C140.613 142.232 140.894 142.372 141.123 142.537C141.351 142.697 141.525 142.886 141.643 143.102C141.766 143.317 141.827 143.567 141.827 143.851C141.827 144.155 141.757 144.432 141.618 144.682C141.482 144.932 141.292 145.146 141.046 145.323C140.801 145.501 140.507 145.639 140.164 145.736C139.821 145.833 139.447 145.882 139.041 145.882C138.575 145.882 138.16 145.82 137.796 145.698C137.432 145.571 137.124 145.406 136.87 145.203C136.62 144.995 136.427 144.756 136.292 144.485C136.161 144.215 136.095 143.933 136.095 143.641H137.27C137.286 143.882 137.35 144.085 137.46 144.25C137.574 144.416 137.714 144.549 137.879 144.65C138.048 144.752 138.234 144.824 138.438 144.866C138.641 144.909 138.842 144.93 139.041 144.93C139.536 144.93 139.927 144.839 140.215 144.657C140.503 144.475 140.649 144.234 140.653 143.933ZM143.951 138.887H147.461V144.739H149.702V145.755H143.951V144.739H146.287V139.909H143.951V138.887ZM146.134 137.084C146.134 136.889 146.191 136.726 146.306 136.595C146.424 136.46 146.602 136.392 146.839 136.392C147.071 136.392 147.247 136.46 147.366 136.595C147.484 136.726 147.543 136.889 147.543 137.084C147.543 137.274 147.484 137.433 147.366 137.56C147.247 137.687 147.071 137.75 146.839 137.75C146.602 137.75 146.424 137.687 146.306 137.56C146.191 137.433 146.134 137.274 146.134 137.084ZM151.984 138.887L152.015 139.534C152.155 139.293 152.337 139.105 152.561 138.969C152.79 138.834 153.065 138.764 153.386 138.76C154.017 138.76 154.438 139.005 154.65 139.496C154.785 139.276 154.963 139.1 155.183 138.969C155.407 138.834 155.678 138.764 155.995 138.76C156.499 138.76 156.886 138.914 157.157 139.223C157.428 139.532 157.563 140 157.563 140.626V145.755H156.446V140.613C156.446 140.038 156.182 139.752 155.653 139.756C155.513 139.756 155.392 139.775 155.291 139.813C155.189 139.852 155.105 139.904 155.037 139.972C154.969 140.036 154.916 140.112 154.878 140.201C154.84 140.285 154.815 140.374 154.802 140.467V145.755H153.685V140.607C153.685 140.332 153.623 140.12 153.501 139.972C153.378 139.824 153.183 139.752 152.917 139.756C152.671 139.756 152.481 139.805 152.345 139.902C152.21 140 152.111 140.129 152.047 140.29V145.755H150.93V138.887H151.984ZM164.917 142.397C164.917 142.888 164.858 143.347 164.739 143.774C164.621 144.198 164.447 144.566 164.219 144.879C163.99 145.192 163.707 145.438 163.368 145.615C163.034 145.793 162.651 145.882 162.219 145.882C161.8 145.882 161.43 145.814 161.109 145.679C160.791 145.543 160.518 145.349 160.29 145.095V148.396H159.115V138.887H160.188L160.245 139.636C160.474 139.352 160.749 139.136 161.07 138.988C161.396 138.836 161.773 138.76 162.2 138.76C162.64 138.76 163.03 138.847 163.368 139.02C163.707 139.194 163.99 139.435 164.219 139.744C164.447 140.053 164.621 140.423 164.739 140.854C164.858 141.282 164.917 141.752 164.917 142.264V142.397ZM163.743 142.264C163.743 141.929 163.705 141.612 163.629 141.312C163.557 141.007 163.442 140.74 163.286 140.512C163.133 140.279 162.939 140.095 162.702 139.959C162.465 139.824 162.181 139.756 161.851 139.756C161.475 139.756 161.157 139.845 160.899 140.023C160.645 140.196 160.442 140.421 160.29 140.696V144.003C160.442 144.274 160.645 144.496 160.899 144.669C161.153 144.839 161.475 144.923 161.864 144.923C162.19 144.923 162.471 144.856 162.708 144.72C162.945 144.581 163.14 144.394 163.292 144.162C163.444 143.929 163.557 143.66 163.629 143.355C163.705 143.051 163.743 142.731 163.743 142.397V142.264ZM166.983 136.005H170.494V144.739H172.734V145.755H166.983V144.739H169.319V137.027H166.983V136.005ZM177.511 145.882C177.029 145.882 176.584 145.799 176.178 145.634C175.776 145.469 175.431 145.239 175.143 144.942C174.856 144.646 174.631 144.295 174.471 143.889C174.31 143.482 174.229 143.04 174.229 142.562V142.295C174.229 141.741 174.318 141.246 174.496 140.81C174.674 140.37 174.909 140 175.201 139.699C175.497 139.395 175.831 139.162 176.204 139.001C176.58 138.84 176.965 138.76 177.359 138.76C177.854 138.76 178.286 138.847 178.654 139.02C179.026 139.189 179.335 139.426 179.58 139.731C179.826 140.031 180.008 140.387 180.126 140.797C180.249 141.208 180.31 141.652 180.31 142.13V142.657H175.404C175.416 142.97 175.476 143.264 175.581 143.54C175.691 143.815 175.84 144.056 176.026 144.263C176.216 144.466 176.443 144.627 176.705 144.746C176.967 144.864 177.257 144.923 177.575 144.923C177.994 144.923 178.366 144.839 178.692 144.669C179.018 144.5 179.288 144.276 179.504 143.997L180.222 144.555C180.107 144.729 179.963 144.896 179.79 145.057C179.621 145.213 179.424 145.353 179.2 145.476C178.975 145.598 178.721 145.696 178.438 145.768C178.154 145.844 177.845 145.882 177.511 145.882ZM177.359 139.725C177.122 139.725 176.898 139.769 176.686 139.858C176.474 139.943 176.284 140.069 176.115 140.239C175.945 140.404 175.801 140.609 175.683 140.854C175.569 141.096 175.488 141.375 175.442 141.692H179.136V141.604C179.123 141.375 179.079 141.149 179.003 140.924C178.931 140.7 178.823 140.499 178.679 140.321C178.535 140.144 178.353 140 178.133 139.89C177.917 139.78 177.659 139.725 177.359 139.725ZM184.992 141.432L186.826 138.887H188.204L185.646 142.283L188.274 145.755H186.915L185.017 143.14L183.119 145.755H181.748L184.376 142.283L181.818 138.887H183.177L184.992 141.432Z" fill="#70F0F9"/>
<path d="M48.9082 151.424H48.4082V151.924H48.9082V151.424ZM97.6697 151.777C97.865 151.582 97.865 151.266 97.6697 151.07L94.4877 147.888C94.2925 147.693 93.9759 147.693 93.7806 147.888C93.5854 148.084 93.5854 148.4 93.7806 148.595L96.6091 151.424L93.7806 154.252C93.5854 154.448 93.5854 154.764 93.7806 154.959C93.9759 155.155 94.2925 155.155 94.4877 154.959L97.6697 151.777ZM48.4082 106.729V151.424H49.4082V106.729H48.4082ZM48.9082 151.924H97.3162V150.924H48.9082V151.924Z" fill="#70F0F9"/>
<defs>
<linearGradient id="paint0_linear_875_7956" x1="99.0548" y1="0.521464" x2="-20.7483" y2="41.4093" gradientUnits="userSpaceOnUse">
<stop stop-color="#53C1FF"/>
<stop offset="1" stop-color="#0053D0"/>
</linearGradient>
</defs>
</svg>
