<svg width="220" height="220" viewBox="0 0 220 220" fill="none" xmlns="http://www.w3.org/2000/svg">
<rect x="26.625" y="28.1816" width="167" height="129.901" rx="64.9506" stroke="#70F0F9"/>
<path d="M78.582 90.8774C78.582 72.1491 93.7643 56.9668 112.493 56.9668C131.221 56.9668 146.403 72.1491 146.403 90.8774C146.403 109.606 131.221 124.788 112.493 124.788H78.582V90.8774Z" fill="url(#paint0_linear_757_9254)"/>
<circle cx="140.693" cy="112.105" r="12.2129" fill="#70F0F9" stroke="#3F484B"/>
<path d="M136.887 111.25L143.028 111.25H143.028C143.244 111.25 143.461 111.25 143.677 111.25V115.703H136.887V111.25Z" stroke="#3F484B"/>
<path d="M142.985 109.975C142.6 109.975 142.223 109.975 141.832 109.975C141.832 109.946 141.832 109.918 141.832 109.89C141.832 109.517 141.837 109.144 141.831 108.772C141.821 108.102 141.508 107.617 140.905 107.334C140.034 106.924 138.949 107.476 138.76 108.419C138.739 108.528 138.728 108.642 138.727 108.753C138.724 109.131 138.727 109.509 138.727 109.887C138.727 109.914 138.727 109.94 138.727 109.972C138.341 109.972 137.96 109.972 137.579 109.972C137.576 109.965 137.572 109.961 137.572 109.956C137.572 109.487 137.547 109.016 137.578 108.549C137.631 107.768 137.984 107.129 138.593 106.636C139.01 106.298 139.49 106.103 140.022 106.058C141.248 105.953 142.272 106.624 142.735 107.62C142.898 107.97 142.979 108.338 142.986 108.722C142.993 109.124 142.988 109.526 142.988 109.928C142.988 109.941 142.986 109.954 142.985 109.975Z" fill="#3F484B"/>
<rect x="1.0625" y="0.574219" width="218.123" height="185.053" rx="92.5266" stroke="#70F0F9" stroke-linecap="round" stroke-dasharray="3 3"/>
<circle cx="110.125" cy="192.905" r="26.75" fill="url(#paint1_linear_757_9254)"/>
<path d="M94.8263 194.428L94.8264 194.428L109.845 185.256C109.845 185.256 109.845 185.256 109.845 185.256C110.054 185.129 110.315 185.129 110.523 185.256L125.628 194.511L125.628 194.511C125.822 194.63 125.94 194.841 125.94 195.069V201.152C125.94 201.383 125.819 201.596 125.622 201.714L125.622 201.714L110.49 210.746C110.281 210.871 110.019 210.868 109.813 210.738L94.82 201.343C94.6297 201.224 94.5137 201.015 94.5137 200.789V194.986C94.5137 194.757 94.6325 194.546 94.8263 194.428Z" fill="url(#paint2_linear_757_9254)" stroke="#3F484B"/>
<path d="M109.542 184.892L94.5228 194.064C94.1799 194.273 93.9707 194.647 93.9707 195.049V200.852C93.9707 201.25 94.1751 201.619 94.5115 201.83L109.504 211.225C109.87 211.454 110.333 211.459 110.703 211.238L125.835 202.206C126.184 201.998 126.397 201.622 126.397 201.215V195.132C126.397 194.73 126.189 194.358 125.847 194.148L110.741 184.893C110.373 184.667 109.91 184.667 109.542 184.892Z" fill="url(#paint3_linear_757_9254)" stroke="#3F484B" stroke-miterlimit="10"/>
<path d="M126.103 194.443L110.142 204.192L94.0977 194.486" fill="url(#paint4_linear_757_9254)"/>
<path d="M126.103 194.443L110.142 204.192L94.0977 194.486" stroke="#3F484B" stroke-miterlimit="10"/>
<path d="M110.121 211.366V204.224" stroke="#3F484B" stroke-miterlimit="10"/>
<path d="M94.8263 183.795L94.8264 183.795L109.845 174.623C109.845 174.623 109.845 174.623 109.845 174.623C110.054 174.496 110.315 174.496 110.523 174.624L125.628 183.879L125.628 183.879C125.822 183.997 125.94 184.208 125.94 184.436V190.519C125.94 190.75 125.819 190.964 125.622 191.081L125.622 191.081L110.49 200.113C110.281 200.238 110.019 200.235 109.813 200.106L94.82 190.71C94.6297 190.591 94.5137 190.382 94.5137 190.156V184.353C94.5137 184.125 94.6325 183.913 94.8263 183.795Z" fill="url(#paint5_linear_757_9254)" stroke="#3F484B"/>
<path d="M109.542 174.25L94.5228 183.421C94.1799 183.631 93.9707 184.004 93.9707 184.406V190.209C93.9707 190.607 94.1751 190.977 94.5115 191.187L109.504 200.583C109.87 200.812 110.333 200.817 110.703 200.596L125.835 191.564C126.184 191.356 126.397 190.979 126.397 190.573V184.49C126.397 184.088 126.189 183.715 125.847 183.506L110.741 174.25C110.373 174.025 109.91 174.025 109.542 174.25Z" fill="url(#paint6_linear_757_9254)" stroke="#3F484B" stroke-miterlimit="10"/>
<path d="M126.103 183.8L110.142 193.549L94.0977 183.842" fill="url(#paint7_linear_757_9254)"/>
<path d="M126.103 183.8L110.142 193.549L94.0977 183.842" stroke="#3F484B" stroke-miterlimit="10"/>
<path d="M110.121 200.724V193.581" stroke="#3F484B" stroke-miterlimit="10"/>
<defs>
<linearGradient id="paint0_linear_757_9254" x1="145.406" y1="56.9668" x2="64.1539" y2="84.6974" gradientUnits="userSpaceOnUse">
<stop stop-color="#53C1FF"/>
<stop offset="1" stop-color="#0053D0"/>
</linearGradient>
<linearGradient id="paint1_linear_757_9254" x1="136.088" y1="166.155" x2="71.9936" y2="188.03" gradientUnits="userSpaceOnUse">
<stop stop-color="#FDFF97"/>
<stop offset="1" stop-color="#F1DA09"/>
</linearGradient>
<linearGradient id="paint2_linear_757_9254" x1="125.963" y1="184.661" x2="88.9588" y2="200.012" gradientUnits="userSpaceOnUse">
<stop stop-color="#FDFF97"/>
<stop offset="1" stop-color="#F1DA09"/>
</linearGradient>
<linearGradient id="paint3_linear_757_9254" x1="125.92" y1="184.724" x2="88.9158" y2="200.075" gradientUnits="userSpaceOnUse">
<stop stop-color="#FDFF97"/>
<stop offset="1" stop-color="#F1DA09"/>
</linearGradient>
<linearGradient id="paint4_linear_757_9254" x1="125.632" y1="194.443" x2="106.652" y2="215.71" gradientUnits="userSpaceOnUse">
<stop stop-color="#FDFF97"/>
<stop offset="1" stop-color="#F1DA09"/>
</linearGradient>
<linearGradient id="paint5_linear_757_9254" x1="125.963" y1="174.028" x2="88.9588" y2="189.379" gradientUnits="userSpaceOnUse">
<stop stop-color="#FDFF97"/>
<stop offset="1" stop-color="#F1DA09"/>
</linearGradient>
<linearGradient id="paint6_linear_757_9254" x1="125.92" y1="174.081" x2="88.9158" y2="189.432" gradientUnits="userSpaceOnUse">
<stop stop-color="#FDFF97"/>
<stop offset="1" stop-color="#F1DA09"/>
</linearGradient>
<linearGradient id="paint7_linear_757_9254" x1="125.632" y1="183.8" x2="106.652" y2="205.067" gradientUnits="userSpaceOnUse">
<stop stop-color="#FDFF97"/>
<stop offset="1" stop-color="#F1DA09"/>
</linearGradient>
</defs>
</svg>
