<?xml version="1.0" encoding="UTF-8"?>
<svg width="492px" height="265px" viewBox="0 0 492 265" version="1.1" xmlns="http://www.w3.org/2000/svg" xmlns:xlink="http://www.w3.org/1999/xlink">
    <title>row 2</title>
    <g id="Symbols" stroke="none" stroke-width="1" fill="none" fill-rule="evenodd">
        <g id="chat" transform="translate(-107.000000, 1.000000)">
            <g id="Group-16-Copy" transform="translate(110.000000, 0.000000)">
                <g id="Group-5">
                    <g id="chat-shape-copy-4" transform="translate(59.000000, 0.000000)">
                        <path d="M50.9439651,0 C57.0500446,0 62,4.94995544 62,11.0560349 L62,36.4772984 C62,42.5833779 57.0500446,47.5333333 50.9439651,47.5333333 L47.9983333,47.5333333 L48,62 L30.4988333,47.5333333 L11.0560349,47.5333333 C4.94995544,47.5333333 0,42.5833779 0,36.4772984 L0,11.0560349 C0,4.94995544 4.94995544,0 11.0560349,0 L50.9439651,0 Z" id="chat-fill" fill="#FFFFFF"></path>
                        <path d="M50.9439651,-0.596153846 L11.0560349,-0.596153846 C4.62070876,-0.596153846 -0.596153846,4.62070876 -0.596153846,11.0560349 L-0.596153846,36.4772984 L-0.591677311,36.8034488 C-0.418961013,43.0879687 4.72978209,48.1294872 11.0560349,48.1294872 L30.2834231,48.1286923 L48.5962997,63.2663674 L48.5936923,48.1286923 L50.9439651,48.1294872 C57.3792912,48.1294872 62.5961538,42.9126246 62.5961538,36.4772984 L62.5961538,11.0560349 C62.5961538,4.62070876 57.3792912,-0.596153846 50.9439651,-0.596153846 Z M11.0560349,0.596153846 L50.9439651,0.596153846 C56.7207979,0.596153846 61.4038462,5.27920212 61.4038462,11.0560349 L61.4038462,36.4772984 C61.4038462,42.2541312 56.7207979,46.9371795 50.9439651,46.9371795 L47.4021108,46.9371795 L47.4037692,60.7337692 L30.7133299,46.9371795 L11.0560349,46.9371795 C5.27920212,46.9371795 0.596153846,42.2541312 0.596153846,36.4772984 L0.596153846,11.0560349 C0.596153846,5.27920212 5.27920212,0.596153846 11.0560349,0.596153846 Z" id="chat-fill" fill="#062D56" fill-rule="nonzero"></path>
                    </g>
                    <g id="Group" transform="translate(127.000000, 13.000000)" fill="#F5A623" fill-rule="nonzero">
                        <g id="arrow-fills" transform="translate(-0.302169, -1.022727)">
                            <path d="M25.8294422,8.0227273 C25.9926172,8.0227273 26.1248967,8.47044255 26.1248967,9.0227273 C26.1248967,9.54049425 26.0086354,9.96635442 25.8596507,10.0175644 L25.8294422,10.0227273 L0.302169428,10.0227273 C0.138994389,10.0227273 0.00671488299,9.57501205 0.00671488299,9.0227273 C0.00671488299,8.50496034 0.122976167,8.07910018 0.271960917,8.02789018 L0.302169428,8.0227273 L25.8294422,8.0227273 Z" id="Line"></path>
                            <g id="Group" transform="translate(12.204189, 0.204546)">
                                <path d="M12.1909596,8.00866177 C12.6402765,7.70911715 13.2473487,7.8305316 13.5468933,8.27984853 C13.8264683,8.699211 13.7393412,9.25599586 13.3611704,9.57191088 L13.2757066,9.63578231 L1.54237351,17.4580044 C1.09305658,17.757549 0.485984351,17.6361345 0.186439731,17.1868176 C-0.0931352475,16.7674551 -0.00600810606,16.2106703 0.372162707,15.8947552 L0.457626487,15.8308838 L12.1909596,8.00866177 Z" id="Line-Copy"></path>
                                <path d="M0.186439731,0.457626487 C0.466014709,0.0382640196 1.01348041,-0.0954589516 1.45054458,0.132116022 L1.54237351,0.186439731 L13.2757066,8.00866177 C13.7250235,8.30820639 13.846438,8.91527863 13.5468933,9.36459555 C13.2673184,9.78395802 12.7198527,9.91768099 12.2827885,9.69010602 L12.1909596,9.63578231 L0.457626487,1.81356027 C0.00830955762,1.51401565 -0.113104889,0.906943417 0.186439731,0.457626487 Z" id="Line-Copy-2"></path>
                            </g>
                        </g>
                    </g>
                    <g id="Group" transform="translate(-1.221825, 66.221825)" fill="#F5A623" fill-rule="nonzero">
                        <g id="arrow-copy-15" transform="translate(24.000000, 8.000000) scale(-1, -1) rotate(135.000000) translate(-24.000000, -8.000000) ">
                            <g id="arrow-fills" transform="translate(-0.557851, -1.022727)">
                                <path d="M47.685124,8.0227273 C47.9863702,8.0227273 48.2305785,8.47044255 48.2305785,9.0227273 C48.2305785,9.54049425 48.0159423,9.96635442 47.7408935,10.0175644 L47.685124,10.0227273 L0.557851253,10.0227273 C0.256605025,10.0227273 0.0123967071,9.57501205 0.0123967071,9.0227273 C0.0123967071,8.50496034 0.227032924,8.07910018 0.502081694,8.02789018 L0.557851253,8.0227273 L47.685124,8.0227273 Z" id="Line"></path>
                                <g id="Group" transform="translate(34.959871, 0.204546)">
                                    <path d="M12.1909596,8.00866177 C12.6402765,7.70911715 13.2473487,7.8305316 13.5468933,8.27984853 C13.8264683,8.699211 13.7393412,9.25599586 13.3611704,9.57191088 L13.2757066,9.63578231 L1.54237351,17.4580044 C1.09305658,17.757549 0.485984351,17.6361345 0.186439731,17.1868176 C-0.0931352475,16.7674551 -0.00600810606,16.2106703 0.372162707,15.8947552 L0.457626487,15.8308838 L12.1909596,8.00866177 Z" id="Line-Copy"></path>
                                    <path d="M0.186439731,0.457626487 C0.466014709,0.0382640196 1.01348041,-0.0954589516 1.45054458,0.132116022 L1.54237351,0.186439731 L13.2757066,8.00866177 C13.7250235,8.30820639 13.846438,8.91527863 13.5468933,9.36459555 C13.2673184,9.78395802 12.7198527,9.91768099 12.2827885,9.69010602 L12.1909596,9.63578231 L0.457626487,1.81356027 C0.00830955762,1.51401565 -0.113104889,0.906943417 0.186439731,0.457626487 Z" id="Line-Copy-2"></path>
                                </g>
                            </g>
                        </g>
                    </g>
                    <g id="Group" transform="translate(-1.221825, 186.221825)" fill="#F5A623" fill-rule="nonzero">
                        <g id="arrow-copy-16" transform="translate(24.000000, 8.000000) scale(1, -1) rotate(135.000000) translate(-24.000000, -8.000000) ">
                            <g id="arrow-fills" transform="translate(-0.557851, -1.022727)">
                                <path d="M47.685124,8.0227273 C47.9863702,8.0227273 48.2305785,8.47044255 48.2305785,9.0227273 C48.2305785,9.54049425 48.0159423,9.96635442 47.7408935,10.0175644 L47.685124,10.0227273 L0.557851253,10.0227273 C0.256605025,10.0227273 0.0123967071,9.57501205 0.0123967071,9.0227273 C0.0123967071,8.50496034 0.227032924,8.07910018 0.502081694,8.02789018 L0.557851253,8.0227273 L47.685124,8.0227273 Z" id="Line"></path>
                                <g id="Group" transform="translate(34.959871, 0.204546)">
                                    <path d="M12.1909596,8.00866177 C12.6402765,7.70911715 13.2473487,7.8305316 13.5468933,8.27984853 C13.8264683,8.699211 13.7393412,9.25599586 13.3611704,9.57191088 L13.2757066,9.63578231 L1.54237351,17.4580044 C1.09305658,17.757549 0.485984351,17.6361345 0.186439731,17.1868176 C-0.0931352475,16.7674551 -0.00600810606,16.2106703 0.372162707,15.8947552 L0.457626487,15.8308838 L12.1909596,8.00866177 Z" id="Line-Copy"></path>
                                    <path d="M0.186439731,0.457626487 C0.466014709,0.0382640196 1.01348041,-0.0954589516 1.45054458,0.132116022 L1.54237351,0.186439731 L13.2757066,8.00866177 C13.7250235,8.30820639 13.846438,8.91527863 13.5468933,9.36459555 C13.2673184,9.78395802 12.7198527,9.91768099 12.2827885,9.69010602 L12.1909596,9.63578231 L0.457626487,1.81356027 C0.00830955762,1.51401565 -0.113104889,0.906943417 0.186439731,0.457626487 Z" id="Line-Copy-2"></path>
                                </g>
                            </g>
                        </g>
                    </g>
                    <g id="Group" transform="translate(438.778175, 66.221825)" fill="#F5A623" fill-rule="nonzero">
                        <g id="arrow-copy-18" transform="translate(24.000000, 8.000000) scale(-1, 1) rotate(135.000000) translate(-24.000000, -8.000000) ">
                            <g id="arrow-fills" transform="translate(-0.557851, -1.022727)">
                                <path d="M47.685124,8.0227273 C47.9863702,8.0227273 48.2305785,8.47044255 48.2305785,9.0227273 C48.2305785,9.54049425 48.0159423,9.96635442 47.7408935,10.0175644 L47.685124,10.0227273 L0.557851253,10.0227273 C0.256605025,10.0227273 0.0123967071,9.57501205 0.0123967071,9.0227273 C0.0123967071,8.50496034 0.227032924,8.07910018 0.502081694,8.02789018 L0.557851253,8.0227273 L47.685124,8.0227273 Z" id="Line"></path>
                                <g id="Group" transform="translate(34.959871, 0.204546)">
                                    <path d="M12.1909596,8.00866177 C12.6402765,7.70911715 13.2473487,7.8305316 13.5468933,8.27984853 C13.8264683,8.699211 13.7393412,9.25599586 13.3611704,9.57191088 L13.2757066,9.63578231 L1.54237351,17.4580044 C1.09305658,17.757549 0.485984351,17.6361345 0.186439731,17.1868176 C-0.0931352475,16.7674551 -0.00600810606,16.2106703 0.372162707,15.8947552 L0.457626487,15.8308838 L12.1909596,8.00866177 Z" id="Line-Copy"></path>
                                    <path d="M0.186439731,0.457626487 C0.466014709,0.0382640196 1.01348041,-0.0954589516 1.45054458,0.132116022 L1.54237351,0.186439731 L13.2757066,8.00866177 C13.7250235,8.30820639 13.846438,8.91527863 13.5468933,9.36459555 C13.2673184,9.78395802 12.7198527,9.91768099 12.2827885,9.69010602 L12.1909596,9.63578231 L0.457626487,1.81356027 C0.00830955762,1.51401565 -0.113104889,0.906943417 0.186439731,0.457626487 Z" id="Line-Copy-2"></path>
                                </g>
                            </g>
                        </g>
                    </g>
                    <g id="Group" transform="translate(438.778175, 186.221825)" fill="#F5A623" fill-rule="nonzero">
                        <g id="arrow-copy-17" transform="translate(24.000000, 8.000000) rotate(135.000000) translate(-24.000000, -8.000000) ">
                            <g id="arrow-fills" transform="translate(-0.557851, -1.022727)">
                                <path d="M47.685124,8.0227273 C47.9863702,8.0227273 48.2305785,8.47044255 48.2305785,9.0227273 C48.2305785,9.54049425 48.0159423,9.96635442 47.7408935,10.0175644 L47.685124,10.0227273 L0.557851253,10.0227273 C0.256605025,10.0227273 0.0123967071,9.57501205 0.0123967071,9.0227273 C0.0123967071,8.50496034 0.227032924,8.07910018 0.502081694,8.02789018 L0.557851253,8.0227273 L47.685124,8.0227273 Z" id="Line"></path>
                                <g id="Group" transform="translate(34.959871, 0.204546)">
                                    <path d="M12.1909596,8.00866177 C12.6402765,7.70911715 13.2473487,7.8305316 13.5468933,8.27984853 C13.8264683,8.699211 13.7393412,9.25599586 13.3611704,9.57191088 L13.2757066,9.63578231 L1.54237351,17.4580044 C1.09305658,17.757549 0.485984351,17.6361345 0.186439731,17.1868176 C-0.0931352475,16.7674551 -0.00600810606,16.2106703 0.372162707,15.8947552 L0.457626487,15.8308838 L12.1909596,8.00866177 Z" id="Line-Copy"></path>
                                    <path d="M0.186439731,0.457626487 C0.466014709,0.0382640196 1.01348041,-0.0954589516 1.45054458,0.132116022 L1.54237351,0.186439731 L13.2757066,8.00866177 C13.7250235,8.30820639 13.846438,8.91527863 13.5468933,9.36459555 C13.2673184,9.78395802 12.7198527,9.91768099 12.2827885,9.69010602 L12.1909596,9.63578231 L0.457626487,1.81356027 C0.00830955762,1.51401565 -0.113104889,0.906943417 0.186439731,0.457626487 Z" id="Line-Copy-2"></path>
                                </g>
                            </g>
                        </g>
                    </g>
                    <g id="chat-shape-copy-4" transform="translate(159.000000, 0.000000)">
                        <path d="M50.9439651,0 C57.0500446,0 62,4.94995544 62,11.0560349 L62,36.4772984 C62,42.5833779 57.0500446,47.5333333 50.9439651,47.5333333 L47.9983333,47.5333333 L48,62 L30.4988333,47.5333333 L11.0560349,47.5333333 C4.94995544,47.5333333 0,42.5833779 0,36.4772984 L0,11.0560349 C0,4.94995544 4.94995544,0 11.0560349,0 L50.9439651,0 Z" id="chat-fill" fill="#FFFFFF"></path>
                        <path d="M50.9439651,-0.596153846 L11.0560349,-0.596153846 C4.62070876,-0.596153846 -0.596153846,4.62070876 -0.596153846,11.0560349 L-0.596153846,36.4772984 L-0.591677311,36.8034488 C-0.418961013,43.0879687 4.72978209,48.1294872 11.0560349,48.1294872 L30.2834231,48.1286923 L48.5962997,63.2663674 L48.5936923,48.1286923 L50.9439651,48.1294872 C57.3792912,48.1294872 62.5961538,42.9126246 62.5961538,36.4772984 L62.5961538,11.0560349 C62.5961538,4.62070876 57.3792912,-0.596153846 50.9439651,-0.596153846 Z M11.0560349,0.596153846 L50.9439651,0.596153846 C56.7207979,0.596153846 61.4038462,5.27920212 61.4038462,11.0560349 L61.4038462,36.4772984 C61.4038462,42.2541312 56.7207979,46.9371795 50.9439651,46.9371795 L47.4021108,46.9371795 L47.4037692,60.7337692 L30.7133299,46.9371795 L11.0560349,46.9371795 C5.27920212,46.9371795 0.596153846,42.2541312 0.596153846,36.4772984 L0.596153846,11.0560349 C0.596153846,5.27920212 5.27920212,0.596153846 11.0560349,0.596153846 Z" id="chat-fill" fill="#062D56" fill-rule="nonzero"></path>
                    </g>
                    <g id="Group" transform="translate(227.000000, 13.000000)" fill="#F5A623" fill-rule="nonzero">
                        <g id="arrow-fills" transform="translate(-0.302169, -1.022727)">
                            <path d="M25.8294422,8.0227273 C25.9926172,8.0227273 26.1248967,8.47044255 26.1248967,9.0227273 C26.1248967,9.54049425 26.0086354,9.96635442 25.8596507,10.0175644 L25.8294422,10.0227273 L0.302169428,10.0227273 C0.138994389,10.0227273 0.00671488299,9.57501205 0.00671488299,9.0227273 C0.00671488299,8.50496034 0.122976167,8.07910018 0.271960917,8.02789018 L0.302169428,8.0227273 L25.8294422,8.0227273 Z" id="Line"></path>
                            <g id="Group" transform="translate(12.204189, 0.204546)">
                                <path d="M12.1909596,8.00866177 C12.6402765,7.70911715 13.2473487,7.8305316 13.5468933,8.27984853 C13.8264683,8.699211 13.7393412,9.25599586 13.3611704,9.57191088 L13.2757066,9.63578231 L1.54237351,17.4580044 C1.09305658,17.757549 0.485984351,17.6361345 0.186439731,17.1868176 C-0.0931352475,16.7674551 -0.00600810606,16.2106703 0.372162707,15.8947552 L0.457626487,15.8308838 L12.1909596,8.00866177 Z" id="Line-Copy"></path>
                                <path d="M0.186439731,0.457626487 C0.466014709,0.0382640196 1.01348041,-0.0954589516 1.45054458,0.132116022 L1.54237351,0.186439731 L13.2757066,8.00866177 C13.7250235,8.30820639 13.846438,8.91527863 13.5468933,9.36459555 C13.2673184,9.78395802 12.7198527,9.91768099 12.2827885,9.69010602 L12.1909596,9.63578231 L0.457626487,1.81356027 C0.00830955762,1.51401565 -0.113104889,0.906943417 0.186439731,0.457626487 Z" id="Line-Copy-2"></path>
                            </g>
                        </g>
                    </g>
                    <g id="chat-shape-copy-4" transform="translate(259.000000, 0.000000)">
                        <path d="M50.9439651,0 C57.0500446,0 62,4.94995544 62,11.0560349 L62,36.4772984 C62,42.5833779 57.0500446,47.5333333 50.9439651,47.5333333 L47.9983333,47.5333333 L48,62 L30.4988333,47.5333333 L11.0560349,47.5333333 C4.94995544,47.5333333 0,42.5833779 0,36.4772984 L0,11.0560349 C0,4.94995544 4.94995544,0 11.0560349,0 L50.9439651,0 Z" id="chat-fill" fill="#FFFFFF"></path>
                        <path d="M50.9439651,-0.596153846 L11.0560349,-0.596153846 C4.62070876,-0.596153846 -0.596153846,4.62070876 -0.596153846,11.0560349 L-0.596153846,36.4772984 L-0.591677311,36.8034488 C-0.418961013,43.0879687 4.72978209,48.1294872 11.0560349,48.1294872 L30.2834231,48.1286923 L48.5962997,63.2663674 L48.5936923,48.1286923 L50.9439651,48.1294872 C57.3792912,48.1294872 62.5961538,42.9126246 62.5961538,36.4772984 L62.5961538,11.0560349 C62.5961538,4.62070876 57.3792912,-0.596153846 50.9439651,-0.596153846 Z M11.0560349,0.596153846 L50.9439651,0.596153846 C56.7207979,0.596153846 61.4038462,5.27920212 61.4038462,11.0560349 L61.4038462,36.4772984 C61.4038462,42.2541312 56.7207979,46.9371795 50.9439651,46.9371795 L47.4021108,46.9371795 L47.4037692,60.7337692 L30.7133299,46.9371795 L11.0560349,46.9371795 C5.27920212,46.9371795 0.596153846,42.2541312 0.596153846,36.4772984 L0.596153846,11.0560349 C0.596153846,5.27920212 5.27920212,0.596153846 11.0560349,0.596153846 Z" id="chat-fill" fill="#062D56" fill-rule="nonzero"></path>
                    </g>
                    <g id="Group" transform="translate(327.000000, 13.000000)" fill="#F5A623" fill-rule="nonzero">
                        <g id="arrow-fills" transform="translate(-0.302169, -1.022727)">
                            <path d="M25.8294422,8.0227273 C25.9926172,8.0227273 26.1248967,8.47044255 26.1248967,9.0227273 C26.1248967,9.54049425 26.0086354,9.96635442 25.8596507,10.0175644 L25.8294422,10.0227273 L0.302169428,10.0227273 C0.138994389,10.0227273 0.00671488299,9.57501205 0.00671488299,9.0227273 C0.00671488299,8.50496034 0.122976167,8.07910018 0.271960917,8.02789018 L0.302169428,8.0227273 L25.8294422,8.0227273 Z" id="Line"></path>
                            <g id="Group" transform="translate(12.204189, 0.204546)">
                                <path d="M12.1909596,8.00866177 C12.6402765,7.70911715 13.2473487,7.8305316 13.5468933,8.27984853 C13.8264683,8.699211 13.7393412,9.25599586 13.3611704,9.57191088 L13.2757066,9.63578231 L1.54237351,17.4580044 C1.09305658,17.757549 0.485984351,17.6361345 0.186439731,17.1868176 C-0.0931352475,16.7674551 -0.00600810606,16.2106703 0.372162707,15.8947552 L0.457626487,15.8308838 L12.1909596,8.00866177 Z" id="Line-Copy"></path>
                                <path d="M0.186439731,0.457626487 C0.466014709,0.0382640196 1.01348041,-0.0954589516 1.45054458,0.132116022 L1.54237351,0.186439731 L13.2757066,8.00866177 C13.7250235,8.30820639 13.846438,8.91527863 13.5468933,9.36459555 C13.2673184,9.78395802 12.7198527,9.91768099 12.2827885,9.69010602 L12.1909596,9.63578231 L0.457626487,1.81356027 C0.00830955762,1.51401565 -0.113104889,0.906943417 0.186439731,0.457626487 Z" id="Line-Copy-2"></path>
                            </g>
                        </g>
                    </g>
                    <g id="chat-shape-copy-4" transform="translate(359.000000, 0.000000)">
                        <path d="M50.9439651,0 C57.0500446,0 62,4.94995544 62,11.0560349 L62,36.4772984 C62,42.5833779 57.0500446,47.5333333 50.9439651,47.5333333 L47.9983333,47.5333333 L48,62 L30.4988333,47.5333333 L11.0560349,47.5333333 C4.94995544,47.5333333 0,42.5833779 0,36.4772984 L0,11.0560349 C0,4.94995544 4.94995544,0 11.0560349,0 L50.9439651,0 Z" id="chat-fill" fill="#FFFFFF"></path>
                        <path d="M50.9439651,-0.596153846 L11.0560349,-0.596153846 C4.62070876,-0.596153846 -0.596153846,4.62070876 -0.596153846,11.0560349 L-0.596153846,36.4772984 L-0.591677311,36.8034488 C-0.418961013,43.0879687 4.72978209,48.1294872 11.0560349,48.1294872 L30.2834231,48.1286923 L48.5962997,63.2663674 L48.5936923,48.1286923 L50.9439651,48.1294872 C57.3792912,48.1294872 62.5961538,42.9126246 62.5961538,36.4772984 L62.5961538,11.0560349 C62.5961538,4.62070876 57.3792912,-0.596153846 50.9439651,-0.596153846 Z M11.0560349,0.596153846 L50.9439651,0.596153846 C56.7207979,0.596153846 61.4038462,5.27920212 61.4038462,11.0560349 L61.4038462,36.4772984 C61.4038462,42.2541312 56.7207979,46.9371795 50.9439651,46.9371795 L47.4021108,46.9371795 L47.4037692,60.7337692 L30.7133299,46.9371795 L11.0560349,46.9371795 C5.27920212,46.9371795 0.596153846,42.2541312 0.596153846,36.4772984 L0.596153846,11.0560349 C0.596153846,5.27920212 5.27920212,0.596153846 11.0560349,0.596153846 Z" id="chat-fill" fill="#062D56" fill-rule="nonzero"></path>
                    </g>
                </g>
                <g id="Group-5-Copy-2" transform="translate(59.000000, 200.000000)">
                    <g id="chat-shape-copy-4">
                        <path d="M50.9439651,0 C57.0500446,0 62,4.94995544 62,11.0560349 L62,36.4772984 C62,42.5833779 57.0500446,47.5333333 50.9439651,47.5333333 L47.9983333,47.5333333 L48,62 L30.4988333,47.5333333 L11.0560349,47.5333333 C4.94995544,47.5333333 0,42.5833779 0,36.4772984 L0,11.0560349 C0,4.94995544 4.94995544,0 11.0560349,0 L50.9439651,0 Z" id="chat-fill" fill="#FFFFFF"></path>
                        <path d="M50.9439651,-0.596153846 L11.0560349,-0.596153846 C4.62070876,-0.596153846 -0.596153846,4.62070876 -0.596153846,11.0560349 L-0.596153846,36.4772984 L-0.591677311,36.8034488 C-0.418961013,43.0879687 4.72978209,48.1294872 11.0560349,48.1294872 L30.2834231,48.1286923 L48.5962997,63.2663674 L48.5936923,48.1286923 L50.9439651,48.1294872 C57.3792912,48.1294872 62.5961538,42.9126246 62.5961538,36.4772984 L62.5961538,11.0560349 C62.5961538,4.62070876 57.3792912,-0.596153846 50.9439651,-0.596153846 Z M11.0560349,0.596153846 L50.9439651,0.596153846 C56.7207979,0.596153846 61.4038462,5.27920212 61.4038462,11.0560349 L61.4038462,36.4772984 C61.4038462,42.2541312 56.7207979,46.9371795 50.9439651,46.9371795 L47.4021108,46.9371795 L47.4037692,60.7337692 L30.7133299,46.9371795 L11.0560349,46.9371795 C5.27920212,46.9371795 0.596153846,42.2541312 0.596153846,36.4772984 L0.596153846,11.0560349 C0.596153846,5.27920212 5.27920212,0.596153846 11.0560349,0.596153846 Z" id="chat-fill" fill="#062D56" fill-rule="nonzero"></path>
                    </g>
                    <g id="Group" transform="translate(68.000000, 13.000000)" fill="#F5A623" fill-rule="nonzero">
                        <g id="arrow-copy-12" transform="translate(13.000000, 8.000000) scale(-1, 1) translate(-13.000000, -8.000000) ">
                            <g id="arrow-fills" transform="translate(-0.302169, -1.022727)">
                                <path d="M25.8294422,8.0227273 C25.9926172,8.0227273 26.1248967,8.47044255 26.1248967,9.0227273 C26.1248967,9.54049425 26.0086354,9.96635442 25.8596507,10.0175644 L25.8294422,10.0227273 L0.302169428,10.0227273 C0.138994389,10.0227273 0.00671488299,9.57501205 0.00671488299,9.0227273 C0.00671488299,8.50496034 0.122976167,8.07910018 0.271960917,8.02789018 L0.302169428,8.0227273 L25.8294422,8.0227273 Z" id="Line"></path>
                                <g id="Group" transform="translate(12.204189, 0.204546)">
                                    <path d="M12.1909596,8.00866177 C12.6402765,7.70911715 13.2473487,7.8305316 13.5468933,8.27984853 C13.8264683,8.699211 13.7393412,9.25599586 13.3611704,9.57191088 L13.2757066,9.63578231 L1.54237351,17.4580044 C1.09305658,17.757549 0.485984351,17.6361345 0.186439731,17.1868176 C-0.0931352475,16.7674551 -0.00600810606,16.2106703 0.372162707,15.8947552 L0.457626487,15.8308838 L12.1909596,8.00866177 Z" id="Line-Copy"></path>
                                    <path d="M0.186439731,0.457626487 C0.466014709,0.0382640196 1.01348041,-0.0954589516 1.45054458,0.132116022 L1.54237351,0.186439731 L13.2757066,8.00866177 C13.7250235,8.30820639 13.846438,8.91527863 13.5468933,9.36459555 C13.2673184,9.78395802 12.7198527,9.91768099 12.2827885,9.69010602 L12.1909596,9.63578231 L0.457626487,1.81356027 C0.00830955762,1.51401565 -0.113104889,0.906943417 0.186439731,0.457626487 Z" id="Line-Copy-2"></path>
                                </g>
                            </g>
                        </g>
                    </g>
                    <g id="chat-shape-copy-4" transform="translate(100.000000, 0.000000)">
                        <path d="M50.9439651,0 C57.0500446,0 62,4.94995544 62,11.0560349 L62,36.4772984 C62,42.5833779 57.0500446,47.5333333 50.9439651,47.5333333 L47.9983333,47.5333333 L48,62 L30.4988333,47.5333333 L11.0560349,47.5333333 C4.94995544,47.5333333 0,42.5833779 0,36.4772984 L0,11.0560349 C0,4.94995544 4.94995544,0 11.0560349,0 L50.9439651,0 Z" id="chat-fill" fill="#FFFFFF"></path>
                        <path d="M50.9439651,-0.596153846 L11.0560349,-0.596153846 C4.62070876,-0.596153846 -0.596153846,4.62070876 -0.596153846,11.0560349 L-0.596153846,36.4772984 L-0.591677311,36.8034488 C-0.418961013,43.0879687 4.72978209,48.1294872 11.0560349,48.1294872 L30.2834231,48.1286923 L48.5962997,63.2663674 L48.5936923,48.1286923 L50.9439651,48.1294872 C57.3792912,48.1294872 62.5961538,42.9126246 62.5961538,36.4772984 L62.5961538,11.0560349 C62.5961538,4.62070876 57.3792912,-0.596153846 50.9439651,-0.596153846 Z M11.0560349,0.596153846 L50.9439651,0.596153846 C56.7207979,0.596153846 61.4038462,5.27920212 61.4038462,11.0560349 L61.4038462,36.4772984 C61.4038462,42.2541312 56.7207979,46.9371795 50.9439651,46.9371795 L47.4021108,46.9371795 L47.4037692,60.7337692 L30.7133299,46.9371795 L11.0560349,46.9371795 C5.27920212,46.9371795 0.596153846,42.2541312 0.596153846,36.4772984 L0.596153846,11.0560349 C0.596153846,5.27920212 5.27920212,0.596153846 11.0560349,0.596153846 Z" id="chat-fill" fill="#062D56" fill-rule="nonzero"></path>
                    </g>
                    <g id="Group" transform="translate(168.000000, 13.000000)" fill="#F5A623" fill-rule="nonzero">
                        <g id="arrow-copy-12" transform="translate(13.000000, 8.000000) scale(-1, 1) translate(-13.000000, -8.000000) ">
                            <g id="arrow-fills" transform="translate(-0.302169, -1.022727)">
                                <path d="M25.8294422,8.0227273 C25.9926172,8.0227273 26.1248967,8.47044255 26.1248967,9.0227273 C26.1248967,9.54049425 26.0086354,9.96635442 25.8596507,10.0175644 L25.8294422,10.0227273 L0.302169428,10.0227273 C0.138994389,10.0227273 0.00671488299,9.57501205 0.00671488299,9.0227273 C0.00671488299,8.50496034 0.122976167,8.07910018 0.271960917,8.02789018 L0.302169428,8.0227273 L25.8294422,8.0227273 Z" id="Line"></path>
                                <g id="Group" transform="translate(12.204189, 0.204546)">
                                    <path d="M12.1909596,8.00866177 C12.6402765,7.70911715 13.2473487,7.8305316 13.5468933,8.27984853 C13.8264683,8.699211 13.7393412,9.25599586 13.3611704,9.57191088 L13.2757066,9.63578231 L1.54237351,17.4580044 C1.09305658,17.757549 0.485984351,17.6361345 0.186439731,17.1868176 C-0.0931352475,16.7674551 -0.00600810606,16.2106703 0.372162707,15.8947552 L0.457626487,15.8308838 L12.1909596,8.00866177 Z" id="Line-Copy"></path>
                                    <path d="M0.186439731,0.457626487 C0.466014709,0.0382640196 1.01348041,-0.0954589516 1.45054458,0.132116022 L1.54237351,0.186439731 L13.2757066,8.00866177 C13.7250235,8.30820639 13.846438,8.91527863 13.5468933,9.36459555 C13.2673184,9.78395802 12.7198527,9.91768099 12.2827885,9.69010602 L12.1909596,9.63578231 L0.457626487,1.81356027 C0.00830955762,1.51401565 -0.113104889,0.906943417 0.186439731,0.457626487 Z" id="Line-Copy-2"></path>
                                </g>
                            </g>
                        </g>
                    </g>
                    <g id="chat-shape-copy-4" transform="translate(200.000000, 0.000000)">
                        <path d="M50.9439651,0 C57.0500446,0 62,4.94995544 62,11.0560349 L62,36.4772984 C62,42.5833779 57.0500446,47.5333333 50.9439651,47.5333333 L47.9983333,47.5333333 L48,62 L30.4988333,47.5333333 L11.0560349,47.5333333 C4.94995544,47.5333333 0,42.5833779 0,36.4772984 L0,11.0560349 C0,4.94995544 4.94995544,0 11.0560349,0 L50.9439651,0 Z" id="chat-fill" fill="#FFFFFF"></path>
                        <path d="M50.9439651,-0.596153846 L11.0560349,-0.596153846 C4.62070876,-0.596153846 -0.596153846,4.62070876 -0.596153846,11.0560349 L-0.596153846,36.4772984 L-0.591677311,36.8034488 C-0.418961013,43.0879687 4.72978209,48.1294872 11.0560349,48.1294872 L30.2834231,48.1286923 L48.5962997,63.2663674 L48.5936923,48.1286923 L50.9439651,48.1294872 C57.3792912,48.1294872 62.5961538,42.9126246 62.5961538,36.4772984 L62.5961538,11.0560349 C62.5961538,4.62070876 57.3792912,-0.596153846 50.9439651,-0.596153846 Z M11.0560349,0.596153846 L50.9439651,0.596153846 C56.7207979,0.596153846 61.4038462,5.27920212 61.4038462,11.0560349 L61.4038462,36.4772984 C61.4038462,42.2541312 56.7207979,46.9371795 50.9439651,46.9371795 L47.4021108,46.9371795 L47.4037692,60.7337692 L30.7133299,46.9371795 L11.0560349,46.9371795 C5.27920212,46.9371795 0.596153846,42.2541312 0.596153846,36.4772984 L0.596153846,11.0560349 C0.596153846,5.27920212 5.27920212,0.596153846 11.0560349,0.596153846 Z" id="chat-fill" fill="#062D56" fill-rule="nonzero"></path>
                    </g>
                    <g id="Group" transform="translate(268.000000, 13.000000)" fill="#F5A623" fill-rule="nonzero">
                        <g id="arrow-copy-12" transform="translate(13.000000, 8.000000) scale(-1, 1) translate(-13.000000, -8.000000) ">
                            <g id="arrow-fills" transform="translate(-0.302169, -1.022727)">
                                <path d="M25.8294422,8.0227273 C25.9926172,8.0227273 26.1248967,8.47044255 26.1248967,9.0227273 C26.1248967,9.54049425 26.0086354,9.96635442 25.8596507,10.0175644 L25.8294422,10.0227273 L0.302169428,10.0227273 C0.138994389,10.0227273 0.00671488299,9.57501205 0.00671488299,9.0227273 C0.00671488299,8.50496034 0.122976167,8.07910018 0.271960917,8.02789018 L0.302169428,8.0227273 L25.8294422,8.0227273 Z" id="Line"></path>
                                <g id="Group" transform="translate(12.204189, 0.204546)">
                                    <path d="M12.1909596,8.00866177 C12.6402765,7.70911715 13.2473487,7.8305316 13.5468933,8.27984853 C13.8264683,8.699211 13.7393412,9.25599586 13.3611704,9.57191088 L13.2757066,9.63578231 L1.54237351,17.4580044 C1.09305658,17.757549 0.485984351,17.6361345 0.186439731,17.1868176 C-0.0931352475,16.7674551 -0.00600810606,16.2106703 0.372162707,15.8947552 L0.457626487,15.8308838 L12.1909596,8.00866177 Z" id="Line-Copy"></path>
                                    <path d="M0.186439731,0.457626487 C0.466014709,0.0382640196 1.01348041,-0.0954589516 1.45054458,0.132116022 L1.54237351,0.186439731 L13.2757066,8.00866177 C13.7250235,8.30820639 13.846438,8.91527863 13.5468933,9.36459555 C13.2673184,9.78395802 12.7198527,9.91768099 12.2827885,9.69010602 L12.1909596,9.63578231 L0.457626487,1.81356027 C0.00830955762,1.51401565 -0.113104889,0.906943417 0.186439731,0.457626487 Z" id="Line-Copy-2"></path>
                                </g>
                            </g>
                        </g>
                    </g>
                    <g id="chat-shape-copy-4" transform="translate(300.000000, 0.000000)">
                        <path d="M50.9439651,0 C57.0500446,0 62,4.94995544 62,11.0560349 L62,36.4772984 C62,42.5833779 57.0500446,47.5333333 50.9439651,47.5333333 L47.9983333,47.5333333 L48,62 L30.4988333,47.5333333 L11.0560349,47.5333333 C4.94995544,47.5333333 0,42.5833779 0,36.4772984 L0,11.0560349 C0,4.94995544 4.94995544,0 11.0560349,0 L50.9439651,0 Z" id="chat-fill" fill="#FFFFFF"></path>
                        <path d="M50.9439651,-0.596153846 L11.0560349,-0.596153846 C4.62070876,-0.596153846 -0.596153846,4.62070876 -0.596153846,11.0560349 L-0.596153846,36.4772984 L-0.591677311,36.8034488 C-0.418961013,43.0879687 4.72978209,48.1294872 11.0560349,48.1294872 L30.2834231,48.1286923 L48.5962997,63.2663674 L48.5936923,48.1286923 L50.9439651,48.1294872 C57.3792912,48.1294872 62.5961538,42.9126246 62.5961538,36.4772984 L62.5961538,11.0560349 C62.5961538,4.62070876 57.3792912,-0.596153846 50.9439651,-0.596153846 Z M11.0560349,0.596153846 L50.9439651,0.596153846 C56.7207979,0.596153846 61.4038462,5.27920212 61.4038462,11.0560349 L61.4038462,36.4772984 C61.4038462,42.2541312 56.7207979,46.9371795 50.9439651,46.9371795 L47.4021108,46.9371795 L47.4037692,60.7337692 L30.7133299,46.9371795 L11.0560349,46.9371795 C5.27920212,46.9371795 0.596153846,42.2541312 0.596153846,36.4772984 L0.596153846,11.0560349 C0.596153846,5.27920212 5.27920212,0.596153846 11.0560349,0.596153846 Z" id="chat-fill" fill="#062D56" fill-rule="nonzero"></path>
                    </g>
                </g>
            </g>
        </g>
    </g>
</svg>
