<?xml version="1.0" encoding="UTF-8"?>
<svg width="126px" height="291px" viewBox="0 0 126 291" version="1.1" xmlns="http://www.w3.org/2000/svg" xmlns:xlink="http://www.w3.org/1999/xlink">
    <title>Group 25</title>
    <g id="Page-1" stroke="none" stroke-width="1" fill="none" fill-rule="evenodd">
        <g id="web_05_01" transform="translate(-780.000000, -3236.000000)">
            <g id="how-works" transform="translate(0.000000, 2904.000000)">
                <g id="Group-25" transform="translate(781.000000, 332.000000)">
                    <rect id="Rectangle" fill="#F0F0F0" x="0" y="0" width="124" height="110" rx="10"></rect>
                    <g id="Group-24" transform="translate(62.000000, 55.000000) scale(-1, 1) translate(-62.000000, -55.000000) translate(22.000000, 15.000000)">
                        <g id="Group-23">
                            <circle id="Oval" stroke="#000000" fill="#FFFFFF" cx="40" cy="40" r="39.5"></circle>
                            <g id="guy" transform="translate(13.363648, 12.121212)"></g>
                        </g>
                        <g id="Group-21" transform="translate(13.830561, 12.516365)" fill="#062D56" fill-rule="nonzero">
                            <path d="M22.6038134,20.6851156 L23.3497889,19.8935394 C23.3766112,19.8644952 23.4028036,19.8359473 23.4289255,19.8072851 C24.0154651,19.1637057 24.4384331,18.5893425 24.8051196,17.879288 C25.0630261,17.3798759 25.1594266,17.0985737 25.1088399,16.8467992 C25.0446031,16.5270869 24.87438,16.4277692 24.5496058,16.374782 L24.2633008,16.3337831 C24.1625601,16.3166688 24.0995453,16.2985818 24.0359989,16.2685096 L23.9876416,16.2435362 C23.3336266,15.8804574 23.2632992,15.7980265 23.2632992,15.3632153 C23.2632992,14.9575509 23.8566287,14.477552 24.3653352,14.477552 C24.7423061,14.477552 24.8498447,14.5987018 25.0510647,15.2340603 C25.3082718,15.7503869 25.7181232,15.6624141 26.0317103,15.3545215 C26.0891787,15.2980966 26.1480879,15.23212 26.2156711,15.1498024 L26.5362548,14.7373495 C26.6510663,14.5886213 26.7360778,14.4846533 26.8161768,14.3974776 C26.8874529,14.3199042 26.9494603,14.2621727 27.000743,14.2250165 L28.2403176,13.2895199 L28.30664,13.2405029 C28.5096771,13.0917338 28.6983659,12.9584965 28.877867,12.8379791 L29.7400977,12.2954689 L34.8645752,9.18564507 C35.3258177,8.90446381 35.69322,8.67930068 35.9957384,8.4923364 C37.7438147,7.41197938 38.6547782,5.87559014 38.829696,4.02094502 C39.0045185,2.16730917 38.1943882,0.607613712 36.5992561,0.141831084 C35.426549,-0.20060238 34.3657322,0.0877062152 32.9705879,0.891334896 L32.5706794,1.12942301 L31.5194456,1.78603365 C30.5512831,2.38846106 29.8968418,2.6902277 29.0197141,2.87304739 C28.4056125,3.00104456 27.9734202,3.03270301 27.2576391,3.02046855 L26.4117302,3.00270261 C26.1040581,3.00060798 25.8764156,3.00918493 25.5947157,3.0332075 C24.2428761,3.14848855 23.3570232,3.40373508 21.4585546,4.24582073 C19.9092138,4.93304707 18.681761,5.98497987 17.6620094,7.22381718 L17.2385371,7.75530853 L17.0904605,7.95015114 C17.0687031,7.97989879 17.04807,8.0087671 17.0280563,8.03748166 C16.5506062,8.72250019 16.4459478,9.36818935 16.7295243,10.4009053 L16.8328713,10.7628145 C16.9498436,11.1598183 17.1088155,11.6659879 17.3199019,12.316263 L18.7941734,16.7626295 L18.9568094,17.2580202 C19.0776463,17.62067 19.6441665,19.2229432 19.7682657,19.6137532 C19.9807186,20.2828043 20.0925734,20.7872492 20.1148071,21.2290648 L20.1189652,21.3920091 C20.1189652,22.0908896 20.515016,22.4824593 21.085943,22.1898575 C21.2937891,22.0833357 21.506023,21.8976543 21.799724,21.5837723 L22.1460589,21.1997133 L22.5430399,20.7514246 L22.6038134,20.6851156 Z M22.7556836,19.3457844 L21.9456008,20.2073096 L21.3206041,20.9110131 C21.2126338,21.0295168 21.1176599,21.1292176 21.0348009,21.2107908 L20.9250061,21.3131296 L20.9270461,21.3920091 C20.9270461,20.8758857 20.8269762,20.3308204 20.620765,19.6367023 L20.5384486,19.3691866 C20.4981586,19.2423062 20.414876,18.9978715 20.3158383,18.7110383 L19.673149,16.8504041 L18.1135949,12.1439307 C17.8221495,11.2478182 17.6285359,10.6231222 17.5087613,10.1869324 C17.2879931,9.38294892 17.3524516,8.9852728 17.6909984,8.49954476 L17.8045866,8.34438749 L18.0961463,7.97334649 C19.0806506,6.72063618 20.2749446,5.65483047 21.786202,4.98449644 C23.6083954,4.17624344 24.4101059,3.94524142 25.6633773,3.83836598 L25.9082241,3.8210715 C26.067293,3.81245528 26.2243497,3.80946412 26.417268,3.81088722 L26.9859307,3.82261869 C27.9150512,3.84789226 28.4281437,3.82179534 29.1845989,3.66412741 C30.0890512,3.47561247 30.7807566,3.17570753 31.6920579,2.6278123 L33.1627175,1.7157097 C34.4922954,0.919254366 35.4153246,0.637946955 36.3727534,0.917518591 C37.5526098,1.26203964 38.1667227,2.44435454 38.0251853,3.94506895 C37.8734916,5.55347084 37.0982079,6.86102863 35.570909,7.80493942 L33.236303,9.22993439 L28.6160714,12.0427914 C28.4310814,12.1622721 28.2398315,12.2931124 28.0365445,12.4384226 L27.8290311,12.5886713 C27.5511939,12.7922477 26.6730439,13.4645557 26.5266249,13.5706415 C26.4257389,13.643737 26.3260881,13.7365162 26.221136,13.8507408 C26.1467922,13.9316528 26.0732801,14.019055 25.9872673,14.1275259 L25.6595516,14.5503013 L25.6440523,14.511969 C25.3898219,13.9326241 25.0375996,13.6694712 24.3653352,13.6694712 C23.4435781,13.6694712 22.4552184,14.4690464 22.4552184,15.3632153 C22.4552184,16.1586789 22.7119344,16.4595762 23.5954199,16.9500464 L23.6805857,16.9948508 C23.8124919,17.059992 23.9278044,17.0953255 24.0888708,17.1240708 L24.2575314,17.1498972 L24.183986,17.313427 C24.1566699,17.3708916 24.1245557,17.4360261 24.0871275,17.5085024 C23.7981186,18.0681413 23.4690407,18.5359058 23.0278354,19.0428991 L22.7556836,19.3457844 Z" id="Path-9"></path>
                            <path d="M34.3849174,8.61391583 C34.5972868,8.54540959 34.8249814,8.66203368 34.8934877,8.87440304 C35.2122002,9.86241188 35.2391297,12.5905339 34.9077744,14.6309008 C34.5858577,16.6131485 33.9615257,18.42746 33.0433636,20.2708524 C32.0888539,22.1872198 30.1892821,23.640589 28.011523,23.8094202 C26.5633977,23.9216864 25.7594491,23.7929249 24.6719544,23.3719785 L24.0451375,23.119777 C23.9470307,23.0811063 23.8623919,23.0490998 23.7747619,23.0176145 C23.5647602,22.9421615 23.455687,22.7107548 23.53114,22.5007532 C23.606593,22.2907515 23.8379997,22.1816783 24.0480013,22.2571313 L24.3385221,22.3668237 L24.755284,22.5355198 C25.8508112,22.9818419 26.5399637,23.1129976 27.9490638,23.0037568 C29.8233626,22.8584514 31.4849676,21.5871516 32.3200403,19.9105775 C33.204022,18.1358092 33.8022214,16.397439 34.1101434,14.5013656 C34.4228036,12.5761164 34.397055,9.96762284 34.1244302,9.12248609 C34.055924,8.91011674 34.172548,8.68242208 34.3849174,8.61391583 Z" id="Path-10"></path>
                            <path d="M20.7514427,21.2649117 C20.9445409,21.3767461 21.0104183,21.6239427 20.898584,21.817041 C20.7965264,21.9932582 20.6946803,22.1841588 20.587317,22.39886 L20.4779024,22.6218326 C20.3575219,22.8714598 19.9742683,23.7069416 19.916309,23.8291268 L19.763893,24.1411694 C19.6195284,24.4263374 19.4965972,24.6347162 19.3706162,24.8008224 C18.5941748,25.8245617 17.6415612,26.7010073 16.6897514,26.9870857 C15.4066702,27.3727319 13.9324618,28.0798926 12.6923447,29.0060224 L12.4168016,29.2172664 C11.2723965,30.1177775 10.1527585,31.2921913 8.25651702,33.4833673 C6.84114479,35.1188814 4.79246219,39.4720359 3.581635,43.1750736 C2.67621598,45.9440903 1.27654738,52.7097641 0.839847024,55.9233088 L0.74101238,56.7133629 C-0.306732782,55.9233088 0.839847024,56.7133629 1.61648472e-13,56.1131637 L0.0829203678,55.5024565 C0.568966955,52.1367408 1.9197712,45.6574136 2.81357137,42.9239305 C4.05515929,39.1268181 6.14271084,34.6910727 7.64547597,32.954573 L8.30818418,32.1944153 C9.99271826,30.27879 11.0465477,29.2265617 12.2088197,28.3585672 C13.5292391,27.372467 15.0881513,26.6246749 16.4571517,26.2132046 C17.1967855,25.9908983 18.0472903,25.2083973 18.7267682,24.3125045 C18.8360731,24.1683859 18.9583799,23.9521179 19.1162862,23.6282763 L19.7500364,22.2708259 C19.9071134,21.9451026 20.5583444,21.1530774 20.7514427,21.2649117 Z" id="Path-11"></path>
                            <path d="M26.8268987,23.0361211 L26.8997214,23.0398461 C27.1206679,23.0710948 27.2744484,23.2755395 27.2431997,23.496486 L27.1395612,24.1633072 C27.081408,24.5067736 26.9798114,25.082845 26.9741484,25.1163545 L26.9200679,25.4568122 C26.8897416,25.6645411 26.8703827,25.8387009 26.8590683,26.0087921 C26.8304077,26.4396522 26.8569905,26.8399185 26.9526421,27.305157 C27.068723,27.8697617 27.2261086,28.2650062 27.4897036,28.6706642 C27.6400542,28.9020453 27.8291126,29.1451523 28.1143015,29.4788653 L29.080947,30.5838576 C29.2282551,30.7531502 29.3820441,30.9216496 29.550439,31.099034 L29.9084311,31.4678745 L30.5134374,32.0718229 C31.7976964,33.3520773 32.4420632,34.1563743 33.0372093,35.4096202 C34.1468189,37.746212 35.1373532,40.7718721 35.5467381,43.2752121 L35.6153459,43.7292376 L35.7991197,45.1660712 C35.8832746,45.8237211 35.9585277,46.3558747 36.0472507,46.8971078 C36.2834824,48.3381819 36.5847345,49.6254159 37.0000748,50.8430027 C37.6990964,52.892213 38.6837487,54.6128084 40.0318604,55.9699545 C40.1891201,56.1282682 40.1882658,56.384091 40.0299521,56.5413507 C39.8716385,56.6986105 39.6158157,56.6977562 39.4585559,56.5394425 C38.0161531,55.0873733 36.9712821,53.261551 36.2352668,51.1038921 C35.8038704,49.8392364 35.4927662,48.5099046 35.2498133,47.0278297 L35.1631479,46.4744731 C35.1352524,46.2878828 35.1080688,46.09747 35.0807543,45.898182 L34.8124958,43.8227483 C34.4652843,41.3290571 33.4487769,38.1600552 32.3072552,35.7562636 C31.7949646,34.6774931 31.2409909,33.9585663 30.1651909,32.8675049 L29.236813,31.9375277 L29.1442576,31.8426679 C28.9580155,31.6508622 28.7889988,31.4708076 28.6288459,31.2924569 L27.4999877,30.003854 C27.1938522,29.6456305 26.9851646,29.3772826 26.8121104,29.1109618 C26.4918853,28.6181534 26.2969676,28.1286537 26.161117,27.4678921 C26.0507378,26.9310201 26.0193219,26.4579797 26.0527694,25.9551576 C26.0655079,25.7636565 26.0867795,25.5715245 26.1194506,25.346927 L26.2009503,24.8467193 C26.2444107,24.5986134 26.3349682,24.0813816 26.3684323,23.8745967 C26.3953856,23.7080435 26.4200203,23.5463806 26.4430815,23.3833244 C26.4708582,23.1869275 26.635481,23.0436 26.8268987,23.0361211 Z" id="Path-12"></path>
                            <path d="M14.2377728,27.1581651 L14.8084608,27.2999662 C16.5110216,27.7336928 17.2701047,28.0394094 18.5218784,28.7140949 L18.6885307,28.8113792 C19.4295725,29.2664382 21.2668069,30.6054968 21.4679108,30.7391142 C21.9027635,31.0280387 22.324132,31.2825043 22.7591763,31.5143538 L22.9841551,31.6352763 L23.9934371,32.1951293 C24.3628196,32.3992851 24.5897475,32.5122205 24.8104455,32.5972453 C25.2096104,32.7510252 25.6069518,32.8125623 26.2554275,32.8125623 C27.5076127,32.8125623 27.9832291,32.2726904 28.2095747,30.6920773 C28.2412067,30.4711853 28.4459178,30.3177598 28.6668098,30.3493918 C28.8877017,30.3810237 29.0411273,30.5857349 29.0094953,30.8066268 C28.7314627,32.7481802 27.9628402,33.6206431 26.2554275,33.6206431 C25.5142928,33.6206431 25.0206035,33.5441843 24.519942,33.3513025 C24.3318394,33.2788353 24.1481001,33.1934352 23.9129581,33.0701319 L22.5993539,32.3458561 C22.5263221,32.3062672 22.4535149,32.2671296 22.3791251,32.2274848 C22.0345545,32.0438517 21.698976,31.8473084 21.3605414,31.632825 L21.020716,31.4121753 C20.761314,31.2398237 18.6569884,29.7048994 18.1384795,29.4254316 L17.7757057,29.23338 C16.6683871,28.659606 15.9045544,28.3951069 14.0468354,27.9433642 C13.8300087,27.8906383 13.6969787,27.6721227 13.7497046,27.455296 C13.7965721,27.2625611 13.9744338,27.136036 14.1656644,27.1473298 L14.2377728,27.1581651 Z" id="Path-13"></path>
                            <path d="M10.156813,37.237559 C10.3781689,37.2657619 10.5347504,37.4680693 10.5065475,37.6894252 L10.2247226,39.795715 C9.97476314,41.7103822 9.84509109,43.141058 9.71339581,45.679632 C9.5788135,48.2738568 9.94874494,51.7887649 10.6224917,54.3332951 C10.9373447,55.5223963 11.3176651,56.6058193 11.7549799,57.6059986 C12.0671346,58.3199252 12.391817,58.9574586 12.7488235,59.5799906 L12.9670646,59.9522008 C13.0968823,60.1689515 13.6811772,61.0977149 13.7725846,61.2707963 C13.8767921,61.4681149 13.8013106,61.7125502 13.603992,61.8167577 C13.4066733,61.9209652 13.1622381,61.8454837 13.0580306,61.6481651 L12.992086,61.5343694 C12.8194552,61.2460061 12.3957944,60.5710744 12.273813,60.3674077 C11.8122623,59.596778 11.4039055,58.8201544 11.0145791,57.9297288 C10.5609275,56.8921858 10.1669091,55.7697411 9.84133053,54.5401328 C9.14621465,51.9148981 8.7674544,48.316103 8.90640021,45.6377669 L8.97726865,44.3772639 C9.08140213,42.6809862 9.1973976,41.4692003 9.37986736,40.0296799 L9.70494677,37.5872935 C9.73001602,37.3905326 9.89264931,37.2449516 10.0839459,37.2348373 L10.156813,37.237559 Z" id="Path-14"></path>
                            <path d="M19.1771924,39.3283079 L19.9679746,39.494615 C19.4300813,42.0522701 19.2157061,44.557099 19.3238722,47.0003999 C19.5469656,50.2991784 20.2081087,53.3915064 21.1059666,55.4706075 L21.2194171,55.7251596 L20.48533,56.0629622 C19.4845176,53.8880723 18.7561793,50.5821969 18.5171084,47.0455501 C18.4139613,44.7179698 18.5936347,42.3468544 19.0557732,39.9327337 L19.1771924,39.3283079 Z" id="Path-15"></path>
                        </g>
                    </g>
                    <text id="Bob" font-family="Helvetica" font-size="17" font-weight="normal" line-spacing="25" letter-spacing="0.53125" fill="#062D56">
                        <tspan x="45.1291003" y="126.799997">Bob</tspan>
                    </text>
                    <g id="Group" transform="translate(46.636363, 165.636367)">
                        <g id="cir+tick" transform="translate(-1.000000, -1.000000)">
                            <path d="M16,0 C7.163444,0 0,7.163444 0,16 C0,24.836556 7.163444,32 16,32 C24.836556,32 32,24.836556 32,16 C32,7.163444 24.836556,0 16,0 Z M16,1 C24.2842712,1 31,7.71572875 31,16 C31,24.2842712 24.2842712,31 16,31 C7.71572875,31 1,24.2842712 1,16 C1,7.71572875 7.71572875,1 16,1 Z" id="Mask-fills" fill="#000000" fill-rule="nonzero" transform="translate(16.000000, 16.000000) scale(-1, -1) translate(-16.000000, -16.000000) "></path>
                            <g id="Page-1" transform="translate(1.363637, 1.363633)" fill="#F5775B">
                                <polygon points="23.0206875 8 11.7200625 19.1473077 7.8703125 14.1626923 6 15.3101923 10.973625 23 11.8455 23 24.0005625 9.155"></polygon>
                            </g>
                        </g>
                    </g>
                    <g id="button" transform="translate(0.000000, 252.000000)">
                        <rect id="Rectangle" stroke="#CDCDCD" fill="#F4F1EC" x="0" y="0" width="124" height="38" rx="19"></rect>
                        <text id="confirm" font-family="Helvetica" font-size="13" font-weight="normal" fill="#062D56">
                            <tspan x="31.6708984" y="24">CONFIRM</tspan>
                        </text>
                    </g>
                </g>
            </g>
        </g>
    </g>
</svg>
