<svg width="135" height="41" viewBox="0 0 135 41" fill="none" xmlns="http://www.w3.org/2000/svg">
<path d="M130 40.5H5C2.2 40.5 0 38.3 0 35.5V5.5C0 2.7 2.2 0.5 5 0.5H130C132.8 0.5 135 2.7 135 5.5V35.5C135 38.3 132.8 40.5 130 40.5Z" fill="black"/>
<path d="M47.4 10.7C47.4 11.5 47.2 12.2 46.7 12.7C46.1 13.3 45.4 13.6 44.5 13.6C43.6 13.6 42.9 13.3 42.3 12.7C41.7 12.1 41.4 11.4 41.4 10.5C41.4 9.60002 41.7 8.90002 42.3 8.30002C42.9 7.70002 43.6 7.40002 44.5 7.40002C44.9 7.40002 45.3 7.50002 45.7 7.70002C46.1 7.90002 46.4 8.10002 46.6 8.40002L46.1 8.90002C45.7 8.40002 45.2 8.20002 44.5 8.20002C43.9 8.20002 43.3 8.40002 42.9 8.90002C42.4 9.30002 42.2 9.90002 42.2 10.6C42.2 11.3 42.4 11.9 42.9 12.3C43.4 12.7 43.9 13 44.5 13C45.2 13 45.7 12.8 46.2 12.3C46.5 12 46.7 11.6 46.7 11.1H44.5V10.3H47.4V10.7V10.7ZM52 8.20002H49.3V10.1H51.8V10.8H49.3V12.7H52V13.5H48.5V7.50002H52V8.20002ZM55.3 13.5H54.5V8.20002H52.8V7.50002H57V8.20002H55.3V13.5ZM59.9 13.5V7.50002H60.7V13.5H59.9ZM64.1 13.5H63.3V8.20002H61.6V7.50002H65.7V8.20002H64V13.5H64.1ZM73.6 12.7C73 13.3 72.3 13.6 71.4 13.6C70.5 13.6 69.8 13.3 69.2 12.7C68.6 12.1 68.3 11.4 68.3 10.5C68.3 9.60002 68.6 8.90002 69.2 8.30002C69.8 7.70002 70.5 7.40002 71.4 7.40002C72.3 7.40002 73 7.70002 73.6 8.30002C74.2 8.90002 74.5 9.60002 74.5 10.5C74.5 11.4 74.2 12.1 73.6 12.7ZM69.8 12.2C70.2 12.6 70.8 12.9 71.4 12.9C72 12.9 72.6 12.7 73 12.2C73.4 11.8 73.7 11.2 73.7 10.5C73.7 9.80002 73.5 9.20002 73 8.80002C72.6 8.40002 72 8.10002 71.4 8.10002C70.8 8.10002 70.2 8.30002 69.8 8.80002C69.4 9.20002 69.1 9.80002 69.1 10.5C69.1 11.2 69.3 11.8 69.8 12.2ZM75.6 13.5V7.50002H76.5L79.4 12.2V7.50002H80.2V13.5H79.4L76.3 8.60002V13.5H75.6V13.5Z" fill="white" stroke="white" stroke-width="0.2" stroke-miterlimit="10"/>
<path d="M68.1 22.3C65.7 22.3 63.8 24.1 63.8 26.6C63.8 29 65.7 30.9 68.1 30.9C70.5 30.9 72.4 29.1 72.4 26.6C72.4 24 70.5 22.3 68.1 22.3ZM68.1 29.1C66.8 29.1 65.7 28 65.7 26.5C65.7 25 66.8 23.9 68.1 23.9C69.4 23.9 70.5 24.9 70.5 26.5C70.5 28 69.4 29.1 68.1 29.1ZM58.8 22.3C56.4 22.3 54.5 24.1 54.5 26.6C54.5 29 56.4 30.9 58.8 30.9C61.2 30.9 63.1 29.1 63.1 26.6C63.1 24 61.2 22.3 58.8 22.3ZM58.8 29.1C57.5 29.1 56.4 28 56.4 26.5C56.4 25 57.5 23.9 58.8 23.9C60.1 23.9 61.2 24.9 61.2 26.5C61.2 28 60.1 29.1 58.8 29.1ZM47.7 23.6V25.4H52C51.9 26.4 51.5 27.2 51 27.7C50.4 28.3 49.4 29 47.7 29C45 29 43 26.9 43 24.2C43 21.5 45.1 19.4 47.7 19.4C49.1 19.4 50.2 20 51 20.7L52.3 19.4C51.2 18.4 49.8 17.6 47.8 17.6C44.2 17.6 41.1 20.6 41.1 24.2C41.1 27.8 44.2 30.8 47.8 30.8C49.8 30.8 51.2 30.2 52.4 28.9C53.6 27.7 54 26 54 24.7C54 24.3 54 23.9 53.9 23.6H47.7V23.6ZM93.1 25C92.7 24 91.7 22.3 89.5 22.3C87.3 22.3 85.5 24 85.5 26.6C85.5 29 87.3 30.9 89.7 30.9C91.6 30.9 92.8 29.7 93.2 29L91.8 28C91.3 28.7 90.7 29.2 89.7 29.2C88.7 29.2 88.1 28.8 87.6 27.9L93.3 25.5L93.1 25V25ZM87.3 26.4C87.3 24.8 88.6 23.9 89.5 23.9C90.2 23.9 90.9 24.3 91.1 24.8L87.3 26.4ZM82.6 30.5H84.5V18H82.6V30.5ZM79.6 23.2C79.1 22.7 78.3 22.2 77.3 22.2C75.2 22.2 73.2 24.1 73.2 26.5C73.2 28.9 75.1 30.7 77.3 30.7C78.3 30.7 79.1 30.2 79.5 29.7H79.6V30.3C79.6 31.9 78.7 32.8 77.3 32.8C76.2 32.8 75.4 32 75.2 31.3L73.6 32C74.1 33.1 75.3 34.5 77.4 34.5C79.6 34.5 81.4 33.2 81.4 30.1V22.5H79.6V23.2V23.2ZM77.4 29.1C76.1 29.1 75 28 75 26.5C75 25 76.1 23.9 77.4 23.9C78.7 23.9 79.7 25 79.7 26.5C79.7 28 78.7 29.1 77.4 29.1ZM101.8 18H97.3V30.5H99.2V25.8H101.8C103.9 25.8 105.9 24.3 105.9 21.9C105.9 19.5 103.9 18 101.8 18V18ZM101.9 24H99.2V19.7H101.9C103.3 19.7 104.1 20.9 104.1 21.8C104 22.9 103.2 24 101.9 24ZM113.4 22.2C112 22.2 110.6 22.8 110.1 24.1L111.8 24.8C112.2 24.1 112.8 23.9 113.5 23.9C114.5 23.9 115.4 24.5 115.5 25.5V25.6C115.2 25.4 114.4 25.1 113.6 25.1C111.8 25.1 110 26.1 110 27.9C110 29.6 111.5 30.7 113.1 30.7C114.4 30.7 115 30.1 115.5 29.5H115.6V30.5H117.4V25.7C117.2 23.5 115.5 22.2 113.4 22.2V22.2ZM113.2 29.1C112.6 29.1 111.7 28.8 111.7 28C111.7 27 112.8 26.7 113.7 26.7C114.5 26.7 114.9 26.9 115.4 27.1C115.2 28.3 114.2 29.1 113.2 29.1V29.1ZM123.7 22.5L121.6 27.9H121.5L119.3 22.5H117.3L120.6 30.1L118.7 34.3H120.6L125.7 22.5H123.7V22.5ZM106.9 30.5H108.8V18H106.9V30.5Z" fill="white"/>
<path d="M10.4 8C10.1 8.3 10 8.8 10 9.4V31.5C10 32.1 10.2 32.6 10.5 32.9L10.6 33L23 20.6V20.4L10.4 8Z" fill="url(#paint0_linear_7_408)"/>
<path d="M27 24.8L22.9 20.7V20.4L27 16.3L27.1 16.4L32 19.2C33.4 20 33.4 21.3 32 22.1L27 24.8V24.8Z" fill="url(#paint1_linear_7_408)"/>
<path d="M27.1 24.7L22.9 20.5L10.4 33C10.9 33.5 11.6 33.5 12.5 33.1L27.1 24.7" fill="url(#paint2_linear_7_408)"/>
<path d="M27.1 16.3001L12.5 8.00005C11.6 7.50005 10.9 7.60005 10.4 8.10005L22.9 20.5001L27.1 16.3001V16.3001Z" fill="url(#paint3_linear_7_408)"/>
<path opacity="0.2" d="M27 24.6L12.5 32.8C11.7 33.3 11 33.2 10.5 32.8L10.4 32.9L10.5 33C11 33.4 11.7 33.5 12.5 33L27 24.6Z" fill="black"/>
<path opacity="0.12" d="M10.4 32.8C10.1 32.5 10 32 10 31.4V31.5C10 32.1 10.2 32.6 10.5 32.9V32.8H10.4ZM32 21.8L27 24.6L27.1 24.7L32 21.9C32.7 21.5 33 21 33 20.5C33 21 32.6 21.4 32 21.8V21.8Z" fill="black"/>
<path opacity="0.25" d="M12.5 8.10003L32 19.2C32.6 19.6 33 20 33 20.5C33 20 32.7 19.5 32 19.1L12.5 8.00003C11.1 7.20003 10 7.80003 10 9.40003V9.50003C10 8.00003 11.1 7.30003 12.5 8.10003Z" fill="white"/>
<defs>
<linearGradient id="paint0_linear_7_408" x1="21.8" y1="9.21" x2="5.017" y2="25.992" gradientUnits="userSpaceOnUse">
<stop stop-color="#00A0FF"/>
<stop offset="0.007" stop-color="#00A1FF"/>
<stop offset="0.26" stop-color="#00BEFF"/>
<stop offset="0.512" stop-color="#00D2FF"/>
<stop offset="0.76" stop-color="#00DFFF"/>
<stop offset="1" stop-color="#00E3FF"/>
</linearGradient>
<linearGradient id="paint1_linear_7_408" x1="33.834" y1="20.501" x2="9.63699" y2="20.501" gradientUnits="userSpaceOnUse">
<stop stop-color="#FFE000"/>
<stop offset="0.409" stop-color="#FFBD00"/>
<stop offset="0.775" stop-color="#FFA500"/>
<stop offset="1" stop-color="#FF9C00"/>
</linearGradient>
<linearGradient id="paint2_linear_7_408" x1="24.827" y1="22.796" x2="2.069" y2="45.554" gradientUnits="userSpaceOnUse">
<stop stop-color="#FF3A44"/>
<stop offset="1" stop-color="#C31162"/>
</linearGradient>
<linearGradient id="paint3_linear_7_408" x1="7.29699" y1="0.676051" x2="17.46" y2="10.8391" gradientUnits="userSpaceOnUse">
<stop stop-color="#32A071"/>
<stop offset="0.069" stop-color="#2DA771"/>
<stop offset="0.476" stop-color="#15CF74"/>
<stop offset="0.801" stop-color="#06E775"/>
<stop offset="1" stop-color="#00F076"/>
</linearGradient>
</defs>
</svg>
