<?xml version="1.0" encoding="UTF-8"?>
<!--Generator: Apple Native CoreSVG 326-->
<!DOCTYPE svg PUBLIC "-//W3C//DTD SVG 1.1//EN" "http://www.w3.org/Graphics/SVG/1.1/DTD/svg11.dtd">
<svg version="1.1" xmlns="http://www.w3.org/2000/svg" xmlns:xlink="http://www.w3.org/1999/xlink"
    viewBox="0 0 25.8008 25.459">
    <g>
        <rect height="25.459" opacity="0" width="25.8008" x="0" y="0" />
        <path
            d="M25.4395 12.7344C25.4395 19.7461 19.7266 25.459 12.7148 25.459C5.71289 25.459 0 19.7461 0 12.7344C0 5.73242 5.71289 0.0195312 12.7148 0.0195312C19.7266 0.0195312 25.4395 5.73242 25.4395 12.7344ZM4.21875 17.1094C4.21875 17.6855 4.53125 17.9785 5.27344 17.9785L10.1565 17.9785C10.0126 17.7153 9.96094 17.4251 9.96094 17.1582C9.96094 16.1237 10.5458 14.9671 11.5894 14.0584C10.8025 13.5615 9.83771 13.2715 8.84766 13.2715C6.47461 13.2715 4.21875 14.9512 4.21875 17.1094ZM10.8203 17.1582C10.8203 17.7148 11.1816 17.9785 12.0898 17.9785L20.1855 17.9785C21.1133 17.9785 21.4453 17.7148 21.4453 17.1582C21.4453 15.5371 19.4238 13.291 16.1621 13.291C12.8711 13.291 10.8203 15.5371 10.8203 17.1582ZM6.66016 9.87305C6.66016 11.2402 7.66602 12.2949 8.84766 12.2949C10.0488 12.2949 11.0449 11.2402 11.0449 9.86328C11.0449 8.53516 10.0293 7.5 8.84766 7.5C7.68555 7.5 6.66016 8.55469 6.66016 9.87305ZM13.6426 9.375C13.6426 10.9375 14.7754 12.1582 16.1621 12.1582C17.5195 12.1582 18.6621 10.9375 18.6621 9.36523C18.6621 7.83203 17.5098 6.65039 16.1621 6.65039C14.7852 6.65039 13.6426 7.86133 13.6426 9.375Z"
            fill="#ccc" fill-opacity="0.85" />
    </g>
</svg>