<?xml version="1.0" encoding="UTF-8"?>
<svg width="459px" height="58px" viewBox="0 0 459 58" version="1.1" xmlns="http://www.w3.org/2000/svg" xmlns:xlink="http://www.w3.org/1999/xlink">
    <title>Group 23</title>
    <g id="Page-1" stroke="none" stroke-width="1" fill="none" fill-rule="evenodd">
        <g id="web_05_02" transform="translate(-455.000000, -1301.000000)">
            <g id="explainer-diagram-copy" transform="translate(-33.000000, 767.000000)">
                <g id="Group-23" transform="translate(489.000000, 534.000000)">
                    <g id="server" transform="translate(202.000000, 0.000000)" fill="#CDCDCD">
                        <path d="M49.059309,15.4924134 C50.4853642,15.4924134 51.6413779,14.3363996 51.6413779,12.9103445 L51.6413779,2.5820689 C51.6413779,1.15601376 50.4853642,0 49.059309,0 L2.5820689,0 C1.15601376,0 0,1.15601376 0,2.5820689 L0,12.9103445 C0,14.3363996 1.15601376,15.4924134 2.5820689,15.4924134 L5.16413779,15.4924134 L5.16413779,18.0744823 L2.5820689,18.0744823 C1.15601376,18.0744823 0,19.230496 0,20.6565512 L0,30.9848268 C0,32.4108819 1.15601376,33.5668957 2.5820689,33.5668957 L5.16413779,33.5668957 L5.16413779,36.1489646 L2.5820689,36.1489646 C1.15601376,36.1489646 0,37.3049783 0,38.7310335 L0,49.059309 C0,50.4853642 1.15601376,51.6413779 2.5820689,51.6413779 L49.059309,51.6413779 C50.4853642,51.6413779 51.6413779,50.4853642 51.6413779,49.059309 L51.6413779,38.7310335 C51.6413779,37.3049783 50.4853642,36.1489646 49.059309,36.1489646 L46.4772401,36.1489646 L46.4772401,33.5668957 L49.059309,33.5668957 C50.4853642,33.5668957 51.6413779,32.4108819 51.6413779,30.9848268 L51.6413779,20.6565512 C51.6413779,19.230496 50.4853642,18.0744823 49.059309,18.0744823 L46.4772401,18.0744823 L46.4772401,15.4924134 L49.059309,15.4924134 Z M49.059309,37.8703438 C49.5346249,37.8703438 49.9199987,38.2557176 49.9199987,38.7310335 L49.9199987,49.059309 C49.9199987,49.5346249 49.5346249,49.9199987 49.059309,49.9199987 L2.5820689,49.9199987 C2.10675305,49.9199987 1.72137926,49.5346249 1.72137926,49.059309 L1.72137926,38.7310335 C1.72137926,38.2557176 2.10675305,37.8703438 2.5820689,37.8703438 L49.059309,37.8703438 Z M6.88551706,36.1489646 L6.88551706,33.5668957 L8.60689632,33.5668957 L8.60689632,36.1489646 L6.88551706,36.1489646 Z M10.3282756,36.1489646 L10.3282756,33.5668957 L41.3131024,33.5668957 L41.3131024,36.1489646 L10.3282756,36.1489646 Z M43.0344816,36.1489646 L43.0344816,33.5668957 L44.7558609,33.5668957 L44.7558609,36.1489646 L43.0344816,36.1489646 Z M49.059309,19.7958615 C49.5346249,19.7958615 49.9199987,20.1812353 49.9199987,20.6565512 L49.9199987,30.9848268 C49.9199987,31.4601426 49.5346249,31.8455164 49.059309,31.8455164 L2.5820689,31.8455164 C2.10675305,31.8455164 1.72137926,31.4601426 1.72137926,30.9848268 L1.72137926,20.6565512 C1.72137926,20.1812353 2.10675305,19.7958615 2.5820689,19.7958615 L49.059309,19.7958615 Z M6.88551706,18.0744823 L6.88551706,15.4924134 L8.60689632,15.4924134 L8.60689632,18.0744823 L6.88551706,18.0744823 Z M10.3282756,18.0744823 L10.3282756,15.4924134 L41.3131024,15.4924134 L41.3131024,18.0744823 L10.3282756,18.0744823 Z M43.0344816,18.0744823 L43.0344816,15.4924134 L44.7558609,15.4924134 L44.7558609,18.0744823 L43.0344816,18.0744823 Z M2.5820689,13.7710341 C2.10675305,13.7710341 1.72137926,13.3856603 1.72137926,12.9103445 L1.72137926,2.5820689 C1.72137926,2.10675305 2.10675305,1.72137926 2.5820689,1.72137926 L49.059309,1.72137926 C49.5346249,1.72137926 49.9199987,2.10675305 49.9199987,2.5820689 L49.9199987,12.9103445 C49.9199987,13.3856603 49.5346249,13.7710341 49.059309,13.7710341 L2.5820689,13.7710341 Z" id="Shape"></path>
                        <path d="M27.3751365,7.26228659 L9.89090618,7.26228659 C9.41252399,6.0021536 7.92767677,5.34178624 6.57460663,5.7873754 C5.22153649,6.23296455 4.51230078,7.61551103 4.99068297,8.87564402 C5.46906516,10.135777 6.95391238,10.7961444 8.30698252,10.3505552 C9.0470781,10.1069382 9.62930107,9.56485014 9.89090618,8.87564402 L27.3751365,8.87564402 C27.8535187,8.87564402 28.2413786,8.51445362 28.2413786,8.0689653 C28.2413786,7.62347698 27.8535187,7.26228659 27.3751365,7.26228659 Z M7.45156846,8.87564402 C6.97318627,8.87564402 6.58532637,8.51445362 6.58532637,8.0689653 C6.58532637,7.62347698 6.97318627,7.26228659 7.45156846,7.26228659 C7.92995065,7.26228659 8.31781055,7.62347698 8.31781055,8.0689653 C8.31781055,8.51445362 7.92995065,8.87564402 7.45156846,8.87564402 Z" id="Shape"></path>
                        <rect id="Rectangle" x="37.9241369" y="3.22758612" width="1.61379306" height="1.61379306"></rect>
                        <rect id="Rectangle" x="41.151723" y="3.22758612" width="1.61379306" height="1.61379306"></rect>
                        <rect id="Rectangle" x="45.1862057" y="3.22758612" width="1.61379306" height="1.61379306"></rect>
                        <rect id="Rectangle" x="34.6965508" y="3.22758612" width="1.61379306" height="1.61379306"></rect>
                        <rect id="Rectangle" x="30.6620682" y="3.22758612" width="1.61379306" height="1.61379306"></rect>
                        <rect id="Rectangle" x="37.9241369" y="7.26206877" width="1.61379306" height="1.61379306"></rect>
                        <rect id="Rectangle" x="41.151723" y="7.26206877" width="1.61379306" height="1.61379306"></rect>
                        <rect id="Rectangle" x="45.1862057" y="7.26206877" width="1.61379306" height="1.61379306"></rect>
                        <rect id="Rectangle" x="34.6965508" y="7.26206877" width="1.61379306" height="1.61379306"></rect>
                        <rect id="Rectangle" x="30.6620682" y="7.26206877" width="1.61379306" height="1.61379306"></rect>
                        <rect id="Rectangle" x="37.9241369" y="10.4896549" width="1.61379306" height="1.61379306"></rect>
                        <rect id="Rectangle" x="41.151723" y="10.4896549" width="1.61379306" height="1.61379306"></rect>
                        <rect id="Rectangle" x="45.1862057" y="10.4896549" width="1.61379306" height="1.61379306"></rect>
                        <rect id="Rectangle" x="34.6965508" y="10.4896549" width="1.61379306" height="1.61379306"></rect>
                        <rect id="Rectangle" x="30.6620682" y="10.4896549" width="1.61379306" height="1.61379306"></rect>
                        <path d="M27.3751365,25.0140103 L9.89090618,25.0140103 C9.41252399,23.7538773 7.92767677,23.0935099 6.57460663,23.5390991 C5.22153649,23.9846882 4.51230078,25.3672347 4.99068297,26.6273677 C5.46906516,27.8875007 6.95391238,28.547868 8.30698252,28.1022789 C9.0470781,27.8586619 9.62919279,27.316473 9.8907979,26.6273677 L27.3751365,26.6273677 C27.8535187,26.6273677 28.2413786,26.2661773 28.2413786,25.820689 C28.2413786,25.3752007 27.8535187,25.0140103 27.3751365,25.0140103 Z M7.45156846,26.6273677 C6.97318627,26.6273677 6.58532637,26.2661773 6.58532637,25.820689 C6.58532637,25.3752007 6.97318627,25.0140103 7.45156846,25.0140103 C7.92995065,25.0140103 8.31781055,25.3752007 8.31781055,25.820689 C8.31781055,26.2661773 7.92995065,26.6273677 7.45156846,26.6273677 Z" id="Shape"></path>
                        <rect id="Rectangle" x="37.9241369" y="21.7862063" width="1.61379306" height="1.61379306"></rect>
                        <rect id="Rectangle" x="41.151723" y="21.7862063" width="1.61379306" height="1.61379306"></rect>
                        <rect id="Rectangle" x="45.1862057" y="21.7862063" width="1.61379306" height="1.61379306"></rect>
                        <rect id="Rectangle" x="34.6965508" y="21.7862063" width="1.61379306" height="1.61379306"></rect>
                        <rect id="Rectangle" x="30.6620682" y="21.7862063" width="1.61379306" height="1.61379306"></rect>
                        <rect id="Rectangle" x="37.9241369" y="25.0137924" width="1.61379306" height="1.61379306"></rect>
                        <rect id="Rectangle" x="41.151723" y="25.0137924" width="1.61379306" height="1.61379306"></rect>
                        <rect id="Rectangle" x="45.1862057" y="25.0137924" width="1.61379306" height="1.61379306"></rect>
                        <rect id="Rectangle" x="34.6965508" y="25.0137924" width="1.61379306" height="1.61379306"></rect>
                        <rect id="Rectangle" x="30.6620682" y="25.0137924" width="1.61379306" height="1.61379306"></rect>
                        <rect id="Rectangle" x="37.9241369" y="28.2413786" width="1.61379306" height="1.61379306"></rect>
                        <rect id="Rectangle" x="41.151723" y="28.2413786" width="1.61379306" height="1.61379306"></rect>
                        <rect id="Rectangle" x="45.1862057" y="28.2413786" width="1.61379306" height="1.61379306"></rect>
                        <rect id="Rectangle" x="34.6965508" y="28.2413786" width="1.61379306" height="1.61379306"></rect>
                        <rect id="Rectangle" x="30.6620682" y="28.2413786" width="1.61379306" height="1.61379306"></rect>
                        <path d="M27.3751365,42.7657339 L9.89090618,42.7657339 C9.41252399,41.5056009 7.92767677,40.8452336 6.57460663,41.2908227 C5.22153649,41.7364119 4.51230078,43.1189584 4.99068297,44.3790914 C5.46906516,45.6392243 6.95391238,46.2995917 8.30698252,45.8540025 C9.0470781,45.6103856 9.62919279,45.0681966 9.8907979,44.3790914 L27.3751365,44.3790914 C27.8535187,44.3790914 28.2413786,44.017901 28.2413786,43.5724126 C28.2413786,43.1269243 27.8535187,42.7657339 27.3751365,42.7657339 Z M7.45156846,44.3790914 C6.97318627,44.3790914 6.58532637,44.017901 6.58532637,43.5724126 C6.58532637,43.1269243 6.97318627,42.7657339 7.45156846,42.7657339 C7.92995065,42.7657339 8.31781055,43.1269243 8.31781055,43.5724126 C8.31781055,44.017901 7.92995065,44.3790914 7.45156846,44.3790914 Z" id="Shape"></path>
                        <rect id="Rectangle" x="37.9241369" y="39.53793" width="1.61379306" height="1.61379306"></rect>
                        <rect id="Rectangle" x="41.151723" y="39.53793" width="1.61379306" height="1.61379306"></rect>
                        <rect id="Rectangle" x="45.1862057" y="39.53793" width="1.61379306" height="1.61379306"></rect>
                        <rect id="Rectangle" x="34.6965508" y="39.53793" width="1.61379306" height="1.61379306"></rect>
                        <rect id="Rectangle" x="30.6620682" y="39.53793" width="1.61379306" height="1.61379306"></rect>
                        <rect id="Rectangle" x="37.9241369" y="42.7655161" width="1.61379306" height="1.61379306"></rect>
                        <rect id="Rectangle" x="41.151723" y="42.7655161" width="1.61379306" height="1.61379306"></rect>
                        <rect id="Rectangle" x="45.1862057" y="42.7655161" width="1.61379306" height="1.61379306"></rect>
                        <rect id="Rectangle" x="34.6965508" y="42.7655161" width="1.61379306" height="1.61379306"></rect>
                        <rect id="Rectangle" x="30.6620682" y="42.7655161" width="1.61379306" height="1.61379306"></rect>
                        <rect id="Rectangle" x="37.9241369" y="46.7999988" width="1.61379306" height="1.61379306"></rect>
                        <rect id="Rectangle" x="41.151723" y="46.7999988" width="1.61379306" height="1.61379306"></rect>
                        <rect id="Rectangle" x="45.1862057" y="46.7999988" width="1.61379306" height="1.61379306"></rect>
                        <rect id="Rectangle" x="34.6965508" y="46.7999988" width="1.61379306" height="1.61379306"></rect>
                        <rect id="Rectangle" x="30.6620682" y="46.7999988" width="1.61379306" height="1.61379306"></rect>
                    </g>
                    <g id="Group" transform="translate(404.899987, 3.200000)">
                        <g transform="translate(0.100013, 0.800000)" id="chat-shape-fill">
                            <path d="M42.7271965,0 C47.8484245,0 52,4.15157553 52,9.27280348 L52,30.5938632 C52,35.7150911 47.8484245,39.8666667 42.7271965,39.8666667 L40.2566667,39.8666667 L40.2580645,52 L25.5796667,39.8666667 L9.27280348,39.8666667 C4.15157553,39.8666667 0,35.7150911 0,30.5938632 L0,9.27280348 C0,4.15157553 4.15157553,0 9.27280348,0 L42.7271965,0 Z" fill="#FFFFFF"></path>
                            <path d="M42.7271965,-0.5 L9.27280348,-0.5 C3.87543316,-0.5 -0.5,3.87543316 -0.5,9.27280348 L-0.5,30.5938632 L-0.496245487,30.8674087 C-0.351386656,36.1382963 3.96691401,40.3666667 9.27280348,40.3666667 L25.399,40.366 L40.7581869,53.0621146 L40.756,40.366 L42.7271965,40.3666667 C48.1245668,40.3666667 52.5,35.9912335 52.5,30.5938632 L52.5,9.27280348 C52.5,3.87543316 48.1245668,-0.5 42.7271965,-0.5 Z M9.27280348,0.5 L42.7271965,0.5 C47.5722821,0.5 51.5,4.42771791 51.5,9.27280348 L51.5,30.5938632 C51.5,35.4389488 47.5722821,39.3666667 42.7271965,39.3666667 L39.7566091,39.3666667 L39.758,50.938 L25.759567,39.3666667 L9.27280348,39.3666667 C4.42771791,39.3666667 0.5,35.4389488 0.5,30.5938632 L0.5,9.27280348 C0.5,4.42771791 4.42771791,0.5 9.27280348,0.5 Z" fill="#CDCDCD" fill-rule="nonzero"></path>
                        </g>
                        <g transform="translate(11.100013, 8.800000)" fill="#3E96FC" fill-rule="nonzero" id="key2">
                            <g>
                                <path d="M24.4943961,2.11667896 C23.1106577,0.751745967 21.2709301,0 19.3141064,0 C17.3572828,0 15.5175552,0.751745967 14.1338168,2.11667896 C12.9013011,3.33254274 12.1474026,4.94493585 12.0110542,6.65686455 C11.8857825,8.22851728 12.2848059,9.79772455 13.1378669,11.1151011 L0.462054915,23.6188614 C-0.154018305,24.2266372 -0.154018305,25.215489 0.462054915,25.8232648 C0.760491755,26.117605 1.15735262,26.2798381 1.57942607,26.2798381 C2.00149952,26.2798381 2.3982549,26.1176571 2.69679723,25.8232648 L4.05848783,24.4799768 L5.78523347,26.1834244 C6.08367031,26.4777646 6.48053117,26.6399977 6.90260462,26.6399977 C7.32467808,26.6399977 7.72143345,26.4778166 8.01992303,26.1833724 C8.63599625,25.5755966 8.63594351,24.5867447 8.01992303,23.9790209 L7.1056767,23.0772172 L8.12145907,22.0752014 L9.03565266,22.9769531 C9.3340895,23.2713974 9.73095036,23.4335785 10.1530238,23.4335785 C10.5750973,23.4335785 10.9718526,23.2714494 11.2702367,22.9770052 C11.5686736,22.682665 11.7331356,22.2911827 11.7331356,21.8748295 C11.7331356,21.4584762 11.5687263,21.0669939 11.2702895,20.7726017 L9.54338561,19.0692581 L15.3721345,13.3195566 C16.5479482,14.0623012 17.9031511,14.4531591 19.3145284,14.4532632 C21.2712993,14.4532112 23.1107104,13.7016213 24.4942379,12.3368444 C25.8779235,10.9718593 26.6399977,9.15706508 26.6399977,7.22676167 C26.6399977,5.29645826 25.8780818,3.48166399 24.4943961,2.11667896 Z M23.8848634,11.7356765 C22.6640573,12.9399894 21.0413268,13.6030743 19.3151614,13.6030743 C17.9605915,13.6029702 16.6653608,13.1956184 15.5689826,12.424829 C15.3975581,12.3043769 15.1631021,12.3235764 15.0141475,12.4704083 L8.62929751,18.7686742 C8.54849065,18.848438 8.50312909,18.9565067 8.50312909,19.0693102 C8.50312909,19.1821137 8.5485434,19.2901304 8.62929751,19.3699461 L10.6607568,21.3738736 C10.7964195,21.5076457 10.8711605,21.6855922 10.8711605,21.8748815 C10.8711605,22.0641188 10.7964195,22.2420653 10.6607568,22.3758894 C10.5251468,22.5097135 10.3447028,22.5833896 10.1529183,22.5833896 C9.96108114,22.5833896 9.78063709,22.5097135 9.64497439,22.3758373 L8.42601445,21.1734496 C8.25775473,21.0074703 7.98489969,21.0074703 7.81658722,21.1734496 L6.19143037,22.7765812 C6.0231179,22.9426646 6.0231179,23.2117697 6.19143037,23.3778011 L7.41039032,24.5802408 C7.69047155,24.8564221 7.69047155,25.3059712 7.41039032,25.5822046 C7.27478036,25.7160287 7.09433632,25.7897568 6.90255188,25.7897568 C6.71071469,25.7897568 6.53027065,25.7160287 6.39466069,25.5822046 L4.36320145,23.578225 C4.27901884,23.4952354 4.16877971,23.4537665 4.05843509,23.4537665 C3.94819596,23.4537665 3.83785134,23.4952354 3.75366873,23.578225 L2.08731726,25.222097 C1.95165456,25.3559211 1.77121051,25.4296492 1.57937333,25.4296492 C1.38753614,25.4296492 1.20709209,25.3559211 1.07148214,25.222097 C0.791400908,24.9459157 0.791400908,24.4963666 1.07148214,24.2201333 L13.9984178,11.4684446 C14.1472143,11.3215607 14.166783,11.0902302 14.0446233,10.921129 C12.2080078,8.37883526 12.501803,4.92885823 14.7431913,2.71779477 C15.9641556,1.51342988 17.5874136,0.850188891 19.3141064,0.850188891 C21.0407466,0.850188891 22.6640573,1.51348191 23.8849161,2.71789883 C25.1058804,3.92226372 25.7782864,5.52352217 25.7782864,7.22676167 C25.7782864,8.9300532 25.1058277,10.5313116 23.8848634,11.7356765 Z" id="Shape"></path>
                                <path d="M21.2399982,3.23999972 C20.0470632,3.23999972 19.0799984,4.20706458 19.0799984,5.39999954 C19.0799984,6.59293449 20.0470632,7.55999935 21.2399982,7.55999935 C22.4329331,7.55999935 23.399998,6.59293449 23.399998,5.39999954 C23.399998,4.20706458 22.4329331,3.23999972 21.2399982,3.23999972 Z M21.2399982,3.95999966 C22.0352881,3.95999966 22.679998,4.60470956 22.679998,5.39999954 C22.679998,6.19528951 22.0352881,6.83999941 21.2399982,6.83999941 C20.4447082,6.83999941 19.7999983,6.19528951 19.7999983,5.39999954 C19.7999983,4.60470956 20.4447082,3.95999966 21.2399982,3.95999966 Z" id="Oval-Copy"></path>
                            </g>
                        </g>
                    </g>
                    <g id="Group-Copy-2" transform="translate(142.899987, 3.200000)">
                        <g id="chat-shape-fill" transform="translate(0.100013, 0.800000)">
                            <path d="M42.7271965,0 C47.8484245,0 52,4.15157553 52,9.27280348 L52,30.5938632 C52,35.7150911 47.8484245,39.8666667 42.7271965,39.8666667 L40.2566667,39.8666667 L40.2580645,52 L25.5796667,39.8666667 L9.27280348,39.8666667 C4.15157553,39.8666667 0,35.7150911 0,30.5938632 L0,9.27280348 C0,4.15157553 4.15157553,0 9.27280348,0 L42.7271965,0 Z" fill="#FFFFFF"></path>
                            <path d="M42.7271965,-0.5 L9.27280348,-0.5 C3.87543316,-0.5 -0.5,3.87543316 -0.5,9.27280348 L-0.5,30.5938632 L-0.496245487,30.8674087 C-0.351386656,36.1382963 3.96691401,40.3666667 9.27280348,40.3666667 L25.399,40.366 L40.7581869,53.0621146 L40.756,40.366 L42.7271965,40.3666667 C48.1245668,40.3666667 52.5,35.9912335 52.5,30.5938632 L52.5,9.27280348 C52.5,3.87543316 48.1245668,-0.5 42.7271965,-0.5 Z M9.27280348,0.5 L42.7271965,0.5 C47.5722821,0.5 51.5,4.42771791 51.5,9.27280348 L51.5,30.5938632 C51.5,35.4389488 47.5722821,39.3666667 42.7271965,39.3666667 L39.7566091,39.3666667 L39.758,50.938 L25.759567,39.3666667 L9.27280348,39.3666667 C4.42771791,39.3666667 0.5,35.4389488 0.5,30.5938632 L0.5,9.27280348 C0.5,4.42771791 4.42771791,0.5 9.27280348,0.5 Z" fill="#CDCDCD" fill-rule="nonzero"></path>
                        </g>
                        <g id="key2" transform="translate(13.100013, 6.800000)">
                            <polygon id="Path-2" fill="#FFFFFF" points="0.692261696 23.7000012 0.868531227 26.5907483 3.94372654 26.5907483 4.18127537 24.0404553 5.90368748 24.0404553 5.90368748 22.5171399 7.50830173 22.2926526 7.50830173 20.5887952 9.34875584 20.5887952 13.326539 16.604054 14.8736582 17.2437024 16.3793955 15.8984302 11.1647959 10.7401624 10.000001 12.2166028 10.2980951 13.7000012"></polygon>
                            <path d="M12.074686,17.8225211 C11.8466764,17.5933589 11.4781528,17.5933589 11.2501432,17.8213685 L9.0885121,19.9847535 L7.5805419,19.9847535 C7.25807121,19.9847535 6.99743871,20.2459873 6.99743871,20.568458 L6.99743871,21.7352657 L5.83118222,21.7352657 C5.50871153,21.7352657 5.24807904,21.9964996 5.24807904,22.3189703 L5.24807904,23.485778 L4.08187266,23.485778 C3.76000331,23.485778 3.49876947,23.7470118 3.49876947,24.0694825 L3.49876947,25.5786053 L3.25737998,25.8200449 L1.16625649,25.8200449 L1.16625649,23.7278189 L10.9078782,13.9780289 C11.1358878,13.7506207 11.1358878,13.3808944 10.9084796,13.1529349 L10.7376478,12.9815018 C10.5819498,12.8264051 10.4968095,12.6199437 10.4968095,12.4001024 L10.4968095,12.3977471 C10.4968095,12.0752764 10.236177,11.8151952 9.91370634,11.8151952 C9.59123564,11.8151952 9.33060315,12.0775816 9.33060315,12.4000523 C9.33060315,12.8158315 9.45713594,13.2123176 9.6921612,13.5447105 L0.170831795,23.0735066 C0.0612368595,23.1831516 0,23.3312326 0,23.4863793 L0,26.4043006 C0,26.72617 0.261233837,26.9874038 0.583103189,26.9874038 L3.49871936,26.9874038 C3.65326475,26.9874038 3.80194705,26.9256157 3.91099075,26.816572 L4.49409394,26.2328675 C4.60373899,26.1232225 4.66492573,25.9751415 4.66492573,25.8205961 L4.66492573,24.6537884 L5.83118222,24.6537884 C6.15365292,24.6537884 6.41428541,24.3925546 6.41428541,24.0700839 L6.41428541,22.9032761 L7.5805419,22.9032761 C7.9030126,22.9032761 8.16364509,22.6420423 8.16364509,22.3195716 L8.16364509,21.1527639 L9.32990158,21.1527639 C9.48499821,21.1527639 9.63312927,21.0909758 9.74217298,20.9819321 L12.0746358,18.6477153 C12.3026955,18.4196055 12.3026955,18.0504805 12.074686,17.8225211 Z" id="Path" fill="#F5A623" fill-rule="nonzero"></path>
                            <path d="M11.7769854,20.2790651 L14.5076476,17.5777983 C14.7356572,17.3503901 14.7356572,16.9806638 14.508249,16.7527043 L14.3374172,16.5812711 C14.1817192,16.4261745 14.0965789,16.2197131 14.0965789,15.9998718 L14.0965789,15.9975165 C14.0965789,15.6750458 13.8359464,15.4149645 13.5134757,15.4149645 C13.191005,15.4149645 12.9303725,15.677351 12.9303725,15.9998217 C12.9303725,16.4156009 13.0569053,16.812087 13.2919306,17.1444799 L10.7815607,19.6247528 L11.7769854,20.2790651 Z" id="Shape-Copy" fill="#F5A623" fill-rule="nonzero" transform="translate(12.730145, 17.847015) scale(1, -1) rotate(-270.000000) translate(-12.730145, -17.847015) "></path>
                            <path d="M12.878783,4.5873916 L22.1495024,4.5873916 C22.7030242,4.5873916 23.1517423,5.0361097 23.1517423,5.58963153 L23.1517423,13.356991 C23.1517423,13.9105128 22.7030242,14.3592309 22.1495024,14.3592309 L12.878783,14.3592309 C12.3252612,14.3592309 11.8765431,13.9105128 11.8765431,13.356991 L11.8765431,5.58963153 C11.8765431,5.0361097 12.3252612,4.5873916 12.878783,4.5873916 Z" id="Rectangle" fill="#FFFFFF" fill-rule="nonzero" transform="translate(17.514143, 9.473311) rotate(45.000000) translate(-17.514143, -9.473311) "></path>
                            <path d="M22.1495024,3.58515168 L12.878783,3.58515168 C11.7717394,3.58515168 10.8743032,4.48258788 10.8743032,5.58963153 L10.8743032,13.356991 C10.8743032,14.4640346 11.7717394,15.3614708 12.878783,15.3614708 L22.1495024,15.3614708 C23.256546,15.3614708 24.1539822,14.4640346 24.1539822,13.356991 L24.1539822,5.58963153 C24.1539822,4.48258788 23.256546,3.58515168 22.1495024,3.58515168 Z M12.878783,4.5873916 L22.1495024,4.5873916 C22.7030242,4.5873916 23.1517423,5.0361097 23.1517423,5.58963153 L23.1517423,13.356991 C23.1517423,13.9105128 22.7030242,14.3592309 22.1495024,14.3592309 L12.878783,14.3592309 C12.3252612,14.3592309 11.8765431,13.9105128 11.8765431,13.356991 L11.8765431,5.58963153 C11.8765431,5.0361097 12.3252612,4.5873916 12.878783,4.5873916 Z" id="Rectangle-Copy" fill="#F5A623" fill-rule="nonzero" transform="translate(17.514143, 9.473311) rotate(45.000000) translate(-17.514143, -9.473311) "></path>
                            <path d="M21.1130861,8.19340074 L18.7806232,5.85918396 C18.0936879,5.17049479 16.893656,5.17049479 16.2067207,5.85918396 C15.4970847,6.56942128 15.4970847,7.72515425 16.2067207,8.43484034 L18.5391836,10.7690571 C18.8826512,11.113076 19.339823,11.3025996 19.8261098,11.3025996 C20.3124467,11.3025996 20.7696184,11.113076 21.1130359,10.7690571 C21.822722,10.0588198 21.822722,8.90308684 21.1130861,8.19340074 Z M20.2885433,9.94336177 C20.0412907,10.1906144 19.610979,10.1906144 19.3637264,9.94336177 L17.0312635,7.60914498 C16.7770454,7.35432548 16.7770454,6.93914759 17.0312635,6.68372674 C17.1548898,6.56010045 17.318756,6.49189802 17.493697,6.49189802 C17.668638,6.49189802 17.8325042,6.56010045 17.9561305,6.68372674 L20.2885934,9.01794353 C20.5433628,9.27276303 20.5433628,9.68854227 20.2885433,9.94336177 Z" id="Shape" fill="#F5A623" fill-rule="nonzero"></path>
                        </g>
                    </g>
                    <g id="Group-Copy" transform="translate(260.899987, 3.200000)">
                        <g id="chat-shape-fill" transform="translate(0.100013, 0.800000)">
                            <path d="M42.7271965,0 C47.8484245,0 52,4.15157553 52,9.27280348 L52,30.5938632 C52,35.7150911 47.8484245,39.8666667 42.7271965,39.8666667 L40.2566667,39.8666667 L40.2580645,52 L25.5796667,39.8666667 L9.27280348,39.8666667 C4.15157553,39.8666667 0,35.7150911 0,30.5938632 L0,9.27280348 C0,4.15157553 4.15157553,0 9.27280348,0 L42.7271965,0 Z" fill="#FFFFFF"></path>
                            <path d="M42.7271965,-0.5 L9.27280348,-0.5 C3.87543316,-0.5 -0.5,3.87543316 -0.5,9.27280348 L-0.5,30.5938632 L-0.496245487,30.8674087 C-0.351386656,36.1382963 3.96691401,40.3666667 9.27280348,40.3666667 L25.399,40.366 L40.7581869,53.0621146 L40.756,40.366 L42.7271965,40.3666667 C48.1245668,40.3666667 52.5,35.9912335 52.5,30.5938632 L52.5,9.27280348 C52.5,3.87543316 48.1245668,-0.5 42.7271965,-0.5 Z M9.27280348,0.5 L42.7271965,0.5 C47.5722821,0.5 51.5,4.42771791 51.5,9.27280348 L51.5,30.5938632 C51.5,35.4389488 47.5722821,39.3666667 42.7271965,39.3666667 L39.7566091,39.3666667 L39.758,50.938 L25.759567,39.3666667 L9.27280348,39.3666667 C4.42771791,39.3666667 0.5,35.4389488 0.5,30.5938632 L0.5,9.27280348 C0.5,4.42771791 4.42771791,0.5 9.27280348,0.5 Z" fill="#CDCDCD" fill-rule="nonzero"></path>
                        </g>
                        <g id="Group" transform="translate(9.100013, 3.800000)" fill="#07B4B9" fill-rule="nonzero">
                            <g id="Group" transform="translate(0.000000, 5.760000)">
                                <path d="M6.84,0 C3.06843797,0 0,3.12565323 0,6.96758985 L0,10.3792801 C0,10.6116093 0.185085384,10.8 0.413161728,10.8 L2.70618785,10.8 C2.93426419,10.8 3.11920643,10.6116093 3.11920643,10.3792801 L3.11920643,6.96758985 C3.11920643,4.87769687 4.78831492,3.17741694 6.83995229,3.17741694 C8.89158965,3.17741694 10.5606981,4.87769687 10.5606981,6.96758985 L10.5606981,10.3792801 C10.5606981,10.6116093 10.7458312,10.8 10.9739553,10.8 L13.2669814,10.8 C13.4950578,10.8 13.68,10.6116093 13.68,10.3792801 L13.68,6.96758985 C13.68,3.12565323 10.6116097,0 6.84,0 Z M12.8540105,9.95856023 L11.3868785,9.95856023 L11.3868785,6.96758985 C11.3868785,4.41371905 9.34716976,2.33597717 6.84009543,2.33597717 C4.33302109,2.33597717 2.29331241,4.41371905 2.29331241,6.96758985 L2.29331241,9.95856023 L0.826180311,9.95856023 L0.826180311,6.96758985 C0.826180311,3.58963106 3.52397037,0.841488375 6.84004771,0.841488375 C10.1561728,0.841488375 12.8540105,3.58963106 12.8540105,6.96758985 L12.8540105,9.95856023 L12.8540105,9.95856023 Z" id="Shape-Copy-2"></path>
                                <path d="M25.5454042,10.08 L10.4546446,10.08 C9.45407216,10.08 8.64,10.8622448 8.64,11.8236983 L8.64,22.7363017 C8.64,23.6977552 9.45407216,24.48 10.4546446,24.48 L25.5454042,24.48 C26.5459766,24.48 27.36,23.6977552 27.36,22.7362548 L27.36,11.8236983 C27.36,10.8622448 26.5459766,10.08 25.5454042,10.08 Z M26.5152348,22.7362548 C26.5152348,23.2501553 26.0801652,23.6682153 25.5454042,23.6682153 L10.4546446,23.6682153 C9.91983484,23.6682153 9.48476517,23.2501553 9.48476517,22.7362548 L9.48476517,11.8236983 C9.48476517,11.3097978 9.91983484,10.8917378 10.4546446,10.8917378 L25.5454042,10.8917378 C26.0801652,10.8917378 26.5152348,11.3097978 26.5152348,11.8236983 L26.5152348,22.7362548 Z" id="Shape"></path>
                                <path d="M19.39396,17.4590886 C19.8782057,17.0539043 20.16,16.4615583 20.16,15.8249897 C20.16,14.6422472 19.1910298,13.68 18.0000239,13.68 C16.8089702,13.68 15.84,14.6422472 15.84,15.8249897 C15.84,16.4615583 16.1217943,17.0539043 16.6061357,17.4591837 L16.1401816,19.6637551 C16.1145639,19.785201 16.145353,19.9115447 16.2240734,20.007836 C16.3028418,20.1040322 16.4210182,20.16 16.5458504,20.16 L19.4541975,20.16 C19.5790776,20.16 19.697254,20.1040797 19.7759266,20.007836 C19.8545991,19.9114971 19.8853882,19.7851534 19.8597706,19.6638502 L19.39396,17.4590886 Z M18.7111894,16.9378793 C18.5656236,17.0299385 18.4926013,17.2019314 18.528083,17.3696922 L18.9437116,19.3366975 L17.0563841,19.3366975 L17.4721085,17.3698349 C17.5075423,17.2020265 17.4346637,17.0300336 17.2890021,16.9380219 C16.9007628,16.6926574 16.6690068,16.2765364 16.6690068,15.8250372 C16.6690068,15.0962191 17.2660659,14.5033025 18.0000239,14.5033025 C18.7339341,14.5033025 19.3309933,15.0962191 19.3309933,15.8250372 C19.331089,16.2766315 19.099333,16.6926574 18.7111894,16.9378793 Z" id="Shape"></path>
                            </g>
                        </g>
                    </g>
                    <g id="chat-shape-fill" transform="translate(0.000000, 4.000000)">
                        <path d="M42.7271965,0 C47.8484245,0 52,4.15157553 52,9.27280348 L52,30.5938632 C52,35.7150911 47.8484245,39.8666667 42.7271965,39.8666667 L40.2566667,39.8666667 L40.2580645,52 L25.5796667,39.8666667 L9.27280348,39.8666667 C4.15157553,39.8666667 0,35.7150911 0,30.5938632 L0,9.27280348 C0,4.15157553 4.15157553,0 9.27280348,0 L42.7271965,0 Z" fill="#FFFFFF"></path>
                        <path d="M42.7271965,-0.5 L9.27280348,-0.5 C3.87543316,-0.5 -0.5,3.87543316 -0.5,9.27280348 L-0.5,30.5938632 L-0.496245487,30.8674087 C-0.351386656,36.1382963 3.96691401,40.3666667 9.27280348,40.3666667 L25.399,40.366 L40.7581869,53.0621146 L40.756,40.366 L42.7271965,40.3666667 C48.1245668,40.3666667 52.5,35.9912335 52.5,30.5938632 L52.5,9.27280348 C52.5,3.87543316 48.1245668,-0.5 42.7271965,-0.5 Z M9.27280348,0.5 L42.7271965,0.5 C47.5722821,0.5 51.5,4.42771791 51.5,9.27280348 L51.5,30.5938632 C51.5,35.4389488 47.5722821,39.3666667 42.7271965,39.3666667 L39.7566091,39.3666667 L39.758,50.938 L25.759567,39.3666667 L9.27280348,39.3666667 C4.42771791,39.3666667 0.5,35.4389488 0.5,30.5938632 L0.5,9.27280348 C0.5,4.42771791 4.42771791,0.5 9.27280348,0.5 Z" fill="#CDCDCD" fill-rule="nonzero"></path>
                    </g>
                    <g id="key2-+-circle-copy-5" transform="translate(7.899998, 5.699999)">
                        <g id="Group-16" transform="translate(0.100002, 0.300001)">
                            <g id="Group" fill="#07B4B9" fill-rule="nonzero">
                                <g id="Group" transform="translate(0.000000, 5.760000)">
                                    <path d="M17.64,0 C13.868438,0 10.8,3.12565323 10.8,6.96758985 L10.8,10.3792801 C10.8,10.6116093 10.9850854,10.8 11.2131617,10.8 L13.5061878,10.8 C13.7342642,10.8 13.9192064,10.6116093 13.9192064,10.3792801 L13.9192064,6.96758985 C13.9192064,4.87769687 15.5883149,3.17741694 17.6399523,3.17741694 C19.6915897,3.17741694 21.3606981,4.87769687 21.3606981,6.96758985 L21.3606981,10.3792801 C21.3606981,10.6116093 21.5458312,10.8 21.7739553,10.8 L24.0669814,10.8 C24.2950578,10.8 24.48,10.6116093 24.48,10.3792801 L24.48,6.96758985 C24.48,3.12565323 21.4116097,0 17.64,0 Z M23.6540105,9.95856023 L22.1868785,9.95856023 L22.1868785,6.96758985 C22.1868785,4.41371905 20.1471698,2.33597717 17.6400954,2.33597717 C15.1330211,2.33597717 13.0933124,4.41371905 13.0933124,6.96758985 L13.0933124,9.95856023 L11.6261803,9.95856023 L11.6261803,6.96758985 C11.6261803,3.58963106 14.3239704,0.841488375 17.6400477,0.841488375 C20.9561728,0.841488375 23.6540105,3.58963106 23.6540105,6.96758985 L23.6540105,9.95856023 L23.6540105,9.95856023 Z" id="Shape"></path>
                                    <path d="M25.5454042,10.08 L10.4546446,10.08 C9.45407216,10.08 8.64,10.8622448 8.64,11.8236983 L8.64,22.7363017 C8.64,23.6977552 9.45407216,24.48 10.4546446,24.48 L25.5454042,24.48 C26.5459766,24.48 27.36,23.6977552 27.36,22.7362548 L27.36,11.8236983 C27.36,10.8622448 26.5459766,10.08 25.5454042,10.08 Z M26.5152348,22.7362548 C26.5152348,23.2501553 26.0801652,23.6682153 25.5454042,23.6682153 L10.4546446,23.6682153 C9.91983484,23.6682153 9.48476517,23.2501553 9.48476517,22.7362548 L9.48476517,11.8236983 C9.48476517,11.3097978 9.91983484,10.8917378 10.4546446,10.8917378 L25.5454042,10.8917378 C26.0801652,10.8917378 26.5152348,11.3097978 26.5152348,11.8236983 L26.5152348,22.7362548 Z" id="Shape"></path>
                                    <path d="M19.39396,17.4590886 C19.8782057,17.0539043 20.16,16.4615583 20.16,15.8249897 C20.16,14.6422472 19.1910298,13.68 18.0000239,13.68 C16.8089702,13.68 15.84,14.6422472 15.84,15.8249897 C15.84,16.4615583 16.1217943,17.0539043 16.6061357,17.4591837 L16.1401816,19.6637551 C16.1145639,19.785201 16.145353,19.9115447 16.2240734,20.007836 C16.3028418,20.1040322 16.4210182,20.16 16.5458504,20.16 L19.4541975,20.16 C19.5790776,20.16 19.697254,20.1040797 19.7759266,20.007836 C19.8545991,19.9114971 19.8853882,19.7851534 19.8597706,19.6638502 L19.39396,17.4590886 Z M18.7111894,16.9378793 C18.5656236,17.0299385 18.4926013,17.2019314 18.528083,17.3696922 L18.9437116,19.3366975 L17.0563841,19.3366975 L17.4721085,17.3698349 C17.5075423,17.2020265 17.4346637,17.0300336 17.2890021,16.9380219 C16.9007628,16.6926574 16.6690068,16.2765364 16.6690068,15.8250372 C16.6690068,15.0962191 17.2660659,14.5033025 18.0000239,14.5033025 C18.7339341,14.5033025 19.3309933,15.0962191 19.3309933,15.8250372 C19.331089,16.2766315 19.099333,16.6926574 18.7111894,16.9378793 Z" id="Shape"></path>
                                </g>
                            </g>
                            <g id="key2" transform="translate(18.000000, 12.000000)">
                                <polygon id="Path-2" fill="#FFFFFF" points="0.564065086 19.3111121 0.707692111 21.6665357 3.21340681 21.6665357 3.40696511 19.5885192 4.81041202 19.5885192 4.81041202 18.3472992 6.11787549 18.1643836 6.11787549 16.7760553 7.61750476 16.7760553 10.8586614 13.5292292 12.119277 14.0504242 13.3461741 12.9542764 9.09724108 8.75124341 8.14814893 9.95426895 8.39104046 11.162964"></polygon>
                                <path d="M9.838633,14.5220542 C9.65284741,14.3353295 9.35256891,14.3353295 9.16678332,14.5211151 L7.4054543,16.2838732 L6.17673785,16.2838732 C5.91398395,16.2838732 5.70161673,16.4967304 5.70161673,16.7594843 L5.70161673,17.7102165 L4.75133366,17.7102165 C4.48857976,17.7102165 4.27621255,17.9230737 4.27621255,18.1858276 L4.27621255,19.1365598 L3.32597031,19.1365598 C3.0637064,19.1365598 2.8508492,19.349417 2.8508492,19.6121709 L2.8508492,20.8418265 L2.65416147,21.0385551 L0.950283066,21.0385551 L0.950283066,19.3337784 L8.88790078,11.389505 C9.07368637,11.2042094 9.07368637,10.902951 8.88839077,10.7172062 L8.74919449,10.57752 C8.62232947,10.4511449 8.55295591,10.2829171 8.55295591,10.1037871 L8.55295591,10.101868 C8.55295591,9.83911412 8.34058869,9.62719606 8.07783479,9.62719606 C7.81508089,9.62719606 7.60271368,9.8409924 7.60271368,10.1037463 C7.60271368,10.4425294 7.70581447,10.7655921 7.89731654,11.0364308 L0.139196278,18.800635 C0.0498967003,18.8899754 0,19.010634 0,19.1370498 L0,21.5146153 C0,21.7768793 0.2128572,21.9897365 0.475121117,21.9897365 L2.85080837,21.9897365 C2.97673424,21.9897365 3.09788278,21.9393906 3.1867332,21.8505402 L3.66185432,21.3749291 C3.75119473,21.2855887 3.8010506,21.1649301 3.8010506,21.0390042 L3.8010506,20.088272 L4.75133366,20.088272 C5.01408756,20.088272 5.22645478,19.8754148 5.22645478,19.6126609 L5.22645478,18.6619287 L6.17673785,18.6619287 C6.43949175,18.6619287 6.65185896,18.4490715 6.65185896,18.1863176 L6.65185896,17.2355854 L7.60214203,17.2355854 C7.72851706,17.2355854 7.84921644,17.1852395 7.93806687,17.0963891 L9.83859217,15.1944347 C10.0244186,15.0085674 10.0244186,14.7077989 9.838633,14.5220542 Z" id="Path" fill="#F5A623" fill-rule="nonzero"></path>
                                <path d="M9.5960622,16.5236827 L11.8210462,14.3226505 C12.0068318,14.1373549 12.0068318,13.8360964 11.8215362,13.6503516 L11.6823399,13.5106654 C11.5554749,13.3842903 11.4861013,13.2160625 11.4861013,13.0369325 L11.4861013,13.0350134 C11.4861013,12.7722595 11.2737341,12.5603415 11.0109802,12.5603415 C10.7482263,12.5603415 10.5358591,12.7741378 10.5358591,13.0368917 C10.5358591,13.3756748 10.6389599,13.6987376 10.830462,13.9695762 L8.78497541,15.9905393 L9.5960622,16.5236827 Z" id="Shape-Copy" fill="#F5A623" fill-rule="nonzero" transform="translate(10.372711, 14.542012) scale(1, -1) rotate(-270.000000) translate(-10.372711, -14.542012) "></path>
                                <path d="M10.4938232,3.73787464 L18.0477427,3.73787464 C18.4987604,3.73787464 18.8643826,4.10349679 18.8643826,4.55451458 L18.8643826,10.8834741 C18.8643826,11.3344919 18.4987604,11.7001141 18.0477427,11.7001141 L10.4938232,11.7001141 C10.0428054,11.7001141 9.67718328,11.3344919 9.67718328,10.8834741 L9.67718328,4.55451458 C9.67718328,4.10349679 10.0428054,3.73787464 10.4938232,3.73787464 Z" id="Rectangle" fill="#FFFFFF" fill-rule="nonzero" transform="translate(14.270783, 7.718994) rotate(45.000000) translate(-14.270783, -7.718994) "></path>
                                <path d="M18.0477427,2.9212347 L10.4938232,2.9212347 C9.59178765,2.9212347 8.86054334,3.65247901 8.86054334,4.55451458 L8.86054334,10.8834741 C8.86054334,11.7855097 9.59178765,12.516754 10.4938232,12.516754 L18.0477427,12.516754 C18.9497782,12.516754 19.6810225,11.7855097 19.6810225,10.8834741 L19.6810225,4.55451458 C19.6810225,3.65247901 18.9497782,2.9212347 18.0477427,2.9212347 Z M10.4938232,3.73787464 L18.0477427,3.73787464 C18.4987604,3.73787464 18.8643826,4.10349679 18.8643826,4.55451458 L18.8643826,10.8834741 C18.8643826,11.3344919 18.4987604,11.7001141 18.0477427,11.7001141 L10.4938232,11.7001141 C10.0428054,11.7001141 9.67718328,11.3344919 9.67718328,10.8834741 L9.67718328,4.55451458 C9.67718328,4.10349679 10.0428054,3.73787464 10.4938232,3.73787464 Z" id="Rectangle-Copy" fill="#F5A623" fill-rule="nonzero" transform="translate(14.270783, 7.718994) rotate(45.000000) translate(-14.270783, -7.718994) "></path>
                                <path d="M17.2032553,6.67610431 L15.30273,4.77414989 C14.743005,4.21299576 13.7652012,4.21299576 13.2054761,4.77414989 C12.6272542,5.35286178 12.6272542,6.29457013 13.2054761,6.87283287 L15.1060014,8.77478729 C15.3858639,9.05509895 15.7583743,9.20952556 16.154608,9.20952556 C16.5508825,9.20952556 16.9233928,9.05509895 17.2032145,8.77478729 C17.7814772,8.1960754 17.7814772,7.25436705 17.2032553,6.67610431 Z M16.5314056,8.10199848 C16.3299406,8.30346355 15.9793162,8.30346355 15.7778511,8.10199848 L13.8773258,6.20004406 C13.6701851,5.99241335 13.6701851,5.65412026 13.8773258,5.44599957 C13.9780584,5.34526703 14.111579,5.28969468 14.2541235,5.28969468 C14.396668,5.28969468 14.5301886,5.34526703 14.6309212,5.44599957 L16.5314465,7.34795399 C16.7390363,7.55558469 16.7390363,7.89436777 16.5314056,8.10199848 Z" id="Shape" fill="#F5A623" fill-rule="nonzero"></path>
                            </g>
                        </g>
                    </g>
                    <g id="Group" transform="translate(61.000000, 16.000000)" fill="#F5A623" fill-rule="nonzero">
                        <g id="arrow-copy-11" transform="translate(36.000000, 10.000000) scale(-1, 1) translate(-36.000000, -10.000000) ">
                            <g id="arrow-fills" transform="translate(-1.338843, -2.045454)">
                                <path d="M72.029752,10.7954545 C72.4816214,10.7954545 72.8479338,11.3550985 72.8479338,12.0454545 C72.8479338,12.6926632 72.5259795,13.2249884 72.1134064,13.2890009 L72.029752,13.2954545 L1.33884293,13.2954545 C0.886973585,13.2954545 0.520661108,12.7358104 0.520661108,12.0454545 C0.520661108,11.3982458 0.842615434,10.8659206 1.25518859,10.8019081 L1.33884293,10.7954545 L72.029752,10.7954545 Z" id="Line"></path>
                                <g id="Group" transform="translate(56.194675, 0.261363)">
                                    <path d="M15.9887003,10.7608277 C16.5503465,10.3863969 17.3091868,10.538165 17.6836176,11.0998112 C18.0330863,11.6240143 17.9241774,12.3199954 17.4514639,12.7148892 L17.3446341,12.7947285 L2.67796693,22.5725067 C2.11632074,22.9469375 1.3574804,22.7951694 0.983049603,22.2335232 C0.633580859,21.7093201 0.742489792,21.013339 1.21520334,20.6184452 L1.32203307,20.5386059 L15.9887003,10.7608277 Z" id="Line-Copy"></path>
                                    <path d="M0.983049603,1.32203307 C1.33251835,0.797829953 2.01685051,0.630676229 2.56318076,0.915144963 L2.67796693,0.983049603 L17.3446341,10.7608277 C17.9062803,11.1352585 18.0580484,11.8940989 17.6836176,12.4557451 C17.3341489,12.9799482 16.6498167,13.1471019 16.1034864,12.8626332 L15.9887003,12.7947285 L1.32203307,3.0169504 C0.760386873,2.6425196 0.608618806,1.88367926 0.983049603,1.32203307 Z" id="Line-Copy-2"></path>
                                </g>
                            </g>
                        </g>
                    </g>
                    <g id="Group" transform="translate(322.000000, 16.000000)" fill="#F5A623" fill-rule="nonzero">
                        <g id="arrow-copy-11" transform="translate(36.000000, 10.000000) scale(-1, 1) translate(-36.000000, -10.000000) ">
                            <g id="arrow-fills" transform="translate(-1.338843, -2.045454)">
                                <path d="M72.029752,10.7954545 C72.4816214,10.7954545 72.8479338,11.3550985 72.8479338,12.0454545 C72.8479338,12.6926632 72.5259795,13.2249884 72.1134064,13.2890009 L72.029752,13.2954545 L1.33884293,13.2954545 C0.886973585,13.2954545 0.520661108,12.7358104 0.520661108,12.0454545 C0.520661108,11.3982458 0.842615434,10.8659206 1.25518859,10.8019081 L1.33884293,10.7954545 L72.029752,10.7954545 Z" id="Line"></path>
                                <g id="Group" transform="translate(56.194675, 0.261363)">
                                    <path d="M15.9887003,10.7608277 C16.5503465,10.3863969 17.3091868,10.538165 17.6836176,11.0998112 C18.0330863,11.6240143 17.9241774,12.3199954 17.4514639,12.7148892 L17.3446341,12.7947285 L2.67796693,22.5725067 C2.11632074,22.9469375 1.3574804,22.7951694 0.983049603,22.2335232 C0.633580859,21.7093201 0.742489792,21.013339 1.21520334,20.6184452 L1.32203307,20.5386059 L15.9887003,10.7608277 Z" id="Line-Copy"></path>
                                    <path d="M0.983049603,1.32203307 C1.33251835,0.797829953 2.01685051,0.630676229 2.56318076,0.915144963 L2.67796693,0.983049603 L17.3446341,10.7608277 C17.9062803,11.1352585 18.0580484,11.8940989 17.6836176,12.4557451 C17.3341489,12.9799482 16.6498167,13.1471019 16.1034864,12.8626332 L15.9887003,12.7947285 L1.32203307,3.0169504 C0.760386873,2.6425196 0.608618806,1.88367926 0.983049603,1.32203307 Z" id="Line-Copy-2"></path>
                                </g>
                            </g>
                        </g>
                    </g>
                </g>
            </g>
        </g>
    </g>
</svg>
