<svg width="161" height="40" viewBox="0 0 161 40" fill="none" xmlns="http://www.w3.org/2000/svg">
<path fill-rule="evenodd" clip-rule="evenodd" d="M8.36956 9.95312C9.07658 9.95312 9.77404 10.0183 10.462 10.1487C11.1499 10.2791 11.8091 10.4467 12.4397 10.6516C13.0703 10.8565 13.6579 11.0894 14.2025 11.3502C14.7471 11.6109 15.2487 11.8717 15.7073 12.1325L13.6435 15.9324L13.6153 15.9014C13.5338 15.822 13.3426 15.6926 13.0416 15.5133C12.6977 15.3084 12.2677 15.0942 11.7518 14.8707C11.2359 14.6472 10.6721 14.4516 10.0607 14.2839C9.4492 14.1163 8.83772 14.0325 8.22625 14.0325C6.54469 14.0325 5.70391 14.582 5.70391 15.681C5.70391 16.0162 5.79468 16.2956 5.97621 16.5192C6.15774 16.7427 6.42526 16.9429 6.77877 17.1199C7.13228 17.2969 7.57656 17.4598 8.1116 17.6089C8.64664 17.7579 9.26767 17.9255 9.97469 18.1118C10.9492 18.3726 11.8282 18.6566 12.6117 18.964C13.3951 19.2713 14.0591 19.6532 14.6037 20.1095C15.1483 20.5659 15.5687 21.1201 15.8649 21.772C16.1611 22.424 16.3092 23.2063 16.3092 24.119C16.3092 25.2367 16.0942 26.182 15.6643 26.955C15.2343 27.728 14.6658 28.352 13.9588 28.827C13.2518 29.302 12.4397 29.6466 11.5225 29.8608C10.6053 30.075 9.65939 30.1821 8.68486 30.1821C7.93962 30.1821 7.17528 30.1263 6.39182 30.0145C5.60837 29.9027 4.84403 29.7398 4.09879 29.5255C3.35356 29.3113 2.63221 29.0552 1.93475 28.7572C1.23728 28.4591 0.592366 28.1145 0 27.7234L2.06373 23.7279L2.10045 23.7667C2.20495 23.8665 2.44112 24.0305 2.80896 24.2587C3.22935 24.5195 3.75006 24.7803 4.37109 25.0411C4.99212 25.3018 5.68481 25.5347 6.44915 25.7396C7.21349 25.9445 7.98739 26.0469 8.77084 26.0469C10.4333 26.0469 11.2645 25.5533 11.2645 24.5661C11.2645 24.1935 11.1403 23.8862 10.8919 23.644C10.6435 23.4019 10.2995 23.183 9.86003 22.9874C9.42054 22.7918 8.89983 22.6102 8.29791 22.4426C7.69599 22.2749 7.04152 22.0887 6.3345 21.8838C5.39818 21.6044 4.58606 21.3017 3.89815 20.9757C3.21024 20.6497 2.64176 20.2725 2.19271 19.8441C1.74366 19.4157 1.40926 18.9221 1.18951 18.3633C0.969761 17.8044 0.859887 17.1525 0.859887 16.4074C0.859887 15.3643 1.06053 14.4423 1.46181 13.6413C1.86309 12.8403 2.40768 12.1651 3.09559 11.6156C3.7835 11.0661 4.58129 10.6516 5.48894 10.3722C6.3966 10.0928 7.35681 9.95312 8.36956 9.95312ZM27.1234 10.1208V29.9586H22.4226V10.1208H27.1234ZM39.4853 10.1208L44.7593 20.4867L50.0619 10.1208H55.1353V29.9586H50.4345V18.0839L46.0205 26.7175H43.4981L39.084 18.0839V29.9586H34.3833V10.1208H39.4853ZM86.6338 10.1208V25.9352H96.4939V29.9586H81.9331V10.1208H86.6338ZM115.547 10.1208V14.1442H106.203V18H114.229V21.7161H106.203V25.9352H115.805V29.9586H101.502V10.1208H115.547ZM70.5198 10.1208L70.8416 10.128C71.6918 10.1666 72.4779 10.3598 73.1998 10.7075C74.0119 11.0987 74.7093 11.6109 75.2922 12.2443C75.875 12.8776 76.3336 13.5947 76.668 14.3957C77.0024 15.1967 77.1696 16.0069 77.1696 16.8265C77.1696 17.702 77.0119 18.5402 76.6966 19.3412C76.3813 20.1421 75.9419 20.8593 75.3781 21.4926C74.8144 22.1259 74.1313 22.6289 73.3287 23.0014C72.6154 23.3326 71.834 23.5165 70.9848 23.5533L70.6631 23.5602H66.5356V29.9586H61.8349V10.1208H70.5198ZM70.2045 14.1442H66.5356V19.5647H70.3765C70.9306 19.5647 71.4083 19.3319 71.8096 18.8662C72.2109 18.4005 72.4115 17.7206 72.4115 16.8265C72.4115 16.3608 72.3494 15.9604 72.2252 15.6251C72.101 15.2898 71.9338 15.0104 71.7236 14.7869C71.5134 14.5633 71.2746 14.4003 71.0071 14.2979C70.7395 14.1954 70.472 14.1442 70.2045 14.1442Z" fill="#030749"/>
<path fill-rule="evenodd" clip-rule="evenodd" d="M124.336 10.1101L130.957 16.689L137.762 9.92721L141.072 13.2167L134.267 19.9784L140.888 26.5575L137.486 29.9384L130.865 23.3592L124.06 30.1213L120.75 26.8318L127.554 20.0699L120.934 13.491L124.336 10.1101Z" fill="#030749"/>
<path fill-rule="evenodd" clip-rule="evenodd" d="M137.433 30L140.809 26.6454L140.807 26.6445L147.56 19.936L140.936 13.3552L140.937 13.3546L137.625 10.0637L131.002 3.48203L134.377 0.127456L141.001 6.70925L147.753 0L151.065 3.29085L144.312 10L150.936 16.5815L157.688 9.87254L161 13.1634L154.247 19.8722L160.872 26.4542L157.496 29.8088L150.871 23.2268L144.12 29.9358L150.744 36.518L147.368 39.8725L140.744 33.2904L133.993 40L130.681 36.7092L137.433 30Z" fill="url(#paint0_linear_40_164)"/>
<defs>
<linearGradient id="paint0_linear_40_164" x1="135.948" y1="-0.816326" x2="132.096" y2="36.9857" gradientUnits="userSpaceOnUse">
<stop stop-color="#01F1FF"/>
<stop offset="1" stop-color="#0197FF"/>
</linearGradient>
</defs>
</svg>
