<svg xmlns="http://www.w3.org/2000/svg" width="440" height="4920" viewBox="0 0 440 4920" font-family="-apple-system, Helvetica, sans-serif">
  <defs>
    <style>
      .title { font-size: 17px; font-weight: bold; fill: #FFFFFF; }
      .body { font-size: 14px; fill: #FFFFFF; }
      .caption { font-size: 12px; fill: #8E8E93; }
      .section-label { font-size: 13px; font-weight: 600; fill: #8E8E93; letter-spacing: 0.5px; }
      .accent { fill: #0A84FF; }
      .accent-text { font-size: 14px; fill: #0A84FF; }
      .green { fill: #30D158; }
      .red { fill: #FF453A; }
      .yellow { fill: #FFD60A; }
      .dimmed { opacity: 0.4; }
      .wireframe-label { font-size: 16px; font-weight: bold; fill: #8E8E93; }
    </style>
    <!-- Reusable phone frame -->
    <clipPath id="phone-clip">
      <rect width="390" height="750" rx="20" ry="20"/>
    </clipPath>
  </defs>

  <!-- Background -->
  <rect width="440" height="4920" fill="#111111"/>

  <!-- ==================== -->
  <!-- 5.1 Creation Form    -->
  <!-- ==================== -->
  <text x="25" y="30" class="wireframe-label">5.1 Phase 1 —Creation Form</text>

  <g transform="translate(25, 50)">
    <!-- Phone frame -->
    <rect width="390" height="520" rx="20" ry="20" fill="#1C1C1E" stroke="#3A3A3C" stroke-width="1"/>

    <!-- Status bar area -->
    <rect x="0" y="0" width="390" height="44" rx="20" ry="20" fill="#1C1C1E"/>
    <rect x="0" y="20" width="390" height="24" fill="#1C1C1E"/>
    <text x="30" y="32" font-size="12" font-weight="600" fill="#FFFFFF">9:41</text>
    <!-- Battery/signal icons placeholder -->
    <rect x="330" y="24" width="22" height="10" rx="2" fill="none" stroke="#FFFFFF" stroke-width="1"/>
    <rect x="354" y="26" width="2" height="6" rx="1" fill="#FFFFFF"/>
    <rect x="332" y="26" width="18" height="6" rx="1" fill="#FFFFFF"/>

    <!-- Nav bar -->
    <line x1="0" y1="88" x2="390" y2="88" stroke="#3A3A3C" stroke-width="0.5"/>
    <text x="20" y="70" font-size="17" class="accent">&lt;</text>
    <text x="38" y="70" font-size="17" class="accent">Back</text>
    <text x="130" y="70" class="title">Create channel</text>

    <!-- Camera icon placeholder circle -->
    <circle cx="195" cy="148" r="40" fill="#2C2C2E" stroke="#3A3A3C" stroke-width="1"/>
    <!-- Camera icon -->
    <rect x="179" y="140" width="32" height="22" rx="3" fill="none" stroke="#8E8E93" stroke-width="1.5"/>
    <circle cx="195" cy="151" r="6" fill="none" stroke="#8E8E93" stroke-width="1.5"/>
    <rect x="187" y="137" width="16" height="6" rx="2" fill="none" stroke="#8E8E93" stroke-width="1.5"/>

    <!-- Channel name field section -->
    <rect x="16" y="210" width="358" height="50" rx="10" fill="#2C2C2E"/>
    <!-- Pencil icon -->
    <line x1="36" y1="240" x2="44" y2="228" stroke="#8E8E93" stroke-width="1.5"/>
    <line x1="44" y1="228" x2="47" y2="231" stroke="#8E8E93" stroke-width="1.5"/>
    <line x1="47" y1="231" x2="39" y2="243" stroke="#8E8E93" stroke-width="1.5"/>
    <line x1="36" y1="240" x2="39" y2="243" stroke="#8E8E93" stroke-width="1.5"/>
    <text x="60" y="240" font-size="14" fill="#8E8E93">Enter channel name...</text>

    <!-- Continue button -->
    <rect x="16" y="290" width="358" height="50" rx="12" fill="#0A84FF"/>
    <text x="160" y="320" font-size="17" font-weight="600" fill="#FFFFFF">Continue</text>

    <!-- Footer text -->
    <text x="30" y="370" font-size="12" fill="#8E8E93">
      <tspan x="30" dy="0">Your profile alice will be shared with channel</tspan>
      <tspan x="30" dy="16">relays. Subscribers see only the channel name.</tspan>
    </text>

    <!-- Home indicator -->
    <rect x="145" y="500" width="100" height="5" rx="2.5" fill="#3A3A3C"/>
  </g>


  <!-- ========================= -->
  <!-- 5.2 Relay Selection       -->
  <!-- ========================= -->
  <text x="25" y="610" class="wireframe-label">5.2 Phase 2 —Relay Selection</text>

  <g transform="translate(25, 630)">
    <rect width="390" height="620" rx="20" ry="20" fill="#1C1C1E" stroke="#3A3A3C" stroke-width="1"/>

    <!-- Status bar -->
    <rect x="0" y="0" width="390" height="44" rx="20" ry="20" fill="#1C1C1E"/>
    <rect x="0" y="20" width="390" height="24" fill="#1C1C1E"/>
    <text x="30" y="32" font-size="12" font-weight="600" fill="#FFFFFF">9:41</text>
    <rect x="330" y="24" width="22" height="10" rx="2" fill="none" stroke="#FFFFFF" stroke-width="1"/>
    <rect x="354" y="26" width="2" height="6" rx="1" fill="#FFFFFF"/>
    <rect x="332" y="26" width="18" height="6" rx="1" fill="#FFFFFF"/>

    <!-- Nav bar -->
    <line x1="0" y1="88" x2="390" y2="88" stroke="#3A3A3C" stroke-width="0.5"/>
    <text x="20" y="70" font-size="17" class="accent">&lt;</text>
    <text x="38" y="70" font-size="17" class="accent">Back</text>
    <text x="120" y="70" class="title">Channel relays</text>

    <!-- Section: SIMPLEX CHAT RELAYS -->
    <text x="32" y="115" class="section-label">SIMPLEX CHAT RELAYS</text>

    <!-- Relay rows with card background -->
    <rect x="16" y="125" width="358" height="144" rx="10" fill="#2C2C2E"/>

    <!-- Row 1 -->
    <circle cx="44" cy="155" r="11" fill="#0A84FF"/>
    <polyline points="38,155 42,159 50,150" fill="none" stroke="#FFFFFF" stroke-width="2" stroke-linecap="round" stroke-linejoin="round"/>
    <text x="66" y="160" class="body">relay1.simplex.im</text>
    <line x1="66" y1="173" x2="358" y2="173" stroke="#3A3A3C" stroke-width="0.5"/>

    <!-- Row 2 -->
    <circle cx="44" cy="203" r="11" fill="#0A84FF"/>
    <polyline points="38,203 42,207 50,198" fill="none" stroke="#FFFFFF" stroke-width="2" stroke-linecap="round" stroke-linejoin="round"/>
    <text x="66" y="208" class="body">relay2.simplex.im</text>
    <line x1="66" y1="221" x2="358" y2="221" stroke="#3A3A3C" stroke-width="0.5"/>

    <!-- Row 3 -->
    <circle cx="44" cy="251" r="11" fill="#0A84FF"/>
    <polyline points="38,251 42,255 50,246" fill="none" stroke="#FFFFFF" stroke-width="2" stroke-linecap="round" stroke-linejoin="round"/>
    <text x="66" y="256" class="body">relay3.simplex.im</text>

    <!-- Section: YOUR RELAYS -->
    <text x="32" y="300" class="section-label">YOUR RELAYS</text>

    <rect x="16" y="310" width="358" height="48" rx="10" fill="#2C2C2E"/>
    <!-- Unchecked circle -->
    <circle cx="44" cy="334" r="11" fill="none" stroke="#3A3A3C" stroke-width="1.5"/>
    <text x="66" y="339" class="body">myrelay.example.com</text>

    <!-- Create channel button -->
    <rect x="16" y="390" width="358" height="50" rx="12" fill="#0A84FF"/>
    <text x="130" y="420" font-size="17" font-weight="600" fill="#FFFFFF">Create channel</text>

    <!-- Footer -->
    <text x="30" y="470" font-size="12" fill="#8E8E93">
      <tspan x="30" dy="0">Select relays for the channel.</tspan>
      <tspan x="30" dy="16">At least one relay required.</tspan>
    </text>

    <!-- Home indicator -->
    <rect x="145" y="600" width="100" height="5" rx="2.5" fill="#3A3A3C"/>
  </g>


  <!-- ================================= -->
  <!-- 5.3 Relay Connection Status       -->
  <!-- ================================= -->
  <text x="25" y="1290" class="wireframe-label">5.3 Phase 2 —Relay Connection Status</text>

  <g transform="translate(25, 1310)">
    <rect width="390" height="580" rx="20" ry="20" fill="#1C1C1E" stroke="#3A3A3C" stroke-width="1"/>

    <!-- Status bar -->
    <rect x="0" y="0" width="390" height="44" rx="20" ry="20" fill="#1C1C1E"/>
    <rect x="0" y="20" width="390" height="24" fill="#1C1C1E"/>
    <text x="30" y="32" font-size="12" font-weight="600" fill="#FFFFFF">9:41</text>
    <rect x="330" y="24" width="22" height="10" rx="2" fill="none" stroke="#FFFFFF" stroke-width="1"/>
    <rect x="354" y="26" width="2" height="6" rx="1" fill="#FFFFFF"/>
    <rect x="332" y="26" width="18" height="6" rx="1" fill="#FFFFFF"/>

    <!-- Nav bar (no back button) -->
    <line x1="0" y1="88" x2="390" y2="88" stroke="#3A3A3C" stroke-width="0.5"/>
    <text x="110" y="70" class="title">Creating channel...</text>

    <!-- Channel image + name -->
    <circle cx="195" cy="130" r="30" fill="#2C2C2E" stroke="#3A3A3C" stroke-width="1"/>
    <text x="181" y="135" font-size="14" font-weight="bold" fill="#8E8E93">SN</text>
    <text x="130" y="178" class="title">SimpleX News</text>

    <!-- Section: CHAT RELAYS -->
    <text x="32" y="210" class="section-label">CHAT RELAYS</text>

    <rect x="16" y="220" width="358" height="168" rx="10" fill="#2C2C2E"/>

    <!-- Row 1: Active -->
    <text x="32" y="252" class="body">relay1.simplex.im</text>
    <circle cx="338" cy="248" r="8" fill="#30D158"/>
    <polyline points="334,248 337,251 343,244" fill="none" stroke="#FFFFFF" stroke-width="1.5" stroke-linecap="round" stroke-linejoin="round"/>
    <text x="270" y="252" font-size="13" class="green">Active</text>
    <line x1="32" y1="268" x2="358" y2="268" stroke="#3A3A3C" stroke-width="0.5"/>

    <!-- Row 2: Invited (spinner) -->
    <text x="32" y="300" class="body">relay2.simplex.im</text>
    <!-- Spinner icon -->
    <circle cx="338" cy="296" r="8" fill="none" stroke="#FFD60A" stroke-width="1.5" stroke-dasharray="6 4" stroke-linecap="round"/>
    <text x="265" y="300" font-size="13" class="yellow">Invited</text>
    <line x1="32" y1="316" x2="358" y2="316" stroke="#3A3A3C" stroke-width="0.5"/>

    <!-- Row 3: Invited (spinner) -->
    <text x="32" y="348" class="body">relay3.simplex.im</text>
    <circle cx="338" cy="344" r="8" fill="none" stroke="#FFD60A" stroke-width="1.5" stroke-dasharray="6 4" stroke-linecap="round"/>
    <text x="265" y="348" font-size="13" class="yellow">Invited</text>

    <!-- Proceed button (dimmed/disabled) -->
    <g class="dimmed">
      <rect x="16" y="420" width="358" height="50" rx="12" fill="#0A84FF"/>
      <text x="163" y="450" font-size="17" font-weight="600" fill="#FFFFFF">Proceed</text>
    </g>

    <!-- Skip waiting link -->
    <text x="155" y="495" font-size="14" fill="#0A84FF">Skip waiting</text>

    <!-- Home indicator -->
    <rect x="145" y="560" width="100" height="5" rx="2.5" fill="#3A3A3C"/>
  </g>


  <!-- ========================= -->
  <!-- 5.4 All Active            -->
  <!-- ========================= -->
  <text x="25" y="1930" class="wireframe-label">5.4 Phase 2 —All Active</text>

  <g transform="translate(25, 1950)">
    <rect width="390" height="530" rx="20" ry="20" fill="#1C1C1E" stroke="#3A3A3C" stroke-width="1"/>

    <!-- Status bar -->
    <rect x="0" y="0" width="390" height="44" rx="20" ry="20" fill="#1C1C1E"/>
    <rect x="0" y="20" width="390" height="24" fill="#1C1C1E"/>
    <text x="30" y="32" font-size="12" font-weight="600" fill="#FFFFFF">9:41</text>
    <rect x="330" y="24" width="22" height="10" rx="2" fill="none" stroke="#FFFFFF" stroke-width="1"/>
    <rect x="354" y="26" width="2" height="6" rx="1" fill="#FFFFFF"/>
    <rect x="332" y="26" width="18" height="6" rx="1" fill="#FFFFFF"/>

    <!-- Nav bar -->
    <line x1="0" y1="88" x2="390" y2="88" stroke="#3A3A3C" stroke-width="0.5"/>
    <text x="120" y="70" class="title">Channel created</text>

    <!-- Channel image + name -->
    <circle cx="195" cy="130" r="30" fill="#2C2C2E" stroke="#3A3A3C" stroke-width="1"/>
    <text x="181" y="135" font-size="14" font-weight="bold" fill="#8E8E93">SN</text>
    <text x="130" y="178" class="title">SimpleX News</text>

    <!-- Section: CHAT RELAYS -->
    <text x="32" y="210" class="section-label">CHAT RELAYS</text>

    <rect x="16" y="220" width="358" height="168" rx="10" fill="#2C2C2E"/>

    <!-- Row 1: Active -->
    <text x="32" y="252" class="body">relay1.simplex.im</text>
    <circle cx="338" cy="248" r="8" fill="#30D158"/>
    <polyline points="334,248 337,251 343,244" fill="none" stroke="#FFFFFF" stroke-width="1.5" stroke-linecap="round" stroke-linejoin="round"/>
    <text x="270" y="252" font-size="13" class="green">Active</text>
    <line x1="32" y1="268" x2="358" y2="268" stroke="#3A3A3C" stroke-width="0.5"/>

    <!-- Row 2: Active -->
    <text x="32" y="300" class="body">relay2.simplex.im</text>
    <circle cx="338" cy="296" r="8" fill="#30D158"/>
    <polyline points="334,296 337,299 343,292" fill="none" stroke="#FFFFFF" stroke-width="1.5" stroke-linecap="round" stroke-linejoin="round"/>
    <text x="270" y="300" font-size="13" class="green">Active</text>
    <line x1="32" y1="316" x2="358" y2="316" stroke="#3A3A3C" stroke-width="0.5"/>

    <!-- Row 3: Active -->
    <text x="32" y="348" class="body">relay3.simplex.im</text>
    <circle cx="338" cy="344" r="8" fill="#30D158"/>
    <polyline points="334,344 337,347 343,340" fill="none" stroke="#FFFFFF" stroke-width="1.5" stroke-linecap="round" stroke-linejoin="round"/>
    <text x="270" y="348" font-size="13" class="green">Active</text>

    <!-- Proceed button (enabled) -->
    <rect x="16" y="420" width="358" height="50" rx="12" fill="#0A84FF"/>
    <text x="163" y="450" font-size="17" font-weight="600" fill="#FFFFFF">Proceed</text>

    <!-- Home indicator -->
    <rect x="145" y="510" width="100" height="5" rx="2.5" fill="#3A3A3C"/>
  </g>


  <!-- ========================= -->
  <!-- 5.5 Channel Link          -->
  <!-- ========================= -->
  <text x="25" y="2520" class="wireframe-label">5.5 Phase 3 —Channel Link</text>

  <g transform="translate(25, 2540)">
    <rect width="390" height="600" rx="20" ry="20" fill="#1C1C1E" stroke="#3A3A3C" stroke-width="1"/>

    <!-- Status bar -->
    <rect x="0" y="0" width="390" height="44" rx="20" ry="20" fill="#1C1C1E"/>
    <rect x="0" y="20" width="390" height="24" fill="#1C1C1E"/>
    <text x="30" y="32" font-size="12" font-weight="600" fill="#FFFFFF">9:41</text>
    <rect x="330" y="24" width="22" height="10" rx="2" fill="none" stroke="#FFFFFF" stroke-width="1"/>
    <rect x="354" y="26" width="2" height="6" rx="1" fill="#FFFFFF"/>
    <rect x="332" y="26" width="18" height="6" rx="1" fill="#FFFFFF"/>

    <!-- Nav bar -->
    <line x1="0" y1="88" x2="390" y2="88" stroke="#3A3A3C" stroke-width="0.5"/>
    <text x="130" y="70" class="title">Channel link</text>
    <text x="310" y="70" font-size="17" fill="#0A84FF">Continue</text>

    <!-- Description text -->
    <text x="30" y="115" font-size="14" fill="#8E8E93">
      <tspan x="30" dy="0">You can share a link or QR code —anyone</tspan>
      <tspan x="30" dy="18">can use it to join the channel.</tspan>
    </text>

    <!-- QR Code placeholder -->
    <rect x="70" y="160" width="250" height="250" rx="12" fill="#2C2C2E" stroke="#3A3A3C" stroke-width="1"/>
    <!-- QR pattern suggestion -->
    <g fill="#FFFFFF" opacity="0.8">
      <!-- Corner squares (top-left) -->
      <rect x="90" y="180" width="36" height="36" rx="2"/>
      <rect x="94" y="184" width="28" height="28" rx="1" fill="#2C2C2E"/>
      <rect x="100" y="190" width="16" height="16" rx="1" fill="#FFFFFF"/>

      <!-- Corner squares (top-right) -->
      <rect x="264" y="180" width="36" height="36" rx="2"/>
      <rect x="268" y="184" width="28" height="28" rx="1" fill="#2C2C2E"/>
      <rect x="274" y="190" width="16" height="16" rx="1" fill="#FFFFFF"/>

      <!-- Corner squares (bottom-left) -->
      <rect x="90" y="354" width="36" height="36" rx="2"/>
      <rect x="94" y="358" width="28" height="28" rx="1" fill="#2C2C2E"/>
      <rect x="100" y="364" width="16" height="16" rx="1" fill="#FFFFFF"/>

      <!-- Random dots for QR pattern -->
      <rect x="140" y="190" width="8" height="8"/>
      <rect x="156" y="190" width="8" height="8"/>
      <rect x="172" y="198" width="8" height="8"/>
      <rect x="188" y="190" width="8" height="8"/>
      <rect x="204" y="198" width="8" height="8"/>
      <rect x="220" y="190" width="8" height="8"/>
      <rect x="236" y="198" width="8" height="8"/>
      <rect x="244" y="190" width="8" height="8"/>

      <rect x="140" y="206" width="8" height="8"/>
      <rect x="164" y="214" width="8" height="8"/>
      <rect x="180" y="206" width="8" height="8"/>
      <rect x="196" y="214" width="8" height="8"/>
      <rect x="220" y="206" width="8" height="8"/>
      <rect x="244" y="214" width="8" height="8"/>

      <rect x="140" y="230" width="8" height="8"/>
      <rect x="156" y="238" width="8" height="8"/>
      <rect x="172" y="230" width="8" height="8"/>
      <rect x="196" y="238" width="8" height="8"/>
      <rect x="220" y="230" width="8" height="8"/>
      <rect x="236" y="238" width="8" height="8"/>

      <rect x="140" y="254" width="8" height="8"/>
      <rect x="164" y="254" width="8" height="8"/>
      <rect x="188" y="262" width="8" height="8"/>
      <rect x="204" y="254" width="8" height="8"/>
      <rect x="228" y="262" width="8" height="8"/>
      <rect x="244" y="254" width="8" height="8"/>

      <rect x="140" y="278" width="8" height="8"/>
      <rect x="156" y="286" width="8" height="8"/>
      <rect x="180" y="278" width="8" height="8"/>
      <rect x="196" y="286" width="8" height="8"/>
      <rect x="212" y="278" width="8" height="8"/>
      <rect x="236" y="286" width="8" height="8"/>

      <rect x="140" y="302" width="8" height="8"/>
      <rect x="164" y="310" width="8" height="8"/>
      <rect x="188" y="302" width="8" height="8"/>
      <rect x="204" y="310" width="8" height="8"/>
      <rect x="228" y="302" width="8" height="8"/>
      <rect x="244" y="310" width="8" height="8"/>

      <rect x="140" y="326" width="8" height="8"/>
      <rect x="156" y="334" width="8" height="8"/>
      <rect x="172" y="326" width="8" height="8"/>
      <rect x="196" y="334" width="8" height="8"/>
      <rect x="212" y="326" width="8" height="8"/>
      <rect x="244" y="334" width="8" height="8"/>

      <rect x="140" y="354" width="8" height="8"/>
      <rect x="164" y="362" width="8" height="8"/>
      <rect x="180" y="354" width="8" height="8"/>
      <rect x="204" y="362" width="8" height="8"/>
      <rect x="228" y="354" width="8" height="8"/>
      <rect x="244" y="362" width="8" height="8"/>

      <rect x="140" y="378" width="8" height="8"/>
      <rect x="156" y="378" width="8" height="8"/>
      <rect x="188" y="378" width="8" height="8"/>
      <rect x="212" y="378" width="8" height="8"/>
      <rect x="236" y="378" width="8" height="8"/>

      <rect x="264" y="230" width="8" height="8"/>
      <rect x="272" y="254" width="8" height="8"/>
      <rect x="264" y="278" width="8" height="8"/>
      <rect x="280" y="302" width="8" height="8"/>
      <rect x="264" y="326" width="8" height="8"/>
      <rect x="272" y="346" width="8" height="8"/>
    </g>

    <!-- Share link row -->
    <rect x="16" y="430" width="358" height="50" rx="10" fill="#2C2C2E"/>
    <!-- Link icon -->
    <path d="M42,450 Q34,450 34,458 Q34,466 42,466 L50,466" fill="none" stroke="#0A84FF" stroke-width="1.5" stroke-linecap="round"/>
    <path d="M58,466 Q66,466 66,458 Q66,450 58,450 L50,450" fill="none" stroke="#0A84FF" stroke-width="1.5" stroke-linecap="round"/>
    <line x1="46" y1="458" x2="54" y2="458" stroke="#0A84FF" stroke-width="1.5" stroke-linecap="round"/>
    <text x="78" y="460" font-size="15" fill="#0A84FF">Share link</text>

    <!-- Home indicator -->
    <rect x="145" y="580" width="100" height="5" rx="2.5" fill="#3A3A3C"/>
  </g>


  <!-- =============================== -->
  <!-- 5.7 Error —API Failure (Alert) -->
  <!-- =============================== -->
  <text x="25" y="3180" class="wireframe-label">5.7 Error —API Failure (Alert Dialog)</text>

  <g transform="translate(25, 3200)">
    <!-- Dimmed background -->
    <rect width="390" height="260" rx="20" ry="20" fill="#1C1C1E" stroke="#3A3A3C" stroke-width="1" opacity="0.6"/>

    <!-- Alert card -->
    <rect x="45" y="30" width="300" height="200" rx="14" fill="#2C2C2E"/>

    <!-- Title -->
    <text x="195" y="72" font-size="17" font-weight="bold" fill="#FFFFFF" text-anchor="middle">Error creating channel</text>

    <!-- Message -->
    <text x="195" y="100" font-size="13" fill="#8E8E93" text-anchor="middle">
      <tspan x="195" dy="0">Relay invitation failed:</tspan>
      <tspan x="195" dy="17">relay2.simplex.im: connection timeout</tspan>
    </text>

    <!-- Divider -->
    <line x1="45" y1="140" x2="345" y2="140" stroke="#3A3A3C" stroke-width="0.5"/>

    <!-- Buttons -->
    <line x1="195" y1="140" x2="195" y2="230" stroke="#3A3A3C" stroke-width="0.5"/>

    <!-- OK button -->
    <text x="120" y="192" font-size="17" fill="#0A84FF" text-anchor="middle">OK</text>

    <!-- Retry button -->
    <text x="270" y="192" font-size="17" font-weight="600" fill="#0A84FF" text-anchor="middle">Retry</text>
  </g>


  <!-- ================================= -->
  <!-- 5.8 Error —Partial Failure       -->
  <!-- ================================= -->
  <text x="25" y="3500" class="wireframe-label">5.8 Error —Partial Failure</text>

  <g transform="translate(25, 3520)">
    <rect width="390" height="620" rx="20" ry="20" fill="#1C1C1E" stroke="#3A3A3C" stroke-width="1"/>

    <!-- Status bar -->
    <rect x="0" y="0" width="390" height="44" rx="20" ry="20" fill="#1C1C1E"/>
    <rect x="0" y="20" width="390" height="24" fill="#1C1C1E"/>
    <text x="30" y="32" font-size="12" font-weight="600" fill="#FFFFFF">9:41</text>
    <rect x="330" y="24" width="22" height="10" rx="2" fill="none" stroke="#FFFFFF" stroke-width="1"/>
    <rect x="354" y="26" width="2" height="6" rx="1" fill="#FFFFFF"/>
    <rect x="332" y="26" width="18" height="6" rx="1" fill="#FFFFFF"/>

    <!-- Nav bar -->
    <line x1="0" y1="88" x2="390" y2="88" stroke="#3A3A3C" stroke-width="0.5"/>
    <text x="120" y="70" class="title">Channel created</text>

    <!-- Channel image + name -->
    <circle cx="195" cy="130" r="30" fill="#2C2C2E" stroke="#3A3A3C" stroke-width="1"/>
    <text x="181" y="135" font-size="14" font-weight="bold" fill="#8E8E93">SN</text>
    <text x="130" y="178" class="title">SimpleX News</text>

    <!-- Section: CHAT RELAYS -->
    <text x="32" y="210" class="section-label">CHAT RELAYS</text>

    <rect x="16" y="220" width="358" height="168" rx="10" fill="#2C2C2E"/>

    <!-- Row 1: Active -->
    <text x="32" y="252" class="body">relay1.simplex.im</text>
    <circle cx="338" cy="248" r="8" fill="#30D158"/>
    <polyline points="334,248 337,251 343,244" fill="none" stroke="#FFFFFF" stroke-width="1.5" stroke-linecap="round" stroke-linejoin="round"/>
    <text x="270" y="252" font-size="13" class="green">Active</text>
    <line x1="32" y1="268" x2="358" y2="268" stroke="#3A3A3C" stroke-width="0.5"/>

    <!-- Row 2: Failed (red) -->
    <text x="32" y="300" class="body">relay2.simplex.im</text>
    <circle cx="338" cy="296" r="8" fill="#FF453A"/>
    <line x1="334" y1="292" x2="342" y2="300" stroke="#FFFFFF" stroke-width="1.5" stroke-linecap="round"/>
    <line x1="342" y1="292" x2="334" y2="300" stroke="#FFFFFF" stroke-width="1.5" stroke-linecap="round"/>
    <text x="228" y="300" font-size="13" class="red">Failed to accept</text>
    <line x1="32" y1="316" x2="358" y2="316" stroke="#3A3A3C" stroke-width="0.5"/>

    <!-- Row 3: Active -->
    <text x="32" y="348" class="body">relay3.simplex.im</text>
    <circle cx="338" cy="344" r="8" fill="#30D158"/>
    <polyline points="334,344 337,347 343,340" fill="none" stroke="#FFFFFF" stroke-width="1.5" stroke-linecap="round" stroke-linejoin="round"/>
    <text x="270" y="348" font-size="13" class="green">Active</text>

    <!-- Warning message -->
    <rect x="16" y="405" width="358" height="44" rx="8" fill="#2C2C2E"/>
    <!-- Warning triangle -->
    <polygon points="36,435 42,423 48,435" fill="none" stroke="#FFD60A" stroke-width="1.5" stroke-linejoin="round"/>
    <line x1="42" y1="428" x2="42" y2="431" stroke="#FFD60A" stroke-width="1.5" stroke-linecap="round"/>
    <circle cx="42" cy="433" r="0.8" fill="#FFD60A"/>
    <text x="56" y="432" font-size="13" fill="#FFD60A">1 relay failed. Channel works with remaining relays.</text>

    <!-- Proceed button (enabled) -->
    <rect x="16" y="470" width="358" height="50" rx="12" fill="#0A84FF"/>
    <text x="163" y="500" font-size="17" font-weight="600" fill="#FFFFFF">Proceed</text>

    <!-- Home indicator -->
    <rect x="145" y="600" width="100" height="5" rx="2.5" fill="#3A3A3C"/>
  </g>


  <!-- ================================= -->
  <!-- 5.9 Error —All Relays Fail       -->
  <!-- ================================= -->
  <text x="25" y="4180" class="wireframe-label">5.9 Error —All Relays Fail</text>

  <g transform="translate(25, 4200)">
    <rect width="390" height="640" rx="20" ry="20" fill="#1C1C1E" stroke="#3A3A3C" stroke-width="1"/>

    <!-- Status bar -->
    <rect x="0" y="0" width="390" height="44" rx="20" ry="20" fill="#1C1C1E"/>
    <rect x="0" y="20" width="390" height="24" fill="#1C1C1E"/>
    <text x="30" y="32" font-size="12" font-weight="600" fill="#FFFFFF">9:41</text>
    <rect x="330" y="24" width="22" height="10" rx="2" fill="none" stroke="#FFFFFF" stroke-width="1"/>
    <rect x="354" y="26" width="2" height="6" rx="1" fill="#FFFFFF"/>
    <rect x="332" y="26" width="18" height="6" rx="1" fill="#FFFFFF"/>

    <!-- Nav bar -->
    <line x1="0" y1="88" x2="390" y2="88" stroke="#3A3A3C" stroke-width="0.5"/>
    <text x="120" y="70" class="title">Channel created</text>

    <!-- Channel image + name -->
    <circle cx="195" cy="130" r="30" fill="#2C2C2E" stroke="#3A3A3C" stroke-width="1"/>
    <text x="181" y="135" font-size="14" font-weight="bold" fill="#8E8E93">SN</text>
    <text x="130" y="178" class="title">SimpleX News</text>

    <!-- Section: CHAT RELAYS -->
    <text x="32" y="210" class="section-label">CHAT RELAYS</text>

    <rect x="16" y="220" width="358" height="168" rx="10" fill="#2C2C2E"/>

    <!-- Row 1: Failed -->
    <text x="32" y="252" class="body">relay1.simplex.im</text>
    <circle cx="338" cy="248" r="8" fill="#FF453A"/>
    <line x1="334" y1="244" x2="342" y2="252" stroke="#FFFFFF" stroke-width="1.5" stroke-linecap="round"/>
    <line x1="342" y1="244" x2="334" y2="252" stroke="#FFFFFF" stroke-width="1.5" stroke-linecap="round"/>
    <text x="275" y="252" font-size="13" class="red">Failed</text>
    <line x1="32" y1="268" x2="358" y2="268" stroke="#3A3A3C" stroke-width="0.5"/>

    <!-- Row 2: Failed -->
    <text x="32" y="300" class="body">relay2.simplex.im</text>
    <circle cx="338" cy="296" r="8" fill="#FF453A"/>
    <line x1="334" y1="292" x2="342" y2="300" stroke="#FFFFFF" stroke-width="1.5" stroke-linecap="round"/>
    <line x1="342" y1="292" x2="334" y2="300" stroke="#FFFFFF" stroke-width="1.5" stroke-linecap="round"/>
    <text x="275" y="300" font-size="13" class="red">Failed</text>
    <line x1="32" y1="316" x2="358" y2="316" stroke="#3A3A3C" stroke-width="0.5"/>

    <!-- Row 3: Failed -->
    <text x="32" y="348" class="body">relay3.simplex.im</text>
    <circle cx="338" cy="344" r="8" fill="#FF453A"/>
    <line x1="334" y1="340" x2="342" y2="348" stroke="#FFFFFF" stroke-width="1.5" stroke-linecap="round"/>
    <line x1="342" y1="340" x2="334" y2="348" stroke="#FFFFFF" stroke-width="1.5" stroke-linecap="round"/>
    <text x="275" y="348" font-size="13" class="red">Failed</text>

    <!-- Error message -->
    <text x="30" y="415" font-size="13" fill="#FF453A">
      <tspan x="30" dy="0">All relays failed to accept. Channel won't work</tspan>
      <tspan x="30" dy="17">without active relays.</tspan>
    </text>

    <!-- Proceed button (disabled/dimmed) -->
    <g class="dimmed">
      <rect x="16" y="460" width="358" height="50" rx="12" fill="#0A84FF"/>
      <text x="163" y="490" font-size="17" font-weight="600" fill="#FFFFFF">Proceed</text>
    </g>

    <!-- Delete channel button (red) -->
    <rect x="16" y="530" width="358" height="50" rx="12" fill="none" stroke="#FF453A" stroke-width="1.5"/>
    <text x="130" y="560" font-size="17" font-weight="600" fill="#FF453A">Delete channel</text>

    <!-- Home indicator -->
    <rect x="145" y="620" width="100" height="5" rx="2.5" fill="#3A3A3C"/>
  </g>

</svg>