<svg xmlns="http://www.w3.org/2000/svg" width="440" height="3980" viewBox="0 0 440 3980">
  <defs>
    <style>
      text { font-family: -apple-system, Helvetica, sans-serif; }
      .title { font-size: 17px; font-weight: bold; fill: #FFFFFF; }
      .body { font-size: 14px; fill: #FFFFFF; }
      .secondary { font-size: 14px; fill: #8E8E93; }
      .caption { font-size: 12px; fill: #8E8E93; }
      .accent { font-size: 14px; fill: #0A84FF; }
      .red-text { font-size: 14px; fill: #FF453A; }
      .green-text { font-size: 14px; fill: #30D158; }
      .section-header { font-size: 12px; font-weight: 600; fill: #8E8E93; letter-spacing: 0.5px; }
      .nav-text { font-size: 17px; fill: #0A84FF; }
      .chevron { font-size: 14px; fill: #8E8E93; }
      .section-label { font-size: 20px; font-weight: bold; fill: #FFFFFF; }
    </style>
  </defs>

  <!-- Overall background -->
  <rect width="440" height="3980" fill="#000000"/>

  <!-- ============================================================ -->
  <!-- SECTION 5.1: Channel Info - Owner View                       -->
  <!-- ============================================================ -->
  <text x="25" y="30" class="section-label">5.1 Channel Info — Owner View</text>

  <!-- Phone frame -->
  <rect x="25" y="45" width="390" height="1380" rx="20" ry="20" fill="#1C1C1E" stroke="#3A3A3C" stroke-width="1.5"/>

  <!-- Status bar area -->
  <rect x="25" y="45" width="390" height="44" rx="20" ry="20" fill="#1C1C1E"/>
  <rect x="25" y="69" width="390" height="20" fill="#1C1C1E"/>
  <text x="55" y="74" style="font-size:12px; font-weight:600; fill:#FFFFFF;">9:41</text>
  <text x="365" y="74" style="font-size:12px; fill:#FFFFFF;">100%</text>

  <!-- Nav bar -->
  <text x="50" y="108" class="nav-text">&lt; Channel info</text>

  <!-- Header: channel image + name -->
  <circle cx="220" cy="165" r="35" fill="#0A84FF"/>
  <text x="220" y="170" text-anchor="middle" style="font-size:20px; fill:#FFFFFF; font-weight:bold;">SN</text>
  <text x="220" y="218" text-anchor="middle" class="title">SimpleX News</text>
  <text x="220" y="238" text-anchor="middle" class="secondary">News and updates</text>

  <!-- Set chat name field -->
  <rect x="45" y="258" width="350" height="44" rx="10" ry="10" fill="#2C2C2E"/>
  <text x="62" y="285" class="secondary">Set chat name...</text>

  <!-- Action buttons row -->
  <rect x="45" y="318" width="170" height="56" rx="10" ry="10" fill="#2C2C2E"/>
  <text x="130" y="342" text-anchor="middle" style="font-size:20px;">&#x1F50D;</text>
  <text x="130" y="362" text-anchor="middle" class="caption">Search</text>

  <rect x="225" y="318" width="170" height="56" rx="10" ry="10" fill="#2C2C2E"/>
  <text x="310" y="342" text-anchor="middle" style="font-size:20px;">&#x1F507;</text>
  <text x="310" y="362" text-anchor="middle" class="caption">Mute</text>

  <!-- Section 1: Links/Relays/Members -->
  <rect x="45" y="394" width="350" height="176" rx="10" ry="10" fill="#2C2C2E"/>
  <!-- Channel link -->
  <text x="62" y="421" class="body">&#x1F517;  Channel link</text>
  <text x="375" y="421" text-anchor="end" class="chevron">&gt;</text>
  <line x1="62" y1="438" x2="375" y2="438" stroke="#3A3A3C" stroke-width="0.5"/>
  <!-- Chat relays -->
  <text x="62" y="465" class="body">&#x1F4E1;  Chat relays</text>
  <text x="375" y="465" text-anchor="end" class="chevron">&gt;</text>
  <line x1="62" y1="482" x2="375" y2="482" stroke="#3A3A3C" stroke-width="0.5"/>
  <!-- Chats with members -->
  <text x="62" y="509" class="body">&#x1F4AC;  Chats with members</text>
  <text x="375" y="509" text-anchor="end" class="chevron">&gt;</text>
  <line x1="62" y1="526" x2="375" y2="526" stroke="#3A3A3C" stroke-width="0.5"/>
  <!-- Member reports -->
  <text x="62" y="553" class="body">&#x26A0;&#xFE0F;  Member reports</text>
  <text x="375" y="553" text-anchor="end" class="chevron">&gt;</text>

  <!-- Section 2: Edit/Welcome/Preferences -->
  <rect x="45" y="590" width="350" height="132" rx="10" ry="10" fill="#2C2C2E"/>
  <text x="62" y="617" class="body">&#x270F;&#xFE0F;  Edit channel profile</text>
  <text x="375" y="617" text-anchor="end" class="chevron">&gt;</text>
  <line x1="62" y1="634" x2="375" y2="634" stroke="#3A3A3C" stroke-width="0.5"/>
  <text x="62" y="661" class="body">&#x1F44B;  Welcome message</text>
  <text x="375" y="661" text-anchor="end" class="chevron">&gt;</text>
  <line x1="62" y1="678" x2="375" y2="678" stroke="#3A3A3C" stroke-width="0.5"/>
  <text x="62" y="705" class="body">&#x2699;&#xFE0F;  Channel preferences</text>
  <text x="375" y="705" text-anchor="end" class="chevron">&gt;</text>
  <text x="62" y="742" class="caption">Only channel owners can change channel preferences.</text>

  <!-- Section 3: Chat theme / Delete messages -->
  <rect x="45" y="762" width="350" height="88" rx="10" ry="10" fill="#2C2C2E"/>
  <text x="62" y="789" class="body">Chat theme</text>
  <text x="375" y="789" text-anchor="end" class="chevron">&gt;</text>
  <line x1="62" y1="806" x2="375" y2="806" stroke="#3A3A3C" stroke-width="0.5"/>
  <text x="62" y="833" class="body">Delete messages after</text>
  <text x="375" y="833" text-anchor="end" class="chevron">&gt;</text>
  <text x="62" y="870" class="caption">Delete chat messages from your device.</text>

  <!-- Section header: 150 SUBSCRIBERS -->
  <text x="62" y="910" class="section-header">150 SUBSCRIBERS</text>

  <!-- (no member rows - just empty space to indicate no list) -->
  <rect x="45" y="922" width="350" height="44" rx="10" ry="10" fill="#2C2C2E"/>
  <text x="220" y="949" text-anchor="middle" class="secondary">No member rows shown</text>

  <!-- Section 4: Destructive actions -->
  <rect x="45" y="986" width="350" height="132" rx="10" ry="10" fill="#2C2C2E"/>
  <text x="62" y="1013" class="red-text">&#x1F5D1;  Clear chat</text>
  <line x1="62" y1="1030" x2="375" y2="1030" stroke="#3A3A3C" stroke-width="0.5"/>
  <text x="62" y="1057" class="red-text">&#x274C;  Delete channel</text>
  <line x1="62" y1="1074" x2="375" y2="1074" stroke="#3A3A3C" stroke-width="0.5"/>
  <text x="62" y="1101" class="red-text">&#x1F6AA;  Leave channel</text>

  <!-- ============================================================ -->
  <!-- SECTION 5.2: Channel Info - Member View                      -->
  <!-- ============================================================ -->
  <text x="25" y="1480" class="section-label">5.2 Channel Info — Member View</text>

  <!-- Phone frame -->
  <rect x="25" y="1495" width="390" height="1000" rx="20" ry="20" fill="#1C1C1E" stroke="#3A3A3C" stroke-width="1.5"/>

  <!-- Status bar -->
  <rect x="25" y="1495" width="390" height="44" rx="20" ry="20" fill="#1C1C1E"/>
  <rect x="25" y="1519" width="390" height="20" fill="#1C1C1E"/>
  <text x="55" y="1524" style="font-size:12px; font-weight:600; fill:#FFFFFF;">9:41</text>
  <text x="365" y="1524" style="font-size:12px; fill:#FFFFFF;">100%</text>

  <!-- Nav bar -->
  <text x="50" y="1558" class="nav-text">&lt; Channel info</text>

  <!-- Header -->
  <circle cx="220" cy="1615" r="35" fill="#0A84FF"/>
  <text x="220" y="1620" text-anchor="middle" style="font-size:20px; fill:#FFFFFF; font-weight:bold;">SN</text>
  <text x="220" y="1668" text-anchor="middle" class="title">SimpleX News</text>
  <text x="220" y="1688" text-anchor="middle" class="secondary">News and updates</text>

  <!-- Action buttons -->
  <rect x="45" y="1708" width="170" height="56" rx="10" ry="10" fill="#2C2C2E"/>
  <text x="130" y="1732" text-anchor="middle" style="font-size:20px;">&#x1F50D;</text>
  <text x="130" y="1752" text-anchor="middle" class="caption">Search</text>

  <rect x="225" y="1708" width="170" height="56" rx="10" ry="10" fill="#2C2C2E"/>
  <text x="310" y="1732" text-anchor="middle" style="font-size:20px;">&#x1F507;</text>
  <text x="310" y="1752" text-anchor="middle" class="caption">Mute</text>

  <!-- Section: Relays / Chat with admins -->
  <rect x="45" y="1784" width="350" height="88" rx="10" ry="10" fill="#2C2C2E"/>
  <text x="62" y="1811" class="body">&#x1F4E1;  Chat relays</text>
  <text x="375" y="1811" text-anchor="end" class="chevron">&gt;</text>
  <line x1="62" y1="1828" x2="375" y2="1828" stroke="#3A3A3C" stroke-width="0.5"/>
  <text x="62" y="1855" class="body">&#x1F4AC;  Chat with admins</text>
  <text x="375" y="1855" text-anchor="end" class="chevron">&gt;</text>

  <!-- Section: Channel preferences -->
  <rect x="45" y="1892" width="350" height="44" rx="10" ry="10" fill="#2C2C2E"/>
  <text x="62" y="1919" class="body">&#x2699;&#xFE0F;  Channel preferences</text>
  <text x="375" y="1919" text-anchor="end" class="chevron">&gt;</text>
  <text x="62" y="1956" class="caption">Only channel owners can change channel preferences.</text>

  <!-- Section: Theme / Delete messages -->
  <rect x="45" y="1976" width="350" height="88" rx="10" ry="10" fill="#2C2C2E"/>
  <text x="62" y="2003" class="body">Chat theme</text>
  <text x="375" y="2003" text-anchor="end" class="chevron">&gt;</text>
  <line x1="62" y1="2020" x2="375" y2="2020" stroke="#3A3A3C" stroke-width="0.5"/>
  <text x="62" y="2047" class="body">Delete messages after</text>
  <text x="375" y="2047" text-anchor="end" class="chevron">&gt;</text>
  <text x="62" y="2084" class="caption">Delete chat messages from your device.</text>

  <!-- 150 SUBSCRIBERS -->
  <text x="62" y="2120" class="section-header">150 SUBSCRIBERS</text>

  <!-- Destructive actions -->
  <rect x="45" y="2138" width="350" height="88" rx="10" ry="10" fill="#2C2C2E"/>
  <text x="62" y="2165" class="red-text">&#x1F5D1;  Clear chat</text>
  <line x1="62" y1="2182" x2="375" y2="2182" stroke="#3A3A3C" stroke-width="0.5"/>
  <text x="62" y="2209" class="red-text">&#x1F6AA;  Leave channel</text>

  <!-- ============================================================ -->
  <!-- SECTION 5.3: ChannelRelaysView                               -->
  <!-- ============================================================ -->
  <text x="25" y="2560" class="section-label">5.3 ChannelRelaysView</text>

  <!-- Phone frame -->
  <rect x="25" y="2575" width="390" height="400" rx="20" ry="20" fill="#1C1C1E" stroke="#3A3A3C" stroke-width="1.5"/>

  <!-- Status bar -->
  <rect x="25" y="2575" width="390" height="44" rx="20" ry="20" fill="#1C1C1E"/>
  <rect x="25" y="2599" width="390" height="20" fill="#1C1C1E"/>
  <text x="55" y="2604" style="font-size:12px; font-weight:600; fill:#FFFFFF;">9:41</text>
  <text x="365" y="2604" style="font-size:12px; fill:#FFFFFF;">100%</text>

  <!-- Nav bar -->
  <text x="50" y="2638" class="nav-text">&lt; Chat relays</text>

  <!-- Relay rows -->
  <rect x="45" y="2660" width="350" height="132" rx="10" ry="10" fill="#2C2C2E"/>
  <!-- Relay 1 -->
  <text x="62" y="2690" class="body">relay1.simplex.im</text>
  <circle cx="350" cy="2686" r="4" fill="#30D158"/>
  <text x="362" y="2690" class="green-text" style="font-size:12px;">Active</text>
  <line x1="62" y1="2704" x2="375" y2="2704" stroke="#3A3A3C" stroke-width="0.5"/>
  <!-- Relay 2 -->
  <text x="62" y="2734" class="body">relay2.simplex.im</text>
  <circle cx="350" cy="2730" r="4" fill="#30D158"/>
  <text x="362" y="2734" class="green-text" style="font-size:12px;">Active</text>
  <line x1="62" y1="2748" x2="375" y2="2748" stroke="#3A3A3C" stroke-width="0.5"/>
  <!-- Relay 3 -->
  <text x="62" y="2778" class="body">relay3.simplex.im</text>
  <circle cx="350" cy="2774" r="4" fill="#30D158"/>
  <text x="362" y="2778" class="green-text" style="font-size:12px;">Active</text>

  <!-- Footer -->
  <text x="62" y="2818" class="caption">Relays forward messages to channel subscribers.</text>

  <!-- ============================================================ -->
  <!-- SECTION 5.4: Alt A - Inline Relay Section                    -->
  <!-- ============================================================ -->
  <text x="25" y="3040" class="section-label">5.4 Alt A — Inline Relay Section</text>

  <!-- Partial phone frame -->
  <rect x="25" y="3055" width="390" height="440" rx="20" ry="20" fill="#1C1C1E" stroke="#3A3A3C" stroke-width="1.5"/>

  <!-- Channel link row -->
  <rect x="45" y="3080" width="350" height="44" rx="10" ry="10" fill="#2C2C2E"/>
  <text x="62" y="3107" class="body">&#x1F517;  Channel link</text>
  <text x="375" y="3107" text-anchor="end" class="chevron">&gt;</text>

  <!-- Section header: RELAYS -->
  <text x="62" y="3152" class="section-header">RELAYS</text>

  <!-- Relay rows -->
  <rect x="45" y="3164" width="350" height="132" rx="10" ry="10" fill="#2C2C2E"/>
  <!-- Relay 1 -->
  <text x="62" y="3194" class="body">relay1.simplex.im</text>
  <circle cx="350" cy="3190" r="4" fill="#30D158"/>
  <text x="362" y="3194" class="green-text" style="font-size:12px;">Active</text>
  <line x1="62" y1="3208" x2="375" y2="3208" stroke="#3A3A3C" stroke-width="0.5"/>
  <!-- Relay 2 -->
  <text x="62" y="3238" class="body">relay2.simplex.im</text>
  <circle cx="350" cy="3234" r="4" fill="#30D158"/>
  <text x="362" y="3238" class="green-text" style="font-size:12px;">Active</text>
  <line x1="62" y1="3252" x2="375" y2="3252" stroke="#3A3A3C" stroke-width="0.5"/>
  <!-- Relay 3 -->
  <text x="62" y="3282" class="body">relay3.simplex.im</text>
  <circle cx="350" cy="3278" r="4" fill="#30D158"/>
  <text x="362" y="3282" class="green-text" style="font-size:12px;">Active</text>

  <!-- Footer -->
  <text x="62" y="3322" class="caption">Relays forward messages to channel subscribers.</text>

  <!-- Edit channel profile row -->
  <rect x="45" y="3344" width="350" height="44" rx="10" ry="10" fill="#2C2C2E"/>
  <text x="62" y="3371" class="body">&#x270F;&#xFE0F;  Edit channel profile</text>
  <text x="375" y="3371" text-anchor="end" class="chevron">&gt;</text>

  <!-- Dashed top/bottom borders to indicate partial mockup -->
  <line x1="35" y1="3060" x2="405" y2="3060" stroke="#8E8E93" stroke-width="1" stroke-dasharray="6,4"/>
  <line x1="35" y1="3490" x2="405" y2="3490" stroke="#8E8E93" stroke-width="1" stroke-dasharray="6,4"/>

  <!-- ============================================================ -->
  <!-- SECTION 5.5: Alt B - Owner Member List                       -->
  <!-- ============================================================ -->
  <text x="25" y="3560" class="section-label">5.5 Alt B — Owner Member List</text>

  <!-- Partial phone frame -->
  <rect x="25" y="3575" width="390" height="360" rx="20" ry="20" fill="#1C1C1E" stroke="#3A3A3C" stroke-width="1.5"/>

  <!-- Section header: 150 SUBSCRIBERS -->
  <text x="62" y="3615" class="section-header">150 SUBSCRIBERS</text>

  <!-- Search members -->
  <rect x="45" y="3630" width="350" height="38" rx="8" ry="8" fill="#2C2C2E"/>
  <text x="68" y="3654" class="secondary">&#x1F50D;  Search members...</text>

  <!-- Member rows -->
  <rect x="45" y="3684" width="350" height="132" rx="10" ry="10" fill="#2C2C2E"/>

  <!-- alice -->
  <circle cx="72" cy="3714" r="16" fill="#0A84FF"/>
  <text x="72" y="3718" text-anchor="middle" style="font-size:11px; fill:#FFFFFF; font-weight:600;">A</text>
  <text x="98" y="3710" class="body">alice (you)</text>
  <text x="98" y="3726" class="secondary" style="font-size:12px;">owner</text>
  <line x1="98" y1="3738" x2="375" y2="3738" stroke="#3A3A3C" stroke-width="0.5"/>

  <!-- bob -->
  <circle cx="72" cy="3758" r="16" fill="#30D158"/>
  <text x="72" y="3762" text-anchor="middle" style="font-size:11px; fill:#FFFFFF; font-weight:600;">B</text>
  <text x="98" y="3754" class="body">bob</text>
  <text x="98" y="3770" class="secondary" style="font-size:12px;">admin</text>
  <line x1="98" y1="3782" x2="375" y2="3782" stroke="#3A3A3C" stroke-width="0.5"/>

  <!-- charlie -->
  <circle cx="72" cy="3802" r="16" fill="#FFD60A"/>
  <text x="72" y="3806" text-anchor="middle" style="font-size:11px; fill:#1C1C1E; font-weight:600;">C</text>
  <text x="98" y="3798" class="body">charlie</text>
  <text x="98" y="3814" class="secondary" style="font-size:12px;">admin</text>

  <!-- Dashed borders to indicate partial mockup -->
  <line x1="35" y1="3580" x2="405" y2="3580" stroke="#8E8E93" stroke-width="1" stroke-dasharray="6,4"/>
  <line x1="35" y1="3930" x2="405" y2="3930" stroke="#8E8E93" stroke-width="1" stroke-dasharray="6,4"/>

</svg>