<svg xmlns="http://www.w3.org/2000/svg" width="440" height="6500" viewBox="0 0 440 6500">
  <defs>
    <style>
      text { font-family: -apple-system, Helvetica, sans-serif; }
    </style>
    <clipPath id="circleClip32">
      <circle cx="32" cy="32" r="32"/>
    </clipPath>
    <!-- Spinner icon (circular arrows) -->
    <symbol id="spinner" viewBox="0 0 16 16">
      <path d="M8,1 A7,7 0 0,1 14.5,6" fill="none" stroke="#FFD60A" stroke-width="2" stroke-linecap="round"/>
      <polygon points="14.5,3 14.5,7 11,6" fill="#FFD60A"/>
    </symbol>
    <!-- Checkmark -->
    <symbol id="checkmark" viewBox="0 0 16 16">
      <circle cx="8" cy="8" r="7" fill="#30D158"/>
      <polyline points="4.5,8 7,10.5 11.5,5.5" fill="none" stroke="#FFFFFF" stroke-width="1.8" stroke-linecap="round" stroke-linejoin="round"/>
    </symbol>
    <!-- Warning triangle -->
    <symbol id="warning" viewBox="0 0 16 16">
      <path d="M8,1 L15,14 L1,14 Z" fill="#FFD60A"/>
      <text x="8" y="12.5" font-size="10" font-weight="bold" fill="#000000" text-anchor="middle">!</text>
    </symbol>
    <!-- Error X circle -->
    <symbol id="errorX" viewBox="0 0 16 16">
      <circle cx="8" cy="8" r="7" fill="#FF453A"/>
      <line x1="5" y1="5" x2="11" y2="11" stroke="#FFFFFF" stroke-width="1.8" stroke-linecap="round"/>
      <line x1="11" y1="5" x2="5" y2="11" stroke="#FFFFFF" stroke-width="1.8" stroke-linecap="round"/>
    </symbol>
    <!-- Megaphone icon -->
    <symbol id="megaphone" viewBox="0 0 28 28">
      <path d="M8,6 L18,2 L18,24 L8,20 Z" fill="#0A84FF"/>
      <rect x="4" y="9" width="5" height="8" rx="1" fill="#0A84FF"/>
      <path d="M18,2 Q28,8 28,13 Q28,18 18,24" fill="none" stroke="#0A84FF" stroke-width="2"/>
      <path d="M6,20 L6,24 Q6,26 8,26 L10,26 Q11,26 11,24 L11,20" fill="#0A84FF"/>
    </symbol>
  </defs>

  <!-- Full background -->
  <rect width="440" height="6500" fill="#000000"/>

  <!-- ============================================================ -->
  <!-- §5.1  Pre-Join — Relay Addresses + Join Button               -->
  <!-- ============================================================ -->
  <text x="25" y="30" font-size="16" font-weight="bold" fill="#8E8E93">§5.1 Pre-Join — Relay Addresses + Join Button</text>

  <g transform="translate(25, 46)">
    <!-- Phone frame -->
    <rect x="0" y="0" width="390" height="700" rx="20" fill="#1C1C1E" stroke="#3A3A3C" stroke-width="1"/>

    <!-- Status bar -->
    <text x="20" y="28" font-size="12" font-weight="600" fill="#FFFFFF">9:41</text>
    <g transform="translate(330, 16)">
      <rect x="0" y="0" width="22" height="11" rx="2" fill="none" stroke="#FFFFFF" stroke-width="1"/>
      <rect x="2" y="2" width="14" height="7" rx="1" fill="#FFFFFF"/>
      <rect x="22" y="3" width="2" height="5" rx="1" fill="#FFFFFF" opacity="0.4"/>
    </g>

    <!-- Nav bar -->
    <g transform="translate(0, 44)">
      <!-- Back arrow -->
      <polyline points="16,16 8,24 16,32" fill="none" stroke="#0A84FF" stroke-width="2.5" stroke-linecap="round" stroke-linejoin="round"/>
      <!-- Megaphone small icon -->
      <g transform="translate(36, 10)">
        <circle cx="14" cy="14" r="14" fill="#0A84FF" opacity="0.2"/>
        <use href="#megaphone" x="3" y="3" width="22" height="22"/>
      </g>
      <!-- Title -->
      <text x="72" y="20" font-size="17" font-weight="bold" fill="#FFFFFF">SimpleX News</text>
      <text x="72" y="36" font-size="12" fill="#8E8E93">Channel</text>
      <!-- Ellipsis -->
      <g transform="translate(353, 20)">
        <circle cx="0" cy="0" r="2" fill="#0A84FF"/>
        <circle cx="7" cy="0" r="2" fill="#0A84FF"/>
        <circle cx="14" cy="0" r="2" fill="#0A84FF"/>
      </g>
    </g>

    <!-- Divider below nav -->
    <line x1="0" y1="96" x2="390" y2="96" stroke="#3A3A3C" stroke-width="0.5"/>

    <!-- Chat area — ChatBannerView card -->
    <g transform="translate(30, 140)">
      <rect x="0" y="0" width="330" height="220" rx="16" fill="#2C2C2E"/>

      <!-- Channel image circle -->
      <circle cx="165" cy="50" r="36" fill="#0A84FF" opacity="0.2"/>
      <g transform="translate(147, 32)">
        <use href="#megaphone" x="2" y="2" width="32" height="32"/>
      </g>

      <!-- Channel name -->
      <text x="165" y="112" font-size="17" font-weight="bold" fill="#FFFFFF" text-anchor="middle">SimpleX News</text>

      <!-- Description -->
      <text x="165" y="136" font-size="14" fill="#8E8E93" text-anchor="middle">News and updates from the</text>
      <text x="165" y="154" font-size="14" fill="#8E8E93" text-anchor="middle">SimpleX Chat team</text>

      <!-- Tap to join -->
      <text x="165" y="190" font-size="14" fill="#0A84FF" text-anchor="middle">Tap Join channel</text>
    </g>

    <!-- Bottom area -->
    <g transform="translate(0, 430)">
      <!-- Profile selector -->
      <g transform="translate(16, 0)">
        <text x="0" y="16" font-size="14" fill="#FFFFFF">alice (you)</text>
        <text x="82" y="16" font-size="12" fill="#8E8E93">▾</text>
      </g>

      <!-- Divider -->
      <line x1="16" y1="30" x2="374" y2="30" stroke="#3A3A3C" stroke-width="0.5"/>

      <!-- Relays label -->
      <text x="16" y="56" font-size="14" font-weight="600" fill="#8E8E93">Relays:</text>

      <!-- Relay addresses -->
      <text x="32" y="80" font-size="14" fill="#FFFFFF">relay1.simplex.im</text>
      <text x="32" y="102" font-size="14" fill="#FFFFFF">relay2.simplex.im</text>
      <text x="32" y="124" font-size="14" fill="#FFFFFF">relay3.simplex.im</text>

      <!-- Divider -->
      <line x1="16" y1="144" x2="374" y2="144" stroke="#3A3A3C" stroke-width="0.5"/>

      <!-- Join button -->
      <rect x="16" y="160" width="358" height="50" rx="12" fill="#0A84FF"/>
      <text x="195" y="191" font-size="17" font-weight="600" fill="#FFFFFF" text-anchor="middle">Join channel</text>
    </g>

    <!-- Home indicator -->
    <rect x="140" y="682" width="110" height="5" rx="2.5" fill="#8E8E93" opacity="0.3"/>
  </g>


  <!-- ============================================================ -->
  <!-- §5.2  Sync Error — Alert                                     -->
  <!-- ============================================================ -->
  <text x="25" y="790" font-size="16" font-weight="bold" fill="#8E8E93">§5.2 Sync Error — Alert</text>

  <g transform="translate(25, 806)">
    <!-- Dimmed phone background -->
    <rect x="0" y="0" width="390" height="300" rx="20" fill="#1C1C1E" stroke="#3A3A3C" stroke-width="1"/>
    <!-- Dark overlay -->
    <rect x="0" y="0" width="390" height="300" rx="20" fill="#000000" opacity="0.5"/>

    <!-- Alert dialog -->
    <g transform="translate(55, 60)">
      <rect x="0" y="0" width="280" height="180" rx="14" fill="#2C2C2E"/>

      <!-- Title -->
      <text x="140" y="40" font-size="17" font-weight="bold" fill="#FFFFFF" text-anchor="middle">Connection failed</text>

      <!-- Message -->
      <text x="140" y="68" font-size="14" fill="#8E8E93" text-anchor="middle">Failed to connect to</text>
      <text x="140" y="86" font-size="14" fill="#8E8E93" text-anchor="middle">channel relays.</text>

      <!-- Divider -->
      <line x1="0" y1="110" x2="280" y2="110" stroke="#3A3A3C" stroke-width="0.5"/>

      <!-- Retry button -->
      <rect x="0" y="110" width="140" height="70" rx="0" fill="transparent"/>
      <text x="70" y="152" font-size="17" font-weight="600" fill="#0A84FF" text-anchor="middle">Retry</text>

      <!-- Vertical divider -->
      <line x1="140" y1="110" x2="140" y2="180" stroke="#3A3A3C" stroke-width="0.5"/>

      <!-- Cancel button -->
      <rect x="140" y="110" width="140" height="70" rx="0" fill="transparent"/>
      <text x="210" y="152" font-size="17" fill="#0A84FF" text-anchor="middle">Cancel</text>
    </g>
  </g>


  <!-- ============================================================ -->
  <!-- §5.3  Async Connecting                                       -->
  <!-- ============================================================ -->
  <text x="25" y="1150" font-size="16" font-weight="bold" fill="#8E8E93">§5.3 Async Connecting</text>

  <g transform="translate(25, 1166)">
    <!-- Phone frame -->
    <rect x="0" y="0" width="390" height="660" rx="20" fill="#1C1C1E" stroke="#3A3A3C" stroke-width="1"/>

    <!-- Status bar -->
    <text x="20" y="28" font-size="12" font-weight="600" fill="#FFFFFF">9:41</text>
    <g transform="translate(330, 16)">
      <rect x="0" y="0" width="22" height="11" rx="2" fill="none" stroke="#FFFFFF" stroke-width="1"/>
      <rect x="2" y="2" width="14" height="7" rx="1" fill="#FFFFFF"/>
      <rect x="22" y="3" width="2" height="5" rx="1" fill="#FFFFFF" opacity="0.4"/>
    </g>

    <!-- Nav bar -->
    <g transform="translate(0, 44)">
      <polyline points="16,16 8,24 16,32" fill="none" stroke="#0A84FF" stroke-width="2.5" stroke-linecap="round" stroke-linejoin="round"/>
      <g transform="translate(36, 10)">
        <circle cx="14" cy="14" r="14" fill="#0A84FF" opacity="0.2"/>
        <use href="#megaphone" x="3" y="3" width="22" height="22"/>
      </g>
      <text x="72" y="20" font-size="17" font-weight="bold" fill="#FFFFFF">SimpleX News</text>
      <text x="72" y="36" font-size="12" fill="#8E8E93">Channel</text>
      <g transform="translate(353, 20)">
        <circle cx="0" cy="0" r="2" fill="#0A84FF"/>
        <circle cx="7" cy="0" r="2" fill="#0A84FF"/>
        <circle cx="14" cy="0" r="2" fill="#0A84FF"/>
      </g>
    </g>

    <line x1="0" y1="96" x2="390" y2="96" stroke="#3A3A3C" stroke-width="0.5"/>

    <!-- ChatBannerView (no "Tap Join" text) -->
    <g transform="translate(30, 140)">
      <rect x="0" y="0" width="330" height="190" rx="16" fill="#2C2C2E"/>
      <circle cx="165" cy="50" r="36" fill="#0A84FF" opacity="0.2"/>
      <g transform="translate(147, 32)">
        <use href="#megaphone" x="2" y="2" width="32" height="32"/>
      </g>
      <text x="165" y="112" font-size="17" font-weight="bold" fill="#FFFFFF" text-anchor="middle">SimpleX News</text>
      <text x="165" y="136" font-size="14" fill="#8E8E93" text-anchor="middle">News and updates from the</text>
      <text x="165" y="154" font-size="14" fill="#8E8E93" text-anchor="middle">SimpleX Chat team</text>
    </g>

    <!-- Bottom panel — connecting status -->
    <g transform="translate(0, 480)">
      <rect x="0" y="0" width="390" height="140" fill="#2C2C2E" rx="0"/>
      <line x1="0" y1="0" x2="390" y2="0" stroke="#3A3A3C" stroke-width="0.5"/>

      <!-- Connecting label -->
      <text x="16" y="28" font-size="14" fill="#8E8E93">Connecting to channel...</text>

      <!-- Relay 1 — connected -->
      <g transform="translate(16, 42)">
        <use href="#checkmark" x="0" y="0" width="16" height="16"/>
        <text x="22" y="13" font-size="14" fill="#30D158">relay1.simplex.im</text>
      </g>

      <!-- Relay 2 — connecting -->
      <g transform="translate(16, 66)">
        <use href="#spinner" x="0" y="0" width="16" height="16"/>
        <text x="22" y="13" font-size="14" fill="#FFD60A">relay2.simplex.im</text>
      </g>

      <!-- Relay 3 — connecting -->
      <g transform="translate(16, 90)">
        <use href="#spinner" x="0" y="0" width="16" height="16"/>
        <text x="22" y="13" font-size="14" fill="#FFD60A">relay3.simplex.im</text>
      </g>
    </g>

    <!-- Home indicator -->
    <rect x="140" y="642" width="110" height="5" rx="2.5" fill="#8E8E93" opacity="0.3"/>
  </g>


  <!-- ============================================================ -->
  <!-- §5.4  All Connected — Observer View                          -->
  <!-- ============================================================ -->
  <text x="25" y="1870" font-size="16" font-weight="bold" fill="#8E8E93">§5.4 All Connected — Observer View</text>

  <g transform="translate(25, 1886)">
    <!-- Phone frame -->
    <rect x="0" y="0" width="390" height="700" rx="20" fill="#1C1C1E" stroke="#3A3A3C" stroke-width="1"/>

    <!-- Status bar -->
    <text x="20" y="28" font-size="12" font-weight="600" fill="#FFFFFF">9:41</text>
    <g transform="translate(330, 16)">
      <rect x="0" y="0" width="22" height="11" rx="2" fill="none" stroke="#FFFFFF" stroke-width="1"/>
      <rect x="2" y="2" width="14" height="7" rx="1" fill="#FFFFFF"/>
      <rect x="22" y="3" width="2" height="5" rx="1" fill="#FFFFFF" opacity="0.4"/>
    </g>

    <!-- Nav bar -->
    <g transform="translate(0, 44)">
      <polyline points="16,16 8,24 16,32" fill="none" stroke="#0A84FF" stroke-width="2.5" stroke-linecap="round" stroke-linejoin="round"/>
      <g transform="translate(36, 10)">
        <circle cx="14" cy="14" r="14" fill="#0A84FF" opacity="0.2"/>
        <use href="#megaphone" x="3" y="3" width="22" height="22"/>
      </g>
      <text x="72" y="20" font-size="17" font-weight="bold" fill="#FFFFFF">SimpleX News</text>
      <text x="72" y="36" font-size="12" fill="#8E8E93">Channel</text>
      <g transform="translate(353, 20)">
        <circle cx="0" cy="0" r="2" fill="#0A84FF"/>
        <circle cx="7" cy="0" r="2" fill="#0A84FF"/>
        <circle cx="14" cy="0" r="2" fill="#0A84FF"/>
      </g>
    </g>

    <line x1="0" y1="96" x2="390" y2="96" stroke="#3A3A3C" stroke-width="0.5"/>

    <!-- ChatBannerView -->
    <g transform="translate(30, 120)">
      <rect x="0" y="0" width="330" height="190" rx="16" fill="#2C2C2E"/>
      <circle cx="165" cy="50" r="36" fill="#0A84FF" opacity="0.2"/>
      <g transform="translate(147, 32)">
        <use href="#megaphone" x="2" y="2" width="32" height="32"/>
      </g>
      <text x="165" y="112" font-size="17" font-weight="bold" fill="#FFFFFF" text-anchor="middle">SimpleX News</text>
      <text x="165" y="136" font-size="14" fill="#8E8E93" text-anchor="middle">News and updates from the</text>
      <text x="165" y="154" font-size="14" fill="#8E8E93" text-anchor="middle">SimpleX Chat team</text>
    </g>

    <!-- Message bubble -->
    <g transform="translate(16, 340)">
      <!-- Sender icon -->
      <g transform="translate(0, 0)">
        <circle cx="16" cy="16" r="16" fill="#0A84FF" opacity="0.2"/>
        <use href="#megaphone" x="4" y="4" width="24" height="24"/>
      </g>
      <!-- Bubble -->
      <g transform="translate(40, 0)">
        <rect x="0" y="0" width="290" height="80" rx="16" fill="#2C2C2E"/>
        <!-- Sender name -->
        <text x="12" y="22" font-size="12" font-weight="600" fill="#0A84FF">SimpleX News</text>
        <!-- Message text -->
        <text x="12" y="44" font-size="14" fill="#FFFFFF">Welcome to the official</text>
        <text x="12" y="62" font-size="14" fill="#FFFFFF">SimpleX News channel!</text>
        <!-- Timestamp + check -->
        <text x="278" y="72" font-size="11" fill="#8E8E93" text-anchor="end">5:00 PM ✓</text>
      </g>
    </g>

    <!-- Bottom — disabled compose -->
    <g transform="translate(0, 620)">
      <rect x="0" y="0" width="390" height="50" fill="#1C1C1E"/>
      <line x1="0" y1="0" x2="390" y2="0" stroke="#3A3A3C" stroke-width="0.5"/>
      <!-- Paperclip icon (grayed out) -->
      <g transform="translate(14, 12)">
        <path d="M10,2 L10,14 C10,16.5 8,18.5 5.5,18.5 C3,18.5 1,16.5 1,14 L1,5.5 C1,3.5 2.5,2 4.5,2 C6.5,2 8,3.5 8,5.5 L8,13" fill="none" stroke="#8E8E93" stroke-width="1.5" stroke-linecap="round"/>
      </g>
      <!-- Text field pill with disabled text -->
      <rect x="46" y="7" width="328" height="36" rx="18" fill="#3A3A3C"/>
      <text x="58" y="29" font-size="14" fill="#8E8E93" font-style="italic">you are observer</text>
    </g>

    <!-- Home indicator -->
    <rect x="140" y="682" width="110" height="5" rx="2.5" fill="#8E8E93" opacity="0.3"/>
  </g>


  <!-- ============================================================ -->
  <!-- §5.5  Partial Failure — Summary Bar                          -->
  <!-- ============================================================ -->
  <text x="25" y="2630" font-size="16" font-weight="bold" fill="#8E8E93">§5.5 Partial Failure — Summary Bar</text>

  <g transform="translate(25, 2646)">
    <!-- Phone frame -->
    <rect x="0" y="0" width="390" height="700" rx="20" fill="#1C1C1E" stroke="#3A3A3C" stroke-width="1"/>

    <!-- Status bar -->
    <text x="20" y="28" font-size="12" font-weight="600" fill="#FFFFFF">9:41</text>
    <g transform="translate(330, 16)">
      <rect x="0" y="0" width="22" height="11" rx="2" fill="none" stroke="#FFFFFF" stroke-width="1"/>
      <rect x="2" y="2" width="14" height="7" rx="1" fill="#FFFFFF"/>
      <rect x="22" y="3" width="2" height="5" rx="1" fill="#FFFFFF" opacity="0.4"/>
    </g>

    <!-- Nav bar -->
    <g transform="translate(0, 44)">
      <polyline points="16,16 8,24 16,32" fill="none" stroke="#0A84FF" stroke-width="2.5" stroke-linecap="round" stroke-linejoin="round"/>
      <g transform="translate(36, 10)">
        <circle cx="14" cy="14" r="14" fill="#0A84FF" opacity="0.2"/>
        <use href="#megaphone" x="3" y="3" width="22" height="22"/>
      </g>
      <text x="72" y="20" font-size="17" font-weight="bold" fill="#FFFFFF">SimpleX News</text>
      <text x="72" y="36" font-size="12" fill="#8E8E93">Channel</text>
      <g transform="translate(353, 20)">
        <circle cx="0" cy="0" r="2" fill="#0A84FF"/>
        <circle cx="7" cy="0" r="2" fill="#0A84FF"/>
        <circle cx="14" cy="0" r="2" fill="#0A84FF"/>
      </g>
    </g>

    <line x1="0" y1="96" x2="390" y2="96" stroke="#3A3A3C" stroke-width="0.5"/>

    <!-- ChatBannerView -->
    <g transform="translate(30, 120)">
      <rect x="0" y="0" width="330" height="170" rx="16" fill="#2C2C2E"/>
      <circle cx="165" cy="45" r="32" fill="#0A84FF" opacity="0.2"/>
      <g transform="translate(149, 29)">
        <use href="#megaphone" x="2" y="2" width="28" height="28"/>
      </g>
      <text x="165" y="100" font-size="17" font-weight="bold" fill="#FFFFFF" text-anchor="middle">SimpleX News</text>
      <text x="165" y="122" font-size="14" fill="#8E8E93" text-anchor="middle">News and updates from the</text>
      <text x="165" y="140" font-size="14" fill="#8E8E93" text-anchor="middle">SimpleX Chat team</text>
    </g>

    <!-- Message area (placeholder) -->
    <g transform="translate(16, 320)">
      <g transform="translate(0, 0)">
        <circle cx="16" cy="16" r="16" fill="#0A84FF" opacity="0.2"/>
        <use href="#megaphone" x="4" y="4" width="24" height="24"/>
      </g>
      <g transform="translate(40, 0)">
        <rect x="0" y="0" width="290" height="60" rx="16" fill="#2C2C2E"/>
        <text x="12" y="22" font-size="12" font-weight="600" fill="#0A84FF">SimpleX News</text>
        <text x="12" y="44" font-size="14" fill="#FFFFFF">Welcome to the channel!</text>
        <text x="278" y="52" font-size="11" fill="#8E8E93" text-anchor="end">5:00 PM ✓</text>
      </g>
    </g>

    <!-- Warning bar -->
    <g transform="translate(0, 570)">
      <rect x="0" y="0" width="390" height="40" fill="#FFD60A" opacity="0.15"/>
      <line x1="0" y1="0" x2="390" y2="0" stroke="#FFD60A" stroke-width="0.5" opacity="0.4"/>
      <use href="#warning" x="16" y="12" width="16" height="16"/>
      <text x="40" y="26" font-size="14" font-weight="500" fill="#FFD60A">2 of 3 relays connected</text>
    </g>

    <!-- Bottom — disabled compose -->
    <g transform="translate(0, 620)">
      <rect x="0" y="0" width="390" height="50" fill="#1C1C1E"/>
      <line x1="0" y1="0" x2="390" y2="0" stroke="#3A3A3C" stroke-width="0.5"/>
      <!-- Paperclip icon (grayed out) -->
      <g transform="translate(14, 12)">
        <path d="M10,2 L10,14 C10,16.5 8,18.5 5.5,18.5 C3,18.5 1,16.5 1,14 L1,5.5 C1,3.5 2.5,2 4.5,2 C6.5,2 8,3.5 8,5.5 L8,13" fill="none" stroke="#8E8E93" stroke-width="1.5" stroke-linecap="round"/>
      </g>
      <!-- Text field pill with disabled text -->
      <rect x="46" y="7" width="328" height="36" rx="18" fill="#3A3A3C"/>
      <text x="58" y="29" font-size="14" fill="#8E8E93" font-style="italic">you are observer</text>
    </g>

    <!-- Home indicator -->
    <rect x="140" y="682" width="110" height="5" rx="2.5" fill="#8E8E93" opacity="0.3"/>
  </g>


  <!-- ============================================================ -->
  <!-- §5.6  All Failed — Inoperable (Full Phone)                   -->
  <!-- ============================================================ -->
  <text x="25" y="3390" font-size="16" font-weight="bold" fill="#8E8E93">§5.6 All Failed — Inoperable (Full Phone)</text>

  <g transform="translate(25, 3406)">
    <!-- Phone frame -->
    <rect x="0" y="0" width="390" height="700" rx="20" fill="#1C1C1E" stroke="#3A3A3C" stroke-width="1"/>

    <!-- Status bar -->
    <text x="20" y="28" font-size="12" font-weight="600" fill="#FFFFFF">9:41</text>
    <g transform="translate(330, 16)">
      <rect x="0" y="0" width="22" height="11" rx="2" fill="none" stroke="#FFFFFF" stroke-width="1"/>
      <rect x="2" y="2" width="14" height="7" rx="1" fill="#FFFFFF"/>
      <rect x="22" y="3" width="2" height="5" rx="1" fill="#FFFFFF" opacity="0.4"/>
    </g>

    <!-- Nav bar -->
    <g transform="translate(0, 44)">
      <polyline points="16,16 8,24 16,32" fill="none" stroke="#0A84FF" stroke-width="2.5" stroke-linecap="round" stroke-linejoin="round"/>
      <g transform="translate(36, 10)">
        <circle cx="14" cy="14" r="14" fill="#0A84FF" opacity="0.2"/>
        <use href="#megaphone" x="3" y="3" width="22" height="22"/>
      </g>
      <text x="72" y="20" font-size="17" font-weight="bold" fill="#FFFFFF">SimpleX News</text>
      <text x="72" y="36" font-size="12" fill="#8E8E93">Channel</text>
      <g transform="translate(353, 20)">
        <circle cx="0" cy="0" r="2" fill="#0A84FF"/>
        <circle cx="7" cy="0" r="2" fill="#0A84FF"/>
        <circle cx="14" cy="0" r="2" fill="#0A84FF"/>
      </g>
    </g>

    <line x1="0" y1="96" x2="390" y2="96" stroke="#3A3A3C" stroke-width="0.5"/>

    <!-- ChatBannerView -->
    <g transform="translate(30, 140)">
      <rect x="0" y="0" width="330" height="190" rx="16" fill="#2C2C2E"/>
      <circle cx="165" cy="50" r="36" fill="#0A84FF" opacity="0.2"/>
      <g transform="translate(147, 32)">
        <use href="#megaphone" x="2" y="2" width="32" height="32"/>
      </g>
      <text x="165" y="112" font-size="17" font-weight="bold" fill="#FFFFFF" text-anchor="middle">SimpleX News</text>
      <text x="165" y="136" font-size="14" fill="#8E8E93" text-anchor="middle">News and updates from the</text>
      <text x="165" y="154" font-size="14" fill="#8E8E93" text-anchor="middle">SimpleX Chat team</text>
    </g>

    <!-- Error bar at bottom -->
    <g transform="translate(0, 560)">
      <rect x="0" y="0" width="390" height="60" fill="#FF453A" opacity="0.12"/>
      <line x1="0" y1="0" x2="390" y2="0" stroke="#FF453A" stroke-width="0.5" opacity="0.5"/>
      <use href="#errorX" x="16" y="10" width="16" height="16"/>
      <text x="40" y="22" font-size="14" font-weight="600" fill="#FF453A">Channel not connected</text>
      <text x="40" y="44" font-size="12" fill="#8E8E93">All relays failed to connect.</text>
    </g>

    <!-- Home indicator -->
    <rect x="140" y="682" width="110" height="5" rx="2.5" fill="#8E8E93" opacity="0.3"/>
  </g>


  <!-- §5.6  All Failed — Chat List Row -->
  <text x="25" y="4150" font-size="16" font-weight="bold" fill="#8E8E93">§5.6 All Failed — Chat List Row</text>

  <g transform="translate(25, 4166)">
    <rect x="0" y="0" width="390" height="76" rx="16" fill="#1C1C1E" stroke="#3A3A3C" stroke-width="1"/>

    <!-- Channel avatar with warning badge -->
    <g transform="translate(16, 14)">
      <circle cx="24" cy="24" r="24" fill="#0A84FF" opacity="0.2"/>
      <g transform="translate(6, 6)">
        <use href="#megaphone" x="2" y="2" width="32" height="32"/>
      </g>
      <!-- Warning badge overlay -->
      <circle cx="40" cy="6" r="8" fill="#1C1C1E"/>
      <use href="#warning" x="34" y="0" width="12" height="12"/>
    </g>

    <!-- Text -->
    <text x="72" y="30" font-size="17" font-weight="600" fill="#FFFFFF">SimpleX News</text>
    <text x="72" y="50" font-size="14" fill="#FF453A">Channel not connected</text>
  </g>


  <!-- ============================================================ -->
  <!-- §5.7  Alt A — No Pre-Join Relay (partial)                    -->
  <!-- ============================================================ -->
  <text x="25" y="4296" font-size="16" font-weight="bold" fill="#8E8E93">§5.7 Alt A — No Pre-Join Relay</text>

  <g transform="translate(25, 4312)">
    <!-- Partial phone frame (bottom area) -->
    <rect x="0" y="0" width="390" height="140" rx="16" fill="#1C1C1E" stroke="#3A3A3C" stroke-width="1"/>

    <!-- Profile selector -->
    <g transform="translate(16, 16)">
      <text x="0" y="16" font-size="14" fill="#FFFFFF">alice (you)</text>
      <text x="82" y="16" font-size="12" fill="#8E8E93">▾</text>
    </g>

    <!-- Join button -->
    <rect x="16" y="54" width="358" height="50" rx="12" fill="#0A84FF"/>
    <text x="195" y="85" font-size="17" font-weight="600" fill="#FFFFFF" text-anchor="middle">Join channel</text>

    <!-- Label: no relay info shown -->
    <text x="195" y="130" font-size="11" fill="#8E8E93" text-anchor="middle" font-style="italic">No relay information displayed before joining</text>
  </g>


  <!-- ============================================================ -->
  <!-- §5.8  Alt B — Relays in Banner (partial)                     -->
  <!-- ============================================================ -->
  <text x="25" y="4500" font-size="16" font-weight="bold" fill="#8E8E93">§5.8 Alt B — Relays in Banner</text>

  <g transform="translate(25, 4516)">
    <!-- Partial frame — just the banner card -->
    <rect x="0" y="0" width="390" height="260" rx="16" fill="#1C1C1E" stroke="#3A3A3C" stroke-width="1"/>

    <g transform="translate(30, 16)">
      <rect x="0" y="0" width="330" height="228" rx="16" fill="#2C2C2E"/>

      <!-- Channel image circle -->
      <circle cx="165" cy="46" r="32" fill="#0A84FF" opacity="0.2"/>
      <g transform="translate(149, 30)">
        <use href="#megaphone" x="2" y="2" width="28" height="28"/>
      </g>

      <!-- Channel name -->
      <text x="165" y="100" font-size="17" font-weight="bold" fill="#FFFFFF" text-anchor="middle">SimpleX News</text>

      <!-- Description -->
      <text x="165" y="122" font-size="14" fill="#8E8E93" text-anchor="middle">News and updates from the</text>
      <text x="165" y="140" font-size="14" fill="#8E8E93" text-anchor="middle">SimpleX Chat team</text>

      <!-- Tap to join -->
      <text x="165" y="172" font-size="14" fill="#0A84FF" text-anchor="middle">Tap Join channel</text>

      <!-- Relays line in banner -->
      <line x1="16" y1="186" x2="314" y2="186" stroke="#3A3A3C" stroke-width="0.5"/>
      <text x="165" y="210" font-size="13" fill="#8E8E93" text-anchor="middle">Relays: simplex.im (3)</text>
    </g>
  </g>


  <!-- ============================================================ -->
  <!-- §5.9  Alt C — Minimal Connecting (partial)                   -->
  <!-- ============================================================ -->
  <text x="25" y="4826" font-size="16" font-weight="bold" fill="#8E8E93">§5.9 Alt C — Minimal Connecting</text>

  <g transform="translate(25, 4842)">
    <!-- Partial phone frame — bottom area -->
    <rect x="0" y="0" width="390" height="60" rx="16" fill="#1C1C1E" stroke="#3A3A3C" stroke-width="1"/>

    <line x1="0" y1="0" x2="390" y2="0" stroke="#3A3A3C" stroke-width="0.5"/>

    <!-- Spinner + text -->
    <g transform="translate(16, 22)">
      <use href="#spinner" x="0" y="0" width="16" height="16"/>
      <text x="24" y="13" font-size="14" fill="#8E8E93">Connecting to channel...</text>
    </g>
  </g>


  <!-- ============================================================ -->
  <!-- §5.10  Alt D — Status at Top (Variant 1: Full, Detailed)     -->
  <!-- ============================================================ -->
  <text x="25" y="4960" font-size="16" font-weight="bold" fill="#8E8E93">§5.10 Alt D — Status at Top (Variant 1: Detailed)</text>

  <g transform="translate(25, 4976)">
    <!-- Phone frame -->
    <rect x="0" y="0" width="390" height="700" rx="20" fill="#1C1C1E" stroke="#3A3A3C" stroke-width="1"/>

    <!-- Status bar -->
    <text x="20" y="28" font-size="12" font-weight="600" fill="#FFFFFF">9:41</text>
    <g transform="translate(330, 16)">
      <rect x="0" y="0" width="22" height="11" rx="2" fill="none" stroke="#FFFFFF" stroke-width="1"/>
      <rect x="2" y="2" width="14" height="7" rx="1" fill="#FFFFFF"/>
      <rect x="22" y="3" width="2" height="5" rx="1" fill="#FFFFFF" opacity="0.4"/>
    </g>

    <!-- Nav bar -->
    <g transform="translate(0, 44)">
      <polyline points="16,16 8,24 16,32" fill="none" stroke="#0A84FF" stroke-width="2.5" stroke-linecap="round" stroke-linejoin="round"/>
      <g transform="translate(36, 10)">
        <circle cx="14" cy="14" r="14" fill="#0A84FF" opacity="0.2"/>
        <use href="#megaphone" x="3" y="3" width="22" height="22"/>
      </g>
      <text x="72" y="20" font-size="17" font-weight="bold" fill="#FFFFFF">SimpleX News</text>
      <text x="72" y="36" font-size="12" fill="#8E8E93">Channel</text>
      <g transform="translate(353, 20)">
        <circle cx="0" cy="0" r="2" fill="#0A84FF"/>
        <circle cx="7" cy="0" r="2" fill="#0A84FF"/>
        <circle cx="14" cy="0" r="2" fill="#0A84FF"/>
      </g>
    </g>

    <line x1="0" y1="96" x2="390" y2="96" stroke="#3A3A3C" stroke-width="0.5"/>

    <!-- Status panel below nav (at top of chat area) -->
    <g transform="translate(0, 97)">
      <rect x="0" y="0" width="390" height="110" fill="#2C2C2E"/>
      <line x1="0" y1="110" x2="390" y2="110" stroke="#3A3A3C" stroke-width="0.5"/>

      <!-- Connecting label -->
      <text x="16" y="24" font-size="14" font-weight="500" fill="#8E8E93">Connecting...</text>

      <!-- Relay 1 — connected -->
      <g transform="translate(16, 38)">
        <use href="#checkmark" x="0" y="0" width="16" height="16"/>
        <text x="22" y="13" font-size="14" fill="#30D158">relay1.simplex.im</text>
      </g>

      <!-- Relay 2 — connecting -->
      <g transform="translate(16, 62)">
        <use href="#spinner" x="0" y="0" width="16" height="16"/>
        <text x="22" y="13" font-size="14" fill="#FFD60A">relay2.simplex.im</text>
      </g>

      <!-- Relay 3 — connecting -->
      <g transform="translate(16, 86)">
        <use href="#spinner" x="0" y="0" width="16" height="16"/>
        <text x="22" y="13" font-size="14" fill="#FFD60A">relay3.simplex.im</text>
      </g>
    </g>

    <!-- Chat area (empty or with banner) -->
    <g transform="translate(30, 230)">
      <rect x="0" y="0" width="330" height="170" rx="16" fill="#2C2C2E"/>
      <circle cx="165" cy="42" r="28" fill="#0A84FF" opacity="0.2"/>
      <g transform="translate(151, 28)">
        <use href="#megaphone" x="2" y="2" width="24" height="24"/>
      </g>
      <text x="165" y="92" font-size="17" font-weight="bold" fill="#FFFFFF" text-anchor="middle">SimpleX News</text>
      <text x="165" y="114" font-size="14" fill="#8E8E93" text-anchor="middle">News and updates from the</text>
      <text x="165" y="132" font-size="14" fill="#8E8E93" text-anchor="middle">SimpleX Chat team</text>
    </g>

    <!-- Bottom — disabled compose -->
    <g transform="translate(0, 620)">
      <rect x="0" y="0" width="390" height="50" fill="#1C1C1E"/>
      <line x1="0" y1="0" x2="390" y2="0" stroke="#3A3A3C" stroke-width="0.5"/>
      <!-- Paperclip icon (grayed out) -->
      <g transform="translate(14, 12)">
        <path d="M10,2 L10,14 C10,16.5 8,18.5 5.5,18.5 C3,18.5 1,16.5 1,14 L1,5.5 C1,3.5 2.5,2 4.5,2 C6.5,2 8,3.5 8,5.5 L8,13" fill="none" stroke="#8E8E93" stroke-width="1.5" stroke-linecap="round"/>
      </g>
      <!-- Text field pill with disabled text -->
      <rect x="46" y="7" width="328" height="36" rx="18" fill="#3A3A3C"/>
      <text x="58" y="29" font-size="14" fill="#8E8E93" font-style="italic">you are observer</text>
    </g>

    <!-- Home indicator -->
    <rect x="140" y="682" width="110" height="5" rx="2.5" fill="#8E8E93" opacity="0.3"/>
  </g>


  <!-- ============================================================ -->
  <!-- §5.10  Alt D — Status at Top (Variant 2: Concise)            -->
  <!-- ============================================================ -->
  <text x="25" y="5720" font-size="16" font-weight="bold" fill="#8E8E93">§5.10 Alt D — Status at Top (Variant 2: Concise)</text>

  <g transform="translate(25, 5736)">
    <!-- Phone frame -->
    <rect x="0" y="0" width="390" height="700" rx="20" fill="#1C1C1E" stroke="#3A3A3C" stroke-width="1"/>

    <!-- Status bar -->
    <text x="20" y="28" font-size="12" font-weight="600" fill="#FFFFFF">9:41</text>
    <g transform="translate(330, 16)">
      <rect x="0" y="0" width="22" height="11" rx="2" fill="none" stroke="#FFFFFF" stroke-width="1"/>
      <rect x="2" y="2" width="14" height="7" rx="1" fill="#FFFFFF"/>
      <rect x="22" y="3" width="2" height="5" rx="1" fill="#FFFFFF" opacity="0.4"/>
    </g>

    <!-- Nav bar -->
    <g transform="translate(0, 44)">
      <polyline points="16,16 8,24 16,32" fill="none" stroke="#0A84FF" stroke-width="2.5" stroke-linecap="round" stroke-linejoin="round"/>
      <g transform="translate(36, 10)">
        <circle cx="14" cy="14" r="14" fill="#0A84FF" opacity="0.2"/>
        <use href="#megaphone" x="3" y="3" width="22" height="22"/>
      </g>
      <text x="72" y="20" font-size="17" font-weight="bold" fill="#FFFFFF">SimpleX News</text>
      <text x="72" y="36" font-size="12" fill="#8E8E93">Channel</text>
      <g transform="translate(353, 20)">
        <circle cx="0" cy="0" r="2" fill="#0A84FF"/>
        <circle cx="7" cy="0" r="2" fill="#0A84FF"/>
        <circle cx="14" cy="0" r="2" fill="#0A84FF"/>
      </g>
    </g>

    <line x1="0" y1="96" x2="390" y2="96" stroke="#3A3A3C" stroke-width="0.5"/>

    <!-- Concise status bar below nav -->
    <g transform="translate(0, 97)">
      <rect x="0" y="0" width="390" height="36" fill="#2C2C2E"/>
      <line x1="0" y1="36" x2="390" y2="36" stroke="#3A3A3C" stroke-width="0.5"/>

      <g transform="translate(16, 10)">
        <use href="#spinner" x="0" y="0" width="16" height="16"/>
        <text x="22" y="13" font-size="14" fill="#8E8E93">Connecting... 1 of 3 relays</text>
      </g>
    </g>

    <!-- Chat area with banner -->
    <g transform="translate(30, 160)">
      <rect x="0" y="0" width="330" height="190" rx="16" fill="#2C2C2E"/>
      <circle cx="165" cy="50" r="36" fill="#0A84FF" opacity="0.2"/>
      <g transform="translate(147, 32)">
        <use href="#megaphone" x="2" y="2" width="32" height="32"/>
      </g>
      <text x="165" y="112" font-size="17" font-weight="bold" fill="#FFFFFF" text-anchor="middle">SimpleX News</text>
      <text x="165" y="136" font-size="14" fill="#8E8E93" text-anchor="middle">News and updates from the</text>
      <text x="165" y="154" font-size="14" fill="#8E8E93" text-anchor="middle">SimpleX Chat team</text>
    </g>

    <!-- Bottom — disabled compose -->
    <g transform="translate(0, 620)">
      <rect x="0" y="0" width="390" height="50" fill="#1C1C1E"/>
      <line x1="0" y1="0" x2="390" y2="0" stroke="#3A3A3C" stroke-width="0.5"/>
      <!-- Paperclip icon (grayed out) -->
      <g transform="translate(14, 12)">
        <path d="M10,2 L10,14 C10,16.5 8,18.5 5.5,18.5 C3,18.5 1,16.5 1,14 L1,5.5 C1,3.5 2.5,2 4.5,2 C6.5,2 8,3.5 8,5.5 L8,13" fill="none" stroke="#8E8E93" stroke-width="1.5" stroke-linecap="round"/>
      </g>
      <!-- Text field pill with disabled text -->
      <rect x="46" y="7" width="328" height="36" rx="18" fill="#3A3A3C"/>
      <text x="58" y="29" font-size="14" fill="#8E8E93" font-style="italic">you are observer</text>
    </g>

    <!-- Home indicator -->
    <rect x="140" y="682" width="110" height="5" rx="2.5" fill="#8E8E93" opacity="0.3"/>
  </g>

</svg>