<svg xmlns="http://www.w3.org/2000/svg" height="100" viewBox="0 -960 960 960" width="100"><path fill="white" d="M774.5-488.5q-5.5-119.5-89-203.25t-203-88.75V-838q71 2.5 133.5 30.5t109.75 75.25q47.25 47.25 75.5 110T832-488.5h-57.5Zm-168 0q-6-49.5-40.5-83.75t-83.5-39.25V-669q73 5 124.25 56T664-488.5h-57.5Zm184 363.5Q677-125 558-180.5T338-338Q236-439 180.5-557.75T125-790.692q0-18.808 12.714-31.558Q150.429-835 169.5-835H306q14 0 23.75 9.75t13.75 24.75l26.929 123.641Q372-663.5 369.5-652q-2.5 11.5-10.229 19.226L261-533q26 44 54.688 81.658Q344.375-413.683 379-380q36.5 38 77.25 69.323Q497-279.353 542-255l95.544-98q9.456-10.5 21.357-14.25T682.5-369l117.362 25.438Q815-340 825-327.801q10 12.198 10 27.301v131q0 19.071-12.714 31.786Q809.571-125 790.5-125ZM232-585.5l81-82-23.5-110H183q1.5 41.5 13 88.25t36 103.75Zm364 358q40 19 88.166 31t93.334 14v-107l-102-21.5-79.5 83.5Zm-364-358Zm364 358Z"/></svg>