<svg width="469" height="469" viewBox="0 0 469 469" fill="none" xmlns="http://www.w3.org/2000/svg">
<path d="M225.768 1.44594C220.301 3.84594 214.701 10.6459 213.768 15.9793C213.234 18.3793 213.101 31.7126 213.368 45.7126L213.768 71.1793L217.634 76.1126C226.701 88.1126 242.968 87.5793 252.301 75.0459C254.968 71.5793 255.101 69.5793 255.101 42.2459C255.101 14.9126 254.968 12.9126 252.301 9.44594C250.834 7.44594 248.034 4.51261 246.168 3.17928C241.768 -0.154057 231.101 -1.08739 225.768 1.44594Z" fill="white"/>
<path d="M72.9687 65.3128C63.7687 71.5794 60.1687 81.4461 63.7687 91.1794C65.502 95.4461 98.702 129.446 104.035 132.379C106.035 133.446 110.569 134.246 114.035 134.246C126.035 134.246 134.435 125.846 134.435 113.846C134.435 110.379 133.635 105.846 132.569 103.846C129.635 98.5128 95.6353 65.3128 91.3687 63.5794C85.102 61.3128 77.902 61.9794 72.9687 65.3128Z" fill="white"/>
<path d="M377.102 63.7128C373.102 65.3128 338.969 98.7794 336.302 103.846C335.236 105.846 334.436 110.379 334.436 113.846C334.436 125.846 342.836 134.246 354.836 134.246C358.302 134.246 362.836 133.446 364.836 132.379C370.169 129.446 403.369 95.4461 405.102 91.1794C408.702 81.4461 405.102 71.5794 395.902 65.3128C391.102 61.9794 383.102 61.3128 377.102 63.7128Z" fill="white"/>
<path d="M211.635 108.246C185.635 113.179 163.502 125.046 144.302 144.112C117.902 170.512 104.968 203.579 106.835 240.246C109.768 297.712 149.102 344.912 205.902 359.179C218.568 362.379 250.302 362.379 262.968 359.179C310.435 347.312 345.768 312.646 358.702 265.046C362.435 251.446 362.835 219.446 359.368 205.712C347.368 158.112 312.302 122.379 265.235 110.112C251.768 106.512 225.502 105.579 211.635 108.246Z" fill="white"/>
<path d="M12.4349 214.779C-0.498477 220.379 -4.09848 237.579 5.23486 248.246C11.2349 255.046 15.6349 255.846 45.3682 255.313C74.0349 254.913 75.1015 254.646 81.6349 245.713C85.9015 239.979 85.5015 228.113 80.8349 221.979C74.4349 213.713 71.2349 212.913 42.1682 212.913C23.7682 213.046 15.2349 213.579 12.4349 214.779Z" fill="white"/>
<path d="M396.035 215.179C393.635 216.379 390.035 219.445 388.035 221.979C383.368 228.112 382.968 239.979 387.235 245.712C394.035 254.779 394.301 254.912 426.435 254.912C458.568 254.912 458.835 254.779 465.635 245.712C469.501 240.512 469.501 227.979 465.635 222.779C458.968 213.845 458.301 213.579 428.035 213.179C404.435 212.912 399.768 213.179 396.035 215.179Z" fill="white"/>
<path d="M103.101 336.779C96.7013 340.779 65.368 373.179 63.768 377.313C57.368 394.513 74.168 411.313 91.368 404.913C95.6347 403.179 129.635 369.979 132.568 364.646C135.368 359.446 134.968 349.046 131.768 343.846C126.168 334.646 112.035 331.179 103.101 336.779Z" fill="white"/>
<path d="M344.035 336.912C341.635 338.379 338.569 341.445 337.102 343.845C333.902 349.045 333.502 359.445 336.302 364.645C339.235 369.979 373.235 403.179 377.502 404.912C387.235 408.512 397.102 404.912 403.369 395.712C406.702 390.779 407.369 383.579 405.102 377.312C403.369 373.045 370.169 339.045 364.835 336.112C359.635 333.312 349.235 333.712 344.035 336.912Z" fill="white"/>
<path d="M225.368 385.712C222.968 387.046 219.368 390.112 217.368 392.646L213.768 397.312V426.379C213.768 458.246 213.901 458.779 222.968 465.446C228.168 469.312 240.701 469.312 245.901 465.446C254.834 458.779 255.101 457.979 255.501 428.246C256.034 397.579 255.234 394.379 246.834 387.979C241.101 383.579 231.634 382.512 225.368 385.712Z" fill="white"/>
</svg>
