<svg width="815" height="233" viewBox="0 0 815 233" fill="none" xmlns="http://www.w3.org/2000/svg">
<g clip-path="url(#clip0)">
<path fill-rule="evenodd" clip-rule="evenodd" d="M40.5683 66.9141C43.9954 66.9141 47.376 67.2323 50.7104 67.8687C54.0448 68.5051 57.2403 69.3234 60.2968 70.3235C63.3533 71.3236 66.2014 72.4601 68.8411 73.7329C71.4809 75.0058 73.9122 76.2786 76.1351 77.5515L66.132 96.0987L65.9952 95.9474C65.6001 95.5596 64.6732 94.9282 63.2144 94.0531C61.5472 93.053 59.4632 92.0074 56.9624 90.9164C54.4616 89.8254 51.7293 88.8708 48.7654 88.0525C45.8015 87.2342 42.8376 86.8251 39.8737 86.8251C31.723 86.8251 27.6476 89.5072 27.6476 94.8713C27.6476 96.5079 28.0876 97.8716 28.9675 98.9627C29.8474 100.054 31.1441 101.031 32.8576 101.895C34.5711 102.758 36.7245 103.554 39.318 104.281C41.9114 105.009 44.9216 105.827 48.3486 106.736C53.0723 108.009 57.3329 109.395 61.1304 110.896C64.9279 112.396 68.1465 114.26 70.7862 116.487C73.4259 118.715 75.4636 121.419 76.8993 124.602C78.3349 127.784 79.0527 131.602 79.0527 136.057C79.0527 141.512 78.0107 146.126 75.9267 149.899C73.8427 153.673 71.0872 156.718 67.6602 159.037C64.2332 161.355 60.2968 163.037 55.8509 164.083C51.4051 165.128 46.8203 165.651 42.0966 165.651C38.4844 165.651 34.7795 165.378 30.982 164.833C27.1845 164.287 23.4796 163.492 19.8674 162.446C16.2551 161.401 12.7587 160.15 9.37796 158.696C5.99726 157.241 2.87128 155.559 0 153.65L10.0032 134.148L10.1812 134.338C10.6877 134.825 11.8324 135.625 13.6154 136.739C15.6531 138.012 18.177 139.285 21.1872 140.558C24.1974 141.83 27.555 142.967 31.2599 143.967C34.9647 144.967 38.7159 145.467 42.5134 145.467C50.5715 145.467 54.6006 143.058 54.6006 138.239C54.6006 136.421 53.9985 134.921 52.7944 133.739C51.5903 132.557 49.9231 131.489 47.7928 130.534C45.6625 129.579 43.1386 128.693 40.221 127.875C37.3034 127.056 34.1311 126.147 30.7041 125.147C26.1657 123.783 22.2292 122.306 18.8948 120.715C15.5605 119.124 12.805 117.283 10.6284 115.192C8.45174 113.1 6.83086 110.691 5.76571 107.964C4.70056 105.236 4.16798 102.054 4.16798 98.4171C4.16798 93.3257 5.14051 88.8253 7.08557 84.9158C9.03063 81.0063 11.6703 77.7106 15.0047 75.0285C18.3391 72.3464 22.2061 70.3235 26.6056 68.9597C31.0051 67.5959 35.6594 66.9141 40.5683 66.9141ZM131.47 67.7323V164.56H108.685V67.7323H131.47ZM191.39 67.7323L216.954 118.328L242.657 67.7323H267.248V164.56H244.463V106.6L223.067 148.74H210.841L189.445 106.6V164.56H166.66V67.7323H191.39ZM419.925 67.7323V144.922H467.718V164.56H397.14V67.7323H419.925ZM560.072 67.7323V87.3706H514.78V106.191H553.681V124.329H514.78V144.922H561.323V164.56H491.995V67.7323H560.072ZM341.818 67.7323L343.378 67.7677C347.5 67.9563 351.31 68.8991 354.809 70.5962C358.745 72.5055 362.126 75.0058 364.951 78.097C367.776 81.1882 369.999 84.6885 371.62 88.598C373.24 92.5075 374.051 96.4624 374.051 100.463C374.051 104.736 373.287 108.827 371.758 112.737C370.23 116.646 368.1 120.147 365.368 123.238C362.635 126.329 359.324 128.784 355.434 130.602C351.976 132.218 348.189 133.116 344.072 133.296L342.513 133.33H322.507V164.56H299.722V67.7323H341.818ZM340.29 87.3706H322.507V113.828H341.124C343.81 113.828 346.125 112.691 348.07 110.418C350.016 108.145 350.988 104.827 350.988 100.463C350.988 98.1898 350.687 96.2351 350.085 94.5986C349.483 92.9621 348.672 91.5983 347.654 90.5073C346.635 89.4163 345.477 88.6207 344.18 88.1207C342.884 87.6206 341.587 87.3706 340.29 87.3706Z" fill="#062D56"/>
<path fill-rule="evenodd" clip-rule="evenodd" d="M642.628 136.08L680.309 173.782L699.513 154.567L699.506 154.561L737.917 116.134L700.236 78.4367L700.243 78.4334L681.404 59.5826L642.993 98.014L642.99 98.0104L681.401 59.5829L643.725 21.881L662.929 2.6652L700.605 40.3673L739.016 1.93511L757.855 20.7859L719.443 59.2176L757.121 96.918L795.533 58.4875L814.373 77.3382L775.959 115.768L813.643 153.471L794.439 172.687L756.756 134.984L718.348 173.415L756.031 211.119L736.827 230.335L699.144 192.63L660.74 231.065L641.901 212.214L680.306 173.78L642.625 136.083L642.628 136.08Z" fill="#07B4B9"/>
<path fill-rule="evenodd" clip-rule="evenodd" d="M604.77 59.7651L642.446 97.4664L680.856 59.035L699.696 77.8858L661.285 116.317L698.966 154.019L679.762 173.235L642.081 135.532L603.675 173.965L584.836 155.114L623.243 116.682L585.566 78.9809L604.77 59.7651Z" fill="#062D56"/>
</g>
<defs>
<clipPath id="clip0">
<rect width="815" height="233" fill="white"/>
</clipPath>
</defs>
</svg>
