<svg width="1015" height="48" viewBox="0 0 1015 48" fill="none" xmlns="http://www.w3.org/2000/svg">
<path d="M0.253063 4.848H19.8851V9.744H5.91706V17.952H18.6851V22.8H5.91706V36H0.253063V4.848ZM41.2282 15.456C42.0282 16.48 42.6202 17.664 43.0042 19.008C43.4202 20.352 43.6282 21.584 43.6282 22.704C43.6282 23.824 43.5642 24.832 43.4362 25.728H28.3642C28.4282 27.616 28.8922 29.152 29.7562 30.336C30.6202 31.52 31.9322 32.112 33.6922 32.112C36.0282 32.112 37.4202 31.088 37.8682 29.04H43.5802C43.1962 31.376 42.1242 33.216 40.3642 34.56C38.5402 35.968 36.3162 36.672 33.6922 36.672C30.6202 36.672 28.0442 35.552 25.9642 33.312C23.8202 30.976 22.7482 27.984 22.7482 24.336C22.7482 20.592 23.8202 17.584 25.9642 15.312C28.0122 13.136 30.5882 12.048 33.6922 12.048C36.9242 12.048 39.4362 13.184 41.2282 15.456ZM33.7402 16.56C32.1402 16.56 30.8922 17.088 29.9962 18.144C29.1002 19.168 28.5722 20.496 28.4122 22.128H38.3482C38.3482 19.6 37.5482 17.904 35.9482 17.04C35.3402 16.72 34.6042 16.56 33.7402 16.56ZM65.6253 32.4C64.1853 35.248 61.9773 36.672 59.0013 36.672C56.0253 36.672 53.5293 35.536 51.5133 33.264C49.4333 30.896 48.3933 27.888 48.3933 24.24C48.3933 20.592 49.3853 17.632 51.3693 15.36C53.3213 13.152 55.7533 12.048 58.6653 12.048C61.5773 12.048 63.7693 13.216 65.2413 15.552V3.072H70.9533V36H66.2973L65.6253 32.4ZM59.7213 17.136C58.1213 17.136 56.7773 17.792 55.6893 19.104C54.6333 20.384 54.1053 22.112 54.1053 24.288C54.1053 26.464 54.6493 28.224 55.7373 29.568C56.8253 30.88 58.2013 31.536 59.8653 31.536C61.2413 31.536 62.4733 30.992 63.5613 29.904C64.6813 28.784 65.2413 27.376 65.2413 25.68V22.656C65.1773 20.992 64.6173 19.632 63.5613 18.576C62.6013 17.616 61.3213 17.136 59.7213 17.136ZM96.1657 15.456C96.9657 16.48 97.5577 17.664 97.9417 19.008C98.3577 20.352 98.5657 21.584 98.5657 22.704C98.5657 23.824 98.5017 24.832 98.3737 25.728H83.3017C83.3657 27.616 83.8297 29.152 84.6937 30.336C85.5577 31.52 86.8697 32.112 88.6297 32.112C90.9657 32.112 92.3577 31.088 92.8057 29.04H98.5177C98.1337 31.376 97.0617 33.216 95.3017 34.56C93.4777 35.968 91.2537 36.672 88.6297 36.672C85.5577 36.672 82.9817 35.552 80.9017 33.312C78.7577 30.976 77.6857 27.984 77.6857 24.336C77.6857 20.592 78.7577 17.584 80.9017 15.312C82.9497 13.136 85.5257 12.048 88.6297 12.048C91.8617 12.048 94.3737 13.184 96.1657 15.456ZM88.6777 16.56C87.0777 16.56 85.8297 17.088 84.9337 18.144C84.0377 19.168 83.5097 20.496 83.3497 22.128H93.2857C93.2857 19.6 92.4857 17.904 90.8857 17.04C90.2777 16.72 89.5417 16.56 88.6777 16.56ZM111.011 17.28C112.419 13.92 114.531 12.24 117.347 12.24C117.891 12.24 118.579 12.352 119.411 12.576L119.315 18.24C118.419 18.048 117.539 17.952 116.675 17.952C112.899 17.952 111.011 20.56 111.011 25.776V36H105.347V12.624H111.011V17.28ZM132.996 22.368C134.852 22.368 136.996 22.672 139.428 23.28V20.976C139.428 19.344 139.092 18.144 138.42 17.376C137.78 16.576 136.708 16.176 135.204 16.176C133.732 16.176 132.596 16.48 131.796 17.088C130.996 17.664 130.596 18.496 130.596 19.584H124.404C124.404 16.928 125.332 15.008 127.188 13.824C129.076 12.64 131.7 12.048 135.06 12.048C139.86 12.048 142.964 13.728 144.372 17.088C144.852 18.24 145.092 19.6 145.092 21.168V36H140.148L139.716 32.88C138.212 35.408 135.908 36.672 132.804 36.672C129.796 36.672 127.46 35.936 125.796 34.464C124.26 33.056 123.492 31.28 123.492 29.136C123.492 26.96 124.34 25.296 126.036 24.144C127.732 22.96 130.052 22.368 132.996 22.368ZM139.428 26.88C137.54 26.368 135.78 26.112 134.148 26.112C131.076 26.112 129.54 27.136 129.54 29.184C129.54 30.048 129.892 30.8 130.596 31.44C131.3 32.048 132.42 32.352 133.956 32.352C135.524 32.352 136.804 31.84 137.796 30.816C138.82 29.76 139.364 28.448 139.428 26.88ZM166.499 35.424C164.387 36.256 162.723 36.672 161.507 36.672C160.291 36.672 159.219 36.528 158.291 36.24C157.395 35.952 156.595 35.52 155.891 34.944C154.419 33.632 153.683 31.824 153.683 29.52V16.464H150.419V12.672H153.683V6.528H159.347V12.672H165.683V16.464H159.347V29.328C159.347 31.248 160.259 32.208 162.083 32.208C163.011 32.208 164.211 31.952 165.683 31.44L166.499 35.424ZM188.556 15.456C189.356 16.48 189.948 17.664 190.332 19.008C190.748 20.352 190.956 21.584 190.956 22.704C190.956 23.824 190.892 24.832 190.764 25.728H175.692C175.756 27.616 176.22 29.152 177.084 30.336C177.948 31.52 179.26 32.112 181.02 32.112C183.356 32.112 184.748 31.088 185.196 29.04H190.908C190.524 31.376 189.452 33.216 187.692 34.56C185.868 35.968 183.644 36.672 181.02 36.672C177.948 36.672 175.372 35.552 173.292 33.312C171.148 30.976 170.076 27.984 170.076 24.336C170.076 20.592 171.148 17.584 173.292 15.312C175.34 13.136 177.916 12.048 181.02 12.048C184.252 12.048 186.764 13.184 188.556 15.456ZM181.068 16.56C179.468 16.56 178.22 17.088 177.324 18.144C176.428 19.168 175.9 20.496 175.74 22.128H185.676C185.676 19.6 184.876 17.904 183.276 17.04C182.668 16.72 181.932 16.56 181.068 16.56ZM212.953 32.4C211.513 35.248 209.305 36.672 206.329 36.672C203.353 36.672 200.857 35.536 198.841 33.264C196.761 30.896 195.721 27.888 195.721 24.24C195.721 20.592 196.713 17.632 198.697 15.36C200.649 13.152 203.081 12.048 205.993 12.048C208.905 12.048 211.097 13.216 212.569 15.552V3.072H218.281V36H213.625L212.953 32.4ZM207.049 17.136C205.449 17.136 204.105 17.792 203.017 19.104C201.961 20.384 201.433 22.112 201.433 24.288C201.433 26.464 201.977 28.224 203.065 29.568C204.153 30.88 205.529 31.536 207.193 31.536C208.569 31.536 209.801 30.992 210.889 29.904C212.009 28.784 212.569 27.376 212.569 25.68V22.656C212.505 20.992 211.945 19.632 210.889 18.576C209.929 17.616 208.649 17.136 207.049 17.136ZM248.242 12.048C249.714 12.048 251.026 12.304 252.178 12.816C253.362 13.296 254.354 13.936 255.154 14.736C256.754 16.272 257.698 18.208 257.986 20.544L252.274 20.688C252.018 19.664 251.538 18.816 250.834 18.144C250.162 17.472 249.378 17.136 248.482 17.136C247.586 17.136 246.818 17.28 246.178 17.568C245.538 17.824 244.978 18.24 244.498 18.816C243.41 20.16 242.866 22.016 242.866 24.384C242.866 26.752 243.378 28.544 244.402 29.76C245.426 30.944 246.658 31.536 248.098 31.536C249.57 31.536 250.626 31.2 251.266 30.528C251.938 29.824 252.274 28.88 252.274 27.696H257.986C257.986 30.256 257.138 32.384 255.442 34.08C253.714 35.808 251.298 36.672 248.194 36.672C245.122 36.672 242.546 35.552 240.466 33.312C238.258 30.912 237.154 27.92 237.154 24.336C237.154 20.56 238.258 17.536 240.466 15.264C242.546 13.12 245.138 12.048 248.242 12.048ZM270.48 16.464C272.08 13.52 274.416 12.048 277.488 12.048C280.56 12.048 282.816 12.992 284.256 14.88C285.728 16.768 286.464 19.264 286.464 22.368V36H280.8V22.368C280.8 20.64 280.384 19.344 279.552 18.48C278.72 17.584 277.552 17.136 276.048 17.136C274.544 17.136 273.248 17.808 272.16 19.152C271.104 20.496 270.544 22.512 270.48 25.2V36H264.816V3.072H270.48V16.464ZM302.402 22.368C304.258 22.368 306.402 22.672 308.834 23.28V20.976C308.834 19.344 308.498 18.144 307.826 17.376C307.186 16.576 306.114 16.176 304.61 16.176C303.138 16.176 302.002 16.48 301.202 17.088C300.402 17.664 300.002 18.496 300.002 19.584H293.81C293.81 16.928 294.738 15.008 296.594 13.824C298.482 12.64 301.106 12.048 304.466 12.048C309.266 12.048 312.37 13.728 313.778 17.088C314.258 18.24 314.498 19.6 314.498 21.168V36H309.554L309.122 32.88C307.618 35.408 305.314 36.672 302.21 36.672C299.202 36.672 296.866 35.936 295.202 34.464C293.666 33.056 292.898 31.28 292.898 29.136C292.898 26.96 293.746 25.296 295.442 24.144C297.138 22.96 299.458 22.368 302.402 22.368ZM308.834 26.88C306.946 26.368 305.186 26.112 303.554 26.112C300.482 26.112 298.946 27.136 298.946 29.184C298.946 30.048 299.298 30.8 300.002 31.44C300.706 32.048 301.826 32.352 303.362 32.352C304.93 32.352 306.21 31.84 307.202 30.816C308.226 29.76 308.77 28.448 308.834 26.88ZM335.905 35.424C333.793 36.256 332.129 36.672 330.913 36.672C329.697 36.672 328.625 36.528 327.697 36.24C326.801 35.952 326.001 35.52 325.297 34.944C323.825 33.632 323.089 31.824 323.089 29.52V16.464H319.825V12.672H323.089V6.528H328.753V12.672H335.089V16.464H328.753V29.328C328.753 31.248 329.665 32.208 331.489 32.208C332.417 32.208 333.617 31.952 335.089 31.44L335.905 35.424ZM353.512 -2.86102e-06H357.304V41.856H353.512V-2.86102e-06ZM381.955 16.56C383.459 13.84 385.699 12.48 388.675 12.48C391.683 12.48 394.179 13.584 396.163 15.792C398.179 18 399.187 20.912 399.187 24.528C399.187 28.144 398.179 31.056 396.163 33.264C394.147 35.44 391.667 36.528 388.723 36.528C385.779 36.528 383.603 35.424 382.195 33.216V47.28H378.403V13.056H381.523L381.955 16.56ZM388.531 33.168C390.323 33.168 391.891 32.4 393.235 30.864C394.611 29.328 395.299 27.232 395.299 24.576C395.299 21.888 394.643 19.76 393.331 18.192C392.051 16.624 390.483 15.84 388.627 15.84C386.771 15.84 385.251 16.432 384.067 17.616C382.883 18.768 382.259 20.336 382.195 22.32V26.688C382.195 28.704 382.803 30.288 384.019 31.44C385.235 32.592 386.739 33.168 388.531 33.168ZM416.263 16.272C412.647 16.272 410.775 19.12 410.647 24.816V36H406.855V13.008H410.647V17.424C411.799 14.224 413.831 12.624 416.743 12.624C417.671 12.624 418.551 12.768 419.383 13.056L419.191 16.752C418.231 16.432 417.255 16.272 416.263 16.272ZM425.424 13.008H429.216V36H425.424V13.008ZM427.296 7.632C426.528 7.632 425.92 7.424 425.472 7.008C425.056 6.56 424.848 5.984 424.848 5.28C424.848 4.544 425.056 3.968 425.472 3.552C425.92 3.104 426.528 2.88 427.296 2.88C428.064 2.88 428.672 3.104 429.12 3.552C429.6 3.968 429.84 4.544 429.84 5.28C429.84 5.984 429.6 6.56 429.12 7.008C428.672 7.424 428.064 7.632 427.296 7.632ZM439.816 13.056L446.728 32.016L453.688 13.056H457.96L448.84 36H444.664L435.544 13.056H439.816ZM477.876 21.12C477.876 19.04 477.444 17.552 476.58 16.656C475.716 15.76 474.452 15.312 472.788 15.312C471.156 15.312 469.828 15.648 468.804 16.32C467.812 16.96 467.316 17.984 467.316 19.392H463.14C463.14 15.872 465.028 13.696 468.804 12.864C469.956 12.608 471.204 12.48 472.548 12.48C475.396 12.48 477.62 13.2 479.22 14.64C480.82 16.08 481.62 18.272 481.62 21.216V36H478.356L477.972 32.16C476.564 35.072 474.02 36.528 470.34 36.528C467.876 36.528 465.892 35.84 464.388 34.464C462.916 33.088 462.18 31.376 462.18 29.328C462.18 27.28 462.996 25.68 464.628 24.528C466.292 23.376 468.356 22.8 470.82 22.8C473.284 22.8 475.636 23.216 477.876 24.048V21.12ZM477.876 26.448C475.604 25.808 473.62 25.488 471.924 25.488C470.228 25.488 468.852 25.792 467.796 26.4C466.74 27.008 466.212 27.968 466.212 29.28C466.212 32.16 467.844 33.6 471.108 33.6C472.964 33.6 474.548 32.944 475.86 31.632C477.204 30.288 477.876 28.56 477.876 26.448ZM502.528 35.328C499.776 36.608 497.264 36.88 494.992 36.144C493.36 35.632 492.208 34.56 491.536 32.928C491.184 32.128 491.008 31.168 491.008 30.048V15.936H487.312V13.056H491.008V6.672H494.752V13.056H501.952V15.936H494.752V30C494.752 32.336 495.84 33.504 498.016 33.504C499.2 33.504 500.528 33.216 502 32.64L502.528 35.328ZM516.495 33.456C519.663 33.456 521.471 32.064 521.919 29.28H525.807C525.455 31.584 524.431 33.376 522.735 34.656C521.071 35.904 518.991 36.528 516.495 36.528C513.423 36.528 510.927 35.44 509.007 33.264C507.087 31.056 506.127 28.128 506.127 24.48C506.127 20.832 507.087 17.92 509.007 15.744C510.959 13.568 513.535 12.48 516.735 12.48C519.967 12.48 522.367 13.728 523.935 16.224C525.535 18.72 526.095 21.76 525.615 25.344H509.919C509.919 27.712 510.495 29.664 511.647 31.2C512.799 32.704 514.415 33.456 516.495 33.456ZM519.279 16.08C518.543 15.696 517.647 15.504 516.591 15.504C514.639 15.504 513.087 16.176 511.935 17.52C510.815 18.832 510.159 20.48 509.967 22.464H522.207C522.207 19.264 521.231 17.136 519.279 16.08ZM533.47 36.24C532.734 36.176 532.126 35.936 531.646 35.52C531.166 35.104 530.926 34.544 530.926 33.84C530.926 33.136 531.166 32.544 531.646 32.064C532.158 31.584 532.862 31.344 533.758 31.344C534.686 31.344 535.454 31.712 536.062 32.448C536.67 33.152 536.974 34.048 536.974 35.136C536.974 36.224 536.622 37.328 535.918 38.448C535.214 39.6 534.142 40.528 532.702 41.232L529.87 39.84C531.854 38.88 533.054 37.68 533.47 36.24ZM553.593 18.672C553.593 16.784 554.393 15.28 555.993 14.16C557.625 13.04 559.817 12.48 562.569 12.48C565.321 12.48 567.465 13.056 569.001 14.208C570.569 15.36 571.385 16.816 571.449 18.576H567.753C567.465 16.496 565.705 15.456 562.473 15.456C560.905 15.456 559.689 15.808 558.825 16.512C557.993 17.216 557.577 17.984 557.577 18.816C557.577 19.616 557.897 20.304 558.537 20.88C559.177 21.424 560.201 21.904 561.609 22.32L566.217 23.856C568.169 24.464 569.657 25.248 570.681 26.208C571.737 27.136 572.265 28.432 572.265 30.096C572.265 31.728 571.417 33.216 569.721 34.56C568.025 35.872 565.657 36.528 562.617 36.528C559.577 36.528 557.209 35.856 555.513 34.512C553.817 33.136 552.921 31.376 552.825 29.232H556.473C556.537 30.672 557.113 31.76 558.201 32.496C559.321 33.2 560.713 33.552 562.377 33.552C564.041 33.552 565.417 33.2 566.505 32.496C567.593 31.792 568.137 30.96 568.137 30C568.137 29.008 567.817 28.256 567.177 27.744C566.537 27.232 565.497 26.784 564.057 26.4L559.593 24.912C555.593 23.728 553.593 21.648 553.593 18.672ZM587.979 33.456C591.147 33.456 592.955 32.064 593.403 29.28H597.291C596.939 31.584 595.915 33.376 594.219 34.656C592.555 35.904 590.475 36.528 587.979 36.528C584.907 36.528 582.411 35.44 580.491 33.264C578.571 31.056 577.611 28.128 577.611 24.48C577.611 20.832 578.571 17.92 580.491 15.744C582.443 13.568 585.019 12.48 588.219 12.48C591.451 12.48 593.851 13.728 595.419 16.224C597.019 18.72 597.579 21.76 597.099 25.344H581.403C581.403 27.712 581.979 29.664 583.131 31.2C584.283 32.704 585.899 33.456 587.979 33.456ZM590.763 16.08C590.027 15.696 589.131 15.504 588.075 15.504C586.123 15.504 584.571 16.176 583.419 17.52C582.299 18.832 581.643 20.48 581.451 22.464H593.691C593.691 19.264 592.715 17.136 590.763 16.08ZM612.394 12.48C615.114 12.48 617.274 13.184 618.874 14.592C620.474 15.968 621.514 17.696 621.994 19.776L618.154 20.112C617.738 18.768 617.066 17.728 616.138 16.992C615.21 16.224 614.186 15.84 613.066 15.84C611.018 15.84 609.354 16.608 608.074 18.144C606.826 19.68 606.202 21.776 606.202 24.432C606.202 27.056 606.81 29.168 608.026 30.768C609.274 32.368 610.81 33.168 612.634 33.168C614.49 33.168 615.866 32.752 616.762 31.92C617.69 31.056 618.154 29.84 618.154 28.272H622.042C622.042 30.736 621.178 32.736 619.45 34.272C617.754 35.776 615.53 36.528 612.778 36.528C609.866 36.528 607.386 35.424 605.338 33.216C603.322 31.008 602.314 28.08 602.314 24.432C602.314 20.752 603.322 17.84 605.338 15.696C607.354 13.552 609.706 12.48 612.394 12.48ZM645.065 31.44C643.497 34.768 640.953 36.432 637.433 36.432C634.841 36.432 632.745 35.712 631.145 34.272C629.577 32.832 628.793 30.608 628.793 27.6V13.008H632.585V27.312C632.585 31.184 634.377 33.12 637.961 33.12C640.041 33.12 641.721 32.32 643.001 30.72C644.313 29.12 645.001 27.072 645.065 24.576V13.008H648.857V36H645.065V31.44ZM667.935 16.272C664.319 16.272 662.447 19.12 662.319 24.816V36H658.527V13.008H662.319V17.424C663.471 14.224 665.503 12.624 668.415 12.624C669.343 12.624 670.223 12.768 671.055 13.056L670.863 16.752C669.903 16.432 668.927 16.272 667.935 16.272ZM684.776 33.456C687.944 33.456 689.752 32.064 690.2 29.28H694.088C693.736 31.584 692.712 33.376 691.016 34.656C689.352 35.904 687.272 36.528 684.776 36.528C681.704 36.528 679.208 35.44 677.288 33.264C675.368 31.056 674.408 28.128 674.408 24.48C674.408 20.832 675.368 17.92 677.288 15.744C679.24 13.568 681.816 12.48 685.016 12.48C688.248 12.48 690.648 13.728 692.216 16.224C693.816 18.72 694.376 21.76 693.896 25.344H678.2C678.2 27.712 678.776 29.664 679.928 31.2C681.08 32.704 682.696 33.456 684.776 33.456ZM687.56 16.08C686.824 15.696 685.928 15.504 684.872 15.504C682.92 15.504 681.368 16.176 680.216 17.52C679.096 18.832 678.44 20.48 678.248 22.464H690.488C690.488 19.264 689.512 17.136 687.56 16.08ZM701.751 36.24C701.015 36.176 700.407 35.936 699.927 35.52C699.447 35.104 699.207 34.544 699.207 33.84C699.207 33.136 699.447 32.544 699.927 32.064C700.439 31.584 701.143 31.344 702.039 31.344C702.967 31.344 703.735 31.712 704.343 32.448C704.951 33.152 705.255 34.048 705.255 35.136C705.255 36.224 704.903 37.328 704.199 38.448C703.495 39.6 702.423 40.528 700.983 41.232L698.151 39.84C700.135 38.88 701.335 37.68 701.751 36.24ZM738.099 16.464V3.312H741.843V36H738.771L738.291 32.16C737.555 33.6 736.579 34.688 735.363 35.424C734.147 36.16 732.819 36.528 731.379 36.528C728.467 36.528 726.019 35.408 724.035 33.168C722.083 30.928 721.107 28.016 721.107 24.432C721.107 20.816 722.067 17.92 723.987 15.744C725.939 13.568 728.387 12.48 731.331 12.48C734.307 12.48 736.563 13.808 738.099 16.464ZM731.571 15.84C729.715 15.84 728.147 16.624 726.867 18.192C725.619 19.76 724.995 21.856 724.995 24.48C724.995 27.104 725.635 29.216 726.915 30.816C728.195 32.384 729.731 33.168 731.523 33.168C733.315 33.168 734.835 32.576 736.083 31.392C737.363 30.176 738.035 28.56 738.099 26.544V22.8C738.099 20.656 737.475 18.96 736.227 17.712C734.979 16.464 733.427 15.84 731.571 15.84ZM759.495 33.456C762.663 33.456 764.471 32.064 764.919 29.28H768.807C768.455 31.584 767.431 33.376 765.735 34.656C764.071 35.904 761.991 36.528 759.495 36.528C756.423 36.528 753.927 35.44 752.007 33.264C750.087 31.056 749.127 28.128 749.127 24.48C749.127 20.832 750.087 17.92 752.007 15.744C753.959 13.568 756.535 12.48 759.735 12.48C762.967 12.48 765.367 13.728 766.935 16.224C768.535 18.72 769.095 21.76 768.615 25.344H752.919C752.919 27.712 753.495 29.664 754.647 31.2C755.799 32.704 757.415 33.456 759.495 33.456ZM762.279 16.08C761.543 15.696 760.647 15.504 759.591 15.504C757.639 15.504 756.087 16.176 754.935 17.52C753.815 18.832 753.159 20.48 752.967 22.464H765.207C765.207 19.264 764.231 17.136 762.279 16.08ZM783.91 12.48C786.63 12.48 788.79 13.184 790.39 14.592C791.99 15.968 793.03 17.696 793.51 19.776L789.67 20.112C789.254 18.768 788.582 17.728 787.654 16.992C786.726 16.224 785.702 15.84 784.582 15.84C782.534 15.84 780.87 16.608 779.59 18.144C778.342 19.68 777.718 21.776 777.718 24.432C777.718 27.056 778.326 29.168 779.542 30.768C780.79 32.368 782.326 33.168 784.15 33.168C786.006 33.168 787.382 32.752 788.278 31.92C789.206 31.056 789.67 29.84 789.67 28.272H793.558C793.558 30.736 792.694 32.736 790.966 34.272C789.27 35.776 787.046 36.528 784.294 36.528C781.382 36.528 778.902 35.424 776.854 33.216C774.838 31.008 773.83 28.08 773.83 24.432C773.83 20.752 774.838 17.84 776.854 15.696C778.87 13.552 781.222 12.48 783.91 12.48ZM808.901 33.456C812.069 33.456 813.877 32.064 814.325 29.28H818.213C817.861 31.584 816.837 33.376 815.141 34.656C813.477 35.904 811.397 36.528 808.901 36.528C805.829 36.528 803.333 35.44 801.413 33.264C799.493 31.056 798.533 28.128 798.533 24.48C798.533 20.832 799.493 17.92 801.413 15.744C803.365 13.568 805.941 12.48 809.141 12.48C812.373 12.48 814.773 13.728 816.341 16.224C817.941 18.72 818.501 21.76 818.021 25.344H802.325C802.325 27.712 802.901 29.664 804.053 31.2C805.205 32.704 806.821 33.456 808.901 33.456ZM811.685 16.08C810.949 15.696 810.053 15.504 808.997 15.504C807.045 15.504 805.493 16.176 804.341 17.52C803.221 18.832 802.565 20.48 802.373 22.464H814.613C814.613 19.264 813.637 17.136 811.685 16.08ZM829.332 17.472C830.836 14.144 833.412 12.48 837.06 12.48C839.78 12.48 841.892 13.376 843.396 15.168C844.932 16.96 845.7 19.408 845.7 22.512V36H841.956V22.512C841.956 20.304 841.428 18.64 840.372 17.52C839.348 16.4 837.876 15.84 835.956 15.84C834.036 15.84 832.484 16.624 831.3 18.192C830.116 19.76 829.492 21.936 829.428 24.72V36H825.636V13.056H828.9L829.332 17.472ZM866.606 35.328C863.854 36.608 861.342 36.88 859.07 36.144C857.438 35.632 856.286 34.56 855.614 32.928C855.262 32.128 855.086 31.168 855.086 30.048V15.936H851.39V13.056H855.086V6.672H858.83V13.056H866.03V15.936H858.83V30C858.83 32.336 859.918 33.504 862.094 33.504C863.278 33.504 864.606 33.216 866.078 32.64L866.606 35.328ZM882.013 16.272C878.397 16.272 876.525 19.12 876.397 24.816V36H872.605V13.008H876.397V17.424C877.549 14.224 879.581 12.624 882.493 12.624C883.421 12.624 884.301 12.768 885.133 13.056L884.941 16.752C883.981 16.432 883.005 16.272 882.013 16.272ZM905.142 21.12C905.142 19.04 904.71 17.552 903.846 16.656C902.982 15.76 901.718 15.312 900.054 15.312C898.422 15.312 897.094 15.648 896.07 16.32C895.078 16.96 894.582 17.984 894.582 19.392H890.406C890.406 15.872 892.294 13.696 896.07 12.864C897.222 12.608 898.47 12.48 899.814 12.48C902.662 12.48 904.886 13.2 906.486 14.64C908.086 16.08 908.886 18.272 908.886 21.216V36H905.622L905.238 32.16C903.83 35.072 901.286 36.528 897.606 36.528C895.142 36.528 893.158 35.84 891.654 34.464C890.182 33.088 889.446 31.376 889.446 29.328C889.446 27.28 890.262 25.68 891.894 24.528C893.558 23.376 895.622 22.8 898.086 22.8C900.55 22.8 902.902 23.216 905.142 24.048V21.12ZM905.142 26.448C902.87 25.808 900.886 25.488 899.19 25.488C897.494 25.488 896.118 25.792 895.062 26.4C894.006 27.008 893.478 27.968 893.478 29.28C893.478 32.16 895.11 33.6 898.374 33.6C900.23 33.6 901.814 32.944 903.126 31.632C904.47 30.288 905.142 28.56 905.142 26.448ZM917.793 3.312H921.585V36H917.793V3.312ZM931.486 13.008H935.278V36H931.486V13.008ZM933.358 7.632C932.59 7.632 931.982 7.424 931.534 7.008C931.118 6.56 930.91 5.984 930.91 5.28C930.91 4.544 931.118 3.968 931.534 3.552C931.982 3.104 932.59 2.88 933.358 2.88C934.126 2.88 934.734 3.104 935.182 3.552C935.662 3.968 935.902 4.544 935.902 5.28C935.902 5.984 935.662 6.56 935.182 7.008C934.734 7.424 934.126 7.632 933.358 7.632ZM944.39 18.672C944.39 16.784 945.19 15.28 946.79 14.16C948.422 13.04 950.614 12.48 953.366 12.48C956.118 12.48 958.262 13.056 959.798 14.208C961.366 15.36 962.182 16.816 962.246 18.576H958.55C958.262 16.496 956.502 15.456 953.27 15.456C951.702 15.456 950.486 15.808 949.622 16.512C948.79 17.216 948.374 17.984 948.374 18.816C948.374 19.616 948.694 20.304 949.334 20.88C949.974 21.424 950.998 21.904 952.406 22.32L957.014 23.856C958.966 24.464 960.454 25.248 961.478 26.208C962.534 27.136 963.062 28.432 963.062 30.096C963.062 31.728 962.214 33.216 960.518 34.56C958.822 35.872 956.454 36.528 953.414 36.528C950.374 36.528 948.006 35.856 946.31 34.512C944.614 33.136 943.718 31.376 943.622 29.232H947.27C947.334 30.672 947.91 31.76 948.998 32.496C950.118 33.2 951.51 33.552 953.174 33.552C954.838 33.552 956.214 33.2 957.302 32.496C958.39 31.792 958.934 30.96 958.934 30C958.934 29.008 958.614 28.256 957.974 27.744C957.334 27.232 956.294 26.784 954.854 26.4L950.39 24.912C946.39 23.728 944.39 21.648 944.39 18.672ZM978.776 33.456C981.944 33.456 983.752 32.064 984.2 29.28H988.088C987.736 31.584 986.712 33.376 985.016 34.656C983.352 35.904 981.272 36.528 978.776 36.528C975.704 36.528 973.208 35.44 971.288 33.264C969.368 31.056 968.408 28.128 968.408 24.48C968.408 20.832 969.368 17.92 971.288 15.744C973.24 13.568 975.816 12.48 979.016 12.48C982.248 12.48 984.648 13.728 986.216 16.224C987.816 18.72 988.376 21.76 987.896 25.344H972.2C972.2 27.712 972.776 29.664 973.928 31.2C975.08 32.704 976.696 33.456 978.776 33.456ZM981.56 16.08C980.824 15.696 979.928 15.504 978.872 15.504C976.92 15.504 975.368 16.176 974.216 17.52C973.096 18.832 972.44 20.48 972.248 22.464H984.488C984.488 19.264 983.512 17.136 981.56 16.08ZM1010.58 16.464V3.312H1014.33V36H1011.25L1010.77 32.16C1010.04 33.6 1009.06 34.688 1007.85 35.424C1006.63 36.16 1005.3 36.528 1003.86 36.528C1000.95 36.528 998.503 35.408 996.519 33.168C994.567 30.928 993.591 28.016 993.591 24.432C993.591 20.816 994.551 17.92 996.471 15.744C998.423 13.568 1000.87 12.48 1003.81 12.48C1006.79 12.48 1009.05 13.808 1010.58 16.464ZM1004.05 15.84C1002.2 15.84 1000.63 16.624 999.351 18.192C998.103 19.76 997.479 21.856 997.479 24.48C997.479 27.104 998.119 29.216 999.399 30.816C1000.68 32.384 1002.21 33.168 1004.01 33.168C1005.8 33.168 1007.32 32.576 1008.57 31.392C1009.85 30.176 1010.52 28.56 1010.58 26.544V22.8C1010.58 20.656 1009.96 18.96 1008.71 17.712C1007.46 16.464 1005.91 15.84 1004.05 15.84Z" fill="#062D56"/>
</svg>
