<svg width="40" height="40" viewBox="0 0 40 40" fill="none" xmlns="http://www.w3.org/2000/svg">
<path d="M10.8571 0.000366211C9.23419 0.000366211 7.89624 1.36167 7.89624 3.01292V6.84241H15.19V3.01292C15.19 1.36167 13.8683 0.000366211 12.2454 0.000366211H10.8571ZM27.0846 0.000366211C25.4617 0.000366211 24.1237 1.36167 24.1237 3.01292V23.3532H31.4175V3.01292C31.4175 1.36167 30.0958 0.000366211 28.4729 0.000366211H27.0846ZM7.89624 16.6466V36.9869C7.89624 38.6382 9.21795 39.9995 10.8571 39.9995H12.2454C13.8683 39.9995 15.2062 38.6382 15.2062 36.9869V16.6466H7.89624ZM24.1229 33.1574V36.9869C24.1229 38.6382 25.4617 39.9995 27.0838 39.9995H28.4721C30.095 39.9995 31.4329 38.6382 31.4329 36.9869V33.1574C31.4338 33.1574 24.1229 33.1574 24.1229 33.1574Z" fill="#74B816"/>
<path d="M2.96092 8.03357C1.33801 8.03357 6.10352e-05 9.37835 6.10352e-05 11.0461V12.4586C6.10352e-05 14.1099 1.32177 15.4712 2.96092 15.4712H22.9522V8.03357H2.96092ZM32.5882 8.03357V15.472H36.352C37.9749 15.472 39.3129 14.1272 39.3129 12.4595V11.0469C39.3129 9.37918 37.9749 8.0344 36.352 8.0344H32.5882V8.03357ZM2.96092 24.5444C1.33801 24.5444 6.10352e-05 25.8891 6.10352e-05 27.5569V28.9694C6.10352e-05 30.6207 1.32177 31.982 2.96092 31.982H6.72472V24.5444H2.96092ZM16.3607 24.5444V31.9828H36.352C37.9749 31.9828 39.3129 30.6207 39.3129 28.9702V27.5577C39.3129 25.89 37.9749 24.5452 36.352 24.5452L16.3607 24.5444Z" fill="#82C91E"/>
</svg>
