<svg fill="none" height="32" viewBox="0 0 32 32" width="32" xmlns="http://www.w3.org/2000/svg">
  <g clip-path="url(#clip0_1093_84885-720778)">
    <path clip-rule="evenodd" d="M16 32C24.8365 32 32 24.8365 32 16C32 7.16346 24.8365 0 16 0C7.16346 0 0 7.16346 0 16C0 24.8365 7.16346 32 16 32Z" fill="#0DBD8B" fill-rule="evenodd"></path>
    <path clip-rule="evenodd" d="M13.0781 7.45456C13.0781 6.8087 13.6028 6.28516 14.25 6.28516C18.6364 6.28516 22.1923 9.83367 22.1923 14.211C22.1923 14.8568 21.6676 15.3804 21.0205 15.3804C20.3733 15.3804 19.8486 14.8568 19.8486 14.211C19.8486 11.1254 17.342 8.62396 14.25 8.62396C13.6028 8.62396 13.0781 8.10039 13.0781 7.45456Z" fill="white" fill-rule="evenodd"></path>
    <path clip-rule="evenodd" d="M24.5439 13.043C25.1911 13.043 25.7157 13.5665 25.7157 14.2124C25.7157 18.5897 22.1598 22.1382 17.7734 22.1382C17.1262 22.1382 16.6016 21.6147 16.6016 20.9688C16.6016 20.323 17.1262 19.7994 17.7734 19.7994C20.8655 19.7994 23.3721 17.298 23.3721 14.2124C23.3721 13.5665 23.8967 13.043 24.5439 13.043Z" fill="white" fill-rule="evenodd"></path>
    <path clip-rule="evenodd" d="M18.9423 24.543C18.9423 25.1889 18.4176 25.7124 17.7705 25.7124C13.384 25.7124 9.82812 22.1639 9.82812 17.7866C9.82812 17.1407 10.3528 16.6172 11 16.6172C11.6471 16.6172 12.1718 17.1407 12.1718 17.7866C12.1718 20.8722 14.6784 23.3736 17.7705 23.3736C18.4176 23.3736 18.9423 23.8972 18.9423 24.543Z" fill="white" fill-rule="evenodd"></path>
    <path clip-rule="evenodd" d="M7.46086 18.9585C6.81369 18.9585 6.28906 18.435 6.28906 17.7891C6.28903 13.4118 9.84495 9.86328 14.2314 9.86328C14.8786 9.86328 15.4032 10.3869 15.4032 11.0327C15.4032 11.6785 14.8786 12.2021 14.2314 12.2021C11.1393 12.2021 8.63269 14.7035 8.63269 17.7891C8.63269 18.435 8.10806 18.9585 7.46086 18.9585Z" fill="white" fill-rule="evenodd"></path>
  </g>
  <defs>
    <clipPath id="clip0_1093_84885-720778">
      <rect fill="currentColor" height="32" width="32"></rect>
    </clipPath>
  </defs>
</svg>