<svg xmlns="http://www.w3.org/2000/svg" xml:space="preserve" viewBox="0 0 200 200"><path fill="#00f782" d="M150.7 100.7 113.3 80h25.3a40 40 0 0 0 0-80H50.1A50.2 50.2 0 0 0 0 50.1a54.2 54.2 0 0 0 28 47.4l37.3 20.8H40a40 40 0 0 0 0 80h88.5a50.2 50.2 0 0 0 50.1-50.2 54.2 54.2 0 0 0-27.9-47.4zm-116.8-14A41.9 41.9 0 0 1 12.4 51 38.5 38.5 0 0 1 51 12.4h86.8a28.1 28.1 0 0 1 28.4 26.2c.8 15.9-11.9 29-27.5 29h-50a5.6 5.6 0 0 0-5.6 5.6V114L34 86.7zm93.7 99.1H40.8a28.1 28.1 0 0 1-28.4-26.2 27.6 27.6 0 0 1 27.6-29h50c3 0 5.5-2.4 5.5-5.5V84.3l49.2 27.3a41.9 41.9 0 0 1 21.5 35.5 38.5 38.5 0 0 1-38.6 38.7z"/></svg>