<svg width="22" height="26" viewBox="0 0 22 26" fill="none" xmlns="http://www.w3.org/2000/svg">
<path fill-rule="evenodd" clip-rule="evenodd" d="M8.8508 5.75293H18.7128C20.5283 5.75293 22.0001 7.22471 22.0001 9.04025V22.1895C22.0001 24.0051 20.5283 25.4768 18.7128 25.4768H8.8508C7.03526 25.4768 5.56348 24.0051 5.56348 22.1895V9.04025C5.56348 7.22471 7.03526 5.75293 8.8508 5.75293ZM8.8508 7.39659C7.94303 7.39659 7.20714 8.13248 7.20714 9.04025V22.1895C7.20714 23.0973 7.94303 23.8332 8.8508 23.8332H18.7128C19.6205 23.8332 20.3564 23.0973 20.3564 22.1895V9.04025C20.3564 8.13248 19.6205 7.39659 18.7128 7.39659H8.8508Z" fill="#3F484B"/>
<path fill-rule="evenodd" clip-rule="evenodd" d="M13.1493 0H3.28732C1.47178 0 0 1.47178 0 3.28732V16.4366C0 18.2521 1.47178 19.7239 3.28732 19.7239H3.91974V18.0803H3.28732C2.37955 18.0803 1.64366 17.3444 1.64366 16.4366V3.28732C1.64366 2.37955 2.37955 1.64366 3.28732 1.64366H13.1493C14.057 1.64366 14.7929 2.37955 14.7929 3.28732V4.10915H16.4366V3.28732C16.4366 1.47178 14.9648 0 13.1493 0Z" fill="#3F484B"/>
</svg>
