<svg width="77" height="68" viewBox="0 0 77 68" fill="none" xmlns="http://www.w3.org/2000/svg">
<path d="M0 33.9107C0 15.1823 15.1823 0 33.9107 0C52.6387 0 67.8217 15.1823 67.8217 33.9107C67.8217 52.639 52.6387 67.8213 33.9107 67.8213H0V33.9107Z" fill="url(#paint0_linear_36_45)"/>
<path d="M42.6486 31.9633C42.6486 31.4844 42.2616 31.0962 41.7847 31.0962C41.3077 31.0962 40.921 31.4844 40.921 31.9633C40.921 36.2731 37.4411 39.7669 33.1483 39.7669C28.8555 39.7669 25.3757 36.2731 25.3757 31.9633C25.3757 31.4844 24.989 31.0962 24.512 31.0962C24.035 31.0962 23.6484 31.4844 23.6484 31.9633C23.6548 36.8914 27.3967 41.0047 32.2848 41.4568V43.2351H27.9666C27.4896 43.2351 27.1029 43.6234 27.1029 44.1022C27.1029 44.5811 27.4896 44.9693 27.9666 44.9693H38.3302C38.8072 44.9693 39.1939 44.5811 39.1939 44.1022C39.1939 43.6234 38.8072 43.2351 38.3302 43.2351H34.012V41.4568C38.9 41.0047 42.6416 36.8914 42.6486 31.9633Z" fill="white"/>
<path d="M33.149 38.0327C36.4862 38.0289 39.1907 35.3137 39.1944 31.9633V26.7609C39.1945 23.4088 36.4878 20.6914 33.149 20.6914C29.8102 20.6914 27.1035 23.4088 27.1035 26.7609V31.9632C27.1074 35.3137 29.8118 38.0289 33.149 38.0327ZM28.8308 26.7609C28.8308 24.3665 30.7641 22.4255 33.149 22.4255C35.5339 22.4255 37.4672 24.3665 37.4672 26.7609V31.9632C37.4672 34.3575 35.5339 36.2985 33.149 36.2985C30.7641 36.2985 28.8308 34.3575 28.8308 31.9632V26.7609Z" fill="white"/>
<path d="M62.9907 65.2378C69.9808 65.2378 75.6474 59.5712 75.6474 52.5811C75.6474 45.591 69.9808 39.9244 62.9907 39.9244C56.0006 39.9244 50.334 45.591 50.334 52.5811C50.334 59.5712 56.0006 65.2378 62.9907 65.2378Z" fill="url(#paint1_linear_36_45)" stroke="#606C71"/>
<path d="M66.5977 56.8214V51.1773C66.2007 51.1776 65.8047 51.1783 65.4077 51.1783L58.6467 51.1784H58.5347V56.8214H66.5977Z" fill="#606C71"/>
<path d="M65.3617 50.3759C64.9627 50.3759 64.5727 50.3759 64.1687 50.3759C64.1687 50.3457 64.1687 50.3166 64.1687 50.2874C64.1687 49.9018 64.1737 49.5162 64.1677 49.1307C64.1567 48.4374 63.8337 47.936 63.2097 47.6422C62.3077 47.2179 61.1847 47.7899 60.9897 48.7656C60.9667 48.8788 60.9567 48.9961 60.9557 49.1116C60.9517 49.5027 60.9547 49.8939 60.9547 50.285C60.9547 50.3123 60.9547 50.3397 60.9547 50.3727C60.5557 50.3727 60.1607 50.3727 59.7667 50.3727C59.7637 50.3658 59.7597 50.361 59.7597 50.3563C59.7597 49.8708 59.7337 49.3837 59.7667 48.9004C59.8207 48.0915 60.1867 47.4302 60.8167 46.9198C61.2477 46.5707 61.7457 46.3686 62.2957 46.3217C63.5637 46.2134 64.6237 46.9078 65.1037 47.9383C65.2717 48.3005 65.3557 48.6821 65.3627 49.0789C65.3707 49.4949 65.3647 49.9111 65.3647 50.3272C65.3647 50.3407 65.3637 50.3542 65.3617 50.3759Z" fill="#606C71"/>
<defs>
<linearGradient id="paint0_linear_36_45" x1="66.8237" y1="2.61784e-06" x2="-14.4281" y2="27.7307" gradientUnits="userSpaceOnUse">
<stop stop-color="#CD5CAE"/>
<stop offset="1" stop-color="#FF3685"/>
</linearGradient>
<linearGradient id="paint1_linear_36_45" x1="75.7607" y1="39.4243" x2="44.2357" y2="50.1833" gradientUnits="userSpaceOnUse">
<stop stop-color="#FDFF97"/>
<stop offset="1" stop-color="#F1DA09"/>
</linearGradient>
</defs>
</svg>
