<svg width="85" height="57" viewBox="0 0 85 57" fill="none" xmlns="http://www.w3.org/2000/svg">
<path d="M0 8.5246L6.0467 34.1277C8.0343 42.5431 13.908 51.308 28.3228 47.8979C42.7378 44.4878 43.9277 33.4174 42.0819 25.6024L36.0353 0L0 8.5246ZM13.3256 16.9276C15.7907 16.3445 18.2617 17.8719 18.8443 20.3391C19.427 22.8063 17.9008 25.2793 15.4357 25.8624C12.9706 26.4455 10.4996 24.9183 9.9169 22.451C9.3342 19.9838 10.8603 17.5109 13.3256 16.9276ZM28.2047 13.4077C30.6698 12.8246 33.1409 14.352 33.7235 16.8192C34.3061 19.2864 32.78 21.7595 30.3148 22.3426C27.8497 22.9257 25.3787 21.3983 24.7961 18.9311C24.2134 16.4639 25.7394 13.9908 28.2047 13.4077ZM14.1051 36.0291C14.1051 36.0291 21.5892 36.2249 25.6163 35.2722C29.6434 34.3194 36.3309 30.7713 36.3309 30.7713C36.3309 30.7713 36.2334 38.4102 27.2238 40.5415C18.2143 42.6727 14.1051 36.0291 14.1051 36.0291Z" fill="url(#paint0_linear_36_93)"/>
<path d="M49.1276 7.66992L42.0542 33.0081C39.7293 41.3365 40.6378 51.8509 54.9035 55.84C69.1695 59.829 75.5585 50.7138 77.7165 42.9796L84.7905 17.6419L49.1276 7.66992ZM56.7345 21.473C59.1735 22.1552 60.5985 24.6878 59.9175 27.1294C59.2355 29.5711 56.7055 30.9977 54.2655 30.3154C51.826 29.6332 50.4006 27.1006 51.0823 24.659C51.7641 22.2173 54.2945 20.7909 56.7345 21.473ZM71.4595 25.5905C73.8985 26.2726 75.3245 28.8052 74.6425 31.2469C73.9605 33.6885 71.4305 35.1152 68.9905 34.4328C66.5515 33.7507 65.1255 31.2181 65.8075 28.7764C66.4895 26.3348 69.0195 24.9083 71.4595 25.5905ZM68.7035 50.0319L57.7505 46.9533L46.7078 43.8812C46.7078 43.8812 49.9724 39.0695 58.8885 41.5628C67.8055 44.056 68.7035 50.0319 68.7035 50.0319Z" fill="url(#paint1_linear_36_93)"/>
<defs>
<linearGradient id="paint0_linear_36_93" x1="42.1222" y1="-9.93013e-05" x2="-10.3421" y2="15.7334" gradientUnits="userSpaceOnUse">
<stop stop-color="#53C1FF"/>
<stop offset="1" stop-color="#0053D0"/>
</linearGradient>
<linearGradient id="paint1_linear_36_93" x1="84.1475" y1="7.66992" x2="30.6093" y2="23.9251" gradientUnits="userSpaceOnUse">
<stop stop-color="#CD5CAE"/>
<stop offset="1" stop-color="#FF3685"/>
</linearGradient>
</defs>
</svg>
