<svg width="87" height="59" viewBox="0 0 87 59" fill="none" xmlns="http://www.w3.org/2000/svg">
<path d="M1.10382 9.6287L7.15052 35.2318C9.13802 43.6472 15.0118 52.412 29.4266 49.0019C43.8415 45.5918 45.0314 34.5215 43.1856 26.7064L37.1391 1.104L1.10382 9.6287ZM14.4293 18.0316C16.8945 17.4485 19.3655 18.9759 19.9481 21.4431C20.5307 23.9103 19.0046 26.3834 16.5395 26.9665C14.0743 27.5496 11.6033 26.0224 11.0207 23.555C10.4379 21.0878 11.964 18.6149 14.4293 18.0316ZM29.3085 14.5118C31.7736 13.9287 34.2446 15.4561 34.8272 17.9233C35.4098 20.3905 33.8837 22.8635 31.4186 23.4466C28.9534 24.0297 26.4824 22.5023 25.8998 20.0352C25.3172 17.568 26.8432 15.0949 29.3085 14.5118ZM15.2089 37.1331C15.2089 37.1331 22.6929 37.329 26.72 36.3762C30.7472 35.4235 37.4346 31.8753 37.4346 31.8753C37.4346 31.8753 37.3372 39.5142 28.3275 41.6456C19.3181 43.7768 15.2089 37.1331 15.2089 37.1331Z" fill="url(#paint0_linear_5_43)" stroke="#3F484B" stroke-miterlimit="10"/>
<path d="M50.2311 8.77393L43.1577 34.1122C40.8328 42.4406 41.7413 52.9549 56.007 56.944C70.273 60.9331 76.662 51.8179 78.82 44.0836L85.894 18.7459L50.2311 8.77393ZM57.838 22.5771C60.277 23.2592 61.702 25.7918 61.021 28.2335C60.339 30.6751 57.809 32.1017 55.369 31.4194C52.9295 30.7373 51.5041 28.2047 52.1858 25.763C52.8676 23.3213 55.398 21.8949 57.838 22.5771ZM72.563 26.6945C75.002 27.3767 76.428 29.9093 75.746 32.3509C75.064 34.7926 72.534 36.2192 70.094 35.5369C67.655 34.8547 66.229 32.3221 66.911 29.8805C67.593 27.4388 70.123 26.0124 72.563 26.6945ZM69.807 51.1359L58.854 48.0573L47.8113 44.9853C47.8113 44.9853 51.0759 40.1736 59.992 42.6668C68.909 45.1601 69.807 51.1359 69.807 51.1359Z" fill="url(#paint1_linear_5_43)" stroke="#3F484B" stroke-miterlimit="10"/>
<defs>
<linearGradient id="paint0_linear_5_43" x1="43.2259" y1="1.104" x2="-9.23838" y2="16.8375" gradientUnits="userSpaceOnUse">
<stop stop-color="#53C1FF"/>
<stop offset="1" stop-color="#0053D0"/>
</linearGradient>
<linearGradient id="paint1_linear_5_43" x1="85.251" y1="8.77392" x2="31.7128" y2="25.0292" gradientUnits="userSpaceOnUse">
<stop stop-color="#CD5CAE"/>
<stop offset="1" stop-color="#FF3685"/>
</linearGradient>
</defs>
</svg>
