<svg width="144" height="68" viewBox="0 0 144 68" fill="none" xmlns="http://www.w3.org/2000/svg">
<path fill-rule="evenodd" clip-rule="evenodd" d="M11.9492 28.8653L10.7788 26.8918L0.000999451 33.2837H0V35.1749H0.00119972L10.7788 41.5668L11.9492 39.5933L2.9047 34.2293L11.9492 28.8653Z" fill="#A8B0B4"/>
<path fill-rule="evenodd" clip-rule="evenodd" d="M131.909 39.4688L133.068 41.4229L143.74 35.0936L143.739 35.0919V33.2226L143.74 33.2209L133.068 26.8916L131.909 28.8457L140.865 34.1572L131.909 39.4688Z" fill="#A8B0B4"/>
<path d="M40.4102 33.9107C40.4102 15.1823 55.5925 0 74.3209 0C93.0489 0 108.232 15.1823 108.232 33.9107C108.232 52.639 93.0489 67.8213 74.3209 67.8213H40.4102V33.9107Z" fill="url(#paint0_linear_32_22)"/>
<path d="M59.0488 22.1084H76.3803" stroke="white" stroke-linecap="round"/>
<path d="M59.0488 34.1084H89.4238" stroke="white" stroke-linecap="round"/>
<path d="M59.0488 45.1084H89.4238" stroke="white" stroke-linecap="round"/>
<path d="M102.401 65.2378C109.391 65.2378 115.058 59.5712 115.058 52.5811C115.058 45.591 109.391 39.9244 102.401 39.9244C95.4107 39.9244 89.7441 45.591 89.7441 52.5811C89.7441 59.5712 95.4107 65.2378 102.401 65.2378Z" fill="url(#paint1_linear_32_22)" stroke="#606C71"/>
<path d="M106.008 56.8214V51.1773C105.611 51.1776 105.215 51.1783 104.818 51.1783L98.0568 51.1784H97.9448V56.8214H106.008Z" fill="#606C71"/>
<path d="M104.772 50.3759C104.373 50.3759 103.983 50.3759 103.579 50.3759C103.579 50.3457 103.579 50.3166 103.579 50.2874C103.579 49.9018 103.584 49.5162 103.578 49.1307C103.567 48.4374 103.244 47.936 102.62 47.6422C101.718 47.2179 100.595 47.7899 100.4 48.7656C100.377 48.8788 100.367 48.9961 100.366 49.1116C100.362 49.5027 100.365 49.8939 100.365 50.285C100.365 50.3123 100.365 50.3397 100.365 50.3727C99.9659 50.3727 99.5709 50.3727 99.1769 50.3727C99.1739 50.3658 99.1699 50.361 99.1699 50.3563C99.1699 49.8708 99.1439 49.3837 99.1769 48.9004C99.2309 48.0915 99.5969 47.4302 100.227 46.9198C100.658 46.5707 101.156 46.3686 101.706 46.3217C102.974 46.2134 104.034 46.9078 104.514 47.9383C104.682 48.3005 104.766 48.6821 104.773 49.0789C104.781 49.4949 104.775 49.9111 104.775 50.3272C104.775 50.3407 104.774 50.3542 104.772 50.3759Z" fill="#606C71"/>
<defs>
<linearGradient id="paint0_linear_32_22" x1="107.234" y1="2.61784e-06" x2="25.9821" y2="27.7307" gradientUnits="userSpaceOnUse">
<stop stop-color="#1BC4BF"/>
<stop offset="1" stop-color="#009F9B"/>
</linearGradient>
<linearGradient id="paint1_linear_32_22" x1="115.171" y1="39.4243" x2="83.6458" y2="50.1833" gradientUnits="userSpaceOnUse">
<stop stop-color="#FDFF97"/>
<stop offset="1" stop-color="#F1DA09"/>
</linearGradient>
</defs>
</svg>
