<svg width="40" height="75" viewBox="0 0 40 75" fill="none" xmlns="http://www.w3.org/2000/svg">
<path d="M32.5363 1H5.81929C3.15767 1 1 3.15767 1 5.81929V68.7227C1 71.3843 3.15767 73.542 5.81929 73.542H32.5363C35.1979 73.542 37.3556 71.3843 37.3556 68.7227V5.81929C37.3556 3.15767 35.1979 1 32.5363 1Z" stroke="#70F0F9" stroke-width="1.07095"/>
<path d="M30.6827 7.53711H7.6714C6.19273 7.53711 4.99402 8.73581 4.99402 10.2145V66.7763C4.99402 68.255 6.19273 69.4537 7.6714 69.4537H30.6827C32.1614 69.4537 33.3601 68.255 33.3601 66.7763V10.2145C33.3601 8.73581 32.1614 7.53711 30.6827 7.53711Z" stroke="#70F0F9" stroke-width="1.07095"/>
<mask id="mask0_57_487" style="mask-type:alpha" maskUnits="userSpaceOnUse" x="8" y="23" width="23" height="26">
<path fill-rule="evenodd" clip-rule="evenodd" d="M8.19515 28.0677C8.19495 28.0594 8.19495 28.0511 8.19495 28.0427C8.19495 25.4148 13.853 23.9966 19.1767 23.9966C24.4895 23.9966 30.1351 25.4089 30.1581 28.0268C30.1581 28.0322 30.1581 28.0376 30.1581 28.043V44.4982C30.1581 45.7015 28.9812 46.7347 26.7539 47.4861C24.7316 48.1684 22.0406 48.5442 19.1768 48.5442C16.313 48.5442 13.622 48.1684 11.5995 47.4861C9.37245 46.7346 8.19515 45.7014 8.19515 44.4981V28.0677Z" fill="white"/>
</mask>
<g mask="url(#mask0_57_487)">
<path fill-rule="evenodd" clip-rule="evenodd" d="M8.19515 28.0677C8.19495 28.0594 8.19495 28.0511 8.19495 28.0427C8.19495 25.4148 13.853 23.9966 19.1767 23.9966C24.4895 23.9966 30.1351 25.4089 30.1581 28.0268C30.1581 28.0322 30.1581 28.0376 30.1581 28.043V44.4982C30.1581 45.7015 28.9812 46.7347 26.7539 47.4861C24.7316 48.1684 22.0406 48.5442 19.1768 48.5442C16.313 48.5442 13.622 48.1684 11.5995 47.4861C9.37245 46.7346 8.19515 45.7014 8.19515 44.4981V28.0677Z" fill="url(#paint0_linear_57_487)"/>
<path d="M8.19514 28.0679H8.84673L8.84663 28.059L8.19514 28.0679ZM30.1581 28.0272L29.5061 28.0328L29.5071 28.0468L30.1581 28.0272ZM26.7538 47.4863L26.9621 48.1037L26.7538 47.4863ZM11.5995 47.4863L11.3912 48.1037L11.5995 47.4863ZM8.84663 28.059C8.84653 28.0537 8.84653 28.0483 8.84653 28.0429H7.54333C7.54333 28.0542 7.54343 28.0655 7.54353 28.0768L8.84663 28.059ZM8.84653 28.0429C8.84653 27.6475 9.05254 27.2341 9.57504 26.8062C10.1019 26.3747 10.8916 25.9822 11.8927 25.6534C13.8889 24.9979 16.5617 24.6484 19.1766 24.6484V23.3452C16.4678 23.3452 13.6498 23.7048 11.4861 24.4153C10.4072 24.7696 9.44964 25.2244 8.74934 25.7979C8.04464 26.3751 7.54333 27.1244 7.54333 28.0429H8.84653ZM19.1766 24.6484C21.7861 24.6484 24.4535 24.9965 26.4485 25.6495C27.4489 25.977 28.2395 26.3681 28.7691 26.7985C29.2941 27.2257 29.5031 27.6388 29.5061 28.0328L30.8101 28.0216C30.8021 27.1066 30.2971 26.3614 29.5911 25.7875C28.8891 25.2167 27.932 24.7639 26.8539 24.411C24.692 23.7033 21.8799 23.3452 19.1766 23.3452V24.6484ZM29.5071 28.0468C29.5071 28.0455 29.5071 28.0443 29.5071 28.0432H30.8101C30.8101 28.0313 30.8101 28.0195 30.8091 28.0076L29.5071 28.0468ZM29.5071 28.0432V44.4984H30.8101V28.0432H29.5071ZM29.5071 44.4984C29.5071 44.8622 29.3361 45.2556 28.8611 45.6721C28.3782 46.0963 27.6159 46.5078 26.5455 46.869L26.9621 48.1037C28.119 47.7134 29.0591 47.2326 29.7211 46.6515C30.3921 46.0628 30.8101 45.3379 30.8101 44.4984H29.5071ZM26.5455 46.869C24.6089 47.5224 21.9923 47.8928 19.1767 47.8928V49.196C22.0887 49.196 24.8542 48.8149 26.9621 48.1037L26.5455 46.869ZM19.1767 47.8928C16.3611 47.8928 13.7447 47.5224 11.8078 46.8689L11.3912 48.1037C13.4993 48.8149 16.2647 49.196 19.1767 49.196V47.8928ZM11.8078 46.8689C10.7375 46.5077 9.97534 46.0962 9.49194 45.672C9.01734 45.2555 8.84663 44.8621 8.84663 44.4983H7.54353C7.54353 45.3378 7.96143 46.0627 8.63233 46.6515C9.29443 47.2325 10.2344 47.7133 11.3912 48.1037L11.8078 46.8689ZM8.84663 44.4983V28.0679H7.54353V44.4983H8.84663Z" fill="#70F0F9"/>
<path d="M19.17 32.1758C13.9566 32.1758 8.41565 30.787 8.41565 28.2134C8.41565 25.6398 13.9566 24.251 19.17 24.251C24.3835 24.251 29.9241 25.6397 29.9241 28.2134C29.9241 30.7871 24.3835 32.1758 19.17 32.1758Z" stroke="#70F0F9" stroke-width="0.651588" stroke-miterlimit="10"/>
<path d="M8.41565 36.2705C8.41565 37.449 9.56855 38.4608 11.7497 39.1967C13.7302 39.865 16.3656 40.233 19.1701 40.233C21.9746 40.233 24.6098 39.865 26.5904 39.1967C28.7711 38.4608 29.9241 37.449 29.9241 36.2705" stroke="#70F0F9" stroke-width="0.651588" stroke-miterlimit="10"/>
<path d="M29.9241 28.2134V44.3281C29.9241 45.5066 28.7711 46.5184 26.5903 47.2543C24.6098 47.9226 21.9746 48.2906 19.17 48.2906C16.3655 48.2906 13.7302 47.9226 11.7496 47.2543C9.56855 46.5183 8.41565 45.5065 8.41565 44.3281V28.2134" stroke="#70F0F9" stroke-width="0.651588" stroke-miterlimit="10"/>
</g>
<g clip-path="url(#clip0_57_487)">
<path d="M31.4835 31.3152C35.5428 31.3152 38.8335 28.0245 38.8335 23.9652C38.8335 19.9059 35.5428 16.6152 31.4835 16.6152C27.4242 16.6152 24.1335 19.9059 24.1335 23.9652C24.1335 28.0245 27.4242 31.3152 31.4835 31.3152Z" fill="url(#paint1_linear_57_487)" stroke="#606C71" stroke-width="0.689702"/>
<path d="M34.2633 26.8894V22.9966C33.9899 22.9968 33.7165 22.9973 33.4431 22.9973L28.7796 22.9974H28.7028V26.8894H34.2633Z" fill="#606C71"/>
<path d="M33.4113 22.444C33.1362 22.444 32.8669 22.444 32.5884 22.444C32.5884 22.4232 32.5884 22.4031 32.5884 22.383C32.5884 22.117 32.5918 21.851 32.5877 21.5852C32.5803 21.107 32.3571 20.7612 31.9266 20.5586C31.3048 20.2659 30.53 20.6604 30.3957 21.3334C30.3801 21.4114 30.3728 21.4923 30.372 21.572C30.3694 21.8417 30.3715 22.1115 30.3718 22.3813C30.3718 22.4002 30.3718 22.419 30.3718 22.4418C30.0961 22.4418 29.8241 22.4418 29.5525 22.4418C29.5503 22.437 29.5474 22.4337 29.5474 22.4304C29.5474 22.0957 29.5295 21.7596 29.5519 21.4263C29.5895 20.8685 29.8416 20.4123 30.2763 20.0604C30.5737 19.8195 30.9167 19.6802 31.2961 19.6478C32.1711 19.5731 32.9019 20.0521 33.2328 20.7628C33.3491 21.0126 33.4068 21.2758 33.4118 21.5495C33.417 21.8364 33.4132 22.1234 33.4132 22.4104C33.4132 22.4197 33.4122 22.429 33.4113 22.444Z" fill="#606C71"/>
</g>
<defs>
<linearGradient id="paint0_linear_57_487" x1="29.8351" y1="23.9966" x2="2.96334" y2="32.2024" gradientUnits="userSpaceOnUse">
<stop stop-color="#1BC4BF"/>
<stop offset="1" stop-color="#009F9B"/>
</linearGradient>
<linearGradient id="paint1_linear_57_487" x1="38.9521" y1="16.2704" x2="20.5147" y2="22.5629" gradientUnits="userSpaceOnUse">
<stop stop-color="#FDFF97"/>
<stop offset="1" stop-color="#F1DA09"/>
</linearGradient>
<clipPath id="clip0_57_487">
<rect width="16" height="16" fill="white" transform="translate(23.5192 16.0054)"/>
</clipPath>
</defs>
</svg>
