<svg width="77" height="68" viewBox="0 0 77 68" fill="none" xmlns="http://www.w3.org/2000/svg">
<path d="M0.580078 33.9532C0.580078 15.2248 15.7624 0.0424805 34.4908 0.0424805C53.2188 0.0424805 68.4018 15.2248 68.4018 33.9532C68.4018 52.6815 53.2188 67.8638 34.4908 67.8638H0.580078V33.9532Z" fill="url(#paint0_linear_32_23)"/>
<path d="M45.8187 43.0302H21.8232C20.0212 43.0302 18.5605 41.5716 18.5605 39.7722V26.4674C18.5605 24.6681 20.0212 23.2095 21.8232 23.2095H45.8187C47.6207 23.2095 49.0817 24.6681 49.0817 26.4674V39.7722C49.0817 41.5716 47.6207 43.0302 45.8187 43.0302Z" stroke="white" stroke-miterlimit="10"/>
<path d="M18.5605 39.5845L25.3029 34.1143L31.308 38.5325L42.6858 27.3818L49.0068 32.6416" stroke="white" stroke-miterlimit="10"/>
<path d="M25.5388 30.512C26.5074 30.512 27.2925 29.728 27.2925 28.7609C27.2925 27.7938 26.5074 27.0098 25.5388 27.0098C24.5703 27.0098 23.7852 27.7938 23.7852 28.7609C23.7852 29.728 24.5703 30.512 25.5388 30.512Z" stroke="white" stroke-miterlimit="10"/>
<path d="M63.5727 65.2803C70.5628 65.2803 76.2294 59.6137 76.2294 52.6236C76.2294 45.6335 70.5628 39.9669 63.5727 39.9669C56.5826 39.9669 50.916 45.6335 50.916 52.6236C50.916 59.6137 56.5826 65.2803 63.5727 65.2803Z" fill="url(#paint1_linear_32_23)" stroke="#606C71"/>
<path d="M67.1797 56.8639V51.2198C66.7827 51.2201 66.3867 51.2208 65.9897 51.2208L59.2287 51.2209H59.1167V56.8639H67.1797Z" fill="#606C71"/>
<path d="M65.9438 50.4183C65.5448 50.4183 65.1548 50.4183 64.7508 50.4183C64.7508 50.3881 64.7508 50.359 64.7508 50.3298C64.7508 49.9442 64.7558 49.5586 64.7498 49.1731C64.7388 48.4798 64.4158 47.9784 63.7918 47.6846C62.8898 47.2603 61.7668 47.8323 61.5718 48.808C61.5488 48.9212 61.5388 49.0385 61.5378 49.154C61.5338 49.5451 61.5368 49.9363 61.5368 50.3274C61.5368 50.3547 61.5368 50.3821 61.5368 50.4151C61.1378 50.4151 60.7428 50.4151 60.3488 50.4151C60.3458 50.4082 60.3418 50.4034 60.3418 50.3987C60.3418 49.9132 60.3158 49.4261 60.3488 48.9428C60.4028 48.1339 60.7688 47.4726 61.3988 46.9622C61.8298 46.6131 62.3268 46.411 62.8768 46.3641C64.1458 46.2558 65.2058 46.9502 65.6858 47.9807C65.8538 48.3429 65.9378 48.7245 65.9448 49.1213C65.9528 49.5373 65.9468 49.9535 65.9468 50.3696C65.9468 50.3831 65.9458 50.3966 65.9438 50.4183Z" fill="#606C71"/>
<defs>
<linearGradient id="paint0_linear_32_23" x1="67.4038" y1="0.0424831" x2="-13.848" y2="27.7732" gradientUnits="userSpaceOnUse">
<stop stop-color="#53C1FF"/>
<stop offset="1" stop-color="#0053D0"/>
</linearGradient>
<linearGradient id="paint1_linear_32_23" x1="76.3427" y1="39.4668" x2="44.8177" y2="50.2258" gradientUnits="userSpaceOnUse">
<stop stop-color="#FDFF97"/>
<stop offset="1" stop-color="#F1DA09"/>
</linearGradient>
</defs>
</svg>
