<svg width="41" height="41" viewBox="0 0 41 41" fill="none" xmlns="http://www.w3.org/2000/svg">
<path d="M20.2907 0.926758C9.24635 0.926758 0.290527 10.1075 0.290527 21.4331C0.290527 30.4933 6.02118 38.18 13.9679 40.8915C14.9674 41.0813 15.3344 40.4467 15.3344 39.905C15.3344 39.4161 15.3158 37.8007 15.3072 36.0872C9.74314 37.3277 8.56906 33.6677 8.56906 33.6677C7.65927 31.2975 6.3484 30.6672 6.3484 30.6672C4.53379 29.3945 6.48519 29.4206 6.48519 29.4206C8.49355 29.5653 9.55105 31.5338 9.55105 31.5338C11.3349 34.6688 14.2298 33.7624 15.3711 33.2385C15.5506 31.9131 16.069 31.0085 16.6409 30.4964C12.1986 29.9779 7.52878 28.2195 7.52878 20.3621C7.52878 18.1232 8.31007 16.294 9.58947 14.8579C9.38181 14.3414 8.69723 12.2557 9.78322 9.43111C9.78322 9.43111 11.4627 8.87998 15.2847 11.5331C16.8801 11.0787 18.591 10.8509 20.2907 10.8431C21.9904 10.8509 23.7027 11.0787 25.301 11.5331C29.1183 8.87998 30.7955 9.43111 30.7955 9.43111C31.8842 12.2557 31.1992 14.3414 30.9916 14.8579C32.274 16.294 33.05 18.1232 33.05 20.3621C33.05 28.2382 28.3712 29.9724 23.9176 30.4801C24.635 31.1165 25.2742 32.3644 25.2742 34.2776C25.2742 37.0214 25.251 39.2296 25.251 39.905C25.251 40.4507 25.611 41.0902 26.6248 40.8888C34.5672 38.1742 40.2905 30.4903 40.2905 21.4331C40.2905 10.1075 31.336 0.926758 20.2907 0.926758Z" fill="#0053D0"/>
</svg>
