<svg width="151" height="121" viewBox="0 0 151 121" fill="none" xmlns="http://www.w3.org/2000/svg">
<path d="M146.355 57.8786L124.26 51.9581C121.859 51.3149 119.392 52.7395 118.748 55.1401L104.601 107.938C103.958 110.339 105.382 112.806 107.783 113.45L129.879 119.37C132.279 120.013 134.747 118.589 135.39 116.188L149.537 63.39C150.18 60.9894 148.756 58.5219 146.355 57.8786Z" fill="url(#paint0_linear_43_106)" stroke="#606C71"/>
<path d="M143.411 63.034L124.231 57.8946C122.897 57.5373 121.526 58.3287 121.169 59.6624L108.402 107.309C108.045 108.643 108.836 110.013 110.17 110.371L129.35 115.51C130.684 115.868 132.055 115.076 132.412 113.742L145.179 66.0959C145.536 64.7622 144.745 63.3914 143.411 63.034Z" fill="url(#paint1_linear_43_106)" stroke="white"/>
<path d="M93.3255 3.90176L70.5794 1.477C68.1081 1.21356 65.8912 3.00337 65.6277 5.47465L59.8337 59.8273C59.5703 62.2986 61.3601 64.5155 63.8313 64.7789L86.5775 67.2037C89.0487 67.4671 91.2657 65.6773 91.5291 63.2061L97.3232 8.85341C97.5866 6.38213 95.7968 4.1652 93.3255 3.90176Z" fill="url(#paint2_linear_43_106)" stroke="#606C71"/>
<path d="M91.2163 9.45091L71.471 7.34606C70.0981 7.1997 68.8665 8.19404 68.7201 9.56697L63.4914 58.6165C63.345 59.9894 64.3394 61.221 65.7123 61.3674L85.4575 63.4722C86.8305 63.6186 88.0621 62.6243 88.2084 61.2513L93.4372 12.2018C93.5835 10.8289 92.5892 9.59727 91.2163 9.45091Z" fill="url(#paint3_linear_43_106)" stroke="white"/>
<path d="M26.4422 51.9583L4.34667 57.8788C1.94607 58.522 0.521448 60.9895 1.16469 63.3901L15.3119 116.188C15.9551 118.589 18.4226 120.013 20.8232 119.37L42.9188 113.45C45.3194 112.806 46.744 110.339 46.1008 107.938L31.9536 55.1403C31.3103 52.7397 28.8428 51.315 26.4422 51.9583Z" fill="url(#paint4_linear_43_106)" stroke="#606C71"/>
<path d="M26.4708 57.8947L7.2903 63.0341C5.95664 63.3915 5.16518 64.7623 5.52254 66.096L18.2894 113.743C18.6468 115.076 20.0176 115.868 21.3513 115.51L40.5318 110.371C41.8654 110.014 42.6569 108.643 42.2995 107.309L29.5326 59.6625C29.1753 58.3288 27.8045 57.5374 26.4708 57.8947Z" fill="url(#paint5_linear_43_106)" stroke="white"/>
<path d="M62.6175 97.9711C62.4222 98.1663 62.4222 98.4829 62.6175 98.6782L65.7995 101.86C65.9947 102.055 66.3113 102.055 66.5066 101.86C66.7018 101.665 66.7018 101.348 66.5066 101.153L63.6782 98.3246L66.5066 95.4962C66.7018 95.301 66.7018 94.9844 66.5066 94.7891C66.3113 94.5938 65.9947 94.5938 65.7995 94.7891L62.6175 97.9711ZM91.7189 98.6782C91.9142 98.4829 91.9142 98.1664 91.7189 97.9711L88.5369 94.7891C88.3416 94.5938 88.0251 94.5938 87.8298 94.7891C87.6345 94.9844 87.6345 95.301 87.8298 95.4962L90.6582 98.3246L87.8298 101.153C87.6345 101.348 87.6345 101.665 87.8298 101.86C88.0251 102.055 88.3416 102.055 88.5369 101.86L91.7189 98.6782ZM62.9711 98.8246H91.3653V97.8246H62.9711V98.8246Z" fill="#606C71"/>
<path d="M31.0743 40.8238C31.0269 41.0959 31.209 41.3548 31.4811 41.4022L35.9143 42.1743C36.1864 42.2216 36.4453 42.0395 36.4927 41.7674C36.5401 41.4954 36.358 41.2365 36.0859 41.1891L32.1452 40.5028L32.8315 36.5621C32.8789 36.2901 32.6968 36.0311 32.4247 35.9837C32.1527 35.9364 31.8937 36.1185 31.8463 36.3905L31.0743 40.8238ZM52.0438 26.9392C52.0912 26.6672 51.9091 26.4082 51.637 26.3609L47.2037 25.5888C46.9317 25.5414 46.6727 25.7236 46.6254 25.9956C46.578 26.2676 46.7601 26.5266 47.0322 26.574L50.9729 27.2603L50.2866 31.2009C50.2392 31.473 50.4213 31.7319 50.6934 31.7793C50.9654 31.8267 51.2244 31.6446 51.2718 31.3725L52.0438 26.9392ZM31.8545 41.3186L51.8389 27.2624L51.2636 26.4445L31.2792 40.5006L31.8545 41.3186Z" fill="#606C71"/>
<path d="M107.113 26.3538C106.837 26.3703 106.627 26.6071 106.643 26.8827L106.911 31.3747C106.928 31.6504 107.165 31.8605 107.44 31.8441C107.716 31.8276 107.926 31.5909 107.91 31.3152L107.671 27.3223L111.664 27.0841C111.94 27.0677 112.15 26.8309 112.134 26.5552C112.117 26.2796 111.88 26.0694 111.605 26.0859L107.113 26.3538ZM124.195 42.458C124.47 42.4416 124.681 42.2048 124.664 41.9291L124.396 37.4371C124.38 37.1615 124.143 36.9513 123.867 36.9678C123.592 36.9842 123.381 37.221 123.398 37.4967L123.636 41.4896L119.643 41.7278C119.368 41.7442 119.157 41.981 119.174 42.2566C119.19 42.5323 119.427 42.7424 119.703 42.726L124.195 42.458ZM106.811 27.2269L123.833 42.3329L124.497 41.5849L107.474 26.479L106.811 27.2269Z" fill="#606C71"/>
<defs>
<linearGradient id="paint0_linear_43_106" x1="151.018" y1="58.494" x2="107.867" y2="54.6002" gradientUnits="userSpaceOnUse">
<stop stop-color="#53C1FF"/>
<stop offset="1" stop-color="#0053D0"/>
</linearGradient>
<linearGradient id="paint1_linear_43_106" x1="146.241" y1="63.1583" x2="112.27" y2="59.6252" gradientUnits="userSpaceOnUse">
<stop stop-color="#53C1FF"/>
<stop offset="1" stop-color="#0053D0"/>
</linearGradient>
<linearGradient id="paint2_linear_43_106" x1="97.9304" y1="3.83932" x2="54.6982" y2="6.67987" gradientUnits="userSpaceOnUse">
<stop stop-color="#53C1FF"/>
<stop offset="1" stop-color="#0053D0"/>
</linearGradient>
<linearGradient id="paint3_linear_43_106" x1="93.935" y1="9.18742" x2="59.827" y2="10.9616" gradientUnits="userSpaceOnUse">
<stop stop-color="#53C1FF"/>
<stop offset="1" stop-color="#0053D0"/>
</linearGradient>
<linearGradient id="paint4_linear_43_106" x1="30.6048" y1="50.4769" x2="-8.71113" y2="68.68" gradientUnits="userSpaceOnUse">
<stop stop-color="#53C1FF"/>
<stop offset="1" stop-color="#0053D0"/>
</linearGradient>
<linearGradient id="paint5_linear_43_106" x1="28.8012" y1="56.9043" x2="-2.38499" y2="70.83" gradientUnits="userSpaceOnUse">
<stop stop-color="#53C1FF"/>
<stop offset="1" stop-color="#0053D0"/>
</linearGradient>
</defs>
</svg>
