<svg width="223" height="226" viewBox="0 0 223 226" fill="none" xmlns="http://www.w3.org/2000/svg">
<g clip-path="url(#clip0_53_250)">
<path d="M56.0742 103.233C81.7555 103.233 102.574 82.4146 102.574 56.7334C102.574 31.0522 81.7555 10.2334 56.0742 10.2334C30.393 10.2334 9.57422 31.0522 9.57422 56.7334C9.57422 82.4146 30.393 103.233 56.0742 103.233Z" fill="url(#paint0_linear_53_250)" fill-opacity="0.3"/>
<path d="M56.0742 93.2334C76.2326 93.2334 92.5742 76.8918 92.5742 56.7334C92.5742 36.575 76.2326 20.2334 56.0742 20.2334C35.9158 20.2334 19.5742 36.575 19.5742 56.7334C19.5742 76.8918 35.9158 93.2334 56.0742 93.2334Z" fill="url(#paint1_linear_53_250)"/>
<path d="M56.0742 112.233C86.726 112.233 111.574 87.3852 111.574 56.7334C111.574 26.0816 86.726 1.2334 56.0742 1.2334C25.4224 1.2334 0.574219 26.0816 0.574219 56.7334C0.574219 87.3852 25.4224 112.233 56.0742 112.233Z" stroke="#70F0F9" stroke-width="0.962657" stroke-linecap="round" stroke-dasharray="3 3"/>
<path d="M55.33 54.5243C58.8692 54.5243 61.7382 51.6553 61.7382 48.1162C61.7382 44.577 58.8692 41.708 55.33 41.708C51.7909 41.708 48.9219 44.577 48.9219 48.1162C48.9219 51.6553 51.7909 54.5243 55.33 54.5243Z" fill="white"/>
<path fill-rule="evenodd" clip-rule="evenodd" d="M67.9923 67.0884H42.4062C44.1701 61.7099 49.231 57.8257 55.1992 57.8257C61.1674 57.8257 66.2285 61.7099 67.9923 67.0884Z" fill="white"/>
<path d="M166.713 216.121C192.394 216.121 213.213 195.302 213.213 169.621C213.213 143.94 192.394 123.121 166.713 123.121C141.032 123.121 120.213 143.94 120.213 169.621C120.213 195.302 141.032 216.121 166.713 216.121Z" fill="url(#paint2_linear_53_250)" fill-opacity="0.3"/>
<path d="M166.713 206.121C186.871 206.121 203.213 189.779 203.213 169.621C203.213 149.463 186.871 133.121 166.713 133.121C146.554 133.121 130.213 149.463 130.213 169.621C130.213 189.779 146.554 206.121 166.713 206.121Z" fill="url(#paint3_linear_53_250)"/>
<path d="M166.713 225.121C197.365 225.121 222.213 200.273 222.213 169.621C222.213 138.969 197.365 114.121 166.713 114.121C136.061 114.121 111.213 138.969 111.213 169.621C111.213 200.273 136.061 225.121 166.713 225.121Z" stroke="#70F0F9" stroke-width="0.962657" stroke-linecap="round" stroke-dasharray="3 3"/>
<path d="M166.261 167.413C169.784 167.413 172.639 164.558 172.639 161.035C172.639 157.512 169.784 154.657 166.261 154.657C162.738 154.657 159.883 157.512 159.883 161.035C159.883 164.558 162.738 167.413 166.261 167.413Z" fill="white"/>
<path fill-rule="evenodd" clip-rule="evenodd" d="M178.864 179.919H153.396C155.152 174.565 160.19 170.699 166.13 170.699C172.071 170.699 177.108 174.565 178.864 179.919Z" fill="white"/>
<path d="M204.693 158.239C214.634 158.239 222.693 150.18 222.693 140.239C222.693 130.298 214.634 122.239 204.693 122.239C194.752 122.239 186.693 130.298 186.693 140.239C186.693 150.18 194.752 158.239 204.693 158.239Z" fill="#70F0F9"/>
<path d="M209.628 146.041V138.319C209.085 138.319 208.543 138.32 208.001 138.32C204.917 138.32 201.834 138.32 198.75 138.32H198.598V146.041H209.628Z" fill="#3F484B"/>
<path d="M207.94 137.222C207.394 137.222 206.86 137.222 206.307 137.222C206.307 137.181 206.307 137.141 206.307 137.101C206.307 136.574 206.314 136.046 206.306 135.519C206.291 134.57 205.849 133.884 204.995 133.482C203.761 132.902 202.224 133.685 201.958 135.019C201.927 135.174 201.912 135.335 201.911 135.493C201.906 136.028 201.91 136.563 201.91 137.098C201.911 137.136 201.91 137.173 201.91 137.218C201.364 137.218 200.824 137.218 200.285 137.218C200.281 137.209 200.275 137.202 200.275 137.196C200.275 136.532 200.24 135.865 200.284 135.204C200.359 134.097 200.859 133.192 201.721 132.494C202.311 132.017 202.991 131.74 203.744 131.676C205.48 131.528 206.929 132.478 207.586 133.888C207.816 134.383 207.931 134.905 207.941 135.448C207.951 136.017 207.943 136.587 207.944 137.156C207.944 137.174 207.941 137.193 207.94 137.222Z" fill="#3F484B"/>
<path d="M103.18 95.7344L128.079 120.634" stroke="#70F0F9" stroke-width="0.962657" stroke-linecap="round" stroke-dasharray="3 3"/>
<path d="M93.1797 105.734L118.079 130.634" stroke="#70F0F9" stroke-width="0.962657" stroke-linecap="round" stroke-dasharray="3 3"/>
<path d="M92.6953 46.2393C102.636 46.2393 110.695 38.1804 110.695 28.2393C110.695 18.2981 102.636 10.2393 92.6953 10.2393C82.7542 10.2393 74.6953 18.2981 74.6953 28.2393C74.6953 38.1804 82.7542 46.2393 92.6953 46.2393Z" fill="#70F0F9"/>
<path d="M97.6277 34.0408V26.3188C97.0854 26.3193 96.5431 26.3203 96.0008 26.3203C92.9172 26.3204 89.8337 26.3204 86.7501 26.3204H86.5977V34.0408H97.6277Z" fill="#3F484B"/>
<path d="M95.9396 25.2225C95.3939 25.2225 94.8598 25.2225 94.3074 25.2225C94.3074 25.1812 94.3074 25.1413 94.3074 25.1015C94.3074 24.5739 94.3141 24.0463 94.3059 23.5189C94.2912 22.5704 93.8486 21.8844 92.9945 21.4825C91.7611 20.902 90.2243 21.6846 89.9578 23.0194C89.9269 23.1743 89.9124 23.3347 89.9109 23.4928C89.9057 24.0278 89.9099 24.563 89.9105 25.0981C89.9105 25.1355 89.9105 25.1729 89.9105 25.2181C89.3636 25.2181 88.8239 25.2181 88.2852 25.2181C88.2808 25.2087 88.2751 25.2022 88.2751 25.1956C88.2751 24.5315 88.2396 23.865 88.2841 23.2039C88.3586 22.0972 88.8587 21.1924 89.7209 20.4942C90.3109 20.0165 90.9914 19.7401 91.7439 19.6758C93.4796 19.5277 94.9292 20.4778 95.5856 21.8876C95.8163 22.3831 95.9308 22.9051 95.9407 23.4481C95.951 24.0172 95.9435 24.5866 95.9435 25.1559C95.9435 25.1743 95.9414 25.1928 95.9396 25.2225Z" fill="#3F484B"/>
</g>
<defs>
<linearGradient id="paint0_linear_53_250" x1="101.207" y1="10.2334" x2="-10.2103" y2="48.2591" gradientUnits="userSpaceOnUse">
<stop stop-color="#53C1FF"/>
<stop offset="1" stop-color="#0053D0"/>
</linearGradient>
<linearGradient id="paint1_linear_53_250" x1="91.5007" y1="20.2334" x2="4.04445" y2="50.0815" gradientUnits="userSpaceOnUse">
<stop stop-color="#1BC4BF"/>
<stop offset="1" stop-color="#009F9B"/>
</linearGradient>
<linearGradient id="paint2_linear_53_250" x1="211.845" y1="123.121" x2="100.428" y2="161.146" gradientUnits="userSpaceOnUse">
<stop stop-color="#53C1FF"/>
<stop offset="1" stop-color="#0053D0"/>
</linearGradient>
<linearGradient id="paint3_linear_53_250" x1="202.139" y1="133.121" x2="114.683" y2="162.969" gradientUnits="userSpaceOnUse">
<stop stop-color="#9B90FB"/>
<stop offset="1" stop-color="#6654CF"/>
</linearGradient>
<clipPath id="clip0_53_250">
<rect width="223" height="226" fill="white"/>
</clipPath>
</defs>
</svg>
