<svg width="191" height="139" viewBox="0 0 191 139" fill="none" xmlns="http://www.w3.org/2000/svg">
<path d="M21.2637 81.5382L4.33313 86.2818C1.94001 86.9523 0.543555 89.4359 1.21406 91.829L13.1527 134.439C13.8232 136.832 16.3068 138.229 18.6999 137.558L35.6305 132.815C38.0236 132.144 39.4201 129.661 38.7496 127.268L26.8109 84.6572C26.1404 82.2641 23.6569 80.8677 21.2637 81.5382Z" fill="url(#paint0_linear_6_31)" stroke="#606C71"/>
<path d="M21.6546 86.4321L6.54206 90.6664C5.21255 91.0389 4.43674 92.4187 4.80925 93.7482L15.7144 132.67C16.0869 133.999 17.4667 134.775 18.7962 134.403L33.9087 130.168C35.2382 129.796 36.014 128.416 35.6415 127.087L24.7364 88.165C24.3639 86.8354 22.9841 86.0596 21.6546 86.4321Z" fill="url(#paint1_linear_6_31)" stroke="white"/>
<path d="M21.2637 1.21406L4.33313 5.95771C1.94001 6.62822 0.543555 9.11179 1.21406 11.5049L13.1527 54.1152C13.8232 56.5083 16.3068 57.9048 18.6999 57.2343L35.6305 52.4906C38.0236 51.8201 39.4201 49.3366 38.7496 46.9434L26.8109 4.33313C26.1404 1.94001 23.6569 0.543556 21.2637 1.21406Z" fill="url(#paint2_linear_6_31)" stroke="#606C71"/>
<path d="M21.6546 6.10774L6.54206 10.342C5.21255 10.7145 4.43674 12.0943 4.80925 13.4238L15.7144 52.3455C16.0869 53.675 17.4667 54.4508 18.7962 54.0783L33.9087 49.8441C35.2382 49.4716 36.014 48.0918 35.6415 46.7623L24.7364 7.84056C24.3639 6.51105 22.9841 5.73524 21.6546 6.10774Z" fill="url(#paint3_linear_6_31)" stroke="white"/>
<path d="M45.1785 25.1439C44.9835 25.3389 44.9835 25.6559 45.1785 25.8509L48.3605 29.0329C48.5555 29.2279 48.8725 29.2279 49.0675 29.0329C49.2625 28.8379 49.2625 28.5209 49.0675 28.3259L46.2395 25.4979L49.0675 22.6692C49.2625 22.4739 49.2625 22.1573 49.0675 21.9621C48.8725 21.7668 48.5555 21.7668 48.3605 21.9621L45.1785 25.1439ZM122.858 37.0219C123.134 37.0039 123.343 36.7669 123.326 36.4909L123.044 31.9999C123.027 31.7249 122.79 31.5149 122.514 31.5319C122.238 31.5499 122.029 31.7869 122.046 32.0629L122.297 36.0549L118.305 36.3049C118.029 36.3219 117.82 36.5599 117.837 36.8359C117.854 37.1109 118.092 37.3209 118.367 37.3029L122.858 37.0219ZM110.327 25.4979L110.658 25.1229L110.516 24.9979H110.327V25.4979ZM45.5325 25.9979H110.327V24.9979H45.5325V25.9979ZM109.996 25.8729L122.496 36.8979L123.158 36.1479L110.658 25.1229L109.996 25.8729Z" fill="#606C71"/>
<path d="M45.1785 111.717C44.9835 111.522 44.9835 111.206 45.1785 111.01L48.3605 107.828C48.5555 107.633 48.8725 107.633 49.0675 107.828C49.2625 108.024 49.2625 108.34 49.0675 108.535L46.2395 111.364L49.0675 114.192C49.2625 114.388 49.2625 114.704 49.0675 114.899C48.8725 115.095 48.5555 115.095 48.3605 114.899L45.1785 111.717ZM122.858 99.8399C123.134 99.8569 123.343 100.095 123.326 100.37L123.044 104.861C123.027 105.137 122.79 105.346 122.514 105.329C122.238 105.312 122.029 105.075 122.046 104.799L122.297 100.807L118.305 100.556C118.029 100.539 117.82 100.302 117.837 100.026C117.854 99.7509 118.092 99.5409 118.367 99.5579L122.858 99.8399ZM110.327 111.364L110.658 111.739L110.516 111.864H110.327V111.364ZM45.5325 110.864H110.327V111.864H45.5325V110.864ZM109.996 110.989L122.496 99.9639L123.158 100.714L110.658 111.739L109.996 110.989Z" fill="#606C71"/>
<path d="M83.1805 37.8398C90.2017 37.8398 95.8934 32.148 95.8934 25.1269C95.8934 18.1057 90.2017 12.414 83.1805 12.414C76.1594 12.414 70.4677 18.1057 70.4677 25.1269C70.4677 32.148 76.1594 37.8398 83.1805 37.8398Z" fill="url(#paint4_linear_6_31)"/>
<path d="M86.6645 29.2239V23.7709C86.2815 23.7709 85.8985 23.7719 85.5155 23.7719H78.9815H78.8735V29.2239H86.6645Z" fill="#606C71"/>
<path d="M85.4715 22.9966C85.0855 22.9966 84.7085 22.9966 84.3185 22.9966C84.3185 22.9674 84.3185 22.9392 84.3185 22.9111C84.3185 22.5385 84.3235 22.1659 84.3175 21.7934C84.3075 21.1235 83.9945 20.639 83.3915 20.3551C82.5205 19.9452 81.4345 20.4979 81.2465 21.4406C81.2245 21.55 81.2145 21.6633 81.2135 21.7749C81.2095 22.1528 81.2125 22.5308 81.2135 22.9088C81.2135 22.9352 81.2135 22.9616 81.2135 22.9935C80.8265 22.9935 80.4455 22.9935 80.0655 22.9935C80.0625 22.9868 80.0585 22.9822 80.0585 22.9776C80.0585 22.5086 80.0335 22.0378 80.0645 21.5709C80.1175 20.7893 80.4705 20.1503 81.0795 19.6571C81.4955 19.3197 81.9765 19.1245 82.5085 19.0791C83.7335 18.9745 84.7575 19.6455 85.2215 20.6412C85.3845 20.9912 85.4655 21.3599 85.4725 21.7434C85.4795 22.1453 85.4745 22.5475 85.4745 22.9496C85.4745 22.9626 85.4725 22.9756 85.4715 22.9966Z" fill="#606C71"/>
<path d="M82.7626 122.633C89.7837 122.633 95.4755 116.941 95.4755 109.92C95.4755 102.899 89.7837 97.207 82.7626 97.207C75.7414 97.207 70.0497 102.899 70.0497 109.92C70.0497 116.941 75.7414 122.633 82.7626 122.633Z" fill="url(#paint5_linear_6_31)"/>
<path d="M86.2466 114.017V108.563C85.8636 108.563 85.4806 108.564 85.0976 108.564H78.5636H78.4556V114.017H86.2466Z" fill="#606C71"/>
<path d="M85.0535 107.789C84.6685 107.789 84.2905 107.789 83.9005 107.789C83.9005 107.76 83.9005 107.732 83.9005 107.704C83.9005 107.331 83.9055 106.958 83.8995 106.586C83.8895 105.916 83.5765 105.432 82.9735 105.148C82.1025 104.738 81.0165 105.29 80.8285 106.233C80.8065 106.343 80.7965 106.456 80.7955 106.568C80.7915 106.945 80.7945 107.323 80.7955 107.701C80.7955 107.728 80.7955 107.754 80.7955 107.786C80.4085 107.786 80.0275 107.786 79.6475 107.786C79.6445 107.779 79.6405 107.775 79.6405 107.77C79.6405 107.301 79.6155 106.83 79.6465 106.363C79.6995 105.582 80.0525 104.943 80.6615 104.45C81.0775 104.112 81.5585 103.917 82.0905 103.872C83.3155 103.767 84.3395 104.438 84.8035 105.434C84.9665 105.784 85.0475 106.152 85.0545 106.536C85.0615 106.938 85.0565 107.34 85.0565 107.742C85.0565 107.755 85.0545 107.768 85.0535 107.789Z" fill="#606C71"/>
<path d="M126.951 74.6199L126.691 74.1939L126.951 74.6199L156.936 56.3089C157.511 55.9569 158.234 55.9579 158.809 56.3099L188.967 74.7879L189.229 74.3609L188.967 74.7879C189.501 75.1149 189.827 75.6979 189.827 76.3259V88.4709C189.827 89.1069 189.493 89.6949 188.949 90.0199L189.206 90.4499L188.949 90.0199L158.738 108.052C158.159 108.398 157.437 108.39 156.865 108.032L126.934 89.2739C126.408 88.9449 126.089 88.3679 126.089 87.7449V76.1599C126.089 75.5309 126.415 74.9469 126.951 74.6199Z" fill="url(#paint6_linear_6_31)"/>
<path d="M126.951 74.6199L126.691 74.1939L126.951 74.6199ZM126.951 74.6199L156.936 56.3089C157.511 55.9569 158.234 55.9579 158.809 56.3099L188.967 74.7879L189.229 74.3609L188.967 74.7879C189.501 75.1149 189.827 75.6979 189.827 76.3259V88.4709C189.827 89.1069 189.493 89.6949 188.949 90.0199L189.206 90.4499L188.949 90.0199L158.738 108.052C158.159 108.398 157.437 108.39 156.865 108.032L126.934 89.2739C126.408 88.9449 126.089 88.3679 126.089 87.7449V76.1599C126.089 75.5309 126.415 74.9469 126.951 74.6199Z" stroke="#3F484B"/>
<path d="M156.592 56.0079L126.607 74.3189C125.922 74.7369 125.505 75.4829 125.505 76.2859V87.8719C125.505 88.6649 125.913 89.4029 126.584 89.8239L156.517 108.582C157.247 109.039 158.171 109.049 158.911 108.608L189.122 90.5759C189.818 90.1599 190.244 89.4089 190.244 88.5969V76.4519C190.244 75.6499 189.828 74.9059 189.145 74.4869L158.987 56.0099C158.252 55.5589 157.328 55.5589 156.592 56.0079Z" fill="url(#paint7_linear_6_31)" stroke="#3F484B" stroke-miterlimit="10"/>
<path d="M189.655 75.0769L157.79 94.5399L125.756 75.1609" fill="url(#paint8_linear_6_31)"/>
<path d="M189.655 75.0769L157.79 94.5399L125.756 75.1609" stroke="#3F484B" stroke-miterlimit="10"/>
<path d="M157.748 108.864V94.6029" stroke="#3F484B" stroke-miterlimit="10"/>
<path d="M158.809 35.0809L159.07 34.6549L158.809 35.0809ZM158.809 35.0809C158.234 34.7289 157.511 34.7289 156.936 35.0799L126.951 53.3919L126.691 52.9659L126.951 53.3919C126.415 53.7189 126.089 54.3019 126.089 54.9309V66.5169C126.089 67.1389 126.408 67.7169 126.934 68.0459L156.865 86.8039C157.437 87.1609 158.159 87.1689 158.738 86.8239L188.949 68.7919L189.206 69.2209L188.949 68.7919C189.493 68.4669 189.827 67.8779 189.827 67.2419V55.0979C189.827 54.4689 189.501 53.8869 188.967 53.5589L189.229 53.1329L188.967 53.5589L158.809 35.0809Z" fill="url(#paint9_linear_6_31)" stroke="#3F484B"/>
<path d="M156.592 34.7599L126.607 53.0709C125.922 53.4889 125.505 54.2349 125.505 55.0379V66.6229C125.505 67.4169 125.913 68.1549 126.584 68.5759L156.517 87.3339C157.247 87.7909 158.171 87.8009 158.911 87.3599L189.122 69.3279C189.818 68.9119 190.244 68.1609 190.244 67.3489V55.2039C190.244 54.4019 189.828 53.6579 189.145 53.2389L158.987 34.7619C158.252 34.3109 157.328 34.3109 156.592 34.7599Z" fill="url(#paint10_linear_6_31)" stroke="#3F484B" stroke-miterlimit="10"/>
<path d="M189.655 53.8279L157.79 73.2909L125.756 53.9119" fill="url(#paint11_linear_6_31)"/>
<path d="M189.655 53.8279L157.79 73.2909L125.756 53.9119" stroke="#3F484B" stroke-miterlimit="10"/>
<path d="M157.748 87.6159V73.3549" stroke="#3F484B" stroke-miterlimit="10"/>
<defs>
<linearGradient id="paint0_linear_6_31" x1="25.4823" y1="79.9969" x2="-7.32857" y2="95.6432" gradientUnits="userSpaceOnUse">
<stop stop-color="#53C1FF"/>
<stop offset="1" stop-color="#0053D0"/>
</linearGradient>
<linearGradient id="paint1_linear_6_31" x1="24.0304" y1="85.4061" x2="-2.00055" y2="97.3873" gradientUnits="userSpaceOnUse">
<stop stop-color="#53C1FF"/>
<stop offset="1" stop-color="#0053D0"/>
</linearGradient>
<linearGradient id="paint2_linear_6_31" x1="25.4822" y1="-0.327812" x2="-7.32852" y2="15.3193" gradientUnits="userSpaceOnUse">
<stop stop-color="#53C1FF"/>
<stop offset="1" stop-color="#0053D0"/>
</linearGradient>
<linearGradient id="paint3_linear_6_31" x1="24.0305" y1="5.08221" x2="-2.00052" y2="17.063" gradientUnits="userSpaceOnUse">
<stop stop-color="#53C1FF"/>
<stop offset="1" stop-color="#0053D0"/>
</linearGradient>
<linearGradient id="paint4_linear_6_31" x1="95.5195" y1="12.4141" x2="65.0586" y2="22.8102" gradientUnits="userSpaceOnUse">
<stop stop-color="#FDFF97"/>
<stop offset="1" stop-color="#F1DA09"/>
</linearGradient>
<linearGradient id="paint5_linear_6_31" x1="95.1016" y1="97.2069" x2="64.6406" y2="107.603" gradientUnits="userSpaceOnUse">
<stop stop-color="#FDFF97"/>
<stop offset="1" stop-color="#F1DA09"/>
</linearGradient>
<linearGradient id="paint6_linear_6_31" x1="189.375" y1="55.5459" x2="115.497" y2="86.1939" gradientUnits="userSpaceOnUse">
<stop stop-color="#FDFF97"/>
<stop offset="1" stop-color="#F1DA09"/>
</linearGradient>
<linearGradient id="paint7_linear_6_31" x1="189.292" y1="55.6719" x2="115.413" y2="86.3199" gradientUnits="userSpaceOnUse">
<stop stop-color="#FDFF97"/>
<stop offset="1" stop-color="#F1DA09"/>
</linearGradient>
<linearGradient id="paint8_linear_6_31" x1="188.715" y1="75.0769" x2="150.821" y2="117.536" gradientUnits="userSpaceOnUse">
<stop stop-color="#FDFF97"/>
<stop offset="1" stop-color="#F1DA09"/>
</linearGradient>
<linearGradient id="paint9_linear_6_31" x1="189.375" y1="34.3169" x2="115.497" y2="64.9659" gradientUnits="userSpaceOnUse">
<stop stop-color="#FDFF97"/>
<stop offset="1" stop-color="#F1DA09"/>
</linearGradient>
<linearGradient id="paint10_linear_6_31" x1="189.292" y1="34.4229" x2="115.413" y2="65.0719" gradientUnits="userSpaceOnUse">
<stop stop-color="#FDFF97"/>
<stop offset="1" stop-color="#F1DA09"/>
</linearGradient>
<linearGradient id="paint11_linear_6_31" x1="188.715" y1="53.8279" x2="150.821" y2="96.2869" gradientUnits="userSpaceOnUse">
<stop stop-color="#FDFF97"/>
<stop offset="1" stop-color="#F1DA09"/>
</linearGradient>
</defs>
</svg>
