<svg width="148" height="229" viewBox="0 0 148 229" fill="none" xmlns="http://www.w3.org/2000/svg">
<path d="M136.747 93.9355H17.2285C11.4295 93.9355 6.72852 98.6366 6.72852 104.436V123.354C6.72852 129.153 11.4295 133.854 17.2285 133.854H136.747C142.546 133.854 147.247 129.153 147.247 123.354V104.436C147.247 98.6366 142.546 93.9355 136.747 93.9355Z" fill="url(#paint0_linear_303_82)" stroke="#606C71"/>
<path d="M71.7967 116.121C71.7967 115.794 71.7207 115.518 71.5687 115.294C71.4227 115.069 71.2327 114.881 70.9977 114.73C70.7637 114.574 70.5047 114.444 70.2217 114.342C69.9427 114.239 69.6747 114.146 69.4157 114.063C69.0397 113.941 68.6567 113.795 68.2657 113.624C67.8797 113.453 67.5257 113.243 67.2037 112.994C66.8867 112.745 66.6257 112.452 66.4207 112.115C66.2197 111.773 66.1197 111.373 66.1197 110.914C66.1197 110.455 66.2197 110.045 66.4207 109.683C66.6257 109.322 66.8917 109.017 67.2187 108.768C67.5457 108.519 67.9167 108.331 68.3317 108.204C68.7467 108.072 69.1647 108.006 69.5847 108.006C70.0477 108.006 70.4947 108.084 70.9247 108.241C71.3547 108.392 71.7347 108.607 72.0677 108.885C72.3997 109.163 72.6657 109.5 72.8657 109.896C73.0657 110.291 73.1707 110.733 73.1807 111.221H71.7887C71.7497 110.914 71.6737 110.636 71.5617 110.387C71.4497 110.133 71.3007 109.915 71.1147 109.735C70.9297 109.554 70.7077 109.415 70.4487 109.317C70.1947 109.215 69.9067 109.163 69.5847 109.163C69.3257 109.163 69.0717 109.2 68.8227 109.273C68.5787 109.346 68.3587 109.456 68.1637 109.603C67.9727 109.749 67.8187 109.93 67.7017 110.145C67.5897 110.36 67.5337 110.609 67.5337 110.892C67.5387 111.2 67.6167 111.461 67.7677 111.676C67.9197 111.886 68.1097 112.064 68.3387 112.21C68.5737 112.357 68.8247 112.479 69.0937 112.576C69.3667 112.674 69.6237 112.76 69.8627 112.833C70.1267 112.916 70.3927 113.011 70.6607 113.118C70.9297 113.221 71.1887 113.341 71.4377 113.477C71.6867 113.614 71.9187 113.768 72.1327 113.939C72.3477 114.11 72.5357 114.305 72.6967 114.525C72.8587 114.74 72.9827 114.979 73.0707 115.242C73.1637 115.501 73.2097 115.789 73.2097 116.107C73.2097 116.585 73.1027 117.003 72.8877 117.359C72.6777 117.716 72.4037 118.013 72.0677 118.253C71.7307 118.487 71.3497 118.665 70.9247 118.787C70.4997 118.905 70.0747 118.963 69.6507 118.963C69.1767 118.963 68.7127 118.89 68.2587 118.743C67.8047 118.597 67.3967 118.387 67.0357 118.114C66.6787 117.835 66.3887 117.498 66.1637 117.103C65.9397 116.702 65.8197 116.248 65.8047 115.741H67.1897C67.2337 116.073 67.3237 116.368 67.4607 116.627C67.5967 116.881 67.7727 117.098 67.9877 117.279C68.2027 117.454 68.4487 117.589 68.7277 117.681C69.0107 117.769 69.3177 117.813 69.6507 117.813C69.9137 117.813 70.1727 117.782 70.4267 117.718C70.6857 117.65 70.9147 117.547 71.1147 117.41C71.3157 117.269 71.4787 117.093 71.6057 116.883C71.7327 116.668 71.7967 116.414 71.7967 116.121ZM76.5607 108.153L78.2967 113.485L80.1717 108.153H81.8557V118.817H80.5377V114.561L80.6477 110.108L78.6777 115.85H77.9007L76.0917 110.262L76.2017 114.561V118.817H74.8837V108.153H76.5607ZM85.4127 114.539V118.817H84.0577V108.153H87.5147C87.9927 108.162 88.4447 108.238 88.8697 108.38C89.2987 108.521 89.6747 108.726 89.9967 108.995C90.3197 109.263 90.5737 109.595 90.7587 109.991C90.9497 110.387 91.0447 110.841 91.0447 111.353C91.0447 111.866 90.9497 112.32 90.7587 112.716C90.5737 113.106 90.3197 113.436 89.9967 113.704C89.6747 113.973 89.2987 114.178 88.8697 114.32C88.4447 114.461 87.9927 114.534 87.5147 114.539H85.4127ZM85.4127 113.426H87.5147C87.8267 113.421 88.1147 113.372 88.3787 113.28C88.6427 113.182 88.8717 113.045 89.0667 112.869C89.2627 112.694 89.4137 112.481 89.5207 112.232C89.6337 111.978 89.6897 111.69 89.6897 111.368C89.6897 111.046 89.6337 110.755 89.5207 110.496C89.4137 110.238 89.2627 110.018 89.0667 109.837C88.8767 109.657 88.6467 109.517 88.3787 109.42C88.1147 109.322 87.8267 109.271 87.5147 109.266H85.4127V113.426Z" fill="white"/>
<path d="M26.1945 53.0784C40.6613 53.0784 52.389 41.1964 52.389 26.5392C52.389 11.882 40.6613 0 26.1945 0C11.7277 0 0 11.882 0 26.5392C0 41.1964 11.7277 53.0784 26.1945 53.0784Z" fill="url(#paint1_linear_303_82)"/>
<path d="M25.6616 24.933C28.2015 24.933 30.2605 22.8469 30.2605 20.2736C30.2605 17.7003 28.2015 15.6143 25.6616 15.6143C23.1217 15.6143 21.0627 17.7003 21.0627 20.2736C21.0627 22.8469 23.1217 24.933 25.6616 24.933Z" fill="white"/>
<path fill-rule="evenodd" clip-rule="evenodd" d="M16.3855 34.0689H34.7475C33.4815 30.1582 29.8495 27.334 25.5665 27.334C21.2833 27.334 17.6513 30.1582 16.3855 34.0689Z" fill="white"/>
<path d="M117.017 228.854C131.483 228.854 143.211 216.972 143.211 202.315C143.211 187.657 131.483 175.775 117.017 175.775C102.55 175.775 90.822 187.657 90.822 202.315C90.822 216.972 102.55 228.854 117.017 228.854Z" fill="url(#paint2_linear_303_82)"/>
<path d="M116.484 200.709C119.024 200.709 121.082 198.623 121.082 196.05C121.082 193.477 119.024 191.391 116.484 191.391C113.944 191.391 111.885 193.477 111.885 196.05C111.885 198.623 113.944 200.709 116.484 200.709Z" fill="white"/>
<path fill-rule="evenodd" clip-rule="evenodd" d="M107.208 209.844H125.57C124.305 205.933 120.673 203.109 116.389 203.109C112.106 203.109 108.473 205.933 107.208 209.844Z" fill="white"/>
<path d="M25.3926 93.3327C25.5876 93.5287 25.9046 93.5287 26.0996 93.3327L29.2816 90.1507C29.4766 89.9557 29.4766 89.6397 29.2816 89.4437C29.0866 89.2487 28.7696 89.2487 28.5746 89.4437L25.7466 92.2727L22.9176 89.4437C22.7226 89.2487 22.4056 89.2487 22.2107 89.4437C22.0154 89.6397 22.0154 89.9557 22.2107 90.1507L25.3926 93.3327ZM25.2466 52.4795V92.9797H26.2466V52.4795H25.2466Z" fill="#606C71"/>
<path d="M116.393 175.207C116.588 175.403 116.905 175.403 117.1 175.207L120.282 172.025C120.477 171.83 120.477 171.514 120.282 171.318C120.087 171.123 119.77 171.123 119.575 171.318L116.747 174.147L113.918 171.318C113.723 171.123 113.406 171.123 113.211 171.318C113.016 171.514 113.016 171.83 113.211 172.025L116.393 175.207ZM116.247 134.354V174.854H117.247V134.354H116.247Z" fill="#606C71"/>
<defs>
<linearGradient id="paint0_linear_303_82" x1="144.695" y1="94.4356" x2="69.9565" y2="185.877" gradientUnits="userSpaceOnUse">
<stop stop-color="#1BC4BF"/>
<stop offset="1" stop-color="#009F9B"/>
</linearGradient>
<linearGradient id="paint1_linear_303_82" x1="51.6185" y1="-1.67221e-06" x2="-11.3147" y2="21.1995" gradientUnits="userSpaceOnUse">
<stop stop-color="#9B90FB"/>
<stop offset="1" stop-color="#6654CF"/>
</linearGradient>
<linearGradient id="paint2_linear_303_82" x1="142.441" y1="175.776" x2="79.5075" y2="196.976" gradientUnits="userSpaceOnUse">
<stop stop-color="#9B90FB"/>
<stop offset="1" stop-color="#6654CF"/>
</linearGradient>
</defs>
</svg>
