<svg width="227" height="227" viewBox="0 0 227 227" fill="none" xmlns="http://www.w3.org/2000/svg">
<circle cx="113.813" cy="113.713" r="112.5" stroke="#0599FF" stroke-linecap="round" stroke-dasharray="3 3"/>
<circle cx="113.812" cy="113.713" r="96.5" stroke="#0197FF" stroke-linecap="round" stroke-dasharray="8 8"/>
<circle opacity="0.3" cx="113.812" cy="113.713" r="79" fill="url(#paint0_linear_709_4303)"/>
<circle cx="113.812" cy="113.713" r="61" fill="url(#paint1_linear_709_4303)"/>
<path d="M80.656 110.568C80.656 92.1162 95.6145 77.1577 114.067 77.1577C132.519 77.1577 147.477 92.1162 147.477 110.568C147.477 129.021 132.519 143.979 114.067 143.979H80.656V110.568Z" fill="url(#paint2_linear_709_4303)" stroke="#606C71"/>
<circle cx="192.812" cy="27.2778" r="14.1943" fill="url(#paint3_linear_709_4303)"/>
<path d="M189.68 34.241C189.644 34.2025 189.61 34.1627 189.573 34.1258C187.651 32.2129 185.729 30.3003 183.806 28.3882C183.772 28.3545 183.731 28.3284 183.707 28.3096C184.309 27.7128 184.896 27.1311 185.492 26.541C186.874 27.914 188.283 29.3131 189.7 30.721C193.19 27.2488 196.676 23.7799 200.159 20.3145C200.745 20.9005 201.325 21.4799 201.918 22.0723C201.891 22.1011 201.853 22.1418 201.814 22.1807C197.814 26.1622 193.813 30.1436 189.813 34.1253C189.776 34.1619 189.743 34.2023 189.709 34.241C189.699 34.241 189.689 34.241 189.68 34.241Z" fill="white"/>
<path d="M111.481 114.204C111.481 113.383 111.724 112.599 112.209 111.852C112.713 111.106 113.255 110.508 113.833 110.06C114.412 109.594 114.944 109.052 115.429 108.436C115.933 107.82 116.185 107.204 116.185 106.588C116.185 105.935 115.961 105.431 115.513 105.076C115.065 104.722 114.44 104.544 113.637 104.544C112.069 104.544 110.959 105.375 110.305 107.036L107.001 105.132C107.561 103.751 108.448 102.687 109.661 101.94C110.893 101.175 112.265 100.792 113.777 100.792C115.476 100.792 116.941 101.287 118.173 102.276C119.424 103.247 120.049 104.591 120.049 106.308C120.049 107.092 119.881 107.82 119.545 108.492C119.228 109.164 118.836 109.743 118.369 110.228C117.921 110.695 117.464 111.143 116.997 111.572C116.549 111.983 116.157 112.412 115.821 112.86C115.504 113.308 115.345 113.756 115.345 114.204H111.481ZM115.093 120.448C114.627 120.915 114.067 121.148 113.413 121.148C112.76 121.148 112.2 120.915 111.733 120.448C111.267 119.982 111.033 119.422 111.033 118.768C111.033 118.115 111.267 117.555 111.733 117.088C112.2 116.622 112.76 116.388 113.413 116.388C114.067 116.388 114.627 116.622 115.093 117.088C115.56 117.555 115.793 118.115 115.793 118.768C115.793 119.422 115.56 119.982 115.093 120.448Z" fill="#3F484B"/>
<defs>
<linearGradient id="paint0_linear_709_4303" x1="190.489" y1="34.7129" x2="1.19957" y2="99.3157" gradientUnits="userSpaceOnUse">
<stop stop-color="#D9FAFF"/>
<stop offset="1" stop-color="#86E2FF"/>
</linearGradient>
<linearGradient id="paint1_linear_709_4303" x1="173.018" y1="52.7129" x2="26.8581" y2="102.596" gradientUnits="userSpaceOnUse">
<stop stop-color="#D9FAFF"/>
<stop offset="1" stop-color="#86E2FF"/>
</linearGradient>
<linearGradient id="paint2_linear_709_4303" x1="146.98" y1="76.6577" x2="65.7279" y2="104.388" gradientUnits="userSpaceOnUse">
<stop stop-color="#FDFF97"/>
<stop offset="1" stop-color="#F1DA09"/>
</linearGradient>
<linearGradient id="paint3_linear_709_4303" x1="206.589" y1="13.0835" x2="172.579" y2="24.691" gradientUnits="userSpaceOnUse">
<stop stop-color="#53C1FF"/>
<stop offset="1" stop-color="#0053D0"/>
</linearGradient>
</defs>
</svg>
