<svg width="227" height="227" viewBox="0 0 227 227" fill="none" xmlns="http://www.w3.org/2000/svg">
<path d="M113.5 226C175.632 226 226 175.632 226 113.5C226 51.368 175.632 1 113.5 1C51.368 1 1 51.368 1 113.5C1 175.632 51.368 226 113.5 226Z" stroke="#0599FF" stroke-linecap="round" stroke-dasharray="3 3"/>
<path d="M113.5 210C166.795 210 210 166.795 210 113.5C210 60.2045 166.795 17 113.5 17C60.2045 17 17 60.2045 17 113.5C17 166.795 60.2045 210 113.5 210Z" stroke="#0197FF" stroke-linecap="round" stroke-dasharray="8 8"/>
<path d="M113.5 192C156.854 192 192 156.854 192 113.5C192 70.1456 156.854 35 113.5 35C70.1456 35 35 70.1456 35 113.5C35 156.854 70.1456 192 113.5 192Z" stroke="#70F0F9" stroke-dasharray="4 4"/>
<path d="M113.5 174C146.913 174 174 146.913 174 113.5C174 80.0868 146.913 53 113.5 53C80.0868 53 53 80.0868 53 113.5C53 146.913 80.0868 174 113.5 174Z" stroke="#70F0F9"/>
<mask id="mask0_53_364" style="mask-type:alpha" maskUnits="userSpaceOnUse" x="76" y="83" width="76" height="59">
<path fill-rule="evenodd" clip-rule="evenodd" d="M139.346 83.5251C145.973 83.5251 151.346 88.8982 151.346 95.5252V122.671C151.346 129.298 145.973 134.671 139.346 134.671H95.8441L84.6351 141.143V134.144C79.7301 132.637 76.1641 128.07 76.1641 122.671V95.5252C76.1641 88.8982 81.5371 83.5251 88.1641 83.5251H139.346Z" fill="white"/>
</mask>
<g mask="url(#mask0_53_364)">
<path d="M95.8441 134.671L95.3441 133.805L95.5761 133.671H95.8441V134.671ZM84.6351 141.143L85.1351 142.009L83.6351 142.875V141.143H84.6351ZM84.6351 134.144L84.9291 133.188L85.6351 133.405V134.144H84.6351ZM150.346 95.5252C150.346 89.4502 145.421 84.5251 139.346 84.5251V82.5251C146.526 82.5251 152.346 88.3452 152.346 95.5252H150.346ZM150.346 122.671V95.5252H152.346V122.671H150.346ZM139.346 133.671C145.421 133.671 150.346 128.746 150.346 122.671H152.346C152.346 129.851 146.526 135.671 139.346 135.671V133.671ZM95.8441 133.671H139.346V135.671H95.8441V133.671ZM84.1351 140.276L95.3441 133.805L96.3441 135.537L85.1351 142.009L84.1351 140.276ZM85.6351 134.144V141.143H83.6351V134.144H85.6351ZM77.1641 122.671C77.1641 127.619 80.4321 131.806 84.9291 133.188L84.3421 135.1C79.0281 133.467 75.1641 128.522 75.1641 122.671H77.1641ZM77.1641 95.5252V122.671H75.1641V95.5252H77.1641ZM88.1641 84.5251C82.0891 84.5251 77.1641 89.4502 77.1641 95.5252H75.1641C75.1641 88.3452 80.9841 82.5251 88.1641 82.5251V84.5251ZM139.346 84.5251H88.1641V82.5251H139.346V84.5251Z" fill="#70F0F9"/>
<path d="M111.169 112.991C111.169 112.17 111.412 111.386 111.897 110.639C112.401 109.892 112.942 109.295 113.521 108.847C114.1 108.38 114.632 107.839 115.117 107.223C115.621 106.607 115.873 105.991 115.873 105.375C115.873 104.722 115.649 104.218 115.201 103.863C114.753 103.508 114.128 103.331 113.325 103.331C111.757 103.331 110.646 104.162 109.993 105.823L106.689 103.919C107.249 102.538 108.136 101.474 109.349 100.727C110.581 99.9621 111.953 99.5791 113.465 99.5791C115.164 99.5791 116.629 100.074 117.861 101.063C119.112 102.034 119.737 103.378 119.737 105.095C119.737 105.879 119.569 106.607 119.233 107.279C118.916 107.951 118.524 108.53 118.057 109.015C117.609 109.482 117.152 109.93 116.685 110.359C116.237 110.77 115.845 111.199 115.509 111.647C115.192 112.095 115.033 112.543 115.033 112.991H111.169ZM114.781 119.235C114.314 119.702 113.754 119.935 113.101 119.935C112.448 119.935 111.888 119.702 111.421 119.235C110.954 118.768 110.721 118.208 110.721 117.555C110.721 116.902 110.954 116.342 111.421 115.875C111.888 115.408 112.448 115.175 113.101 115.175C113.754 115.175 114.314 115.408 114.781 115.875C115.248 116.342 115.481 116.902 115.481 117.555C115.481 118.208 115.248 118.768 114.781 119.235Z" fill="#70F0F9"/>
</g>
<g clip-path="url(#clip0_53_364)">
<path d="M195.501 45.259C203.34 45.259 209.695 38.904 209.695 31.0647C209.695 23.2254 203.34 16.8704 195.501 16.8704C187.662 16.8704 181.307 23.2254 181.307 31.0647C181.307 38.904 187.662 45.259 195.501 45.259Z" fill="url(#paint0_linear_53_364)"/>
<path d="M192.368 38.0278C192.332 37.9893 192.298 37.9496 192.261 37.9126C190.339 35.9998 188.417 34.0871 186.494 32.175C186.46 32.1414 186.419 32.1152 186.395 32.0964C186.997 31.4997 187.584 30.918 188.18 30.3279C189.562 31.7009 190.971 33.0999 192.388 34.5078C195.878 31.0356 199.364 27.5667 202.847 24.1013C203.434 24.6874 204.014 25.2668 204.606 25.8592C204.579 25.8879 204.541 25.9286 204.502 25.9676C200.502 29.9491 196.502 33.9305 192.501 37.9121C192.465 37.9488 192.432 37.9891 192.397 38.0278C192.387 38.0278 192.378 38.0278 192.368 38.0278Z" fill="white"/>
</g>
<defs>
<linearGradient id="paint0_linear_53_364" x1="209.278" y1="16.8703" x2="175.268" y2="28.4778" gradientUnits="userSpaceOnUse">
<stop stop-color="#53C1FF"/>
<stop offset="1" stop-color="#0053D0"/>
</linearGradient>
<clipPath id="clip0_53_364">
<rect width="29" height="29" fill="white" transform="translate(181.215 16.759)"/>
</clipPath>
</defs>
</svg>
