<svg width="191" height="139" viewBox="0 0 191 139" fill="none" xmlns="http://www.w3.org/2000/svg">
<path d="M21.2637 81.5384L4.33313 86.282C1.94001 86.9525 0.543555 89.4361 1.21406 91.8292L13.1527 134.44C13.8232 136.833 16.3068 138.229 18.6999 137.559L35.6305 132.815C38.0236 132.144 39.4201 129.661 38.7496 127.268L26.8109 84.6575C26.1404 82.2643 23.6569 80.8679 21.2637 81.5384Z" stroke="#70F0F9"/>
<path d="M21.6543 86.4321L6.54182 90.6663C5.2123 91.0388 4.4365 92.4186 4.809 93.7481L15.7142 132.67C16.0867 133.999 17.4664 134.775 18.7959 134.403L33.9085 130.168C35.238 129.796 36.0138 128.416 35.6413 127.087L24.7361 88.1649C24.3636 86.8354 22.9839 86.0596 21.6543 86.4321Z" stroke="#70F0F9"/>
<path d="M21.2637 1.21416L4.33313 5.95781C1.94001 6.62832 0.543555 9.11188 1.21406 11.505L13.1527 54.1153C13.8232 56.5084 16.3068 57.9049 18.6999 57.2344L35.6305 52.4907C38.0236 51.8202 39.4201 49.3367 38.7496 46.9435L26.8109 4.33323C26.1404 1.94011 23.6569 0.543653 21.2637 1.21416Z" stroke="#70F0F9"/>
<path d="M21.6543 6.10787L6.54182 10.3421C5.2123 10.7146 4.4365 12.0944 4.809 13.4239L15.7142 52.3456C16.0867 53.6752 17.4664 54.451 18.7959 54.0785L33.9085 49.8442C35.238 49.4717 36.0138 48.0919 35.6413 46.7624L24.7361 7.84069C24.3636 6.51117 22.9839 5.73536 21.6543 6.10787Z" stroke="#70F0F9"/>
<path d="M45.1782 25.1439C44.9832 25.3389 44.9832 25.6559 45.1782 25.8509L48.3602 29.0329C48.5552 29.2279 48.8722 29.2279 49.0672 29.0329C49.2622 28.8379 49.2622 28.5209 49.0672 28.3259L46.2392 25.4979L49.0672 22.669C49.2622 22.4737 49.2622 22.1572 49.0672 21.9619C48.8722 21.7666 48.5552 21.7666 48.3602 21.9619L45.1782 25.1439ZM122.858 37.0209C123.134 37.0039 123.343 36.7669 123.326 36.4909L123.044 31.9999C123.027 31.7239 122.79 31.5149 122.514 31.5319C122.239 31.5499 122.029 31.7869 122.046 32.0629L122.297 36.0549L118.305 36.3049C118.029 36.3219 117.82 36.5599 117.837 36.8349C117.854 37.1109 118.092 37.3199 118.367 37.3029L122.858 37.0209ZM110.327 25.4979L110.658 25.1229L110.516 24.9979H110.327V25.4979ZM45.5322 25.9979H110.327V24.9979H45.5322V25.9979ZM109.996 25.8729L122.496 36.8969L123.158 36.1469L110.658 25.1229L109.996 25.8729Z" fill="#70F0F9"/>
<path d="M45.1782 111.717C44.9832 111.522 44.9832 111.205 45.1782 111.01L48.3602 107.828C48.5552 107.633 48.8722 107.633 49.0672 107.828C49.2622 108.023 49.2622 108.34 49.0672 108.535L46.2392 111.364L49.0672 114.192C49.2622 114.387 49.2622 114.704 49.0672 114.899C48.8722 115.095 48.5552 115.095 48.3602 114.899L45.1782 111.717ZM122.858 99.8401C123.134 99.8571 123.343 100.095 123.326 100.37L123.044 104.861C123.027 105.137 122.79 105.346 122.514 105.329C122.239 105.312 122.029 105.074 122.046 104.799L122.297 100.807L118.305 100.556C118.029 100.539 117.82 100.302 117.837 100.026C117.854 99.7501 118.092 99.5411 118.367 99.5581L122.858 99.8401ZM110.327 111.364L110.658 111.739L110.516 111.864H110.327V111.364ZM45.5322 110.864H110.327V111.864H45.5322V110.864ZM109.996 110.989L122.496 99.9641L123.158 100.714L110.658 111.739L109.996 110.989Z" fill="#70F0F9"/>
<path d="M83.1804 37.8399C90.2016 37.8399 95.8933 32.1481 95.8933 25.127C95.8933 18.1058 90.2016 12.4141 83.1804 12.4141C76.1593 12.4141 70.4675 18.1058 70.4675 25.127C70.4675 32.1481 76.1593 37.8399 83.1804 37.8399Z" fill="#70F0F9"/>
<path d="M86.6643 29.224V23.77C86.2813 23.771 85.8983 23.771 85.5153 23.772H78.9813H78.8733V29.224H86.6643Z" fill="#3F484B"/>
<path d="M85.4723 22.9965C85.0873 22.9965 84.7093 22.9965 84.3193 22.9965C84.3193 22.9673 84.3193 22.9392 84.3193 22.911C84.3193 22.5385 84.3243 22.1658 84.3183 21.7933C84.3083 21.1234 83.9953 20.6389 83.3923 20.3551C82.5213 19.9451 81.4353 20.4978 81.2473 21.4405C81.2253 21.5499 81.2153 21.6632 81.2143 21.7749C81.2103 22.1528 81.2133 22.5307 81.2143 22.9087C81.2143 22.9351 81.2143 22.9615 81.2143 22.9934C80.8273 22.9934 80.4463 22.9934 80.0663 22.9934C80.0633 22.9868 80.0593 22.9821 80.0593 22.9775C80.0593 22.5085 80.0343 22.0378 80.0653 21.5708C80.1183 20.7892 80.4713 20.1502 81.0803 19.6571C81.4963 19.3197 81.9773 19.1244 82.5093 19.0791C83.7343 18.9744 84.7583 19.6455 85.2223 20.6412C85.3853 20.9911 85.4663 21.3598 85.4733 21.7433C85.4803 22.1453 85.4753 22.5474 85.4753 22.9495C85.4753 22.9625 85.4733 22.9755 85.4723 22.9965Z" fill="#3F484B"/>
<path d="M82.7625 122.632C89.7836 122.632 95.4754 116.94 95.4754 109.919C95.4754 102.898 89.7836 97.2061 82.7625 97.2061C75.7413 97.2061 70.0496 102.898 70.0496 109.919C70.0496 116.94 75.7413 122.632 82.7625 122.632Z" fill="#70F0F9"/>
<path d="M86.2463 114.017V108.563C85.8633 108.563 85.4803 108.564 85.0973 108.564H78.5633H78.4553V114.017H86.2463Z" fill="#3F484B"/>
<path d="M85.0544 107.789C84.6694 107.789 84.2914 107.789 83.9014 107.789C83.9014 107.76 83.9014 107.732 83.9014 107.704C83.9014 107.331 83.9064 106.958 83.9004 106.586C83.8904 105.916 83.5774 105.431 82.9744 105.148C82.1034 104.738 81.0174 105.29 80.8294 106.233C80.8074 106.342 80.7974 106.456 80.7964 106.567C80.7924 106.945 80.7954 107.323 80.7964 107.701C80.7964 107.728 80.7964 107.754 80.7964 107.786C80.4094 107.786 80.0284 107.786 79.6484 107.786C79.6454 107.779 79.6414 107.775 79.6414 107.77C79.6414 107.301 79.6164 106.83 79.6474 106.363C79.7004 105.582 80.0534 104.943 80.6624 104.45C81.0794 104.112 81.5594 103.917 82.0914 103.872C83.3174 103.767 84.3404 104.438 84.8044 105.434C84.9674 105.784 85.0484 106.152 85.0554 106.536C85.0624 106.938 85.0574 107.34 85.0574 107.742C85.0574 107.755 85.0554 107.768 85.0544 107.789Z" fill="#3F484B"/>
<path d="M126.949 74.62L126.689 74.194L126.949 74.62L156.935 56.308C157.51 55.957 158.233 55.958 158.807 56.31L188.965 74.788L189.226 74.361L188.965 74.788C189.499 75.115 189.826 75.698 189.826 76.326V88.471C189.826 89.107 189.492 89.695 188.947 90.02L189.204 90.449L188.947 90.02L158.737 108.052C158.158 108.398 157.435 108.39 156.864 108.032L126.932 89.274C126.406 88.945 126.086 88.367 126.086 87.745V76.16C126.086 75.53 126.414 74.947 126.949 74.62Z" fill="url(#paint0_linear_53_295)"/>
<path d="M126.949 74.62L126.689 74.194L126.949 74.62ZM126.949 74.62L156.935 56.308C157.51 55.957 158.233 55.958 158.807 56.31L188.965 74.788L189.226 74.361L188.965 74.788C189.499 75.115 189.826 75.698 189.826 76.326V88.471C189.826 89.107 189.492 89.695 188.947 90.02L189.204 90.449L188.947 90.02L158.737 108.052C158.158 108.398 157.435 108.39 156.864 108.032L126.932 89.274C126.406 88.945 126.086 88.367 126.086 87.745V76.16C126.086 75.53 126.414 74.947 126.949 74.62Z" stroke="#3F484B"/>
<path d="M156.59 56.0079L126.605 74.3189C125.92 74.7369 125.502 75.4829 125.502 76.2859V87.8709C125.502 88.6649 125.91 89.4029 126.582 89.8239L156.515 108.582C157.245 109.039 158.169 109.049 158.909 108.608L189.12 90.5749C189.815 90.1599 190.242 89.4079 190.242 88.5969V76.4519C190.242 75.6499 189.825 74.9059 189.142 74.4869L158.985 56.0099C158.25 55.5589 157.326 55.5589 156.59 56.0079Z" fill="url(#paint1_linear_53_295)" stroke="#3F484B" stroke-miterlimit="10"/>
<path d="M189.653 75.0771L157.788 94.5401L125.754 75.1611" fill="url(#paint2_linear_53_295)"/>
<path d="M189.653 75.0771L157.788 94.5401L125.754 75.1611" stroke="#3F484B" stroke-miterlimit="10"/>
<path d="M157.745 108.863V94.603" stroke="#3F484B" stroke-miterlimit="10"/>
<path d="M158.807 35.0808L159.069 34.6548L158.807 35.0808ZM158.807 35.0808C158.233 34.7288 157.51 34.7288 156.935 35.0798L126.949 53.3908L126.689 52.9658L126.949 53.3908C126.414 53.7178 126.086 54.3018 126.086 54.9308V66.5168C126.086 67.1388 126.406 67.7158 126.932 68.0458L156.864 86.8028C157.435 87.1608 158.158 87.1688 158.737 86.8238L188.947 68.7918L189.204 69.2208L188.947 68.7918C189.492 68.4668 189.826 67.8778 189.826 67.2418V55.0978C189.826 54.4688 189.499 53.8858 188.965 53.5588L189.226 53.1328L188.965 53.5588L158.807 35.0808Z" fill="url(#paint3_linear_53_295)" stroke="#3F484B"/>
<path d="M156.59 34.76L126.605 53.071C125.92 53.489 125.502 54.234 125.502 55.038V66.623C125.502 67.417 125.91 68.155 126.582 68.576L156.515 87.333C157.245 87.791 158.169 87.801 158.909 87.359L189.12 69.327C189.815 68.912 190.242 68.16 190.242 67.349V55.204C190.242 54.402 189.825 53.658 189.142 53.239L158.985 34.761C158.25 34.311 157.326 34.311 156.59 34.76Z" fill="url(#paint4_linear_53_295)" stroke="#3F484B" stroke-miterlimit="10"/>
<path d="M189.653 53.8281L157.788 73.2911L125.754 53.9121" fill="url(#paint5_linear_53_295)"/>
<path d="M189.653 53.8281L157.788 73.2911L125.754 53.9121" stroke="#3F484B" stroke-miterlimit="10"/>
<path d="M157.745 87.615V73.355" stroke="#3F484B" stroke-miterlimit="10"/>
<defs>
<linearGradient id="paint0_linear_53_295" x1="189.374" y1="55.545" x2="115.494" y2="86.194" gradientUnits="userSpaceOnUse">
<stop stop-color="#FDFF97"/>
<stop offset="1" stop-color="#F1DA09"/>
</linearGradient>
<linearGradient id="paint1_linear_53_295" x1="189.29" y1="55.6709" x2="115.41" y2="86.3199" gradientUnits="userSpaceOnUse">
<stop stop-color="#FDFF97"/>
<stop offset="1" stop-color="#F1DA09"/>
</linearGradient>
<linearGradient id="paint2_linear_53_295" x1="188.713" y1="75.0771" x2="150.819" y2="117.536" gradientUnits="userSpaceOnUse">
<stop stop-color="#FDFF97"/>
<stop offset="1" stop-color="#F1DA09"/>
</linearGradient>
<linearGradient id="paint3_linear_53_295" x1="189.374" y1="34.3168" x2="115.494" y2="64.9658" gradientUnits="userSpaceOnUse">
<stop stop-color="#FDFF97"/>
<stop offset="1" stop-color="#F1DA09"/>
</linearGradient>
<linearGradient id="paint4_linear_53_295" x1="189.29" y1="34.423" x2="115.41" y2="65.072" gradientUnits="userSpaceOnUse">
<stop stop-color="#FDFF97"/>
<stop offset="1" stop-color="#F1DA09"/>
</linearGradient>
<linearGradient id="paint5_linear_53_295" x1="188.713" y1="53.8281" x2="150.819" y2="96.2871" gradientUnits="userSpaceOnUse">
<stop stop-color="#FDFF97"/>
<stop offset="1" stop-color="#F1DA09"/>
</linearGradient>
</defs>
</svg>
