<svg width="122" height="230" viewBox="0 0 122 230" fill="none" xmlns="http://www.w3.org/2000/svg">
<path d="M61.9902 146.525C62.1855 146.721 62.502 146.721 62.6973 146.525L65.8793 143.343C66.0745 143.148 66.0745 142.832 65.8793 142.636C65.684 142.441 65.3674 142.441 65.1722 142.636L62.3438 145.465L59.5153 142.636C59.3201 142.441 59.0035 142.441 58.8082 142.636C58.613 142.832 58.613 143.148 58.8082 143.343L61.9902 146.525ZM61.8438 127.959L61.8438 146.172L62.8438 146.172L62.8438 127.959L61.8438 127.959Z" fill="#70F0F9"/>
<path d="M62.6973 82.4736C62.502 82.2783 62.1855 82.2783 61.9902 82.4736L58.8082 85.6556C58.613 85.8508 58.613 86.1674 58.8082 86.3627C59.0035 86.5579 59.3201 86.5579 59.5153 86.3627L62.3438 83.5343L65.1722 86.3627C65.3674 86.5579 65.684 86.5579 65.8793 86.3627C66.0745 86.1674 66.0745 85.8508 65.8793 85.6556L62.6973 82.4736ZM62.8438 101.04L62.8438 82.8271L61.8438 82.8271L61.8438 101.04L62.8438 101.04Z" fill="#70F0F9"/>
<circle cx="61.4667" cy="28.9887" r="7.36711" fill="#0197FF"/>
<path fill-rule="evenodd" clip-rule="evenodd" d="M76.0222 49.8081H46.6074C48.6351 43.6247 54.4534 39.1592 61.3148 39.1592C68.1762 39.1592 73.9946 43.6247 76.0222 49.8081Z" fill="#0197FF"/>
<circle cx="61.4168" cy="38.0154" r="37.4109" stroke="#70F0F9" stroke-linecap="round" stroke-dasharray="4 4"/>
<circle cx="61.4667" cy="182.372" r="7.36711" fill="#0197FF"/>
<path fill-rule="evenodd" clip-rule="evenodd" d="M76.0222 203.192H46.6074C48.6351 197.009 54.4534 192.543 61.3148 192.543C68.1762 192.543 73.9946 197.009 76.0222 203.192Z" fill="#0197FF"/>
<circle cx="61.4168" cy="191.399" r="37.4109" stroke="#70F0F9" stroke-linecap="round" stroke-dasharray="4 4"/>
<circle cx="87.6636" cy="12.7905" r="11.6401" fill="url(#paint0_linear_875_7905)"/>
<path d="M85.0937 18.5006C85.0644 18.4691 85.0363 18.4364 85.0058 18.4061C83.4297 16.8375 81.8535 15.269 80.2767 13.701C80.249 13.6734 80.215 13.6519 80.1953 13.6365C80.6893 13.1472 81.1708 12.6701 81.6592 12.1862C82.7929 13.3121 83.948 14.4594 85.1105 15.614C87.9722 12.7666 90.8311 9.92193 93.6872 7.08008C94.1682 7.5607 94.6437 8.03582 95.1298 8.52161C95.1072 8.54521 95.0766 8.57859 95.0445 8.61052C91.764 11.8756 88.4835 15.1405 85.2032 18.4057C85.173 18.4358 85.1459 18.4689 85.1173 18.5006C85.1094 18.5006 85.1015 18.5006 85.0937 18.5006Z" fill="white"/>
<circle cx="88.1787" cy="12.2734" r="11.9189" fill="url(#paint1_linear_875_7905)"/>
<path d="M82.5674 8.62207H87.2939V9.48682H85.4194V15.583H87.2939V16.4424H82.5674V15.583H84.3989V9.48682H82.5674V8.62207ZM88.9618 16.4424V8.62207H90.7718C91.3161 8.62923 91.8013 8.72233 92.2274 8.90137C92.6571 9.07682 93.0187 9.32389 93.3124 9.64258C93.6096 9.95768 93.8352 10.3372 93.9891 10.7812C94.1467 11.2217 94.2272 11.7104 94.2308 12.2476V12.8223C94.2272 13.3594 94.1467 13.8499 93.9891 14.2939C93.8352 14.7344 93.6096 15.1139 93.3124 15.4326C93.0187 15.7477 92.6571 15.9948 92.2274 16.1738C91.8013 16.3493 91.3161 16.4388 90.7718 16.4424H88.9618ZM89.9715 9.43848V15.6313H90.7718C91.1944 15.6278 91.5596 15.5544 91.8675 15.4111C92.1755 15.2643 92.4297 15.0656 92.6302 14.8149C92.8343 14.5643 92.9847 14.2689 93.0814 13.9287C93.1817 13.5885 93.2336 13.2197 93.2372 12.8223V12.2368C93.2336 11.8394 93.1817 11.4723 93.0814 11.1357C92.9811 10.7956 92.8308 10.502 92.6302 10.2549C92.4297 10.0042 92.1755 9.80729 91.8675 9.66406C91.5596 9.52083 91.1944 9.44564 90.7718 9.43848H89.9715Z" fill="white"/>
<circle cx="87.6636" cy="166.114" r="11.6401" fill="url(#paint2_linear_875_7905)"/>
<path d="M85.0937 171.824C85.0644 171.792 85.0363 171.76 85.0058 171.729C83.4297 170.161 81.8535 168.592 80.2767 167.024C80.249 166.997 80.215 166.975 80.1953 166.96C80.6893 166.47 81.1708 165.993 81.6592 165.509C82.7929 166.635 83.948 167.783 85.1105 168.937C87.9722 166.09 90.8311 163.245 93.6872 160.403C94.1682 160.884 94.6437 161.359 95.1298 161.845C95.1072 161.868 95.0766 161.902 95.0445 161.934C91.764 165.199 88.4835 168.464 85.2032 171.729C85.173 171.759 85.1459 171.792 85.1173 171.824C85.1094 171.824 85.1015 171.824 85.0937 171.824Z" fill="white"/>
<path fill-rule="evenodd" clip-rule="evenodd" d="M7.08383 112.742L6.44981 111.673L0.611852 115.136H0.611422V115.136L0.611328 115.136L0.611422 115.136V116.16H0.61148L0.611328 116.16L6.44981 119.623L7.08383 118.554L2.18426 115.648L7.08383 112.742Z" fill="#70F0F9"/>
<path fill-rule="evenodd" clip-rule="evenodd" d="M115.201 118.484L115.829 119.543L121.61 116.115L121.611 116.115L121.611 115.1L121.61 115.1L121.61 115.1L115.829 111.671L115.201 112.73L120.053 115.607L115.201 118.484Z" fill="#70F0F9"/>
<path d="M19.0374 117.451C18.9829 117.875 18.8738 118.265 18.7103 118.622C18.5467 118.974 18.3328 119.278 18.0685 119.534C17.8085 119.785 17.4981 119.983 17.1374 120.125C16.7809 120.264 16.3824 120.333 15.942 120.333C15.5645 120.333 15.2206 120.28 14.9102 120.176C14.604 120.067 14.3293 119.918 14.086 119.729C13.8469 119.54 13.6393 119.318 13.4631 119.062C13.2911 118.806 13.1464 118.527 13.029 118.225C12.9157 117.923 12.8298 117.607 12.771 117.275C12.7165 116.944 12.6872 116.608 12.683 116.269V114.991C12.6872 114.652 12.7165 114.316 12.771 113.985C12.8298 113.653 12.9157 113.337 13.029 113.035C13.1464 112.733 13.2911 112.454 13.4631 112.198C13.6393 111.938 13.8469 111.713 14.086 111.525C14.3293 111.336 14.604 111.189 14.9102 111.084C15.2164 110.975 15.5603 110.921 15.942 110.921C16.3992 110.921 16.8081 110.992 17.1688 111.135C17.5296 111.273 17.8399 111.472 18.1 111.732C18.36 111.988 18.5677 112.296 18.7228 112.657C18.8822 113.018 18.9871 113.416 19.0374 113.853H17.8735C17.8357 113.576 17.7707 113.318 17.6785 113.079C17.5862 112.84 17.4624 112.63 17.3073 112.45C17.1521 112.269 16.9612 112.129 16.7347 112.028C16.5124 111.923 16.2482 111.871 15.942 111.871C15.6652 111.871 15.4198 111.917 15.2059 112.009C14.9962 112.097 14.8137 112.219 14.6585 112.374C14.5075 112.529 14.3796 112.71 14.2747 112.915C14.1741 113.121 14.0923 113.339 14.0294 113.569C13.9664 113.8 13.9203 114.037 13.8909 114.28C13.8658 114.519 13.8532 114.752 13.8532 114.979V116.269C13.8532 116.495 13.8658 116.73 13.8909 116.973C13.9203 117.212 13.9664 117.449 14.0294 117.684C14.0923 117.915 14.1741 118.133 14.2747 118.338C14.3754 118.544 14.5033 118.726 14.6585 118.886C14.8137 119.041 14.9962 119.165 15.2059 119.257C15.4156 119.345 15.661 119.389 15.942 119.389C16.2482 119.389 16.5124 119.341 16.7347 119.244C16.9612 119.148 17.1521 119.014 17.3073 118.842C17.4624 118.666 17.5862 118.46 17.6785 118.225C17.7707 117.986 17.8357 117.728 17.8735 117.451H19.0374ZM20.8967 110.543H24.3759V119.2H26.5968V120.207H20.8967V119.2H23.212V111.556H20.8967V110.543ZM32.0989 120.207H30.935V112.531L28.5379 113.444V112.38L32.0046 111.047H32.0989V120.207ZM40.6524 117.13H41.9296V118.08H40.6524V120.207H39.4885V118.08H35.3109V117.395L39.413 111.047H40.6524V117.13ZM36.6007 117.13H39.4885V112.594L39.2997 112.947L36.6007 117.13ZM43.9588 115.614L44.418 111.047H49.1178V112.179H45.3995L45.1416 114.62C45.3219 114.515 45.5379 114.423 45.7896 114.343C46.0413 114.264 46.3328 114.224 46.6641 114.224C47.0878 114.224 47.4673 114.297 47.8029 114.444C48.1384 114.591 48.4237 114.798 48.6585 115.067C48.8934 115.331 49.0738 115.652 49.1996 116.029C49.3254 116.407 49.3884 116.826 49.3884 117.288C49.3884 117.724 49.3296 118.129 49.2122 118.502C49.0948 118.875 48.9165 119.198 48.6774 119.471C48.4425 119.739 48.1447 119.951 47.784 120.106C47.4233 120.257 46.9997 120.333 46.5131 120.333C46.1398 120.333 45.7875 120.28 45.4561 120.176C45.1248 120.071 44.8291 119.913 44.569 119.704C44.3132 119.494 44.1014 119.23 43.9336 118.911C43.77 118.592 43.6672 118.221 43.6253 117.797H44.7326C44.8039 118.317 44.9948 118.712 45.3051 118.98C45.6197 119.249 46.0224 119.383 46.5131 119.383C46.79 119.383 47.0353 119.335 47.2492 119.238C47.4632 119.137 47.6414 118.997 47.784 118.817C47.9308 118.632 48.0399 118.412 48.1112 118.156C48.1867 117.9 48.2244 117.615 48.2244 117.3C48.2244 117.015 48.1825 116.749 48.0986 116.501C48.0189 116.254 47.9015 116.04 47.7463 115.86C47.5911 115.675 47.4002 115.53 47.1737 115.425C46.9472 115.321 46.6872 115.268 46.3936 115.268C46.2006 115.268 46.0329 115.283 45.8903 115.312C45.7518 115.337 45.626 115.375 45.5128 115.425C45.3995 115.476 45.2926 115.537 45.1919 115.608C45.0954 115.679 44.9948 115.761 44.8899 115.853L43.9588 115.614ZM52.5122 115.067H53.3427C53.6363 115.067 53.8943 115.027 54.1166 114.947C54.3431 114.868 54.5318 114.759 54.6828 114.62C54.838 114.482 54.9555 114.316 55.0352 114.123C55.1148 113.93 55.1547 113.718 55.1547 113.488C55.1547 112.955 55.0184 112.554 54.7457 112.286C54.4731 112.013 54.0746 111.877 53.5504 111.877C53.3029 111.877 53.0764 111.915 52.8709 111.99C52.6695 112.062 52.4955 112.166 52.3487 112.305C52.2061 112.443 52.0949 112.609 52.0152 112.802C51.9355 112.995 51.8957 113.211 51.8957 113.45H50.7254C50.7254 113.102 50.7926 112.775 50.9268 112.468C51.0652 112.158 51.2581 111.89 51.5056 111.663C51.7531 111.432 52.0488 111.252 52.3927 111.122C52.7408 110.988 53.1267 110.921 53.5504 110.921C53.9614 110.921 54.3368 110.977 54.6765 111.091C55.0163 111.2 55.3078 111.363 55.5511 111.581C55.7943 111.799 55.9831 112.07 56.1173 112.393C56.2515 112.716 56.3186 113.089 56.3186 113.513C56.3186 113.689 56.2914 113.871 56.2368 114.06C56.1823 114.249 56.0984 114.433 55.9852 114.614C55.8719 114.79 55.7251 114.958 55.5448 115.117C55.3686 115.272 55.1568 115.402 54.9093 115.507C55.2071 115.604 55.4546 115.73 55.6517 115.885C55.8531 116.04 56.0124 116.214 56.1299 116.407C56.2515 116.6 56.3354 116.803 56.3815 117.017C56.4319 117.231 56.457 117.443 56.457 117.653C56.457 118.08 56.3836 118.46 56.2368 118.791C56.09 119.123 55.8866 119.404 55.6266 119.635C55.3665 119.861 55.0582 120.035 54.7017 120.157C54.3494 120.274 53.9677 120.333 53.5566 120.333C53.154 120.333 52.7744 120.276 52.4179 120.163C52.0655 120.05 51.7594 119.884 51.4993 119.666C51.2393 119.448 51.0316 119.182 50.8764 118.867C50.7254 118.552 50.6499 118.194 50.6499 117.791H51.8139C51.8139 118.03 51.8537 118.248 51.9334 118.445C52.0173 118.643 52.1348 118.81 52.2857 118.949C52.4367 119.087 52.6192 119.194 52.8331 119.27C53.0512 119.345 53.2924 119.383 53.5566 119.383C53.8209 119.383 54.06 119.349 54.2739 119.282C54.4878 119.211 54.6702 119.104 54.8212 118.961C54.9722 118.819 55.0876 118.643 55.1673 118.433C55.2512 118.219 55.2931 117.967 55.2931 117.678C55.2931 117.393 55.2449 117.147 55.1484 116.942C55.0561 116.732 54.924 116.558 54.752 116.42C54.5843 116.281 54.3787 116.178 54.1355 116.111C53.8964 116.044 53.6321 116.011 53.3427 116.011H52.5122V115.067ZM58.9455 110.543H62.4247V119.2H64.6456V120.207H58.9455V119.2H61.2608V111.556H58.9455V110.543ZM68.4112 117.03L67.5556 117.854V120.207H66.3854V110.543H67.5556V116.457L68.3169 115.639L70.5504 113.4H71.966L69.2103 116.237L72.3875 120.207H70.909L68.4112 117.03ZM78.4558 120.207C78.4097 120.119 78.3719 120.01 78.3426 119.88C78.3174 119.746 78.2985 119.607 78.286 119.465C78.1685 119.582 78.0364 119.693 77.8896 119.798C77.747 119.903 77.5876 119.995 77.4114 120.075C77.2395 120.155 77.0549 120.218 76.8578 120.264C76.6606 120.31 76.4509 120.333 76.2286 120.333C75.8679 120.333 75.5407 120.28 75.2471 120.176C74.9577 120.071 74.7103 119.93 74.5047 119.754C74.3034 119.574 74.1461 119.362 74.0329 119.119C73.9238 118.871 73.8693 118.605 73.8693 118.32C73.8693 117.946 73.9427 117.619 74.0895 117.338C74.2405 117.057 74.4523 116.824 74.7249 116.64C74.9976 116.451 75.3247 116.31 75.7064 116.218C76.0923 116.126 76.5222 116.08 76.9962 116.08H78.2671V115.545C78.2671 115.339 78.2293 115.155 78.1538 114.991C78.0783 114.828 77.9714 114.689 77.833 114.576C77.6945 114.459 77.5247 114.368 77.3233 114.306C77.1262 114.243 76.9039 114.211 76.6564 114.211C76.4258 114.211 76.2181 114.241 76.0336 114.299C75.8532 114.358 75.7001 114.436 75.5743 114.532C75.4485 114.629 75.3499 114.744 75.2786 114.878C75.2115 115.008 75.1779 115.144 75.1779 115.287H74.0077C74.0119 115.04 74.0748 114.796 74.1964 114.557C74.3223 114.318 74.5005 114.104 74.7312 113.915C74.9661 113.723 75.2492 113.567 75.5806 113.45C75.9161 113.332 76.2957 113.274 76.7194 113.274C77.1052 113.274 77.4639 113.322 77.7952 113.418C78.1266 113.511 78.4118 113.653 78.6509 113.846C78.8941 114.035 79.085 114.272 79.2234 114.557C79.3618 114.842 79.431 115.176 79.431 115.558V118.722C79.431 118.949 79.452 119.19 79.4939 119.446C79.5359 119.697 79.5946 119.918 79.6701 120.106V120.207H78.4558ZM76.3985 119.32C76.625 119.32 76.8368 119.291 77.0339 119.232C77.2311 119.173 77.4093 119.096 77.5687 118.999C77.7323 118.903 77.8728 118.794 77.9903 118.672C78.1077 118.546 78.2 118.416 78.2671 118.282V116.904H77.1849C76.5054 116.904 75.977 117.005 75.5995 117.206C75.222 117.407 75.0332 117.724 75.0332 118.156C75.0332 118.324 75.0605 118.479 75.115 118.622C75.1737 118.764 75.2597 118.888 75.373 118.993C75.4862 119.093 75.6288 119.173 75.8008 119.232C75.9728 119.291 76.172 119.32 76.3985 119.32ZM87.3616 116.879C87.3616 117.365 87.3029 117.82 87.1855 118.244C87.068 118.664 86.8961 119.028 86.6696 119.339C86.4431 119.649 86.1621 119.892 85.8265 120.069C85.4951 120.245 85.1135 120.333 84.6814 120.333C84.2452 120.333 83.8656 120.255 83.5427 120.1C83.2239 119.945 82.9513 119.723 82.7248 119.433L82.6681 120.207H81.5986V110.543H82.7625V114.129C82.9848 113.853 83.2533 113.641 83.5678 113.494C83.8824 113.347 84.2494 113.274 84.6689 113.274C85.1051 113.274 85.491 113.36 85.8265 113.532C86.1621 113.704 86.4431 113.943 86.6696 114.249C86.8961 114.555 87.068 114.922 87.1855 115.35C87.3029 115.774 87.3616 116.239 87.3616 116.747V116.879ZM86.1977 116.747C86.1977 116.415 86.1641 116.101 86.097 115.803C86.0341 115.501 85.9314 115.237 85.7888 115.01C85.6461 114.78 85.4595 114.597 85.2288 114.463C84.9981 114.329 84.715 114.262 84.3794 114.262C84.1781 114.262 83.9936 114.289 83.8258 114.343C83.658 114.394 83.507 114.467 83.3728 114.564C83.2428 114.656 83.1253 114.767 83.0205 114.897C82.9198 115.023 82.8338 115.161 82.7625 115.312V118.288C82.838 118.439 82.9261 118.58 83.0268 118.71C83.1316 118.835 83.2512 118.947 83.3854 119.043C83.5196 119.14 83.6706 119.215 83.8384 119.27C84.0061 119.32 84.1907 119.345 84.392 119.345C84.7108 119.345 84.9834 119.28 85.2099 119.15C85.4406 119.016 85.6273 118.835 85.7699 118.609C85.9167 118.382 86.0236 118.12 86.0907 117.823C86.1621 117.525 86.1977 117.21 86.1977 116.879V116.747ZM94.9525 116.703C94.9525 117.286 94.8854 117.804 94.7512 118.257C94.617 118.705 94.424 119.085 94.1724 119.395C93.9207 119.702 93.6124 119.934 93.2475 120.094C92.8826 120.253 92.4653 120.333 91.9955 120.333C91.5299 120.333 91.1126 120.253 90.7435 120.094C90.3786 119.934 90.0682 119.702 89.8123 119.395C89.5565 119.085 89.3593 118.705 89.2209 118.257C89.0867 117.804 89.0196 117.286 89.0196 116.703V114.557C89.0196 113.974 89.0867 113.458 89.2209 113.009C89.3551 112.557 89.5481 112.175 89.7997 111.864C90.0556 111.554 90.366 111.319 90.7309 111.16C91.1 110.996 91.5173 110.914 91.9829 110.914C92.4527 110.914 92.87 110.996 93.2349 111.16C93.604 111.319 93.9144 111.554 94.1661 111.864C94.4219 112.175 94.617 112.557 94.7512 113.009C94.8854 113.458 94.9525 113.974 94.9525 114.557V116.703ZM90.1898 116.47L93.7571 113.733C93.69 113.125 93.5118 112.663 93.2223 112.349C92.9371 112.03 92.524 111.871 91.9829 111.871C91.3705 111.871 90.9175 112.078 90.6239 112.494C90.3345 112.905 90.1898 113.507 90.1898 114.299V116.47ZM93.7823 114.847L90.2213 117.571C90.2926 118.162 90.475 118.613 90.7686 118.924C91.0622 119.234 91.4712 119.389 91.9955 119.389C92.6121 119.389 93.063 119.179 93.3482 118.76C93.6376 118.341 93.7823 117.737 93.7823 116.948V114.847ZM102.562 116.703C102.562 117.286 102.495 117.804 102.361 118.257C102.227 118.705 102.034 119.085 101.782 119.395C101.53 119.702 101.222 119.934 100.857 120.094C100.492 120.253 100.075 120.333 99.6052 120.333C99.1397 120.333 98.7223 120.253 98.3532 120.094C97.9883 119.934 97.6779 119.702 97.4221 119.395C97.1662 119.085 96.9691 118.705 96.8307 118.257C96.6965 117.804 96.6293 117.286 96.6293 116.703V114.557C96.6293 113.974 96.6965 113.458 96.8307 113.009C96.9649 112.557 97.1578 112.175 97.4095 111.864C97.6654 111.554 97.9757 111.319 98.3406 111.16C98.7098 110.996 99.1271 110.914 99.5927 110.914C100.062 110.914 100.48 110.996 100.845 111.16C101.214 111.319 101.524 111.554 101.776 111.864C102.032 112.175 102.227 112.557 102.361 113.009C102.495 113.458 102.562 113.974 102.562 114.557V116.703ZM97.7996 116.47L101.367 113.733C101.3 113.125 101.122 112.663 100.832 112.349C100.547 112.03 100.134 111.871 99.5927 111.871C98.9803 111.871 98.5273 112.078 98.2337 112.494C97.9443 112.905 97.7996 113.507 97.7996 114.299V116.47ZM101.392 114.847L97.831 117.571C97.9023 118.162 98.0848 118.613 98.3784 118.924C98.672 119.234 99.081 119.389 99.6052 119.389C100.222 119.389 100.673 119.179 100.958 118.76C101.247 118.341 101.392 117.737 101.392 116.948V114.847ZM110.222 111.701L106.429 120.207H105.208L108.989 112.066H104.031V111.047H110.222V111.701Z" fill="#70F0F9"/>
<circle cx="88.1787" cy="166.128" r="11.9189" fill="url(#paint3_linear_875_7905)"/>
<path d="M82.5674 162.477H87.2939V163.341H85.4194V169.438H87.2939V170.297H82.5674V169.438H84.3989V163.341H82.5674V162.477ZM88.9618 170.297V162.477H90.7718C91.3161 162.484 91.8013 162.577 92.2274 162.756C92.6571 162.931 93.0187 163.178 93.3124 163.497C93.6096 163.812 93.8352 164.192 93.9891 164.636C94.1467 165.076 94.2272 165.565 94.2308 166.102V166.677C94.2272 167.214 94.1467 167.704 93.9891 168.148C93.8352 168.589 93.6096 168.968 93.3124 169.287C93.0187 169.602 92.6571 169.849 92.2274 170.028C91.8013 170.204 91.3161 170.293 90.7718 170.297H88.9618ZM89.9715 163.293V169.486H90.7718C91.1944 169.482 91.5596 169.409 91.8675 169.266C92.1755 169.119 92.4297 168.92 92.6302 168.669C92.8343 168.419 92.9847 168.123 93.0814 167.783C93.1817 167.443 93.2336 167.074 93.2372 166.677V166.091C93.2336 165.694 93.1817 165.327 93.0814 164.99C92.9811 164.65 92.8308 164.356 92.6302 164.109C92.4297 163.859 92.1755 163.662 91.8675 163.519C91.5596 163.375 91.1944 163.3 90.7718 163.293H89.9715Z" fill="white"/>
<path d="M88.1846 155.483C89.6551 155.483 91.0812 155.771 92.423 156.339C93.7196 156.887 94.8844 157.672 95.8848 158.673C96.8852 159.673 97.6705 160.838 98.2189 162.135C98.7865 163.476 99.0743 164.902 99.0743 166.373C99.0743 167.844 98.7865 169.27 98.2189 170.612C97.6705 171.908 96.8852 173.073 95.8848 174.073C94.8844 175.074 93.7196 175.859 92.423 176.407C91.0812 176.975 89.6551 177.263 88.1846 177.263C86.714 177.263 85.288 176.975 83.9461 176.407C82.6495 175.859 81.4848 175.074 80.4844 174.073C79.484 173.073 78.6986 171.908 78.1502 170.612C77.5826 169.27 77.2949 167.844 77.2949 166.373C77.2949 164.902 77.5826 163.476 78.1502 162.135C78.6986 160.838 79.484 159.673 80.4844 158.673C81.4847 157.672 82.6495 156.887 83.9461 156.339C85.288 155.771 86.714 155.483 88.1846 155.483ZM88.1846 154.46C81.6051 154.46 76.2715 159.794 76.2715 166.373C76.2715 172.952 81.6051 178.286 88.1846 178.286C94.764 178.286 100.098 172.952 100.098 166.373C100.098 159.794 94.764 154.46 88.1846 154.46Z" fill="#70F0F9"/>
<path d="M80.0762 174.56L96.2664 158.37" stroke="#70F0F9" stroke-width="1.5" stroke-miterlimit="10"/>
<path d="M88.1846 1.62787C89.6551 1.62787 91.0812 1.91563 92.423 2.48321C93.7196 3.03162 94.8844 3.81694 95.8848 4.81737C96.8852 5.81779 97.6705 6.98247 98.2189 8.27912C98.7865 9.621 99.0743 11.047 99.0743 12.5176C99.0743 13.9881 98.7865 15.4142 98.2189 16.756C97.6705 18.0527 96.8852 19.2174 95.8848 20.2178C94.8844 21.2182 93.7196 22.0035 92.423 22.5519C91.0812 23.1195 89.6551 23.4073 88.1846 23.4073C86.714 23.4073 85.288 23.1195 83.9461 22.5519C82.6495 22.0035 81.4848 21.2182 80.4844 20.2178C79.484 19.2174 78.6986 18.0527 78.1502 16.756C77.5826 15.4142 77.2949 13.9881 77.2949 12.5176C77.2949 11.047 77.5826 9.621 78.1502 8.27912C78.6986 6.98251 79.484 5.81779 80.4844 4.8174C81.4847 3.81702 82.6495 3.03166 83.9461 2.48325C85.288 1.91563 86.714 1.62787 88.1846 1.62787ZM88.1846 0.604492C81.6051 0.604492 76.2715 5.93815 76.2715 12.5176C76.2715 19.097 81.6051 24.4307 88.1846 24.4307C94.764 24.4307 100.098 19.097 100.098 12.5176C100.098 5.93815 94.764 0.604492 88.1846 0.604492Z" fill="#70F0F9"/>
<path d="M80.0762 20.7044L96.2664 4.51416" stroke="#70F0F9" stroke-width="1.5" stroke-miterlimit="10"/>
<defs>
<linearGradient id="paint0_linear_875_7905" x1="98.9614" y1="1.15039" x2="71.0709" y2="10.6692" gradientUnits="userSpaceOnUse">
<stop stop-color="#53C1FF"/>
<stop offset="1" stop-color="#0053D0"/>
</linearGradient>
<linearGradient id="paint1_linear_875_7905" x1="99.7471" y1="0.354487" x2="71.1886" y2="10.1013" gradientUnits="userSpaceOnUse">
<stop stop-color="#CD5CAE"/>
<stop offset="1" stop-color="#FF3685"/>
</linearGradient>
<linearGradient id="paint2_linear_875_7905" x1="98.9614" y1="154.474" x2="71.0709" y2="163.992" gradientUnits="userSpaceOnUse">
<stop stop-color="#53C1FF"/>
<stop offset="1" stop-color="#0053D0"/>
</linearGradient>
<linearGradient id="paint3_linear_875_7905" x1="99.7471" y1="154.209" x2="71.1886" y2="163.956" gradientUnits="userSpaceOnUse">
<stop stop-color="#CD5CAE"/>
<stop offset="1" stop-color="#FF3685"/>
</linearGradient>
</defs>
</svg>
