<svg width="148" height="230" viewBox="0 0 148 230" fill="none" xmlns="http://www.w3.org/2000/svg">
<rect x="7.71875" y="94.7798" width="139.518" height="38.9185" rx="10" fill="url(#paint0_linear_757_8812)"/>
<path d="M72.2872 116.465C72.2872 116.138 72.2115 115.862 72.0602 115.638C71.9137 115.413 71.7232 115.225 71.4889 115.074C71.2545 114.917 70.9957 114.788 70.7125 114.686C70.4342 114.583 70.1656 114.49 69.9068 114.407C69.5309 114.285 69.1476 114.139 68.7569 113.968C68.3712 113.797 68.0172 113.587 67.6949 113.338C67.3775 113.089 67.1163 112.796 66.9112 112.459C66.711 112.117 66.6109 111.717 66.6109 111.258C66.6109 110.799 66.711 110.389 66.9112 110.027C67.1163 109.666 67.3824 109.361 67.7096 109.112C68.0367 108.863 68.4078 108.675 68.8229 108.548C69.2379 108.416 69.6554 108.35 70.0753 108.35C70.5392 108.35 70.9859 108.428 71.4156 108.584C71.8453 108.736 72.2262 108.951 72.5582 109.229C72.8902 109.507 73.1563 109.844 73.3565 110.24C73.5567 110.635 73.6617 111.077 73.6715 111.565H72.2799C72.2408 111.258 72.1651 110.979 72.0528 110.73C71.9405 110.477 71.7916 110.259 71.6061 110.079C71.4205 109.898 71.1983 109.759 70.9396 109.661C70.6856 109.559 70.3976 109.507 70.0753 109.507C69.8165 109.507 69.5626 109.544 69.3136 109.617C69.0694 109.69 68.8497 109.8 68.6544 109.947C68.464 110.093 68.3102 110.274 68.193 110.489C68.0807 110.704 68.0245 110.953 68.0245 111.236C68.0294 111.543 68.1075 111.805 68.2589 112.02C68.4103 112.229 68.6007 112.408 68.8302 112.554C69.0646 112.701 69.316 112.823 69.5846 112.92C69.858 113.018 70.1144 113.104 70.3536 113.177C70.6173 113.26 70.8834 113.355 71.152 113.462C71.4205 113.565 71.6793 113.685 71.9283 113.821C72.1773 113.958 72.4093 114.112 72.6241 114.283C72.839 114.454 73.027 114.649 73.1881 114.869C73.3492 115.083 73.4737 115.323 73.5616 115.586C73.6544 115.845 73.7008 116.133 73.7008 116.451C73.7008 116.929 73.5934 117.347 73.3785 117.703C73.1686 118.06 72.8951 118.357 72.5582 118.597C72.2213 118.831 71.8404 119.009 71.4156 119.131C70.9908 119.249 70.566 119.307 70.1412 119.307C69.6676 119.307 69.2037 119.234 68.7496 119.087C68.2955 118.941 67.8878 118.731 67.5265 118.458C67.17 118.179 66.8795 117.842 66.6549 117.447C66.4303 117.046 66.3106 116.592 66.296 116.084H67.6803C67.7242 116.417 67.8146 116.712 67.9513 116.971C68.088 117.225 68.2638 117.442 68.4786 117.623C68.6935 117.798 68.94 117.933 69.2184 118.025C69.5016 118.113 69.8092 118.157 70.1412 118.157C70.4049 118.157 70.6637 118.125 70.9176 118.062C71.1764 117.994 71.4059 117.891 71.6061 117.754C71.8062 117.613 71.9698 117.437 72.0968 117.227C72.2237 117.012 72.2872 116.758 72.2872 116.465ZM77.0518 108.497L78.7876 113.829L80.6626 108.497H82.3472V119.161H81.0288V114.905L81.1387 110.452L79.1685 116.194H78.3921L76.583 110.606L76.6929 114.905V119.161H75.3745V108.497H77.0518ZM85.9032 114.883V119.161H84.5482V108.497H88.0053C88.4838 108.506 88.9354 108.582 89.3603 108.724C89.7899 108.865 90.1659 109.07 90.4882 109.339C90.8104 109.607 91.0644 109.939 91.2499 110.335C91.4403 110.73 91.5355 111.185 91.5355 111.697C91.5355 112.21 91.4403 112.664 91.2499 113.06C91.0644 113.45 90.8104 113.78 90.4882 114.048C90.1659 114.317 89.7899 114.522 89.3603 114.664C88.9354 114.805 88.4838 114.878 88.0053 114.883H85.9032ZM85.9032 113.77H88.0053C88.3178 113.765 88.6059 113.716 88.8695 113.624C89.1332 113.526 89.3627 113.389 89.558 113.213C89.7533 113.038 89.9047 112.825 90.0121 112.576C90.1244 112.322 90.1806 112.034 90.1806 111.712C90.1806 111.39 90.1244 111.099 90.0121 110.84C89.9047 110.582 89.7533 110.362 89.558 110.181C89.3676 110 89.1381 109.861 88.8695 109.764C88.6059 109.666 88.3178 109.615 88.0053 109.61H85.9032V113.77Z" fill="white"/>
<ellipse cx="26.6847" cy="26.8834" rx="26.1945" ry="26.5392" fill="url(#paint1_linear_757_8812)"/>
<ellipse cx="26.1516" cy="20.6179" rx="4.59886" ry="4.65938" fill="white"/>
<path fill-rule="evenodd" clip-rule="evenodd" d="M16.875 34.4126H35.2369C33.9711 30.502 30.339 27.6777 26.0559 27.6777C21.7728 27.6777 18.1408 30.502 16.875 34.4126Z" fill="white"/>
<ellipse cx="117.507" cy="202.659" rx="26.1945" ry="26.5392" fill="url(#paint2_linear_757_8812)"/>
<ellipse cx="116.976" cy="196.394" rx="4.59886" ry="4.65938" fill="white"/>
<path fill-rule="evenodd" clip-rule="evenodd" d="M107.699 210.188H126.061C124.795 206.278 121.163 203.454 116.88 203.454C112.597 203.454 108.965 206.278 107.699 210.188Z" fill="white"/>
<path d="M26.5899 52.4702C26.3946 52.2749 26.078 52.2749 25.8828 52.4702L22.7008 55.6522C22.5055 55.8474 22.5055 56.164 22.7008 56.3593C22.8961 56.5545 23.2126 56.5545 23.4079 56.3593L26.2363 53.5308L29.0648 56.3593C29.26 56.5545 29.5766 56.5545 29.7719 56.3593C29.9671 56.164 29.9671 55.8474 29.7719 55.6522L26.5899 52.4702ZM25.8828 93.6773C26.078 93.8725 26.3946 93.8725 26.5899 93.6773L29.7719 90.4953C29.9671 90.3 29.9671 89.9835 29.7719 89.7882C29.5766 89.5929 29.26 89.5929 29.0648 89.7882L26.2363 92.6166L23.4079 89.7882C23.2126 89.5929 22.8961 89.5929 22.7008 89.7882C22.5055 89.9835 22.5055 90.3 22.7008 90.4953L25.8828 93.6773ZM25.7363 52.8237V93.3237H26.7363V52.8237H25.7363Z" fill="#70F0F9"/>
<path d="M117.59 134.345C117.395 134.15 117.078 134.15 116.883 134.345L113.701 137.527C113.506 137.722 113.506 138.039 113.701 138.234C113.896 138.43 114.213 138.43 114.408 138.234L117.236 135.406L120.065 138.234C120.26 138.43 120.577 138.43 120.772 138.234C120.967 138.039 120.967 137.722 120.772 137.527L117.59 134.345ZM116.883 175.552C117.078 175.748 117.395 175.748 117.59 175.552L120.772 172.37C120.967 172.175 120.967 171.858 120.772 171.663C120.577 171.468 120.26 171.468 120.065 171.663L117.236 174.492L114.408 171.663C114.213 171.468 113.896 171.468 113.701 171.663C113.506 171.858 113.506 172.175 113.701 172.37L116.883 175.552ZM116.736 134.699V175.199H117.736V134.699H116.736Z" fill="#70F0F9"/>
<defs>
<linearGradient id="paint0_linear_757_8812" x1="145.185" y1="94.7798" x2="70.4462" y2="186.221" gradientUnits="userSpaceOnUse">
<stop stop-color="#1BC4BF"/>
<stop offset="1" stop-color="#009F9B"/>
</linearGradient>
<linearGradient id="paint1_linear_757_8812" x1="52.1087" y1="0.344227" x2="-10.8243" y2="21.5438" gradientUnits="userSpaceOnUse">
<stop stop-color="#9B90FB"/>
<stop offset="1" stop-color="#6654CF"/>
</linearGradient>
<linearGradient id="paint2_linear_757_8812" x1="142.931" y1="176.12" x2="79.998" y2="197.32" gradientUnits="userSpaceOnUse">
<stop stop-color="#9B90FB"/>
<stop offset="1" stop-color="#6654CF"/>
</linearGradient>
</defs>
</svg>
