<svg width="225" height="216" viewBox="0 0 225 216" fill="none" xmlns="http://www.w3.org/2000/svg">
<path d="M198.724 7.61837L176.628 1.69789C174.228 1.05465 171.76 2.47928 171.117 4.87987L156.97 57.678C156.327 60.0786 157.751 62.5461 160.152 63.1893L182.247 69.1098C184.648 69.753 187.115 68.3284 187.759 65.9278L201.906 13.1297C202.549 10.7291 201.125 8.26161 198.724 7.61837Z" fill="url(#paint0_linear_303_83)" stroke="#606C71"/>
<path d="M195.78 12.7737L176.599 7.63435C175.266 7.277 173.895 8.06845 173.538 9.40212L160.771 57.0487C160.413 58.3824 161.205 59.7532 162.538 60.1106L181.719 65.25C183.053 65.6073 184.423 64.8159 184.781 63.4822L197.548 15.8356C197.905 14.5019 197.114 13.1311 195.78 12.7737Z" fill="url(#paint1_linear_303_83)" stroke="white"/>
<path d="M34.4349 1.58414L13.025 9.63906C10.6989 10.5142 9.52267 13.1093 10.3978 15.4354L29.6453 66.5951C30.5204 68.9212 33.1156 70.0975 35.4417 69.2223L56.8516 61.1674C59.1777 60.2923 60.3539 57.6972 59.4788 55.371L40.2313 4.21135C39.3561 1.88525 36.761 0.709005 34.4349 1.58414Z" fill="url(#paint2_linear_303_83)" stroke="#606C71"/>
<path d="M35.0446 7.48975L16.4593 14.482C15.167 14.9682 14.5135 16.4099 14.9997 17.7022L32.3692 63.8703C32.8554 65.1625 34.2972 65.816 35.5894 65.3298L54.1747 58.3376C55.467 57.8514 56.1205 56.4097 55.6343 55.1174L38.2648 8.94932C37.7786 7.65704 36.3368 7.00357 35.0446 7.48975Z" fill="url(#paint3_linear_303_83)" stroke="white"/>
<path d="M136.438 174.615H79.4377C73.6388 174.615 68.9377 179.316 68.9377 185.115V204.034C68.9377 209.833 73.6388 214.534 79.4377 214.534H136.438C142.237 214.534 146.938 209.833 146.938 204.034V185.115C146.938 179.316 142.237 174.615 136.438 174.615Z" fill="url(#paint4_linear_303_83)" stroke="#3F484B"/>
<path d="M102.747 196.802C102.747 196.474 102.671 196.199 102.52 195.974C102.373 195.749 102.183 195.561 101.948 195.41C101.714 195.254 101.455 195.124 101.172 195.022C100.894 194.919 100.625 194.826 100.366 194.743C99.9896 194.621 99.6066 194.475 99.2156 194.304C98.8306 194.133 98.4766 193.923 98.1536 193.674C97.8366 193.425 97.5756 193.132 97.3706 192.795C97.1706 192.453 97.0696 192.053 97.0696 191.594C97.0696 191.135 97.1706 190.725 97.3706 190.364C97.5756 190.002 97.8416 189.697 98.1686 189.448C98.4956 189.199 98.8666 189.011 99.2816 188.884C99.6966 188.752 100.115 188.686 100.535 188.686C100.999 188.686 101.445 188.764 101.875 188.921C102.305 189.072 102.686 189.287 103.018 189.565C103.35 189.844 103.616 190.18 103.816 190.576C104.016 190.972 104.121 191.413 104.131 191.902H102.739C102.7 191.594 102.625 191.316 102.512 191.067C102.4 190.813 102.251 190.596 102.066 190.415C101.88 190.234 101.658 190.095 101.399 189.997C101.145 189.895 100.857 189.844 100.535 189.844C100.276 189.844 100.022 189.88 99.7726 189.953C99.5286 190.027 99.3086 190.137 99.1136 190.283C98.9226 190.43 98.7696 190.61 98.6516 190.825C98.5396 191.04 98.4836 191.289 98.4836 191.572C98.4886 191.88 98.5666 192.141 98.7176 192.356C98.8696 192.566 99.0596 192.744 99.2896 192.89C99.5236 193.037 99.7756 193.159 100.044 193.257C100.318 193.354 100.574 193.44 100.813 193.513C101.077 193.596 101.343 193.691 101.611 193.799C101.88 193.901 102.139 194.021 102.388 194.158C102.637 194.294 102.869 194.448 103.084 194.619C103.298 194.79 103.486 194.985 103.648 195.205C103.809 195.42 103.933 195.659 104.021 195.923C104.114 196.181 104.16 196.47 104.16 196.787C104.16 197.265 104.053 197.683 103.838 198.039C103.628 198.396 103.355 198.694 103.018 198.933C102.681 199.167 102.3 199.346 101.875 199.468C101.45 199.585 101.026 199.643 100.601 199.643C100.127 199.643 99.6626 199.57 99.2086 199.424C98.7546 199.277 98.3466 199.067 97.9856 198.794C97.6296 198.515 97.3386 198.179 97.1136 197.783C96.8896 197.383 96.7696 196.929 96.7556 196.421H98.1396C98.1836 196.753 98.2736 197.048 98.4106 197.307C98.5476 197.561 98.7226 197.778 98.9376 197.959C99.1526 198.135 99.3996 198.269 99.6776 198.362C99.9606 198.45 100.269 198.493 100.601 198.493C100.864 198.493 101.123 198.462 101.377 198.398C101.636 198.33 101.865 198.227 102.066 198.091C102.266 197.949 102.429 197.773 102.556 197.563C102.683 197.348 102.747 197.095 102.747 196.802ZM107.511 188.833L109.247 194.165L111.122 188.833H112.807V199.497H111.488V195.242L111.598 190.788L109.628 196.531H108.852L107.043 190.942L107.152 195.242V199.497H105.834V188.833H107.511ZM116.363 195.22V199.497H115.008V188.833H118.465C118.943 188.843 119.395 188.918 119.82 189.06C120.249 189.201 120.625 189.407 120.948 189.675C121.27 189.944 121.524 190.276 121.709 190.671C121.9 191.067 121.995 191.521 121.995 192.034C121.995 192.546 121.9 193 121.709 193.396C121.524 193.786 121.27 194.116 120.948 194.385C120.625 194.653 120.249 194.858 119.82 195C119.395 195.141 118.943 195.215 118.465 195.22H116.363ZM116.363 194.106H118.465C118.777 194.101 119.065 194.053 119.329 193.96C119.593 193.862 119.822 193.725 120.018 193.55C120.213 193.374 120.364 193.161 120.472 192.912C120.584 192.659 120.64 192.37 120.64 192.048C120.64 191.726 120.584 191.435 120.472 191.177C120.364 190.918 120.213 190.698 120.018 190.517C119.827 190.337 119.598 190.198 119.329 190.1C119.065 190.002 118.777 189.951 118.465 189.946H116.363V194.106Z" fill="white"/>
<path d="M6.9067 133.23C6.9067 133.909 6.8286 134.512 6.6724 135.039C6.5161 135.562 6.2915 136.004 5.9985 136.365C5.7056 136.721 5.3467 136.992 4.9219 137.178C4.4971 137.364 4.0112 137.456 3.4644 137.456C2.9224 137.456 2.4365 137.364 2.0068 137.178C1.582 136.992 1.2207 136.721 0.922897 136.365C0.624997 136.004 0.395498 135.562 0.234398 135.039C0.0780979 134.512 0 133.909 0 133.23V130.733C0 130.054 0.0780979 129.453 0.234398 128.931C0.390598 128.404 0.615199 127.959 0.908199 127.598C1.2061 127.237 1.5674 126.963 1.9922 126.778C2.4219 126.587 2.9077 126.492 3.4497 126.492C3.9966 126.492 4.4824 126.587 4.9072 126.778C5.3369 126.963 5.6982 127.237 5.9912 127.598C6.2891 127.959 6.5161 128.404 6.6724 128.931C6.8286 129.453 6.9067 130.054 6.9067 130.733V133.23ZM1.3623 132.959L5.5151 129.773C5.437 129.065 5.2295 128.528 4.8926 128.162C4.5605 127.791 4.0796 127.605 3.4497 127.605C2.7368 127.605 2.2095 127.847 1.8677 128.33C1.5308 128.809 1.3623 129.51 1.3623 130.432V132.959ZM5.5444 131.07L1.3989 134.241C1.4819 134.929 1.6943 135.454 2.0361 135.816C2.3779 136.177 2.854 136.358 3.4644 136.358C4.1821 136.358 4.707 136.114 5.0391 135.625C5.376 135.137 5.5444 134.434 5.5444 133.516V131.07ZM12.5063 136.995C12.5063 137.224 12.477 137.464 12.4184 137.713C12.3646 137.967 12.2816 138.216 12.1693 138.46C12.0619 138.709 11.9301 138.946 11.7738 139.17C11.6176 139.395 11.4369 139.595 11.2318 139.771L10.3896 139.309C10.6239 138.968 10.7899 138.604 10.8876 138.218C10.9853 137.832 11.0341 137.432 11.0341 137.017V135.706H12.5063V136.995ZM31.1833 137.31H29.8283V128.374L27.0378 129.436V128.199L31.0734 126.646H31.1833V137.31ZM39.0826 136.995C39.0826 137.224 39.0533 137.464 38.9947 137.713C38.941 137.967 38.858 138.216 38.7457 138.46C38.6383 138.709 38.5064 138.946 38.3502 139.17C38.1939 139.395 38.0133 139.595 37.8082 139.771L36.9659 139.309C37.2003 138.968 37.3663 138.604 37.464 138.218C37.5616 137.832 37.6105 137.432 37.6105 137.017V135.706H39.0826V136.995ZM59.9057 137.31H52.9184V136.336L56.412 132.454C56.7245 132.107 56.9857 131.8 57.1957 131.531C57.4057 131.262 57.5741 131.016 57.7011 130.791C57.828 130.562 57.9184 130.347 57.9721 130.147C58.0258 129.942 58.0526 129.732 58.0526 129.517C58.0526 129.253 58.0087 129.007 57.9208 128.777C57.8378 128.543 57.7133 128.34 57.5473 128.169C57.3861 127.998 57.1884 127.864 56.954 127.766C56.7245 127.664 56.4633 127.613 56.1703 127.613C55.8139 127.613 55.5038 127.664 55.2401 127.766C54.9813 127.869 54.7641 128.015 54.5883 128.206C54.4174 128.391 54.288 128.618 54.2001 128.887C54.1171 129.156 54.0756 129.456 54.0756 129.788H52.7133C52.7133 129.339 52.7914 128.916 52.9477 128.521C53.1039 128.12 53.3285 127.771 53.6215 127.473C53.9193 127.176 54.2807 126.939 54.7055 126.763C55.1352 126.587 55.6234 126.499 56.1703 126.499C56.6732 126.499 57.1249 126.575 57.5253 126.726C57.9306 126.873 58.2724 127.078 58.5507 127.342C58.829 127.605 59.0414 127.918 59.1879 128.279C59.3393 128.64 59.4149 129.033 59.4149 129.458C59.4149 129.776 59.3612 130.091 59.2538 130.403C59.1464 130.711 58.9999 131.016 58.8144 131.319C58.6337 131.621 58.4213 131.922 58.1771 132.22C57.9379 132.512 57.684 132.805 57.4154 133.098L54.5517 136.204H59.9057V137.31ZM65.6587 136.995C65.6587 137.224 65.6297 137.464 65.5707 137.713C65.5177 137.967 65.4347 138.216 65.3217 138.46C65.2147 138.709 65.0827 138.946 64.9267 139.17C64.7707 139.395 64.5897 139.595 64.3847 139.771L63.5427 139.309C63.7767 138.968 63.9427 138.604 64.0407 138.218C64.1377 137.832 64.1867 137.432 64.1867 137.017V135.706H65.6587V136.995ZM81.5237 131.326H82.4907C82.8317 131.326 83.1327 131.28 83.3917 131.187C83.6547 131.094 83.8747 130.967 84.0507 130.806C84.2307 130.645 84.3677 130.452 84.4607 130.227C84.5537 130.003 84.5997 129.756 84.5997 129.488C84.5997 128.867 84.4407 128.401 84.1237 128.089C83.8067 127.771 83.3427 127.613 82.7317 127.613C82.4437 127.613 82.1807 127.657 81.9407 127.744C81.7067 127.827 81.5037 127.95 81.3327 128.111C81.1667 128.272 81.0377 128.465 80.9447 128.689C80.8517 128.914 80.8057 129.165 80.8057 129.444H79.4437C79.4437 129.038 79.5217 128.658 79.6777 128.301C79.8387 127.94 80.0637 127.627 80.3517 127.364C80.6397 127.095 80.9837 126.885 81.3847 126.734C81.7897 126.577 82.2387 126.499 82.7317 126.499C83.2107 126.499 83.6477 126.565 84.0427 126.697C84.4387 126.824 84.7777 127.014 85.0607 127.268C85.3447 127.522 85.5637 127.837 85.7207 128.213C85.8767 128.589 85.9547 129.024 85.9547 129.517C85.9547 129.722 85.9227 129.934 85.8597 130.154C85.7957 130.374 85.6987 130.589 85.5667 130.799C85.4347 131.004 85.2637 131.199 85.0537 131.385C84.8487 131.565 84.6017 131.717 84.3137 131.839C84.6607 131.951 84.9487 132.097 85.1787 132.278C85.4127 132.459 85.5987 132.661 85.7347 132.886C85.8767 133.111 85.9747 133.347 86.0277 133.596C86.0867 133.846 86.1157 134.092 86.1157 134.336C86.1157 134.834 86.0307 135.276 85.8597 135.662C85.6887 136.048 85.4517 136.375 85.1487 136.643C84.8467 136.907 84.4877 137.11 84.0727 137.251C83.6627 137.388 83.2177 137.456 82.7397 137.456C82.2707 137.456 81.8287 137.39 81.4137 137.259C81.0037 137.127 80.6467 136.934 80.3447 136.68C80.0417 136.426 79.7997 136.116 79.6197 135.75C79.4437 135.384 79.3557 134.966 79.3557 134.497H80.7107C80.7107 134.776 80.7567 135.03 80.8497 135.259C80.9477 135.489 81.0837 135.684 81.2597 135.845C81.4357 136.006 81.6477 136.131 81.8967 136.219C82.1507 136.306 82.4317 136.35 82.7397 136.35C83.0467 136.35 83.3257 136.311 83.5747 136.233C83.8237 136.15 84.0357 136.026 84.2117 135.86C84.3877 135.694 84.5217 135.489 84.6147 135.244C84.7117 134.995 84.7607 134.702 84.7607 134.366C84.7607 134.033 84.7047 133.748 84.5927 133.509C84.4847 133.264 84.3307 133.062 84.1307 132.901C83.9357 132.74 83.6967 132.62 83.4127 132.542C83.1347 132.464 82.8277 132.425 82.4907 132.425H81.5237V131.326Z" fill="#3F484B"/>
<path d="M144.378 137.31H137.391V136.336L140.885 132.454C141.197 132.107 141.458 131.8 141.668 131.531C141.878 131.262 142.047 131.016 142.174 130.791C142.301 130.562 142.391 130.347 142.445 130.147C142.498 129.942 142.525 129.732 142.525 129.517C142.525 129.253 142.481 129.007 142.393 128.777C142.31 128.543 142.186 128.34 142.02 128.169C141.859 127.998 141.661 127.864 141.427 127.766C141.197 127.664 140.936 127.613 140.643 127.613C140.286 127.613 139.976 127.664 139.713 127.766C139.454 127.869 139.237 128.015 139.061 128.206C138.89 128.391 138.761 128.618 138.673 128.887C138.59 129.156 138.548 129.456 138.548 129.788H137.186C137.186 129.339 137.264 128.916 137.42 128.521C137.576 128.12 137.801 127.771 138.094 127.473C138.392 127.176 138.753 126.939 139.178 126.763C139.608 126.587 140.096 126.499 140.643 126.499C141.146 126.499 141.597 126.575 141.998 126.726C142.403 126.873 142.745 127.078 143.023 127.342C143.302 127.605 143.514 127.918 143.66 128.279C143.812 128.64 143.888 129.033 143.888 129.458C143.888 129.776 143.834 130.091 143.726 130.403C143.619 130.711 143.472 131.016 143.287 131.319C143.106 131.621 142.894 131.922 142.65 132.22C142.41 132.512 142.157 132.805 141.888 133.098L139.024 136.204H144.378V137.31ZM150.132 136.995C150.132 137.224 150.102 137.464 150.044 137.713C149.99 137.967 149.907 138.216 149.795 138.46C149.687 138.709 149.555 138.946 149.399 139.17C149.243 139.395 149.062 139.595 148.857 139.771L148.015 139.309C148.249 138.968 148.415 138.604 148.513 138.218C148.611 137.832 148.659 137.432 148.659 137.017V135.706H150.132V136.995ZM168.809 137.31H167.454V128.374L164.663 129.436V128.199L168.699 126.646H168.809V137.31ZM176.708 136.995C176.708 137.224 176.679 137.464 176.62 137.713C176.566 137.967 176.483 138.216 176.371 138.46C176.264 138.709 176.132 138.946 175.975 139.17C175.819 139.395 175.639 139.595 175.434 139.771L174.591 139.309C174.826 138.968 174.992 138.604 175.089 138.218C175.187 137.832 175.236 137.432 175.236 137.017V135.706H176.708V136.995ZM192.572 131.326H193.539C193.881 131.326 194.181 131.28 194.44 131.187C194.704 131.094 194.924 130.967 195.099 130.806C195.28 130.645 195.417 130.452 195.509 130.227C195.602 130.003 195.649 129.756 195.649 129.488C195.649 128.867 195.49 128.401 195.173 128.089C194.855 127.771 194.391 127.613 193.781 127.613C193.493 127.613 193.229 127.657 192.99 127.744C192.756 127.827 192.553 127.95 192.382 128.111C192.216 128.272 192.087 128.465 191.994 128.689C191.901 128.914 191.855 129.165 191.855 129.444H190.492C190.492 129.038 190.571 128.658 190.727 128.301C190.888 127.94 191.113 127.627 191.401 127.364C191.689 127.095 192.033 126.885 192.433 126.734C192.839 126.577 193.288 126.499 193.781 126.499C194.259 126.499 194.696 126.565 195.092 126.697C195.488 126.824 195.827 127.014 196.11 127.268C196.393 127.522 196.613 127.837 196.769 128.213C196.925 128.589 197.004 129.024 197.004 129.517C197.004 129.722 196.972 129.934 196.908 130.154C196.845 130.374 196.747 130.589 196.615 130.799C196.484 131.004 196.313 131.199 196.103 131.385C195.898 131.565 195.651 131.717 195.363 131.839C195.71 131.951 195.998 132.097 196.227 132.278C196.462 132.459 196.647 132.661 196.784 132.886C196.925 133.111 197.023 133.347 197.077 133.596C197.135 133.846 197.165 134.092 197.165 134.336C197.165 134.834 197.079 135.276 196.908 135.662C196.738 136.048 196.501 136.375 196.198 136.643C195.895 136.907 195.536 137.11 195.121 137.251C194.711 137.388 194.267 137.456 193.788 137.456C193.32 137.456 192.878 137.39 192.463 137.259C192.052 137.127 191.696 136.934 191.393 136.68C191.091 136.426 190.849 136.116 190.668 135.75C190.492 135.384 190.404 134.966 190.404 134.497H191.759C191.759 134.776 191.806 135.03 191.899 135.259C191.996 135.489 192.133 135.684 192.309 135.845C192.485 136.006 192.697 136.131 192.946 136.219C193.2 136.306 193.481 136.35 193.788 136.35C194.096 136.35 194.374 136.311 194.623 136.233C194.872 136.15 195.085 136.026 195.26 135.86C195.436 135.694 195.571 135.489 195.663 135.244C195.761 134.995 195.81 134.702 195.81 134.366C195.81 134.033 195.754 133.748 195.641 133.509C195.534 133.264 195.38 133.062 195.18 132.901C194.985 132.74 194.745 132.62 194.462 132.542C194.184 132.464 193.876 132.425 193.539 132.425H192.572V131.326ZM203.284 136.995C203.284 137.224 203.255 137.464 203.196 137.713C203.143 137.967 203.06 138.216 202.947 138.46C202.84 138.709 202.708 138.946 202.552 139.17C202.396 139.395 202.215 139.595 202.01 139.771L201.168 139.309C201.402 138.968 201.568 138.604 201.666 138.218C201.763 137.832 201.812 137.432 201.812 137.017V135.706H203.284V136.995ZM224.261 133.23C224.261 133.909 224.183 134.512 224.027 135.039C223.871 135.562 223.646 136.004 223.353 136.365C223.06 136.721 222.701 136.992 222.276 137.178C221.851 137.364 221.366 137.456 220.819 137.456C220.277 137.456 219.791 137.364 219.361 137.178C218.936 136.992 218.575 136.721 218.277 136.365C217.979 136.004 217.75 135.562 217.589 135.039C217.433 134.512 217.354 133.909 217.354 133.23V130.733C217.354 130.054 217.433 129.453 217.589 128.931C217.745 128.404 217.97 127.959 218.263 127.598C218.56 127.237 218.922 126.963 219.347 126.778C219.776 126.587 220.262 126.492 220.804 126.492C221.351 126.492 221.837 126.587 222.262 126.778C222.691 126.963 223.053 127.237 223.346 127.598C223.643 127.959 223.871 128.404 224.027 128.931C224.183 129.453 224.261 130.054 224.261 130.733V133.23ZM218.717 132.959L222.87 129.773C222.791 129.065 222.584 128.528 222.247 128.162C221.915 127.791 221.434 127.605 220.804 127.605C220.091 127.605 219.564 127.847 219.222 128.33C218.885 128.809 218.717 129.51 218.717 130.432V132.959ZM222.899 131.07L218.753 134.241C218.836 134.929 219.049 135.454 219.391 135.816C219.732 136.177 220.208 136.358 220.819 136.358C221.537 136.358 222.061 136.114 222.393 135.625C222.73 135.137 222.899 134.434 222.899 133.516V131.07Z" fill="#3F484B"/>
<path d="M38.938 193.2H38.438V193.7H38.938V193.2ZM68.2917 193.554C68.4867 193.358 68.4867 193.042 68.2917 192.846L65.1097 189.664C64.9147 189.469 64.5977 189.469 64.4027 189.664C64.2067 189.86 64.2067 190.176 64.4027 190.372L67.2307 193.2L64.4027 196.028C64.2067 196.224 64.2067 196.54 64.4027 196.736C64.5977 196.931 64.9147 196.931 65.1097 196.736L68.2917 193.554ZM38.438 155.2V193.2H39.438V155.2H38.438ZM38.938 193.7H67.9377V192.7H38.938V193.7Z" fill="black"/>
<path d="M39.2916 108.854C39.0964 109.049 38.7798 109.049 38.5845 108.854L35.4026 105.672C35.2073 105.477 35.2073 105.16 35.4026 104.965C35.5978 104.769 35.9144 104.769 36.1097 104.965L38.9381 107.793L41.7665 104.965C41.9618 104.769 42.2784 104.769 42.4736 104.965C42.6689 105.16 42.6689 105.477 42.4736 105.672L39.2916 108.854ZM38.4381 108.5V79.2002H39.4381V108.5H38.4381Z" fill="black"/>
<path d="M176.792 154.846C176.597 154.651 176.28 154.651 176.085 154.846L172.903 158.028C172.707 158.224 172.707 158.54 172.903 158.736C173.098 158.931 173.415 158.931 173.61 158.736L176.438 155.907L179.267 158.736C179.462 158.931 179.779 158.931 179.974 158.736C180.169 158.54 180.169 158.224 179.974 158.028L176.792 154.846ZM176.438 193.2V193.7H176.938V193.2H176.438ZM175.938 155.2V193.2H176.938V155.2H175.938ZM176.438 192.7H147.438V193.7H176.438V192.7Z" fill="black"/>
<path d="M176.085 80.3464C176.28 80.1514 176.597 80.1514 176.792 80.3464L179.974 83.5285C180.169 83.7245 180.169 84.0404 179.974 84.2364C179.779 84.4314 179.462 84.4314 179.267 84.2364L176.438 81.4074L173.61 84.2364C173.415 84.4314 173.098 84.4314 172.903 84.2364C172.707 84.0404 172.707 83.7245 172.903 83.5285L176.085 80.3464ZM175.938 109.7V80.7004H176.938V109.7H175.938Z" fill="black"/>
<defs>
<linearGradient id="paint0_linear_303_83" x1="203.387" y1="8.23371" x2="160.237" y2="4.34031" gradientUnits="userSpaceOnUse">
<stop stop-color="#53C1FF"/>
<stop offset="1" stop-color="#0053D0"/>
</linearGradient>
<linearGradient id="paint1_linear_303_83" x1="198.611" y1="12.8983" x2="164.64" y2="9.36519" gradientUnits="userSpaceOnUse">
<stop stop-color="#53C1FF"/>
<stop offset="1" stop-color="#0053D0"/>
</linearGradient>
<linearGradient id="paint2_linear_303_83" x1="38.4246" y1="-0.228742" x2="1.07941" y2="21.7355" gradientUnits="userSpaceOnUse">
<stop stop-color="#53C1FF"/>
<stop offset="1" stop-color="#0053D0"/>
</linearGradient>
<linearGradient id="paint3_linear_303_83" x1="37.2589" y1="6.34479" x2="7.58561" y2="23.2563" gradientUnits="userSpaceOnUse">
<stop stop-color="#53C1FF"/>
<stop offset="1" stop-color="#0053D0"/>
</linearGradient>
<linearGradient id="paint4_linear_303_83" x1="145.306" y1="175.115" x2="74.5657" y2="222.881" gradientUnits="userSpaceOnUse">
<stop stop-color="#1BC4BF"/>
<stop offset="1" stop-color="#009F9B"/>
</linearGradient>
</defs>
</svg>
