<svg width="24" height="24" viewBox="0 0 24 24" fill="none" xmlns="http://www.w3.org/2000/svg">
<path d="M23.9958 12.2815C23.9363 12.3954 23.8849 12.5146 23.8158 12.6224C23.5945 12.9674 23.2766 13.1624 22.8654 13.1685C22.2182 13.1782 21.5707 13.1764 20.9234 13.17C20.2781 13.1636 19.7772 12.6464 19.7773 11.9999C19.7774 11.3535 20.2754 10.8389 20.9237 10.8303C21.532 10.8221 22.1405 10.8258 22.7488 10.8278C23.3522 10.8298 23.7281 11.0908 23.9462 11.6508C23.956 11.6761 23.9789 11.6964 23.9958 11.719C23.9958 11.9064 23.9958 12.094 23.9958 12.2815Z" fill="white"/>
<path d="M11.7154 24.0003C11.6217 23.9526 11.5256 23.9088 11.4345 23.8564C11.0545 23.6377 10.836 23.3104 10.8286 22.87C10.8175 22.2149 10.8179 21.5593 10.828 20.9042C10.8378 20.2738 11.3597 19.7812 11.9967 19.7812C12.6336 19.7812 13.155 20.2739 13.1654 20.9042C13.1757 21.5359 13.1717 22.168 13.1682 22.7998C13.1652 23.3392 12.8885 23.7369 12.3906 23.937C12.3509 23.9529 12.3153 23.979 12.2779 24.0003C12.0904 24.0003 11.9029 24.0003 11.7154 24.0003Z" fill="white"/>
<path d="M17.2592 11.9958C17.2733 14.8825 14.9232 17.2468 12.0032 17.2612C9.11732 17.2754 6.75397 14.9264 6.73836 12.0041C6.72295 9.12027 9.07502 6.75326 11.9946 6.73835C14.8788 6.72363 17.2449 9.07587 17.2592 11.9958Z" stroke="white" stroke-width="1.5"/>
<path d="M13.1693 2.11324C13.1692 2.43329 13.1744 2.75345 13.1682 3.07341C13.1555 3.7216 12.6425 4.21934 11.995 4.21864C11.3493 4.21789 10.8358 3.71808 10.828 3.06768C10.8204 2.42766 10.8201 1.78736 10.8283 1.14738C10.8365 0.500704 11.3562 -0.000843934 12.0007 1.06615e-06C12.6437 0.000846066 13.1564 0.504314 13.1684 1.15307C13.1743 1.47303 13.1694 1.79318 13.1693 2.11324Z" fill="white"/>
<path d="M2.10878 13.1714C1.78877 13.1714 1.46872 13.1754 1.14885 13.1705C0.504832 13.1605 -0.000422735 12.6426 2.65407e-07 11.9987C0.000423265 11.3553 0.503376 10.838 1.15138 10.8301C1.79126 10.8223 2.43138 10.8222 3.07126 10.8303C3.72034 10.8385 4.21822 11.3541 4.21794 12.0012C4.21766 12.6477 3.71555 13.1609 3.06872 13.1706C2.7488 13.1753 2.42875 13.1714 2.10878 13.1714Z" fill="white"/>
<path d="M6.85268 5.524C6.82732 6.152 6.60944 6.52005 6.16969 6.72981C5.73844 6.93552 5.29738 6.90378 4.94534 6.58208C4.41604 6.09838 3.90431 5.59148 3.42451 5.05894C3.02923 4.62023 3.09727 3.9209 3.51626 3.50792C3.9361 3.09409 4.63284 3.03567 5.06893 3.43194C5.59381 3.90888 6.09569 4.41446 6.57188 4.93996C6.73726 5.12252 6.79642 5.4014 6.85268 5.524Z" fill="white"/>
<path d="M17.1426 18.4446C17.1749 17.8424 17.389 17.4819 17.8198 17.2738C18.2418 17.07 18.6812 17.0888 19.0265 17.3998C19.5706 17.8899 20.0919 18.4099 20.5814 18.9544C20.9675 19.384 20.895 20.0764 20.485 20.4873C20.0824 20.8907 19.3961 20.9756 18.9718 20.5988C18.4129 20.1026 17.89 19.5625 17.3864 19.0096C17.2323 18.8405 17.1926 18.5671 17.1426 18.4446Z" fill="white"/>
<path d="M18.2026 6.84235C17.8449 6.82333 17.4821 6.61377 17.2723 6.18256C17.0626 5.7515 17.0878 5.30837 17.4061 4.95629C17.8919 4.41887 18.4055 3.90234 18.945 3.41897C19.3826 3.02693 20.0905 3.1037 20.4947 3.52429C20.9057 3.95198 20.9561 4.64003 20.5568 5.07805C20.0843 5.59645 19.576 6.08306 19.071 6.5708C18.8688 6.76619 18.6057 6.84832 18.2026 6.84235Z" fill="white"/>
<path d="M5.54205 17.1445C6.14812 17.1747 6.51058 17.385 6.72137 17.8153C6.9323 18.2459 6.90765 18.6892 6.58942 19.0415C6.1037 19.5791 5.58933 20.0948 5.05088 20.5795C4.62165 20.9659 3.93035 20.8989 3.51681 20.4933C3.09875 20.0833 3.02864 19.3789 3.4227 18.942C3.908 18.404 4.42706 17.8934 4.96382 17.4066C5.13982 17.247 5.41663 17.1985 5.54205 17.1445Z" fill="white"/>
</svg>
