<svg xmlns="http://www.w3.org/2000/svg" height="24" viewBox="0 96 960 960" width="24"><path d="M262.5 931q-22.969 0-40.234-17.266Q205 896.469 205 873.5v-566h-11.5q-12.25 0-20.625-8.425-8.375-8.426-8.375-20.5 0-12.075 8.375-20.325T193.5 250h155.686q0-12.425 7.919-20.713Q365.025 221 377.5 221H583q12.475 0 20.439 8.338 7.964 8.337 7.964 20.662h156.3q11.547 0 19.922 8.463T796 278.675q0 12.325-8.412 20.575-8.413 8.25-20.088 8.25h-12v566q0 22.969-17.266 40.234Q720.969 931 698 931H262.5Zm0-623.5v566H698v-566H262.5Zm0 0v566-566Zm217.75 327L576 731q10.5 10 23.75 10t22.75-10q9.5-9.333 10-22.979.5-13.646-10-22.521L527 587.768l95.5-97.731q9.5-9.37 10-23.016.5-13.646-9.814-22.63Q613.232 435 599.433 435q-13.8 0-23.433 9.568L480.5 541.5l-95-97q-8.375-10-22.188-9.75Q349.5 435 339 444.5q-10.5 10-10 23.25T339 491l96 97-96.063 96.563Q329.5 694.5 329.5 707.75q0 13.25 9.565 23.185Q349.5 741 362.75 741q13.25 0 22.687-9.937L480.25 634.5Z"/></svg>