<svg xmlns="http://www.w3.org/2000/svg" height="24" viewBox="0 96 960 960" width="24"><path d="M451.5 691v99q0 12.25 8.425 20.625 8.426 8.375 20.5 8.375 12.075 0 20.325-8.375T509 790v-99h100.5q11.675 0 20.088-8.425 8.412-8.426 8.412-20.5 0-12.075-8.412-20.325-8.413-8.25-20.088-8.25H509V533q0-11.675-8.463-20.088-8.463-8.412-20.212-8.412-12.325 0-20.575 8.412-8.25 8.413-8.25 20.088v100.5h-100q-12.25 0-20.625 8.463t-8.375 20.212q0 12.325 8.375 20.575T351.5 691h100ZM222 971q-22.969 0-40.234-17.266Q164.5 936.469 164.5 913.5v-675q0-22.969 17.266-40.234Q199.031 181 222 181h335q11.911 0 22.706 4.75 10.794 4.75 18.912 12.343l179.264 179.314Q786 385.5 790.75 396.294q4.75 10.795 4.75 22.706v494.5q0 22.969-17.266 40.234Q760.969 971 738 971H222Zm330.5-579V238.5H222v675h516V421H581.5q-12.25 0-20.625-8.375T552.5 392ZM222 238.5V421 238.5v675-675Z"/></svg>