<svg xmlns="http://www.w3.org/2000/svg" height="24" viewBox="0 96 960 960" width="24"><path d="M467 504.5h-31.721q-9.71 0-16.495-6.833-6.784-6.834-6.784-17.12 0-9.854 7.117-16.701Q426.233 457 436.5 457h53.733q10.1 0 17.184 7.117 7.083 7.116 7.083 17.383V669q0 9.845-6.965 16.672-6.965 6.828-17 6.828t-16.785-7.117Q467 678.267 467 668V504.5Zm232.5 280v-130q0-12.25 8.175-20.625 8.176-8.375 20.25-8.375 12.575 0 20.825 8.25T757 653.5v160q0 12.25-8.306 20.375T728.5 842H236l65.5 65.5q9.5 10 9.5 21.75t-8.5 20.25q-9.033 9-20.517 9.5-11.483.5-19.983-8.5L144.548 833.048Q136 824.5 136 813.244q0-11.255 8.5-20.244l116.448-116.448Q269.567 668 281.517 668t20.983 8.553q8.5 9.086 8.5 21.016 0 11.931-8.5 19.931l-66.5 67h463.5ZM261.5 366v130q0 12.25-8.425 20.625-8.426 8.375-20.5 8.375Q220 525 212 516.75T204 497V337q0-11.888 8.125-20.194T232.5 308.5H725L659 243q-8.731-8.63-9.115-21.065Q649.5 209.5 658.25 201q8.75-8.5 20.25-9t20.044 8.044l117.412 117.412Q824.5 326 824.5 337.5t-8.544 20.044L699.548 473.952q-8.615 8.548-20.581 8.548-11.967 0-20.717-8.553-8.75-8.552-8.75-20.483 0-11.931 8.5-20.464l67-67H261.5Z"/></svg>