<svg xmlns="http://www.w3.org/2000/svg" height="24" viewBox="0 96 960 960" width="24"><path d="M140 908.5 46.5 815q-9-8.5-8.5-20t8.5-21q81-95 195.111-145.25 114.11-50.25 238.75-50.25 124.639 0 238.68 50.353 114.041 50.352 195.35 145.058Q922 783.5 922.5 795q.5 11.5-8.115 20.059L821.5 908.5q-8 8-22.5 8.75t-23.094-5.796L662.5 827q-5.5-4.5-8.25-10.25T651.5 804V664.907q-42-15.957-85.75-22.432Q522 636 480.744 636q-42.256 0-85.75 6.5T310 664.952V804q0 7-3 12.75t-8.532 10.282L185 911.5q-12 8.5-23.75 7.5T140 908.5Zm24-56.5 83.5-61.5V689q-39.5 19-74.75 46T106 792l58 60Zm632.5-1 59-59q-32-33.5-69-59T709 685v99.5l87.5 66.5Zm-316-484q-12.5 0-20.5-8.25T452 338V211q0-11.925 8-20.213 8-8.287 20.5-8.287t20.75 8.287q8.25 8.288 8.25 20.213v127q0 12.5-8.25 20.75T480.5 367Zm207 89.647q-9-9.853-8.25-21.823.75-11.971 9.25-20.824l88.376-85.938q8.624-8.562 20.924-8.812 12.3-.25 20.2 9.25 7.5 9 7.25 20.5T817 368l-87 88.5q-8.9 8.5-21.7 8.75-12.8.25-20.8-8.603Zm-452.61-.257-89.28-87.28q-9.61-8.61-9.86-20.655-.25-12.046 8.75-20.955 8.5-8.5 20.983-8.25 12.484.25 21.517 8.75l88 89q8 8 8 19t-8 19.5q-7.9 9.962-19.7 9.731-11.8-.231-20.41-8.841ZM709 685Zm-461.5 4Z"/></svg>