<svg xmlns="http://www.w3.org/2000/svg" height="24" viewBox="0 96 960 960" width="24"><path d="M849.5 750.5 717 618.5v114L659.5 675V318H302l-57.5-57.5h415q22.969 0 40.234 17.266Q717 295.031 717 318v215l132.5-132.5q6.5-6.5 15.75-3.167 9.25 3.334 9.25 12.667v331q0 9.625-9.25 13.062Q856 757.5 849.5 750.5Zm-26.5 250-758-758q-8-7.547-8-19.069 0-11.522 9-20.431 8.5-8.5 20-8.5t20.5 8.5l758 758q7.5 7.93 7.5 19.465t-8.5 20.035q-9 9-20.5 9t-20-9Zm-340-502Zm-319.5-238L221 318h-77.5v516h516v-77.5L716 813v21q0 22.969-17.266 40.234Q681.469 891.5 658.5 891.5h-515q-22.969 0-40.234-17.266Q86 856.969 86 834V318q0-22.969 17.266-40.234Q120.531 260.5 143.5 260.5h20Zm236 316.5Z"/></svg>