<?xml version="1.0" encoding="UTF-8"?>
<svg width="100px" height="100px" viewBox="0 0 100 100" version="1.1" xmlns="http://www.w3.org/2000/svg" xmlns:xlink="http://www.w3.org/1999/xlink">
    <title>Group 4</title>
    <g id="Page-1" stroke="none" stroke-width="1" fill="none" fill-rule="evenodd">
        <g id="web_05_02" transform="translate(-369.000000, -4786.000000)">
            <g id="Group-4" transform="translate(419.000000, 4836.000000) scale(-1, 1) translate(-419.000000, -4836.000000) translate(369.000000, 4786.000000)">
                <g id="Group" transform="translate(13.524213, 16.500000)">
                    <g id="lady" transform="translate(0.475787, 0.500000)"></g>
                    <path d="M41.1571361,0 C43.2872366,0 46.4762791,1.63073313 46.7552722,3.82640304 C46.9412868,5.29033443 46.8375235,6.15042186 46.4333296,7.32288148 L46.1215442,8.18896679 L46.0210237,8.49547549 C45.9138771,8.80562816 45.7596624,9.11160781 45.5429167,9.46719671 L45.0117868,10.285 L45.2080241,10.260765 C45.2789355,10.2497028 45.3510497,10.2362576 45.425324,10.2200694 L45.6555846,10.1629167 L45.8879734,10.0931936 C45.97112,10.0665834 46.0607664,10.0363692 46.1593614,10.0018459 L47.0874197,9.66140071 C47.3657424,9.55937082 47.5937815,9.47941824 47.818,9.40666249 C49.2665728,8.93662107 50.6288727,9.33398886 51.5997981,10.1349294 C52.956016,11.2537075 53.7266212,13.1549618 53.3234967,15.0913369 C53.1390375,15.9773716 52.8350139,16.9522548 52.3327479,18.3334348 L51.0946095,21.6630608 L50.9880625,21.9645084 L50.9307016,22.1229926 C50.8460022,22.3548441 50.6892894,22.7571293 50.5300397,23.162598 L50.1467868,24.137 L50.2326797,24.1152483 C50.5828073,24.0375369 50.9675991,24.0037926 51.3256108,24.0292573 L51.5367126,24.0517631 C52.5051981,24.1915079 53.1513992,24.795196 53.1513992,25.8167491 C53.1513992,27.5286845 51.6390748,30.6807351 50.2156989,32.1677613 L49.1013105,33.328873 L48.1983016,34.2515012 L47.6055306,34.8416183 C46.5475754,35.8807725 45.7993968,36.5298761 45.3498933,36.7527123 C44.2474086,37.2992566 43.4743634,37.0337404 42.6391629,35.903441 C41.9679453,34.9950641 41.6260092,33.7253196 41.4152432,31.6568443 L41.3435583,30.8740797 L41.1927986,28.9970426 C41.1011586,27.9312988 41.0193389,27.3206328 40.9029755,26.9199137 L40.8466549,26.7489814 L41.7831446,26.3982863 C41.9600028,26.8705652 42.0595235,27.4778477 42.1641068,28.6264347 L42.3585659,31.0057059 L42.3771656,31.2138317 C42.5692964,33.3211587 42.8751577,34.5401148 43.44342,35.3091595 C44.0109747,36.0772466 44.2768028,36.16855 44.9057366,35.8567632 C45.2506229,35.6857898 46.0436762,34.9834426 47.1304358,33.9052143 L47.6429044,33.391105 L48.3828865,32.6332672 L49.4933005,31.4762842 C50.7515955,30.1617209 52.1513992,27.2441908 52.1513992,25.8167491 C52.1513992,25.3427348 51.9084365,25.1157564 51.3938995,25.0415128 C50.9165252,24.9726314 50.2877222,25.083765 49.9666577,25.2576684 C49.5461719,25.4854227 49.0700244,25.4561219 48.9579183,24.90456 C48.9140467,24.6887121 48.9638867,24.465544 49.0926478,24.0961782 L49.9500965,21.8912274 L50.4706295,20.4560253 L51.1497301,18.6511492 C51.7848339,16.9500032 52.1450168,15.8456618 52.3444873,14.8875217 C52.6679611,13.3337423 52.0460779,11.7994183 50.9634495,10.9063311 C50.2341654,10.3047264 49.2105155,10.0061391 48.1266438,10.3578402 L47.8005018,10.4679107 L46.6535483,10.8874277 C46.3613866,10.9928015 46.1328108,11.0683867 45.9225063,11.1266349 C45.4248027,11.2644842 45.0206193,11.3056889 44.5764477,11.3056889 C43.8809844,11.3056889 43.6514875,10.7659367 43.9116813,10.1976383 C43.9631568,10.085209 44.0303882,9.96648039 44.1267249,9.8137022 L44.5637028,9.14673719 C44.7733027,8.82021402 44.9218141,8.55398563 45.0216653,8.31172101 L45.086075,8.1386092 L45.1739302,7.86946919 L45.3960792,7.25450437 C45.8297889,6.07419713 45.9413497,5.35410762 45.7632485,3.95245465 C45.5713226,2.44200215 43.0250056,1.09285297 41.3293797,1.00458797 L41.1571361,1 L31.9848701,1 C29.8482785,1 26.9019239,3.45917529 24.6326413,6.55288184 L23.4376381,8.23374707 C23.0494724,8.78662657 22.9339397,8.96695856 22.6951009,9.35017041 C22.3363171,9.92583118 22.0408352,10.4744937 21.7520457,11.109315 C21.5091217,11.6433142 21.2662026,12.2494288 21.0017468,12.9826741 C19.7411473,16.4778854 20.0224348,18.4507019 22.8037918,20.2794003 L23.0170962,20.416304 L22.4859441,21.2635805 C19.0367377,19.1012954 18.6266443,16.6205421 20.0610589,12.6434011 C20.3341385,11.8862446 20.5869022,11.2555667 20.8418059,10.6952336 C21.0874555,10.155243 21.3388933,9.67159162 21.6249519,9.18636078 L22.0467797,8.50280682 C22.2588671,8.1712174 22.4623705,7.87771665 23.0887726,6.99476936 L23.6067989,6.26543661 C26.0096089,2.88437495 29.1577731,0.159706784 31.7569854,0.00677151013 L31.9848701,0 L41.1571361,0 Z" id="Path" fill="#062D56" fill-rule="nonzero"></path>
                    <path d="M42.4844782,24.1431187 L42.5600942,24.0925814 L42.7521028,23.9860404 C43.0708279,23.8039196 43.6945511,23.4375631 43.9660138,23.2346992 C45.3773824,22.1799842 46.0250074,21.3695007 46.0250074,20.0915535 C46.0250074,18.7346485 45.3392328,18.0393111 44.1045278,17.679137 C43.1859902,17.4111916 41.5394462,17.677402 40.9877821,18.2252487 L40.9062884,18.3191209 C40.8424913,18.406065 40.6167416,18.5162323 40.1572596,18.6450957 L39.8965651,18.7143587 C39.8009897,18.7385775 39.6954246,18.7642762 39.5759324,18.7925012 L38.3659145,19.0686499 C38.0282206,19.1460681 37.7497526,19.2319316 37.3434475,19.3779207 L36.9077242,19.5376947 C35.6964011,19.9820748 34.9580553,20.0791309 33.5835393,19.8162962 C31.6481856,19.4462183 29.7859565,18.1819465 28.3935329,16.7463657 C27.8202191,16.1552824 26.6853918,13.8184872 26.6852604,13.4996968 L26.6999701,13.2454982 C26.7007598,13.1835331 26.6947576,13.1403851 26.6786995,13.073328 C26.6124316,12.7966 26.3755745,12.6135192 26.0834904,12.6203193 C25.8354201,12.6264528 25.5451195,12.7640283 24.9629253,13.1101987 C23.6940171,13.8646868 22.8587404,15.6097232 22.4344051,18.0742928 C22.0860639,20.0974829 22.6711069,24.0399972 23.4154376,25.9768475 C24.1283892,27.8320449 25.2514949,29.9797164 26.3059848,31.3170792 C27.4939599,32.8237352 29.0056735,33.741752 30.8230073,34.1178027 C32.3791836,34.4398134 34.2664765,33.8303603 36.598643,32.5588165 C38.4107886,31.5707986 40.3887033,29.8156401 41.0384854,28.5540115 C41.2758339,28.0931712 41.506367,27.4575589 41.7332554,26.6820906 C41.8237788,26.3726959 41.9109389,26.0504395 41.994897,25.7189322 L42.1184531,25.2151845 C42.1979592,24.8807575 42.2368184,24.7061974 42.325951,24.2956933 C42.3316493,24.2694496 42.372956,24.2212534 42.4844782,24.1431187 Z M25.4740018,13.969734 L25.7407868,13.814 L25.7505901,13.848156 C26.0168009,14.7741195 27.0359388,16.782991 27.6757187,17.4426005 C29.1982252,19.012296 31.2150284,20.3815084 33.3957225,20.7985003 C34.86282,21.0790384 35.7581766,20.9929024 36.9840581,20.5718532 L37.4747747,20.3943998 C37.8970296,20.2386821 38.1630032,20.1496176 38.4457819,20.077966 L39.9867437,19.7223397 C40.1551007,19.6812819 40.2971088,19.6444572 40.4272944,19.6079462 C41.0910046,19.4218063 41.4750048,19.2344118 41.7125248,18.9107145 C41.8685059,18.6981401 43.2163751,18.4617336 43.8244907,18.6391261 C44.6734952,18.8867881 45.0250074,19.2432019 45.0250074,20.0915535 C45.0250074,20.9520078 44.5431776,21.5550034 43.3673992,22.433662 L43.2039244,22.5465072 C42.7845326,22.8215175 42.0011778,23.2630489 42.0202184,23.2508367 C41.6484479,23.4892818 41.4250818,23.7318277 41.3487216,24.0835078 L41.2131879,24.6953638 L41.1455687,24.9838926 C41.0280467,25.4782257 40.9039854,25.9552751 40.773492,26.4012807 C40.562997,27.1207191 40.351472,27.7039234 40.1494684,28.0961372 C39.6048917,29.1534972 37.7715963,30.7803237 36.1199497,31.6808344 C33.986476,32.8440468 32.2743461,33.3969355 31.025639,33.1385476 C29.4361905,32.809652 28.1316989,32.0174747 27.0912452,30.6979135 C26.1077583,29.4506008 25.0287793,27.3873109 24.348882,25.6181252 C23.6644313,23.8370909 23.1054614,20.0702794 23.4199047,18.2439704 C23.7993253,16.0402689 24.5184449,14.5379045 25.4740018,13.969734 Z" id="Path-2" fill="#062D56" fill-rule="nonzero"></path>
                    <path d="M26.8459047,21.0984941 C27.1180522,21.0516926 27.3766114,21.2343716 27.4234128,21.5065191 C27.6541682,22.8483465 27.6698764,23.2317067 27.5443022,24.3981718 C27.4989191,24.8197376 27.3645225,25.2171792 27.148917,25.6456644 L26.9976266,25.9281288 L26.6717868,26.489 L26.7134341,26.5603772 C26.7755001,26.6608071 26.8132115,26.6991428 26.8757527,26.7104599 L27.0387413,26.7268288 C27.2727003,26.7799246 27.5003881,26.8063268 27.8475754,26.8273525 L28.3463214,26.8571379 C28.6217582,26.876865 28.829052,27.1161426 28.8093249,27.3915794 C28.7895978,27.6670163 28.5503202,27.87431 28.2748834,27.854583 L27.7871259,27.8255238 C27.4697258,27.8063019 27.2300083,27.7820215 26.9944561,27.7385006 L26.8597868,27.711 L26.7842632,27.7074427 C26.4138547,27.6703867 26.1464953,27.4876089 25.9381998,27.199141 L25.8627717,27.0860895 L25.7232574,26.8440952 L25.6727691,26.7515277 C25.5610932,26.5106976 25.6299463,26.3113137 25.8037778,25.9928714 L26.1583833,25.3804378 C26.3830132,24.972453 26.5138266,24.6275899 26.550047,24.2911367 L26.5939492,23.8458919 C26.6568566,23.1079084 26.6202672,22.7365735 26.4378797,21.6760021 C26.3910783,21.4038547 26.5737573,21.1452955 26.8459047,21.0984941 Z" id="Path-3" fill="#062D56" fill-rule="nonzero"></path>
                    <path d="M30.7704571,33.8943281 C29.9487298,35.8326942 28.7204934,36.8518259 26.4641799,37.3829398 L26.07655,37.4677179 C25.2682788,37.6320826 24.2539029,37.76701 22.8887775,37.9033233 L18.5809855,38.2896491 C18.2829803,38.31846 18.027012,38.3450156 17.7993547,38.3706547 L17.4457257,38.4376765 C14.6280265,38.9719663 13.3643914,39.4039295 11.84839,40.591379 C11.5594161,40.8177257 11.2750891,41.0673678 10.9939378,41.3426292 C9.14743133,43.1504518 8.58081395,44.6456045 8.11658179,48.2659727 L8.07045624,48.6351839 C8.01206445,49.1144163 7.96203735,49.593138 7.91507882,50.1137837 L7.80071275,51.526163 L7.62181346,53.8645587 C7.47107357,55.7109603 7.33452525,56.9621347 7.08507717,58.7247354 L6.97897537,59.459675 C6.56111294,62.3045782 6.97497233,63.0851782 5.00965475,68.7965146 L4.22578681,68 C6.05977063,62.643978 5.59520326,61.9994349 5.98959093,59.3143531 L6.14245869,58.2450345 C6.40585784,56.3401999 6.53642333,54.9925518 6.71813639,52.5969295 L6.86841571,50.6153897 L6.88386769,50.4290187 C6.93040731,49.8754285 6.97884135,49.3740739 7.03455927,48.8821129 L7.07779764,48.514234 C7.57679881,44.4188382 8.18615142,42.6921149 10.2943554,40.6280772 C10.6015874,40.3272816 10.9135767,40.0533517 11.2317554,39.8041296 C12.767491,38.6012226 14.0624105,38.1020711 16.550266,37.5943889 L17.6486211,37.3827495 L18.2529959,37.3175457 L21.7076055,37.0102952 C23.8559706,36.8176716 25.242844,36.6430995 26.235052,36.4095435 C28.0991625,35.9707503 29.0674426,35.2154899 29.7573591,33.7135083 L30.7704571,33.8943281 Z" id="Path-4" fill="#062D56" fill-rule="nonzero"></path>
                    <path d="M25.3974318,36.9385462 L26.3692805,37.174152 L26.1047508,38.2870885 C25.7512174,39.8081057 25.5215251,40.9529721 25.4164485,41.7078166 L25.3887868,41.92 L27.1970463,40.5017552 L27.2878731,40.4326212 C28.2347957,39.720785 29.0666561,39.2041381 29.8729212,38.8743071 L30.140851,38.7712711 L30.4793774,39.712228 C29.7018395,39.9919615 28.8678821,40.4959136 27.8887611,41.2319545 L26.0785108,42.6516211 C26.0103663,42.7040412 25.9564166,42.744765 25.9214603,42.7698418 C25.6002009,43.0003048 25.3705916,43.1288651 25.148306,43.1701663 C24.6735398,43.2583789 24.3500554,42.9220382 24.3500554,42.4528337 L24.3573066,42.2288498 C24.4032375,41.4530205 24.6674311,40.0439089 25.151619,37.9704959 L25.3974318,36.9385462 Z" id="Path-5" fill="#062D56" fill-rule="nonzero"></path>
                    <path d="M29.060163,35.1851088 C29.3363053,35.1851088 29.560163,35.4089664 29.560163,35.6851088 C29.560163,36.8084513 29.8999582,37.886202 30.6608091,38.9913046 L30.8439015,39.246847 C31.0935963,39.5822709 31.3421783,39.9836848 31.6001065,40.4615406 L31.8119357,40.86654 C32.0619849,41.3591464 32.3256014,41.9285883 32.6381136,42.642704 L33.6187868,44.939 L35.1700497,41.4800123 C35.5772947,40.5624693 36.0456893,39.5031351 36.5752117,38.3020575 C36.6866096,38.0493816 36.9817497,37.9348532 37.2344256,38.0462511 C37.4871016,38.157649 37.60163,38.4527892 37.4902321,38.7054651 L35.5178723,43.1583293 L34.6448423,45.1002529 L34.1809091,46.1001769 L34.1043005,46.2552416 C34.0725312,46.3168328 34.0725312,46.3168328 34.0422323,46.3702064 L34.0543527,46.3905409 C34.0668911,46.4275651 33.9879952,46.4513975 33.435724,46.6182245 C33.2997153,46.5738135 33.1892481,46.4732647 33.1322754,46.3420214 L31.857253,43.3546415 L31.5955659,42.7566714 C31.2622004,42.0054993 30.9869064,41.4308066 30.7201133,40.936527 C30.5308522,40.5858886 30.3496826,40.2843297 30.1732475,40.0278993 L30.0417565,39.8439764 C29.0253354,38.478582 28.560163,37.1130093 28.560163,35.6851088 C28.560163,35.4089664 28.7840206,35.1851088 29.060163,35.1851088 Z" id="Path-6" fill="#062D56" fill-rule="nonzero"></path>
                    <path d="M42.6728033,31.8767674 C42.897782,31.7166451 42.8791786,34.4339724 43.0393009,34.6589512 C43.1994233,34.88393 43.1468467,35.1961161 42.921868,35.3562384 L42.4410437,35.6863463 C42.219815,35.8338178 41.9559487,36.0051107 41.6207931,36.2193315 L39.0156281,37.8738486 L38.5497868,38.18 L39.0720396,38.3857481 C39.4821572,38.5521456 39.9514575,38.7531172 40.4761251,38.9858411 L41.1548905,39.2905694 L41.8344107,39.6017763 L43.4557868,40.361 L43.6452287,38.6839226 C43.8194369,37.2398522 43.9530849,36.8265371 44.400483,36.6073421 C44.5047298,36.5562681 44.6234998,36.543059 44.736421,36.5699804 C45.766837,36.8156409 47.0989175,36.9929306 49.2055645,37.1932304 L52.2663066,37.47108 L53.3942464,37.5582611 C56.0799278,37.769359 57.4284359,38.0883719 58.393958,39.0360943 C59.960695,40.573948 61.109467,43.4827573 61.3700315,47.1380338 L61.654468,51.2327456 L61.7575533,52.8850875 C61.8923841,55.1686735 61.9660402,57.0178651 61.9758746,58.5951978 L61.9785709,59.2003637 C61.9915636,60.2607956 62.0875969,61.9666428 62.338678,65.6391644 L63.1007868,72.5625 C62.421581,72.5625 64,72 62.3700315,73.0944084 L61.1755451,63.2230113 C61.0388447,61.0884924 60.9842532,59.9299554 60.9776932,59.1197483 L60.9770099,58.9544457 C60.9770099,57.0886516 60.8807508,54.822491 60.6928928,51.8613886 L60.5628459,49.9041409 L60.3725626,47.2091379 C60.1281535,43.7804933 59.0698531,41.1007675 57.69346,39.7497487 C56.9945532,39.0637264 55.8595998,38.7725951 53.6271733,38.5807581 L51.9435133,38.447283 L49.4934106,38.2245891 C47.5135426,38.0415614 46.1692242,37.8808528 45.1092121,37.6733718 L44.8227868,37.614 L44.7562563,38.0139594 C44.7152974,38.2720259 44.6636716,38.6215961 44.6112374,39.0471138 L44.4344541,40.6014076 C44.4088224,40.8114721 44.3841237,40.99809 44.358066,41.1769624 C44.3099036,41.5075726 43.9572724,41.6988455 43.6538846,41.5589219 L42.509701,41.0204079 C41.9890137,40.7753979 41.5242319,40.5589456 41.0756248,40.3534769 L40.3476971,40.0234824 C38.9732431,39.4075487 37.9517685,38.994979 37.3625784,38.8372734 C37.1334918,38.7466011 36.9987393,38.5108032 37.0407987,38.2654165 C37.0602205,38.1521041 37.1047104,38.0729608 37.1668988,37.9954952 C37.2213702,37.9276424 37.292083,37.8623413 37.388152,37.7848611 L37.5968959,37.6263669 C37.6780223,37.5674778 37.7708264,37.5023912 37.875706,37.4306878 L38.4672431,37.0375917 L41.5178676,35.0963221 C41.8727811,34.8658771 42.4568854,32.0304409 42.6728033,31.8767674 Z" id="Path-7" fill="#062D56" fill-rule="nonzero"></path>
                    <path d="M32.4757868,45.6302335 L33.4087098,45.5 L33.4642257,45.9759002 C33.6544014,47.7953776 33.7991148,51.1558691 33.8323217,53.7212259 L33.8390593,55.0781725 L33.8274306,59.942173 L33.8424264,62.8133943 C33.8707219,65.7203355 33.939495,67.833993 34.0580238,68.9100573 L34.1285031,69.4681363 C34.335022,71.2343309 34.4491932,74.7367424 34.4737473,79.9980756 L34.4757868,80.4964793 L33.5343307,80.5 L33.5235401,78.6349854 C33.4867348,74.1654333 33.3763045,71.1440273 33.1943168,69.5879595 L33.1569657,69.2962889 C33.0175325,68.3057127 32.9390255,66.2146422 32.905323,63.2356855 L32.8897717,61.2327611 C32.8864635,60.5273872 32.8852172,59.8127352 32.8856875,59.0479304 L32.8980713,54.7651719 L32.8950965,54.1172051 C32.8715084,51.4256171 32.7101803,47.6242953 32.5020414,45.8422462 L32.4757868,45.6302335 Z" id="Path-8" fill="#062D56" fill-rule="nonzero"></path>
                    <path d="M37.2254953,50.4550801 C36.2866112,50.4550801 35.5254953,51.2161961 35.5254953,52.1550802 C35.5254953,53.0939643 36.2866112,53.8550802 37.2254953,53.8550802 C38.1643794,53.8550802 38.9254954,53.0939643 38.9254954,52.1550802 C38.9254954,51.2161961 38.1643794,50.4550801 37.2254953,50.4550801 Z M37.2254953,51.4550801 C37.6120947,51.4550801 37.9254954,51.7684808 37.9254954,52.1550802 C37.9254954,52.5416795 37.6120947,52.8550802 37.2254953,52.8550802 C36.838896,52.8550802 36.5254953,52.5416795 36.5254953,52.1550802 C36.5254953,51.7684808 36.838896,51.4550801 37.2254953,51.4550801 Z" id="Oval" fill="#062D56" fill-rule="nonzero"></path>
                    <path d="M37.2254953,55.2550803 C36.2866112,55.2550803 35.5254953,56.0161963 35.5254953,56.9550804 C35.5254953,57.8939645 36.2866112,58.6550804 37.2254953,58.6550804 C38.1643794,58.6550804 38.9254954,57.8939645 38.9254954,56.9550804 C38.9254954,56.0161963 38.1643794,55.2550803 37.2254953,55.2550803 Z M37.2254953,56.2550803 C37.6120947,56.2550803 37.9254954,56.568481 37.9254954,56.9550804 C37.9254954,57.3416797 37.6120947,57.6550804 37.2254953,57.6550804 C36.838896,57.6550804 36.5254953,57.3416797 36.5254953,56.9550804 C36.5254953,56.568481 36.838896,56.2550803 37.2254953,56.2550803 Z" id="Oval-Copy" fill="#062D56" fill-rule="nonzero"></path>
                    <path d="M37.2254953,61.2550806 C36.2866112,61.2550806 35.5254953,62.0161965 35.5254953,62.9550806 C35.5254953,63.8939647 36.2866112,64.6550807 37.2254953,64.6550807 C38.1643794,64.6550807 38.9254954,63.8939647 38.9254954,62.9550806 C38.9254954,62.0161965 38.1643794,61.2550806 37.2254953,61.2550806 Z M37.2254953,62.2550806 C37.6120947,62.2550806 37.9254954,62.5684813 37.9254954,62.9550806 C37.9254954,63.34168 37.6120947,63.6550807 37.2254953,63.6550807 C36.838896,63.6550807 36.5254953,63.34168 36.5254953,62.9550806 C36.5254953,62.5684813 36.838896,62.2550806 37.2254953,62.2550806 Z" id="Oval-Copy-2" fill="#062D56" fill-rule="nonzero"></path>
                </g>
                <circle id="Oval" stroke="#000000" cx="50" cy="50" r="49.5"></circle>
            </g>
        </g>
    </g>
</svg>
