<?xml version="1.0" encoding="UTF-8"?>
<svg width="98px" height="98px" viewBox="0 0 98 98" version="1.1" xmlns="http://www.w3.org/2000/svg" xmlns:xlink="http://www.w3.org/1999/xlink">
    <title>Group 3</title>
    <g id="Page-1" stroke="none" stroke-width="1" fill="none" fill-rule="evenodd">
        <g id="web_05_02" transform="translate(-972.000000, -4787.000000)">
            <g id="Group-3" transform="translate(1021.000000, 4836.000000) scale(-1, 1) translate(-1021.000000, -4836.000000) translate(972.000000, 4787.000000)">
                <circle id="Oval" stroke="#000000" cx="49" cy="49" r="48.5"></circle>
                <g id="guy" transform="translate(16.300014, 15.000000)" fill="#062D56" fill-rule="nonzero">
                    <path d="M28.787524,26.0868327 L29.7106687,25.1072572 C29.7438613,25.0713149 29.7762743,25.035987 29.8086002,25.0005175 C30.5344429,24.204088 31.0578659,23.4933135 31.5116404,22.614621 C31.8307997,21.9965986 31.9500954,21.6484871 31.8874943,21.3369161 C31.8080012,20.9412722 31.5973502,20.8183666 31.1954422,20.7527949 L30.8411397,20.7020588 C30.7164731,20.6808798 30.6384923,20.6584971 30.5598536,20.6212828 L30.5000114,20.5903782 C29.6906679,20.1410681 29.6036377,20.0390599 29.6036377,19.5009811 C29.6036377,18.9989714 30.3378829,18.4049728 30.9674072,18.4049728 C31.4339088,18.4049728 31.5669877,18.5548956 31.8159975,19.3411518 C32.1342912,19.9801059 32.6414824,19.8712396 33.0295464,19.4902225 C33.1006636,19.4203967 33.1735637,19.3387507 33.2571979,19.2368826 L33.6539202,18.7264721 C33.7959995,18.542421 33.9012011,18.4137606 34.0003237,18.3058807 C34.0885279,18.2098836 34.165262,18.1384409 34.2287243,18.0924601 L35.762698,16.9347831 L35.8447719,16.8741244 C36.0960303,16.6900228 36.3295327,16.5251416 36.5516653,16.3760013 L37.6186759,15.704645 L43.9602167,11.8562379 C44.5310043,11.5082761 44.9856647,11.2296367 45.3600311,10.9982685 C47.5232756,9.66132664 48.650593,7.76004496 48.8670537,5.46492163 C49.0833966,3.17104727 48.0808604,1.24092413 46.1068844,0.66451813 C44.6556593,0.240756719 43.3428986,0.597538605 41.6164075,1.5920291 L41.1215207,1.88666314 L39.8206189,2.6992188 C38.6225177,3.44472272 37.8126467,3.81815895 36.7272012,4.04439831 C35.9672505,4.2027948 35.4324124,4.24197214 34.5466334,4.226832 L33.4998211,4.20484665 C33.1190768,4.20225454 32.8373692,4.21286851 32.4887656,4.24259644 C30.8158641,4.38525675 29.7196212,4.70112432 27.3702662,5.74320531 C25.452957,6.59364791 23.9339842,7.89541475 22.6720416,9.42847592 L22.1479946,10.0861965 L21.9647497,10.3273142 C21.937825,10.3641269 21.9122916,10.3998514 21.8875246,10.4353857 C21.2966801,11.2830962 21.1671653,12.0821365 21.5180913,13.3601225 L21.6459832,13.8079851 C21.7907364,14.2992773 21.9874641,14.9256622 22.2486835,15.7303777 L24.0730945,21.2327561 L24.2743565,21.8458022 C24.4238922,22.2945812 25.1249609,24.2773944 25.2785337,24.7610218 C25.5414441,25.5889724 25.6798645,26.213223 25.7073788,26.7599699 L25.7125244,26.9616134 C25.7125244,27.8264781 26.2026372,28.3110455 26.9091594,27.9489508 C27.166369,27.8171301 27.4290084,27.5873494 27.7924633,27.1989203 L28.2210528,26.7236474 L28.7123168,26.1688901 L28.787524,26.0868327 Z M28.9754633,24.4294104 L27.972986,25.4955477 L27.1995525,26.3663809 C27.0659392,26.5130292 26.948409,26.6364089 26.8458711,26.7373558 L26.71,26.864 L26.7125244,26.9616134 C26.7125244,26.3229107 26.588688,25.6483924 26.3335017,24.7894213 L26.2316351,24.4583706 C26.1817762,24.3013561 26.0787139,23.9988682 25.9561548,23.6439121 L25.1608268,21.3413772 L23.2308787,15.5171164 C22.8702149,14.4081772 22.6306181,13.6351159 22.482397,13.095331 C22.2091963,12.1004015 22.2889637,11.6082772 22.7079155,11.0071888 L22.8484809,10.8151817 L23.2092859,10.3560184 C24.42761,8.80578944 25.9055489,7.48685486 27.7757298,6.6573165 C30.0306942,5.65710342 31.0228109,5.37123842 32.5737344,5.23898006 L32.8767322,5.21757814 C33.07358,5.20691557 33.2679377,5.20321401 33.5066741,5.2049751 L34.2103941,5.21949279 C35.3601807,5.25076884 35.9951328,5.21847389 36.9312461,5.02335984 C38.0505057,4.7900726 38.9064912,4.41894023 40.0342266,3.74091988 L41.8541678,2.61219292 C43.4995205,1.62657944 44.6417692,1.27846152 45.8265873,1.62443142 C47.2866595,2.05077622 48.0466242,3.5138909 47.8714717,5.37102499 C47.6837507,7.36142232 46.7243372,8.9795251 44.8343048,10.1476147 L41.9452299,11.911046 L36.2276932,15.3919565 C35.9987682,15.5398138 35.7620964,15.7017288 35.5105287,15.8815502 L35.2537309,16.0674829 C34.9099073,16.3194087 33.8231967,17.1513899 33.6420032,17.2826711 C33.5171568,17.3731267 33.393839,17.4879409 33.2639607,17.629294 C33.1719603,17.7294225 33.080989,17.8375827 32.9745482,17.9718154 L32.569,18.495 L32.5498197,18.4475638 C32.2352096,17.7306245 31.7993344,17.4049728 30.9674072,17.4049728 C29.8267328,17.4049728 28.6036377,18.394447 28.6036377,19.5009811 C28.6036377,20.4853674 28.9213237,20.8577277 30.014637,21.4646846 L30.1200297,21.5201301 C30.2832636,21.6007423 30.4259628,21.6444675 30.6252825,21.6800397 L30.834,21.712 L30.7429876,21.9143681 C30.709184,21.9854806 30.6694426,22.0660845 30.6231252,22.1557738 C30.2654767,22.8483271 29.8582428,23.4271856 29.3122512,24.0545898 L28.9754633,24.4294104 Z" id="Path-9"></path>
                    <path d="M43.3666402,11.148723 C43.6294473,11.0639465 43.9112194,11.2082688 43.9959959,11.4710759 C44.3904027,12.6937369 44.4237279,16.0697879 44.0136758,18.5947418 C43.6153038,21.0477734 42.842693,23.2929839 41.7064674,25.574182 C40.5252616,27.9456867 38.1745416,29.744231 35.4795646,29.9531596 C33.6875095,30.0920891 32.6926232,29.9327467 31.3468485,29.4118255 L30.5711625,29.0997262 C30.4497554,29.0518712 30.3450149,29.0122631 30.2365727,28.9733002 C29.9766957,28.8799271 29.8417176,28.5935613 29.9350906,28.3336842 C30.0284637,28.0738072 30.3148295,27.938829 30.5747066,28.0322021 L30.934226,28.1679465 L31.4499689,28.376708 C32.8056838,28.9290315 33.65851,29.0913367 35.4022713,28.9561512 C37.7217162,28.7763358 39.7779523,27.2031022 40.8113549,25.1283418 C41.9052821,22.932066 42.6455539,20.7808329 43.0266074,18.4344421 C43.4135244,16.0519462 43.3816604,12.8239354 43.0442873,11.7780787 C42.9595108,11.5152716 43.1038331,11.2334995 43.3666402,11.148723 Z" id="Path-10"></path>
                    <path d="M25.8119552,26.9864178 C25.9503502,26.7474587 26.2562561,26.6659354 26.4952152,26.8043304 C26.7341743,26.9427254 26.8156976,27.2486313 26.6773026,27.4875904 C26.5510063,27.7056592 26.4249718,27.9418986 26.2921097,28.2075915 L26.1567091,28.48352 C26.0077383,28.7924337 25.5334619,29.8263424 25.4617373,29.9775465 L25.2731225,30.3636993 C25.0944713,30.7165947 24.942344,30.9744635 24.7864425,31.1800199 C23.8255962,32.4468973 22.6467369,33.5314987 21.4688722,33.8855207 C19.8810593,34.3627579 18.0567264,35.2378692 16.5220815,36.3839549 L16.1810969,36.6453694 C14.7648956,37.7597518 13.3793436,39.2130889 11.0327447,41.9246692 C9.2812216,43.9486178 6.74597688,49.3356465 5.24757824,53.9181557 C4.1271222,57.3448139 2.39503231,65.7173352 1.85461561,69.6940969 L0.917918877,69.1732921 C1.51940153,65.0082189 3.19102178,56.9900515 4.2970995,53.6073661 C5.83356454,48.9084396 8.41690958,43.4192047 10.2765814,41.2702862 L11.0966828,40.3295911 C13.1812938,37.9590048 14.4854076,36.6568723 15.9237193,35.5827291 C17.5577383,34.36243 19.4868921,33.4370374 21.1810301,32.9278429 C22.096327,32.6527389 23.1488267,31.6843938 23.9896806,30.5757265 C24.1249453,30.3973797 24.2763001,30.129748 24.4717091,29.7289941 L25.255975,28.0491492 C25.4503578,27.6460667 25.6294045,27.3016181 25.8119552,26.9864178 Z" id="Path-11"></path>
                    <path d="M34.013592,28.9962021 L34.1037101,29.0008117 C34.3771315,29.039482 34.5674348,29.2924822 34.5287645,29.5659036 L34.4005119,30.3910948 C34.3285473,30.8161345 34.2028215,31.5290228 34.1958136,31.5704908 L34.128889,31.9918073 C34.0913601,32.2488718 34.0674035,32.4643945 34.0534019,32.6748824 C34.0179345,33.2080717 34.0508306,33.7034014 34.1691995,34.279134 C34.3128497,34.9778323 34.5076143,35.4669473 34.8338132,35.9689492 C35.019872,36.2552833 35.2538317,36.5561282 35.6067531,36.9690979 L36.8029769,38.3365259 C36.9852706,38.5460256 37.1755845,38.7545435 37.3839732,38.9740568 L37.8269884,39.4304969 L38.5756838,40.177883 C40.1649543,41.7621978 40.9623581,42.7575153 41.6988515,44.3084072 C43.0719933,47.1999396 44.2977796,50.9441939 44.8043933,54.0420771 L44.8892955,54.6039337 L45.1167155,56.3820153 C45.2208572,57.195857 45.313983,57.8543971 45.4237777,58.524173 C45.7161144,60.3075022 46.0889139,61.9004543 46.6028974,63.407218 C47.4679368,65.9431158 48.686444,68.0723525 50.3547321,69.7518209 C50.5493411,69.947734 50.5482839,70.2643147 50.3523707,70.4589237 C50.1564576,70.6535327 49.8398768,70.6524754 49.6452679,70.4565623 C47.8602944,68.6596266 46.5672666,66.4001715 45.6564475,63.7300687 C45.1225946,62.1650572 44.7376031,60.5200091 44.4369489,58.6859414 L44.3297005,58.0011626 C44.2951798,57.7702571 44.2615401,57.5346213 44.2277383,57.2880024 L43.8957685,54.7196532 C43.4660942,51.6337103 42.2081663,47.7120705 40.7955333,44.7373783 C40.1615737,43.4023998 39.4760312,42.5127279 38.1447287,41.1625394 L36.9958611,40.0116927 L36.8813237,39.8943037 C36.6508491,39.6569441 36.441691,39.4341265 36.2435017,39.2134175 L34.8465397,37.6187714 C34.4676971,37.1754699 34.2094461,36.8433893 33.9952915,36.5138174 C33.599013,35.903967 33.3578023,35.2982112 33.1896872,34.4805187 C33.053093,33.8161395 33.0142158,33.2307521 33.055607,32.6085097 C33.071371,32.3715271 33.0976945,32.1337638 33.138125,31.8558243 L33.238981,31.2368173 C33.2927632,30.9297862 33.4048281,30.2897118 33.4462398,30.0338156 C33.4795946,29.827706 33.51008,29.6276481 33.5386183,29.4258661 C33.5729919,29.1828249 33.7767126,29.0054572 34.013592,28.9962021 Z" id="Path-12"></path>
                    <path d="M18.4345488,34.0972315 L19.1407751,34.2727104 C21.2476941,34.809447 22.1870595,35.1877713 23.7361294,36.0226946 L23.9423617,36.1430839 C24.8594009,36.7062194 27.1329784,38.3633045 27.3818446,38.5286559 C27.9199747,38.8862 28.4414183,39.2011013 28.9797855,39.488015 L29.2581968,39.6376566 L30.5071833,40.3304746 C30.9642942,40.5831174 31.2451174,40.722875 31.5182313,40.8280932 C32.0121977,41.0183958 32.5039078,41.094548 33.3063965,41.094548 C34.8559757,41.094548 35.444551,40.4264565 35.7246536,38.4704478 C35.7637982,38.197094 36.0171282,38.0072299 36.290482,38.0463745 C36.5638358,38.085519 36.7536999,38.3388491 36.7145554,38.6122029 C36.37049,41.0148752 35.4193197,42.094548 33.3063965,42.094548 C32.3892423,42.094548 31.7783017,41.9999303 31.1587331,41.7612391 C30.9259562,41.6715608 30.6985789,41.5658783 30.4075906,41.4132904 L28.7820054,40.5169991 C28.6916285,40.4680079 28.6015296,40.419575 28.5094723,40.3705146 C28.0830662,40.1432686 27.6677877,39.9000463 27.2489749,39.6346231 L26.8284409,39.3615691 C26.507431,39.1482839 23.9033281,37.2488152 23.2616733,36.9029737 L22.8127407,36.66531 C21.4424339,35.9552646 20.497191,35.627947 18.1982637,35.0689153 C17.9299407,35.003667 17.765316,34.733254 17.8305644,34.4649309 C17.8885628,34.2264215 18.1086668,34.0698467 18.3453146,34.0838228 L18.4345488,34.0972315 Z" id="Path-13"></path>
                    <path d="M13.384361,46.5704814 C13.658289,46.6053825 13.8520585,46.8557379 13.8171574,47.1296659 L13.4683992,49.7361995 C13.1590743,52.1056001 12.9986052,53.8760615 12.8356322,57.0175467 C12.6690866,60.2279 13.1268768,64.5775988 13.9606384,67.7264549 C14.350269,69.1979676 14.8209155,70.5387036 15.3620925,71.7764255 C15.7483839,72.6599096 16.1501785,73.4488571 16.591974,74.2192406 L16.8620474,74.6798507 C17.0226968,74.9480796 17.7457617,76.0974244 17.8588783,76.3116126 C17.9878351,76.5557944 17.8944268,76.858283 17.650245,76.9872398 C17.4060632,77.1161966 17.1035746,77.0227883 16.9746178,76.7786065 L16.8930113,76.6377843 C16.6793807,76.2809347 16.1551005,75.4457067 16.0041485,75.1936692 C15.4329796,74.240015 14.927638,73.2789432 14.4458465,72.1770415 C13.8844528,70.8930821 13.396855,69.5040568 12.9939515,67.9824165 C12.1337456,64.7336886 11.6650297,60.2801796 11.8369752,56.9657387 L11.9246749,55.4058663 C12.0535401,53.3067226 12.1970845,51.8071375 12.4228908,50.025731 L12.8251766,47.0032778 C12.8561997,46.7597863 13.0574584,46.5796298 13.294188,46.5671133 L13.384361,46.5704814 Z" id="Path-14"></path>
                    <path d="M24.5470805,49.1577831 L25.5256734,49.3635883 C24.8600306,52.5286864 24.5947413,55.6284121 24.7285968,58.6519971 C25.0046749,62.7342354 25.8228395,66.5609914 26.9339386,69.133879 L27.0743336,69.4488871 L26.1659008,69.8669179 C24.9273954,67.1754916 24.0260768,63.0844709 23.7302266,58.7078704 C23.602582,55.8274897 23.8249279,52.8932345 24.3968243,49.9057601 L24.5470805,49.1577831 Z" id="Path-15"></path>
                </g>
            </g>
        </g>
    </g>
</svg>
