<?xml version="1.0" encoding="UTF-8"?>
<svg width="140px" height="207px" viewBox="0 0 140 207" version="1.1" xmlns="http://www.w3.org/2000/svg" xmlns:xlink="http://www.w3.org/1999/xlink">
    <title>button</title>
    <g id="Page-1" stroke="none" stroke-width="1" fill="none" fill-rule="evenodd">
        <g id="web_05_01" transform="translate(-1021.000000, -3233.000000)">
            <g id="how-works" transform="translate(0.000000, 2904.000000)">
                <g id="button" transform="translate(1021.000000, 329.000000)">
                    <g id="chat_gray" transform="translate(45.000000, 99.000000)" fill="#3E96FC">
                        <path d="M6.00000024,45 C2.68629161,45 4.05812267e-16,42.3137084 0,38.9999998 L0,6.00000024 C-4.05812267e-16,2.68629161 2.68629161,1.32059125e-13 6.00000024,1.31450406e-13 L88.9999998,1.31450406e-13 C92.3137084,1.29953509e-13 95,2.68629161 95,6.00000024 L95,38.9999998 C95,42.3137084 92.3137084,45 88.9999998,45 L88.4763184,45 C87.4921061,45.4418383 87,46.1918373 87,47.249997 L87,50.3449707 L87,50.3449707 C86.6280924,49.9665527 85.7376302,49.0830892 84.3286133,47.6945801 C82.9195964,46.306071 80.5948079,45.4078776 77.354248,45 L6.00000024,45 Z"></path>
                    </g>
                    <g id="chat_gray" transform="translate(0.000000, 44.000000)" fill="#E5E5EA">
                        <path d="M6.00000024,45 C2.68629161,45 4.05812267e-16,42.3137084 0,38.9999998 L0,6.00000024 C-4.05812267e-16,2.68629161 2.68629161,1.32059125e-13 6.00000024,1.31450406e-13 L88.9999998,1.31450406e-13 C92.3137084,1.29953509e-13 95,2.68629161 95,6.00000024 L95,38.9999998 C95,42.3137084 92.3137084,45 88.9999998,45 L88.4763184,45 C87.4921061,45.4418383 87,46.1918373 87,47.249997 L87,50.3449707 L87,50.3449707 C86.6280924,49.9665527 85.7376302,49.0830892 84.3286133,47.6945801 C82.9195964,46.306071 80.5948079,45.4078776 77.354248,45 L6.00000024,45 Z" transform="translate(47.500000, 25.172485) scale(-1, 1) translate(-47.500000, -25.172485) "></path>
                    </g>
                    <text id="Chat:-alice" font-family="Helvetica" font-size="13" font-weight="normal" fill="#062D56">
                        <tspan x="0" y="13">CHAT: ALICE</tspan>
                    </text>
                    <text id="Alice:-Hello" font-family="Helvetica" font-size="13" font-weight="normal" fill="#062D56">
                        <tspan x="5" y="59">Alice: Hello</tspan>
                    </text>
                    <g id="chat_gray" transform="translate(0.000000, 156.000000)" fill="#E5E5EA">
                        <path d="M6.00000024,45 C2.68629161,45 4.05812267e-16,42.3137084 0,38.9999998 L0,6.00000024 C-4.05812267e-16,2.68629161 2.68629161,1.32059125e-13 6.00000024,1.31450406e-13 L88.9999998,1.31450406e-13 C92.3137084,1.29953509e-13 95,2.68629161 95,6.00000024 L95,38.9999998 C95,42.3137084 92.3137084,45 88.9999998,45 L88.4763184,45 C87.4921061,45.4418383 87,46.1918373 87,47.249997 L87,50.3449707 L87,50.3449707 C86.6280924,49.9665527 85.7376302,49.0830892 84.3286133,47.6945801 C82.9195964,46.306071 80.5948079,45.4078776 77.354248,45 L6.00000024,45 Z" transform="translate(47.500000, 25.172485) scale(-1, 1) translate(-47.500000, -25.172485) "></path>
                    </g>
                    <text id="Alice:-Where-are-you" font-family="Helvetica" font-size="13" font-weight="normal" line-spacing="16" fill="#062D56">
                        <tspan x="5" y="174">Alice: Where </tspan>
                        <tspan x="5" y="190">are you?</tspan>
                    </text>
                    <text id="Hello" font-family="Helvetica" font-size="13" font-weight="normal" fill="#FFFFFF">
                        <tspan x="50" y="114">Hello</tspan>
                    </text>
                </g>
            </g>
        </g>
    </g>
</svg>
