<?xml version="1.0" encoding="UTF-8"?>
<svg width="242px" height="242px" viewBox="0 0 242 242" version="1.1" xmlns="http://www.w3.org/2000/svg" xmlns:xlink="http://www.w3.org/1999/xlink">
    <!-- Generator: sketchtool 63.1 (101010) - https://sketch.com -->
    <title>7D1F159A-EDEB-4E00-A1B8-9D852C99C1C8</title>
    <desc>Created with sketchtool.</desc>
    <g id="Page-1" stroke="none" stroke-width="1" fill="none" fill-rule="evenodd">
        <g id="web_05_04" transform="translate(-281.000000, -2527.000000)">
            <g id="logo_shape_dark" transform="translate(240.000000, 2487.000000)">
                <g transform="translate(0.002506, 0.002506)" id="Combined-Shape">
                    <path d="M104.76123,132.576283 L104.761335,189.418546 L133.182388,189.418546 L133.18223,189.417283 L190.02423,189.418283 L190.02323,132.576283 L190.024493,132.576441 L190.024493,104.155388 L133.18223,104.155283 L133.18223,104.154283 L190.02423,104.155283 L190.024493,47.3132832 L218.445546,47.3132832 L218.44523,104.155283 L275.287651,104.155388 L275.287651,132.576441 L218.44523,132.576283 L218.44523,189.418283 L275.287651,189.418546 L275.287651,217.839599 L218.44523,217.839283 L218.445546,274.681704 L190.024493,274.681704 L190.02423,217.839283 L133.18223,217.839283 L133.182388,274.681704 L104.761335,274.681704 L104.76123,217.839283 L47.9192298,217.839599 L47.9192298,189.418546 L104.76123,189.418283 L104.76023,132.576283 L104.76123,132.576283 Z" fill="#02C0FF" transform="translate(161.603440, 160.997494) rotate(-45.000000) translate(-161.603440, -160.997494) "></path>
                    <path d="M115.52381,89.9448622 L115.523652,146.786862 L172.365915,146.786967 L172.365915,175.20802 L115.523652,175.207862 L115.52381,232.050125 L87.1027569,232.050125 L87.1026517,175.207862 L30.2606517,175.20802 L30.2606517,146.786967 L87.1026517,146.786862 L87.1027569,89.9448622 L115.52381,89.9448622 Z" fill="#062D56" transform="translate(101.313283, 160.997494) rotate(-45.000000) translate(-101.313283, -160.997494) "></path>
                </g>
            </g>
        </g>
    </g>
</svg>