<?xml version="1.0" encoding="UTF-8"?>
<svg width="463px" height="56px" viewBox="0 0 463 56" version="1.1" xmlns="http://www.w3.org/2000/svg" xmlns:xlink="http://www.w3.org/1999/xlink">
    <title>Group 22</title>
    <g id="Page-1" stroke="none" stroke-width="1" fill="none" fill-rule="evenodd">
        <g id="web_05_01" transform="translate(-486.000000, -1059.000000)">
            <g id="explainer-diagram" transform="translate(0.000000, 767.000000)">
                <g id="Group-22" transform="translate(487.899998, 293.000000)">
                    <g id="cir-+-key" transform="translate(0.000000, 0.499999)">
                        <circle id="Mask-Copy-5" stroke="#CDCDCD" fill="#FFFFFF" transform="translate(26.999999, 26.999999) scale(-1, -1) translate(-26.999999, -26.999999) " cx="26.9999993" cy="26.9999993" r="26.9999993"></circle>
                        <g id="key2" transform="translate(14.000000, 13.000000)">
                            <polygon id="Path-2" fill="#FFFFFF" points="0.692261696 23.7000012 0.868531227 26.5907483 3.94372654 26.5907483 4.18127537 24.0404553 5.90368748 24.0404553 5.90368748 22.5171399 7.50830173 22.2926526 7.50830173 20.5887952 9.34875584 20.5887952 13.326539 16.604054 14.8736582 17.2437024 16.3793955 15.8984302 11.1647959 10.7401624 10.000001 12.2166028 10.2980951 13.7000012"></polygon>
                            <path d="M12.074686,17.8225211 C11.8466764,17.5933589 11.4781528,17.5933589 11.2501432,17.8213685 L9.0885121,19.9847535 L7.5805419,19.9847535 C7.25807121,19.9847535 6.99743871,20.2459873 6.99743871,20.568458 L6.99743871,21.7352657 L5.83118222,21.7352657 C5.50871153,21.7352657 5.24807904,21.9964996 5.24807904,22.3189703 L5.24807904,23.485778 L4.08187266,23.485778 C3.76000331,23.485778 3.49876947,23.7470118 3.49876947,24.0694825 L3.49876947,25.5786053 L3.25737998,25.8200449 L1.16625649,25.8200449 L1.16625649,23.7278189 L10.9078782,13.9780289 C11.1358878,13.7506207 11.1358878,13.3808944 10.9084796,13.1529349 L10.7376478,12.9815018 C10.5819498,12.8264051 10.4968095,12.6199437 10.4968095,12.4001024 L10.4968095,12.3977471 C10.4968095,12.0752764 10.236177,11.8151952 9.91370634,11.8151952 C9.59123564,11.8151952 9.33060315,12.0775816 9.33060315,12.4000523 C9.33060315,12.8158315 9.45713594,13.2123176 9.6921612,13.5447105 L0.170831795,23.0735066 C0.0612368595,23.1831516 0,23.3312326 0,23.4863793 L0,26.4043006 C0,26.72617 0.261233837,26.9874038 0.583103189,26.9874038 L3.49871936,26.9874038 C3.65326475,26.9874038 3.80194705,26.9256157 3.91099075,26.816572 L4.49409394,26.2328675 C4.60373899,26.1232225 4.66492573,25.9751415 4.66492573,25.8205961 L4.66492573,24.6537884 L5.83118222,24.6537884 C6.15365292,24.6537884 6.41428541,24.3925546 6.41428541,24.0700839 L6.41428541,22.9032761 L7.5805419,22.9032761 C7.9030126,22.9032761 8.16364509,22.6420423 8.16364509,22.3195716 L8.16364509,21.1527639 L9.32990158,21.1527639 C9.48499821,21.1527639 9.63312927,21.0909758 9.74217298,20.9819321 L12.0746358,18.6477153 C12.3026955,18.4196055 12.3026955,18.0504805 12.074686,17.8225211 Z" id="Path" fill="#F5A623" fill-rule="nonzero"></path>
                            <path d="M11.7769854,20.2790651 L14.5076476,17.5777983 C14.7356572,17.3503901 14.7356572,16.9806638 14.508249,16.7527043 L14.3374172,16.5812711 C14.1817192,16.4261745 14.0965789,16.2197131 14.0965789,15.9998718 L14.0965789,15.9975165 C14.0965789,15.6750458 13.8359464,15.4149645 13.5134757,15.4149645 C13.191005,15.4149645 12.9303725,15.677351 12.9303725,15.9998217 C12.9303725,16.4156009 13.0569053,16.812087 13.2919306,17.1444799 L10.7815607,19.6247528 L11.7769854,20.2790651 Z" id="Shape-Copy" fill="#F5A623" fill-rule="nonzero" transform="translate(12.730145, 17.847015) scale(1, -1) rotate(-270.000000) translate(-12.730145, -17.847015) "></path>
                            <path d="M12.878783,4.5873916 L22.1495024,4.5873916 C22.7030242,4.5873916 23.1517423,5.0361097 23.1517423,5.58963153 L23.1517423,13.356991 C23.1517423,13.9105128 22.7030242,14.3592309 22.1495024,14.3592309 L12.878783,14.3592309 C12.3252612,14.3592309 11.8765431,13.9105128 11.8765431,13.356991 L11.8765431,5.58963153 C11.8765431,5.0361097 12.3252612,4.5873916 12.878783,4.5873916 Z" id="Rectangle" fill="#FFFFFF" fill-rule="nonzero" transform="translate(17.514143, 9.473311) rotate(45.000000) translate(-17.514143, -9.473311) "></path>
                            <path d="M22.1495024,3.58515168 L12.878783,3.58515168 C11.7717394,3.58515168 10.8743032,4.48258788 10.8743032,5.58963153 L10.8743032,13.356991 C10.8743032,14.4640346 11.7717394,15.3614708 12.878783,15.3614708 L22.1495024,15.3614708 C23.256546,15.3614708 24.1539822,14.4640346 24.1539822,13.356991 L24.1539822,5.58963153 C24.1539822,4.48258788 23.256546,3.58515168 22.1495024,3.58515168 Z M12.878783,4.5873916 L22.1495024,4.5873916 C22.7030242,4.5873916 23.1517423,5.0361097 23.1517423,5.58963153 L23.1517423,13.356991 C23.1517423,13.9105128 22.7030242,14.3592309 22.1495024,14.3592309 L12.878783,14.3592309 C12.3252612,14.3592309 11.8765431,13.9105128 11.8765431,13.356991 L11.8765431,5.58963153 C11.8765431,5.0361097 12.3252612,4.5873916 12.878783,4.5873916 Z" id="Rectangle-Copy" fill="#F5A623" fill-rule="nonzero" transform="translate(17.514143, 9.473311) rotate(45.000000) translate(-17.514143, -9.473311) "></path>
                            <path d="M21.1130861,8.19340074 L18.7806232,5.85918396 C18.0936879,5.17049479 16.893656,5.17049479 16.2067207,5.85918396 C15.4970847,6.56942128 15.4970847,7.72515425 16.2067207,8.43484034 L18.5391836,10.7690571 C18.8826512,11.113076 19.339823,11.3025996 19.8261098,11.3025996 C20.3124467,11.3025996 20.7696184,11.113076 21.1130359,10.7690571 C21.822722,10.0588198 21.822722,8.90308684 21.1130861,8.19340074 Z M20.2885433,9.94336177 C20.0412907,10.1906144 19.610979,10.1906144 19.3637264,9.94336177 L17.0312635,7.60914498 C16.7770454,7.35432548 16.7770454,6.93914759 17.0312635,6.68372674 C17.1548898,6.56010045 17.318756,6.49189802 17.493697,6.49189802 C17.668638,6.49189802 17.8325042,6.56010045 17.9561305,6.68372674 L20.2885934,9.01794353 C20.5433628,9.27276303 20.5433628,9.68854227 20.2885433,9.94336177 Z" id="Shape" fill="#F5A623" fill-rule="nonzero"></path>
                        </g>
                    </g>
                    <g id="cir-+-key" transform="translate(406.100002, 0.000000)">
                        <circle id="Mask-Copy-5" stroke="#CDCDCD" fill="#FFFFFF" transform="translate(26.999999, 26.999999) scale(-1, -1) translate(-26.999999, -26.999999) " cx="26.9999993" cy="26.9999993" r="26.9999993"></circle>
                        <g id="key2" transform="translate(13.000000, 13.000000)">
                            <polygon id="Path-2" fill="#FFFFFF" points="0.692261696 23.7000012 0.868531227 26.5907483 3.94372654 26.5907483 4.18127537 24.0404553 5.90368748 24.0404553 5.90368748 22.5171399 7.50830173 22.2926526 7.50830173 20.5887952 9.34875584 20.5887952 13.326539 16.604054 14.8736582 17.2437024 16.3793955 15.8984302 11.1647959 10.7401624 10.000001 12.2166028 10.2980951 13.7000012"></polygon>
                            <path d="M12.074686,17.8225211 C11.8466764,17.5933589 11.4781528,17.5933589 11.2501432,17.8213685 L9.0885121,19.9847535 L7.5805419,19.9847535 C7.25807121,19.9847535 6.99743871,20.2459873 6.99743871,20.568458 L6.99743871,21.7352657 L5.83118222,21.7352657 C5.50871153,21.7352657 5.24807904,21.9964996 5.24807904,22.3189703 L5.24807904,23.485778 L4.08187266,23.485778 C3.76000331,23.485778 3.49876947,23.7470118 3.49876947,24.0694825 L3.49876947,25.5786053 L3.25737998,25.8200449 L1.16625649,25.8200449 L1.16625649,23.7278189 L10.9078782,13.9780289 C11.1358878,13.7506207 11.1358878,13.3808944 10.9084796,13.1529349 L10.7376478,12.9815018 C10.5819498,12.8264051 10.4968095,12.6199437 10.4968095,12.4001024 L10.4968095,12.3977471 C10.4968095,12.0752764 10.236177,11.8151952 9.91370634,11.8151952 C9.59123564,11.8151952 9.33060315,12.0775816 9.33060315,12.4000523 C9.33060315,12.8158315 9.45713594,13.2123176 9.6921612,13.5447105 L0.170831795,23.0735066 C0.0612368595,23.1831516 0,23.3312326 0,23.4863793 L0,26.4043006 C0,26.72617 0.261233837,26.9874038 0.583103189,26.9874038 L3.49871936,26.9874038 C3.65326475,26.9874038 3.80194705,26.9256157 3.91099075,26.816572 L4.49409394,26.2328675 C4.60373899,26.1232225 4.66492573,25.9751415 4.66492573,25.8205961 L4.66492573,24.6537884 L5.83118222,24.6537884 C6.15365292,24.6537884 6.41428541,24.3925546 6.41428541,24.0700839 L6.41428541,22.9032761 L7.5805419,22.9032761 C7.9030126,22.9032761 8.16364509,22.6420423 8.16364509,22.3195716 L8.16364509,21.1527639 L9.32990158,21.1527639 C9.48499821,21.1527639 9.63312927,21.0909758 9.74217298,20.9819321 L12.0746358,18.6477153 C12.3026955,18.4196055 12.3026955,18.0504805 12.074686,17.8225211 Z" id="Path" fill="#F5A623" fill-rule="nonzero"></path>
                            <path d="M11.7769854,20.2790651 L14.5076476,17.5777983 C14.7356572,17.3503901 14.7356572,16.9806638 14.508249,16.7527043 L14.3374172,16.5812711 C14.1817192,16.4261745 14.0965789,16.2197131 14.0965789,15.9998718 L14.0965789,15.9975165 C14.0965789,15.6750458 13.8359464,15.4149645 13.5134757,15.4149645 C13.191005,15.4149645 12.9303725,15.677351 12.9303725,15.9998217 C12.9303725,16.4156009 13.0569053,16.812087 13.2919306,17.1444799 L10.7815607,19.6247528 L11.7769854,20.2790651 Z" id="Shape-Copy" fill="#F5A623" fill-rule="nonzero" transform="translate(12.730145, 17.847015) scale(1, -1) rotate(-270.000000) translate(-12.730145, -17.847015) "></path>
                            <path d="M12.878783,4.5873916 L22.1495024,4.5873916 C22.7030242,4.5873916 23.1517423,5.0361097 23.1517423,5.58963153 L23.1517423,13.356991 C23.1517423,13.9105128 22.7030242,14.3592309 22.1495024,14.3592309 L12.878783,14.3592309 C12.3252612,14.3592309 11.8765431,13.9105128 11.8765431,13.356991 L11.8765431,5.58963153 C11.8765431,5.0361097 12.3252612,4.5873916 12.878783,4.5873916 Z" id="Rectangle" fill="#FFFFFF" fill-rule="nonzero" transform="translate(17.514143, 9.473311) rotate(45.000000) translate(-17.514143, -9.473311) "></path>
                            <path d="M22.1495024,3.58515168 L12.878783,3.58515168 C11.7717394,3.58515168 10.8743032,4.48258788 10.8743032,5.58963153 L10.8743032,13.356991 C10.8743032,14.4640346 11.7717394,15.3614708 12.878783,15.3614708 L22.1495024,15.3614708 C23.256546,15.3614708 24.1539822,14.4640346 24.1539822,13.356991 L24.1539822,5.58963153 C24.1539822,4.48258788 23.256546,3.58515168 22.1495024,3.58515168 Z M12.878783,4.5873916 L22.1495024,4.5873916 C22.7030242,4.5873916 23.1517423,5.0361097 23.1517423,5.58963153 L23.1517423,13.356991 C23.1517423,13.9105128 22.7030242,14.3592309 22.1495024,14.3592309 L12.878783,14.3592309 C12.3252612,14.3592309 11.8765431,13.9105128 11.8765431,13.356991 L11.8765431,5.58963153 C11.8765431,5.0361097 12.3252612,4.5873916 12.878783,4.5873916 Z" id="Rectangle-Copy" fill="#F5A623" fill-rule="nonzero" transform="translate(17.514143, 9.473311) rotate(45.000000) translate(-17.514143, -9.473311) "></path>
                            <path d="M21.1130861,8.19340074 L18.7806232,5.85918396 C18.0936879,5.17049479 16.893656,5.17049479 16.2067207,5.85918396 C15.4970847,6.56942128 15.4970847,7.72515425 16.2067207,8.43484034 L18.5391836,10.7690571 C18.8826512,11.113076 19.339823,11.3025996 19.8261098,11.3025996 C20.3124467,11.3025996 20.7696184,11.113076 21.1130359,10.7690571 C21.822722,10.0588198 21.822722,8.90308684 21.1130861,8.19340074 Z M20.2885433,9.94336177 C20.0412907,10.1906144 19.610979,10.1906144 19.3637264,9.94336177 L17.0312635,7.60914498 C16.7770454,7.35432548 16.7770454,6.93914759 17.0312635,6.68372674 C17.1548898,6.56010045 17.318756,6.49189802 17.493697,6.49189802 C17.668638,6.49189802 17.8325042,6.56010045 17.9561305,6.68372674 L20.2885934,9.01794353 C20.5433628,9.27276303 20.5433628,9.68854227 20.2885433,9.94336177 Z" id="Shape" fill="#F5A623" fill-rule="nonzero"></path>
                        </g>
                    </g>
                    <g id="server" transform="translate(203.100002, 2.000000)" fill="#CDCDCD">
                        <path d="M49.059309,15.4924134 C50.4853642,15.4924134 51.6413779,14.3363996 51.6413779,12.9103445 L51.6413779,2.5820689 C51.6413779,1.15601376 50.4853642,0 49.059309,0 L2.5820689,0 C1.15601376,0 0,1.15601376 0,2.5820689 L0,12.9103445 C0,14.3363996 1.15601376,15.4924134 2.5820689,15.4924134 L5.16413779,15.4924134 L5.16413779,18.0744823 L2.5820689,18.0744823 C1.15601376,18.0744823 0,19.230496 0,20.6565512 L0,30.9848268 C0,32.4108819 1.15601376,33.5668957 2.5820689,33.5668957 L5.16413779,33.5668957 L5.16413779,36.1489646 L2.5820689,36.1489646 C1.15601376,36.1489646 0,37.3049783 0,38.7310335 L0,49.059309 C0,50.4853642 1.15601376,51.6413779 2.5820689,51.6413779 L49.059309,51.6413779 C50.4853642,51.6413779 51.6413779,50.4853642 51.6413779,49.059309 L51.6413779,38.7310335 C51.6413779,37.3049783 50.4853642,36.1489646 49.059309,36.1489646 L46.4772401,36.1489646 L46.4772401,33.5668957 L49.059309,33.5668957 C50.4853642,33.5668957 51.6413779,32.4108819 51.6413779,30.9848268 L51.6413779,20.6565512 C51.6413779,19.230496 50.4853642,18.0744823 49.059309,18.0744823 L46.4772401,18.0744823 L46.4772401,15.4924134 L49.059309,15.4924134 Z M49.059309,37.8703438 C49.5346249,37.8703438 49.9199987,38.2557176 49.9199987,38.7310335 L49.9199987,49.059309 C49.9199987,49.5346249 49.5346249,49.9199987 49.059309,49.9199987 L2.5820689,49.9199987 C2.10675305,49.9199987 1.72137926,49.5346249 1.72137926,49.059309 L1.72137926,38.7310335 C1.72137926,38.2557176 2.10675305,37.8703438 2.5820689,37.8703438 L49.059309,37.8703438 Z M6.88551706,36.1489646 L6.88551706,33.5668957 L8.60689632,33.5668957 L8.60689632,36.1489646 L6.88551706,36.1489646 Z M10.3282756,36.1489646 L10.3282756,33.5668957 L41.3131024,33.5668957 L41.3131024,36.1489646 L10.3282756,36.1489646 Z M43.0344816,36.1489646 L43.0344816,33.5668957 L44.7558609,33.5668957 L44.7558609,36.1489646 L43.0344816,36.1489646 Z M49.059309,19.7958615 C49.5346249,19.7958615 49.9199987,20.1812353 49.9199987,20.6565512 L49.9199987,30.9848268 C49.9199987,31.4601426 49.5346249,31.8455164 49.059309,31.8455164 L2.5820689,31.8455164 C2.10675305,31.8455164 1.72137926,31.4601426 1.72137926,30.9848268 L1.72137926,20.6565512 C1.72137926,20.1812353 2.10675305,19.7958615 2.5820689,19.7958615 L49.059309,19.7958615 Z M6.88551706,18.0744823 L6.88551706,15.4924134 L8.60689632,15.4924134 L8.60689632,18.0744823 L6.88551706,18.0744823 Z M10.3282756,18.0744823 L10.3282756,15.4924134 L41.3131024,15.4924134 L41.3131024,18.0744823 L10.3282756,18.0744823 Z M43.0344816,18.0744823 L43.0344816,15.4924134 L44.7558609,15.4924134 L44.7558609,18.0744823 L43.0344816,18.0744823 Z M2.5820689,13.7710341 C2.10675305,13.7710341 1.72137926,13.3856603 1.72137926,12.9103445 L1.72137926,2.5820689 C1.72137926,2.10675305 2.10675305,1.72137926 2.5820689,1.72137926 L49.059309,1.72137926 C49.5346249,1.72137926 49.9199987,2.10675305 49.9199987,2.5820689 L49.9199987,12.9103445 C49.9199987,13.3856603 49.5346249,13.7710341 49.059309,13.7710341 L2.5820689,13.7710341 Z" id="Shape"></path>
                        <path d="M27.3751365,7.26228659 L9.89090618,7.26228659 C9.41252399,6.0021536 7.92767677,5.34178624 6.57460663,5.7873754 C5.22153649,6.23296455 4.51230078,7.61551103 4.99068297,8.87564402 C5.46906516,10.135777 6.95391238,10.7961444 8.30698252,10.3505552 C9.0470781,10.1069382 9.62930107,9.56485014 9.89090618,8.87564402 L27.3751365,8.87564402 C27.8535187,8.87564402 28.2413786,8.51445362 28.2413786,8.0689653 C28.2413786,7.62347698 27.8535187,7.26228659 27.3751365,7.26228659 Z M7.45156846,8.87564402 C6.97318627,8.87564402 6.58532637,8.51445362 6.58532637,8.0689653 C6.58532637,7.62347698 6.97318627,7.26228659 7.45156846,7.26228659 C7.92995065,7.26228659 8.31781055,7.62347698 8.31781055,8.0689653 C8.31781055,8.51445362 7.92995065,8.87564402 7.45156846,8.87564402 Z" id="Shape"></path>
                        <rect id="Rectangle" x="37.9241369" y="3.22758612" width="1.61379306" height="1.61379306"></rect>
                        <rect id="Rectangle" x="41.151723" y="3.22758612" width="1.61379306" height="1.61379306"></rect>
                        <rect id="Rectangle" x="45.1862057" y="3.22758612" width="1.61379306" height="1.61379306"></rect>
                        <rect id="Rectangle" x="34.6965508" y="3.22758612" width="1.61379306" height="1.61379306"></rect>
                        <rect id="Rectangle" x="30.6620682" y="3.22758612" width="1.61379306" height="1.61379306"></rect>
                        <rect id="Rectangle" x="37.9241369" y="7.26206877" width="1.61379306" height="1.61379306"></rect>
                        <rect id="Rectangle" x="41.151723" y="7.26206877" width="1.61379306" height="1.61379306"></rect>
                        <rect id="Rectangle" x="45.1862057" y="7.26206877" width="1.61379306" height="1.61379306"></rect>
                        <rect id="Rectangle" x="34.6965508" y="7.26206877" width="1.61379306" height="1.61379306"></rect>
                        <rect id="Rectangle" x="30.6620682" y="7.26206877" width="1.61379306" height="1.61379306"></rect>
                        <rect id="Rectangle" x="37.9241369" y="10.4896549" width="1.61379306" height="1.61379306"></rect>
                        <rect id="Rectangle" x="41.151723" y="10.4896549" width="1.61379306" height="1.61379306"></rect>
                        <rect id="Rectangle" x="45.1862057" y="10.4896549" width="1.61379306" height="1.61379306"></rect>
                        <rect id="Rectangle" x="34.6965508" y="10.4896549" width="1.61379306" height="1.61379306"></rect>
                        <rect id="Rectangle" x="30.6620682" y="10.4896549" width="1.61379306" height="1.61379306"></rect>
                        <path d="M27.3751365,25.0140103 L9.89090618,25.0140103 C9.41252399,23.7538773 7.92767677,23.0935099 6.57460663,23.5390991 C5.22153649,23.9846882 4.51230078,25.3672347 4.99068297,26.6273677 C5.46906516,27.8875007 6.95391238,28.547868 8.30698252,28.1022789 C9.0470781,27.8586619 9.62919279,27.316473 9.8907979,26.6273677 L27.3751365,26.6273677 C27.8535187,26.6273677 28.2413786,26.2661773 28.2413786,25.820689 C28.2413786,25.3752007 27.8535187,25.0140103 27.3751365,25.0140103 Z M7.45156846,26.6273677 C6.97318627,26.6273677 6.58532637,26.2661773 6.58532637,25.820689 C6.58532637,25.3752007 6.97318627,25.0140103 7.45156846,25.0140103 C7.92995065,25.0140103 8.31781055,25.3752007 8.31781055,25.820689 C8.31781055,26.2661773 7.92995065,26.6273677 7.45156846,26.6273677 Z" id="Shape"></path>
                        <rect id="Rectangle" x="37.9241369" y="21.7862063" width="1.61379306" height="1.61379306"></rect>
                        <rect id="Rectangle" x="41.151723" y="21.7862063" width="1.61379306" height="1.61379306"></rect>
                        <rect id="Rectangle" x="45.1862057" y="21.7862063" width="1.61379306" height="1.61379306"></rect>
                        <rect id="Rectangle" x="34.6965508" y="21.7862063" width="1.61379306" height="1.61379306"></rect>
                        <rect id="Rectangle" x="30.6620682" y="21.7862063" width="1.61379306" height="1.61379306"></rect>
                        <rect id="Rectangle" x="37.9241369" y="25.0137924" width="1.61379306" height="1.61379306"></rect>
                        <rect id="Rectangle" x="41.151723" y="25.0137924" width="1.61379306" height="1.61379306"></rect>
                        <rect id="Rectangle" x="45.1862057" y="25.0137924" width="1.61379306" height="1.61379306"></rect>
                        <rect id="Rectangle" x="34.6965508" y="25.0137924" width="1.61379306" height="1.61379306"></rect>
                        <rect id="Rectangle" x="30.6620682" y="25.0137924" width="1.61379306" height="1.61379306"></rect>
                        <rect id="Rectangle" x="37.9241369" y="28.2413786" width="1.61379306" height="1.61379306"></rect>
                        <rect id="Rectangle" x="41.151723" y="28.2413786" width="1.61379306" height="1.61379306"></rect>
                        <rect id="Rectangle" x="45.1862057" y="28.2413786" width="1.61379306" height="1.61379306"></rect>
                        <rect id="Rectangle" x="34.6965508" y="28.2413786" width="1.61379306" height="1.61379306"></rect>
                        <rect id="Rectangle" x="30.6620682" y="28.2413786" width="1.61379306" height="1.61379306"></rect>
                        <path d="M27.3751365,42.7657339 L9.89090618,42.7657339 C9.41252399,41.5056009 7.92767677,40.8452336 6.57460663,41.2908227 C5.22153649,41.7364119 4.51230078,43.1189584 4.99068297,44.3790914 C5.46906516,45.6392243 6.95391238,46.2995917 8.30698252,45.8540025 C9.0470781,45.6103856 9.62919279,45.0681966 9.8907979,44.3790914 L27.3751365,44.3790914 C27.8535187,44.3790914 28.2413786,44.017901 28.2413786,43.5724126 C28.2413786,43.1269243 27.8535187,42.7657339 27.3751365,42.7657339 Z M7.45156846,44.3790914 C6.97318627,44.3790914 6.58532637,44.017901 6.58532637,43.5724126 C6.58532637,43.1269243 6.97318627,42.7657339 7.45156846,42.7657339 C7.92995065,42.7657339 8.31781055,43.1269243 8.31781055,43.5724126 C8.31781055,44.017901 7.92995065,44.3790914 7.45156846,44.3790914 Z" id="Shape"></path>
                        <rect id="Rectangle" x="37.9241369" y="39.53793" width="1.61379306" height="1.61379306"></rect>
                        <rect id="Rectangle" x="41.151723" y="39.53793" width="1.61379306" height="1.61379306"></rect>
                        <rect id="Rectangle" x="45.1862057" y="39.53793" width="1.61379306" height="1.61379306"></rect>
                        <rect id="Rectangle" x="34.6965508" y="39.53793" width="1.61379306" height="1.61379306"></rect>
                        <rect id="Rectangle" x="30.6620682" y="39.53793" width="1.61379306" height="1.61379306"></rect>
                        <rect id="Rectangle" x="37.9241369" y="42.7655161" width="1.61379306" height="1.61379306"></rect>
                        <rect id="Rectangle" x="41.151723" y="42.7655161" width="1.61379306" height="1.61379306"></rect>
                        <rect id="Rectangle" x="45.1862057" y="42.7655161" width="1.61379306" height="1.61379306"></rect>
                        <rect id="Rectangle" x="34.6965508" y="42.7655161" width="1.61379306" height="1.61379306"></rect>
                        <rect id="Rectangle" x="30.6620682" y="42.7655161" width="1.61379306" height="1.61379306"></rect>
                        <rect id="Rectangle" x="37.9241369" y="46.7999988" width="1.61379306" height="1.61379306"></rect>
                        <rect id="Rectangle" x="41.151723" y="46.7999988" width="1.61379306" height="1.61379306"></rect>
                        <rect id="Rectangle" x="45.1862057" y="46.7999988" width="1.61379306" height="1.61379306"></rect>
                        <rect id="Rectangle" x="34.6965508" y="46.7999988" width="1.61379306" height="1.61379306"></rect>
                        <rect id="Rectangle" x="30.6620682" y="46.7999988" width="1.61379306" height="1.61379306"></rect>
                    </g>
                    <g id="Group" transform="translate(62.100002, 17.000000)" fill="#F5A623" fill-rule="nonzero">
                        <g id="arrow-fills" transform="translate(-2.417355, -2.045454)">
                            <path d="M130.053719,10.7954545 C130.869594,10.7954545 131.530992,11.3550985 131.530992,12.0454545 C131.530992,12.6926632 130.949685,13.2249884 130.204761,13.2890009 L130.053719,13.2954545 L2.41735528,13.2954545 C1.60148008,13.2954545 0.940082556,12.7358104 0.940082556,12.0454545 C0.940082556,11.3982458 1.52138898,10.8659206 2.26631273,10.8019081 L2.41735528,10.7954545 L130.053719,10.7954545 Z" id="Line"></path>
                            <g id="Group" transform="translate(116.052111, 0.261363)">
                                <path d="M15.9887003,10.7608277 C16.5503465,10.3863969 17.3091868,10.538165 17.6836176,11.0998112 C18.0330863,11.6240143 17.9241774,12.3199954 17.4514639,12.7148892 L17.3446341,12.7947285 L2.67796693,22.5725067 C2.11632074,22.9469375 1.3574804,22.7951694 0.983049603,22.2335232 C0.633580859,21.7093201 0.742489792,21.013339 1.21520334,20.6184452 L1.32203307,20.5386059 L15.9887003,10.7608277 Z" id="Line-Copy"></path>
                                <path d="M0.983049603,1.32203307 C1.33251835,0.797829953 2.01685051,0.630676229 2.56318076,0.915144963 L2.67796693,0.983049603 L17.3446341,10.7608277 C17.9062803,11.1352585 18.0580484,11.8940989 17.6836176,12.4557451 C17.3341489,12.9799482 16.6498167,13.1471019 16.1034864,12.8626332 L15.9887003,12.7947285 L1.32203307,3.0169504 C0.760386873,2.6425196 0.608618806,1.88367926 0.983049603,1.32203307 Z" id="Line-Copy-2"></path>
                            </g>
                        </g>
                    </g>
                    <g id="Group" transform="translate(265.100002, 17.000000)" fill="#F5A623" fill-rule="nonzero">
                        <g id="arrow-fills" transform="translate(-2.417355, -2.045454)">
                            <path d="M130.053719,10.7954545 C130.869594,10.7954545 131.530992,11.3550985 131.530992,12.0454545 C131.530992,12.6926632 130.949685,13.2249884 130.204761,13.2890009 L130.053719,13.2954545 L2.41735528,13.2954545 C1.60148008,13.2954545 0.940082556,12.7358104 0.940082556,12.0454545 C0.940082556,11.3982458 1.52138898,10.8659206 2.26631273,10.8019081 L2.41735528,10.7954545 L130.053719,10.7954545 Z" id="Line"></path>
                            <g id="Group" transform="translate(116.052111, 0.261363)">
                                <path d="M15.9887003,10.7608277 C16.5503465,10.3863969 17.3091868,10.538165 17.6836176,11.0998112 C18.0330863,11.6240143 17.9241774,12.3199954 17.4514639,12.7148892 L17.3446341,12.7947285 L2.67796693,22.5725067 C2.11632074,22.9469375 1.3574804,22.7951694 0.983049603,22.2335232 C0.633580859,21.7093201 0.742489792,21.013339 1.21520334,20.6184452 L1.32203307,20.5386059 L15.9887003,10.7608277 Z" id="Line-Copy"></path>
                                <path d="M0.983049603,1.32203307 C1.33251835,0.797829953 2.01685051,0.630676229 2.56318076,0.915144963 L2.67796693,0.983049603 L17.3446341,10.7608277 C17.9062803,11.1352585 18.0580484,11.8940989 17.6836176,12.4557451 C17.3341489,12.9799482 16.6498167,13.1471019 16.1034864,12.8626332 L15.9887003,12.7947285 L1.32203307,3.0169504 C0.760386873,2.6425196 0.608618806,1.88367926 0.983049603,1.32203307 Z" id="Line-Copy-2"></path>
                            </g>
                        </g>
                    </g>
                </g>
            </g>
        </g>
    </g>
</svg>
