<svg width="539" height="399" viewBox="0 0 539 399" fill="none" xmlns="http://www.w3.org/2000/svg">
<circle cx="268.083" cy="80.9476" r="32.1985" fill="url(#paint0_linear_651_6627)"/>
<circle cx="268.082" cy="80.9513" r="39.3169" stroke="url(#paint1_linear_651_6627)" stroke-width="0.956242"/>
<circle cx="267.428" cy="73.3473" r="5.65297" fill="white"/>
<path fill-rule="evenodd" clip-rule="evenodd" d="M256.025 90.0869H278.595C277.039 85.3429 272.575 81.917 267.31 81.917C262.046 81.917 257.582 85.3429 256.025 90.0869Z" fill="white"/>
<circle cx="40.5779" cy="218.884" r="32.1985" fill="url(#paint2_linear_651_6627)"/>
<circle cx="40.5777" cy="218.888" r="39.3169" stroke="url(#paint3_linear_651_6627)" stroke-width="0.956242"/>
<circle cx="39.9227" cy="211.284" r="5.65297" fill="white"/>
<path fill-rule="evenodd" clip-rule="evenodd" d="M51.0904 228.023H28.5205C30.0767 223.279 34.541 219.854 39.8054 219.854C45.0699 219.854 49.5341 223.279 51.0904 228.023Z" fill="white"/>
<circle cx="268.083" cy="358.611" r="32.1985" fill="url(#paint4_linear_651_6627)"/>
<circle cx="268.082" cy="358.614" r="39.3169" stroke="url(#paint5_linear_651_6627)" stroke-width="0.956242"/>
<circle cx="267.428" cy="351.01" r="5.65297" fill="white"/>
<path fill-rule="evenodd" clip-rule="evenodd" d="M256.025 367.75H278.595C277.039 363.006 272.575 359.58 267.31 359.58C262.046 359.58 257.582 363.006 256.025 367.75Z" fill="white"/>
<circle cx="499.17" cy="217.092" r="32.1985" fill="url(#paint6_linear_651_6627)"/>
<circle cx="499.17" cy="217.096" r="39.3169" stroke="url(#paint7_linear_651_6627)" stroke-width="0.956242"/>
<circle cx="498.515" cy="209.492" r="5.65297" fill="white"/>
<path fill-rule="evenodd" clip-rule="evenodd" d="M509.683 226.231H487.113C488.669 221.487 493.133 218.062 498.398 218.062C503.662 218.062 508.126 221.487 509.683 226.231Z" fill="white"/>
<path d="M79.8735 192.248L224.526 103.265" stroke="#0197FF" stroke-width="2.99282" stroke-linecap="round" stroke-dasharray="5.99 8.98"/>
<path d="M455.16 192.248L310.507 103.265" stroke="#CD5CAE" stroke-width="2.99282" stroke-linecap="round" stroke-dasharray="5.99 8.98"/>
<path d="M222.747 338.695L78.0943 249.712" stroke="#9B90FB" stroke-width="2.99282" stroke-linecap="round" stroke-dasharray="5.99 8.98"/>
<path d="M268.016 301.529L268.016 137.652" stroke="#1BC3BF" stroke-width="2.99282" stroke-linecap="round" stroke-dasharray="5.99 8.98"/>
<rect x="87.3558" y="63.0347" width="42.9204" height="42.9204" rx="2.99282" stroke="#0197FF" stroke-width="1.99521"/>
<path d="M108.408 76.2031H111.281V92.9629H107.977V79.6987L104.817 80.5846L104.002 77.7594L108.408 76.2031Z" fill="#0197FF"/>
<rect x="167.228" y="198.131" width="42.9204" height="42.9204" rx="2.99282" stroke="#0197FF" stroke-width="1.99521"/>
<path d="M190.169 218.101C191.303 218.437 192.22 219.027 192.923 219.873C193.641 220.703 194 221.709 194 222.89C194 224.614 193.417 225.963 192.252 226.936C191.103 227.91 189.69 228.397 188.014 228.397C186.706 228.397 185.532 228.101 184.495 227.511C183.473 226.904 182.731 226.018 182.268 224.853L185.093 223.225C185.508 224.518 186.482 225.164 188.014 225.164C188.86 225.164 189.515 224.965 189.978 224.566C190.457 224.151 190.696 223.592 190.696 222.89C190.696 222.204 190.457 221.653 189.978 221.238C189.515 220.823 188.86 220.615 188.014 220.615H187.296L186.027 218.7L189.331 214.39H182.771V211.302H193.306V214.031L190.169 218.101Z" fill="#0197FF"/>
<rect x="86.9073" y="326.685" width="42.9204" height="42.9204" rx="2.99282" stroke="#0197FF" stroke-width="1.99521"/>
<path d="M108.065 345.96C109.677 345.96 111.034 346.447 112.136 347.42C113.237 348.378 113.788 349.719 113.788 351.443C113.788 353.167 113.205 354.515 112.04 355.489C110.891 356.463 109.478 356.949 107.802 356.949C106.445 356.949 105.248 356.646 104.211 356.04C103.173 355.433 102.423 354.539 101.96 353.358L104.785 351.706C105.2 353.047 106.206 353.717 107.802 353.717C108.648 353.717 109.302 353.518 109.765 353.119C110.244 352.704 110.484 352.145 110.484 351.443C110.484 350.756 110.252 350.206 109.789 349.791C109.326 349.376 108.696 349.168 107.898 349.168H102.822L103.492 339.854H112.997V342.943H106.557L106.341 345.96H108.065Z" fill="#0197FF"/>
<path d="M72.9777 331.097C72.8728 331.917 72.1232 332.497 71.3035 332.392L57.9447 330.682C57.125 330.577 56.5455 329.828 56.6504 329.008C56.7553 328.188 57.5049 327.609 58.3246 327.714L70.199 329.233L71.7186 317.359C71.8235 316.539 72.5731 315.959 73.3928 316.064C74.2126 316.169 74.7921 316.919 74.6872 317.739L72.9777 331.097ZM38.6697 271.837C44.3979 288.6 58.4045 311.53 72.6773 329.992L70.3095 331.823C55.9494 313.248 41.7191 290.016 35.8377 272.805L38.6697 271.837Z" fill="#9B90FB"/>
<path d="M215.639 371.664C216.25 372.22 216.295 373.167 215.738 373.778L206.672 383.737C206.115 384.348 205.169 384.392 204.558 383.836C203.947 383.279 203.902 382.333 204.459 381.722L212.518 372.87L203.666 364.811C203.054 364.254 203.01 363.308 203.566 362.697C204.123 362.085 205.069 362.041 205.68 362.597L215.639 371.664ZM147.42 365.75C164.435 370.679 191.252 372.369 214.562 371.276L214.702 374.265C191.249 375.365 164.057 373.686 146.587 368.625L147.42 365.75Z" fill="#9B90FB"/>
<path d="M186.13 264.557C186.388 263.772 187.233 263.344 188.018 263.601L200.815 267.8C201.6 268.057 202.028 268.903 201.77 269.688C201.513 270.473 200.667 270.901 199.882 270.644L188.507 266.912L184.775 278.286C184.518 279.072 183.672 279.499 182.887 279.242C182.102 278.984 181.674 278.139 181.932 277.353L186.13 264.557ZM228.079 319.816C211.627 305.232 196.047 285.13 186.217 265.699L188.887 264.348C198.544 283.436 213.89 303.238 230.065 317.576L228.079 319.816Z" fill="#9B90FB"/>
<path d="M101.379 249.32C100.828 248.704 100.881 247.758 101.497 247.208L111.539 238.233C112.155 237.682 113.101 237.736 113.652 238.352C114.203 238.968 114.149 239.914 113.533 240.465L104.607 248.442L112.584 257.368C113.135 257.984 113.082 258.93 112.466 259.481C111.85 260.032 110.904 259.978 110.353 259.362L101.379 249.32ZM162.973 242.498C143.252 249.825 124.069 251.033 102.41 249.817L102.578 246.829C124.02 248.033 142.745 246.821 161.931 239.692L162.973 242.498Z" fill="#9B90FB"/>
<rect x="325.884" y="198.131" width="42.9204" height="42.9204" rx="2.99282" stroke="#0197FF" stroke-width="1.99521"/>
<path d="M353.504 222.148V225.212H351.708V228.062H348.38V225.212H340.455V222.148L346.034 211.302H349.577L344.022 222.148H348.38V218.173H351.708V222.148H353.504Z" fill="#0197FF"/>
<path d="M317.746 191.65C318.511 191.964 319.385 191.599 319.699 190.835L324.815 178.376C325.129 177.612 324.764 176.738 323.999 176.424C323.235 176.11 322.36 176.475 322.046 177.24L317.499 188.313L306.425 183.766C305.661 183.452 304.786 183.817 304.472 184.582C304.158 185.346 304.524 186.221 305.288 186.535L317.746 191.65ZM283.185 132.538C294.926 145.802 307.938 169.311 316.934 190.843L319.696 189.689C310.645 168.026 297.481 144.173 285.425 130.554L283.185 132.538Z" fill="#1BC3BF"/>
<path d="M302.485 317.64C302.635 318.453 303.416 318.99 304.228 318.839L317.472 316.393C318.284 316.243 318.822 315.462 318.671 314.649C318.521 313.837 317.741 313.3 316.928 313.45L305.156 315.625L302.981 303.853C302.831 303.04 302.05 302.503 301.238 302.653C300.425 302.803 299.888 303.584 300.038 304.396L302.485 317.64ZM333.458 256.571C328.667 273.625 315.952 297.296 302.724 316.52L305.189 318.216C318.498 298.875 331.42 274.89 336.339 257.38L333.458 256.571Z" fill="#1BC3BF"/>
<path d="M214.41 250.543C213.646 250.228 212.771 250.592 212.456 251.356L207.324 263.807C207.009 264.571 207.373 265.446 208.137 265.761C208.902 266.076 209.776 265.712 210.091 264.948L214.653 253.88L225.721 258.442C226.485 258.757 227.36 258.393 227.675 257.629C227.99 256.864 227.626 255.99 226.862 255.675L214.41 250.543ZM248.894 309.7C237.17 296.421 224.189 272.895 215.221 251.351L212.458 252.501C221.481 274.177 234.613 298.046 246.651 311.681L248.894 309.7Z" fill="#1BC3BF"/>
<path d="M252.992 138.384C252.581 137.667 251.666 137.42 250.949 137.832L239.272 144.542C238.556 144.954 238.309 145.868 238.72 146.585C239.132 147.302 240.047 147.549 240.763 147.137L251.143 141.172L257.107 151.552C257.519 152.269 258.434 152.516 259.15 152.104C259.867 151.692 260.114 150.778 259.702 150.061L252.992 138.384ZM223.657 201.324C235.535 186.647 247.194 161.53 253.14 139.52L250.25 138.739C244.379 160.474 232.874 185.176 221.331 199.442L223.657 201.324Z" fill="#1BC3BF"/>
<rect x="398.022" y="63.0347" width="42.9204" height="42.9204" rx="2.99282" stroke="#0197FF" stroke-width="1.99521"/>
<path d="M413.321 92.9629V90.4968L419.044 84.607C420.321 83.2662 420.959 82.1489 420.959 81.255C420.959 80.6006 420.752 80.0738 420.337 79.6748C419.938 79.2757 419.419 79.0762 418.78 79.0762C417.519 79.0762 416.586 79.7307 415.979 81.0395L413.202 79.4114C413.728 78.2622 414.487 77.3843 415.476 76.7777C416.466 76.1712 417.551 75.8679 418.732 75.8679C420.249 75.8679 421.55 76.3468 422.635 77.3045C423.721 78.2462 424.263 79.5232 424.263 81.1353C424.263 82.8751 423.345 84.6628 421.51 86.4984L418.23 89.7785H424.527V92.9629H413.321Z" fill="#0197FF"/>
<path d="M77.1479 111.221C77.253 110.401 76.6737 109.651 75.854 109.546L62.4958 107.833C61.676 107.727 60.9263 108.307 60.8211 109.126C60.716 109.946 61.2953 110.696 62.115 110.801L73.989 112.324L72.4659 124.198C72.3607 125.018 72.94 125.768 73.7598 125.873C74.5795 125.978 75.3292 125.399 75.4344 124.579L77.1479 111.221ZM42.3631 168.218C46.7014 146.722 60.4086 124.708 76.5785 112.214L74.7487 109.846C57.9918 122.793 43.9057 145.446 39.4294 167.626L42.3631 168.218Z" fill="#0197FF"/>
<path d="M215.45 70.1934C216.205 69.8575 216.545 68.973 216.209 68.2179L210.734 55.9134C210.398 55.1584 209.513 54.8186 208.758 55.1546C208.003 55.4906 207.663 56.3751 207.999 57.1301L212.866 68.0675L201.929 72.9343C201.174 73.2703 200.834 74.1548 201.17 74.9098C201.506 75.6649 202.391 76.0046 203.146 75.6686L215.45 70.1934ZM148.677 70.0794C169.298 62.6197 195.23 62.8963 214.305 70.2232L215.378 67.4294C195.611 59.8365 168.936 59.5682 147.659 67.2651L148.677 70.0794Z" fill="#0197FF"/>
<path d="M203.562 181.745C203.705 182.559 204.482 183.102 205.295 182.959L218.558 180.62C219.372 180.476 219.916 179.7 219.772 178.886C219.629 178.072 218.852 177.529 218.039 177.672L206.249 179.752L204.17 167.962C204.027 167.148 203.25 166.605 202.436 166.749C201.623 166.892 201.079 167.668 201.223 168.482L203.562 181.745ZM235.03 120.93C230.101 137.944 217.194 161.511 203.81 180.627L206.261 182.343C219.727 163.111 232.843 139.232 237.905 121.762L235.03 120.93Z" fill="#0197FF"/>
<path d="M86.7735 223.138C86.1511 223.682 86.0872 224.627 86.6309 225.249L95.4903 235.393C96.034 236.015 96.9793 236.079 97.6018 235.535C98.2242 234.992 98.2881 234.046 97.7444 233.424L89.8693 224.408L98.8857 216.533C99.5081 215.989 99.572 215.044 99.0283 214.421C98.4846 213.799 97.5393 213.735 96.9169 214.279L86.7735 223.138ZM155.1 218.631C137.987 223.208 111.141 224.345 87.8588 222.772L87.657 225.758C111.082 227.341 138.303 226.222 155.873 221.522L155.1 218.631Z" fill="#0197FF"/>
<path d="M383.345 66.4144C384.119 66.1236 384.51 65.2608 384.219 64.4872L379.481 51.8806C379.19 51.107 378.327 50.7156 377.554 51.0064C376.78 51.2971 376.389 52.16 376.679 52.9336L380.891 64.1394L369.686 68.3513C368.912 68.6421 368.521 69.505 368.811 70.2786C369.102 71.0522 369.965 71.4436 370.739 71.1528L383.345 66.4144ZM316.695 62.3541C337.722 56.1262 363.592 57.9349 382.2 66.3764L383.437 63.6509C364.152 54.903 337.54 53.0586 315.845 59.4845L316.695 62.3541Z" fill="#CD5CAE"/>
<path d="M484.334 169.427C484.984 169.937 485.925 169.823 486.435 169.173L494.746 158.575C495.256 157.925 495.142 156.984 494.491 156.474C493.841 155.964 492.901 156.078 492.391 156.728L485.003 166.149L475.583 158.761C474.933 158.251 473.992 158.365 473.482 159.016C472.972 159.666 473.086 160.607 473.736 161.117L484.334 169.427ZM453.18 110.367C469.425 125.098 481.318 148.143 483.772 168.429L486.743 168.07C484.2 147.047 471.952 123.35 455.191 108.15L453.18 110.367Z" fill="#CD5CAE"/>
<path d="M381.01 219.006C380.358 219.514 380.241 220.455 380.749 221.107L389.024 231.732C389.532 232.384 390.472 232.501 391.124 231.993C391.776 231.485 391.893 230.545 391.386 229.893L384.03 220.448L393.475 213.093C394.127 212.585 394.244 211.645 393.736 210.993C393.228 210.341 392.288 210.224 391.636 210.731L381.01 219.006ZM449.482 218.349C432.139 221.957 405.272 221.582 382.115 218.702L381.745 221.672C405.044 224.57 432.285 224.983 450.091 221.279L449.482 218.349Z" fill="#CD5CAE"/>
<path d="M305.2 125.099C304.379 125.194 303.791 125.937 303.886 126.758L305.439 140.136C305.534 140.957 306.277 141.545 307.098 141.45C307.919 141.355 308.507 140.612 308.412 139.791L307.032 127.9L318.923 126.52C319.744 126.424 320.332 125.682 320.237 124.861C320.142 124.04 319.399 123.451 318.578 123.547L305.2 125.099ZM342.253 184.234C340.61 174.231 335.593 162.688 329.05 152.113C322.503 141.531 314.345 131.783 306.302 125.413L304.444 127.759C312.143 133.857 320.086 143.312 326.505 153.687C332.928 164.069 337.742 175.237 339.299 184.719L342.253 184.234Z" fill="#CD5CAE"/>
<defs>
<linearGradient id="paint0_linear_651_6627" x1="299.334" y1="48.749" x2="222.184" y2="75.0796" gradientUnits="userSpaceOnUse">
<stop stop-color="#53C1FF"/>
<stop offset="1" stop-color="#0053D0"/>
</linearGradient>
<linearGradient id="paint1_linear_651_6627" x1="306.707" y1="41.1562" x2="211.356" y2="73.6989" gradientUnits="userSpaceOnUse">
<stop stop-color="#53C1FF"/>
<stop offset="1" stop-color="#0053D0"/>
</linearGradient>
<linearGradient id="paint2_linear_651_6627" x1="71.8294" y1="186.686" x2="-5.32023" y2="213.016" gradientUnits="userSpaceOnUse">
<stop stop-color="#53C1FF"/>
<stop offset="1" stop-color="#0053D0"/>
</linearGradient>
<linearGradient id="paint3_linear_651_6627" x1="79.2023" y1="179.093" x2="-16.149" y2="211.635" gradientUnits="userSpaceOnUse">
<stop stop-color="#53C1FF"/>
<stop offset="1" stop-color="#0053D0"/>
</linearGradient>
<linearGradient id="paint4_linear_651_6627" x1="299.334" y1="326.412" x2="222.184" y2="352.743" gradientUnits="userSpaceOnUse">
<stop stop-color="#53C1FF"/>
<stop offset="1" stop-color="#0053D0"/>
</linearGradient>
<linearGradient id="paint5_linear_651_6627" x1="306.707" y1="318.819" x2="211.356" y2="351.362" gradientUnits="userSpaceOnUse">
<stop stop-color="#53C1FF"/>
<stop offset="1" stop-color="#0053D0"/>
</linearGradient>
<linearGradient id="paint6_linear_651_6627" x1="530.421" y1="184.894" x2="453.272" y2="211.224" gradientUnits="userSpaceOnUse">
<stop stop-color="#53C1FF"/>
<stop offset="1" stop-color="#0053D0"/>
</linearGradient>
<linearGradient id="paint7_linear_651_6627" x1="537.794" y1="177.301" x2="442.443" y2="209.843" gradientUnits="userSpaceOnUse">
<stop stop-color="#53C1FF"/>
<stop offset="1" stop-color="#0053D0"/>
</linearGradient>
</defs>
</svg>
